<svg version="1.1" xmlns="http://www.w3.org/2000/svg" viewBox="0 0 205 320.5" xml:space="preserve">
<path fill="#fff" d="M63.5 111.2l1.6.5.2-.2.1-.4-.2-.5v-.4l.2-.2.2-.1.2-.2.1-.4.2.3v.5l-.1.3.2-.1.4-.5h.2l-.1.3.1.3.1.1.1.1v.1l-.1.1h-.1l.3.2h.2v.3l-.3.2h.2l.4-.2h.4l.1.1.2.3 1 .9.3.4-.5-.1-.3-.4-.3-.3-.3-.3-.4-.1-.3.2-.8.5.1.3v.1h.1l.1.2v.1l.1.3.1.1.7 1.1H69l-.1.2-.1.2-.2.1-.2.1.3.5.3.5.2-.2.3-.1.3-.1h.3v.2l-.5.7-.2.2v.2l2.4-.6.3-.2-.3-.3v-.2l.2.1h.2l.1.2.1.1.2-.1v-.1l.1.1.2.1v.5l.1.6.1.6.2.2.2-.1.2-.3.1-.4.2-.2-.1-.2.2-.2.1-.2.2-.5-.2-.5-.1-.2-.1-.3.2.1.2.2.4.7.1.2v.4l.1.1 1.4-.1.5-.1.4-.3v.3l-1.6.8-.2.2-.1.2-.3.6-.1.1-.1.1v.3l-.1.1-.1.1v.2l.1.3-.5.6-.1.5.2.5.2.1.9-.2.3-.2.3-.3 1-1.4.1-.2.2-.2.3-.2.4-.3.1-.4.1-.7.1-.2h.7l.2-.2.6-.5.4-.5.1-.2v-.8l.2-.8h-1.2l-.3-.4h-.5l-.4.2-.5.5-.7-.1-.1.1-.1.2-.1.2h-.3l-.1-.2-.1-.3-.2-.3-.2-.1-.4.1-.3-.1-.1-.1-.4-.4-.3.1-.4.1-.4.1v-.2l.4-.2.2-.3-.1-.2-.4-.2-1.4.2.2-.2.6-.3.1-.3-.1-.2-.3-.2-.2-.4-.1-.5.1-.2.2-.2.1-.3-.2-.3-.2-.1-.3.1-.3.2-.2.2.2-.3.4-.4.1-.3v-.4l.2-.7v-.9l-.2-.9-.1-2.2-.1-.2-.2-.3-.3-.4-.7-.7-.1-.1-.4-.7-.1-.2-.4-.4-.2-.2-.1-.3-.1.1v.1h-.2l-.2-.1-.1.2-.1.4-.2.4-.1.1-.6.4-.1.1-.1.1v.4l.1.2.2.1v.7l.1.2h.2l.1.1.2-.1-.2.7-.2.3v.3l.2.6.6.7.2.4v.4l.1.2.1.2.1.1v.2l-1.3-1.7-.2-.1-.2.6-.4.4h-.1l.3-.9h-.2l-.3.1H67l-.2-.2-.2-.3-.2-.2-.8-.4-.1-.1-.2-.2v-.5l-.1-.2-.4-.3-.2-.3-.2-.2h-.3v.2l.2.3-.1.4-.2.5-.2.3.4.1.6.4.4.4.1.6-.5-.2-.3-.1-.1.2v.1l-.2.1v.2l.2.2v.1l.1.1.2.4-.1.1-.1.1v.2l.1.4-.2-.1-.3-.2-.1-.2-.2-.3-.8-1.3-.2-.1-.2.1-.2.3-.1.4v.4l.2.3.2.3h-1l.2.7.6.5.2.8.1.4.3.4.4.3zm8.3 37.9l-.1.2-.3-.2-.1.2-.1.1-.3.5-.2.3-.1.4-.1.4-.2.2.3.2h.5l.4-.1.3-.3v-.5l.2-.6.5-.9v-.4h-.2l-.3.1-.3.1.1.1v.2zM56.5 102h-.6l-.2-.2-.5.3-.3-.2.3-.2.1-.3-.1-.2-.2-.3h-.4l-.8.6-.4.2.3.2h.1v.2h-.4l-.9-.4.2-.4.1-.1.1-.1v-.2l-.4.4-.6.7-.5.5-.3-.4.4-.2h.1v-.2l-1.1.2-.4-.2-.3.5-.2.6-.3.6-.3.2v.2l.7.6.3.1.2.1.1.1.2-.1.1-.1.1-.2.5.1 1 .7h.6l-.4.2h-.1l.1.2.1.2.1.1.1.4.1.1.2.1.3.1.6-.1.2.2.3-.2.3-.1.7.1.4-.7v-.4l-.1-.1-.3-.1H55l-.9.2h-1.2v-.2l.7-.6h.2l.1.1.1.4.1.1h.1l.3-.2h.1l1-.1.4-.3.3-.7-.5.2h-.3l-.1-.3-.1-.4-.1-.1h-.5v-.2l.1-.2v-.2H54.5v-.3h.7l.4.4.2.1.1.1.1.2.2.2.2.1.1-.1.3-.6.2-.1-.2-.4-.3-.2zm2-2.5l.3-.4 1-.7.4-.3-.1-.1-.1-.1h-.1l.5-.4.2-.2.1-.3-.1-.1-.1-.3h-.1l.1-.3.8.6.4.1v-.2h-.2v-.2h.3l.3-.1.3-.1.1-.3-.1-.1-.4-.7-.1-.2-.4-.1-.2-.1.1-.3.1-.2.1-.1.2-.1.6.3 1.3.4v-.7l-.1-.2-.1-.1h-.1l-.1-.1-.2-.2h.2v-.1l.1-.1.1-.1-.1-.2-.2-.3-.2-.2-.2-.1-.2-.2-.4-1-.2-.3.3-.2.5-.5.4-.5.1-.3v-.2h1.6v.2h-.7l-.6.2-.4.5-.3.8v.4l.2.5.4.9.1.4.1.1.2.2.5.3.1-.2-.1-.2-.2-.4v-.5h.2l.1.2.1.4.2.4.3.2.3.1.4-.2v-.3h-.1l-.1-.1V92.9l.3.1.2.1h.2l.3-.2.1-.2.3-.5.2-.1v-.3l-.3-.3-.6-.2-.2-.2-.4-.2-.1-.1.1-.2h.1l.3.1 1.6.3.4-.1.2-.3.3-.3.3-.4h-.4l-.2-.1-.2-.1.1-.1h.2l.1-.2.1-.1-.1-.2-.1-.1v-.4l-.1-.4-.1-.3-.2-.2-.3.1-.5.3-2.1.5h-.7v-.2h.3l.9-.2.4-.5.2.1.2.1.2.1.2-.2.6-.7.8-.2.3-.2v-.3l-.1-.1.1-.2.1-.1-.1-.4-.4-1.1h.2l.5.3.3.1.8-.1.2.1.5.4h.3l.3-.2V85l.2-.3.1-.1.1-.1.5-.2-.1-.3V83.7l.1-.2.1-.1h-.1v-.2l.1-.2-.1-.1-.3.1-.3.2-.8.9-.5.2h-.6l-.6-.2-.4-.5h.5l.2-.1.1-.1.1-.3-.1-.2.1-.3.4-.2.2-.4.2-.1.2-.1.1-.1.1-.2-.1-.3.3-.3.7-.6.4-.1v-.3h-.3l-.2-.1-.2-.1-.1-.2.3-1.3.2-.2.3-.2-.1-.3-.3-.5-.1-.5-.2-.6-.3-.6-.3-.4h-.4l-.5.5-.8 1-3 2.4-.4.5-.1.2-1.1.5-.4.2h-.6l-.2.1-.1.1-.1.1-.2-.1-.3.5-1.4 1.2h.2l.1.1.1.1v.2h-.1v.1l-.1.1-.1.1.1.1.1.2.1.3.1.1v.3h.1l.1.1.2-.1h.1l.1.2.1.5.1.2.1.2.4.2-.4.7-.2-.5-.4-.4-.5-.2-.2.1-.2.1-.8.2v.4l-.1.2-.2.1.1.3.3.6.1.2v.8l-.2-.3-.3-.6-.1-.6v-.5l-.2-.3-.4-.5-.1-.4h.5v-.2l-.9-.5-.1.2-.2-.1-.6-.3-.3-.2-.3.4-.1.2v.4l.1.4.1.1.5.2-.4.2-1.2.1v.2h.1l.1.1.1.1-.1.2v.1l-.1.1h-.1v.3l-.2.3V87.4h.2l.1.2-.1.4.1.1.5 1h.1l.8-.5-.1.2-.1.2-.1.2-.2.1h.5v.2l-.2-.1-.2.1-.1.1-.1.3h.5l1.6-.4-1.1.5-.5.2-.5.1v.2l.1.1v.2l-.3-.1-.3.2-.1.3-.3.2.8.6h.1l.2-.2.2.5.4.2h1l.2.1.5.4.2.1h.9v.2l-.1.1-.3.2.1.1v.1l.1.1-.5-.1-.5.1-.8.5v.2l.8.7-.8-.1-.4.1-.2.4-1.4 1.3v-.4l-.1-.3-.2-.1-.2-.1-.2.1v.2l.1.3.1.2.2.1 1 1.3.1.1.9 1 .1.1zm-1.8-4.6l.3-.1.1-.1.2-.2v-.3l.6.4.2-.1v-.7l-.3-.2-.4.1-.7.7.1.1v.1l-.1.3zm22.7 51.8l-.3.3-.2.5h.4l.6-.2.3-.3-.1-.5-.1-.2-.6.4zm1.1-1.3l-.2.3.3.8.2.2.2-1 .1-.4.2-.4-.1-.5-.1.2H81v-.1l-.1-.1-.2.3-.2.7zm1.1-2.5l.1-.3-.2.1-.4-.1-.2.2-.2.6.1.5.3.2.3-.3-.1-.4.1-.2.2-.3zm-7.8-9.7l-.8-.4-.2-.1h-.6l-.6.2-.5.4-.1.6-.1.1h-.1l-.2-.1-.1-.2-.3.2-.3.2h-.6l.1.4.4.4.1.2-.8.6.2.3.3.2.3.1 1.6.3.3.2.2.2.2.3.3.6.1.2.2-.1.1-.1.1-.1h.4l1.1-.6.1.2.1.2v.3l-.1.3-.2.2-1 .5-.6-.1-.2.1-.1.2-.1.2v.2l-.3.6-.1.2h-.2l-.2.1-.2.2v.7l.4.2.4.1.8-.2 1-.6.3-.1.1.2-.3.3-.8.6-1.1.2-.3.3-.3.1-.7-.2-.3.2h.1v.1h.1l.1.1v.2l-.3.2-.2-.3-.2-.4-.3-.3-.3-.1-.4.1-.4.3-.2.4.1.5.3.5.3.3.4.3.4.1h.2l.2-.1.1-.2.1-.2.1-.1h1.5l.2-.1.4-.2.1-.1.2.1.2.1.3.1.1-.2.3-.3 1.4-.7.5-.1.2-.1.1-.2.1-.2.1-.1.4-.2h.2l.1.2v.2l-.2.3-.1.2-.1.1.5.3.6-.1 1.5-1 .3-.4.1-.3-.2-.2-.7.1-.3.2-.2.2v-.3l.5-.4.2-.4v-.4h.2l.1.1.1.1v.3l.2.1h.6l.2-.2-.2-.4-.2-.4-.1-.2h.3l.1.1.1.1.1-.6-.1-.1h-.4l-.1-.4-.2-.3-.2-.3-.2-.2h-.1l-.3.1-.2-.1-.1-.1-.4-.6-.1-.1H77.9l-.3.2-.1-.1-.1-.2-.2-.1h-1.6l-.2-.1-.1-.1v-.4l-.7-1.7-.4-.6h-.5v-.2l.1-.3zM62 135.9l-.9.3-.4.1-.6.4-.4.1-1.1.2-.4.2.2.5.1.5.1.3 1.1.5h.3l-.1-.5.3-.6.4-.1.4-.1.3-.3v-.5l1-.1.3-.4-.2-.5H62zm11.6-24.3v.3l.2.2.3-.1.3-.2.2-.1.3-.2-.1-.6-.2-.5-.1-.2v-.9l.2-1.1.3-.9v-.7l-.1-.1-.2-.1h-.1l.2.4v.2l-.3-.2h-.2l-.2.2.2.4.1.1.1.2v.2H74l-.3.3-.1.5-.1 2v.5l.2.3-.1.1zM60.4 84.1v.2h-.2v.2h1.3v-.3l-.1-.2-.2-.2-.1-.2-.2.1-.5-.6-.3-.1-.1.3v.4l.2.3.2.1zm14.9 22.1v-.5l.2-1.2-.1-.2h-.1l-.1.2-.2.2.1.1.1.1-.2.4-.1.4.1.3.3.2zm-.4 5.9l-.4.3.1.4.4.4.4.2.6-.2-.1-.5-.4-.5-.6-.1zm-23.3 10.2v-.3l-.1-.2-.2-.1-.5-.3.1-.1.2-.6-.1-.1h-.1l-.1-.1-.1-.1-.1-.1-.2.9-.3.2-.4.1-.4.3.2.2v.4l-.1.3-.1.1-.3.2-.2.3v.3l.2.1 1.1.2h.3l.2-.2.2-.2-.1-.2.1-.1.1-.1.2-.2.1-.2.1-.1h.5l-.1-.1-.1-.2zm3.6-22.3l.3-.3-.1-.4-.3.1-.8.8.4.1.5-.3zm-.9 12.6l-.1-.3-.2-.2-.3-.1h-.5l-.2-.1-.2-.4h-.1l-.4-.2-.1-.1-.2.1-.1-.1-.1-.3v-.1l-.1-.1-.1-.2-.1-.1.4-.2.3.3.3.5.7.4.3.4.4.1.4-.2v-.2l-.3-.1-.5-.5-.4-.1v-.2l.3.2.1-.1.2-.1-1.5-1H52l-.8.4-.3.2.5 1.4.2.9-.2.5h-.2l-.1.2v.3l-.1.3-.2.6-.1.2-.2.3h.2l.2.2.2.4v.2l-.1.4.1.5.4 1.6.2.3.5.6.5-.3 1.4.2.4-.4v-.2h-.4l-.2-.2-.2-.4-.3-.2h-1.1v-.2l.6-.1.4.1.2.2.2-.4.1-.6-.1-.6-.2-.5-.3-.3-1-.3v-.2l1.3.3.3-.1.1-.3.2-.6.1-.3.2-.2.2-.1.1-.2.1-.5-.3.1-.2-.2zm-.6-5.4l-.2.1h-.2l-.1-.1-.1-.2-.2.2-.2.1-.2-.1-.2-.2-.4.1-.3.2-.3.5v.6l.2.4 1.3.8.4.1 1.4-.5.1-.2-.2-.2-.2-.1h-.4l-.1-.1-.1-.3h.3l.4-.4.2.2.1-.2-.5-.4H54l-.2.1h-.1l-.2-.1.1-.1.1-.2zM74.2 161v-.6l-.2-.2-.1-.1-.1-.1v-.2l.1-.3v-.2l-.1-.1-.1-.1-.3-.3-.2-.3-.1-.3-.1-.9-.2-1.6-.1-1.3v-.2l-.1-.1h-.2l-.1.1-.3.2-.2.2-.2.1-.3.1-.4.6-.6.3-.5.6-.4.6.2.6v.2h-.2l-.2-.3-.1-.5v-.2l.2-.8.1-.2-.2-.1-.2.1-.2.3-.9.4-.6.4-.1.3v.3l-.1.5v.3l-.2.2-.2.1.6.4-.8 1.2-.2.4.1.1.1.1.1.1-.2.5v.5l.2.3.4-.1.2-.3.6-.8.5-.3.2-.5.4-1 .4-.3.4-.1.5.1.4.1-.8.8-.4.5-.1.6h.2l.6.3.2.3.4 1-.9.5-.4.4-.1.7.3.7.4.1.4-.1.4-.4.2-.2v-.1l.2-.6.2-.1.7.1.5-.2.4-.2.4-.4.3-.4.1.2.1-.2.1-.2.2-.1.2-.1v-.2l-.1-.3-.1-.3zm11.6 108.7l.1-.4v-.1l-.1-.1h-.1l-.1.1.1.2h-.1v.3h.2l-.1.1.1-.1zm10.7 6l.1.1h.2v-.2l-.2-.1-.3-.1v.1l.1.1v.1h.1zm-9.9-2.6h.1l.2-.2h-.2l-.2-.2-.2.1-.1.1.1.1.1.1v.1l.2-.1zm-.6-112l-.5.4-.4.7-.2.6-.1 1 .2.7.3.6.4.5-.1.2v.1l-.1.1h-.1v.2l.1.3.2.7v.4l.7.6.7.5.7.2.9.1.8-.1.4-.2.2-.3v-.4l-.2-.5v-.4l.4-.3-.7-.3-.2-.1v-.4l.1-.1h.3l.1-.1v-.6l-.7-.8.1-.4-.3-1.4-.2-.7-.4-.5-.3-.3-1-.6H86.5v.1l.1.3v.1l-.6.1zm5.2-1.9l.1-.2-.2-.9-.1-.4-.2-.4-.2-.4-.1-.1-.2-.1-.1-.1-.1-.7-.1-.1h-.2l-.1-.1-.5-.6-.5-.4-.6.3v.4l.2.5.1.5.1.2.6.4.1.4.1.8.2.5 1.1 1.1.2.5.2.2h.2l.1-.1v-.3l-.2-.2-.1-.1.1-.4.1-.2zm11.1 39.4l-.3-.1-.3.1-.3.2-.6.1-.9.5-.6.6-.4.8-.8 1.8-.2.3-.5.4-.3.5-.4.3-.4.1V204.5l-.1.2-.1.5-.1.3v.9l-.2.5-.5.8v.5l-.1.1h-.1l-.1.1h-.1v.2l.4.1.4-.2.3-.3.4-.2.2.1.3.4.3.1.2-.1.2-.1.2.1.1.3.2-.8.2-.2.2-.1h.2l.3-.1.1-.3.2-.3.9-.6v-.3l.5-.5.6-.3.3-.4-.1-.8.4-.2.1-.2.1-.2.1-.2.1-.3h.1l.3-.5.1-.1.1-.1v-.3l-.1-.2-.1-.2-.1-.1h-.3l-.1-.1-.1-.2-.1-.5-.1-.2-.1-.4.4-1 .1-.5zm-31.7-77.3l-.4-.4-.9-.6-.6.1-.5.4-1 1.2.3.2.5.5.2.1.3.2.3.7.3.2.6-.1.4-.2.4-.7.2-1.1h-.4v-.2l.3-.3zm32.9 106l-.1-.2-.7-.3h-.3l-1.2-.2h-.2l-2.1.7-.3.2.2.4v.4l-.1 1v1l-.1.3v.2l.3.4.6 1.1.3.3.1.2V233.5l.2-.1.6.5v.1l.2-.1.4-.5.2-.1.2.1-.1.2-.2.3-.1.1v.1l-.1.3v.4H101.5l.1-.1v-.1l.4.2h.4l1.1-.7.2-.3.6-.4h.1v-.4l.1-.2.1-.1.3-.4.4-.3.4-.2.4-.1.4-.2.6-1.1.3-.4-.2-.1-.2-.1h-.6l-.2-.1-.1-.1-.1.1-.1.3h-.1l-.2.1-.4.1h-.2l-.3-.1v-.1l-.1-.2v-.4l-.3-.3-.1-.1v-.5h-.1l-.2-.2-.2-.1v-.1l-.1-.1v-.4l-.1-.3zm-21-86.7l.3-.4.3-.5-.2.2h-.8l-.2.4-.1.1-.1.3h.4l.4-.1zm16 90.3l-.1-.4-.1-.3-.2-.3-.3-.3-.1-.1-.3.1-.2-.1-.2-.1-.4.4v.2l.2.5.1.1.5-.1.2.1.1.2.4.6.3.3.2.1.1-.1.1-.3-.1-.2-.1-.2-.1-.1zm105.6 20.4v-1.5l-.1-.5.1-.5-.3-.8-.3-.8-.3-1.3-.4-.7-.5-.6-4.1-3.2-2-1-5.2-1.3v.2h.5l.1.1.2.1-.7.4-.8-.2-.8-.4-.6-.2h-1.8l-.4-.2-.4-.1-.3.1.1.2h-.8l-.9.2-.8.4-.6.6-.2.4-.3.7-.2.8-.1.6-.2.4-.4.5-.4.5.1.4v.2l-.2-.1-.5-.7-.3-.1-.6-.1-.4.1-.3.2-.4-.5-.8-1.4-.4-.2-.3-.1-.4-.4-.3-.1-.8.2h-.5l-.1-.4.3-.4.2-.1.4-.2.4-.4 1.3-1.9.2-.2.3-.1 1.5-1.5.3-.2.3-.1.2-.1.1-.2.4-1.4-.1-1.2-.2-1-1.4-3.8v-.4l-.2-.4-.3-.4-.3-.2.2-.2-.5-.4h-.2l-.1-.1v-.6l-.1-.2-.3-.3-.3-.1-.3-.1-.3-.2-1.6-1.3-.8-1-.2-.1h-.6l-.3-.3-.5-.6-.7-.4-1.2-1.8-.4-.6-.4-.2-3 .6-.5.3-.2.1-.3-.1-.2-.2-.6-.5-.4-.1h-.5l-.5.2-.3.5-.1-.2-.1-.1-.2-.1h-.1l1.1-.8.4-.1.9.1.1.1.4.4h.1l.6-.1h1.3l2.1-.7.8.1.5.4 1.6 2.1.3.3.4.1.3.1.5.1.3-.1.7-.4.3-.1.3.2.8.5.3.1.3.2-.1.5-.4.9.4-.3.1-.1.2-1-.3-.9-3-4.4-1.7-2.8-.3-.9-.5-1.8-.4-.8.5-1.1.5-.6 1.4-.9-.6-.5-2-.8-.4-.5-.1-.1-.1-.8-.1-.3-.4-.2-.2-.2-.2-.1-.7-.2-.1-.1-.3-.5-.1-.1v-.1l.1-.3-.2-.1-.1-.1-.1-.2-.1-.2v-.6l-.2-.7-.3-.7-.2-.4-.3-.3-.5-.4-.2-.2v-.8l-.2-.4-.5-.5-3.7-2.4-3.5-1-.8-.6-.7-.1-.3-.1-.3-.3-.3-.3-.1.8-.1.1-.2.1v-.1l-.1-.1v-.2l-.1-.1-.1.1v.1H154.9l-.1-.1v-.2l.4-.2.1-.2.2-.2-.2-.2-.1-.2v-.2l-.1-.2-.1-.2v-.2h.3v-.2l-.8-.4-.3-.2-.6-.8-.3-.9-1-3.6v-.3l-.1-.1v-.2l-.1-.7v-.1l.1-.2v-.1l-.2-.4-.4-.4-.1-.1-.2-.2-.1-.3-.1-.4-.1-.2-.1-.3-.3-.7v-.3h-.1v-.1l-.2-.1h-.1l-.1-.2-.1-.6-.1-.7v-.2l-.3-.4-.1-.3.1-.3.1-.2v-.3l-.1-.3-.1-.2-.1-.2.1-.3-.4-.5-.2-.3-.1-.3v-.2l-.1-.2v-.2l.1-.2v-.1l.1-.2v-.8l-.4-.7-.1-.6v-.5l.1-.4v-.3l-.1-2v-.4l-.1-.1-.2-.1-.1-.1.1-.3v-.2l-.3-.3-.1-.1v-.2l.2-.2-.2-.2-.1-.2v-.2l.1-.2v-.2l-1.2-.8-.3-.1-.6.2-.2-.1v-.2h.3l-.1-.4-.2-.3-.2-.1h-.2l-.1.1-.1.1-.1.2h-.1l-.1-.1-.1-.2-.1-.2-.3-.3-.2-.3-.2-.7-2.2-2.9-.3-.4-.9-1.9-.3-.4-.4-.1-.1-.1-.1-.2v-.3l-.1-.2-.1-.1-2.7-.5-.7-.4-1.1-.9-.6-.2-.7-.5-.3-.3-.1.1-.1.2-.1.1-.3-.2-.4.1-.2-.1.1-.1.1-.5-.3-.2-.5-.7-.3-.1-2.8-.2-.3.1-.5.6-.3.3.1.1v.2l.1.3-.4.1-.3.3-.3.5-.4.3-1.2.6-1.1.1h-.2l-.1-.1-.3-.5-.1-.1-3-.2-.3-.3-.2-.2h-.2l-.3.1h-.7l-2.9-.8h-.4l-.9.2-.2-.1-.1-.1-.1-.2-.1-.2h-.1l-.4.1-.1-.1-.1-.2-.6-1-.1-.1-.2-.3-1-.7v-.1h.4l.2.1.4.5.6.6.6.4.6.2h1.5l2.7.8h.7l.6-.1.7-.3.5-.4.4-.2h1.2l.2-.2.2-.4.2-1 .2-.3.3-.2.3-.1.9-1.1.9-.6.2-.3.1-.2.4-.1h.8l1.1.5.4.1.3-.1 1.1-.7.8-.2.4-.2.3-.6.9-.9v-.2l-.6-.5-.1-.1-.6-.5-.4-.2-1.5-.1-.1-.2-.1-.1h-.2l-.2-.1v-.1l-.1-.4v-.1h-.5l.3-.3.2-.5.2-.5-.1-.6-.2-.4h-.6l-.3-.3-.3-.2-.4.1-.3.2-.2.3-.1.2-3.4 1.7-.6.1-.7.5-.4.1h-.7l-.3-.2-.2-.2.8.2.7-.3 1.7-1.8.6-.4.6-.3 5-.7h.2l.1.1.1.1.2-.1.3-.8.1-.2.7-.3.3-.3.3-.6 1.6-1.1.2-.3.2-.6.3-.3.1-.2v-.2l-.1-.4v-.2l.1-.5.3-.3.2-.4.2-1.3.2-.5.3-.3.3-.3.9-.6.3-.3.4-.7.4-.7.6-.4.3-.4.1-.5v-.2l.3-.4.1-.2v-.3l-.1-.3-.1-.1v-.3l.2-1.1.5-1.1 1.5-2.4.3-.6-.1-.3-.3-.2v-.6l.1-.6.4-1.6 1.1-2.9.4-.7 1.7-1.6.1-.4.3-.6.6-.9.4-.4.1-.2h-.2l-.1-.2v-.2l.1-.3h.2l-.5-.5-.1-.4V105.3l-.2-.5-.1-.5-.1-.6-.1-.5-1.4-1.6-.2-.4-.2-.1-.2-.1-.2.3h-.2l-.2-.2-.1-.3-.1-.3v-.1l-1.9-.1-.3.1-1 .8-.4.1-.3-.1-.8-.5-.3-.1-.2.1-.1.1-.1.2-.1.2-.1.1h-.2l-.3-.2h-.1l-.3.3-.2.1-.2-.1-.2-.1h-.1l-.1.2-.8-.4h-.3l-.2.1-.1.2-.2.1-.2-.4h-.6l-1.4-.5-.5.3-.2-.2h-.2l-.1.1-.2.1-.1-.1-.2-.3-.1-.1h-2.7l-.2.1-1.1.8-.7.2h-.7l-2.2-.8-1.2-.8-2.1-.1h-.2l-.4.3-.3.1h-.2l-.1-.1h-.2l-.1.3.1.4-.2.4-.3.3-.2.2-.3.1-.4-.1-.6-.2.4.8-.3.1-.2.1h-.2l-.2-.2.1-.1.1-.2.1-.3-1 .2-2.6 1.9-.5.2-1.6-.2-1.5.3-.5-.1.7.6.2.4-.3.1-.3.1-.2.1-.3.3-.3.4-.2.1-.4.1v.1l-.1.2-.3.3-.3.2h-.3l-.6-.2.2-.2.2-.4.3-.7-.2-.1-.3-.1h-.4v-.2h.9l.4.1h.1l-.2-.3.3-.4.3-.2h.8l-.1-.1v-.1l-.1-.1v-.2l.5-.9.5-.4.5-.6.4-.6-.1-.4h-.3l-.7.5-.2.2-.3.2h-.3l-.9-.2-.2-.2-.2-.1h-.1l-.7.4-.7.6-.7.5-.2.3-.2.3-.3.3-.2.2-.5.3-.2.1h-.1l.1-.5.2-.3.1-.2 1.1-1.1.2-.1.3-.2.1-.4.1-.4h.3l.3.1 1.1-.3.4-.1.2-.1 1.3-1.1.6-.3.5.5-.2.5v.3l.3.1.3-.1.3-.2.4-.7.4-.3 2.2-3 .2-.3v-.5l-.1-.3h-.2l-.2.3-.5.7-.6.6-.6.2-.6-.1.2-.4-.3-.4-.5-.1-.9.7-.6-.1-1.1-.8.1.5h-.3l-.4-.2-.2-.4-.3-.3-.4.1-.7.3-.6-.1-.5-.5-.9-1.3.3.1.3.3.6.8.3.2 1.4-.3.5.1.9.5h.5l.1-.1.3-.4.2-.1h.2l.5.1.3.1-.1-.4.1-.3.3-.6-.3-.6-.1-.2-.3-.1h-.5l-.3-.2-.1-.3v-.4l.5.3.4.1.3.1-.1.2v.1l.3.1v-.3l.1-.3.1-.1.1-.1 1.1-.8.5-.1.5-.3.1-.1.1-.2.2-.7.1-.3.3-.3 1.3-.7 3.6-3 .7-.8.3-.5.2-.5.1-.3.9-.9.6-.4 1.5-.5.7-.4.6-.8.9-1.3.7-1.4.1-1.1.2-.1.2-.2V76l-.1-.2-.2.1-.2.1h-.2l-.4-.2-.1-.4v-.5l.2-.7.1-.2.4-.4.2-.3.2-.5.2-.3.1-.5.3-.6.1-.6-.6-.3-1.1.3h-.5l-.9-.7-.6.1-1.1.3h-.6l-.1-.1v-.3l-.1-.3-.1-.1-.2-.1-.3.2-.4.5.2.4.3.4.3.2.3.1-.2.6-.5.1-.9-.5-1 .4h-.5l-.4-.4h.1l.2-.2-.4-.2h-.5l-1.1.2-.6.3-1.2.9-.7.3-1.4.3-1.5-.3-.3.1-.1-.1-.3-.6v-.1l-.1.1h-.1l-.2.1-.2.5-.1.3-.2.1h-.2l-.3-.1h-.7l-.1.1-.2.4-.1.1-.2-.1-.4-.1h-.2l-.1.1v.2l-.1.2-.2.1.2.3-.4-.1-.5-.5-.3-.1h-.2l-.4.2-.6.5-.1.1-.7.7-.1.1v.4l-.5.7-.2.2-.3.2.3-.7.2-.7.2-.6.4-.4v-.7l-.8-.6-.7-.3-.7-.2-.4.2-.2.5-.1.5-.2.6-.3.3-.3.2-.3.2-.1.5-.2.1-1 1.1h-.3l.2-.4.3-.6.3-.8.6-.6.2-.3.1-.2v-.5l-.2-.1-.2-.1-.4-.4-.3-.1-.5-.7-.3-.3.1.6-.1.2-.2.2-.1.5.1.3-.1.3-.1.3-.3.3.1-.3.1-.2v-.6l-.1-.4-.1-.5v-.2l-.3-.4-.4-.2-2.2-.5-.2.3-.1.6-.1.6-.1.7h.1l-.2.5-.3.2-.9.6-.1.1V75.7l1.8 1.6-.5-.4-.4-.2-.9.6.1.2h.2V77.8l-.2-.1v.3h.4l.1-.1.2-.2.1.3v.2l.1.3.5.3-.7.1-1-.7h-.1l-.2-.2h-.1l-.1.1v.5l-.2.4-.1.3v.3l.2.3h-.3v.5l.2.4.4.5v.2l.1.1.5.8.3.1.2.1.3.3.2.1.2-.1.1-.3.2-.1h.3l1.1.3-.3.1-.4.1-.3.2.5.3.2.2.2.4-1.2-.9-.2-.1-.9.1-.2-.1-.5-.5-.3-.1-.2.1-.2.1-.2.3-.1.2-.4-.3h-.4l-.3.1-.7.4-.3.1-.2-.1-.7-.5-.4-.1-.3.1v.5l.8 1.2.1.1h.2v.1l-.1.4v.2h.2l.1.1.2.1.1.2-.1.2.2.2h.8v.2l-.2.2-.5.1-.2.2.3.2v.2h-.2l.1.2.1.3v.3l-.1.3h.1l-.4.5h-.3l-.4-.2-.4.3-.4-.8-.6-.2-.3.5.5 1v.2l-.1.1v.2l-.1.1h.7l.3.1.3.4h-.1v.1h-.1l.5.1.7.9.5.1.2.3.5.1.2.2.2.4v.3l-.1.2h-.3v.3l.4.1 1.6 1.5.1.2.1.2.1.3.1.3.1.1-.4-.2-.5-.8-.7-.4-.6-.6-.2-.1-.1-.1-.4-.3H87l-.3.2h-.2l-.4-.2-.4-.7-.4-.2-.1.4-.1-.1-.1-.1h-.1l-.1.2v.1l.1.1v.2l.1.1 1.1.5.7.8.5.2.2.2.3.4-1.3-.5-.5-.3-.5-.6-.2-.2-.8-.3h-.2l-.1.3-.2.9-.2.3.1.2-.6-.1-.7-.3-.4-.7.1-.8h-.7l-.1-.1-.3-.4-.1.3-.4.5-.2.3.1.1v.1h.2l-.2.3.2.4.6.6.3.5-.1.4v.4l.1.7-.3-.2-.2-.1H81l.1.4.1.2.1.1h-.2l-.3-.1-.2-.3-.2-.3-.1-.4-.1-.7-.1-.6.1-.4-.4-.3-.4-.1h-.5l-.4.2-.2.1-.2.3-.1.3-.1.3v.4l.2.7-.1.2.1.4-.1.8v.3l1.4.4.2.1.2.2.1.2.1.1.2.1-.1.3-.2.3h-.2l-.5-.5h-.3l-.7.3v.3l.1.2-.3.4-.1.4.1.4.2.1.3.1.2.1.3.5.2.6.3.5.6.1-.2.3v.1l.5.6.5-.4.7-.1.8.2.5.4-.1.2-.4.1-.7-.2-1.2.2.1.2v.1l.1.2.1.2-.2-.1-.5-.3-.2-.1-.3-.5-.1.1-.3-.2-.9-.9-.3-.2-.3-.1-.3.2.1.1v.4l.1.1h-.3l-.1.2v1.1l-.3.5V107.3l.2.6v.3l.1.1.5.1.2.1-.2.2V109.4l.2.3v.2l-.1.1h-.1l.3 1.2.4.2.8-.1.4-.2 1.2-1.5.2-.3h.1v.2l.2.4v.3l-.1.2-.4.2.5.1.4.2.3.1.5-.4.7-1 .5-.5h.3l-.2.9-.7.7-1.9.9-.4.1-.1-.1-.1-.2-.1-.2-.1.2-.2.1-.3.3-.2.1-.4 1v.1l.1.4h.4l.7-.2h.3l.6.3.4.1.3-.1.6-.4.3-.1.2-.2.2-.4.3-.3.4.2v.2l-.4.2-.4.4-.2.5.1.2.2.1.2.2.2.5.2.1.7.2v.2l-.7.2-.6-.5-.5-.6-.5-.4-.6.1-.7.5-.4.6.3.5-.2.4-.6.9-.1.5.2.3 1.4.4.2.2.4.6.1.1.2-.1.4-.1 1.4-.3.4.2v.3h-.1l-.2-.1-.2-.1H84l-.1.3-.1.1-1.7-.1-.3-.1-.7-.6-.4-.1-.3.1-.2.2-.5-.1h-.2l-.1.2-.2.3-.7.9-.3.5.2.2.2.1.3.3.2.1.1-.1.4-.1.1-.1.4.3v.4l-.1.4.3.2.3.1.4.3.3.1.4-.3.2.1.3-.1.2-.1.3-.1v.2l-.8.4-.9.2h-.5l-.3-.2-.2-.2-.2-.2-.4-.6-.1-.2-.5-.1-.5.2-.4.3-.3.4-.2.6-.2.7-.1.7-.3.3.3.4h.1v.3h-.6l-.5.2.7.2 1.6-.4.8.2-.7.7-.1.3.6.2h.4l.2-.5.3-.2h.3l.2.1-.5.6-.7.3-1.7.2-.3.2v.4l.4.4 1.2.6-.3-.1-.4-.1-.4.1-.3.3-.1-.1-.2-.1h-.4v.2l.3.1.1.2.1.3v.3l-.1-.1-.9-.4-.3-.2-.1-.2-.2-.1-.3-.1-.2.1-.6.4-.2.1-2.6.3-.2.2-.3.6h-.4v.5l.1.2v.1l.1.2.3.2.3.2.5.1.3-.2.3-.3h.4l1.2.3 1.2-.1.2.1.4.2.2.1h.2l.6-.2 1.8-1 .7.2.9.5.3.1 1.6-.2-.4.2-.5.2h-.9l-.4-.1-1-.5h-.4l-1.8 1.2v.3l.2.2.4.4-.2.2-.4-.5-.6-.2-.5-.2-.9.1-.2.1-.2.2v.5l.1.2 2.5 2.1 1 .2.6-.9h.1v.3l-.1.3-.2.5.2.2.3.2.3.2h.3l.2.1.1.4.2.1h.1l1.1-1 1.1-1.3.7-1 .2-.2.2-.2h.2l.2-.1.2-.6.2-.1.3-.1.3-.2.4-.6.2-.3.2-.2.3-.2.2-.2.1-.1h.3l.3-.1.2-.3.2-.4.1-.3v-.3l.1-.2.1-.1h.2l.2-.1.1-.2.1-.2.2-.2.9-.9-.2.6-.3.5-1.2 1.2-.1.2-.1.4v.2l1.3.6 2.7-.6-.3.2-1.3.3-.7.4-.3.1-.7-.2h-.4l-.5.5h-.2l-.4-.1-.4.4h-.2v.3l.4.2-.2.4-.7.6-.2.2-.4.8-.1.2v.2l-.1.2-.1.1-.1.1-.1.3h.3l.2.3.2.1.2-.1.4-.3h.2l.3-.3h.5l.6-.3-.2.2-.2.2-.4.2-.8.6-.3.1h-.4l-.4-.1-.4-.4-.1.4-.6 1.5.3.1.3-.6.2-.3.2-.1.3 1.2.2.2.5-.5 1.8.5.7-.1.2-.2.4-.7.6-.6.3-.5.2-.5.2-.4.4-.2-.4.4-.5 1.3-1.1 1.4-.4.4-.6.2-1.3-.4-1.7.1-.6.3-.4.6.1.3-.2.1-.2.1-.2.1-.1.3-.3 1h.3l.8-.2h.4v.2l-.9.3h-.4l-.3-.1-.3.3-.2.4-.2 1.1-.2.6v.4l.1.3h.1l.2-.2.1-.2.2-.1.7-.2.2.1.1.2v.3l-.2.1h-.3l-.4.2-.2.4.2.4-.4.4-.2.6-.3.6-.1.6.4-.3.4-.5.3-.5.5-.1-.1.4-.1.3-.5.8-.1.2.1.3.1.4v.1l.1.1.1.1.1.2v.1h-.2l-.1-.1v-.1h-.1l-.2-.1h-.2v.1l-.1.2v.1l-1.3 1.8-.6 1.2-.1.8v.2l-.1.2.1.2.2.1v-.1l.3-.6v-.6l.7-.9.1-.5.3-.2.2-.2.2-.1.2.1-.1.2-.1.1.1.1-.1.4-1.9 2.8.1.3.1.4.1.2h.1l.3-.3.5-.3.5-.6.4-.2-.2.3-.3.3-.3.3-.1.4-.1.2-.7 1.1.1.2v.8l.1.4.3.3.2.2.4.1-.1.4h.2l.2-.1.6-.5 1.7-1.8-.4.9-.5.8-.6.5-.4.2-.3.2-.2.5-.3.5-.1.4-.1.3-.9.8.2.4-.1.6-.3 1-.4.9-.1.3v.2l.2.2v.2l-.2.9v.7l.1.6v.7l-.2.3-.6.7-.5.4-.1.6.1.6.2 1.3.2.4.3.1h.4l.2-.1.4-.3h.4l.3.1.2.1.4-.1.3-.2.4-.3.2-.2.6-.8.2-.5-.2-.2-.1-.1-.2-.6-.2-.3-.1-.1-.2-.1h-.2v-.1l.4-.3.2-.4.4-1h.2v-1l.1-.3.4-.7-.1-.5.2-.2.3-.1.1-.4-.2-.3h-.2l-.1-.2V163.1l-.1-.1v-.1l.3-.3.1-.3v-.5l.1-.2.1-.4.1-.3.2-.3.8-.9.2-.1.6-.2.2-.2.1-.4-.1-.8-.4-.7-.9-1v-.1l.1-.1h.1l-.2-.2v-.2h.1v-.2l-.2-.2-.1-.2v-.3l-.1-.3-.1-.6-.1-.1-.3-.1v-.1l.1-1.6v-.5l.2-.1v.6l.3.1h.4l.4-.1.1-.3h.1l.1-.3.1-.5v-.1l.1-.1h.3l.2-.1 1.3-2.1 2-1.4.2-.2.4-1.1.2-.3.2-.3.3-.1h.7l.3-.2.6-.7.3-.2-.4.8-.5.4-.7.3-.5.4-.2.4-.6 1.3-.2.2-.7.5-1 .5-1.8 3.1-.4.5.2.9v.5l-.2.3v1.1l.1.2.1.1.1.1.1.1.1.8.2.2.6.2.7.4h.3l-.1-.5-.2-.5-.4-.8.5-.7.1-.2v-.3l.1-.4.2-.4.1-.3v.7l.2.3 1.1.9.3.2.1-.3-.1-.7-.6-1.6-.3-.5.3-.2.1.3.1.3.7.9v.6l.2.9.2.8.3.3.5.1h.2l.3-.3.1-.3.1-.3v-.3l.1-.3.2-.3.2-.2.1-.3.1-.4-.1-.4-.2-.2-.2-.2-.2-.1v-.2l.3.1.3.2h.2l.2-.1-.1-.3v-1l-.1-.6.1-.2.2-.1v-.5l-.1-1-.2-1.1-.2-.5.2-.3.2.1.2.3.1.4-.1.9.2.3h.3l.3-.4.9-2 .2-.3.2-.2.1.2-.1.4-1.2 1.9-.6 1.7v2l.2.4.4.1.4.1.3-.1.1-.2-.2-.6-.7-1.2-.1-.4-.1-.3.1-.2.3.1v.1l.2.9.2.4.3.4.3.3.6.3.9 1.1.7.4 2.5.6-.4.2-2.8-.4-.3-.2-.2.1-.3-.1-1.1-.5h-.5l-.5.3-.4.3-.3.5-.1.8.2 2.1.1.3.1.3.1.3.1 1-.3.7-.7.8.3.4.5.5 1 .7v.2l-.1.3.1.1h.6l.9.4.5.4.3.6.1.7-.3.5.6.2.4.5.1.8-.1.8-.4.5-1.1.6-.6.5-.1.3-.2.7-.1.3-.1.1-.3.3-.6.7v.2l-.1.2.1.7v.3l-.1.2-.4 1v.6h-.2l-.1.1-1.1 1.4-.7.5-.3.3-.1.6-.1.6-.1.4-.3.7v.2l-.1.2v.7l.1.3.2.6.1.3v.2l.6 1.2V183.9l-.1.2-.3.3-.3-.1-.2-.2-.3-.4V182.4l-.1-.3-.1-.2-.3-.4v-.2l-.2-.3-.2-.2-.1.4v.1H88.8l-.2.2-.1.5-.1 1.1.1 1.1.3 1 .5.9 1.6 1.9.3.2.2.2.1.3.1.4v.3l.2.1.1.1h.3l-.1.2v.2l.1.2.1.2-.2.2v.5l.1.5.2.2.3.1.7.4.4.1-.2-.5v-.4l.1-.5v-.3l-.5-.4-.3-.7-.2-.7-.1-.3-.2-.1-.1-.3-.1-.4V187.2l.1-.1.1-.3.3-.4.3-.3.4-.3.4-.2h.6l.4.2.3.8.4.2.7.2 2 1.2.5.6 1 1.5.1.1h.6l.2.1.4.3.4.1.4.1.1-.1.1-.1.1-.1.1-.1.1-.2-.1-.6v-.6l.2-.4-.2-.4v-.4l.2-.3-.1-.4-.2-.3-.2-.1-.2-.1h-.3l-.1-.2-.1-.4-.2-.7.1-.3.1-.4.1-.3.1-.1.3.1.1.2.1.3.1.4.2.2.2.2 1.2.6h.3l.2-.1.4-.5.3-.2-.2 1.2.6 1 .9.5.6-.1-.1-.5v-.5l.2-.4.3-.2v.2l.2.1V188h-.1v.1l.1.1h.1v.2l.5.1.8-.2 1.3-1 .9-.3.2-.2-.6-.6.2-.1.1-.1v-.1l-.1-.3.3-.2.2-.4.1.1V185.4l-.1-.1h-.1l-.1.3v.2l.1.1h.2l.1-.1h-.1v-.2l1.2.2.4-.6.4-.1 1.5.2.3-.2.2-.5v-1.1l-.1-.5-.1-.3.2-.8.5.4.2.1.3-.1v-.2h-.1l.3-.1h.2l.3.2.3.1 5.3.4 1.4-.4h.1l.4.1v.3l-.4-.2-.2.1-.3.2-.3.1v.2h1.2l-.3.2-1.4.4h-.4l-.6-.2-.1-.1-.1-.2-.1-.1h-.2l-1.1.3-.2.2-.5.5.9.4.2.1-.7.4h-.2l-.3-.1-.1-.2-.2-.1h-.4l-.3.5-.4.8-.5 1.7.1.5-.1.5-.3.5-.2.3-.2.1-.3.2-.2.1-.1.2-.2.8-.6 1.3-.4 2.2-.4 1-.1.1-.1.2-.2.2.2.2.2.4.1.1.3.2 1.5 2.2.4.3.6 1.2.4.2v.1l.1.3.1.4v.2l-.1.3-.1.2.1.4.2.4.5.6.6 1.1.4.4.4-.2H120.7l.3-.1-.2-.6.2-.7.1-.3.3-.1-.1.5.1 1-.2.8-.5.2v.2l.2.2v.9l-.1.4.2.2.2.2h.5l.1.2.6.8v-1l.5-.3.1-.2.3-.6.5-.7.1-.2v-.3l.1-.4.1-.4-.1-.4.2-.1.2.1.2.3.1.3-.2.3.1.5.3.4.2.2.7-.1.4-.2.1-.4.1-.3.3-.3.6-.3.5-.4.3-.3v-.4h.1l.1.5-.3.5-.4.4-.3.1v.3l.7 1.3.2.4-.3.7-.2.3-.5.2-.2.3-.4.6-.1.2-.2.1-.1.2v.2l.3.6.1.1.5-.1.3-.1.3-.2-.1.4-.6.6.2.3-.1.1-.2.1-.1.2-.1.1v.2l-.1-.1-.3-.2-.2.1-1.6.6-.3.2-.3.5.2.8-.2 2.1.1.9.5.7.6.3h1.4l-.2.3-.7.5-.1.3-.1.1-.9 1.1-1.1 1.9-.2.4-.1.4.1.4 1.9 4.2.4.6.6.6.6.5.7.2.8.1.3-.1.1-.4.2-.2.8-.2.2.1-.1.1-.2.1h-.2l-.2.1-.1.2-.1.3.1.3-.4.3-.3.1h-.4l-.2-.2h-.2l-.1.1v.1l-.1.1v.1h-.5l-.5-.2-.4-.4-.3-.4-1-2.6-.4-.4-.3-.1-.6.5-.4.2-.7.1-.3.1-.2.3v.4l.3.5.6.8.4.8.4.8v1.1l-.2-.1-.2-.4-.2-.2-2.2-1.5-.1-.2-.2-.3-.4-.2-.6-.3h-.7l-3.2 1.6-.6.1-1.9.1-.3-.2-.3-.4-.3-.3-.4-.2-.3.2-.2-.2-.3-.2-.3-.1h-.3l.1.3.5.5.2.5h-.6l-1.8.8-.6.4-.4.2-.4.1-.2.2-.1-.1-.1-.1h-.2l-.5.1-.5.1-.4.3-.4.5-.4.7-.2.3-.3.1-.2.1-.6.9v.1l-.2.3-.1.2-.1-.2v-.1l-.1-.1-.2.1v1.5l-.1.5-.1.3-1.1.8-.4.5-1.3 1.1-.3.2h-.3l-.4.1-.2.1-2.3 2.7-.3.5-.1.1.1.2v.1l-.2.2.3.2.2-.1.2-.3.3-.1.9.1.4-.1.1-.1.1-.2.1-.1h.2l.2.1.3.2.4.1.2.3H99.6l.2-.1.2-.2-.2-.3v-.4l.1-.3.3-.2v-.1h-.1l.6-.7.3-.3.4-.2h1.1l.3-.2.3-.2 1.2-.3 1 .1h.4l.5-.3.1.3h.2l.2-.1.1-.2.1.1.2.1-1 .7-.1.1-.1.2v.4l.1.2.1.4.1.4-.2.2-.3.1-.1.2.1.3.4.7 1.2 1.5h.3l.3-.3h.4l-.2.2-.7.6h-.1l-.1.1v.1l-.1.4h-.1l-.3.3-.3.5-.3.7-.1.6.2.5.8 1 .3.2h.4l.9-.4h.4v.2l-.8.7-.3.1-.2-.1-.4-.1h-.1l-.1.2v.7l.1.2-.2.4-.2.6-.1.6-.2 1.2-.2.6-.5.9-1 1.4-1.9 1.7-.3.1h-.4l-.3.1-.2.2-.5.6-.3.3-.4.2-.4.2-.2.1v.2l-.1.1-.2.1-2.1-.1-.6.4v.8l-.6-.5h-.2l-.3.4-.4.6-.2.3-.4.3-.5.1-.1.1-.1.2.1.3v.3l-.1.1-.4-.1-.6-.2-.3-.1.1.4-.5.2h-.3l-.9-.5H91l-.4-.1-.3.1-.2.1v.2l.2.2v.1H90v.7l-.5.5-.7.3h-.5l-.3.2-.5.5-.3.1h-.6l-.1.2.1.3v.2l-.2.1v.2l.1.1v.2l-.1.1-.1.1h.3l.9-.2.3-.2.2.2.7.1.3.2.1-.1.2.2.2.3.1.4v.4l.1.7-.1.3-.3.2-.2.2-.6.1-.2.2-.2.3-.2.1-.3.1h-.3l.3.1.8.6v.5h.2l.2-.3-.1-.4.3-.1 2.3.3h.3l1.3-.3.3-.3v-.3l-.2-.2.1-.4-.1-.2-.2-.1h-.2l.2-.2.9-.1.5-.2.2-.1v.2l-.7.2-.2.5.1.7.4.4v.2l-.2-.1h-.2l-.4.3-.8.2-.5.3-.3.1-.2-.1-.4-.1h-.3l.1.1V274.5l-1.2-.2-.2.2.4.3.8.2.2.6-.1.2.4.3 1.1.4.1.1.1.1.2-.1.1-.3.3-.1.2-.2.1-.2.2-.2.2-.2.3-.1 1.5.1.3-.3.1-.1.2.2h.1l.4-.7v-.4h.2v-.7l.6-.4.7-.2h.5l1.2.1h.6l.6-.3-.2-.2-.2-.3.1-.2h.3l.2.2.1.1H101.6l.1-.2.1-.1.1-.3.1-.1.2.2v.2l-.1.3-.1.2h-.1l.2.3.2.2.4.1h.3l-.2.2-.3.1-.7-.1.2.5.4.4.5.4.3.1 1.4-.2.2-.1.9.5H106.5l.2-.1.2-.2h.1v.4l-.4.6-.8.2-.8.1-.6.1-.1-.1-.1-.1v-.1h.1l-.1-.2-.1.1-.2.3v.1l-.6.2v.4l.1.4.1.3-.3.2V277.7l.1.1h.3l1 .4h.2l.1-.3h.1l.2.2h.2l.1-.1.3-.3.1-.1.2-.1h.2l.4.1.2.1.1.1v-.1l.2-.2.1-.1h.1l.1.1.1.1v.1l.1.1h.1l.1-.2h.7l-.2-.3-.1-.2-.2-.3.1-.2.1-.2.2-.2h.3l1.8-.3.2.1.1.2.3.5.2.2.2.2.2.1.2.4.2.4.1.5.1.5v.1h-.1v.1l.2.3.3.3.4.2.3-.1h.3l.9.8.8 1.1.3.2 4.2.3 1.2-.5.2.1.3.1.3-.4.2-.5-.3-.6.1-.1h.3l.1-.1.1-.1.1-.3v-.1l.5-.5.2-.2.3-.1 1-.6.1-.2.4-.5.2-.1.1.2.2.2.2.1 1.4-.1.7-.2.9-.7.8-.2.3-.2.5-.6 1.1-1.3.2-.3.1-.1 1-.7.2-.3.2-.4.3-.3.3-.1h.3l.4-.1.3-.3.1-.5.2.2.1.3-.2.3-.2.3-.8.2-.2.2-.6.8-1 1-.1.1-.1.3-.1.2v.2l-.1.3-.1.1-.2.1-.1.1-1.5 2.5-.3.4-.4.1h-.4l-.3.1-.3.2-.3.3-1.1 1.5-.7.6-.5-.1-.3.3.2.3-.1.3-.2.2-.2.2v.7l-.2.1-.3-.1.2.3v1.7l.1.2v.7l-.3.5-.3-.1.3-.4-.2-.2-.4.3-.7.1H121.5l-1.2.4-1.9.1-.3-.1-.5-.5-2.1-.5h-1.3l-2.2-.5h-.3l-.5.3-.4.1h-1.5l-.7.3-3 .2-1.3.5v.2l.2.1.1.3.1.2-.1.3-.2.1-.5-.1.1.3.3.4v.2l.1.2.2.7.1.2-.2.1-.1.2-.1.1-.1.2-1.1 1.3-.3.1-.3.1-1-.1h-.1l-.4-.3H99.4l-.1.1v.8l.1.2-.2.6-.1.3-.2 1.1.1 2.3-.5.9-.7.5-.3.4-.1.4-.2.4-1.2 1-.2-.1-.2.2-.1.2.1.4-.2.5-.2.4-.3.4-.5.2-1.2.1-.4-.1v.1l.1.3-.1.2v.3l.2.3.6.2.3.2.1.3-.2-.1h-.7l-.3-.2-.1.1-.1.1-.1-.3v-.4l-.1-.3-.1-.1h-.1l-.2.3-.1.1h-.4l-.3.2-.2.4v1l-.2 1-.2.3v.2l-1.2.6H89.1l-.2.1.1.6v.6l-.1.1-.2.1-.6.4-1.9 2-.6.4H85l-.1.1-.1.2-.1.3-.2.4-.4.2-.3-.2-.5-.5h-.4l-.6.4-.6.2-1.1.7-.4.1-.2.1-.3.6v.1l-.1.1v.3l.1.5h.1l.1.1v.2l-.1.1-.1.1h-.2l.2.8.6.2.8-.1.7-.2.2-.1.3-.3.2-.3-.1-.5v-.3l.3-.3.5-.1.3-.1.3.2.6.3.6.1 1 .5.4.2.2.4.5.8.1.2v.4l.1.3.1.2v.1l.5.6.2.1.2.1v-.2l.2-.6.5-.5.1-.1.2-.1.4.1h.1l.5-.8.2-.4-.1-.3-.1-.4v-.1h-.4l-.2-.1-.2-.1h-.2l.6-.2.1-.1.1-.2v-.4l.2-.1.2-.2h.2l-.2-.3-.1-.1v-.1l.2-.3v-.6h.3l.2.1.1 1 .2.3.7-1.2.2-.2.7-.3.3-.1.3-.4.4-.2.8.2.1-.2.1-.2.2-.4v-.2l-.1-.1v-.4l.2-.1.1-.2.1-.1v-.2l-.1-.3.2-.3.3-.1h.5l.1-.1v-.1h.2l.2.7h.2v-.1l2.8-.2.6-.3 1.2-.7.8-.1 1.4.4.3.1.2.4.1.3.4.1v-.2l-.1-.2v-.2l.1-.1.2-.1v-.1h-.4l.1-.2-.3-.1-.2.1v-.2l.6-.2-.4-.3-.9.2-.3-.4.8.1.2-.1.2-.2v-.6l-.3-.1v-.2h.2l.2-.1.1-.1.1-.3.2.1h.1l.4-.1-.2.3-.2.4-.2.4.2.4.1.3.1.2.1.1.2.2h.8l-.2.5.1.4.4.3.4.1-.1.2v.1l.2.2.2.1.2.1.1-.1.2-.2.1-.1.2-.1.4-.2h.4l1.1 1 .9 1.2.7.6.2-.3.3.1.3.1.3.1h.3l.7-.2.3-.1-.2-.7.1-.6.2-.5.1-.5.2-.2.3-.1.4-.3.1-.5.3.2.2.1.2-.2.1-.6.1-.2h.2l.1-.1.2-.5v-.2l-.8.1-.2-.2-.2-.4.2-.4.2-.2.4-.1h.4l-.3-1.1v-.5l.2-.7.2-.6.2-.4.3-.4.3-.3-.2-.3-.2-.9-.2-.3v-.2l.1-.1h.1v.1l.1.1.1.1.2.6.2.4.2.2.3.1h.4l1.2-.5.2-.4.2-.3.2-.3.7-.1.5-.3h.5l.4.1H122.9l.3-.3h.1l.3-.3.2-.1.7.2.4-.1.6-.3 1.2-.3h.4l2.9 1.1 3.5 2.6.3.7v1h.2l.2-.4.2-.4-.1-.3-.4-.2-.2-.2.1-.6.2-.5.2-.3.7-.2.3-.1.6.4 3.1.3 1.2.6.3.1h1.4l.3-.2v-.4l.5-.7-.3-.2.1-.4-.1-.2-.2-.1h-.6l-.2-.2-.4-.7-.2.2-.1.1-.2.1h-.3l.6-1 .2-.1.1.1.1.3.1.1.1.1.4-.1.7.2v.4l.1.2.2-.1.3-.3.3-.3.3-.1.3-.1.4-.1 1 .2h.3l.7-.4.3-.1h.4l1.2.2.3.3.3.1h.1v-.1l.6-1 .5.1.1-.1.2-.1.4-.2.8-.1v-.2l-.2-.1-.1-.1h.3l1-.1.4-.2.1-.3-.2-.3-1.3-1.5-.4-.5h-.2l-.3-.2-.2-.1v-.2l2.2 1.2.6.8.2.1.6.2.3.3.6.3.1.3.1.1.3.2.3.1h.2l.2-.2.1-.3-.1-.5-.1-.1-.5-.5.2-.1 1.1-.1.3.2-.1.3-.4.5-.1.5.3.3h.5l.2-.5.2-.7.2-.4.3-.1h.5l.5.1.4.2-.2.3.1.1.2-.2h.1l.2.1.3.3.2.1v.2l-.5.2-.2.1-.1.3.1.2 1.5.9.4.2.3-.2.1-.3-.1-.5.1-.2.1-.1.2.1.1.1.2.1 2.7-.9h2.9l2.1-.8.6.3.5-.3.5.1 3.5 1.2.7.1.3.1.3.3.1.1h.8l.8.3H179.4l.6-.9.6-.3.1-.1.1-.3.2-.3h.1l.6-.2 3.6-.8.7-.3 1.6-1.6.7-.2 2.4.7.6-.2-.2-1-.1-.7.2-.3.9-1.2.6-.7.3-.2.4-.1h1.1l.3-.1.1-.2.2-.2.1-.1.2-.1H196l.4-.3 1.2-.4.4-.6.4-.8.1-1-.2-1.1-.2-.7-.2-.4v-.6l.1-.1h.6l.1-.1.1-.1.1-.2v-.1l.2-.9-.4-.3-5.4.5-2.1.7-3.5-.4-.2-.2-.3-.5-.1-.4-.1-.4h-.3l-.1.3.1.3.1.3-.7-.1h-1.4l-.2-.1-.1-.2-.1-.2-.1-.1.3-.2.6-.1.5-.6h.3l.6.2.3-.1.2-.1v-.3l-.3-.4-.2-.1-2.7-.4-1.1.3v.1l-.1.1-.1.2-.1.1-1.1.2.3-.1.2-.1.3-.2.2-.2.1-.3v-.3l.1-.2 1.2-.3h.4l.3.2.2-.2h.2l.3-.1h.2l.3-.3.1-.1h.8l1.3.2.7-.2 1-.6.8-.8.5-.8-.1-.1-.1-.1h-.5l.3-.2.1-.1.1-.1V274.6l.2-.1-.1-.4-.1-.2v-.2l.1-.2v-.5l-.3-.3-.3.1-.4.4-.6.2-1 .2-.5.5-.2-.4-.3-.2h-.3l-.2-.2.3-.2.8-.3H188.3l.3.2h.3l.1-.1.3-.2.2-.1.1-.1v-.4l.1-.3v-.1l.1-.1.5-.5.7-.3.2-.3.1-.5.1.4.6.7.2.6.2.1.3.1 1.2-.2.5-.2.9-.6.9-.9.2-.4v-.6h-.1l-.1.3-.2.2-.6-.1-.3-.1-.2-.2 1.3-1.4.1-.5-.3.2-2.8-.1-.5-.2.5-.1.8-.3h.4l.4.3.2.1.2-.1.4-.1h.2l.3.1.1-.1v-.5l-.1-.1-.2-.1-.7-.2-.4-.2-.6-.6v-.2l.5.1.8.7.5.1 1.1 1.5.2-.1.2-.3 1.2-1.3.4-.6.1-.1.1-.2.1-.3.1-.2.2.2.3-.4 1.3-.5.1-.2v-.3l.3-.8v-.5l.3-.9.1-.5v-1.9l.2-.3.2-.2.5-1 .7-2 .1-.2v-.3l.4-1.4.2-.3.1-.2-.4-1.3zm-137.6-118l.1-.2.1-.3.2-.6.2-.3.1-.3-.2-.1-.4.1-.3.1-.5.5-.4.1-.5.4-.2.3-.8 1.2-.4.4-.5.1.1.3.2.4.1.2.1-.3.1-.3h.2l.4.1.3-.1.8-.7.7-.8h.2l.1-.1.2-.1zM79.1 150l.3-.3.3-.5.2-.2.1-.4-.1-.4v-.3l-.4-.2-.5.4-.9.9-1.2 1.2-.5.2-.4.2-.5.7-.5.8-.2.6.3.5h.5l.7-.2h.4l-.6.5-1.3.3-.5.4-.3.3-.2.1-.3.2-.2.5v.5l.2 1.4.2.8.6.4h.7l.4-.3.1-.4.2-1.2.1-.2.3-.2.4-.5.2.1.3-1.2 1.4-2.8.7-1.7zm-13.3-30.1l-.3.1-.6.3-.3.2.5.1.5.1.5-.1.5-.3-.2-.1-.4-.1-.2-.2zm5.4 18.4l.9-.1-.2-.3-.5-.4-.2-.3h-.3l-.2.1-.2.2-.1.3.4.4.4.1zM159 297.9l-.1-.1v-.2l.1-.1.1-.1-.1-.2-.1-.1-.2-.1-.5.8-.3.2v.1l1.3.2v-.2l-.1-.1-.1-.1zm30.9-16.4l-.1-.1-2.1-.8-.2.1-.1.2-.2.7.1.3.2.4.3.3.4.1 1.9.2.4-.2.1-.3-.1-.4-.4-.4-.2-.1zm-33.3 18.6v-.3l-.2-.2H155.8l-2.5-1.1-.4.1-.4.3-.6.7-.4.3h-.4v-.1l.1-.1v-.1l-1.4.7-.7.5-.4.8.3-.2.3-.1.6-.1.2.1.6.4.1.1 2.1 1.6.7.1 1.8-.5.1-.1V301.9l.1-.1.5-.5.2-.1.7-.2v-.1h.1l.1-.1v-.1l-.4-.6h-.2zm-2.9-272.5v.2l.3.4V28l-.1-.2-.2-.2zm-.6-18.5l.2.4-.1.1-.1.4.3.4-.1.2.2.5.1.8.1.3.2.1v.2h.5l.1.1.2-.1v-.2l-.3-.1.1-.2.3-.1.4.3.2-.1.2.1.1-.2-.1-.4.2-.8-.2.1-.1-.2.2-.1-.2-.1.2-.1h.3V10l.2-.2v-.5l-.2-.1-.2.1V9h-.4l-.1-.2h-.2l.1-.2.2.1.1.2.3-.2.1-.4-.1-.4h-.2l-.1-.2-.2-.1v-.4l.6.5.4-.1-.1-.2.1-.1-.1-.5v-.4h-.1l.1-.2-.2-.6V5l-.5-.2-.1.2-.4-.3-.4.1-.1-.1-.3.1-.2.8.1.3v.4l-.1.5v.5l-.1.2V8l.4.3.1.4h-.1l-.2-.5h-.3l-.1-1.1-.4.5-.1.3v.4h-.1l.1.3-.1.1v.4zm3.3-3h.2v.3l.3.1.3-.2.1-.2.3-.1v.2l.8.3.2-.3.1-.1-.4-.4-.2-.1.2-.6h.2v-.2l.3-.3.1-.4-.1-.1h-.2l-.3-.1.2-.2h.5v-.2l-.2-.1v-.3l-.2-.2.1-.1.7.2v-.6l-.2-.2h-.2l.1-.3.5-.1-.1-.2h-.2v-.4l-.3.3-.2-.1-.2.1-.1-.3-.2.2-.1.6-.2.4h-.2l.1-.3v-.4l.1-.6-.2-.1-.2.1.1.3-.2.1-.2.5-.2.4-.2.1-.1.3.3.3-.1.6-.1.1.1.2-.1.2h-.2l.1.8h-.3v.3l.2.5h-.2l-.1.3zm-2.3 7.2l-.1-.3-.2.2.3.1zm-6.7 5.5l-.2-.2-.1-.3-.9.1-.4.1-.2.4.2.4v.4l-.2.2h.2l-.1.5.2.1.4.3.3.4h.1l.2.2.3-.2.1-.3h.3l.1-.2.2.2v.4l.4-.3.2-.1v-.3l.3.1v.4l.1.2h.2v.1l-.5-.1-.3.1-.3.3v.4l.2.2.3-.1.1.6h.3l.4.3.2.1v-.3l-.1-.5.5.4.3-.7-.1-.3.1-.2h.1l.4-.3v.5l.1-.1-.1-.6-.2-.2-.1-.5-.2.1v-.3l.1-.2.4.1-.2.3.1.2v.4h.2v.3l.1.1.5-.8h.2l-.1.9-.2.8.3.2.1-.5.3-.1-.2.4-.1.7.1.1-.2.4.1.2v.6l-.2.1v-.2l-.3.2-.2-.1-.1.3h.3v.4l-.2.1-.2.3.1.6-.2.3-.2.1.2.2.2-.2v-.2l.2-.1.1-.4h.4l.2-.5-.1-.2.2-.3.1-.6h.2l-.1 1.1-.1.2-.2.7-.1.2-.1.8-.1.2-.1.7h-.1l-.2.2.3.8h-.2l-.2-.3v.3h.4l-.1.5.1.2-.3.1h-.2l-.1.6.1.2-.2.2h-.2l.1.5.2.2h.2l.4-.2.2.1.1.4.1.1-.2.4.1.2.2-.2h.1l.2.4.2-.1v-.5l-.2.1v-.3l.2-.2-.1-.2.1-.5-.2-.1.2-.3v-.3l.2-.1-.1-.5.1-.2-.1-.4.1-.2-.2-.2v-.1l.2-.3h.1v.2h.2l.1-.4h.1l.1.3.2.4.1-.1-.1-.5.1-.1-.3-.4-.1-.4v-.4h.2l.3-.2V26l-.2-.2.1-.7-.1-.2-.2-.3.4-.2.1-.4-.2-.1v-.2l.5.2-.1-.4.2-.1v.3l.2-.1-.1-.4.2-.1.2.2.1-.1-.2-.4h-.1l-.2-.3.1-.2v-.4l-.1-.1v-.3l-.5.5v-.6l.3-.6-.4.1-.1-.2.2-.2-.2-.1-.3.2h-.3l.1-.2.3-.1.2-.2v-.2h-.2v-.3l.5.1-.1.6.4-.2.1-.5.3-.1.3.1.1-.1-.3-.3h-.4l-.1-.1-.2-.1.5-.5.2-.2h.2l.2.1.1-.2-.1-.2.2-.4-.1-.2-.2.2-.4-.1-.4-.3-.2-.1-.2.1v-.4l.1-.2.2.1.5.1.3-.3.3-.1v-.5h-.1l.1-.4h-.2l-.1-.2h-.2l-.2.5-.3-.1.1-.3.2-.3h.1l.3-.3.1-.2.2-.2.3-.5-.1-.3-.3.1-.1.3-.2.1-.1.3v.3l-.2-.1-.3.3.1.2-.1.2-.5-.1v-.4l-.8.5v-.1l.5-.3-.1-.2.2-.1h.3l-.1-.4.1-.2-.2-.4v-.3l-.2-.1-.3.2v-.3l.1-.1-.1-.5-.3-.3-.2.1-.2.4h-.2l-.1-.2h-.2l-.1.3-.2.3.2.3h.2l.2.3v.1l-.4.1-.2-.1-.6.2-.2.3v.5l.3.2-.2.3-.3.1h-.2v-.2h.2v-.3h.2l-.1-.2v-.3l.1-.3.3-.4.2-.1-.2-.3.1-.3-.1-.2.3-.1-.1-.3-.2-.1-.1.5h-.2l.2-.2.1-.6.2-.1-.2-.3.1-.3h-.4l.1-.3.1.1.2-.1.2.1.1-.1v-.4l.1-.5-.5-.6h.2l.2-.4v-.9h-.3l-.2-.1-.1.2v.4h-.3l-.1.1-.3-.2-.5-.1-.1.3.1.1-.4.3v.3h.1v.3l-.2.1-.5.7-.2.1v.3l.3.3.3.4.3.2-.1.2-.3-.2-.3-.3-.5-.3-.1-.2v-.3l-.2-.3-.3.3-.2.3-.1.4.1.3-.3.3-.4-.1-.2.5-.2.1v.1l.3.2.2-.1.1.1.2-.2h.2l.2-.3h.1l.2.3h.3l.3-.2.1.3-.2.1-.1.4.2.2.1-.2.2-.6.2-.4.1.1-.2.4.1.4-.1.2.1.3h.2l-.1.4-.1.2.1.2-.1.1.1.1h.3l.5-.2v.2h-.1l-.1.3.1.2v.3l.1.2-.2.1-.2-.3-.4.2-.1.3-.2.1.2.2v.4l.3.3.4-.1.3-.1.2-.2.1-.8.1-.2.2-.1v.8l.1.1.3-.1h.4l.3.3.3.2-.1.1-.5-.4-.4.1-.2.3v.3h-.1l-.2-.2-.2.3.1.3v.7l-.1.6-.2-.1v-.4l-.2-.2v-.3l-.4-.2-.3-.3-.1.2-.4.3v.3l.3.1v.1l-.6-.2v.4l.2.1.6.3.1.1-.1.1-.1-.5-.2-.6v-.2l-.2-.1-.6.4v.2l-.3.2-.2.2zm9.2-10.5l-.4-.1v.2l-.2.4.2.1v-.2l.2.1.2-.2v-.3zm-.7 8.3v-.2l.1-.3h-.2l-.1.2.1.4.1-.1zm3.4-12.8l-.1.6.2-.2-.1-.4zm-29.5 50l.1-.1-.1-.2.2-.1.3-.5h.2l-.1-.1.2-.3.1-.4.4-.1.1.1.3-.1.1.3.2.1V52l.2-.1.2.1h.3l.2.3.2-.1V52l-.2-.1v-.2l.3-.5.1-.1.1-.4.2-.2.4-.1.3.1.1.2.3-.1-.1-.2V50l-.1-.1.1-.3-.2-.1-.4.3v.5l-.2.1-.3-.1-.1.3-.3.3h-.1l-.2.2-.4-.1.1-.1-.1-.4.3-.2.1-.3h-.6l-.1.2-.3.2h-.3l-.2.4.2.2-.2.3.2.1-.4.2-.2.3-.3.2-.1.4-.5.2-.1.5v.3l.1.3zm24.8-30.3l.1.5.2.2.5.3.1-.4v-.5l.2-.3v-.6l-.3.1-.1-.2.1-.1-.1-.5-.1-.1-.2.1.1.2.2.1-.1.1-.3-.3h-.3l-.1-.1-.3.1v.2l.1.3.3.2.1.3-.1.2v.2zm3.3-16.7l.1-.2-.3-.2h-.2v.2l.2.2.1.2.1-.2zM139.4 24l.1.3.5.2.1-.6.1-.2-.3-.5-.4-.1-.5.3-.1.1.1.3.4.2zm6.2-6l.2-.4.2-.2-.1-.3-.2.1h-.5l-.1-.2h-.2l-.1.2v.1l.3.5.5.2zm-11.5 30.3l.2.3.2-.4-.1-.2v-.3l.2-.2.5-.1-.2-.3-.3.2-.5-.1-.3.8.1.2.2.1zm13.5-26.8l-.3-.2-.3.2.1.3h.5v-.3zm-.9 20.6l-.1.8-.2.1.1.3.4-.1v-.4l.3-.3-.1-.1.1-.4-.5.1zm4.3-18.9l-.2-.1-.1.3.1.1.2-.3zm-1.9-5.2l.3-.5-.4-.3h-.2l-.1.3.2.5h.2zm6.7 5.1l.2.2.2.3.2.1.1-.3v-.3h-.7zm4.4-8.7l.2-.2-.1-.1h-.4l-.2.2.5.1zm-.5-6.1l-.2.2-.1.3-.1.1-.3-.2v-.5l-.1-.2h-.2l-.3-.1-.3.3h-.1l-.6-.3-.4.3v.3l.3.4.3.8.4.3.4-.2-.3-.4-.3-.2.6-.2.2.3.2-.1v.2l.4.4.2-.3v-.2h.1l.1-.4.1-.3h-.1l.1-.3zm-2.9 8.7l.1-.1.3-.4.1-.3.2-.3.4-.3-.2-.1-.3.2-.5-.1v.4l-.3.1-.1-.1-.3.3-.2.6-.2.1v.1l.5.3.4-.2.1-.2zm-6.6.7l.2-.2.1-.3-.2-.1h-.1l.1.2-.1.1v.3zm-27 47.3v-.2l.3-.3-.2-.1-.5.1-.2.2-.2.1-.1.2.2.4.2.1.1-.1h.2v-.1l.3.1h.1l-.1-.2.1-.3-.2.1zm-.5 4.2v.3l-.2.4.3.1h.2l.1-.5-.2-.3h-.2zm-.7-4.4h.2l.2-.1-.1-.3v-.2l-.1-.1-.2.3v.4zm-2.1-3.4h-.2l.1.5.4.2h.2l.1-.3-.1-.2-.2.1-.3-.3zm2.1 1.8l-.1.1.1.3.2-.2-.2-.2zm1.9 4.7l.1-.3-.2.1v.2h.1zm2.5-4.5l-.3.1.1.2.1-.1.1-.2zm.4.9l-.2-.2.1-.4h-.4l-.2.1v.4l-.1.1-.4-.2-.3.2-.2-.2-.2.2.1.1.2-.1.2.2.4.2.4-.1.2.1.3-.1.1-.3zm-8.4-.7l.2.2.1.6.1.3.2.2.4.5-.1.1.2.2v.2l.4.7h.2l.5-.1.2.1.2.2.2-.2v-.2l.3.1h.4l.7-.2-.1-.3.1-.3-.2-.2-.1.1h-.3l-.2.1-.2-.1-.3.4-.2.1-.2-.2v-.2l.1-.1h.3l.5-.3h.2l.3-.3-.2-.1h-.3l.2-.2-.1-.2-.2-.1.2-.2-.1-.2-.2-.2.1-.1-.1-.3.1-.1-.3-.3h-.2l-.2-.2-.5-.4-.5-.1v-.2l-.1-.1v-.3l-.3-.2h-.2l-.5.3-.1-.1-.3.4-.1.3v.3l-.2.4v.2l.2.3zm9.7-6.2V57l-.3-.1v.2h-.2l-.2.3.1.2-.3.3-.1-.1-.2.1-.2-.1-.1-.1-.3.1v.3l-.2.1-.1.6.4.1.1-.2.2.1-.2.2.2.1.1-.3.3-.1.3.1.2.2.2-.1.1.3.4-.3-.1-.3-.2-.3.2-.6-.1-.3zm4.4-.7l-.3-.1-.1-.3.3-.5-.1-.1-.1.1h-.2l-.5.1-.2-.4.3-.3-.4-.2.1-.2-.3-.3-.4.3-.3-.1.4.5.2.3.2.2v.2l-.1.3-.2-.1h-.4l-.1.1v.3l-.1.1-.2.5.2.2.2-.1.2.1v-.2l.1-.2-.2-.4.1-.1.3-.1.4.3.1.3-.1.3.2.2.2-.2h.2l.1-.2.4.1.1-.4zm-6.2-1.3v-.6l.1-.3-.3-.3h-.2l-.1.3.1.6.2.4.2-.1zm1.4-3v.4l.1.4.1-.1v-.2l-.2-.5-.1-.4-.1.1.2.3zm.4 1.4l-.3-.1-.1.3v.3l.1-.1.1.2.2.1v.3l.1.2v.3l.3-.2h.5l.1-.3-.3-.2v-.7l-.1-.3.1-.1.1-.4.2-.2.1-.3-.3-.2h-.2v-.2l.1-.2-.1-.2-.5.5.1.2-.1.5.2.2v.6h-.3zm3.6 4.7l.1.4.2-.2v-.1l-.3-.1zm-5.2-9.1h.2l.2-.2.1-.4-.2-.3.1-.4.1.1.1-.4-.2-.3-.2.1-.1.4v.2l-.2.4v.6l.1.2zm5.2 5.3l-.1-.1-.1.3.2.1v-.3zm-2.2-2.4l-.3-.5h-.2v.4l.3.1h.2zm-6.3 2.3v.2l.3.4.6.3.8.1.5-.2.1-.1-.2-.7.1-.3h.2l.1-.3-.2-.2h-.2l-.3.2h-.6l-.3-.2-.1-.4-.2.1-.1-.1h-.2l-.4.4v.2l-.2.2.1.4h.2zm-.2.7l.1-.3-.3-.1.1.4h.1zm2 1.5v.2l.2.1.1.2.4-.1-.2-.4-.1-.1-.4.1zm-6 3.2v.2l.1.2v.4l.3.1.2.2.5.1-.1-.3.2-.1h.5v-.4l.2-.3v.3l.3.2v.5l-.1.3.3.6.3.4.2.1.5-.3.4.1.4-.2-.1-.1.1-.2h.3l.3.1.2-.3.4-.1.5-.2.1-.3.1-.2.2.1-.1.6.3.5.1.3.3.4-.1.2.1.1.2-.1h.4l.1-.1.5.3.5.6.2-.2v-.2l.3-.3.1-.4.2-.3.3.1.2-.3.2.1h.4v-.5l-.1-.1v-.3l.2-.1-.1-.2.1-.3-.1-.3h-.1l-.3.3h-.1l-.6.4h-.2l-.2.2.3.2-.1.4h-.5l.1-.2-.1-.2v-.3l-.1-.2.2-.2.2-.1.3.1-.2-.8-.4.3h-.3l-.2-.2-.1.3-.5.4-.4-.1.1-.3-.1-.3.3-.1v-.1l-.3-.1.3-.5h-.3l-.2-.2-.2.3-.1.5-.2.2-.1-.1v-.2l-.2-.2h-.2l-.3-.3h-.4l-.3.4h-.3l-.1-.3-.2.2h-.2l.1-.4.4-.2.1.1.1-.3.2-.2-.2-.3.4-.1.3.3.3-.5v-.6l-.2-.3h-.2l-.3-.3v-.4l-.1-.3-.3-.1-.1-.3h-.2l-.2.1-.8-.4-.1-.2-.3-.1-.4-.4h-.5l-.8.3-.1.1h-.4l-.2.1v.2l-.2.4-.2.1-.2.3.1.4-.1.2.1.3v.5l.2.2-.3.2.1.5-.2.1v.4l-.1.6.1.4zm7.7 4.8l-.3-.2-.5.2-.4-.1-.4.1v.1l-.4-.2-.3.4.1.1.4-.3.1.2.3.3v.2h-.2l-.2-.3-.2.2.2.4h.1l.2.4h.2v.8h-.4l-.1.2.3.3v.2l.3.3.4-.1h.2l.1-.7-.2-.1-.2-.3.2-.1.1-.4-.2-.2.3-.2.1-.2-.1-.1.4-.5v-.4zm-2.3-15.1l.2.4-.1.2.1.3-.1.2.3.2.5.5v-.2l.6-.2-.2-.2.4-.2.1.2h.2l.3.5.3.1-.2.8.2-.1V52l.2-.4.4.1-.3-.6-.3-.2-.2.1v-.6l-.2-.1-.1-.4-.2.1-.1-.1h-.2l-.1-.2h-.3v-.2l-.4-.2.4-.1.1-.4-.1-.2.2-.2-.3-.3-.3.2-.1.3v.2h-.2l-.2.3-.3-.1-.2.1-.3-.1-.2.1.4.4.3.2zm1.2 5.9h-.3l-.2.1.1.2.2.1.3-.2-.1-.2z"/>
<g opacity=".9">
<path fill="#4a4a4a" d="M51.2 170.8l.1.2.2.2.5.3v.7l.5.6 1.1.9-.4.2h-.3l-.4-.2-.3-.2h.4l-.2-.5-.4-.2-.3.1-.6.7h-.4l-.3-.2-.4-.3.1.1V173.5l-.2.2-.3-.1-.2-.1h-.3l.2.5-.1.6-.1.5-.4.3v.6l.1.2.1.2.4.3.7 1 .1.1v.7l-.1.4-.1.3.1.1.3.2v.4l-.1.4-.2.4-.3.1-.3.1-.4.2-.1.3h-.2l-1.6 1.6-.3.2-.3.1v-.2l.2-.2.6-.8.8-.6.2-.2.2-.6-.3-.2-1 .2v-.2l.9-.6.3-.4.2-.1.2-.1.2-.2.1-.5-.1-.5-.2-.2-.2-.1-.2-.4-.1-.4v-.3l-.5-.2-.2-.2-.1-.3.1-.2v-.4l.1-.5-.1-.2-.2-.1-.1-.3-.2-.3-.3-.1-.2.1-.6.5-.2.1-.6-.1v.2l-.5.9v.4l.2.1.4.2.2.2.1.2.2.2h.2l-.1-.3-.1-.5v-.4l.1-.2.2.1.2.3v.4l.1.3v.2l.2.4.1.5v.2l-.2.2-.2.7-.2.3.1-.3v-.5l.1-.2-.1-.2-.1-.4-.1-.1-.1-.3-.3-.3-.4-.2-.2-.1h-.1l-.2.2h-.2l-.1-.1-.1-.1v-.4l.4-1.4-.1-.1-.1-.1-.4.5-.4.3-.3.4.1.6.4.5v.4l-.2.5-.1.2h-.7v-.2h.2l.2-.1.1-.2.1-.3-.2.1-.3.2h-.1v-.5l-.2-.4-.1.1-.3.1H42l-.1-.1-.1-.1-.7.4v-.2l.8-.5.1-.4-.4-.3-.4.1-.2.4-.2.5-.2.2-.3.1-1 .7-.5.7-.2.1-.1-.1v-.3l.1-.2.1-.1.1-.3-.2.1-.5.2-.3.1-1-.4h-.2l-.2.3-.3.9-.2.2v.7l.2.9-.1.1-.1.6-.1.1-.2-.1v-.7l-.2-.2-.1.1-.3.7-.2.1h-.2l-.1.1-.1.4h.1v.1l-.2.3-.2-.2h-.2l-.2.1-.1.1v.2l.6.8.4.4.5.2-.4.3-.2.1h-.3l-.2-.1-.1-.2h-.2l-.2.1.2.6.3.6.4.4h.5v-.5l.1-.1h.4l.2.1.2.5.2.2-.2.1-.7-.2-.2.3v.5l.2.3.4.1.3.1v.2h-.4l-.9-.4-.8.2-.3-.1-.4-.3-.1.2-.3.3-.1.1h-.4l-.1.1-.1.3h.4l.6.5.6.2.9.9-.3.2-.3-.2-.3-.4-.2-.3-.2-.1-.7.1-.3.1.3.3 1.2.3v.2h-.4l-.9-.3-1.7-.1-.4.2-1.2.9-.2.2v.3l-.2.2-.2.1-.2.1H28l-.1.2.1.2.3.2v.2l-.1.1-.1.1v.1l-.1.1h.3l1.4.5.2.2-.2.2.3.2h1.3l.3.3h.2l.2-.4h.2l.4-.1h.1l.2-.1.1-.1.1.1v.2l.1.2.1.3.2.1.1-.2.1-.5.3-.4h.2v.6h.1l.2-.2.3.2v.4l-.2.3h-.3l-.3.3-.4.4v.2h.2l.3-.2.2-.2.8-.8.4-.3.4-.5.3-.1h.2l.1.2v.3l-.2.3v.1l.4-.2.6-.5 1.1-.1.4-.2.3-.3v.1l.1.1-.1.2-.2.9h-.2l-.1-.1-.1-.1-.2-.2v.8l-.7.7v.5l-.9.8.2.3.3.1h.5v.2l-.5.1-.8.6-1.6.3-.5.2-.5.4v-.2h-.1v-.2l-.1-.3-.2-.1v1.1l-.1.2-.1.1-.3.1-1.9 1.4-.5.1-.2.1-.1.2-.1.2v.3l.1.1h1.7l.3.1.4.3.1.2-.3.2-.4-.3-.2-.1-.1.3v.3h.5l.3.1.3.1.3.3.3.3-1.2-.2-.2.1-.1.1h-.2l-.4-.2-.1.1-.2.4-.1.1v.2h.2l.3.1.3.2.1.2.1.3.3.2.3.1.2.1v.2h-.8l-.2.2-.4-.6-.2-.1-.4-.2-.1-.3-.1-.3-.1-.3-.4-.3-1.1.3-.4-.4-.4.3-.3.1H27l-.3-.1-.4-.2-.2-.1-.3-.2-.2-.2-.1.1-.1.1h-.1l-1-.2h-.6l-.2.5-.1.8-.3.5-.4.4-.4.2.1.4v.4l-.1.4v.5h-.1v-.5l-.1-.4-.2-.4-.8-.7-.1-.3.3-.2v-.2l-.3-.2V203.4l.1-.2v-.3l-.1-.2-.1.1h-.1l-.3.1-.1-.1-.2-.6-.1-.1H20l-.8-.4H19l-.1.1-.2.2-.2.2-.2.1h-.1l-1.3-.2-.2-.1-.2-.2-.1-.1-.2.1-.3.1h-.2l-2.9-.2-.3-.1-.6-.4-.4-.1-1 .3v.2l.1.4.2.3.9.2.3.2-.4-.1h-.2l-.1.1v.2l.3.2.2.2.1.2-.4-.1-.6-.4-.4-.1-.2.2-.3.4-.1.4.2.4-.2.1-.2.4-.3.2-.2-.2-.3-.2h-.4l-.3-.2.1-.5.4.4h.5l.4-.3.3-.7h-.1v-.2l-.2.1h-.1l-.1-.1-.2-.2-.2.2-.3-.1-.3-.1-.2-.2-.1-.1v-.4l-.1-.1h-.2v.1l-.1.2-.1.1-.7.4-.2.2-.1.3-.1.4-.1.3H6l.2.2.2.2H7l-.2.3-.2.2-.2.2v.5l-.1.4-.4.8-.1.3v.6l.2.3.2.1h.4l.2-.1v-.3l-.2-.2-.2-.2.3-.2h.1v-.5l-.1-.2-.2-.1v-.1l.4-.2.2-.1h.2v-.2l-.1-.1-.1-.2h.3l.3-.1.1-.2-.3-.3.3-.3.3.1.9.8-.1.2-.2.1h-.1l-.3-.1.6.6.2.3H9l-.2-.1-.1-.1.1.4.2.2.5.4-.3.2-.8.2h-.3l.3.8.5.3.4-.1.5-.6h-.1v-.2h.2v-.1l.1-.1-.1-.2.5-.1h.2l.1.1-.5.4.2.2-.2.1-.2.2v.2l.2.1-.1.2-.3.1-.1.1-.1.5v.4l.2.2.1.2v.1l.1.1h.4v.4l.2.7.1.2.2.1-.1-.2v-.2l.3.1.1.1.2.2.1.2-.1.3.1.4v.2l-.2.1-.2-.2v-.6l-.2-.2-.2-.1-.4-.2-.2-.1-.8.2v.2h.2v.2l-.1.2v.1l.1.3-.3.2-.1.8-.2.1.5.6.9-.2 1.7-.9h2.3l.5.2.1-.1.1-.1h.2l-.1.2v.2l-.2.2-.1.1.3.2h.2l-.6.5-.2.3.1.2v.2h-.1l-.1.1h-.1l-.1.1.7.3.3.1v.2l-3.1.6-.2-.1-.3-.3-.1.1-.2.1-.2.1-.4.1-.4.1-.7.1-.1.2.1.5-.1.4-.2.5-.1.6.3 1.2 1.3.9.7.3 1.2-.1.3.1v.2l-1.3-.1-.8-.2-.4-.2-.1-.1h-.3l-.5.4-.5.1-1.3-.1-.6.2.2.3 1 .7-.1.1-.3.3-.1.1-.3-.4-.1-.1-.7-.2H6l.1.1v.3l.1.1h-.5l-.4-.1H5l-.4.3.1.2h.2l.5-.2.2.2.1.3.1.3v.2l.4.4.6.3.6.1h.3l-.1.3-.3-.1-.4-.2h-.4l.1.2.1.2.2.1h.2v.2l-.3.3-.2.1-.7-.2-.3.1-.3.1-.1.3-.2.5h.3l.2-.1.1-.1.2.3h.4l.7-.1.2.1.2.2.1.2.1.3.2.1H8.6l.3-.1h.2l.1-.1V227.2l.2-.2h.2l.1.1.2.1.1-.1.1-.1.2-.2h.2l-.2.3-.3.2-.1.3.1.3h.3l.2-.1v-.2l.4-.3.1-.1h.3v.2l-.4.2v.2h.6v.2l-.2.2-.7.5h-.5l-.2.1-.1.1v.2l-.1.3-.1.4v.1l.2.2.8-.2.3.3.3.3h.2l.8-.3.3-.4.4-.7.2-.4.1-.3h.2l.2-.3.1-.1h.1l.1.1.1.1v.2l-.2.5-.1.5.3.3.3-.1.2-.4v-.5l-.3-.3.3-.2.3-.1.6.1-.6.3-.2.2.7.7-.1.1v.1l-.2.2v.1h-.1l-.2-.2h-.1l-.3.3.1 1.2-.3.6v.2l.3.3h.2l.2-.4.1-.6.2-.5h.3l.1.3-.3.5.2.3.1.2.2.3.4.2h.7l.3-.1.3-.2.5-.3 5.4-.4.6-.3.3-.1 1.3.2v.2l-.2.1-.4.2-.2.1v.2h.5v.2h-.3l-.8.2-.3.2.2.1h1.8l.3-.1h.2l-.5.4-.3.3-.2.4.1.2.1.2.1.6-.2-.1-.2-.1-.2-.2-.2-.2.1-.3h-.1l-.2.1-.2.2h-.2l-.4-.2v.2l.7.4v.2l-.3-.1-.5-.4-.3-.1-1 .2v.2l.8.2.2.3v.4l-.4-.2-.4.1-.3.2-.4.1-.3-.1-.8-.8-.4-.2-.4.1-.2.5-.3.6-.2.5-.4.4-.9 1.7.1.2-.2.1-.1.2-.5.8-.2.3-.5.5.5.1h1.3l.3.1-.2.5-1 1-.1.4v.2l-.1.1-.1.2v.2l-.1.2-.2.3-.1.2-.2.2-.2.1.1.2v.2h-.1l.1.2-.1.2v.3l-.1.3-.2.1h-.2l-.3.2h-.2l-.5-.1-.2.1-.2.1-.2.2-.2.1.1.3v.1l-3.3 3.2-.9.3-.7.5-.3.1v.2l3-.4.4-.4.1.1.2.1.1-.1.1-.3.1-.4.4-.1.7-.2 1.3-.6-.1-.2-.1-.2-.1-.1h-.2v-.2h.6l.2.1-.1.4.2.3.6.1.1.1.2.3.3.1.4.1.8-.1 1.2-.4.5-.3v.4l-.2.3-.4.2-.3.3.2.1.2.1h.2l.2-.1.2-.1.3-.3v-.1l1.5-.2.3-.2 1.5-2 .5-1 .1-.4.4-.3.5-.3.4-.1-.1.1-.2.4-.1.2.2.1.1.3-.1.3.1.3v.1l-.2.2v.2l.2.1.3.1 1.1-.2.5.1 1.1.5h.3l-.6.2-2.9.4-.1.1-.2.2-.1.2-.1.2-.2.1-.4.1-.3-.1-.1-.3-.3.2-2 .7-.3.2-.2.2-.3.1-.6.1h-1l-.2.1h-.2l-1.3-.1h-.2l-.1.1-.1.2-.1.1h-.2l-.2-.1-.1-.1H15l-.7-.2-.2.1-.1.1-.1.1-.1-.1-.4.5-.1.2.1.3v.2l-.2.1v.2l.1.2v.2l-.1.2h.6l.2.2v.4l-.3-.2-.4-.1h-.4l-.3.2-.3.3-.2.2-1.6.8-1.2.1-.3.1-.2.3.3.3.4.2.9.2.3.3-.1 1.3.2.5-.4.1h-.2v.2l.2.1h.1l.2.1-.2.1h-.2l-.2-.1-.2-.2.1.3v.2l.1.2.1.1.3-.2.2.1.6.3h.5l.2.1.3.2-1.2.2-.3-.2.1-.1h.2l-.3-.1-.1.1-.4.4-.2.2h-.7l-.6-.2-.5-.2-.3-.1-.2-.1-.1-.3v-.5l-.1-.4.1-.2-.2-.1H7l.4.5-.2.6-.4.5-.5.2-1.1.2v-.1l.2-1.1-.3-.2-1.7.5-.2.1-.4.6-.2.2-.3.1h-.2l-.2.1-.2.4h.1l.1.2-.2.2.1.2v.4l-.2.1-.2-.1-.4-.3.1-.3-.3.1-.3.2-.2.2.2.2v.2l-.4.3-.1.1.1.5.1.5.1.3.4.2.3-.1.7-.3h.4l-.2-.1-.1-.1v-.2h.4l.8.3.4.1v-.2l-.2-.1-.2-.1h-.2v-.2l.5-.1h.2l.4.5.2-.1.1-.2.1-.1.2.2.2.3.2.1.3-.2 2.3-.6H8l.2.1.2.1.2.2.1.4.1-.1.1-.3-.2-.5 3.3-.2-.6.3.1.1.1.2.1.1-1.2.2H10l-.5-.4-.4 1.6.1.3h-.5l-.1-.3v-.4h-.2l-.3.9-.7.4-1.6.3-1 .5-.5.3-.4.1-.4.2.2.4-.2.1-.5.2-.2.1v.2h.4l.1.3.2.3.2.1.1.1v.2l-.1.2-.1.1h-.3l-1.4.5h-.5v.2h.2v.2l-.1.1v.1h.1v.2l-.1.3H2l.3.1.1.3-.2.8.1.3.2-.1.5-.5.2-.1.2-.2.5-.6.2-.2.6.4.3.7-.1.6-.7.2 1.6.8-.1.3.4-.1.4-.3.5-.3.3-.4.4.2.4-.2.7-.5.2-.1.4-.1h.2l.1-.2.1-.1.1-.1h.2v.4l-.1.2.2-.1.5-.3-.1-.2.3-.1h.5l.1-.2.2-.1.3-.2 1.7-.7 1.2-.2v.2l-.5.2-1 .6-.5.1h-.6l-.1.1-.2.4-.3.2-.4.5-.2.1v.2l.3.2h.1v.2h-.6l-.3-.1-.2-.1-.1.4-.2.3-.2.2h-.3l.1-.1.1-.3v-.1l-.4.1-.6.3-.5.4-.3.5h.7v.2l-.8.7-.4.2-.7-.1-.3.1-.2.3h.2l.3.1.1.2-.1.3h.1l.1.1v.1l-.3.1-1.1.4h-.1l-.1.2V277.4l-.2.1.2.2.2-.3.4-.2.8-.1H7l.3.2h.2l.4-.3 1-.4H9l.1-.1V276.2l.3-.2.6-.3 2.1-.3.6-.2 1.1-.2.3-.1.4-.2.4-.5.3-.1.3-.1-.2-.3v-.8h.1l.2.1.1.1.1.1.1.2-.1.3v.1h.2l.4.3.3-.1.3-.1.2.1v.2h-.1v.2l-.1.1-.1.5-.4.2-.6.1-.7.4h-.5l-.2.4-2.1 1.1-.6.2-.2.3-.1.2-.2.2h-.1l-.7.5 1-.1 3.2-1.6h.8l-.3.3-.6.2-.4.3-.7.8-.3.3-.3.2-.6.1-.3.2-.6.6-.3.2-.4.2.1.2.1.1h.2v.2l-.1.1v.1l-.1.4.2-.2.1.2.4-.5h.2l-.1.3 1.2-.6h-.1l-.2-.2 1-.8.1-.2.2.1.2.3v.3h.3l.2-.1.3-.3h.4l.1-.1v-.3l.1-.1 1.1-.2.5-.3-.1-.3.2-.1.3.1.3.1.1.2-.1.4-.1.3v.2l.2.3.3-.3.2-.2.1-.2.5-.3.1-.1.1.1.1.1-.3.2-.4.2-.1.3-.2.4H18.6l.2-.2-.1.3-.1.1-.2.2-.2.1h.6l.2-.1.2-.2.1-.1.2.1.1-.1v-.2l.4-.3.1.1v.1l.1.2v.2l.2-.1h.1l.2.1h.2l.1-.2.1-.2.1-.2h.2v-.4l.1-.1.4.1h.3l.2-.2.3-.2.1-.3-.2-.1V278.2l.2.1.3.2.3.1.9-.2.2-.2h.2l.2.1.3.2.2.1v.1l.1.2.2.1.1-.3v-.1l.6-.2.2-.3.2-.5.2-.3.3.2.2-.1h.2l.2.1h.6l.1.1.1.2.2.1.1-.1.6.1-.1-.4.1-.2.1-.2.2-.2-.4-.1.1-.1.1-.1v-.2h-.6l-.3-.1-.2-.3 2 .2.8-.2h.3l.2.2.2.5.3.2-.1-.3-.1-.4v-.3l.1-.1.2-.7h.1l.2-.1.1-.1v-.2l-.1-.2h-.1l-.1.2h-.2l-.3-.1-.2-.1v-.1h.8l.3.2.2.5.2-.1.1-.3-.1-.4-.2-.1.2-.1.2.1.3.2.1.3.2-.3.2-.1.6-.2.5-.2.1-.3.6-.6.1-.3-.1-.1-.1-.1v-.2l.1-.1.3-.4h-.6l.1-.1.1-.1h.2v-.1l-.2-.1v-.2h.1v-.2h-.8l.3-.8-.4-.3-.7-.2-.5-.2.3-.2h1l.3-.1.3-.1.3-.1.2.2v.1h.6l.4.1.2.1.1-.2.2-.1.1.1.1.2-.2.1-.1.1-.1.4h.2l.1.1h.1l.1.1-.2.2-.3.2-.2.1h-.2v.3l.1.1h-.2l-.1.1-.1.2-.1.2.1.1h.8l1.1-.1.6-.3 1.3-.2.2-.2-.3-.4.3-.3.8-.4.7-.1.4-.2.2-.3H43l-.5-.5h.3l.3-.2.3-.3.2-.3V267.1l.1-.2.2.2.1.2v.4l1.8.2.1-.1v-.3l.1-.4.4-.2.9.1.3-.2.1-.1h.2l.1-.1.1-.1v-.9l.6-.4.1-.3-.1-.1h-.1l-.5-.3h-.5l-.2.2-.1-.4.2-.4.3-.2.3-.1h.1v.2l.1.2.1.1h.2l.1-.1v-.2h.1l.6-.2 1.2-.6 3.2-.4.6.2h.3l.3-.2.1-.1.1-.2.1-.2h.4l.2.1.2.1-.1-.1v-.1l-.1-.1-.1-.1v-.2h.5l.3.2-.4.6-.1.3.3-.1h.8l.3-.1.3-.2.5-.7.3-.2v-.2h-.4l-.1-.2.2-.7v-.3l-.3-.4v-.4l-.1-.8.2.3.2.9.2.1.2.1.2.3.1.2.1.2.3 1.1v.3l-.2.2-.2.1-.2.2-.1.3.2.2.3-.2.2-.4.1-.1 1.2-.8-.1-.2h.2v-.2h-.2l.1-.1.1-.2v-.4h-.1v.1l-.2.1V260l.1-.2.3.2.4-.1.2-.3.2-.3v.4l-.2.4-.2.2-.2.1v.2l.3.1 1.1-.2 1.3.4.3.1.4.5h.3l.7-.4.8-.1.3-.2h.2l.2.2h-.4v.1h.8v-.1l.3-.1.1-.2.1-.1h.2v.2l-.1.3-.2.1v.2l.2.1H68.3l.2-.2.2-.3.5-1.2-.9-.8-.3-.6.2-.6v-.2l-.4.7-.2.2v-.3l-.2-.2-.5-.1.1-.3-.1-.4-.2-.3-.3-.2-.2-.1v-.1l.1-.2.2-.1.1-.1h.1v.5l.3.1 1-.1.1.1.1.1.2.2v-1.3l.1-.5.4-.7.3-.3.2-.2.3-.4 1-1.6.3-.5v-1.6l-.2-.8v-.4l.1-.5.7-1.4.4-.8-.1-.7.4-1.3.2-.4.2-.2.7-.7-.2-.2.6-1.3.2-.2.1-.2.1-.5.1-.1.3-.1-.1-.2-.7-.8-.2-.4.1-.5.1-.4.1-.7v-.6l-.1-.5h.1v-.2l-.5-1.2-.3-.3.2-.5-.1-.3-.2-.3-.2-.3-.1-.4v-1.1l.1-.2v-.2l-.2-.1-.1-.1-.2-.1-.4-.1-.3-.2-.3-.5-.4-.4-.1-.3.1-.3.9-.7.2-.1.2-.1H72.5l.2.3v.1l.3.1.2.2h.2l.2-.5-.3-.2-.7-.1-.3-.1.1-.1.1-.2.1-.1-.2-.2v-.3l-.1-.3-1.1-.6.3-.2.3-.1.3.1.1.2.2-.2.2-.5.1-.2v-.2l.1-.2.3-.5.1-.4v-.4l-.2-.4-.1-.2-.3-.3-.5-.2-.5-.3-.3-.7-.4-.3-.2-.2-.1-.3-.1-.4-.1-.4-.1-2 .1-.7.3-.4-.3-.3-.2-.5v-.4l.2-.6v-.2l-1.2-.1-.6-.3-.4-.5-.1-.5.1-.5v-.9l.2-.5.2-.3.1-.3-.2-.1v-.3l.8.2 1.2.5.2-.1.3.2.4.3.4.1.3-.1.5-.6.1-.4-.4-.5h-.1l-.1-.1h-.4l-.1-.1-.2-.4-.1-.1-.3-.2-1-1 .1-.2.3.2h.5l.5.2.1.5h.3l1.2.5h-.1l-.3.2v.2l.3.2H73.8l.2-.1.7-.6.5-.5.7-.4.3-.4.2-.4.1-.6.1-.6.1-.5-.1-1.1.1-.4.4-.1.3-.1.7-.2.7-.1 1 .1.2.2v.2H80.3l.1-.1.1-.6h.4l.5-.6.5-.6.2-.9-.2-1-.5-.6-.7.2-.7.5-.7.2.2-.3.6-.5.1-.2.5-1.5-.2-.2.1-.2v-.1l.1-.1-.2-.1-.1-.2-.1-.3.1-.4-.5-.3.1-.1.4-.1.3-.1-.2-.2h-.6l-.2-.1-.1-.1-.2-.2h-.2l.1-.1.2-.3v-.3l-.1-.3v-.2l.5.1.4.2 1.2 1.1.3.5.2.7v.9l-.1.4-.3.5-.1.4v.3l.1.3.2.3.2.1.1.5.2.4.2.2h.2l.2-.4.3-.1-.3-.4.1-.2.2-.2.2-.2.1-.5-.2-.5.2-.3.3-.5.1-.2v-.1l-.1-.2v-.1l.1-.3-.1-.1-.5-.8-.1-.4-.1-1.1-.1-.3-.3-.1-.2-.4-.2-1.1-.1-.2v-.3l-.1-.2H82l-.2-.1-.2-.4-.1-.1-2 .3h-.3l-.3-.2-.3-.1-.3.1-.6.5-.6.3-.1.2-.4.6-.2.1-.1.2-.1.2-.2-.1-.1-.1v-.5l-.2-.2.6-1.1.3-.4.4-.4.5-.3 1-.3.4-.2.4-.4.3-.7v-.8l-.2-.9-.3-.5-.5-.4-.5-.2-.3.5 1.1 1.2.3.6h-.1l-.4-.6-.5-.2-.4-.3-.2-.8-.1-.4-.1-.4-.1-.3-.2-.2-.1-.1-.3-.3-.1-.1-.1-.2-.1-.5-.1-.2-.3-.5-.4-.4-.4-.2-.5-.1-.1-.2.3-1.1.1-.5-.2-.3-.2-.1-.2-.2h-.9l-.1-.3.3-.6.1-.5v-1.6l-.1-.3-.7-.7-.1-.1-.1-.2-.4-.2-.6-.1-.3.1-.7.2-.3.1-.3-.1-1.6-.9-.4-.1-.7.4-.4-.1-.6-.4-.3.1-.4.1-.3.3-.3.4-.3.2-1.1.1-1.9.9-2.1.1-.4-.1-.7-.5h-.3l-.1.4-.1 1.3-.2.3-.1.2-.2.5-.2.5v.4l-.2.2-.4.5-.2.1-.5.1-.6-.1-.7-.4h-.3l-.6.2-.3-.6v.1-.2l.3-.5.2-.5.7-1 .3-.2.4-.2.6-.3.5-.5.6-.4.5-.2.5-.1.5-.3v-.6l-.2-.5-.4.2-.3-.3-.8-.3-.6-.1-.8-.4-.3-.2-.8-1.3-.3-.2-.6-.4h-.3l-1.1-.4-.6-.4h-.3z"/>
<path fill="#fff" d="M80 204v.2H80.3l.1-.1.1-.6h.4l.5-.6.5-.6.2-.8-.2-1.1-.5-.6-.7.2-.7.5-.7.3.2-.3.6-.5.1-.3.5-1.5-.2-.2.1-.2.1-.2h-.3l-.1-.3v-.3l.1-.4-.5-.3.1-.1.4-.1.3-.1-.2-.1-.6-.1-.2-.1-.1-.1-.2-.1h-.2l.1-.2.2-.3v-.2l-.1-.3v-.2h.5l.4.3 1.2 1.1.3.5.2.6v.9l-.1.5-.3.4-.2.4.1.3.1.3.2.3.2.1.1.5.2.4.2.3.2-.1.2-.4.3-.1-.3-.4.1-.2.2-.2.2-.2.1-.5-.2-.4.2-.4.3-.5.1-.2v-.1l-.1-.1v-.2l.1-.3h-.1l-.5-.9-.1-.4-.1-1.1-.1-.2-.3-.2-.2-.4-.2-1-.1-.3v-.3l-.1-.1-.1-.1-.2-.1-.2-.4-.1-.1-2 .4-.4-.1-.2-.2-.3-.1-.3.2-.6.4-.6.3-.2.2-.3.6-.2.2-.1.2-.1.1H76l-.1-.2v-.2l-.1-.3-.2-.1.6-1.1.4-.5.4-.4.5-.2.9-.3.5-.3.4-.4.2-.6.1-.8-.2-1-.3-.4-.5-.5-.5-.1-.3.5 1.1 1.1.3.6h-.1l-.4-.6-.5-.2-.4-.2-.2-.8-.1-.5-.1-.3-.1-.3-.2-.2-.1-.2-.3-.2-.1-.1-.1-.3-.1-.4-.1-.2-.3-.5-.4-.4-.5-.2-.4-.1-.1-.2.3-1.1.1-.5-.2-.3-.2-.2-.2-.1H73.5l-.1-.3.2-.6.1-.5.1-1.6-.2-.3-.6-.7-.1-.1-.2-.2-.3-.2-.6-.1-.4.1-.6.2-.4.1-.2-.1-1.7-.9-.4-.1-.6.4-.4-.1-.6-.4-.4.1-.3.1-.4.3-.2.4-.3.2-1.1.1-1.9.9-2.2.1-.3-.1-.7-.5h-.3l-.1.4-.1 1.3-.2.3-.2.2-.2.5-.1.5v.4l-.3.2-.3.4-.2.2-.6.1-.6-.1-.7-.4h-.3l-.7.2h-.3l.2-.6-.2.1-.2.1-.1.1-.2.3-.1.1-1.1.2-.1.1-.2.2-.5.8.1.2-.1.1h-.1v.2l.1.7v.3l-.2.2-.3.1-.2.2v.4l.1.7v.3l-.2.6-.3.5-1.2 1.6-.1.4V189.4l.1.1-.2.1h-.2l-.3-.1-.5.1-.6-.1-.3.1-.5.6-.6.3-.6.1-.5-.3-.5-.4h-.2l-.6.5-.8.4.3.3h.1l-.2.5.2.3.2.1.3.1.2.1.1.4.2.1h.1l.3-.2h.1l.2.1.6.5.2.1.3-.1.2-.2h.2l.1.6-.7.2-1.7 1.6-.6.3h-.7l-1.2-.3-.4.4-.3.5-.2.4-.1.1-.2.2-.4.2-.9.3-.4.2.2.2.1.2v.3l.2.2.4.4.7 1 .4.4.4.3h.5l.3.9.2.4.3.3.3.1.7.1.2.2.1.5.1 1.2.2.5.3.2.9.1 1-.1.3.1 1.2.9.1.2.1.2v.3l.2.1 1.8.4.4-.1.6-.5h.5l-.2.3H51l.2.3v.1H51.5l.8.2h.3l-.4-.8v-.2l.1-.1.5-.3.1.1-.1.2v.8l.1.1.2-.1.2-.2.1-.2v-.3l-.1-.3.4-.2-.1-.1-.1-.2-.1-.1.1-.3.1-.1.1-.2.2-.1 1-.3.3-.2-.1-.5.2-.3-.6-.5.1-.4-.5-.3-.1-.3h.2l.1-.1h.1l.1-.2v-.1h-.1v-.2l-.1-.1.1-.2h.5l.5-.4.9-1.3.4-.5h.6l.5.3 1.1.9.1.1.1.5.2.1h.2l.1.1.3 1v.4l-.1.3-.3.2.6.3.2.2v.2l.1.3.1.3.3.4.3.4.4.3.3.2.2.1.1-.2.2-.2.1-.1h.2l.2.1.4.3.4.5v.5l-.1.5-.4.5.2.3v.4l-.3.6.3.2.4.6.2.1h.1l.2-.3.1-.1h.1l.3.1h.1l1.4-.5.5-.1v.1l.1.1.1.1.1.1h.1l.4-.2h.4l.1-.1.1-.3V208l.2-.4.1.1.2.1.2.2.2-.1.2-.1h.3l.2.2.1-.2.4.2h.5l.4.1.2.6h.2l1.3.5h-.1l-.4.2v.1l.3.3h.3l.7-.1.2-.1.7-.5.5-.6.7-.3.3-.4.2-.4.1-.6.1-.6.1-.5-.1-1.1.1-.4.4-.1.3-.1.7-.2.7-.1 1 .1z"/>
<path d="M10.4 69.5C5 69.5.7 73.7.7 78.9c0 9 9.6 20.6 9.6 20.6S20 87.8 20 78.9c0-5.2-4.3-9.4-9.6-9.4zm0 13.7c-2.7 0-4.8-2.2-4.8-5s2.2-5 4.8-5c2.7 0 4.8 2.2 4.8 5s-2.2 5-4.8 5z" fill="#76bd22" transform="translate(94 50)"/>
</g></svg>