<svg xmlns="http://www.w3.org/2000/svg" viewBox="0 0 205 320.5"><path fill="#fff" d="m63.5 111.2 1.6.5.2-.2v-1.3l.2-.2h.2l.2-.3v-.4l.3.3v.8l.4-.5h.2v1l.3.2h.2v.3l-.3.2h.2l.4-.2h.5l.2.4 1 .9.3.4h-.5l-.3-.5-.3-.3-.3-.3h-.7l-.8.5v.8h.2l.7 1.1h1.1v.2l-.2.2h-.2l-.2.2.3.5.3.5.2-.2h.3l.3-.2h.3v.2l-.5.7-.2.2v.2l2.4-.6.3-.2-.3-.3v-.2h.4v.2h.4v-.2l.2.2v1.1l.2.6.2.2h.2l.2-.4v-.4l.3-.2v-.6l.3-.5-.2-.5v-.2l-.2-.3h.2l.2.3.4.7v.6h1.9l.4-.4v.3l-1.6.8-.2.2v.2l-.4.6v1.2l-.4.6v1h1.1l.3-.2.3-.3 1-1.4v-.2l.3-.2.3-.2.4-.3v-.4l.2-.7v-.2h.8l.2-.2.6-.5.4-.5v-1l.2-.8h-1.2l-.3-.4h-.5l-.4.2-.5.5h-.7v.2l-.2.2H76v-.2l-.2-.3-.2-.3h-.9v-.2l-.4-.4H74l-.4.2h-.4l.4-.2.2-.3v-.2l-.5-.2-1.4.2.2-.2.6-.3v-.5l-.3-.2-.2-.4v-.7l.2-.2v-.6h-.5l-.3.2-.2.2.2-.3.4-.4v-.7l.2-.7v-.9l-.2-.9v-2.2l-.2-.2-.2-.3-.3-.4-.7-.7-.4-.8v-.2l-.5-.4-.2-.2v-.3h-.6v.4l-.3.4-.6.5v.8h.3v.9h.6l-.2.7-.2.3v.3l.2.6.6.7.2.4v.6l.2.2v.3l-1.3-1.7h-.2l-.2.5-.4.4.3-.9h-.7l-.2-.2-.2-.3-.2-.2-.8-.4-.2-.3v-.7l-.5-.3-.2-.3-.2-.2h-.3v.2l.2.3v.4l-.3.5-.2.3h.4l.6.5.4.4v.6l-.4-.2h-.3l-.2.2v.2l.2.2v.2l.2.4v.8l-.3-.2v-.2l-.3-.3-.8-1.3h-.4l-.2.3v.8l.2.3.2.3h-1l.2.7.6.5.2.8v.4l.4.4.4.3-.7.8Zm8.3 37.9v.2l-.4-.2v.2h-.2l-.3.6-.2.3v.4l-.2.4-.2.2.3.2h.9l.3-.4v-.5l.2-.6.5-.9v-.4H72l-.3.2v.3h.1ZM56.5 102h-.6l-.2-.2-.5.3-.3-.2.3-.2v-.5l-.2-.3h-.4l-.8.6-.4.2.3.2v.2h-.4l-.9-.4.2-.4v-.4l-.4.4-.6.7-.5.5-.3-.4.4-.2v-.2l-1.1.2-.4-.2-.3.5-.2.6-.3.6-.3.2v.2l.7.6h.3l.2.2h.2v-.3h.5l1 .8h.6l-.4.2v.2l.2.2v.5l.2.2h.9l.2.2.3-.2h1l.4-.7v-.4l-.3-.2h-.4l-.9.2h-1.2v-.2l.7-.6h.3v.5l.3-.2h1.1l.4-.4.3-.7-.5.2h-.3v-.3l-.2-.4h-.5v-.6h-.3v-.3h.7l.4.4h.2v.4l.3.2h.2l.3-.6h.2l-.2-.5-.3-.2h1.3Zm2-2.5.3-.4 1-.7.4-.3v-.2l.5-.4.2-.2v-.6h-.2v-.3l.9.6h.4-.2v-.2h.6l.3-.2v-.3l-.4-.7v-.2h-.7v-.6h.4l.6.2 1.3.4v-.9h-.4l-.2-.3h.2v-.5l-.2-.3-.2-.2h-.2l-.2-.3-.4-1-.2-.3.3-.2.5-.5.4-.5v-.5h1.6v.2h-.7l-.6.2-.4.5-.3.8v.4l.2.5.4.9v.4h.2l.2.2.5.3v-.4l-.2-.4V93h.2v.2l.2.4.2.4.3.2h.7v-.3h-.2v-.4h.3l.2.2h.2l.3-.2v-.2l.4-.5h.2v-.4l-.3-.3-.6-.2-.2-.2-.4-.2v-.3h.4l1.6.4h.4l.2-.4.3-.3.3-.4h-.6l-.2-.2h.2v-.2h.2v-.2h-.2v-.8l-.2-.3-.2-.2h-.3l-.5.4-2.1.5h-.7v-.2h.3l.9-.2.4-.5h.2l.2.2h.4l.6-.7.8-.2.3-.2v-1.1l-.4-1.1h.2l.5.3H70l.5.5h.3l.3-.2.2-.4v-.2l.5-.2v-.8h.2v-.4h-.3l-.3.3-.8.9-.5.2h-.6l-.6-.2-.4-.5h.7v-1l.5-.2.2-.4h.2l.2-.2v-.6l.2-.3.7-.6h.4v-.4h-.5l-.2-.2v-.2l.2-1.3.2-.2.3-.2v-.3l-.4-.5v-.5l-.3-.6-.3-.6-.3-.4h-.4l-.5.5-.8 1-3 2.4-.4.5v.2l-1.2.5-.4.2h-.8v.2h-.2l-.3.5-1.4 1.2h.3v1l.2.3v.4h.4v.2l.2.5v.2l.2.2.4.2-.4.7-.2-.5-.4-.4-.5-.2h-.2l-.2.2-.8.2v.6h-.3v.3l.4.6v1l-.2-.3-.3-.6v-1.1l-.2-.3-.4-.5v-.4h.4v-.2l-.9-.5v.2h-.3l-.6-.3-.3-.2-.3.4v1h.2l.5.2-.4.2H56v.3h.2v.7l-.2.3v.6h.2v.6l.5 1.1.8-.5v.2l-.2.2v.2H57h.5v.2h-.4v.4h.5l1.6-.4-1.1.5-.5.2h-.5v.6h-.6v.3l-.4.2.8.6.2-.2.2.5.4.2h1.2l.5.5h1.1v.2l-.3.3v.2h-1l-.8.6v.2l.8.7H58l-.2.4-1.4 1.3v-.7h-.7v.5l.2.2h.2l1 1.4.9 1.1.5-.7v.1Zm-1.8-4.6h.3v-.2l.2-.2v-.3l.6.4h.2v-.8l-.3-.2h-.4l-.7.8v.5h.1Zm22.7 51.8-.3.3-.2.5h.4l.6-.2.3-.3v-.5l-.2-.2-.6.4Zm1.1-1.3-.2.3.3.8.2.2.2-1v-.4l.3-.4v-.5l-.2.2v-.2l-.2.3-.2.7h-.2Zm1.1-2.5v-.3l-.4.1c0-.1-.2 0-.2 0l-.2.6v.5l.4.2.3-.3v-.6l.2-.3h-.1v.1Zm-7.8-9.7-.8-.4h-.2l-.6-.1-.6.2-.5.4v.6h-.2l-.3.1v-.3l-.3.2-.3.2h-.6v.4l.5.4v.2l-.7.6.2.3.3.2h.3l1.6.4.3.2.2.2.2.3.3.6v.2h.3v-.3h.4l1.1-.6v.2l.2.2v.6l-.3.2-1 .5h-.6c0-.1-.2 0-.2 0v.2l-.2.2v.2l-.3.6v.2h-.5l-.2.3v.7l.4.2h.4c0 .1.8 0 .8 0l1-.6h.3c0-.1 0 0 0 0l-.3.3-.8.6-1.1.2-.3.3h-1l-.3.2v.4l-.3.2-.2-.3-.2-.4-.3-.3h-.3c0-.1-.4 0-.4 0l-.4.3-.2.4v.5l.4.5.3.3.4.3h.4l.2.1h.2v-.5h.2l1.7-.1.4-.3c0-.1.2 0 .2 0h.2l.3.2v-.2l.4-.3 1.4-.7h.5l.2-.2v-.2l.2-.2.4-.3h.2v.4l-.2.3v.2h-.2l.5.4h.6l1.5-1.1.3-.4v-.5h-.7l-.3.3-.2.2v-.3l.5-.4.2-.4v-.4h.3v.5h.2l.6.1.2-.2-.2-.4-.2-.4v-.2h.2v.2-.6l-.4-.1v-.4l-.3-.3-.2-.3-.2-.2h-.4c0 .1-.2 0-.2 0l-.4-.7-.3-.1-.3.2v-.3h-.2l-1.6-.1h-.2v-.6l-.7-1.7-.4-.6h-.5v-.5h.7v-.1ZM62 135.9l-.9.3h-.4l-.6.5h-.4l-1.1.3-.4.2.2.5v.5l.2.3 1.1.5h.3v-.5l.2-.6h.4l.4-.2.3-.3v-.5h1l.3-.5-.2-.5H62Zm11.6-24.3v.3l.2.2h.3l.3-.3h.2l.3-.3v-.6l-.3-.5v-1.1l.2-1.1.3-.9v-.7l-.2-.2.2.4v.2l-.3-.2h-.2l-.2.2.2.4v.5h-.5l-.3.3v.5l-.2 2v.5l.2.3h-.2v.1ZM60.4 84.1v.2h-.2v.2h1.3V84l-.3-.2v-.2h-.3l-.5-.6h-.3v.6l.2.3h.2v.2h-.1Zm14.9 22.1v-.5l.2-1.2v-.2h-.2v.2l-.3.2v.2l-.2.4v.7l.3.2h.2Zm-.4 5.9-.4.3v.4l.5.4.4.2.6-.2v-.5l-.5-.5-.6-.1Zm-23.3 10.2v-.5h-.3l-.5-.3.2-.7v-.2l-.2.8-.3.2h-.4l-.4.4.2.2v.7h-.2l-.3.2-.2.3v.3h.2l1.1.3h.3l.2-.2.2-.2v-.2l.2-.3v-.2h.7v-.3l-.5-.3Zm3.6-22.3.3-.3v-.4h-.4l-.8.8h.4l.5-.2v.1Zm-.9 12.6v-.3l-.3-.2h-1l-.2-.5-.4-.2h-.2v-.8H52l.4-.2.3.3.3.5.7.4.3.4h.8v-.2h-.3l-.5-.6h-.4v-.3l.3.2.2-.2-1.5-1h-.2l-.8.4-.3.2.5 1.4.2.9-.2.5h-.2v.8l-.3.6v.2l-.3.3h.2l.2.2.2.4v1.1l.4 1.6.2.3.5.6.5-.3 1.4.2.4-.4v-.2h-.4l-.2-.2-.2-.4-.3-.2h-1.1v-.2h1l.2.2.2-.4v-1.2l-.2-.5-.3-.3-1-.3v-.2l1.3.3h.3v-.4l.2-.6v-.3l.3-.2h.2v-.8h-.2l-.2-.2-.3-.2Zm-.6-5.4h-.4v-.3l-.2.2h-.4l-.2-.2h-.4l-.3.3-.3.5v.6l.2.4 1.3.8h.4l1.4-.4v-.4h-.7v-.4h.3l.4-.4.2.2v-.2l-.4-.4H54v-.4h-.3v.1ZM74.2 161v-.6l-.2-.2v-1.1l-.3-.3-.2-.3v-.3l-.2-.9-.2-1.6v-1.5l-.2-.1-.3.3-.2.2h-.2l-.3.2-.4.6-.6.3-.5.6-.4.6.2.6v.2H70l-.2-.3v-.7l.2-.8v-.2l-.2-.1-.2.4-.9.4-.6.4v1.4l-.2.2h-.2l.6.5-.8 1.2-.2.4v.2l-.2.6v.5l.2.3h.4l.2-.4.6-.8.5-.3.2-.5.4-1 .4-.3h1.3l-.8.9-.4.5v.6l.6.3.2.3.4 1-.9.5-.4.4v.7l.2.7h.4c0 .1.4 0 .4 0l.4-.4.2-.2.2-.7h.9l.5-.2.4-.2.4-.4.3-.4v.2l.2-.2v-.2h.3l.2-.1v-.6l-.2-.3h-.6Zm11.6 108.7v-.6.6h.2c0 .1 0 0 0 0h-.2Zm10.7 6 .2.1v-.2h-.2l-.3-.2v.3h.3Zm-9.9-2.6.2-.2h-.2l-.2-.2h-.2v.4c0 .1.2 0 .2 0h.2Zm-.6-112-.5.4-.4.7-.2.6v1.7l.3.6.4.5v.9l.3.7v.4l.7.6.7.5.7.2h.9c0 .1.8 0 .8 0l.4-.2.2-.3v-.4l-.2-.5v-.4l.4-.3-.7-.3h-.2v-.5l.3-.1v-.7l-.7-.8v-.4l-.2-1.4-.2-.7-.4-.5-.3-.3-1-.6h-.6v.4l-.6.2h.1Zm5.2-1.9v-1.5l-.3-.4-.2-.4-.2-.2v-.8l-.2-.1-.5-.7-.5-.4-.6.3v.4l.2.5v.5l.2.2.6.4v.4l.2.8.2.5 1.1 1.1.2.5.2.2h.3v-.4l-.2-.2v-.7h-.5Zm11.1 39.4h-.6l-.3.2h-.6l-.9.6-.6.6-.4.8-.8 1.8-.2.3-.5.4-.3.5-.4.3h-.4v.6l-.2.5v1.2l-.2.5-.5.8v.9h.4c0 .1.4 0 .4 0l.3-.3.4-.2h.2l.3.5h.3c0 .1.2 0 .2 0h.2c0-.1.2 0 .2 0v.3l.3-.8.2-.2h.2l.2-.1h.3v-.4l.2-.3.9-.6v-.3l.5-.5.6-.3.3-.4v-.8l.3-.2v-.2l.2-.2v-.2l.2-.3.3-.5v-.7l-.2-.2-.3-.1v-.8l-.2-.2v-.4l.3-1v-.5h-.4.1v-.1Zm-31.7-77.3-.4-.4-.9-.6h-.6l-.5.5-1 1.2.3.2.5.5h.2l.3.3.3.7.3.2h.6l.4-.3.4-.7.2-1.1h-.4v-.2l.3-.3Zm32.9 106v-.2l-.8-.3h-.3l-1.2-.2h-.2l-2.1.7-.3.2.2.4v2.9l.3.4.6 1.1.3.3v.9h.2l.6.4c0 .1.2 0 .2 0l.4-.5h.2c0-.1.2 0 .2 0v.2l-.3.3v.9h.4v-.2l.4.2h.4l1.1-.7.2-.3.6-.4v-.6h.2l.3-.5.4-.3.4-.2h.4l.4-.3.6-1.1.3-.4h-.2l-.2-.2h-.8v-.2.4h-.3l-.4.2h-.5v-.8l-.3-.3v-.6l-.2-.2h-.2v-1h-1Zm-21-86.7.3-.4.3-.5-.2.2h-.8l-.2.4v.4h.8c0-.1-.2 0-.2 0v-.1Zm16 90.3v-.4l-.2-.3-.2-.3-.3-.3h-.5l-.2-.2-.4.4v.2l.2.5h.7v.3l.4.6.3.3h.2c0 .1 0 0 0 0v-.7h-.2l.2-.1Zm105.6 20.4v-2.5l-.3-.8-.3-.8-.3-1.3-.4-.7-.5-.6-4.1-3.2-2-1-5.2-1.3v.2h.6l.2.2-.7.4-.8-.2-.8-.4-.6-.2h-1.8l-.4-.2h-.7v.2h-.7l-.9.2-.8.4-.6.6-.2.4-.3.7-.2.8v.6l-.3.4-.4.5-.4.5v.4l.1.2h-.2l-.5-.8h-.3l-.6-.2h-.4l-.3.3-.4-.5-.8-1.4-.4-.2h-.3l-.4-.5h-.3c0-.1-.8 0-.8 0h-.5v-.4l.2-.4h.2l.4-.3.4-.4 1.3-1.9.2-.2h.3l1.5-1.6.3-.2h.3l.2-.2v-.2l.5-1.4v-1.2l-.3-1-1.4-3.8v-.4l-.2-.4-.3-.4-.3-.2.2-.2-.5-.4h-.3v-.9l-.4-.3h-.3l-.3-.2-.3-.2-1.6-1.3-.8-1h-.2l-.6-.1-.3-.3-.5-.6-.7-.4-1.2-1.8-.4-.6-.4-.2-3 .6-.5.3h-.5l-.2-.2-.6-.5h-.4l-.5-.1-.5.2-.3.5v-.2l-.2-.1h-.2l-.1-.1 1.1-.8h1.4l.4.5h.7l1.3-.1 2.1-.7h.8l.5.5 1.6 2.1.3.3h.4l.3.2h.8l.7-.4h.6l.8.5h.3l.3.3v.5l-.5.9.4-.3h.1l.2-1.1-.3-.9-3-4.4-1.7-2.8-.3-.9-.5-1.8-.4-.8.5-1.1.5-.6 1.4-.9-.6-.5-2-.8-.4-.5h-.1l-.1-.9v-.3l-.5-.2-.2-.2h-.2l-.7-.3h-.1l-.3-.6h-.1v-.5c.1 0 0-.1 0-.1h-.1l-.1-.3v-.2l-.1-.6-.2-.7-.3-.7-.2-.4-.3-.3-.5-.4-.2-.2v-.8l-.2-.4-.5-.5-3.7-2.4-3.5-1-.8-.6h-.7l-.3-.2-.3-.3-.3-.3v.8l-.2.1h-.2c0 .1 0 0 0 0h-.1v-.3h-.1c0-.1-.1 0-.1 0l-.3.1h-.1v-.3l.4-.2v-.2l.3-.2-.2-.2v-.2l-.1-.2v-.2l-.2-.2v-.2h.3v-.2l-.8-.4-.3-.2-.6-.8-.3-.9-1-3.6v-.3h-.1v-1l-.1-.1v-.2l.1-.1-.2-.4-.4-.4h-.1l-.2-.3v-.3l-.2-.4v-.2l-.2-.3-.3-.7v-.3h-.1l-.2-.2h-.1v-.2l-.2-.6v-.7l-.1-.2-.3-.4v-.8l.1-.3v-.3l-.2-.2v-.5l-.4-.5-.2-.3v-.3l-.1-.2v-.2l-.1-.2v-.2l.1-.1v-.2l.1-.8-.4-.7v-.6l-.1-.5v-.4l.1-.3v-2l-.1-.4h-.1l-.2-.2h-.1l.1-.4v-.2l-.3-.3h-.1v-.3l.2-.2-.2-.2v-.2l-.1-.2v-.2l.1-.2-1.2-.8h-1.1v-.3h.3v-.4l-.3-.3h-.2l-.2-.1h-.1l-.1.2v.2h-.3l-.1-.3v-.2l-.4-.3-.2-.3-.2-.7-2.2-2.9-.3-.4-.9-1.9-.3-.4h-.4l-.1-.2v-.2l-.1-.3v-.2l-.2-.1-2.7-.5-.7-.4-1.1-.9-.6-.2-.7-.5-.3-.3h-.1l-.1.3h-.8c0 .1-.2 0-.2 0h.1l.1-.6-.3-.2-.5-.7h-.3l-2.8-.3h-.3l-.5.7-.3.3v.6h-.3l-.3.4-.3.5-.4.3-1.2.6h-1.1l-.2.1-.3-.6-3-.3-.3-.3-.2-.2h-.5l-.7.1-2.9-.8h-.4l-.9.2h-.2v-.4l-.2-.2h-.5c0 .1 0 0 0 0v-.2l-.7-1-.2-.4-1-.7.4-.1h.2l.4.6.6.6.6.4.6.2h1.5l2.7.8h1.3l.7-.4.5-.4.4-.2h1.2l.2-.2.2-.4.2-1 .2-.3.3-.2h.3l.9-1.2.9-.6.2-.3v-.2h.5l.8-.1 1.1.5h.7l1.1-.7.8-.2.4-.2.3-.6.9-.9v-.2l-.6-.5h-.1l-.6-.6-.4-.2h-1.5l-.1-.3h-.1l-.2-.1h-.2v-.6l-.5-.1.3-.3.2-.5.2-.5v-.6l-.3-.4h-.6l-.3-.3-.3-.2h-.4l-.3.3-.2.3v.2l-3.5 1.7h-.6l-.7.6h-.4l-.7.1-.3-.2-.2-.2.8.2.7-.3 1.7-1.8.6-.4.6-.3 5-.7h.3l.1.2h.2l.3-.9v-.2l.8-.3.3-.3.3-.6 1.6-1.1.2-.3.2-.6.3-.3v-.2l.1-.2v-.4l-.1-.2v-.5l.4-.3.2-.4.2-1.3.2-.5.3-.3.3-.3.9-.6.3-.3.4-.7.4-.7.6-.4.3-.4v-.5l.1-.2.3-.4v-.2l.1-.3v-.3h-.2v-.3l.2-1.1.5-1.1 1.5-2.4.3-.6v-.3l-.4-.2v-1.2l.5-1.6 1.1-2.9.4-.7 1.7-1.6v-.4l.4-.6.6-.9.4-.4v-.2c.1 0 0 0 0 0v-.2l-.1-.2v-.3h.3l-.5-.5v-.4l-.1-.6-.2-.5v-.5l-.2-.6v-.5a22 22 0 0 1-1.5-1.6l-.2-.4h-.2l-.2-.2-.2.3h-.2l-.2-.2v-.3l-.2-.3-1.9-.2h-.3l-1 .9h-.7l-.8-.5h-.6v.3l-.1.2h-.4l-.3-.2h-.1l-.3.3h-.7v.2l-.9-.4h-.5v.3h-.3l-.2-.3h-.6l-1.4-.5-.5.3-.2-.2h-.3l-.2.2h-.1l-.2-.4h-3l-1.1.9-.7.2h-.7l-2.2-.8-1.2-.8h-2.3l-.4.3h-.7v.7l-.2.4-.3.3-.2.2h-.7l-.6-.2.4.8h-.3l-.2.2h-.2l-.2-.2v-.6l-.9.2-2.6 1.9-.5.2-1.6-.2-1.5.3h-.5l.7.5.2.4h-.3l-.3.2h-.2l-.3.4-.3.4h-.2l-.4.2v.3l-.3.3-.3.2h-.3l-.6-.2.2-.2.2-.4.3-.7h-.2l-.3-.2h-.4v-.2h1.3l-.2-.3.3-.4.3-.2h.8v-.5l.5-.9.5-.4.5-.6.4-.6v-.4h-.4l-.7.5-.2.2-.3.2h-.3l-.9-.2-.2-.2h-.2l-.7.4-.7.6-.7.5-.2.3-.2.3-.3.3-.2.2-.5.3h-.2v-.5l.3-.3v-.2l1.2-1.1h.2l.3-.3v-.4l.2-.4h.6l1.1-.2h.4l.2-.2 1.3-1.1.6-.3.5.5-.2.5v.3h.6l.3-.2.4-.7.4-.3 2.2-3 .2-.3v-.8h-.3l-.2.3-.5.7-.6.6-.6.2h-.6l.2-.5-.3-.4h-.5l-.9.6h-.6l-1.1-.9v.5h-.2l-.4-.2-.2-.4-.3-.3h-.4l-.7.4h-.6l-.5-.6-.9-1.3h.3l.3.4.6.8.3.2 1.4-.3h.5l.9.6h.6l.3-.5h.9l.3.2v-.7l.3-.6-.3-.6v-.2h-.9l-.3-.2v-.7l.5.3h.4l.3.2v.2h.3v-.5h.2l1.1-.9h.5l.5-.4V91l.2-.7V90l.4-.3 1.3-.7 3.6-3 .7-.8.3-.5.2-.5v-.3l1-.9.6-.4 1.5-.5.7-.4.6-.8.9-1.3.7-1.4v-1.1h.3l.2-.2v-.8h-.7l-.4-.2V75l.2-.7v-.2l.5-.4.2-.3.2-.5.2-.3v-.5l.4-.6v-.6l-.5-.3-1.1.3h-.5l-.9-.7h-.6l-1.1.4h-.7v-.7h-.7l-.4.5.2.4.3.4.3.2h.3l-.2.7h-.5l-.9-.4-1 .4h-.5l-.4-.4.2-.2-.4-.2h-.5l-1.1.2-.6.3-1.2.9-.7.3-1.4.3-1.5-.3h-.3l-.3-.6h-.3l-.2.6v.3h-1.5l-.2.5h-.8v.5h-.3l.2.3h-.4l-.5-.6h-.5l-.4.2-.6.5-.7.8v.5l-.5.7-.2.2-.3.2.3-.7.2-.7.2-.6.4-.4V74l-.8-.6-.7-.3-.7-.2-.4.2-.2.5v.5l-.3.6-.3.3-.3.2-.3.2v.5h-.3l-1 1.1H97l.2-.4.3-.6.3-.8.6-.6.2-.3v-.7h-.2l-.2-.2-.4-.4h-.3l-.5-.8-.3-.3v.8l-.2.2V74l-.2.3-.3.3v-.3l.2-.2v-1l-.2-.5v-.2l-.3-.4-.4-.2-2.2-.5-.2.3v.6l-.2.6v.7l-.2.5-.3.2-.9.6v1l1.8 1.6-.5-.4-.4-.2-.9.6v.2h.3v.3h-.2v.2h.5l.2-.3v.8l.6.3H92l-1-.6-.2-.2h-.2v.6l-.2.4v.6l.2.3h-.3v.5l.2.4.4.5v.2l.5.9h.3l.2.2.3.3h.4v-.3h.6l1.1.3H94l-.4.2-.3.2.5.3.2.2.2.4-1.2-.9h-1.3l-.5-.6h-.7l-.2.4v.2l-.5-.3h-.7l-.7.5h-.5l-.7-.5h-.7v.5l.8 1.2h.2v.7h.3l.2.2v.4l.2.2h.8v.2l-.2.2h-.5l-.2.3.3.2v.2h-.2v.2l.2.3v.6l-.4.5h-.3l-.4-.2-.4.3-.4-.8-.6-.2-.3.5.5 1v.5h1l.3.5h.5l.7 1h.5l.2.4h.5l.2.3.2.4v.5h-.4v.3h.4l1.6 1.6v.2l.2.2v.3l.2.3h-.4l-.5-.8-.7-.4-.6-.6h-.2v-.2l-.4-.3H89l-.3.2h-.2l-.4-.2-.4-.7-.4-.2v.4h-.2v.5l1.1.6.7.8.5.2.2.2.3.4-1.3-.5-.5-.3-.5-.6-.2-.2-.8-.3h-.2v.3l-.3.9-.2.3v.2h-.5l-.7-.3-.4-.7V94h-.6l-.3-.5v.3l-.5.5-.2.3v.2h.2l-.2.3.2.4.6.6.3.5v1.5l-.2-.2h-.4v.4l.2.2h-.5l-.2-.4-.2-.3v-.4l-.2-.7v-1l-.4-.3H81l-.4.2h-.2l-.2.4v.3l-.2.3v.4l.2.7v1.7l1.4.4h.2l.2.3v.2h.4v.4l-.2.3H82l-.5-.5h-.3l-.7.3v.5l-.2.4v.8h.2l.3.2h.2l.3.6.2.6.3.5h.6l-.2.4.5.7.5-.4h1.5l.5.4v.2h-.5l-.7-.2-1.2.2v.4l.2.2h-.2l-.5-.4h-.2l-.3-.6h-.3l-.9-.9-.3-.2h-.6v.5h-.3v1.3l-.3.5v.6l.2.6v.3l.5.2h.2l-.2.3v.7l.2.3v.2l.3 1.2.4.2h.8l.4-.3 1.2-1.5.2-.3v.2l.2.4v.5l-.5.2h.5l.4.3h.3l.5-.3.7-1 .5-.5h.3l-.2.9-.7.7-1.9.9H83v-.2l-.2-.2v.2h-.3l-.3.3H82l-.4 1.1v.5h.4l.7-.2h.3l.6.3h.7l.6-.4h.3l.2-.3.2-.4.3-.3.4.2v.2l-.4.2-.4.4-.2.5v.2h.3l.2.2.2.5h.2l.7.3v.2l-.7.2-.6-.5-.5-.6-.5-.4H84l-.7.6-.4.6.3.5-.2.4-.6.9v.8l1.4.4.2.2.4.6h.6l1.4-.4.4.2v.3h-.3l-.2-.2H86v.3h-1.9l-.3-.2-.7-.6h-.7l-.2.2h-.7v.2l-.3.3-.7.9-.3.5.2.2h.2l.3.4h.6v-.2l.4.3v.8l.2.2h.3l.4.4h.3l.4-.2h.7l.3-.2v.2l-.8.4-.9.2h-.5l-.3-.2-.2-.2-.2-.2-.4-.6v-.2h-.6l-.5.2-.4.3-.3.4-.2.6-.2.7v.7l-.4.3.3.4v.3h-.6l-.5.2.7.2 1.6-.4.8.2-.7.7v.3l.5.2h.4l.2-.5.3-.2h.5l-.5.7-.7.3-1.7.2-.3.2v.4l.4.4 1.2.6h-.3l-.4-.2h-.4l-.3.4-.2-.2h-.4v.2h.3v.9l-.9-.5-.3-.2v-.2h-.3l-.3-.1c0-.1-.2 0-.2 0l-.6.4H76l-2.6.4-.2.2-.3.6h-.4v1l.4.2.3.2h.8l.3-.3h.4l1.2.3h1.2c0-.1.2 0 .2 0l.4.2h.2l.2.1.6-.2 1.8-1 .7.2.9.5h.3c0 .1 1.6 0 1.6 0l-.4.2-.5.2h-1.3l-1-.6h-.4l-1.8 1.2v.3l.2.2.4.4-.2.2-.4-.5-.6-.2-.5-.2h-.9l-.2.2-.2.2v.7l2.6 2.1 1 .2.6-.9v.6l-.3.5.2.2.3.2.3.2h.5v.5h.2l1.1-.9 1.1-1.3.7-1 .2-.2.2-.2h.4l.2-.7h.2l.3-.2.3-.2.4-.6.2-.3.2-.2.3-.2.2-.2.3-.1h.3l.2-.4.2-.4v-.8h.2l.4-.1v-.5l.3-.2.9-.9-.2.6-.3.5-1.2 1.2v.2l-.2.4v.2l1.3.6 2.7-.6-.3.2-1.3.3-.7.4h-1.4l-.5.5h-.6l-.4.3h-.2v.3l.4.2-.2.4-.7.6-.2.2-.4.8v.6h-.2v.5h.3l.2.3h.2c0 .1.2 0 .2 0l.4-.3h.2l.3-.3h.5l.6-.3-.2.2-.2.2-.4.2-.8.6h-.3l-.4.1H86l-.4-.5v.4l-.7 1.5h.3l.3-.5.2-.3h.2l.3 1.1.2.2.5-.5 1.8.5h.7l.2-.3.4-.7.6-.6.3-.5.2-.5.2-.4.4-.2-.4.4-.5 1.3-1.1 1.4-.4.4-.6.2-1.3-.4h-1.7l-.6.4-.4.6v.3l-.2.1-.2.2v.3l-.4 1h.3l.8-.2h.4v.2l-.9.3h-.7l-.3.2-.2.4-.2 1.1-.2.6v.7h.2l.2-.2v-.2h.3l.7-.3h.2v.6h-.2l-.3.1-.4.2-.2.4.2.4-.4.4-.2.6-.3.6v.6l.3-.3.4-.5.3-.5h.5v.6l-.6.8v1.4l-.3.1v-.2H83l-.2-.1v.3l-1.3 1.9-.6 1.2v1.4h.2c0 .1 0 0 0 0l.3-.6v-.6l.7-.9v-.5l.4-.2.2-.2h.2c0-.1.2 0 .2 0v.2h-.2v.6l-1.9 2.8v.3l.2.4v.2h.2l.3-.3.5-.3.5-.6.4-.2-.2.3-.3.3-.3.3v.4l-.2.2-.7 1.1v1.4l.4.3.2.2h.4v.5h.4l.6-.6 1.7-1.8-.4.9-.5.8-.6.5-.4.2-.3.2-.2.5-.3.5v.4l-.2.3-.9.8.2.4v.6l-.4 1-.4.9v.5l.2.2v.2l-.2.9v2l-.2.3-.6.7-.5.4v1.2l.2 1.3.2.4h.3l.4.1h.2l.4-.4h.7l.2.2h.4l.3-.3.4-.3.2-.2.6-.8.2-.5-.2-.2-.2-.7-.2-.3-.2-.2h-.2l.4-.4.2-.4.4-1h.2v-1.3l.5-.7v-.7h.3v-.5l-.2-.3h-.2v-1.2l.3-.3v-1l.2-.4v-.3l.3-.3.8-.9h.2l.6-.3.2-.2v-1.2l-.4-.7-.9-1v-.2l-.2-.2v-.4l-.2-.2v-.8l-.2-.6-.3-.2v-2.2h.2v.5h.3l.4.1h.4v-.7l.2-.5v-.2h.5l1.3-2.2 2-1.4.2-.2.4-1.1.2-.3.2-.3h.3l.7-.1.3-.2.6-.7.3-.2-.4.8-.5.4-.7.3-.5.4-.2.4-.6 1.3-.2.2-.7.5-1 .5-1.8 3.1-.4.5.2.9v.5l-.2.3v1.3h.2v1.1l.3.2.6.2.7.4h.3v-.5l-.3-.5-.4-.8.5-.7v-.9l.3-.4v-.3.7l.2.3 1.1.9.3.2v-1l-.6-1.6-.3-.5.3-.2v.3l.2.3.7.9v.6l.2.9.2.8.3.3h.5l.2.1.3-.3v-.3l.2-.3v-.6l.3-.3.2-.2v-.3l.2-.4v-.4l-.3-.2-.2-.2h-.2v-.3h.3l.3.3h.4v-2.2h.2v-1.6l-.3-1.1-.2-.5.2-.3h.2l.2.4v1.3l.2.3h.3l.3-.4.9-2 .2-.3.2-.2v.6l-1.2 1.9-.6 1.7v2l.2.4h.4l.4.2h.3v-.3l-.2-.6-.7-1.2v-.4l-.2-.3v-.2h.4l.2 1.1.2.4.3.4.3.3.6.3.9 1.1.7.4 2.5.6-.4.2-2.8-.4-.3-.2h-.5l-1.1-.5h-.5l-.5.3-.4.3-.3.5v3.2l.2.3v.3l.2 1-.3.7-.7.8.3.4.5.5 1 .7v.5l.6.1.9.4.5.4.3.6v.7l-.2.5.6.2.4.5v1.6l-.4.5-1.1.6-.6.5v.3l-.3.7v.3h-.2l-.3.4-.6.7v1.6l-.5 1v.6h-.3l-1.1 1.5-.7.5-.3.3v.6l-.2.6v.4l-.4.7v1.4l.3.6v.5l.6 1.2v.5l-.4.3h-.3l-.2-.3-.3-.4V182l-.2-.2-.3-.4v-.2l-.2-.3-.2-.2v.4l-.6.1-.2.2v.5l-.2 1.1v1.1l.4 1 .5.9 1.6 1.9.3.2.2.2v.3l.2.4v.3h.2v.2h.3v.6l.2.2-.2.2v1l.3.2h.3l.7.5h.4l-.2-.4v-1.2l-.5-.4-.3-.7-.2-.7v-.3h-.3v-.4l-.2-.4v-1l.3-.4.3-.3.4-.3.4-.2h.6l.4.2.3.8.4.2.7.2 2 1.2.5.6 1 1.5.6.1h.2l.4.4h.4l.4.2v-1.8l.2-.4-.2-.4v-.4l.2-.3v-.4l-.3-.3h-.2l-.2-.2h-.3v-.2l-.2-.4-.2-.7v-.3l.2-.4v-.3h.2l.3-.1v.6l.2.4.2.2.2.2 1.2.6h.5l.4-.6.3-.2-.2 1.2.6 1 .9.5h.6v-1.1l.2-.4.3-.2v.2h.2v1.6h.5c0 .1.8 0 .8 0l1.3-1 .9-.3.2-.2-.6-.6h.2v-.6l.3-.2.2-.4v.8l.2.1v-.3l1.2.2.4-.6h1.9l.3-.2.2-.5v-1.6l-.2-.3.2-.8.5.4h.5v-.2h.3l.2-.1.3.2h.3l5.3.5 1.4-.4h.5v.4l-.4-.2h-.2l-.3.3h-.3v.3h1.2l-.3.2-1.4.4h-.4l-.6-.2v-.3l-.2-.1-1.1.3-.2.2-.5.5.9.4h.2l-.7.5h-.5v-.3h-.2l-.4-.1-.3.5-.4.8-.5 1.7v1l-.3.5-.2.3h-.2l-.3.3h-.2v.3l-.2.8-.6 1.3-.4 2.2-.4 1v.3l-.2.2.2.2.2.4.3.3 1.5 2.2.4.3.6 1.2.4.2v1.3l-.2.2v.4l.3.4.5.6.6 1.1.4.4.4-.2h.9l-.2-.7.2-.7v-.3h.4v1.4l-.2.8-.5.2v.2l.2.2v1.5l.2.2h.5v.2l.7.8v-1l.5-.3v-.2l.4-.6.5-.7v-.9l.2-.4v-.4l.2-.1.2.4v1.1l.4.4.2.2h.7l.4-.3v-.4l.2-.3.3-.3.6-.3.5-.4.3-.3v-.4.5l-.2.5-.4.4h-.3v.4l.7 1.3.2.4-.3.7-.2.3-.5.2-.2.3-.4.6v.2h-.3v.5l.3.6h.8l.3-.3v.4l-.7.6.2.3-.2.2v.2h-.2v.3l-.3-.3h-.2l-1.6.7-.3.2-.3.5.2.8-.2 2.1v.9l.6.7.6.3h1.4l-.2.3-.7.5v.3h-.2l-.9 1.2-1.1 1.9-.2.4v.8l1.9 4.2.4.6.6.6.6.5.7.2h1.1v-.4l.3-.2.8-.2h.2l-.1.2h-.2l-.2.1h-.2l-.1.3v.6l-.4.3h-.3l-.4.1-.2-.2h-.3v.4h-.5l-.5-.2-.4-.4-.3-.4-1-2.6-.4-.4h-.3l-.6.4-.4.2h-.7l-.3.2-.2.3v.4l.3.5.6.8.4.8.4.8v1.1h-.2l-.2-.5-.2-.2-2.2-1.5v-.2l-.3-.3-.4-.2-.6-.3h-.7l-3.2 1.6h-.6l-1.9.2-.3-.2-.3-.4-.3-.3-.4-.2-.3.2-.2-.2-.3-.2h-.3l-.3-.1v.3l.6.5.2.5h-.6l-1.8.8-.6.4-.4.2h-.4l-.2.3v-.2h-.7l-.5.2-.4.3-.4.5-.4.7-.2.3h-.3l-.2.2-.6.9-.2.4v.2l-.2-.2v-.2h-.2v2.1l-.2.3-1.1.8-.4.5-1.3 1.1-.3.2h-.7l-.2.2-2.3 2.7-.3.5v.3l-.2.3.3.2h.2l.2-.4h1.6v-.4h.2l.4-.1.3.3h.4l.2.4h.5l.2-.3-.2-.3v-.7l.4-.2.6-.8.3-.3.4-.2h1.1l.3-.2.3-.2 1.2-.3h1l.4.1.5-.3v.3h.5v-.3l.2.2-1 .7v.9l.2.4v.6h-.3v.6l.5.7 1.2 1.5h.3l.3-.3h.4l-.2.2-.7.6h-.2v.6h-.2l-.3.3-.3.5-.3.7v1.1l.8 1 .3.2h.4l.9-.4h.4v.2l-.8.7h-.3c0 .1-.2 0-.2 0h-.4c0-.1 0 0 0 0v1.3l-.2.6v.6l-.3 1.2-.2.6-.5.9-1 1.4-1.9 1.7h-.3l-.4.1h-.3l-.2.3-.5.6-.3.3-.4.2-.4.2h-.2v.3l-.2.2h-2.1l-.6.3v.8l-.6-.5H97l-.3.4-.4.6-.2.3-.4.3h-.5v1c0 .1-.4 0-.4 0l-.6-.2h-.3v.3l-.5.2h-.3l-.9-.5h-1.1v.3l.2.2-.3.1v.7l-.5.5-.7.3h-.5l-.3.2-.5.5h-.3l-.6.1v.7h-.2v.8h.3l.9-.2.3-.2.2.2h.7l.3.3.2.1.2.3v1.8l-.3.2-.2.2h-.6l-.2.3-.2.3h-.2l-.3.2h-.3.3l.8.7v.5h.2l.2-.3v-.4h.2l2.3.2h.3l1.3-.3.3-.3v-.3l-.2-.2v-.6h-.2l-.2-.1.2-.2h.9l.5-.3h.2v.1l-.7.2-.2.5v.7l.5.4v.2h-.2l-.2-.1-.4.3-.8.2-.5.3h-.3c0 .1-.2 0-.2 0h-.4l-.3-.1v.4l-1.2-.2-.2.2.4.3.8.2.2.6v.2l.3.3 1.1.4v.2h.2v-.4h.3l.2-.3v-.2l.3-.2.2-.2H96l.3-.3.2.1.4-.7v-.4h.2v-.7l.6-.4.7-.2h1.7l.6.1.6-.3-.2-.2-.2-.3v-.2h.4l.2.2.3.1v-.2h.2v-.4h.2l.2.1v.5l-.2.2.2.3.2.2h.4l.3.1-.2.2h-1l.2.5.4.4.5.4h.3l1.4-.1h.2l.9.4h1l.2-.3v.4l-.4.6-.8.2h-.8l-.6.2v-.5h-.2l-.2.4-.6.3v.8l.2.3-.3.2v.3l.3.1 1 .4h.2v-.3h.2l.2.2h.3l.3-.4.2-.2h.6l.2.2c0 .1 0 0 0 0l.2-.2v.3-.2h.8l-.2-.3v-.2l-.3-.3v-.2l.2-.2.2-.2h.3l1.8-.3h.2v.3l.3.5.2.2.2.2h.2l.2.5.2.4v.5l.2.5.2.5.3.3.4.2h.3l.3-.1.9.8.8 1.1.3.2 4.2.3 1.2-.5h.2l.3.2.3-.4.2-.5-.3-.6.3-.1v-.5l.5-.6.2-.2h.3l1-.7v-.2l.5-.5h.2v.1l.2.2h1.6l.7-.2.9-.7.8-.2.3-.2.5-.6 1.1-1.3.2-.3h.1l1-.8.2-.3.2-.4.3-.3h.3l.3-.1h.4l.3-.4v-.5l.3.2v.6l-.2.3-.8.2-.2.2-.6.8-1 1h-.1l-.1.4v.2l-.1.2v.3l-.2.1h-.2l-.1.2-1.5 2.5-.3.4h-.4l-.4.1h-.3l-.3.3-.3.3-1.1 1.5-.7.6h-.5l-.3.2.2.3v.3l-.3.2-.2.2v.7h-.5l.2.3v2.6l-.3.5h-.3l.3-.5-.2-.2-.4.3h-.7l-1.7.1-1.2.4H117l-.5-.5-2.1-.5h-1.3l-2.2-.5h-.3l-.5.3h-.4l-1.5.1-.7.3-3 .2-1.3.5v.2h.2v.9h-.7v.3l.4.4v.4l.3.7v.5h-.2v.3l-1.2 1.3h-.3l-.3.2h-1l-.4-.4h-1.7v2l-.3 1.1v2.3l-.4.9-.7.5-.3.4v.4l-.3.4-1.2 1h-.2l-.2.1v.6l-.2.5-.2.4-.3.4-.5.2h-1.2c0 .1-.4 0-.4 0v.9l.2.3.6.2.3.2v.3l-.7-.1-.3-.2v.2-1h-.2l-.2.2-.4.1-.3.2-.2.4v1l-.2 1-.2.3v.2l-1.2.6h-.5v1.3l-.2.2-.6.4-1.9 2-.6.4h-.7v.6l-.3.4-.4.2-.3-.2-.5-.5h-.4l-.6.4-.6.2-1.1.7H80l-.2.2-.3.6v1h.3v.5h-.2l.2.8.6.2h.8l.7-.3h.2l.3-.4.2-.3v-.8l.3-.3h.5l.3-.2.3.2.6.3h.6l1 .6.4.2.2.4.5.8v.9l.2.2.5.7h.2l.2.2v-.2l.2-.6.5-.5.2-.2h.4l.5-.7.2-.4v-.3l-.2-.4-.4-.1h-.2l-.2-.2h-.2l.6-.2v-.7h.2l.2-.3h.2l-.2-.3v-.2l.2-.3v-.6h.5v1.1l.2.3.7-1.2.2-.2.7-.3h.3l.3-.5.4-.2.8.2v-.2l.2-.2.2-.4v-.7h.2v-1.2h.3l.5-.1v-.2h.2l.2.7h.2l2.8-.3.6-.3 1.2-.7h.8l1.4.3h.3l.2.5v.3h.5v-.5l.2-.2-.4-.1v-.2h-.2l-.2-.1v-.1l.6-.2-.4-.3-.9.2-.3-.4h.8c0 .1.2 0 .2 0l.2-.2v-.6h-.3v-.3h.4v-.5h.3l.5.1-.2.2-.2.4-.2.4.2.4v.3l.2.2.2.3h.8l-.2.5v.4l.5.3h.4v.3l.2.3h.2l.2.2.2-.3.2-.2.4-.2h.4l1.1 1 .9 1.2.7.6.2-.3h.3l.3.2h.3l.3.1.7-.2h.3l-.2-.8v-.6l.3-.5v-.5l.3-.2h.3l.4-.4v-.5l.4.2h.2l.2-.1v-.6l.2-.2h.3l.2-.6v-.2h-.8l-.2-.1-.2-.4.2-.4.2-.2h.4l.4-.1-.3-1.1v-.5l.2-.7.2-.6.2-.4.3-.4.3-.3-.2-.3-.2-.9-.2-.3v-.2l.2.8.2.4.2.2h.3l.4.1 1.2-.5.2-.4.2-.3.2-.3h.7l.5-.4h.9l.3.1.3-.3.3-.3h.2l.7.1h.4l.6-.4 1.2-.3h.4l2.9 1.1 3.5 2.6.3.7v1h.2l.2-.4.2-.4v-.3l-.5-.2-.2-.2v-.6l.3-.5.2-.3.7-.2h.3l.6.3 3.1.3 1.2.6h.3l1.4.1.3-.2v-.4l.5-.7-.3-.2v-.4c.1 0 0-.2 0-.2h-.2l-.6-.1-.2-.2-.4-.7-.2.2h-.1l-.2.2h-.3l.6-1h.2c0-.1.1 0 .1 0v.3l.2.1h.1c0 .1.4 0 .4 0l.7.2v.6l.3-.1.3-.3.3-.3h.3l.3-.2h.4l1 .1h.3l.7-.4h.3l.4-.1 1.2.2.3.3h.3l.1.1.6-1.1h.5c0 .1.1 0 .1 0h.2l.4-.3h.8v-.3h-.2l-.1-.2h1.3l.4-.3v-.6l-1.3-1.5-.4-.5h-.2l-.3-.2h-.2v-.3l2.2 1.2.6.8h.2l.6.3.3.3.6.3v.3l.2.1.3.2h.3l.2.1.2-.2v-.8h-.1l-.5-.6h.2l1.1-.2.3.2v.3l-.5.5v.5l.2.3h.5l.2-.5.2-.7.2-.4h.3l.5-.1h.5l.4.3-.2.3h.1l.2-.1h.3l.3.4h.2v.3l-.5.2h-.2l-.1.4v.2l1.6.9.4.2.3-.2v-1l.2-.1h.2l.1.2h.2l2.7-.8h2.9l2.1-.8.6.3.5-.3h.5l3.5 1.3h.7l.3.2.3.3h.1l.8.1.8.3h.9l.6-.9.6-.3h.1l.1-.4.2-.3h.1l.6-.2 3.6-.8.7-.3 1.6-1.6.7-.2 2.4.7.6-.2-.2-1v-1l.9-1.2.6-.7.3-.2h.4l1.1-.1h.3l.1-.3.2-.2h.1l.2-.2h.6l.4-.3 1.2-.4.4-.6.4-.8v-2.1l-.2-.7-.2-.4v-.6h.1l.6-.1h.1l.1-.2v-.2l.1-.1.2-.9-.4-.3-5.4.5-2.1.7-3.5-.4-.2-.2-.3-.5v-.4l-.2-.4h-.3v.9l-.6-.1h-1.6l-.1-.3v-.2l-.2-.1.3-.2h.6l.5-.7h.3l.6.2h.3l.2-.2v-.3l-.3-.4h-.2l-2.7-.5-1.1.3-.1.2v.2l-.2.1-1.1.2h.3l.2-.2.3-.2.2-.2v-.3l.1-.3v-.2l1.3-.3h.4l.3.2.2-.2h.5l.2-.1.3-.3h.1l.8-.1 1.3.2.7-.2 1-.6.8-.8.5-.8h-.1l-.1-.2h-.5l.3-.2h.1l.1-.2v-.9h.2l-.1-.5v-.2l-.1-.2v-.2l.1-.5-.3-.3h-.3l-.4.5-.6.2-1 .2-.5.5-.2-.4-.3-.2h-.3l-.2-.2.3-.2.8-.3h.6l.3.2h.4l.3-.3h.2l.1-.2v-.7l.1-.1h.1l.5-.6.7-.3.2-.3v-.5l.2.4.6.7.2.6h.2l.3.2 1.2-.2.5-.2.9-.6.9-.9.2-.4v-.6h-.1v.3l-.3.2h-.6l-.3-.2-.2-.2 1.3-1.4v-.5l-.2.2h-2.8l-.5-.3h.5l.8-.4h.4l.4.3h.2c0 .1.2 0 .2 0h.4l.2-.1h.3c0 .1.1 0 .1 0v-.5h-.1l-.2-.2-.7-.2-.4-.2-.6-.6v-.2h.5l.8.8h.5l1.1 1.6h.2l.2-.4 1.2-1.3.4-.6h.1l.1-.3v-.3l.2-.2.2.2.3-.4 1.3-.5v-.2l.1-.3.3-.8v-.5l.3-.9v-.5l.1-1.9.2-.3.2-.2.5-1 .7-2v-.2l.1-.3.4-1.4.2-.3v-.2l-.3-1.3h1.2v.2h.1Zm-137.6-118v-.2l.2-.3.2-.6.2-.3v-.3l-.4-.1-.3.2-.5.5h-.4l-.5.5-.2.3-.8 1.2-.4.4h-.5v.4l.2.4v.2l.2-.3v-.3h1l.8-.7.7-.8h.3l.2-.2ZM79.1 150l.3-.3.3-.5.2-.2v-1.1l-.4-.2-.5.4-.9.9-1.2 1.2-.5.2-.4.2-.5.7-.5.8-.2.6.3.5h.5l.7-.2h.4l-.6.5-1.3.3-.5.4-.3.3h-.2l-.3.3-.2.5v.5l.2 1.4.2.8.6.4h.7l.4-.3v-.4l.3-1.2v-.2l.4-.2.4-.5h.2l.3-1.1 1.4-2.8.7-1.7Zm-13.3-30.1h-.3l-.6.4-.3.2h.5l.5.2h.5l.5-.4h-.2l-.4-.2-.2-.2Zm5.4 18.4h.9l-.2-.4-.5-.4-.2-.3h-.5l-.2.3v.3l.3.4h.4v.1ZM159 297.9h-.1v-.3h.1l.1-.2v-.2l-.2-.1h-.2l-.5.7-.3.2 1.3.3v-.2h-.1l-.1-.2Zm30.9-16.4h-.1l-2.1-.9h-.2l-.1.3-.2.7v.3l.3.4.3.3h.4l1.9.3.4-.2v-.3c.1 0 0-.4 0-.4l-.4-.4h-.2v-.1Zm-33.3 18.6v-.3l-.2-.2h-.6l-2.5-1.1h-.4l-.4.4-.6.7-.4.3h-.4l.1-.2-1.4.6-.7.5-.4.8.3-.2h.3l.6-.2h.2l.6.5h.1l2.1 1.7h.7l1.8-.4h.1v-1.1h.1l.5-.6h.2l.7-.3.1-.1h.1v-.2l-.4-.6h-.2Zm-2.9-272.5v.2l.3.4v-.4l-.3-.2Zm-.6-18.5.2.4h-.1l-.1.5.3.4v1.5l.2.3h.2v.3h.6c0 .1.2 0 .2 0v-.2h-.3l.1-.3h.3l.4.2h.2c0-.1.2 0 .2 0V12c.1 0 0-.4 0-.4l.2-.8h-.2c0 .1-.1 0-.1 0h.2l-.2-.2h.2l.3-.1v-.4l.2-.2v-.5h-.2c0-.1-.2 0-.2 0v-.3h-.4v-.2h-.3v-.2l.3.1V9l.4-.2v-.4c.1 0 0-.4 0-.4h-.2v-.2h-.3v-.4l.6.5h.4v-.3c-.1 0 0 0 0 0V7l-.1-.4h-.1V5.2l-.5-.2v.2l-.5-.3h-.8l-.2.9v.3l.1.4V7l-.1.5v.2l-.1.5.4.3v.4c.1 0 0 0 0 0l-.2-.5h-.3V7.3l-.5.5v.3l-.1.4h-.1v.3c.1 0 0 .1 0 .1v.4-.2Zm3.3-3h.2v.3h.6v-.2h.4v.2l.8.3.2-.3h.1l-.4-.5h-.2l.2-.7h.2V5l.3-.3v-.4c.1 0 0 0 0 0h-.5l.2-.3h.5v-.2h-.2v-.4l-.2-.2h.8v-.5l-.2-.2h-.2v-.3h.6V2h-.3v-.4l-.3.3h-.2c0-.1-.2 0-.2 0v-.3l-.3.2v.6l-.3.4h-.2v-.3l.1-.4v-.6c.1 0 0-.1 0-.1h-.2l.1.4h-.2l-.2.6-.2.4h-.2v.4l.2.3v.6h-.2v.2c.1 0 0 .2 0 .2h-.2v.8h-.2v.3l.2.5h-.2v.3h-.1v-.2h-.1v-.1Zm-2.3 7.2V13l-.3.2h.3v.1Zm-6.7 5.5-.2-.2v-.3l-1 .1h-.4l-.2.5.2.4v.4l-.2.2h.2v.5c-.1 0 0 .1 0 .1l.4.3.3.4h.1l.2.2.3-.2v-.3h.4v-.2l.3.2v.4l.4-.3h.2v-.4h.3v.7h.3-.8l-.3.4v.4l.2.2h.3l.1.5h.3l.4.3h.2v-.7l.4.4.3-.7v-.3c-.1 0 0-.2 0-.2h.1l.4-.3v.5h.1l-.1-.7-.2-.2v-.5l-.3.1V20l.5.1-.2.3v.2l.1.4h.2v.3h.1l.5-.7h.2v.9l-.3.8.3.2V22l.4-.1-.2.4v.7c-.1 0 0 .1 0 .1l-.2.4v.2l.1.6h-.2v-.1l-.3.2h-.2l-.1.2h.3v.4h-.2l-.2.4v.9h-.2l.2.3.2-.2v-.2h.2l.1-.5h.4l.2-.5v-1.1h.3v1.1l-.2.2-.2.7v.2l-.2.8v.2l-.2.7h-.1l-.2.2.3.8h-.2l-.2-.3v.3h.4v.5c-.1 0 0 .2 0 .2h-.3l-.2.1v.6c-.1 0 0 .2 0 .2l-.2.2h-.2v.5l.3.2h.2l.4-.2h.2l.1.5h.1l-.2.5v.2l.3-.2h.1l.2.4h.2v-.6h-.2v-.2l.2-.2V31h-.2l.2-.4v-.3h.2l-.1-.6v-.2c.1 0 0-.4 0-.4v-.2c.1 0 0-.2 0-.2l.2-.4h.1v.2h.2v-.4h.2v.3l.3.4h.1l-.1-.6h.1l-.3-.5v-.4l-.1-.4h.2l.3-.2V26l-.2-.2v-.7c.1 0 0-.2 0-.2l-.2-.3.4-.2V24c.1 0 0-.1 0-.1v-.2l.5.2v-.4c-.1 0 0-.1 0-.1v.3h.2l-.1-.5h.2l.2.1h.1l-.2-.5h-.1l-.2-.3v-.2l.1-.4h-.1v-.4l-.5.5v-.6l.3-.6h-.4l-.1-.1.2-.2h-.2l-.3.1h-.3v-.2l.4-.1.2-.2v-.2h-.2v-.3h.5l-.1.7.4-.2v-.5l.4-.1h.3c0 .1.1 0 .1 0l-.3-.3h-.5l-.2-.2.5-.5.2-.2h.4l.1-.1V18c-.1 0 0-.4 0-.4v-.2l-.3.2h-.4l-.4-.4h-.2c0-.1-.2 0-.2 0v-.6l.3.1h.5l.3-.2h.3v-.6h-.1v-.4c.1 0 0 0 0 0v-.2h-.3l-.2.5h-.3l.1-.4.2-.3h.1l.3-.3v-.2l.3-.2.3-.5v-.3l-.4.1v.3l-.3.1v.3l-.1.3h-.2l-.3.2v.2c.1 0 0 .2 0 .2h-.5v-.5l-.8.5.5-.4v-.2c-.1 0 0-.1 0-.1h.3v-.4c-.1 0 0-.2 0-.2l-.2-.4v-.3h-.5V13h.1l-.1-.6-.3-.3h-.2l-.2.5h-.2v-.2h-.3v.3l-.3.3.2.3h.2l.2.3-.4.2h-.8l-.2.3v.5l.3.2-.2.3h-.3l-.2.1V15h.2v-.3h.2v-.2l-.1-.3v-.3l.4-.4h.2l-.2-.4v-.3c.1 0 0-.2 0-.2h.3l-.1-.4h-.2l-.1.4h-.2l.2-.2v-.6l.3-.1-.2-.3v-.3h-.3v-.3l.2.1h.2c0-.1.2 0 .2 0h.1v-1l-.4-.6h.2l.2-.4V8h-.6v.4h-1.2l-.1.2h.1l-.4.4v.3h.1v.3h-.2l-.5.8h-.2v.4l.3.3.3.4.3.2v.2l-.4-.2-.3-.3-.5-.3v-.2l-.1-.3-.2-.3-.3.3-.2.3v.7l-.3.3h-.4l-.2.4h-.2v.2l.3.2h.2c0-.1.1 0 .1 0l.2-.2h.2l.2-.3h.1l.2.3h.3l.3-.2v.3c.1 0 0 .1 0 .1v.4c-.1 0 0 .2 0 .2v-.2l.3-.6.2-.4h.1l-.2.5v.4c.1 0 0 .2 0 .2v.3h.3v.4l-.2.2v.2c.1 0 0 .1 0 .1h.1l.3.1.5-.2v.2h-.1v.3c-.1 0 0 .2 0 .2v.5c.1 0 0 .1 0 .1l-.2-.3-.4.2v.3l-.3.1.2.2v.4l.3.3h.4l.3-.2.2-.2v-.8l.2-.2h.2v.7h.8l.3.3.3.2h-.1l-.5-.3h-.4l-.2.4v.3h-.1l-.2-.2-.2.3v.3l.1.7v.6l-.3-.1v-.4l-.2-.2v-.3l-.4-.2-.3-.3v.2l-.5.3v.3h.3v.2l-.6-.2v.4h.2l.6.4h.1l-.1.2v-.5l-.3-.6v-.2h-.2l-.6.3v.2l-.3.2-.2.2v.2Zm9.2-10.5h-.4c0-.1 0 0 0 0l-.2.4h.2c0 .1 0 0 0 0h.2c0 .1.2 0 .2 0v-.4Zm-.7 8.3v-.5c.1 0 0 0 0 0v.2c-.1 0 0 .4 0 .4h.1l-.1-.1Zm3.4-12.8v.6c-.1 0 0-.2 0-.2v-.4Zm-29.5 50h.1v-.3c-.1 0 0 0 0 0l.3-.6h.2-.1l.2-.4v-.4h.9v.3h.3V52h.7l.2.3h.2V52h-.2v-.3l.3-.5h.1v-.5l.3-.2h.7v.2h.4v-.2l-.1-.4h-.1v-.4c.1 0 0 0 0 0l-.4.2v.5h-.5v.3l-.4.3h-.1l-.2.2h-.4V51l.1-.4.2-.2v-.3h-.5v.2l-.4.2h-.3l-.2.4.2.2-.2.3h.2l-.4.3-.2.3-.3.2v.4l-.6.2v.5l-.1.3v.3h.1v-.1Zm24.8-30.3v.5l.3.2.5.3v-.4l.1-.5.2-.3v-.6h-.3l-.1-.1h.1l-.1-.6h-.1c0-.1-.2 0-.2 0v.2l.3.1h-.1l-.3-.2h-.7v.5l.4.2v.3c.1 0 0 .2 0 .2v.2Zm3.3-16.7v-.2l-.2-.2h-.2v.2l.2.2V7l.2-.2ZM139.4 24v.3l.6.2v-.6l.2-.2-.3-.5h-.4l-.5.2h-.1l.1.4.4.2Zm6.2-6 .2-.4.2-.2v-.3l-.3.1h-.5V17h-.3v.2l-.1.1.3.5.5.2Zm-11.5 30.3.2.3.2-.4V48l-.1-.3.2-.2h.5l-.2-.4-.3.2h-.5l-.3.7v.2h.3v.1Zm13.5-26.8-.3-.2-.3.2v.3h.6v-.3Zm-.9 20.6v.8h-.3v.3h.5v-.4l.3-.3h-.1V42l-.4.1Zm4.3-18.9h-.2l-.1.2h.1l.2-.2Zm-1.9-5.2.3-.5-.4-.3h-.2v.8h.3Zm6.7 5.1.2.2.2.3h.2l.1-.2v-.3h-.7Zm4.4-8.7.2-.2h-.1l-.4-.1-.2.2h.5v.1Zm-.5-6.1-.2.2v.3l-.2.1-.3-.2V8h-.6l-.3.2h-.1l-.6-.3-.4.3v.3l.3.4.3.8.4.3.4-.2-.3-.4-.3-.2.6-.2.2.3h.2c0-.1 0 0 0 0l.4.4.2-.3v-.2h.1v-.4l.2-.3h-.1v-.3h.1v.1Zm-2.9 8.7h.1l.3-.5v-.3l.3-.3.4-.3h-1v.3h-.4l-.3.3-.2.6h-.2v.2l.5.3.4-.2v-.2l.1.1Zm-6.6.7.2-.2v-.3c.1 0 0-.1 0-.1h-.1v.2c.1 0 0 .1 0 .1v.3h-.1Zm-27 47.3v-.2l.3-.3h-.7l-.2.2h-.2v.3l.2.4h.7v-.5h-.2l.1.1Zm-.5 4.2v.3l-.2.4h.5v-.8h-.3v.1Zm-.7-4.4h.4v-.6l-.2.2v.4h-.2Zm-2.1-3.4h-.2v.5l.5.2h.2v-.5h-.2l-.3-.2Zm2.1 1.8v.4l.2-.2-.2-.2Zm1.9 4.7v-.3.3Zm2.5-4.5h-.3v.3-.3h.3Zm.4.9-.2-.2v-.4h-.5v.5h-.4l-.3.2-.2-.2-.2.2h.2l.2.2.4.2h.9v-.4l.1-.1Zm-8.4-.7.2.2v.6l.2.3.2.2.4.5.2.3v.2l.4.7h.9l.2.2.2-.2v-.2h.7l.7-.2v-.6l-.2-.2h-.7l-.3.4h-.4v-.2h.3l.5-.3h.2l.3-.3h-.5l.2-.2v-.2h-.3l.2-.2v-.2l-.3-.2v-.4l-.3-.4h-.2l-.2-.2-.5-.4h-.5v-.7l-.3-.2h-.2l-.5.3-.3.3v.6l-.2.4v.2l.2.3-.3-.2Zm9.7-6.2V57h-.5l-.2.3v.2l-.2.3h-.4v-.2h-.3v.4h-.2v.7h.6l-.2.3h.2v-.2h.6l.2.2h.2v.2l.4-.3v-.3l-.3-.3.2-.6v-.3h-.1Zm4.4-.7h-.3v-.4l.2-.5h-.9l-.2-.3.3-.3-.4-.2v-.2l-.2-.3-.4.3h-.3l.4.4.2.3.2.2v.5h-.8v.4h-.1l-.2.6.2.2h.4V57c.1 0 0-.4 0-.4h.1l.3-.2.4.3v.6l.2.2.2-.2h.2v-.2h.5v-.4h.1-.1Zm-6.2-1.3v-.9l-.2-.3h-.2v.9l.2.4h.2v-.1Zm1.4-3v.8h.2V53l-.2-.5v-.4h-.2l.2.3Zm.4 1.4h-.3v.5h.2v.6l.1.3.3-.2h.5v-.3l-.2-.2v-1c-.1 0 0 0 0 0v-.4l.3-.2v-.3l-.2-.2h-.2V52c.1 0 0-.2 0-.2l-.5.5v.7l.2.2v.6h-.3.1Zm3.6 4.7v.4l.3-.2-.3-.2Zm-5.2-9.1h.2l.2-.2v-1.1h.2v-.7h-.2v.7l-.2.4v.8h-.2v.1Zm5.2 5.3h-.1v.2c-.1 0 0 0 0 0v-.2h.1Zm-2.2-2.4-.3-.5h-.2v.4h.5v.1Zm-6.3 2.3v.2l.3.4.6.3h1.3l-.2-.9v-.3h.3v-.5h-.2l-.3.2h-.6l-.3-.2v-.4h-.5l-.4.4v.2l-.2.2v.4h.3-.1Zm-.2.7V55h-.2v.4h.2v-.1Zm2 1.5v.2h.2v.3h.4l-.2-.5h-.4Zm-6 3.2v.8h.3l.2.3h.5v-.2h.7v-.4l.2-.3v.3l.3.2v.8l.2.6.3.4h.2l.5-.2h.8v-.4h.6l.2-.2h.4l.5-.3v-.3l.2-.2h.2v.7l.3.5v.3l.4.4v.2h.6l.5.2.5.6.2-.2v-.2l.3-.3v-.4l.3-.3h.3l.2-.2h.6v-.5h-.1v-.4h.2V61l-.1-.3v-.3h-.1l-.3.3h-.1l-.6.4h-.2l-.2.2.3.2v.4h-.6v-1.1h.5l-.2-.8-.4.3h-.3l-.2-.2v.3l-.6.4h-.4v-.7h.2l-.3-.2.3-.5h-.3l-.2-.2-.2.3v.5l-.3.2v-.3l-.2-.2h-.2l-.3-.3h-.4l-.3.4h-.3v-.3l-.3.2h-.2v-.4l.5-.2v-.2l.2-.2-.2-.3h.4l.3.2.3-.5v-.6l-.2-.3h-.2l-.3-.3v-.7h-.4v-.3h-.5l-.8-.3v-.2h-.4l-.4-.4h-.5l-.8.3h-.6v.3l-.2.4h-.2l-.2.4v1.4l.2.2-.3.2v1.9h.2V60Zm7.7 4.8-.3-.2-.5.2h-1.2l-.3.4.4-.2v.2l.4.3v.2h-.2l-.2-.3-.2.2.2.4.2.4h.2v.8h-.4v.2l.2.3v.2l.3.3h.6v-.7l-.2-.3h.2v-.5l-.2-.2.3-.2v-.2l.4-.5v-.4l.3-.4Zm-2.3-15.1.2.4v.7l.2.2.5.5v-.2l.6-.2-.2-.2.4-.2v.2h.3l.3.5h.3l-.2.9h.2V52l.2-.4h.4l-.3-.5-.3-.2h-.2v-.5h-.2v-.5h-.4v-.2h-.4v-.2l-.4-.2h.4v-.9l-.3-.3-.3.2v.5h-.2l-.2.3h-1l.4.4.3.2h-.1Zm1.2 5.9h-.5v.3h.5v-.3Z"/><g opacity=".9"><path fill="#fff" d="M51.2 170.8v.2l.3.2.5.3v.7l.5.6 1.1.9-.4.2h-.3l-.4-.2-.3-.2h.4l-.2-.5-.4-.2h-.3l-.6.8h-.4l-.3-.2-.4-.3v.4l-.2.2h-.3l-.2-.2H49l.2.5v.6l-.2.5-.4.3v.8l.2.2.4.3.7 1v1.2l-.2.3.3.3v.8l-.3.4h-.3l-.3.2-.4.2v.3h-.3l-1.6 1.6-.3.2h-.3c0 .1 0 0 0 0l.2-.2.6-.8.8-.6.2-.2.2-.6-.3-.2-1 .2v-.2l.9-.6.3-.4h.2l.2-.2.2-.2v-1l-.2-.2h-.2l-.2-.5v-.7l-.5-.2-.2-.2v-1.6h-.2v-.4l-.2-.3h-.3c0-.1-.2 0-.2 0l-.6.5h-.8v.2l-.5.9v.4h.2l.4.3.2.2v.2l.3.2h.2v-.3l-.2-.5v-.6h.3l.2.4v.9l.2.4v.7l-.2.2-.2.7-.2.3v-1.6h-.2v-.4l-.4-.3-.4-.2h-.2c0-.1-.2 0-.2 0h-.3v-.6l.4-1.4v-.2l-.4.5-.4.3-.3.4v.6l.5.5v.4l-.2.5v.2h-.8v-.2h.4v-.6l-.3.3v-.5l-.2-.4-.3.2h-.4v-.2l-.7.4v-.2l.8-.5v-.4l-.3-.3h-.4l-.2.5-.2.5-.2.2h-.3l-1 .8-.5.7h-.2c0 .1 0 0 0 0v-.5h.2v-.4l-.5.3h-.3l-1-.3h-.2l-.2.3-.3.9-.2.2v.7l.2.9v.7c0 .1-.2 0-.2 0v-.7l-.2-.2-.3.8h-.2l-.2.1v.5l-.2.4-.2-.2h-.4v.4l.6.8.4.4.5.2-.4.3h-.2l-.3.1h-.2v-.3h-.4l.2.7.3.6.4.4h.5v-.5l.4-.1h.2l.2.6.2.2h-.9l-.2.3v.5l.2.3h.4l.3.2v.2h-.4l-.9-.4-.8.2h-.3l-.4-.4v.2l-.4.3-.4.1v.4h.4l.6.5.6.2.9.9-.3.2-.3-.2-.3-.4-.2-.3h-1.2l.3.4 1.2.3v.2h-.4l-.9-.3H32c0-.1-.4 0-.4 0l-1.2.9-.2.2v.3l-.2.2h-.2l-.2.2h-.2v.2c-.1 0 0 .2 0 .2l.3.2v.2h-.1l-.1.2-.1.2h.3l1.4.5.2.2-.2.2.3.2h1.3l.3.3h.2l.2-.4h.6l.2-.1v-.2.5l.2.3h.2c0 .1 0 0 0 0v-.5l.4-.4h.2v.6l.2-.2.3.2v.4l-.2.3h-.3l-.3.3-.4.4v.2h.2l.3-.2.2-.2.8-.8.4-.3.4-.5h.3l.2-.1v.5l-.2.3c0 .1.4 0 .4 0l.6-.5h1.1l.4-.3.3-.3v.4l-.3.9h-.3v-.2l-.2-.2v.8l-.7.7v.5l-.9.8.2.3h.3l.5.1v.2H38l-.8.7-1.6.3-.5.2-.5.4v-.7h-.3v1.2h-.2l-.3.1-1.9 1.5h-.5l-.2.2v.2l-.2.2v.3h.1l1.7.1h.3l.4.4v.2l-.2.2-.4-.3h-.2v.5h.8l.3.2.3.3.3.3-1.2-.2H33v.2h-.2l-.4-.2-.2.5h-.1v.3h.5l.3.3v.2l.2.3.3.2h.3l.2.2v.2h-.8l-.2.2-.4-.6h-.2l-.4-.3v-.3l-.2-.3v-.3l-.5-.3-1.1.3-.4-.4-.4.3H29l-.8.1h-.3l-.4-.3h-.2l-.3-.3-.2-.2h-.1l-.1.2h-.1l-1-.2h-.6l-.2.5v.8l-.4.5-.4.4-.4.2v.4l.1.4v.4l-.1.5h-.1v-.9l-.3-.4-.8-.7v-.3l.2-.2v-.2l-.3-.2v-.5l.1-.3v-.2l-.2.1h-.4c0 .1-.1 0-.1 0l-.2-.6h-.1l-.8-.5h-.3l-.2.3-.2.2h-.2l-.1.1-1.3-.2H18l-.2-.3h-.1c0-.1-.2 0-.2 0h-.3l-.2.1-2.9-.2h-.3l-.6-.5h-.4l-1 .2v.6l.3.3.9.2.3.2h-.4l-.2-.1h-.1v.3l.3.2.2.2v.2l-.3-.1-.6-.4h-.4c0-.1-.2 0-.2 0l-.3.4v.4c-.1 0 0 .4 0 .4h-.2l-.2.5-.3.2-.2-.2-.3-.2h-.4l-.3-.2v-.5l.5.4h.5l.4-.3.3-.7H11v-.2h-.2l-.1.1h-.1l-.2-.3-.2.2h-.3l-.3-.2-.2-.2h-.1v-.5l-.2-.1v.3l-.7.5-.2.2v.3l-.2.4v.3h-.5l.2.2.2.2h.6l-.2.3-.2.2-.2.2v.9l-.5.8v.9l.2.3h.2l.4.1h.2v-.4l-.2-.2-.2-.2.3-.2v-.7H8c0-.2.4-.4.4-.4h.2l.2-.1v-.5h.6v-.3l-.3-.3.3-.3h.3l.9.9v.2l-.3.1h-.4l.6.5.2.3h-.3l-.1-.2v.4l.3.2.5.4-.3.2-.8.2h-.3l.3.8.5.3h.4l.5-.7h-.1v-.2h.2l.1-.2v-.2l.4-.1h.3l-.5.5.2.2h-.2l-.2.3v.2h.2l-.1.3h-.3l-.1.2v.5l-.1.4.2.2v.2l.1.1h.1l.4.1v.4l.2.7v.2l.3.1v-.2l-.1-.2h.3l.1.2.2.2v.9l.1.2h-.2c0 .1-.2 0-.2 0v-.6l-.2-.2h-.2l-.4-.3h-.2c0-.1-.8 0-.8 0v.2h.2v.4l-.1.1v.3l-.2.2v.8l-.3.1.5.6.9-.2 1.7-.9h2.3l.5.2h.1l.1-.2h.2v.2l-.1.2-.2.2h-.1l.3.3h.2l-.6.5-.2.3v.4h-.2l-.1.1h-.1l.7.4h.3v.3l-3.1.6h-.2l-.3-.4H13l-.2.2h-.2l-.4.2h-.4l-.7.2v1.1l-.3.5v.6a5 5 0 0 0 .2 1.2l1.3.9.7.3h1.5v.2h-1.3l-.8-.3-.4-.2h-.1l-.3-.1-.5.4H9.3l-.6.2.2.3 1 .7h-.1l-.3.4-.3-.3-.7-.3h-.8v.4l-.5.1h-.4l-.3-.1-.4.3v.2h.3l.5-.2.2.2v.3l.2.3v.2l.4.4.6.3h.6l.3.1v.3h-.4l-.4-.3H8v.2l.2.2h.2l.2.1v.2l-.3.3H7.1l-.3.2v.3l-.3.5H7v-.2l.2.3h1.1c0-.1.2 0 .2 0l.2.2v.2l.2.3h.2l.9.1h.3l.2-.1h.1v-1l.2-.2h.3l.2.2h.1l.1-.2.2-.2h.2l-.2.3-.3.2v.6h.5v-.3l.4-.3h.1l.3-.1v.2l-.4.2v.2h.6v.2l-.2.2-.7.5h-.7l-.1.2v.5l-.2.4.2.3.8-.2.3.3.3.3h.2l.8-.3.3-.4.4-.7.2-.4v-.3h.3l.2-.3h.1l.1-.1h.1l.1.2v.2l-.2.5v.5l.2.3h.3l.2-.5v-.5l-.3-.3.3-.2h.9l-.6.3-.2.2.7.7h-.1v.2l-.2.2-.1.1-.2-.2H16l-.3.3v1.2l-.2.6v.2l.3.3h.2l.2-.4v-.6l.3-.5h.3v.3l-.2.5.2.3v.2l.3.3.4.2h1l.3-.3.5-.3 5.4-.4.6-.3h1.6v.2h-.2l-.4.3h-.2v.3h.5v.2h-.3l-.8.2-.3.2h.2l1.8.1h.3l.2-.1-.5.4-.3.3-.2.4v.2l.2.2v.6l-.1-.1h-.2l-.2-.3-.2-.2v-.3c.1 0 0 0 0 0H26l-.2.3h-.2l-.4-.2v.2l.7.4v.2h-.3l-.5-.5h-1.3v.2l.8.2.2.3v.4l-.4-.2H24l-.3.3H23l-.8-.8-.4-.2h-.4l-.2.6-.3.6-.2.5-.4.4-.9 1.7v.2l-.1.1v.2l-.6.8-.2.3-.5.5h.5l1.3.1h.3l-.2.6-1 1v.4l-.1.2h-.1l-.1.3v.4l-.3.3v.2l-.3.2h-.2l.1.3v.2h-.1v.2c.1 0 0 .2 0 .2v.6l-.3.1h-.2l-.3.2h-.7c0-.1-.2 0-.2 0h-.2l-.2.3h-.2l.1.4-3.3 3.3-.9.3-.7.5h-.3v.3l3-.4.4-.4h.1l.2.2h.1l.1-.4v-.4l.5-.1.7-.2 1.3-.6v-.2l-.2-.2h-.1l-.2-.1v-.2h.8l-.1.5.2.3h.6l.1.2.2.3h.3l.4.2h.8l1.2-.5.5-.3v.4l-.2.3-.4.2-.3.3h.2l.2.2h.4l.2-.2.3-.3 1.5-.3.3-.2 1.5-2 .5-1v-.4l.5-.3.5-.3h.4c0-.1-.1 0-.1 0l-.2.4v.2l.1.1v.9l.1.1-.2.2v.2h.2l.3.2 1.1-.2h.5l1.1.6h.3l-.6.2-2.9.4h-.1l-.2.3v.2l-.2.2h-.2l-.4.2h-.3l-.1-.4-.3.2-2 .7-.3.2-.2.2H22l-.6.2h-1.2l-.2.1h-1.3l-.2-.1h-.1l-.1.3h-.1l-.2.1h-.2l-.1-.2h-1.3l-.7-.2h-.2l-.1.2h-.1c0 .1-.1 0-.1 0l-.4.5v.7h-.2v.5l.1.2v.2h.5l.2.2v.4l-.3-.2h-.4l-.4-.1-.3.2-.3.3-.2.2-1.6.8h-1.2l-.3.2-.2.3.3.3.4.2.9.2.3.3v1.8h-.4l-.2.1v.2h.2l.1.1h.2l-.2.2h-.4l-.2-.3v.3l.1.2v.2l.2.1.3-.2h.2l.6.4h.7l.3.3-1.2.2-.3-.2h.1l.2-.1h-.3c0-.1-.1 0-.1 0l-.4.4-.2.2h-.7l-.6-.2-.5-.2h-.3l-.2-.2v-1.4h-.2l-.5-.1.4.5-.2.6-.4.5-.5.2-1.1.2.2-1.2-.3-.2-1.7.5h-.2l-.4.7-.2.2h-.3l-.2.1h-.2l-.2.5v1h-.2c0 .1-.2 0-.2 0l-.4-.3v-.3l-.2.1-.3.2-.2.2.2.2v.2l-.4.3H.5l.1.6v.5l.2.3.4.2h.3l.7-.4h.4-.2v-.4h.4l.8.3H4v-.1h-.2l-.2-.2h-.2v-.2h.5l.2-.1.4.5h.2v-.3l.2.1.2.3h.2l.3-.1 2.3-.6h.7l.2.2.2.2v.4l.2-.1v-.8l3.3-.2-.6.3h.1l.1.3h.1l-1.2.3h-.5l-.5-.4-.4 1.6v.3h-.4v-.3l-.1-.4h-.2l-.3.9-.7.4-1.6.3-1 .5-.5.3h-.4l-.4.3.2.4H4l-.5.3h-.2v.3h.4v.3l.3.3h.2v.6H4l-.3.1-1.4.5h-.5v.2H2v.2h-.1v.2H2v.5h.7v.4l-.2.8v.3h.3l.5-.6h.2l.2-.3.5-.6.2-.2.6.4.3.7v.6l-.8.2 1.6.8v.3h.3l.4-.4.5-.3.3-.4.4.2.4-.2.7-.5h.2l.4-.2h.2v-.2l.2-.1h.1l.2-.1v.6c-.1 0 0-.1 0-.1l.5-.3v-.2l.2-.1h.5v-.2l.3-.1.3-.2 1.7-.7 1.2-.2v.2l-.5.2-1 .6h-.5l-.6.1h-.1l-.2.5-.3.2-.4.5h-.2v.3l.3.2h.1v.2h-.9l-.2-.2v.4l-.3.3-.2.2h-.3.1l.1-.4c0-.1-.4 0-.4 0l-.6.3-.5.4-.3.5h.7v.2l-.8.7-.4.2h-1l-.2.3H7v.8h-.3l-1.1.5v.5h-.2l.2.3.2-.3.4-.2H7l.2-.1.3.2h.2l.4-.3 1-.4h.2v-.4l.3-.2.6-.3 2.1-.3.6-.2 1.1-.2h.3l.4-.3.4-.5h.3l.3-.2-.2-.3v-.8h.3l.1.2h.1l.1.3v.3l-.1.1h.2l.4.3h.3l.3-.2h.2v.3h-.1v.2h-.1l-.1.6-.4.2h-.6l-.7.5h-.5l-.2.4-2.1 1.1-.6.2-.2.3v.2l-.3.2h-.1l-.7.5h1l3.2-1.7h.8l-.3.3-.6.2-.4.3-.7.8-.3.3-.3.2h-.6l-.3.3-.6.6-.3.2-.4.2v.2l.2.1h.2v.2h-.1v.6c-.1 0 0-.2 0-.2v.2l.5-.5h.2v.3a11 11 0 0 1 1.1-.6h-.1l-.2-.2 1-.8v-.2l.3.1.2.3v.3h.5l.3-.4h.5v-.4h.1l1.1-.3.5-.3v-.3l.1-.1h.3l.3.2v.2c.1 0 0 .4 0 .4v.3l-.1.2.2.3.3-.3.2-.2v-.2l.6-.3h.1c0-.1.1 0 .1 0h.1l-.3.3-.4.2v.3l-.3.4h.3l.2-.2v.3l-.2.1-.2.2h-.2l.6.1h.2l.2-.3h.1c0-.1.2 0 .2 0h.1v-.3l.4-.3h.1v.4l.1.2h.2l.1-.1h.2l.2.1v-.2l.2-.2v-.2h.3v-.4h.1c0-.1.4 0 .4 0h.3l.2-.2.3-.2v-.3l-.1-.1v-.3h.2l.3.3h.3l.9-.1.2-.2h.4l.3.3h.2v.4l.3.1v-.3l.1-.1.6-.2.2-.3.2-.5.2-.3.3.2h.2l.2-.1h.2l.6.1h.1l.1.3h.2c0 .1.1 0 .1 0h.6l-.1-.3v-.2l.2-.2.2-.2h-.4l.1-.2h.1v-.3h-.9l-.2-.4 2 .2.8-.2h.3l.2.2.2.5.3.2v-.3l-.2-.4v-.3l.2-.8h.3v-.6h-.2v.2H32l-.2-.2.8-.1.3.2.2.5h.2v-.8H33l.2-.1c0-.1.2 0 .2 0l.3.2v.3l.3-.3h.2l.6-.3.5-.2v-.3l.7-.6v-.7l.3-.5h-.6v-.2h.2l-.2-.2v-.4h-.8l.3-.8-.4-.3-.7-.2-.5-.2.3-.2h1.3l.3-.2h.3l.2.1.6.1h.4l.2.2v-.2h.3v.2h-.2v.6l-.2.4-.3.2h-.2l-.2.1v.3l-.2.1v.5l1.9.1.6-.4 1.3-.2.2-.2-.3-.4.3-.3.8-.4h.7l.4-.3.2-.3h-.2l-.5-.5h.3l.3-.2.3-.3.2-.3v-1.1l.3.2v.6l1.8.2v-.8l.5-.2h.9l.3-.1.2-.1v-1.1l.6-.4v-.3l-.5-.4h-.5l-.2.2v-.8l.4-.2h.3v.3h.2l.3.1v-.3l.6-.2 1.2-.6 3.2-.4.6.2h.3l.3-.2v-.5h.7l.2.2v-.6h.5l.3.2-.4.6v.3h.2l1.1-.1.3-.3.5-.7.3-.2v-.2h-.4v-1.2l-.3-.4v-1.2.3l.3.9h.2l.2.2.2.3v.2l.2.2.3 1.1v.3l-.2.2h-.2l-.2.3v.5l.4-.2.2-.4 1.2-.9v-.4h-.2v-.7l-.2.2v-.8l.4.2h.4l.2-.4.2-.3v.4l-.2.4-.2.2h-.2v.3h.3l1.1-.1 1.3.4h.3l.4.6h.3l.7-.4h.8l.3-.3h.2l.2.2h-.4l.8.1.3-.2v-.2h.2l.2-.1v.5H66v.3h.2l.3.1.2-.2.2-.3.5-1.2-.9-.8-.3-.6.2-.6v-.2l-.4.7-.2.2v-.3l-.2-.2h-.5v-.8l-.3-.3-.3-.2h-.2v-.4h.3v-.2.5h1.3v.2l.2.2v-1.8l.5-.7.3-.3.2-.2.3-.4 1-1.6.3-.5v-1.6l-.2-.8v-.9l.8-1.4.4-.8v-.7l.3-1.3.2-.4.2-.2.7-.7-.2-.2.6-1.3.2-.2v-.2l.2-.5.3-.2v-.2l-.8-.8-.2-.4v-.5l.2-.4v-2l-.5-1.2-.3-.3.2-.5v-.3l-.3-.3-.2-.3V231h-.2v-.2h-.2l-.4-.2-.3-.2-.3-.5-.4-.4v-.6l.9-.7h.2l.2-.2h.3l.2.3.3.2.2.2h.2l.2-.5-.3-.2h-.7l-.3-.2v-.3l-.2-.3v-.6l-1.2-.6.3-.2h.6v.2l.3-.2.2-.5v-.6l.4-.5v-.8l-.2-.4v-.2l-.4-.3-.5-.2-.5-.3-.3-.7-.4-.3-.2-.2v-.3l-.2-.4v-.4l-.2-2v-.7l.4-.4-.3-.3-.2-.5v-.4l.2-.6v-.2h-1.2l-.6-.4-.4-.5v-1.9l.2-.5.2-.3v-.7l.8.2 1.2.5h.5l.4.3h.7l.5-.6v-.4l-.3-.5h-.2l-.4-.1-.2-.5-.3-.3-1-1v-.2l.4.2h.5l.5.2v.5h.4l1.2.5-.3.2v.2l.3.2h1.1l.7-.7.5-.5.7-.4.3-.4.2-.4v-.6l.2-.6v-2h.5l.3-.1.7-.3h1.7l.2.2v.2h.4v-.7h.4l.5-.6.5-.6.2-.9-.2-1-.5-.6-.7.2-.7.5-.7.2.2-.3.6-.5v-.2l.6-1.5-.2-.2v-.2c0-.2-.2-.3-.2-.3v-.2l-.2-.3v-.4l-.4-.3.4-.2h.3l-.2-.3h-.8v-.2l-.2-.2h-.2l.2-.4v-.8h.5l.4.3 1.2 1.1.3.5.2.7v1.3l-.4.5v1l.3.3h.2v.6l.2.4.2.2h.2l.2-.4h.3l-.3-.5v-.2l.3-.2.2-.2v-1l.2-.3.3-.5v-.9l-.5-.9v-.4l-.2-1.1v-.3H80l-.2-.5-.2-1.1v-.7h-.4l-.2-.5-2 .2h-.3l-.3-.2h-.6l-.6.5-.6.3v.2l-.5.6h-.2v.5h-.3v-.7l-.2-.2.6-1.1.3-.4.4-.4.5-.3 1-.3.4-.2.4-.4.3-.7v-.8l-.2-.9-.3-.5-.5-.4-.5-.2-.3.5 1.1 1.2.3.6-.4-.6-.5-.2-.4-.3-.2-.8v-.4l-.2-.4v-.3l-.3-.2-.3-.4v-.8l-.2-.2-.3-.5-.4-.4-.4-.2h-.5v-.3l.3-1.1v-.8h-.2l-.2-.3h-.9v-.3l.2-.6v-2.4l-.8-.7v-.3l-.4-.2h-.9l-.7.2h-.6l-1.6-.9h-.4l-.7.3h-.4l-.6-.5h-.3l-.4.2-.3.3-.3.4-.3.2h-1.1l-1.9 1h-2.1c0 .1-.4 0-.4 0l-.7-.5h-.3v.4l-.2 1.3-.2.3v.2l-.3.5-.2.5v.4l-.2.2-.4.5h-.2l-.5.2H54l-.7-.5H53l-.6.2-.3-.6c0 .1 0 0 0 0l.3-.5.2-.5.7-1 .3-.2.4-.2.6-.3.5-.5.6-.4.5-.2h.5l.5-.4v-.6l-.2-.5-.4.2-.3-.3-.8-.3h-.6l-.8-.5-.3-.2-.8-1.3-.3-.2-.6-.4h-.3l-1.1-.4-.6-.4h-.5 1.9-.2l-.1.1Z" opacity=".1" style="isolation:isolate"/><path fill="#fff" d="M80 204v.2h.4v-.7h.4l.5-.6.5-.6.2-.8-.2-1.1-.5-.6-.7.2-.7.5-.7.3.2-.3.6-.5v-.3l.6-1.5-.2-.2v-.2l.2-.2h-.3v-1l-.4-.3.4-.2h.3l-.2-.2h-.6l-.2-.2-.2-.2h-.2v-.2l.3-.3v-.7h.5l.4.3 1.2 1.1.3.5.2.6v1.4l-.4.4-.2.4v.3l.2.3.2.3h.2v.6l.2.4.2.3h.2l.2-.5h.3l-.3-.5v-.2l.3-.2.2-.2v-.9l.2-.4.3-.5v-.9l-.5-.9v-.4l-.2-1.1v-.2l-.4-.2-.2-.4-.2-1v-.8h-.2l-.2-.5-2 .3h-.4l-.2-.3h-.6l-.6.4-.6.3-.2.2-.3.6-.2.2v.2h-.2l-.2.1v-.7h-.3l.6-1.2.4-.5.4-.4.5-.2.9-.3.5-.3.4-.4.2-.6V187l-.3-.4-.5-.5h-.5l-.3.4 1.1 1.1.3.6-.4-.6-.5-.2-.4-.2-.2-.8v-.5l-.2-.3v-.3l-.3-.2v-.2l-.4-.2v-.8l-.2-.2-.3-.5-.4-.4-.5-.2h-.4v-.3l.3-1.1v-.8l-.2-.2h-.2l-.9-.1v-1.4l.2-1.6-.2-.3-.6-.7-.2-.3-.3-.2H73c0-.1-.4 0-.4 0l-.6.2h-.4c0 .1-.2 0-.2 0l-1.7-.9h-.4l-.6.3h-.4l-.6-.5h-.4l-.3.2-.4.3-.2.4-.3.2H65l-1.9 1h-2.5l-.7-.5h-.3v.4l-.2 1.3-.2.3-.2.2-.2.5v.9l-.3.2-.3.4-.2.2h-1.2l-.7-.4h-.3l-.7.2h-.3l.2-.6h-.2l-.2.2-.2.4-1.1.3-.2.3-.5.8v1.5l-.2.2h-.3l-.2.3v1.4l-.2.6-.3.5-1.2 1.6v1.3l-.2.2h-1.9l-.5.6-.6.3h-.6l-.5-.2-.5-.4h-.2l-.6.5-.8.4.3.3-.2.5.2.3h.2l.3.2h.2v.5h.8l.6.6h.5l.2-.2h.2v.6l-.6.2-1.7 1.6-.6.3h-.7l-1.2-.3-.4.4-.3.5-.2.4-.2.3-.4.2-.9.3-.4.2.2.2v.5l.2.2.4.4.7 1 .4.4.4.3h.5l.3.9.2.4.3.3h.3l.7.2.2.2v.5l.2 1.2.2.5.3.2h2.2l1.2 1v.2l.2.2v.3h.2l1.8.5h.4l.6-.6h.5l-.2.3h.3l.2.3.3.1.8.2h.3l-.4-.8v-.2l.5-.4v1.1c0 .1.2 0 .2 0l.2-.2v-.8l.3-.2v-1h.2l1-.4.3-.2v-.8l-.5-.5v-.4l-.4-.3v-1.2h.5l.5-.4.9-1.3.4-.5h.6l.5.3 1.1.9v.6h.2l.2.1.3 1.1v.7l-.4.2.6.3.2.2v.5l.2.3.3.4.3.4.4.3.3.2h.2c0 .1 0 0 0 0l.2-.2.2-.1h.2l.4.4.4.5v1l-.5.5.2.3v.4l-.3.6.3.2.4.6h.2l.2-.2.3-.1 1.4-.4h.5c0-.1 0 0 0 0v.2c0 .1.4 0 .4 0h.5v-1l.2-.4.2.2.2.2h.2l.2-.2h.3l.2.2v-.2l.5.2h.9l.2.7h.2l1.3.5-.4.2.3.4h1l.2-.2.7-.5.5-.6.7-.3.3-.4.2-.4v-.6l.2-.6v-2h.5l.3-.1.7-.3H79l.2.2h.7v-.2h.1Z"/><path fill="#76bd22" d="M104.4 119.5a9.5 9.5 0 0 0-9.7 9.4c0 9 9.6 20.6 9.6 20.6s9.7-11.7 9.7-20.6c0-5.3-4.3-9.4-9.6-9.4Zm0 13.7c-2.7 0-4.8-2.2-4.8-5s2.2-5 4.8-5 4.8 2.2 4.8 5-2.2 5-4.8 5Z"/></g></svg>