<?xml version="1.0" encoding="UTF-8"?>
<svg id="Layer_1" xmlns="http://www.w3.org/2000/svg" version="1.1" viewBox="0 0 205 320.5">
  <!-- Generator: Adobe Illustrator 29.4.0, SVG Export Plug-In . SVG Version: 2.1.0 Build 152)  -->
  <defs>
    <style>
      .st0 {
        fill: #76bd22;
      }

      .st1, .st2 {
        fill: #fff;
      }

      .st3 {
        opacity: .9;
      }

      .st2 {
        isolation: isolate;
        opacity: .1;
      }
    </style>
  </defs>
  <path class="st1" d="M63.5,111.2l1.6.5.2-.2v-1.3l.2-.2h.2l.2-.3v-.4l.3.3v.8h0l.4-.5h.2v.6h0v.2h0v.2h0l.3.2h.2v.3l-.3.2h.2l.4-.2h.5l.2.4,1,.9.3.4h-.5l-.3-.5-.3-.3-.3-.3h-.7l-.8.5v.3h0v.2h0v.3h.2l.7,1.1h1.1v.2l-.2.2h-.2l-.2.2.3.5.3.5.2-.2h.3l.3-.2h.3v.2l-.5.7-.2.2v.2l2.4-.6.3-.2-.3-.3v-.2h.4v.2h.4v-.2h0l.2.2v1.1l.2.6.2.2h.2l.2-.4v-.4l.3-.2v-.6l.3-.5-.2-.5v-.2l-.2-.3h.2l.2.3.4.7v.6h1.9l.4-.4v.3l-1.6.8-.2.2v.2l-.4.6h0v.5h0v.7l-.4.6v1h1.1l.3-.2.3-.3,1-1.4v-.2l.3-.2.3-.2.4-.3v-.4l.2-.7v-.2h.8l.2-.2.6-.5.4-.5v-1l.2-.8h-1.2l-.3-.4h-.5l-.4.2-.5.5h-.7v.2l-.2.2h-.3v-.2l-.2-.3-.2-.3h-.9v-.2l-.4-.4h-.3l-.4.2h-.4l.4-.2.2-.3v-.2l-.5-.2-1.4.2.2-.2.6-.3v-.5l-.3-.2-.2-.4v-.7l.2-.2v-.6h-.5l-.3.2-.2.2.2-.3.4-.4v-.7l.2-.7v-.9l-.2-.9v-2.2l-.2-.2-.2-.3-.3-.4-.7-.7h0l-.4-.8v-.2l-.5-.4-.2-.2v-.3h-.6v.4l-.3.4h0l-.6.5h0v.8h.3v.9h.6l-.2.7-.2.3v.3l.2.6.6.7.2.4v.6l.2.2h0v.3l-1.3-1.7h-.2l-.2.5-.4.4h0l.3-.9h-.7l-.2-.2-.2-.3-.2-.2-.8-.4h0l-.2-.3v-.7l-.5-.3-.2-.3-.2-.2h-.3v.2l.2.3v.4l-.3.5-.2.3h.4l.6.5.4.4v.6l-.4-.2h-.3l-.2.2v.2l.2.2h0v.2l.2.4h0v.8h0l-.3-.2v-.2l-.3-.3-.8-1.3h-.4l-.2.3v.8l.2.3.2.3h-1l.2.7.6.5.2.8v.4l.4.4.4.3h0l-.7.8ZM71.8,149.1v.2l-.4-.2v.2h-.2c0,.1-.3.6-.3.6l-.2.3v.4l-.2.4-.2.2.3.2h.9c0-.1.3-.4.3-.4v-.5l.2-.6.5-.9v-.4h-.5c0,.1-.3.2-.3.2h0v.3h0ZM56.5,102h-.6l-.2-.2-.5.3-.3-.2.3-.2v-.5l-.2-.3h-.4l-.8.6-.4.2.3.2h0v.2h-.4l-.9-.4.2-.4h0v-.4l-.4.4-.6.7-.5.5-.3-.4.4-.2h0v-.2l-1.1.2-.4-.2-.3.5-.2.6-.3.6-.3.2v.2l.7.6h.3l.2.2h.2v-.3h.5l1,.8h.6l-.4.2h0v.2l.2.2h0v.5h0l.2.2h.9l.2.2.3-.2h1l.4-.7v-.4h0l-.3-.2h-.4l-.9.2h-1.2v-.2l.7-.6h.3v.5h0l.3-.2h1.1l.4-.4.3-.7-.5.2h-.3v-.3l-.2-.4h-.5v-.6h-.3v-.3h.7l.4.4h.2v.4l.3.2h.2l.3-.6h.2l-.2-.5-.3-.2h1.3ZM58.5,99.5l.3-.4,1-.7.4-.3h0v-.2h0l.5-.4.2-.2v-.3h0v-.3h-.2v-.3l.9.6h.4-.2v-.2h.6l.3-.2v-.3h0l-.4-.7v-.2h-.7v-.6h.4l.6.2,1.3.4v-.9h-.4l-.2-.3h.2v-.2h0v-.3l-.2-.3-.2-.2h-.2l-.2-.3-.4-1-.2-.3.3-.2.5-.5.4-.5v-.5h1.6v.2h-.7l-.6.2-.4.5-.3.8v.4l.2.5.4.9v.4h.2l.2.2.5.3v-.4l-.2-.4v-.5h.2v.2l.2.4.2.4.3.2h.7v-.3h-.2v-.4h.3l.2.2h.2l.3-.2v-.2l.4-.5h.2v-.4l-.3-.3-.6-.2-.2-.2-.4-.2h0v-.3h.4l1.6.4h.4l.2-.4.3-.3.3-.4h-.6l-.2-.2h.2v-.2h.2v-.2h-.2v-.8l-.2-.3-.2-.2h-.3l-.5.4-2.1.5h-.7v-.2h.3l.9-.2.4-.5h.2l.2.2h.4l.6-.7.8-.2.3-.2v-.3h0v-.3h0v-.5l-.4-1.1h.2l.5.3h1.3l.5.5h.3l.3-.2h0c0,0,.2-.4.2-.4h0v-.2l.5-.2v-.8h.2v-.4h-.3l-.3.3-.8.9-.5.2h-.6l-.6-.2-.4-.5h.7v-1l.5-.2.2-.4h.2l.2-.2h0v-.6l.2-.3.7-.6h.4v-.4h-.5l-.2-.2v-.2l.2-1.3.2-.2.3-.2v-.3l-.4-.5v-.5l-.3-.6-.3-.6-.3-.4h-.4l-.5.5-.8,1-3,2.4-.4.5v.2l-1.2.5-.4.2h-.8v.2h-.2l-.3.5-1.4,1.2h.3v.4h0v.2h0v.4l.2.3h0v.4h.4v.2l.2.5v.2l.2.2.4.2-.4.7-.2-.5-.4-.4-.5-.2h-.2l-.2.2-.8.2v.6h-.3v.3l.4.6v1l-.2-.3-.3-.6v-1.1l-.2-.3-.4-.5v-.4h.4v-.2l-.9-.5v.2h-.3l-.6-.3-.3-.2-.3.4v1h.2l.5.2-.4.2h-1.2v.3h.2v.4h0v.3l-.2.3v.6h.2v.6h0l.5,1.1h0l.8-.5v.2l-.2.2v.2h-.3.5v.2h-.4v.4h.5l1.6-.4-1.1.5-.5.2h-.5v.3h0v.3h-.6v.3l-.4.2.8.6h0l.2-.2.2.5.4.2h1.2l.5.5h1.1v.2h0l-.3.3h0v.2h-1l-.8.6v.2l.8.7h-1.2l-.2.4-1.4,1.3v-.7h-.7v.5l.2.2h.2l1,1.4h0l.9,1.1h0s0,0,0,0l.5-.7ZM56.7,94.9h.3v-.2l.2-.2v-.3l.6.4h.2v-.8l-.3-.2h-.4l-.7.8h0v.5h.1ZM79.4,146.7l-.3.3-.2.5h.4l.6-.2.3-.3v-.5l-.2-.2s-.6.4-.6.4ZM80.5,145.4l-.2.3.3.8.2.2.2-1v-.4l.3-.4v-.5l-.2.2h0v-.2l-.2.3-.2.7h-.2ZM81.6,142.9v-.3h0c0,.1-.4.1-.4.1,0-.1-.2,0-.2,0l-.2.6v.5l.4.2.3-.3v-.6l.2-.3h-.1ZM73.8,133.2l-.8-.4h-.2c0-.1-.6-.1-.6-.1l-.6.2-.5.4v.6h-.2c0,.1-.3.1-.3.1v-.3l-.3.2-.3.2h-.6v.4l.5.4v.2l-.7.6.2.3.3.2h.3c0,.1,1.6.4,1.6.4l.3.2.2.2.2.3.3.6v.2h.3v-.3h.4l1.1-.6v.2l.2.2v.6l-.3.2-1,.5h-.6c0-.1-.2,0-.2,0v.2l-.2.2v.2l-.3.6v.2h-.5c0,.1-.2.3-.2.3v.7l.4.2h.4c0,.1.8,0,.8,0l1-.6h.3c0-.1,0,0,0,0l-.3.3-.8.6-1.1.2-.3.3h-.3c0,.1-.7,0-.7,0l-.3.2h0v.4l-.3.2-.2-.3-.2-.4-.3-.3h-.3c0-.1-.4,0-.4,0l-.4.3-.2.4v.5l.4.5.3.3.4.3h.4c0,.1.2.1.2.1h.2v-.5h.2c0-.1,1.7-.1,1.7-.1,0-.1.4-.3.4-.3h0c0-.1.2,0,.2,0h.2c0,.1.3.2.3.2v-.2l.4-.3,1.4-.7h.5c0-.1.2-.2.2-.2v-.2l.2-.2h0c0-.1.4-.3.4-.3h.2v.4l-.2.3v.2h-.2c0,.1.5.4.5.4h.6c0-.1,1.5-1.1,1.5-1.1l.3-.4v-.5h-.7c0,.1-.3.3-.3.3l-.2.2v-.3l.5-.4.2-.4v-.4h.3v.5h.2c0,.1.6.1.6.1l.2-.2-.2-.4-.2-.4v-.2h.2v.2-.6h0c0-.1-.4-.1-.4-.1v-.4l-.3-.3-.2-.3-.2-.2h-.4c0,.1-.2,0-.2,0h0c0-.1-.4-.7-.4-.7h0c0-.1-.3-.1-.3-.1l-.3.2h0v-.3h-.2c0-.1-1.6-.1-1.6-.1h-.2v-.6l-.7-1.7-.4-.6h-.5v-.5h.7ZM62,135.9l-.9.3h-.4c0,.1-.6.5-.6.5h-.4c0,.1-1.1.3-1.1.3l-.4.2.2.5v.5l.2.3,1.1.5h.3v-.5l.2-.6h.4c0-.1.4-.2.4-.2l.3-.3v-.5h1c0-.1.3-.5.3-.5l-.2-.5s-.4,0-.4,0ZM73.6,111.6v.3l.2.2h.3l.3-.3h.2l.3-.3v-.6l-.3-.5v-1.1l.2-1.1.3-.9v-.7h0l-.2-.2h0l.2.4v.2l-.3-.2h-.2l-.2.2.2.4h0v.5h-.5l-.3.3v.5l-.2,2v.5l.2.3h-.2ZM60.4,84.1v.2h-.2v.2h1.3v-.5l-.3-.2v-.2h-.3l-.5-.6h-.3v.6l.2.3h.2v.2ZM75.3,106.2v-.5l.2-1.2v-.2h-.2v.2l-.3.2h0v.2l-.2.4v.7l.3.2h.2ZM74.9,112.1l-.4.3v.4l.5.4.4.2.6-.2v-.5l-.5-.5s-.6,0-.6-.1ZM51.6,122.3v-.5h-.3l-.5-.3h0l.2-.7h0v-.2h0l-.2.8-.3.2h-.4l-.4.4.2.2v.7h-.2l-.3.2-.2.3v.3h.2l1.1.3h.3l.2-.2.2-.2v-.2h0l.2-.3v-.2h.7v-.3h0l-.5-.3ZM55.2,100l.3-.3v-.4h-.4l-.8.8h.4l.5-.2h0ZM54.3,112.6v-.3l-.3-.2h-1l-.2-.5h0l-.4-.2h-.2v-.4h0v-.4h-.2l.4-.2.3.3.3.5.7.4.3.4h.8v-.2h-.3l-.5-.6h-.4v-.3l.3.2h0l.2-.2-1.5-1h-.2l-.8.4-.3.2.5,1.4.2.9-.2.5h-.2v.8l-.3.6v.2l-.3.3h.2l.2.2.2.4v1.1l.4,1.6.2.3.5.6.5-.3,1.4.2.4-.4v-.2h-.4l-.2-.2-.2-.4-.3-.2h-1.1v-.2h1l.2.2.2-.4v-1.2l-.2-.5-.3-.3-1-.3v-.2l1.3.3h.3v-.4l.2-.6v-.3l.3-.2h.2v-.8h-.2l-.2-.2h0l-.3-.2ZM53.7,107.2h-.4v-.3l-.2.2h-.4l-.2-.2h-.4l-.3.3-.3.5v.6l.2.4,1.3.8h.4l1.4-.4v-.4h-.7v-.4h.3l.4-.4.2.2v-.2l-.4-.4h-.6v-.4h-.3ZM74.2,161v-.6l-.2-.2h0v-.9h0v-.2l-.3-.3-.2-.3v-.3l-.2-.9-.2-1.6v-1.5h0c0-.1-.2-.1-.2-.1h0c0,.1-.3.3-.3.3l-.2.2h-.2c0,.1-.3.2-.3.2l-.4.6-.6.3-.5.6-.4.6.2.6v.2h-.2l-.2-.3v-.7l.2-.8v-.2h0c0-.1-.2-.1-.2-.1,0,.1-.2.4-.2.4l-.9.4-.6.4v1.4l-.2.2h-.2c0,.1.6.5.6.5l-.8,1.2-.2.4h0v.2h0c0,.1-.2.6-.2.6v.5l.2.3h.4c0-.1.2-.4.2-.4l.6-.8.5-.3.2-.5.4-1,.4-.3h.4c0-.1.5,0,.5,0h.4c0,.1-.8.9-.8.9l-.4.5v.6h0l.6.3.2.3.4,1-.9.5-.4.4v.7l.2.7h.4c0,.1.4,0,.4,0l.4-.4.2-.2h0c0-.1.2-.7.2-.7h.2c0-.1.7,0,.7,0l.5-.2.4-.2.4-.4.3-.4v.2l.2-.2v-.2h.3c0-.1.2-.1.2-.1v-.6l-.2-.3h-.6ZM85.8,269.7v-.4h0v-.2h0v.3h0v.3h.2c0,.1,0,0,0,0h-.2ZM96.5,275.7h0c0,.1.2.1.2.1v-.2h-.2c0-.1-.3-.2-.3-.2h0v.2h0q0,.1,0,.1h.2ZM86.6,273.1h0l.2-.2h-.2l-.2-.2h-.2v.2h0v.2h0c0,.1.2,0,.2,0h.2ZM86,161.1l-.5.4-.4.7-.2.6v1.7l.3.6.4.5v.2h0v.7l.3.7v.4l.7.6.7.5.7.2h.9c0,.1.8,0,.8,0l.4-.2.2-.3v-.4l-.2-.5v-.4l.4-.3-.7-.3h-.2v-.5h0c0-.1.3-.1.3-.1h0v-.7l-.7-.8v-.4l-.2-1.4-.2-.7-.4-.5-.3-.3-1-.6h-.6v.4h0c0,.1-.6.2-.6.2h0ZM91.2,159.2v-1.5l-.3-.4-.2-.4h0c0-.1-.2-.2-.2-.2h0v-.8h0c0-.1-.2-.1-.2-.1h0c0-.1-.5-.7-.5-.7l-.5-.4-.6.3v.4l.2.5v.5l.2.2.6.4v.4l.2.8.2.5,1.1,1.1.2.5.2.2h.3v-.4l-.2-.2h0v-.7h-.5ZM102.3,198.6h-.3c0-.1-.3,0-.3,0l-.3.2h-.6c0,.1-.9.6-.9.6l-.6.6-.4.8-.8,1.8-.2.3-.5.4-.3.5-.4.3h-.4v.6l-.2.5v1.2l-.2.5-.5.8v.5h0v.4h.4c0,.1.4,0,.4,0l.3-.3.4-.2h.2c0,.1.3.5.3.5h.3c0,.1.2,0,.2,0h.2c0-.1.2,0,.2,0v.3l.3-.8.2-.2h.2c0-.1.2-.1.2-.1h.3v-.4l.2-.3.9-.6v-.3l.5-.5.6-.3.3-.4v-.8l.3-.2v-.2l.2-.2v-.2l.2-.3h0l.3-.5h0v-.7l-.2-.2h0c0-.1-.3-.1-.3-.1h0v-.8l-.2-.2v-.4l.3-1v-.5s0,0,0,0h-.4ZM70.6,121.3l-.4-.4-.9-.6h-.6l-.5.5-1,1.2.3.2.5.5h.2l.3.3.3.7.3.2h.6l.4-.3.4-.7.2-1.1h-.4v-.2s.3-.3.3-.3ZM103.5,227.3v-.2l-.8-.3h-.3l-1.2-.2h-.2l-2.1.7-.3.2.2.4v2.9l.3.4.6,1.1.3.3v.9h.2c0-.1.6.4.6.4h0c0,.1.2,0,.2,0l.4-.5h.2c0-.1.2,0,.2,0v.2l-.3.3h0v.9h.4v-.2l.4.2h.4l1.1-.7.2-.3.6-.4h0v-.6h.2c0-.1.3-.5.3-.5l.4-.3.4-.2h.4c0-.1.4-.3.4-.3l.6-1.1.3-.4h-.2c0-.1-.2-.2-.2-.2h-.8v-.2h0v.4h-.3c0,.1-.4.2-.4.2h-.5v-.8l-.3-.3h0v-.6h0l-.2-.2h-.2v-.2h0v-.8h-1ZM82.5,140.6l.3-.4.3-.5-.2.2h-.8l-.2.4h0v.4h.8c0-.1-.2,0-.2,0ZM98.5,230.9v-.4l-.2-.3-.2-.3-.3-.3h0c0-.1-.3,0-.3,0h-.2c0-.1-.2-.2-.2-.2l-.4.4v.2l.2.5h0c0,.1.5,0,.5,0h.2v.3l.4.6.3.3h.2c0,.1,0,0,0,0v-.7h-.2c0-.1.2-.1.2-.1ZM204.1,251.3v-2c-.1,0,0-.5,0-.5l-.3-.8-.3-.8-.3-1.3-.4-.7-.5-.6-4.1-3.2-2-1-5.2-1.3v.2h.6c0,.1.2.2.2.2l-.7.4-.8-.2-.8-.4-.6-.2h-1.8l-.4-.2h-.4c0-.1-.3,0-.3,0v.2c.1,0-.7,0-.7,0l-.9.2-.8.4-.6.6-.2.4-.3.7-.2.8v.6c-.1,0-.3.4-.3.4l-.4.5-.4.5v.4c.1,0,.1.2.1.2h-.2c0-.1-.5-.8-.5-.8h-.3c0-.1-.6-.2-.6-.2h-.4c0,.1-.3.3-.3.3l-.4-.5-.8-1.4-.4-.2h-.3c0-.1-.4-.5-.4-.5h-.3c0-.1-.8,0-.8,0h-.5v-.4c-.1,0,.2-.4.2-.4h.2c0-.1.4-.3.4-.3l.4-.4,1.3-1.9.2-.2h.3c0-.1,1.5-1.6,1.5-1.6l.3-.2h.3c0-.1.2-.2.2-.2v-.2c.1,0,.5-1.4.5-1.4v-1.2c-.1,0-.3-1-.3-1l-1.4-3.8v-.4l-.2-.4-.3-.4-.3-.2.2-.2-.5-.4h-.3v-.9c-.1,0-.4-.3-.4-.3h-.3c0-.1-.3-.2-.3-.2l-.3-.2-1.6-1.3-.8-1h-.2c0-.1-.6-.1-.6-.1l-.3-.3-.5-.6-.7-.4-1.2-1.8-.4-.6-.4-.2-3,.6-.5.3h-.2c0,.1-.3,0-.3,0l-.2-.2-.6-.5h-.4c0-.1-.5-.1-.5-.1l-.5.2-.3.5v-.2c-.1,0-.2-.1-.2-.1h-.2c0-.1-.1-.1-.1-.1l1.1-.8h.4c0-.1.9,0,.9,0h.1c0,.1.4.5.4.5h.7c0-.1,1.3-.1,1.3-.1l2.1-.7h.8c0,.1.5.5.5.5l1.6,2.1.3.3h.4c0,.1.3.2.3.2h.5c0,.1.3,0,.3,0l.7-.4h.3c0-.1.3,0,.3,0l.8.5h.3c0,.1.3.3.3.3v.5c-.1,0-.5.9-.5.9l.4-.3h.1c0-.1.2-1.1.2-1.1l-.3-.9-3-4.4-1.7-2.8-.3-.9-.5-1.8-.4-.8.5-1.1.5-.6,1.4-.9-.6-.5-2-.8-.4-.5h-.1c0-.1-.1-.9-.1-.9v-.3c-.1,0-.5-.2-.5-.2l-.2-.2h-.2c0-.1-.7-.3-.7-.3h-.1c0-.1-.3-.6-.3-.6h-.1v-.5c.1,0,0-.1,0-.1h-.1c0-.1-.1-.3-.1-.3v-.2c-.1,0-.1-.6-.1-.6l-.2-.7-.3-.7-.2-.4-.3-.3-.5-.4-.2-.2v-.8l-.2-.4-.5-.5-3.7-2.4-3.5-1-.8-.6h-.7c0-.1-.3-.2-.3-.2l-.3-.3-.3-.3v.8c-.1,0-.2.1-.2.1h-.2c0,.1,0,0,0,0h-.1v-.3h-.1c0-.1-.1,0-.1,0h0c0,.1-.3.1-.3.1h-.1v-.3l.4-.2v-.2c.1,0,.3-.2.3-.2l-.2-.2v-.2c-.1,0-.1-.2-.1-.2v-.2c-.1,0-.2-.2-.2-.2v-.2h.3v-.2l-.8-.4-.3-.2-.6-.8-.3-.9-1-3.6v-.3h-.1v-1c-.1,0-.1-.1-.1-.1v-.2c.1,0,.1-.1.1-.1l-.2-.4-.4-.4h-.1c0-.1-.2-.3-.2-.3v-.3c-.1,0-.2-.4-.2-.4v-.2c-.1,0-.2-.3-.2-.3l-.3-.7v-.3h-.1c0-.1-.2-.2-.2-.2h-.1v-.2c-.1,0-.2-.6-.2-.6v-.7c-.1,0-.1-.2-.1-.2l-.3-.4v-.3c-.1,0,0-.3,0-.3v-.2c.1,0,.1-.3.1-.3v-.3c-.1,0-.2-.2-.2-.2v-.2c-.1,0,0-.3,0-.3l-.4-.5-.2-.3v-.3c-.1,0-.1-.2-.1-.2v-.2c-.1,0-.1-.2-.1-.2v-.2c.1,0,.1-.1.1-.1v-.2c.1,0,.1-.8.1-.8l-.4-.7v-.6c-.1,0-.1-.5-.1-.5v-.4c.1,0,.1-.3.1-.3v-2c-.1,0-.1-.4-.1-.4h-.1c0-.1-.2-.2-.2-.2h-.1c0-.1.1-.4.1-.4v-.2l-.3-.3h-.1v-.3l.2-.2-.2-.2v-.2c-.1,0-.1-.2-.1-.2v-.2c.1,0,.1-.2.1-.2l-1.2-.8h-.3c0-.1-.6,0-.6,0h-.2v-.3h.3v-.4c-.1,0-.3-.3-.3-.3h-.2c0-.1-.2-.1-.2-.1h-.1c0,.1-.1.2-.1.2v.2h-.3c0-.1-.1-.3-.1-.3v-.2c-.1,0-.4-.3-.4-.3l-.2-.3-.2-.7-2.2-2.9-.3-.4-.9-1.9-.3-.4h-.4c0-.1-.1-.2-.1-.2v-.2c-.1,0-.1-.3-.1-.3v-.2c-.1,0-.2-.1-.2-.1l-2.7-.5-.7-.4-1.1-.9-.6-.2-.7-.5-.3-.3h-.1c0,.1-.1.3-.1.3h-.1c0,.1-.3,0-.3,0h-.4c0,.1-.2,0-.2,0h.1c0-.1.1-.6.1-.6l-.3-.2-.5-.7h-.3c0-.1-2.8-.3-2.8-.3h-.3c0,.1-.5.7-.5.7l-.3.3h0v.6h-.3c0,.1-.3.4-.3.4l-.3.5-.4.3-1.2.6h-1.1c0,.1-.2.1-.2.1h0c0-.1-.3-.6-.3-.6h0c0-.1-3-.3-3-.3l-.3-.3-.2-.2h-.5c0,.1-.7.1-.7.1l-2.9-.8h-.4l-.9.2h-.2v-.4l-.2-.2h-.5c0,.1,0,0,0,0v-.2l-.7-1h0c0-.1-.2-.4-.2-.4l-1-.7h0c0-.1.4-.1.4-.1h.2c0,.1.4.6.4.6l.6.6.6.4.6.2h1.5l2.7.8h1.3c0-.1.7-.4.7-.4l.5-.4.4-.2h1.2l.2-.2.2-.4.2-1,.2-.3.3-.2h.3c0-.1.9-1.2.9-1.2l.9-.6.2-.3v-.2h.5c0-.1.8-.1.8-.1l1.1.5h.4c0,.1.3,0,.3,0l1.1-.7.8-.2.4-.2.3-.6.9-.9v-.2l-.6-.5h-.1c0-.1-.6-.6-.6-.6l-.4-.2h-1.5c0-.1-.1-.3-.1-.3h-.1c0-.1-.2-.1-.2-.1h-.2v-.6h0c0-.1-.5-.1-.5-.1l.3-.3.2-.5.2-.5v-.6c-.1,0-.3-.4-.3-.4h-.6l-.3-.3-.3-.2h-.4c0,.1-.3.3-.3.3l-.2.3v.2l-3.5,1.7h-.6c0,.1-.7.6-.7.6h-.4c0,.1-.7.1-.7.1l-.3-.2-.2-.2.8.2.7-.3,1.7-1.8.6-.4.6-.3,5-.7h.3c0,.1.1.2.1.2h.2c0-.1.3-.9.3-.9v-.2c.1,0,.8-.3.8-.3l.3-.3.3-.6,1.6-1.1.2-.3.2-.6.3-.3v-.2c.1,0,.1-.2.1-.2v-.4c-.1,0-.1-.2-.1-.2v-.5c.1,0,.4-.3.4-.3l.2-.4.2-1.3.2-.5.3-.3.3-.3.9-.6.3-.3.4-.7.4-.7.6-.4.3-.4v-.5c.1,0,.1-.2.1-.2l.3-.4v-.2c.1,0,.1-.3.1-.3v-.3h-.2v-.3l.2-1.1.5-1.1,1.5-2.4.3-.6v-.3c-.1,0-.4-.2-.4-.2v-1.2c.1,0,.5-1.6.5-1.6l1.1-2.9.4-.7,1.7-1.6v-.4c.1,0,.4-.6.4-.6l.6-.9.4-.4v-.2c.1,0,0,0,0,0v-.2c-.1,0-.1-.2-.1-.2v-.3h.3l-.5-.5v-.4c-.1,0-.1-.6-.1-.6l-.2-.5v-.5c-.1,0-.2-.6-.2-.6v-.5c-.1,0-1.5-1.6-1.5-1.6l-.2-.4h-.2l-.2-.2-.2.3h-.2l-.2-.2v-.3c-.1,0-.2-.3-.2-.3h0l-1.9-.2h-.3l-1,.9h-.7l-.8-.5h-.6v.3c-.1,0-.1.2-.1.2h-.4l-.3-.2h-.1l-.3.3h-.7v.2c-.1,0-.9-.4-.9-.4h-.5v.3h-.3l-.2-.3h-.6l-1.4-.5-.5.3-.2-.2h-.3l-.2.2h-.1l-.2-.4h-3l-1.1.9-.7.2h-.7l-2.2-.8-1.2-.8h-2.3l-.4.3h-.7v.7l-.2.4-.3.3-.2.2h-.7l-.6-.2.4.8h-.3l-.2.2h-.2l-.2-.2h0v-.6l-.9.2-2.6,1.9-.5.2-1.6-.2-1.5.3h-.5l.7.5.2.4h-.3l-.3.2h-.2l-.3.4-.3.4h-.2l-.4.2h0v.3l-.3.3-.3.2h-.3l-.6-.2.2-.2.2-.4.3-.7h-.2l-.3-.2h-.4v-.2h1.3l-.2-.3.3-.4.3-.2h.8v-.2h0v-.3l.5-.9.5-.4.5-.6.4-.6v-.4h-.4l-.7.5-.2.2-.3.2h-.3l-.9-.2-.2-.2h-.2l-.7.4-.7.6-.7.5-.2.3-.2.3-.3.3-.2.2-.5.3h-.2v-.5l.3-.3v-.2l1.2-1.1h.2l.3-.3v-.4l.2-.4h.6l1.1-.2h.4l.2-.2,1.3-1.1.6-.3.5.5-.2.5v.3h.6l.3-.2.4-.7.4-.3,2.2-3,.2-.3v-.8h-.3l-.2.3-.5.7-.6.6-.6.2h-.6l.2-.5-.3-.4h-.5l-.9.6h-.6l-1.1-.9v.5h-.2l-.4-.2-.2-.4-.3-.3h-.4l-.7.4h-.6l-.5-.6-.9-1.3h.3l.3.4.6.8.3.2,1.4-.3h.5l.9.6h.6l.3-.5h.9l.3.2v-.7l.3-.6-.3-.6v-.2h-.9l-.3-.2v-.7l.5.3h.4l.3.2v.2h.3v-.5h.2l1.1-.9h.5l.5-.4h0v-.3l.2-.7v-.3l.4-.3,1.3-.7,3.6-3,.7-.8.3-.5.2-.5v-.3l1-.9.6-.4,1.5-.5.7-.4.6-.8.9-1.3.7-1.4v-1.1h.3l.2-.2v-.8h-.7l-.4-.2v-.9l.2-.7v-.2l.5-.4.2-.3.2-.5.2-.3v-.5l.4-.6v-.6l-.5-.3-1.1.3h-.5l-.9-.7h-.6l-1.1.4h-.7v-.7h-.7l-.4.5.2.4.3.4.3.2h.3l-.2.7h-.5l-.9-.4-1,.4h-.5l-.4-.4h0l.2-.2-.4-.2h-.5l-1.1.2-.6.3-1.2.9-.7.3-1.4.3-1.5-.3h-.3l-.3-.6h-.3l-.2.6v.3h-1.5l-.2.5h-.8v.5h-.3l.2.3h-.4l-.5-.6h-.5l-.4.2-.6.5h0l-.7.8h0v.5l-.5.7-.2.2-.3.2.3-.7.2-.7.2-.6.4-.4v-.7l-.8-.6-.7-.3-.7-.2-.4.2-.2.5v.5l-.3.6-.3.3-.3.2-.3.2v.5h-.3l-1,1.1h-.3l.2-.4.3-.6.3-.8.6-.6.2-.3v-.7h-.2l-.2-.2-.4-.4h-.3l-.5-.8-.3-.3v.8l-.2.2v1.1l-.2.3-.3.3v-.3l.2-.2v-1l-.2-.5v-.2l-.3-.4-.4-.2-2.2-.5-.2.3v.6l-.2.6v.7h0l-.2.5-.3.2-.9.6h0v1l1.8,1.6-.5-.4-.4-.2-.9.6v.2h.3v.3h-.2v.2h.5l.2-.3v.8l.6.3h-.7l-1-.6h0l-.2-.2h-.2v.6l-.2.4v.6l.2.3h-.3v.5l.2.4.4.5v.2h0l.5.9h.3l.2.2.3.3h.4v-.3h.6l1.1.3h-.3l-.4.2-.3.2.5.3.2.2.2.4-1.2-.9h-1.3l-.5-.6h-.7l-.2.4v.2l-.5-.3h-.7l-.7.5h-.5l-.7-.5h-.7v.5l.8,1.2h.2v.7h.3l.2.2v.4l.2.2h.8v.2l-.2.2h-.5l-.2.3.3.2v.2h-.2v.2l.2.3v.6h0l-.4.5h-.3l-.4-.2-.4.3-.4-.8-.6-.2-.3.5.5,1v.2h0v.3h1l.3.5h.5l.7,1h.5l.2.4h.5l.2.3.2.4v.5h-.4v.3h.4l1.6,1.6v.2l.2.2v.3l.2.3h-.4l-.5-.8-.7-.4-.6-.6h-.2v-.2l-.4-.3h-.4l-.3.2h-.2l-.4-.2-.4-.7-.4-.2v.4h-.2v.2h0v.3h0l1.1.6.7.8.5.2.2.2.3.4-1.3-.5-.5-.3-.5-.6-.2-.2-.8-.3h-.2v.3l-.3.9-.2.3v.2h-.5l-.7-.3-.4-.7v-.8h-.6l-.3-.5v.3l-.5.5-.2.3h0v.2h.2l-.2.3.2.4.6.6.3.5v1.5l-.2-.2h-.4v.4l.2.2h-.5l-.2-.4-.2-.3v-.4l-.2-.7v-1l-.4-.3h-.9l-.4.2h-.2l-.2.4v.3l-.2.3v.4l.2.7v1.7l1.4.4h.2l.2.3v.2h.4v.4l-.2.3h-.2l-.5-.5h-.3l-.7.3v.5l-.2.4v.8h.2l.3.2h.2l.3.6.2.6.3.5h.6l-.2.4h0l.5.7.5-.4h1.5l.5.4v.2h-.5l-.7-.2-1.2.2v.2h0v.2l.2.2h-.2l-.5-.4h-.2l-.3-.6h-.3l-.9-.9-.3-.2h-.6v.5h-.3v1.3l-.3.5v.6l.2.6v.3h0l.5.2h.2l-.2.3v.7l.2.3v.2h0l.3,1.2.4.2h.8l.4-.3,1.2-1.5.2-.3h0v.2l.2.4v.5l-.5.2h.5l.4.3h.3l.5-.3.7-1,.5-.5h.3l-.2.9-.7.7-1.9.9h-.4v-.2l-.2-.2v.2h-.3l-.3.3h-.2l-.4,1.1h0v.5h.4l.7-.2h.3l.6.3h.7l.6-.4h.3l.2-.3.2-.4.3-.3.4.2v.2l-.4.2-.4.4-.2.5v.2h.3l.2.2.2.5h.2l.7.3v.2l-.7.2-.6-.5-.5-.6-.5-.4h-.6l-.7.6-.4.6.3.5-.2.4-.6.9v.8l1.4.4.2.2.4.6h.6l1.4-.4.4.2v.3h-.3l-.2-.2h-.3v.3h-1.9l-.3-.2-.7-.6h-.7l-.2.2h-.7v.2l-.3.3-.7.9-.3.5.2.2h.2l.3.4h.6v-.2l.4.3v.8l.2.2h.3l.4.4h.3l.4-.2h.7l.3-.2v.2l-.8.4-.9.2h-.5l-.3-.2-.2-.2-.2-.2-.4-.6v-.2h-.6l-.5.2-.4.3-.3.4-.2.6-.2.7v.7l-.4.3.3.4h0v.3h-.6l-.5.2.7.2,1.6-.4.8.2-.7.7v.3l.5.2h.4l.2-.5.3-.2h.5l-.5.7-.7.3-1.7.2-.3.2v.4l.4.4,1.2.6h-.3c0-.1-.4-.2-.4-.2h-.4c0,.1-.3.4-.3.4h0c0-.1-.2-.2-.2-.2h-.4v.2h.3v.9h0c0-.1-.9-.5-.9-.5l-.3-.2v-.2h-.3c0-.1-.3-.1-.3-.1,0-.1-.2,0-.2,0l-.6.4h-.2c0,.1-2.6.4-2.6.4l-.2.2-.3.6h-.4v.7h0v.3l.4.2.3.2h.5c0,.1.3,0,.3,0l.3-.3h.4l1.2.3h1.2c0-.1.2,0,.2,0l.4.2h.2c0,.1.2.1.2.1l.6-.2,1.8-1,.7.2.9.5h.3c0,.1,1.6,0,1.6,0l-.4.2-.5.2h-1.3c0-.1-1-.6-1-.6h-.4l-1.8,1.2v.3l.2.2.4.4-.2.2-.4-.5-.6-.2-.5-.2h-.9c0,.1-.2.2-.2.2l-.2.2v.7l2.6,2.1,1,.2.6-.9h0v.6l-.3.5.2.2.3.2.3.2h.5v.5h.2c0,.1,1.1-.9,1.1-.9l1.1-1.3.7-1,.2-.2.2-.2h.4c0-.1.2-.7.2-.7h.2c0-.1.3-.2.3-.2l.3-.2.4-.6.2-.3.2-.2.3-.2.2-.2h0c0-.1.3-.1.3-.1h.3c0-.1.2-.4.2-.4l.2-.4v-.8h.2c0-.1.4-.1.4-.1v-.5l.3-.2.9-.9-.2.6-.3.5-1.2,1.2v.2l-.2.4v.2l1.3.6,2.7-.6-.3.2-1.3.3-.7.4h-.3c0,.1-.7,0-.7,0h-.4l-.5.5h-.6c0-.1-.4.3-.4.3h-.2v.3l.4.2-.2.4-.7.6-.2.2-.4.8v.6h-.2v.5h.3l.2.3h.2c0,.1.2,0,.2,0l.4-.3h.2l.3-.3h.5l.6-.3-.2.2-.2.2-.4.2-.8.6h-.3c0,.1-.4.1-.4.1h-.4c0-.1-.4-.5-.4-.5v.4l-.7,1.5h.3c0,.1.3-.5.3-.5l.2-.3h.2c0-.1.3,1.1.3,1.1l.2.2.5-.5,1.8.5h.7c0-.1.2-.3.2-.3l.4-.7.6-.6.3-.5.2-.5.2-.4.4-.2-.4.4-.5,1.3-1.1,1.4-.4.4-.6.2-1.3-.4h-1.7c0,.1-.6.4-.6.4l-.4.6v.3h0c0,.1-.2.1-.2.1,0,.1-.2.2-.2.2v.3l-.4,1h.3l.8-.2h.4v.2l-.9.3h-.7c0-.1-.3.2-.3.2l-.2.4-.2,1.1-.2.6v.7h.2l.2-.2v-.2h.3c0-.1.7-.3.7-.3h.2v.6h-.2c0,.1-.3.1-.3.1l-.4.2-.2.4.2.4-.4.4-.2.6-.3.6v.6l.3-.3.4-.5.3-.5h.5c0-.1,0,.3,0,.3v.3l-.6.8v.9h0v.5h0c0,.1-.3.1-.3.1v-.2h-.3c0-.1-.2-.1-.2-.1h0v.3h0c0,.1-1.3,1.9-1.3,1.9l-.6,1.2v1.4h.2c0,.1,0,0,0,0l.3-.6v-.6l.7-.9v-.5l.4-.2.2-.2h.2c0-.1.2,0,.2,0v.2h-.2v.6l-1.9,2.8v.3l.2.4v.2h.2l.3-.3.5-.3.5-.6.4-.2-.2.3-.3.3-.3.3v.4l-.2.2-.7,1.1v1.4l.4.3.2.2h.4v.5h.4c0-.1.6-.6.6-.6l1.7-1.8-.4.9-.5.8-.6.5-.4.2-.3.2-.2.5-.3.5v.4l-.2.3-.9.8.2.4v.6l-.4,1-.4.9v.5l.2.2v.2l-.2.9v2l-.2.3-.6.7-.5.4v1.2l.2,1.3.2.4h.3c0,.1.4.1.4.1h.2c0-.1.4-.4.4-.4h.7c0,.1.2.2.2.2h.4c0-.1.3-.3.3-.3l.4-.3.2-.2.6-.8.2-.5-.2-.2h0c0-.1-.2-.7-.2-.7l-.2-.3h0c0-.1-.2-.2-.2-.2h-.2c0-.1.4-.4.4-.4l.2-.4.4-1h.2v-1.3l.5-.7v-.7h.3v-.5l-.2-.3h-.2v-1h0v-.2l.3-.3v-1l.2-.4v-.3l.3-.3.8-.9h.2c0-.1.6-.3.6-.3l.2-.2v-1.2l-.4-.7-.9-1h0v-.2h0l-.2-.2v-.2h0v-.2l-.2-.2v-.8l-.2-.6h0c0-.1-.3-.2-.3-.2h0v-2.2h.2c0-.1,0,.5,0,.5h.3c0,.1.4.1.4.1h.4v-.4h0v-.3l.2-.5h0v-.2h.5c0-.1,1.3-2.2,1.3-2.2l2-1.4.2-.2.4-1.1.2-.3.2-.3h.3c0-.1.7-.1.7-.1l.3-.2.6-.7.3-.2-.4.8-.5.4-.7.3-.5.4-.2.4-.6,1.3-.2.2-.7.5-1,.5-1.8,3.1-.4.5.2.9v.5l-.2.3v1.3h.2v1.1l.3.2.6.2.7.4h.3v-.5l-.3-.5-.4-.8.5-.7v-.9l.3-.4v-.3.7l.2.3,1.1.9.3.2v-1l-.6-1.6-.3-.5.3-.2v.3l.2.3.7.9v.6l.2.9.2.8.3.3h.5c0,.1.2.1.2.1l.3-.3v-.3l.2-.3v-.6l.3-.3.2-.2v-.3l.2-.4v-.4l-.3-.2-.2-.2h-.2v-.3h.3c0,.1.3.3.3.3h.4v-2.2h.2v-1.6l-.3-1.1-.2-.5.2-.3h.2c0,.1.2.4.2.4v1.3l.2.3h.3l.3-.4.9-2,.2-.3.2-.2v.6l-1.2,1.9-.6,1.7v2l.2.4h.4c0,.1.4.2.4.2h.3v-.3l-.2-.6-.7-1.2v-.4l-.2-.3v-.2h.4c0,.2.2,1.1.2,1.1l.2.4.3.4.3.3.6.3.9,1.1.7.4,2.5.6-.4.2-2.8-.4-.3-.2h-.2c0,.1-.3,0-.3,0l-1.1-.5h-.5l-.5.3-.4.3-.3.5v3.2l.2.3v.3l.2,1-.3.7-.7.8.3.4.5.5,1,.7v.5h0c0,.1.6.1.6.1l.9.4.5.4.3.6v.7l-.2.5.6.2.4.5v1.6l-.4.5-1.1.6-.6.5v.3l-.3.7v.3h-.2c0,.1-.3.4-.3.4l-.6.7v1.6l-.5,1v.6h-.3c0,.1-1.1,1.5-1.1,1.5l-.7.5-.3.3v.6l-.2.6v.4l-.4.7v1.4l.3.6v.5l.6,1.2v.5l-.4.3h-.3c0-.1-.2-.3-.2-.3l-.3-.4v-1.6l-.2-.2-.3-.4v-.2l-.2-.3-.2-.2v.4h0c0,.1-.6.1-.6.1l-.2.2v.5l-.2,1.1v1.1l.4,1,.5.9,1.6,1.9.3.2.2.2v.3l.2.4v.3h.2v.2h.3v.6l.2.2-.2.2v1l.3.2h.3c0,.1.7.5.7.5h.4c0,.1-.2-.4-.2-.4v-1.2l-.5-.4-.3-.7-.2-.7v-.3h-.3v-.4l-.2-.4v-.6h0v-.4l.3-.4.3-.3.4-.3.4-.2h.6l.4.2.3.8.4.2.7.2,2,1.2.5.6,1,1.5h0c0,.1.6.1.6.1h.2c0,.1.4.4.4.4h.4c0,.1.4.2.4.2h0v-.2h0v-1.6l.2-.4-.2-.4v-.4l.2-.3v-.4l-.3-.3h-.2c0-.1-.2-.2-.2-.2h-.3v-.2l-.2-.4-.2-.7v-.3l.2-.4v-.3h.2c0-.1.3-.1.3-.1v.6l.2.4.2.2.2.2,1.2.6h.5c0-.1.4-.6.4-.6l.3-.2-.2,1.2.6,1,.9.5h.6v-1.1l.2-.4.3-.2v.2h.2v1.2h0v.2h0v.2h.5c0,.1.8,0,.8,0l1.3-1,.9-.3.2-.2-.6-.6h.2v-.2h0v-.4l.3-.2.2-.4h0v.4h0c0-.1,0,.2,0,.2v.2h0c0,.1.2.1.2.1h0v-.3l1.2.2.4-.6h.4c0-.1,1.5,0,1.5,0l.3-.2.2-.5v-1.6l-.2-.3.2-.8.5.4h.2c0,.1.3,0,.3,0v-.2h.3c0-.1.2-.1.2-.1l.3.2h.3c0,.1,5.3.5,5.3.5l1.4-.4h.5v.4l-.4-.2h-.2c0,.1-.3.3-.3.3h-.3v.3h1.2l-.3.2-1.4.4h-.4l-.6-.2h0v-.3h0c0-.1-.2-.1-.2-.1l-1.1.3-.2.2-.5.5.9.4h.2c0,.1-.7.5-.7.5h-.5v-.3h-.2c0-.1-.4-.1-.4-.1l-.3.5-.4.8-.5,1.7v1l-.3.5-.2.3h-.2c0,.1-.3.3-.3.3h-.2v.3l-.2.8-.6,1.3-.4,2.2-.4,1h0v.3l-.2.2.2.2.2.4h0c0,.1.3.3.3.3l1.5,2.2.4.3.6,1.2.4.2h0v1.3l-.2.2v.4l.3.4.5.6.6,1.1.4.4.4-.2h.9c0-.1-.2-.7-.2-.7l.2-.7v-.3h.4c0-.1,0,.4,0,.4v1l-.2.8-.5.2v.2l.2.2v1.5l.2.2h.5v.2l.7.8v-1l.5-.3v-.2l.4-.6.5-.7v-.9l.2-.4v-.4h0c0-.1.2-.1.2-.1,0,.1.2.4.2.4v1.1l.4.4.2.2h.7c0-.1.4-.3.4-.3v-.4l.2-.3.3-.3.6-.3.5-.4.3-.3v-.4h0v.5c.1,0-.2.5-.2.5l-.4.4h-.3v.4l.7,1.3.2.4-.3.7-.2.3-.5.2-.2.3-.4.6v.2h-.3v.5l.3.6h0c0,.1.5,0,.5,0h.3c0-.1.3-.3.3-.3v.4l-.7.6.2.3h0c0,.1-.2.2-.2.2v.2h-.2v.3h0c0-.1-.3-.3-.3-.3h-.2c0,.1-1.6.7-1.6.7l-.3.2-.3.5.2.8-.2,2.1v.9l.6.7.6.3h1.4l-.2.3-.7.5v.3h-.2c0,.1-.9,1.2-.9,1.2l-1.1,1.9-.2.4v.8l1.9,4.2.4.6.6.6.6.5.7.2h.8c0,.1.3,0,.3,0v-.4c.1,0,.3-.2.3-.2l.8-.2h.2c0,.1-.1.2-.1.2h-.2c0,.1-.2.1-.2.1h-.2c0,.1-.1.3-.1.3v.3c-.1,0,0,.3,0,.3l-.4.3h-.3c0,.1-.4.1-.4.1l-.2-.2h-.3v.2h0v.2h-.5l-.5-.2-.4-.4-.3-.4-1-2.6-.4-.4h-.3c0-.1-.6.4-.6.4l-.4.2h-.7c0,.1-.3.2-.3.2l-.2.3v.4l.3.5.6.8.4.8.4.8v1.1h-.2c0-.1-.2-.5-.2-.5l-.2-.2-2.2-1.5v-.2l-.3-.3-.4-.2-.6-.3h-.7l-3.2,1.6h-.6c0,.1-1.9.2-1.9.2l-.3-.2-.3-.4-.3-.3-.4-.2-.3.2-.2-.2-.3-.2h-.3c0-.1-.3-.1-.3-.1v.3l.6.5.2.5h-.6l-1.8.8-.6.4-.4.2h-.4c0,.1-.2.3-.2.3h0v-.2h-.7c0,.1-.5.2-.5.2l-.4.3-.4.5-.4.7-.2.3h-.3c0,.1-.2.2-.2.2l-.6.9h0c0,.1-.2.4-.2.4v.2l-.2-.2h0v-.2h-.2v2.1l-.2.3-1.1.8-.4.5-1.3,1.1-.3.2h-.7c0,.1-.2.2-.2.2l-2.3,2.7-.3.5h0v.3h0c0,.1-.2.3-.2.3l.3.2h.2c0-.1.2-.4.2-.4h.3c0-.1.9,0,.9,0h.4v-.4h.2c0-.1.4-.1.4-.1,0,.1.3.3.3.3h.4c0,.1.2.4.2.4h.5c0-.1.2-.3.2-.3l-.2-.3v-.7l.4-.2h0c0-.1.6-.8.6-.8l.3-.3.4-.2h1.1l.3-.2.3-.2,1.2-.3h1c0,.1.4.1.4.1l.5-.3v.3h.5v-.3h0c0,.1.2.2.2.2l-1,.7h0v.9l.2.4v.6h-.3v.6l.5.7,1.2,1.5h.3l.3-.3h.4l-.2.2-.7.6h-.2v.6h-.2l-.3.3-.3.5-.3.7v1.1l.8,1,.3.2h.4l.9-.4h.4v.2l-.8.7h-.3c0,.1-.2,0-.2,0h-.4c0-.1,0,0,0,0v1.3l-.2.6v.6l-.3,1.2-.2.6-.5.9-1,1.4-1.9,1.7h-.3c0,.1-.4.1-.4.1h-.3c0,.1-.2.3-.2.3l-.5.6-.3.3-.4.2-.4.2h-.2v.3h0c0,.1-.2.2-.2.2h-2.1c0-.1-.6.3-.6.3v.8l-.6-.5h-.2l-.3.4-.4.6-.2.3-.4.3h-.5v1h0c0,.1-.4,0-.4,0l-.6-.2h-.3c0-.1,0,.3,0,.3l-.5.2h-.3l-.9-.5h-.6c0-.1-.3,0-.3,0h-.2v.3l.2.2h0c0,.1-.3.1-.3.1v.7l-.5.5-.7.3h-.5l-.3.2-.5.5h-.3c0,.1-.6.1-.6.1v.7h-.2v.3h0v.3h0v.2h.3l.9-.2.3-.2.2.2h.7c0,.1.3.3.3.3h0c0-.1.2.1.2.1l.2.3v1.8l-.3.2-.2.2h-.6c0,.1-.2.3-.2.3l-.2.3h-.2c0,.1-.3.2-.3.2h-.3.3c0,.1.8.7.8.7v.5h.2l.2-.3v-.4h.2c0-.1,2.3.2,2.3.2h.3l1.3-.3.3-.3v-.3l-.2-.2v-.6h-.2c0-.1-.2-.1-.2-.1l.2-.2h.9c0-.1.5-.3.5-.3h.2c0-.1,0,.1,0,.1l-.7.2-.2.5v.7l.5.4v.2h-.2c0-.1-.2-.1-.2-.1l-.4.3-.8.2-.5.3h-.3c0,.1-.2,0-.2,0h-.4c0-.1-.3-.1-.3-.1h0v.4l-1.2-.2-.2.2.4.3.8.2.2.6v.2l.3.3,1.1.4h0v.2h.2v-.4h.3c0-.1.2-.3.2-.3v-.2l.3-.2.2-.2h.3c0-.1,1.5,0,1.5,0l.3-.3h0c0-.1.2.1.2.1h0l.4-.7v-.4h.2v-.7l.6-.4.7-.2h1.7c0,.1.6.1.6.1l.6-.3-.2-.2-.2-.3v-.2h.4l.2.2h0c0,.1.3.1.3.1v-.2h.2v-.4h.2c0-.1.2.1.2.1v.5l-.2.2h0l.2.3.2.2h.4c0,.1.3.1.3.1l-.2.2h-.3c0,.1-.7,0-.7,0l.2.5.4.4.5.4h.3c0,.1,1.4-.1,1.4-.1h.2c0-.1.9.4.9.4h1c0-.1.2-.3.2-.3h0v.4l-.4.6-.8.2h-.8c0,.1-.6.2-.6.2h0v-.2h0v-.3h-.2c0,.1-.2.4-.2.4h0c0,.1-.6.3-.6.3v.8l.2.3-.3.2v.3h0c0,.1.3.1.3.1l1,.4h.2v-.3h.2l.2.2h.3c0-.1.3-.4.3-.4h0c0-.1.2-.2.2-.2h.6c0,.1.2.2.2.2h0c0,.1,0,0,0,0l.2-.2h0v.3h0v-.2h.8l-.2-.3v-.2l-.3-.3v-.2l.2-.2.2-.2h.3l1.8-.3h.2v.3l.3.5.2.2.2.2h.2c0,.1.2.5.2.5l.2.4v.5l.2.5h0c0,.2.2.5.2.5l.3.3.4.2h.3c0-.1.3-.1.3-.1l.9.8.8,1.1.3.2,4.2.3,1.2-.5h.2c0,.1.3.2.3.2l.3-.4.2-.5-.3-.6h0c0-.1.3-.1.3-.1h0v-.5h0c0-.1.5-.6.5-.6l.2-.2h.3c0-.1,1-.7,1-.7v-.2l.5-.5h.2c0-.1,0,.1,0,.1l.2.2h.2c0,.1,1.4,0,1.4,0l.7-.2.9-.7.8-.2.3-.2.5-.6,1.1-1.3.2-.3h.1c0-.1,1-.8,1-.8l.2-.3.2-.4.3-.3h.3c0-.1.3-.1.3-.1h.4c0-.1.3-.4.3-.4v-.5c.1,0,.3.2.3.2v.3c.1,0,0,.3,0,.3l-.2.3-.8.2-.2.2-.6.8-1,1h-.1c0,.1-.1.4-.1.4v.2c-.1,0-.1.2-.1.2v.3c-.1,0-.2.1-.2.1h-.2c0,.1-.1.2-.1.2l-1.5,2.5-.3.4h-.4c0,.1-.4.1-.4.1h-.3c0,.1-.3.3-.3.3l-.3.3-1.1,1.5-.7.6h-.5c0-.1-.3.2-.3.2l.2.3v.3l-.3.2-.2.2v.7h-.2c0,.1-.3,0-.3,0l.2.3v2.6l-.3.5h-.3c0-.1.3-.5.3-.5l-.2-.2-.4.3h-.7c0,.1-1.7.1-1.7.1l-1.2.4h-1.9c0,.1-.3,0-.3,0l-.5-.5-2.1-.5h-1.3l-2.2-.5h-.3l-.5.3h-.4c0,.1-1.5.1-1.5.1l-.7.3-3,.2-1.3.5v.2h.2v.9h-.2c0,.1-.5,0-.5,0v.3l.4.4v.4l.3.7v.2h0v.3h-.2v.3l-1.2,1.3h-.3c0,.1-.3.2-.3.2h-1c0-.1-.4-.4-.4-.4h-1.7v2l-.3,1.1v2.3l-.4.9-.7.5-.3.4v.4l-.3.4-1.2,1h-.2c0-.1-.2.1-.2.1v.6l-.2.5-.2.4-.3.4-.5.2h-1.2c0,.1-.4,0-.4,0h0v.9l.2.3.6.2.3.2v.3h0c0-.1-.7-.1-.7-.1l-.3-.2h0v.2-1h-.2c0-.1-.2.2-.2.2h0c0,.1-.4.1-.4.1l-.3.2-.2.4v1l-.2,1-.2.3v.2l-1.2.6h-.5v1.3h0c0,.1-.2.2-.2.2l-.6.4-1.9,2-.6.4h-.7v.6l-.3.4-.4.2-.3-.2-.5-.5h-.4l-.6.4-.6.2-1.1.7h-.4c0,.1-.2.2-.2.2l-.3.6h0v1h.3v.3h0v.2h-.2l.2.8.6.2h.8c0-.1.7-.3.7-.3h.2c0-.1.3-.4.3-.4l.2-.3v-.8l.3-.3h.5c0-.1.3-.2.3-.2l.3.2.6.3h.6c0,.1,1,.6,1,.6l.4.2.2.4.5.8v.9l.2.2h0c0,.1.5.7.5.7h.2c0,.1.2.2.2.2v-.2l.2-.6.5-.5h0c0-.1.2-.2.2-.2h.4c0,.1.5-.7.5-.7l.2-.4v-.3l-.2-.4h0c0-.1-.4-.1-.4-.1h-.2c0-.1-.2-.2-.2-.2h-.2l.6-.2h0v-.7h.2c0-.1.2-.3.2-.3h.2l-.2-.3h0v-.2l.2-.3v-.6h.5v1.1l.2.3.7-1.2.2-.2.7-.3h.3c0-.1.3-.5.3-.5l.4-.2.8.2v-.2l.2-.2.2-.4v-.2h0v-.5h.2v-.3h0v-.9h.3c0-.1.5-.1.5-.1h0v-.2h.2l.2.7h.2c0-.1,2.8-.3,2.8-.3l.6-.3,1.2-.7h.8c0-.1,1.4.3,1.4.3h.3c0,.1.2.5.2.5v.3h.5c0,.1,0-.3,0-.3v-.2h0c0-.1.2-.2.2-.2h0c0-.1-.4-.1-.4-.1v-.2h-.2c0-.1-.2-.1-.2-.1,0,.1,0-.1,0-.1l.6-.2-.4-.3-.9.2-.3-.4h.8c0,.1.2,0,.2,0l.2-.2v-.6h-.3v-.3h.4v-.5h.3c0,.1.5.1.5.1,0-.1-.2.2-.2.2l-.2.4-.2.4.2.4v.3l.2.2h0c0,.1.2.3.2.3h.8l-.2.5v.4l.5.3h.4v.3h0c0,.1.2.3.2.3h.2c0,.1.2.2.2.2h0c0-.1.2-.3.2-.3h0c0-.1.2-.2.2-.2l.4-.2h.4l1.1,1,.9,1.2.7.6.2-.3h.3c0,.1.3.2.3.2h.3c0,.1.3.1.3.1l.7-.2h.3c0-.1-.2-.8-.2-.8v-.6l.3-.5v-.5l.3-.2h.3c0-.1.4-.4.4-.4v-.5l.4.2h.2c0,.1.2-.1.2-.1v-.6l.2-.2h.3c0-.1.2-.6.2-.6v-.2h-.8c0,.1-.2-.1-.2-.1l-.2-.4.2-.4.2-.2h.4c0-.1.4-.1.4-.1l-.3-1.1v-.5l.2-.7.2-.6.2-.4.3-.4.3-.3-.2-.3-.2-.9-.2-.3v-.2h0c0,.2.2.8.2.8l.2.4.2.2h.3c0,.1.4.1.4.1l1.2-.5.2-.4.2-.3.2-.3h.7c0-.1.5-.4.5-.4h.9c0,.1.3.1.3.1l.3-.3h0l.3-.3h.2c0-.1.7.1.7.1h.4c0-.1.6-.4.6-.4l1.2-.3h.4l2.9,1.1,3.5,2.6.3.7v1h.2l.2-.4.2-.4v-.3c-.1,0-.5-.2-.5-.2l-.2-.2v-.6c.1,0,.3-.5.3-.5l.2-.3.7-.2h.3c0-.1.6.3.6.3l3.1.3,1.2.6h.3c0,.1,1.4.1,1.4.1l.3-.2v-.4l.5-.7-.3-.2v-.4c.1,0,0-.2,0-.2h-.2c0-.1-.6-.1-.6-.1l-.2-.2-.4-.7-.2.2h-.1c0,.1-.2.2-.2.2h-.3l.6-1h.2c0-.1.1,0,.1,0v.3c.1,0,.2.1.2.1h.1c0,.1.4,0,.4,0l.7.2v.6c.1,0,.3-.1.3-.1l.3-.3.3-.3h.3c0-.1.3-.2.3-.2h.4c0-.1,1,.1,1,.1h.3l.7-.4h.3c0-.1.4-.1.4-.1l1.2.2.3.3h.3c0,.1.1.1.1.1h0c0-.1.6-1.1.6-1.1h.5c0,.1.1,0,.1,0h.2c0-.1.4-.3.4-.3h.8v-.3h-.2c0-.1-.1-.2-.1-.2h1.3c0-.1.4-.3.4-.3v-.3c.1,0,0-.3,0-.3l-1.3-1.5-.4-.5h-.2l-.3-.2h-.2v-.3l2.2,1.2.6.8h.2c0,.1.6.3.6.3l.3.3.6.3v.3c.1,0,.2.1.2.1l.3.2h.3c0,.1.2.1.2.1l.2-.2v-.3c.1,0,0-.5,0-.5h-.1c0-.1-.5-.6-.5-.6h.2c0-.1,1.1-.2,1.1-.2l.3.2v.3c-.1,0-.5.5-.5.5v.5c-.1,0,.2.3.2.3h.5l.2-.5.2-.7.2-.4h.3c0-.1.5-.1.5-.1h.5c0,.1.4.3.4.3l-.2.3h.1c0,.1.2-.1.2-.1h.3c0,.1.3.4.3.4h.2v.3l-.5.2h-.2c0,.1-.1.4-.1.4v.2c.1,0,1.6.9,1.6.9l.4.2.3-.2v-.3c.1,0,0-.5,0-.5v-.2c.1,0,.2-.1.2-.1h.2c0,.1.1.2.1.2h.2c0,.1,2.7-.8,2.7-.8h2.9l2.1-.8.6.3.5-.3h.5c0,.1,3.5,1.3,3.5,1.3h.7c0,.1.3.2.3.2l.3.3h.1c0,.1.8.1.8.1l.8.3h.9l.6-.9.6-.3h.1c0-.1.1-.4.1-.4l.2-.3h.1l.6-.2,3.6-.8.7-.3,1.6-1.6.7-.2,2.4.7.6-.2-.2-1v-.7c-.1,0,0-.3,0-.3l.9-1.2.6-.7.3-.2h.4c0-.1,1.1-.1,1.1-.1h.3c0-.1.1-.3.1-.3l.2-.2h.1c0-.1.2-.2.2-.2h.6l.4-.3,1.2-.4.4-.6.4-.8v-1c.1,0,0-1.1,0-1.1l-.2-.7-.2-.4v-.6h.1c0-.1.6-.1.6-.1h.1c0-.1.1-.2.1-.2v-.2c.1,0,.1-.1.1-.1l.2-.9-.4-.3-5.4.5-2.1.7-3.5-.4-.2-.2-.3-.5v-.4c-.1,0-.2-.4-.2-.4h-.3v.3c-.1,0,0,.3,0,.3v.3c.1,0-.6-.1-.6-.1h-1.6c0-.1-.1-.3-.1-.3v-.2c-.1,0-.2-.1-.2-.1l.3-.2h.6c0-.1.5-.7.5-.7h.3l.6.2h.3c0-.1.2-.2.2-.2v-.3l-.3-.4h-.2c0-.1-2.7-.5-2.7-.5l-1.1.3h0c0,.1-.1.2-.1.2v.2c-.1,0-.2.1-.2.1l-1.1.2h.3c0-.1.2-.2.2-.2l.3-.2.2-.2v-.3c.1,0,.1-.3.1-.3v-.2c.1,0,1.3-.3,1.3-.3h.4l.3.2.2-.2h.5c0-.1.2-.1.2-.1l.3-.3h.1c0-.1.8-.1.8-.1l1.3.2.7-.2,1-.6.8-.8.5-.8h-.1c0-.1-.1-.2-.1-.2h-.5l.3-.2h.1c0-.1.1-.2.1-.2v-.9h.2c0-.1-.1-.5-.1-.5v-.2c-.1,0-.1-.2-.1-.2v-.2c.1,0,.1-.5.1-.5l-.3-.3h-.3c0,.1-.4.5-.4.5l-.6.2-1,.2-.5.5-.2-.4-.3-.2h-.3l-.2-.2.3-.2.8-.3h.6l.3.2h.4c0-.1.3-.3.3-.3h.2c0-.1.1-.2.1-.2v-.7c.1,0,.1-.1.1-.1h.1c0-.1.5-.6.5-.6l.7-.3.2-.3v-.5c.1,0,.2.4.2.4l.6.7.2.6h.2c0,.1.3.2.3.2l1.2-.2.5-.2.9-.6.9-.9.2-.4v-.6h-.1v.3c-.1,0-.3.2-.3.2h-.6c0-.1-.3-.2-.3-.2l-.2-.2,1.3-1.4v-.5c.1,0-.2.2-.2.2h-2.8c0-.1-.5-.3-.5-.3h.5c0-.1.8-.4.8-.4h.4l.4.3h.2c0,.1.2,0,.2,0h.4c0-.1.2-.1.2-.1h.3c0,.1.1,0,.1,0v-.5h-.1c0-.1-.2-.2-.2-.2l-.7-.2-.4-.2-.6-.6v-.2h.5c0,.1.8.8.8.8h.5c0,.1,1.1,1.6,1.1,1.6h.2c0-.1.2-.4.2-.4l1.2-1.3.4-.6h.1c0-.1.1-.3.1-.3v-.3c.1,0,.2-.2.2-.2l.2.2.3-.4,1.3-.5v-.2c.1,0,.1-.3.1-.3l.3-.8v-.5l.3-.9v-.5c.1,0,.1-1.9.1-1.9l.2-.3.2-.2.5-1,.7-2v-.2c.1,0,.1-.3.1-.3l.4-1.4.2-.3v-.2c.1,0-.3-1.3-.3-1.3h1.2ZM66.5,133.3v-.2l.2-.3.2-.6.2-.3v-.3h0c0-.1-.4-.1-.4-.1,0,.1-.3.2-.3.2l-.5.5h-.4c0,.1-.5.5-.5.5l-.2.3-.8,1.2-.4.4h-.5v.4l.2.4v.2l.2-.3v-.3h.7c0,.1.3,0,.3,0l.8-.7.7-.8h.3c0-.1.2-.2.2-.2h0ZM79.1,150l.3-.3.3-.5.2-.2v-1.1l-.4-.2-.5.4-.9.9-1.2,1.2-.5.2-.4.2-.5.7-.5.8-.2.6.3.5h.5l.7-.2h.4l-.6.5-1.3.3-.5.4-.3.3h-.2c0,.1-.3.3-.3.3l-.2.5v.5l.2,1.4.2.8.6.4h.7l.4-.3v-.4l.3-1.2v-.2l.4-.2.4-.5h.2c0,.1.3-1.1.3-1.1l1.4-2.8.7-1.7h0ZM65.8,119.9h-.3l-.6.4-.3.2h.5l.5.2h.5l.5-.4h-.2l-.4-.2-.2-.2ZM71.2,138.3h.9c0-.1-.2-.4-.2-.4l-.5-.4-.2-.3h-.5c0,.1-.2.3-.2.3v.3l.3.4h.4q0,.1,0,0ZM159,297.9h-.1v-.3h.1c0-.1.1-.2.1-.2v-.2c-.1,0-.2-.1-.2-.1h-.2c0-.1-.5.7-.5.7l-.3.2h0c0,.1,1.3.3,1.3.3v-.2h-.1c0-.1-.1-.2-.1-.2h0ZM189.9,281.5h-.1c0-.1-2.1-.9-2.1-.9h-.2c0,.1-.1.3-.1.3l-.2.7v.3c.1,0,.3.4.3.4l.3.3h.4c0,.1,1.9.3,1.9.3l.4-.2v-.3c.1,0,0-.4,0-.4l-.4-.4h-.2q0-.1,0,0ZM156.6,300.1v-.3l-.2-.2h-.6l-2.5-1.1h-.4c0,.1-.4.4-.4.4l-.6.7-.4.3h-.4c0-.1.1-.2.1-.2h0c0-.1-1.4.6-1.4.6l-.7.5-.4.8.3-.2h.3c0-.1.6-.2.6-.2h.2c0,.1.6.5.6.5h.1c0,.1,2.1,1.7,2.1,1.7h.7c0,.1,1.8-.4,1.8-.4h.1v-1.1h.1c0-.1.5-.6.5-.6h.2c0-.1.7-.3.7-.3h0c0-.1.1-.1.1-.1h.1v-.2l-.4-.6h-.2ZM153.7,27.6v.2l.3.4v-.4c-.1,0-.3-.2-.3-.2ZM153.1,9.1l.2.4h-.1c0,.1-.1.5-.1.5l.3.4v.2c-.1,0,0,.5,0,.5v.8c.1,0,.2.3.2.3h.2v.3h.6c0,.1.2,0,.2,0v-.2h-.3c0-.1.1-.3.1-.3h.3c0-.1.4.2.4.2h.2c0-.1.2,0,.2,0v-.2c.1,0,0-.4,0-.4l.2-.8h-.2c0,.1-.1,0-.1,0h.2c0-.1-.2-.2-.2-.2h.2c0-.1.3-.1.3-.1v-.4l.2-.2v-.5h-.2c0-.1-.2,0-.2,0v-.3h-.4v-.2h-.3v-.2c.1,0,.3.1.3.1v.2c.1,0,.4-.2.4-.2v-.4c.1,0,0-.4,0-.4h-.2v-.2h-.3v-.4l.6.5h.4v-.3c-.1,0,0,0,0,0v-.6c-.1,0-.1-.4-.1-.4h-.1v-.2c.1,0,0-.6,0-.6v-.6l-.5-.2v.2c-.1,0-.5-.3-.5-.3h-.8l-.2.9v.3c.1,0,.1.4.1.4v.5c-.1,0-.1.5-.1.5v.2c-.1,0-.1.5-.1.5l.4.3v.4c.1,0,0,0,0,0l-.2-.5h-.3v-1.1c-.1,0-.5.5-.5.5v.3c-.1,0-.1.4-.1.4h-.1v.3c.1,0,0,.1,0,.1v.4h0v-.2ZM156.4,6.1h.2v.3h.6v-.2h.4v.2l.8.3.2-.3h.1l-.4-.5h-.2l.2-.7h.2v-.2l.3-.3v-.4c.1,0,0,0,0,0h-.5l.2-.3h.5v-.2h-.2v-.4l-.2-.2h.8c0,0,0-.5,0-.5l-.2-.2h-.2v-.3c.1,0,.6,0,.6,0v-.2h-.3v-.4l-.3.3h-.2c0-.1-.2,0-.2,0v-.3c-.1,0-.3.2-.3.2v.6c-.1,0-.3.4-.3.4h-.2v-.3c.1,0,.1-.4.1-.4v-.6c.1,0,0-.1,0-.1h-.2c0,.1.1.4.1.4h-.2c0,.1-.2.6-.2.6l-.2.4h-.2v.4c-.1,0,.2.3.2.3v.6h-.2v.2c.1,0,0,.2,0,.2h-.2v.8c.1,0-.2,0-.2,0v.3l.2.5h-.2v.3h-.1v-.2ZM154.1,13.3v-.3c-.1,0-.3.2-.3.2h.3ZM147.4,18.8l-.2-.2v-.3c-.1,0-1,.1-1,.1h-.4c0,.1-.2.5-.2.5l.2.4v.4l-.2.2h.2v.5c-.1,0,0,.1,0,.1l.4.3.3.4h.1l.2.2.3-.2v-.3h.4v-.2c.1,0,.3.2.3.2v.4l.4-.3h.2v-.4h.3v.7h.3c0,.1-.5,0-.5,0h-.3c0,.1-.3.4-.3.4v.4l.2.2h.3c0-.1.1.5.1.5h.3l.4.3h.2c0,.1,0-.2,0-.2v-.5c-.1,0,.4.4.4.4l.3-.7v-.3c-.1,0,0-.2,0-.2h.1l.4-.3v.5h.1c0-.1-.1-.7-.1-.7l-.2-.2v-.5c-.1,0-.3.1-.3.1v-.5c.1,0,.5.1.5.1l-.2.3v.2c.1,0,.1.4.1.4h.2v.3h.1c0,.1.5-.7.5-.7h.2v.9c-.1,0-.3.8-.3.8l.3.2v-.5c.1,0,.4-.1.4-.1l-.2.4v.7c-.1,0,0,.1,0,.1l-.2.4v.2c.1,0,.1.6.1.6h-.2c0,.1,0-.1,0-.1l-.3.2h-.2c0-.1-.1.2-.1.2h.3v.4h-.2c0,.1-.2.4-.2.4v.6c.1,0,0,.3,0,.3h-.2c0,.1.2.3.2.3l.2-.2v-.2h.2c0-.1.1-.5.1-.5h.4l.2-.5v-.2c-.1,0,0-.3,0-.3v-.6h.3v1.1c-.1,0-.2.2-.2.2l-.2.7v.2c-.1,0-.2.8-.2.8v.2c-.1,0-.2.7-.2.7h-.1l-.2.2.3.8h-.2l-.2-.3v.3h.4v.5c-.1,0,0,.2,0,.2h-.3c0,.1-.2.1-.2.1v.6c-.1,0,0,.2,0,.2l-.2.2h-.2v.5c.1,0,.3.2.3.2h.2l.4-.2h.2c0,.1.1.5.1.5h.1c0,.1-.2.5-.2.5v.2c.1,0,.3-.2.3-.2h.1l.2.4h.2v-.6h-.2v-.2l.2-.2v-.2c-.1,0,0-.5,0-.5h-.2c0-.1.2-.4.2-.4v-.3h.2c0-.1-.1-.6-.1-.6v-.2c.1,0,0-.4,0-.4v-.2c.1,0,0-.2,0-.2h0c0-.1.2-.4.2-.4h.1v.2h.2v-.4h.2v.3c.1,0,.3.4.3.4h.1c0-.1-.1-.6-.1-.6h.1c0-.1-.3-.5-.3-.5v-.4c-.1,0-.1-.4-.1-.4h.2l.3-.2v-.7l-.2-.2v-.7c.1,0,0-.2,0-.2l-.2-.3.4-.2v-.4c.1,0,0-.1,0-.1v-.2l.5.2v-.4c-.1,0,0-.1,0-.1v.3h.2c0-.1-.1-.5-.1-.5h.2c0-.1.2.1.2.1h.1c0-.1-.2-.5-.2-.5h-.1l-.2-.3v-.2c.1,0,.1-.4.1-.4h-.1v-.4l-.5.5v-.6l.3-.6h-.4c0,.1-.1-.1-.1-.1l.2-.2h-.2c0-.1-.3.1-.3.1h-.3v-.2c.1,0,.4-.1.4-.1l.2-.2v-.2h-.2v-.3h.5c0,.1-.1.7-.1.7l.4-.2v-.5c.1,0,.4-.1.4-.1h.3c0,.1.1,0,.1,0l-.3-.3h-.5c0-.1-.2-.2-.2-.2l.5-.5.2-.2h.4c0,.1.1-.1.1-.1v-.2c-.1,0,0-.4,0-.4v-.2c-.1,0-.3.2-.3.2h-.4c0-.1-.4-.4-.4-.4h-.2c0-.1-.2,0-.2,0v-.6c.1,0,.3.1.3.1h.5c0,.1.3-.2.3-.2h.3v-.6h-.1v-.4c.1,0,0,0,0,0v-.2h-.3l-.2.5h-.3c0-.1.1-.4.1-.4l.2-.3h.1l.3-.3v-.2c.1,0,.3-.2.3-.2l.3-.5v-.3c-.1,0-.4.1-.4.1v.3c-.1,0-.3.1-.3.1v.3c-.1,0-.1.3-.1.3h-.2c0-.1-.3.2-.3.2v.2c.1,0,0,.2,0,.2h-.5v-.5l-.8.5h0c0-.1.5-.4.5-.4v-.2c-.1,0,0-.1,0-.1h.3v-.4c-.1,0,0-.2,0-.2l-.2-.4v-.3h-.2c0-.1-.3,0-.3,0v-.3h.1c0-.1-.1-.6-.1-.6l-.3-.3h-.2c0,.1-.2.5-.2.5h-.2v-.2h-.3v.3c-.1,0-.3.3-.3.3l.2.3h.2l.2.3h0c0,.1-.4.2-.4.2h-.2c0-.1-.6,0-.6,0l-.2.3v.5l.3.2-.2.3h-.3c0,.1-.2.1-.2.1v-.2h.2v-.3h.2v-.2c-.1,0-.1-.3-.1-.3v-.3c.1,0,.4-.4.4-.4h.2c0-.1-.2-.4-.2-.4v-.3c.1,0,0-.2,0-.2h.3c0-.1-.1-.4-.1-.4h-.2c0-.1-.1.4-.1.4h-.2l.2-.2v-.6c.1,0,.3-.1.3-.1l-.2-.3v-.3c.1,0-.3,0-.3,0v-.3c.1,0,.2.1.2.1h.2c0-.1.2,0,.2,0h.1v-1c.1,0-.4-.6-.4-.6h.2l.2-.4v-.9h-.5c0,0-.1,0-.1,0v.4h-.4c0,.1-.3,0-.3,0h-.5c0-.1-.1.2-.1.2h.1c0,.1-.4.4-.4.4v.3h.1v.3h-.2c0,.1-.5.8-.5.8h-.2v.4l.3.3.3.4.3.2v.2c-.1,0-.4-.2-.4-.2l-.3-.3-.5-.3v-.2c-.1,0-.1-.3-.1-.3l-.2-.3-.3.3-.2.3v.4c-.1,0,0,.3,0,.3l-.3.3h-.4c0-.1-.2.4-.2.4h-.2v.2l.3.2h.2c0-.1.1,0,.1,0l.2-.2h.2l.2-.3h.1l.2.3h.3l.3-.2v.3c.1,0,0,.1,0,.1v.4c-.1,0,0,.2,0,.2v-.2c.1,0,.3-.6.3-.6l.2-.4h.1c0,.1-.2.5-.2.5v.4c.1,0,0,.2,0,.2v.3h.3v.4c-.1,0-.2.2-.2.2v.2c.1,0,0,.1,0,.1h.1c0,.1.3.1.3.1l.5-.2v.2h-.1v.3c-.1,0,0,.2,0,.2v.5c.1,0,0,.1,0,.1l-.2-.3-.4.2v.3c-.1,0-.3.1-.3.1l.2.2v.4l.3.3h.4c0-.1.3-.2.3-.2l.2-.2v-.8c.1,0,.2-.2.2-.2h.2c0-.1,0,.7,0,.7h.1c0,.1.3,0,.3,0h.4l.3.3.3.2h-.1c0,.1-.5-.3-.5-.3h-.4c0,.1-.2.4-.2.4v.3h-.1l-.2-.2-.2.3v.3c.1,0,.1.7.1.7v.6c-.1,0-.3-.1-.3-.1v-.4l-.2-.2v-.3l-.4-.2-.3-.3v.2c-.1,0-.5.3-.5.3v.3h.3v.2l-.6-.2v.4h.2c0,.1.6.4.6.4h.1c0,.1-.1.2-.1.2v-.5c-.1,0-.3-.6-.3-.6v-.2h-.2c0-.1-.6.3-.6.3v.2l-.3.2-.2.2h0v.2ZM156.6,8.3h-.4c0-.1,0,0,0,0l-.2.4h.2c0,.1,0,0,0,0h.2c0,.1.2,0,.2,0v-.3h0ZM155.9,16.6v-.5c.1,0,0,0,0,0v.2c-.1,0,0,.4,0,.4h.1c0-.1-.1-.1-.1-.1ZM159.3,3.8v.6c-.1,0,0-.2,0-.2v-.4q0,0,0,0ZM129.8,53.8h.1v-.3c-.1,0,0,0,0,0l.3-.6h.2-.1l.2-.4v-.4h.9v.3h.3v-.4h.7l.2.3h.2v-.3h-.2v-.3l.3-.5h.1v-.5c.1,0,.3-.2.3-.2h.7v.2h.4v-.2c-.1,0-.1-.4-.1-.4h-.1v-.4c.1,0,0,0,0,0l-.4.2v.5h-.5v.3c-.1,0-.4.3-.4.3h-.1l-.2.2h-.4v-.2c.1,0,.1-.4.1-.4-.1,0,.2-.2.2-.2v-.3c.1,0-.5,0-.5,0v.2c-.1,0-.4.2-.4.2h-.3l-.2.4.2.2-.2.3h.2l-.4.3-.2.3-.3.2v.4c-.1,0-.6.2-.6.2v.5c-.1,0-.1.3-.1.3v.3h0ZM154.6,23.5v.5c.1,0,.3.2.3.2l.5.3v-.4c.1,0,.1-.5.1-.5l.2-.3v-.6h-.3c0,.1-.1-.1-.1-.1h.1c0-.1-.1-.6-.1-.6h-.1c0-.1-.2,0-.2,0v.2c.1,0,.3.1.3.1h-.1c0,.1-.3-.2-.3-.2h-.4c0-.1-.3,0-.3,0v.5c.1,0,.4.2.4.2v.3c.1,0,0,.2,0,.2v.2h0ZM157.9,6.8v-.2c.1,0-.2-.2-.2-.2h-.2v.2l.2.2v.2c.1,0,.2-.2.2-.2h0ZM139.4,24v.3c.1,0,.6.2.6.2v-.6c.1,0,.2-.2.2-.2l-.3-.5h-.4c0-.1-.5.2-.5.2h-.1c0,.1.1.4.1.4l.4.2h0ZM145.6,18l.2-.4.2-.2v-.3c-.1,0-.3.1-.3.1h-.5v-.2h-.3v.2c-.1,0-.1.1-.1.1l.3.5.5.2h0ZM134.1,48.3l.2.3.2-.4v-.2c-.1,0-.1-.3-.1-.3l.2-.2h.5l-.2-.4-.3.2h-.5l-.3.7v.2h.3ZM147.6,21.5l-.3-.2-.3.2v.3h.6v-.3ZM146.7,42.1v.8h-.3v.3h.5v-.4l.3-.3h-.1v-.5c.1,0-.4,0-.4.1ZM151,23.2h-.2c0-.1-.1.2-.1.2h.1c0,.1.2-.2.2-.2ZM149.1,18l.3-.5-.4-.3h-.2v.3c-.1,0,0,.5,0,.5h.3ZM155.8,23.1l.2.2.2.3h.2c0,.1.1-.2.1-.2v-.3h-.7ZM160.2,14.4l.2-.2h-.1c0-.1-.4-.1-.4-.1l-.2.2h.5ZM159.7,8.3l-.2.2v.3c-.1,0-.2.1-.2.1l-.3-.2v-.7h-.6l-.3.2h-.1l-.6-.3-.4.3v.3l.3.4.3.8.4.3.4-.2-.3-.4-.3-.2.6-.2.2.3h.2c0-.1,0,0,0,0l.4.4.2-.3v-.2h.1v-.4c.1,0,.2-.3.2-.3h-.1v-.3h.1ZM156.8,17h.1c0-.1.3-.5.3-.5v-.3c.1,0,.3-.3.3-.3l.4-.3h-.2c0-.1-.3,0-.3,0h-.5c0-.1,0,.3,0,.3h-.4l-.3.3-.2.6h-.2v.2l.5.3.4-.2v-.2c.1,0,.1.1.1.1ZM150.2,17.7l.2-.2v-.3c.1,0,0-.1,0-.1h-.1v.2c.1,0,0,.1,0,.1v.3h0ZM123.2,65v-.2l.3-.3h-.7l-.2.2h-.2v.3l.2.4h.7v-.5s-.2,0-.2,0h0ZM122.7,69.2v.3l-.2.4h.5v-.8h-.3ZM122,64.8h.4v-.6h0l-.2.2v.4h-.2ZM119.9,61.4h-.2v.5l.5.2h.2v-.5h-.2l-.3-.2ZM122,63.2h0v.4l.2-.2-.2-.2ZM123.9,67.9v-.3h0v.2h0ZM126.4,63.4h-.3v.3h0s0-.3,0-.3h.2ZM126.8,64.3l-.2-.2v-.4h-.5v.5h-.4l-.3.2-.2-.2-.2.2h.2l.2.2.4.2h.9v-.4h0ZM118.4,63.6l.2.2v.6l.2.3.2.2.4.5h0l.2.3v.2l.4.7h.9l.2.2.2-.2v-.2h.7l.7-.2v-.6l-.2-.2h-.7l-.3.4h-.4v-.2h.3l.5-.3h.2l.3-.3h-.5l.2-.2v-.2h-.3l.2-.2v-.2l-.3-.2h0v-.4h0l-.3-.4h-.2l-.2-.2-.5-.4h-.5v-.3h0v-.4l-.3-.2h-.2l-.5.3h0l-.3.3v.6l-.2.4v.2l.2.3-.3-.2ZM128.1,57.4v-.4h-.3c0,0-.2,0-.2,0l-.2.3v.2l-.2.3h-.4v-.2h-.3v.4h-.2v.7h.4c0,0,.2,0,.2,0l-.2.3h.2v-.2h.6l.2.2h.2v.2l.4-.3v-.3c-.1,0-.3-.3-.3-.3l.2-.6v-.3q0,0,0,0h-.1ZM132.5,56.7h-.3v-.4c-.1,0,.2-.5.2-.5h-.9l-.2-.3.3-.3-.4-.2v-.2c.1,0-.2-.3-.2-.3l-.4.3h-.3l.4.4.2.3.2.2v.5h-.8v.4h-.1l-.2.6.2.2h.4v-.4c.1,0,0-.4,0-.4h.1l.3-.2.4.3v.3c.1,0,0,.3,0,.3l.2.2.2-.2h.2v-.2h.5v-.4h.1,0ZM126.3,55.4v-.9l-.2-.3h-.2v.9l.2.4h.2ZM127.7,52.4v.8h.2v-.2l-.2-.5v-.4h-.2s.2.3.2.3ZM128.1,53.8h-.3v.5h0c0,0,.2,0,.2,0v.6c.1,0,.1.3.1.3l.3-.2h.5v-.3c.1,0-.2-.2-.2-.2v-1c-.1,0,0,0,0,0v-.4c.1,0,.3-.2.3-.2v-.3c.1,0-.2-.2-.2-.2h-.2v-.4c.1,0,0-.2,0-.2l-.5.5v.2c.1,0,0,.5,0,.5l.2.2v.6h-.3,0ZM131.7,58.5v.4c.1,0,.3-.2.3-.2h0l-.3-.2ZM126.5,49.4h.2l.2-.2v-1.1h.2v-.7h-.2v.7l-.2.4v.8h-.2ZM131.7,54.7h-.1v.2c-.1,0,0,0,0,0v-.2h0ZM129.5,52.3l-.3-.5h-.2v.4h.5ZM123.2,54.6v.2l.3.4.6.3h1.3c0,0-.2-.9-.2-.9v-.3h.3v-.5h-.2l-.3.2h-.6l-.3-.2v-.4h-.5l-.4.4v.2l-.2.2v.4h.3-.1ZM123,55.3v-.3h-.2v.4h.2ZM125,56.8v.2h.2v.3h.4l-.2-.5h-.4ZM119,60v.8h.3l.2.3h.5v-.2h.7v-.4l.2-.3v.3l.3.2v.8l.2.6.3.4h.2l.5-.2h.8v-.4h.6l.2-.2h.4l.5-.3v-.3l.2-.2h.2v.7l.3.5v.3l.4.4v.2h.6l.5.2.5.6.2-.2v-.2l.3-.3v-.4c.1,0,.3-.3.3-.3h.3l.2-.2h.6v-.5h-.1v-.4h.2v-.3c-.1,0-.1-.3-.1-.3.1,0,0-.3,0-.3h-.1l-.3.3h-.1l-.6.4h-.2l-.2.2.3.2v.4h-.6v-1.1h.5l-.2-.8-.4.3h-.3l-.2-.2v.3l-.6.4h-.4v-.7h.2l-.3-.2.3-.5h-.3l-.2-.2-.2.3v.5l-.3.2h0v-.3l-.2-.2h-.2l-.3-.3h-.4l-.3.4h-.3v-.3l-.3.2h-.2v-.4l.5-.2h0v-.2l.2-.2-.2-.3h.4l.3.2.3-.5v-.6l-.2-.3h-.2l-.3-.3v-.7h-.4v-.3h-.5l-.8-.3v-.2h-.4l-.4-.4h-.5l-.8.3h-.6v.3l-.2.4h-.2l-.2.4v1.4l.2.2-.3.2v.5h0v1.4h.2ZM126.7,64.8l-.3-.2-.5.2h-1.2l-.3.4h0l.4-.2v.2l.4.3v.2h-.2l-.2-.3-.2.2.2.4h0l.2.4h.2v.8h-.4v.2l.2.3v.2l.3.3h.6v-.7h0l-.2-.3h.2v-.5l-.2-.2.3-.2v-.2h0l.4-.5v-.4h0l.3-.4ZM124.4,49.7l.2.4v.7l.2.2.5.5v-.2l.6-.2-.2-.2.4-.2v.2h.3l.3.5h.3l-.2.9h.2v-.3l.2-.4h.4l-.3-.5-.3-.2h-.2v-.5h-.2v-.5h-.4v-.2h-.4v-.2l-.4-.2h.4v-.9l-.3-.3-.3.2v.5h-.2l-.2.3h-1l.4.4.3.2h-.1ZM125.6,55.6h-.5v.3h.5v-.3Z"/>
  <g class="st3">
    <path class="st2" d="M51.2,170.8v.2l.3.2.5.3v.7l.5.6,1.1.9-.4.2h-.3l-.4-.2-.3-.2h.4l-.2-.5-.4-.2h-.3c0,.1-.6.8-.6.8h-.4l-.3-.2-.4-.3h0v.4l-.2.2h-.3c0-.1-.2-.2-.2-.2h-.3l.2.5v.6l-.2.5-.4.3v.8l.2.2.4.3.7,1h0v1.2l-.2.3h0c0,.1.3.3.3.3v.8l-.3.4h-.3c0,.1-.3.2-.3.2l-.4.2v.3h-.3l-1.6,1.6-.3.2h-.3c0,.1,0,0,0,0l.2-.2.6-.8.8-.6.2-.2.2-.6-.3-.2-1,.2v-.2l.9-.6.3-.4h.2c0-.1.2-.2.2-.2l.2-.2v-1l-.2-.2h-.2c0-.1-.2-.5-.2-.5v-.7l-.5-.2-.2-.2v-1.6h-.2v-.4l-.2-.3h-.3c0-.1-.2,0-.2,0l-.6.5h-.2c0,.1-.6,0-.6,0v.2l-.5.9v.4h.2c0,.1.4.3.4.3l.2.2v.2l.3.2h.2v-.3l-.2-.5v-.6h.3c0,.1.2.4.2.4v.9l.2.4v.7l-.2.2-.2.7-.2.3v-1.6h-.2v-.4l-.4-.3-.4-.2h-.2c0-.1-.2,0-.2,0h-.3v-.6l.4-1.4h0v-.2l-.4.5-.4.3-.3.4v.6l.5.5v.4l-.2.5v.2h-.8v-.2h.4v-.6h0c0,.1-.3.3-.3.3h0v-.5l-.2-.4h0c0,.1-.3.2-.3.2h-.4v-.2l-.7.4v-.2l.8-.5v-.4l-.3-.3h-.4c0,.1-.2.5-.2.5l-.2.5-.2.2h-.3c0,.1-1,.8-1,.8l-.5.7h-.2c0,.1,0,0,0,0v-.5h.2v-.4h0c0,.1-.5.3-.5.3h-.3c0,.1-1-.3-1-.3h-.2l-.2.3-.3.9-.2.2v.7l.2.9h0v.7h0c0,.1-.2,0-.2,0v-.7l-.2-.2h0c0,.1-.3.8-.3.8h-.2c0,.1-.2.1-.2.1h0v.5h0c0,.1-.2.4-.2.4l-.2-.2h-.4v.4l.6.8.4.4.5.2-.4.3h-.2c0,.1-.3.1-.3.1h-.2v-.3h-.4c0,.1.2.7.2.7l.3.6.4.4h.5v-.5h0c0-.1.4-.1.4-.1h.2c0,.1.2.6.2.6l.2.2h-.2c0,.1-.7,0-.7,0l-.2.3v.5l.2.3h.4c0,.1.3.2.3.2v.2h-.4l-.9-.4-.8.2h-.3c0-.1-.4-.4-.4-.4v.2l-.4.3h0c0,.1-.4.1-.4.1h0c0,.1,0,.4,0,.4h.4l.6.5.6.2.9.9-.3.2-.3-.2-.3-.4-.2-.3h-.2c0-.1-.7,0-.7,0h-.3c0,.1.3.4.3.4l1.2.3v.2h-.4l-.9-.3h-1.7c0-.1-.4,0-.4,0l-1.2.9-.2.2v.3l-.2.2h-.2c0,.1-.2.2-.2.2h-.2v.2c-.1,0,0,.2,0,.2l.3.2v.2h-.1c0,.1-.1.2-.1.2h0c0,.1-.1.2-.1.2h.3l1.4.5.2.2-.2.2.3.2h1.3l.3.3h.2l.2-.4h.6c0-.1.2-.1.2-.1v-.2h0v.5l.2.3h.2c0,.1,0,0,0,0v-.5l.4-.4h.2v.6h0l.2-.2.3.2v.4l-.2.3h-.3l-.3.3-.4.4v.2h.2l.3-.2.2-.2.8-.8.4-.3.4-.5h.3c0-.1.2-.1.2-.1v.5l-.2.3h0c0,.1.4,0,.4,0l.6-.5h1.1c0-.1.4-.3.4-.3l.3-.3h0v.4l-.3.9h-.3v-.2l-.2-.2v.8l-.7.7v.5l-.9.8.2.3h.3c0,.1.5.1.5.1v.2h-.5c0,.1-.8.7-.8.7l-1.6.3-.5.2-.5.4v-.2h0v-.5h-.3c0-.1,0,1.2,0,1.2h-.2c0,.1-.3.1-.3.1,0,.1-1.9,1.5-1.9,1.5h-.5c0,.1-.2.2-.2.2v.2c-.1,0-.2.2-.2.2v.3h.1c0,.1,1.7.1,1.7.1h.3c0,.1.4.4.4.4v.2l-.2.2-.4-.3h-.2c0-.1,0,.2,0,.2v.3h.8c0,.1.3.2.3.2l.3.3.3.3-1.2-.2h-.2c0,.1,0,.2,0,.2h-.2l-.4-.2h-.1c0,.1-.2.5-.2.5h-.1v.3h.5c0,.1.3.3.3.3v.2c0,0,.2.3.2.3l.3.2h.3c0,.1.2.2.2.2v.2h-.8l-.2.2-.4-.6h-.2c0-.1-.4-.3-.4-.3v-.3c-.1,0-.2-.3-.2-.3v-.3c-.1,0-.5-.3-.5-.3l-1.1.3-.4-.4-.4.3h-.3c0,.1-.8.1-.8.1h-.3c0-.1-.4-.3-.4-.3h-.2c0-.1-.3-.3-.3-.3l-.2-.2h-.1c0,.1-.1.2-.1.2h-.1l-1-.2h-.6l-.2.5v.8c-.1,0-.4.5-.4.5l-.4.4-.4.2v.4c.1,0,.1.4.1.4v.4c-.1,0-.1.5-.1.5h-.1v-.9c-.1,0-.3-.4-.3-.4l-.8-.7v-.3c-.1,0,.2-.2.2-.2v-.2l-.3-.2v-.5c.1,0,.1-.3.1-.3v-.2c-.1,0-.2.1-.2.1h-.4c0,.1-.1,0-.1,0l-.2-.6h-.1c0-.1-.8-.5-.8-.5h-.3c0,.1-.2.3-.2.3l-.2.2h-.2c0,.1-.1.1-.1.1l-1.3-.2h-.2c0-.1-.2-.3-.2-.3h-.1c0-.1-.2,0-.2,0h-.3c0,.1-.2.1-.2.1l-2.9-.2h-.3c0-.1-.6-.5-.6-.5h-.4c0-.1-1,.2-1,.2v.6c.1,0,.3.3.3.3l.9.2.3.2h-.4c0-.1-.2-.1-.2-.1h-.1v.3l.3.2.2.2v.2c.1,0-.3-.1-.3-.1l-.6-.4h-.4c0-.1-.2,0-.2,0l-.3.4v.4c-.1,0,0,.4,0,.4h-.2c0,.1-.2.5-.2.5l-.3.2-.2-.2-.3-.2h-.4l-.3-.2v-.5c.1,0,.5.4.5.4h.5l.4-.3.3-.7h-.1v-.2h-.2c0,.1-.1.1-.1.1h-.1c0-.1-.2-.3-.2-.3l-.2.2h-.3c0-.1-.3-.2-.3-.2l-.2-.2h-.1v-.5h0c0-.1-.2-.1-.2-.1h0v.3h0c0,.1-.7.5-.7.5l-.2.2v.3l-.2.4v.3h-.5l.2.2.2.2h.6l-.2.3-.2.2-.2.2v.9l-.5.8v.9l.2.3h.2c0,.1.4.1.4.1h.2v-.4l-.2-.2-.2-.2.3-.2h0v-.7h-.3c0-.2.4-.4.4-.4h.2c0-.1.2-.1.2-.1v-.2h0v-.3h.6v-.3l-.3-.3.3-.3h.3c0,.1.9.9.9.9v.2c-.1,0-.3.1-.3.1h-.4c0-.1.6.5.6.5l.2.3h-.3c0-.1-.1-.2-.1-.2v.4c.1,0,.3.2.3.2l.5.4-.3.2-.8.2h-.3l.3.8.5.3h.4c0-.1.5-.7.5-.7h-.1v-.2h.2c0-.1.1-.2.1-.2v-.2c-.1,0,.4-.1.4-.1h.3c0,.1-.5.5-.5.5l.2.2h-.2c0,.1-.2.3-.2.3v.2h.2c0,.1-.1.3-.1.3h-.3c0,.1-.1.2-.1.2v.5c-.1,0-.1.4-.1.4l.2.2v.2c.1,0,.1.1.1.1h.1c0,.1.4.1.4.1v.4l.2.7v.2c.1,0,.3.1.3.1v-.2c-.1,0-.1-.2-.1-.2h.3c0,.1.1.2.1.2l.2.2v.2c.1,0,0,.3,0,.3v.4c.1,0,.1.2.1.2h-.2c0,.1-.2,0-.2,0v-.6l-.2-.2h-.2c0-.1-.4-.3-.4-.3h-.2c0-.1-.8,0-.8,0v.2h.2v.4c-.1,0-.1.1-.1.1v.3c.1,0-.2.2-.2.2v.8c-.1,0-.3.1-.3.1l.5.6.9-.2,1.7-.9h2.3l.5.2h.1c0-.1.1-.2.1-.2h.2v.2c-.1,0-.1.2-.1.2l-.2.2h-.1c0,.1.3.3.3.3h.2l-.6.5-.2.3v.2c.1,0,.1.2.1.2h-.2c0,.1-.1.1-.1.1h-.1c0,.1.7.4.7.4h.3v.3l-3.1.6h-.2c0-.1-.3-.4-.3-.4h-.1c0,.1-.2.2-.2.2h-.2c0,.1-.4.2-.4.2h-.4c0,.1-.7.2-.7.2v.2c-.1,0,0,.5,0,.5v.4c-.1,0-.3.5-.3.5v.6c-.1,0,.2,1.2.2,1.2l1.3.9.7.3h1.2c0-.1.3,0,.3,0v.2h-1.3c0-.1-.8-.3-.8-.3l-.4-.2h-.1c0-.1-.3-.1-.3-.1l-.5.4h-.5c0,.1-1.3,0-1.3,0l-.6.2.2.3,1,.7h-.1c0,.1-.3.4-.3.4h0c0,.1-.3-.3-.3-.3h0c0-.1-.7-.3-.7-.3h-.8v.4h0c0,.1-.5.1-.5.1h-.4c0-.1-.3-.1-.3-.1l-.4.3v.2h.3l.5-.2.2.2v.3l.2.3v.2l.4.4.6.3h.6c0,.1.3.1.3.1v.3h-.4c0-.1-.4-.3-.4-.3h-.4v.2l.2.2h.2c0,.1.2.1.2.1v.2l-.3.3h-.2c0,.1-.7,0-.7,0h-.3c0,.1-.3.2-.3.2v.3l-.3.5h.5v-.2l.2.3h1.1c0-.1.2,0,.2,0l.2.2v.2l.2.3h.2c0,.1.9.1.9.1h.3c0-.1.2-.1.2-.1h.1v-1l.2-.2h.3c0,.1.2.2.2.2h.1c0-.1.1-.2.1-.2l.2-.2h.2l-.2.3-.3.2v.3c-.1,0,0,.3,0,.3h.5v-.3l.4-.3h.1c0-.1.3-.1.3-.1v.2l-.4.2v.2h.6v.2l-.2.2-.7.5h-.7c0,.1-.1.2-.1.2v.5c-.1,0-.2.4-.2.4h0c0,.1.2.3.2.3l.8-.2.3.3.3.3h.2l.8-.3.3-.4.4-.7.2-.4v-.3h.3l.2-.3h.1c0-.1.1-.1.1-.1h.1c0,.1.1.2.1.2v.2l-.2.5v.5c-.1,0,.2.3.2.3h.3c0-.1.2-.5.2-.5v-.5l-.3-.3.3-.2h.3c0-.1.6,0,.6,0l-.6.3-.2.2.7.7h-.1v.2l-.2.2h0c0,.1-.1.1-.1.1l-.2-.2h-.1l-.3.3v1.2c.1,0-.2.6-.2.6v.2l.3.3h.2l.2-.4v-.6c.1,0,.3-.5.3-.5h.3v.3c.1,0-.2.5-.2.5l.2.3v.2c.1,0,.3.3.3.3l.4.2h1c0-.1.3-.3.3-.3l.5-.3,5.4-.4.6-.3h.3c0-.1,1.3,0,1.3,0v.2h-.2c0,.1-.4.3-.4.3h-.2v.3h.5v.2h-.3l-.8.2-.3.2h.2c0,.1,1.8.1,1.8.1h.3c0-.1.2-.1.2-.1l-.5.4-.3.3-.2.4v.2c.1,0,.2.2.2.2v.6c.1,0-.1-.1-.1-.1h-.2c0-.1-.2-.3-.2-.3l-.2-.2v-.3c.1,0,0,0,0,0h-.2c0,.1-.2.3-.2.3h-.2l-.4-.2v.2l.7.4v.2h-.3c0-.1-.5-.5-.5-.5h-.3c0-.1-1,0-1,0v.2l.8.2.2.3v.4l-.4-.2h-.4c0,.1-.3.3-.3.3h-.4c0,.1-.3,0-.3,0l-.8-.8-.4-.2h-.4c0,.1-.2.6-.2.6l-.3.6-.2.5-.4.4-.9,1.7v.2c.1,0-.1.1-.1.1v.2c-.1,0-.6.8-.6.8l-.2.3-.5.5h.5c0,.1,1.3.1,1.3.1h.3c0,.1-.2.6-.2.6l-1,1v.4c-.1,0-.1.2-.1.2h-.1c0,.1-.1.3-.1.3v.4c-.1,0-.3.3-.3.3v.2c-.1,0-.3.2-.3.2h-.2c0,.1.1.3.1.3v.2h-.1v.2c.1,0,0,.2,0,.2v.6c-.1,0-.3.1-.3.1h-.2l-.3.2h-.7c0-.1-.2,0-.2,0h-.2c0,.1-.2.3-.2.3h-.2c0,.1.1.4.1.4h0c0,.1-3.3,3.3-3.3,3.3l-.9.3-.7.5h-.3v.3l3-.4.4-.4h.1c0,.1.2.2.2.2h.1c0-.1.1-.4.1-.4v-.4c.1,0,.5-.1.5-.1l.7-.2,1.3-.6v-.2c-.1,0-.2-.2-.2-.2h-.1c0-.1-.2-.1-.2-.1v-.2h.8c0,.1-.1.5-.1.5l.2.3h.6c0,.1.1.2.1.2l.2.3h.3c0,.1.4.2.4.2h.8c0-.1,1.2-.5,1.2-.5l.5-.3v.4l-.2.3-.4.2-.3.3h.2c0,.1.2.2.2.2h.4c0-.1.2-.2.2-.2l.3-.3h0c0-.1,1.5-.3,1.5-.3l.3-.2,1.5-2,.5-1v-.4c.1,0,.5-.3.5-.3l.5-.3h.4c0-.1-.1,0-.1,0l-.2.4v.2c-.1,0,.1.1.1.1v.3c.1,0,0,.3,0,.3v.3c.1,0,.1.1.1.1l-.2.2v.2h.2c0,.1.3.2.3.2l1.1-.2h.5c0,.1,1.1.6,1.1.6h.3l-.6.2-2.9.4h-.1c0,.1-.2.3-.2.3v.2c-.1,0-.2.2-.2.2h-.2c0,.1-.4.2-.4.2h-.3c0-.1-.1-.4-.1-.4l-.3.2-2,.7-.3.2-.2.2h-.3c0,.1-.6.2-.6.2h-1.2c0,.1-.2.1-.2.1h-1.3c0-.1-.2-.1-.2-.1h-.1c0,.1-.1.3-.1.3h-.1c0,.1-.2.1-.2.1h-.2c0-.1-.1-.2-.1-.2h-1.3l-.7-.2h-.2c0,.1-.1.2-.1.2h-.1c0,.1-.1,0-.1,0l-.4.5v.2c-.1,0,0,.3,0,.3v.2h-.2v.5c.1,0,.1.2.1.2v.2c-.1,0,.5,0,.5,0l.2.2v.4l-.3-.2h-.4c0-.1-.4-.1-.4-.1l-.3.2-.3.3-.2.2-1.6.8h-1.2c0,.1-.3.2-.3.2l-.2.3.3.3.4.2.9.2.3.3v1.3c-.1,0,0,.5,0,.5h-.4c0,.1-.2.1-.2.1v.2h.2c0,.1.1.1.1.1h.2c0,.1-.2.2-.2.2h-.4c0-.1-.2-.3-.2-.3v.3c.1,0,.1.2.1.2v.2c.1,0,.2.1.2.1l.3-.2h.2c0,.1.6.4.6.4h.7c0,.1.3.3.3.3l-1.2.2-.3-.2h.1c0-.1.2-.1.2-.1h-.3c0-.1-.1,0-.1,0l-.4.4-.2.2h-.7l-.6-.2-.5-.2h-.3c0-.1-.2-.2-.2-.2v-1.4h-.2c0-.1-.5-.1-.5-.1l.4.5-.2.6-.4.5-.5.2-1.1.2h0c0-.1.2-1.2.2-1.2l-.3-.2-1.7.5h-.2c0,.1-.4.7-.4.7l-.2.2h-.3c0,.1-.2.1-.2.1h-.2c0,.1-.2.5-.2.5h0v.2c0,0,0,.2,0,.2v.2c0,0,0,.4,0,.4h-.2c0,.1-.2,0-.2,0l-.4-.3v-.3c.1,0-.2.1-.2.1l-.3.2-.2.2.2.2v.2l-.4.3h-.9c0,.1.1.6.1.6v.5l.2.3.4.2h.3c0-.1.7-.4.7-.4h.4-.2c0-.1-.1-.2-.1-.2v-.2h.4l.8.3h.4c0,.1,0-.1,0-.1h-.2c0-.1-.2-.2-.2-.2h-.2v-.2h.5c0-.1.2-.1.2-.1l.4.5h.2v-.3h0c0-.1.2.1.2.1l.2.3h.2c0,.1.3-.1.3-.1l2.3-.6h.7c0,.1.2.2.2.2l.2.2v.4c.1,0,.2-.1.2-.1v-.3c.1,0,0-.5,0-.5l3.3-.2-.6.3h.1c0,.1.1.3.1.3h.1c0,.1-1.2.3-1.2.3h-.5l-.5-.4-.4,1.6v.3c.1,0-.4,0-.4,0v-.3c-.1,0-.1-.4-.1-.4h-.2l-.3.9-.7.4-1.6.3-1,.5-.5.3h-.4c0,.1-.4.3-.4.3l.2.4h-.2c0,.1-.5.3-.5.3h-.2v.3h.4v.3l.3.3h.2v.6h-.2c0,.1-.3.1-.3.1l-1.4.5h-.5v.2h.2v.2h-.1v.2h.1v.5c-.1,0,.4,0,.4,0h.3v.4l-.2.8v.3h.3c0-.1.5-.6.5-.6h.2c0-.1.2-.3.2-.3l.5-.6.2-.2.6.4.3.7v.6l-.8.2,1.6.8v.3h.3c0-.1.4-.4.4-.4l.5-.3.3-.4.4.2.4-.2.7-.5h.2c0-.1.4-.2.4-.2h.2v-.2c.1,0,.2-.1.2-.1h.1c0-.1.2-.1.2-.1v.6c-.1,0,0-.1,0-.1l.5-.3v-.2c-.1,0,.2-.1.2-.1h.5v-.2c.1,0,.3-.1.3-.1l.3-.2,1.7-.7,1.2-.2v.2l-.5.2-1,.6h-.5c0,.1-.6.1-.6.1h-.1c0,.1-.2.5-.2.5l-.3.2-.4.5h-.2v.3l.3.2h.1v.2h-.9c0-.1-.2-.2-.2-.2v.4c-.1,0-.3.3-.3.3l-.2.2h-.3.1c0-.1.1-.4.1-.4h0c0-.1-.4,0-.4,0l-.6.3-.5.4-.3.5h.7v.2l-.8.7-.4.2h-.7c0-.1-.3,0-.3,0l-.2.3h.5v.6h0v.2h-.3c0,.1-1.1.5-1.1.5h0v.5h-.2c0,.1.2.3.2.3l.2-.3.4-.2h.8c0-.1.2-.1.2-.1l.3.2h.2l.4-.3,1-.4h.2v-.4l.3-.2.6-.3,2.1-.3.6-.2,1.1-.2h.3c0-.1.4-.3.4-.3l.4-.5h.3c0-.1.3-.2.3-.2l-.2-.3v-.8h.3c0,.1.1.2.1.2h.1c0,.1.1.3.1.3v.3c-.1,0-.1.1-.1.1h.2l.4.3h.3c0-.1.3-.2.3-.2h.2v.3h-.1v.2h-.1c0,.1-.1.6-.1.6l-.4.2h-.6c0,.1-.7.5-.7.5h-.5l-.2.4-2.1,1.1-.6.2-.2.3v.2c-.1,0-.3.2-.3.2h-.1l-.7.5h1c0-.1,3.2-1.7,3.2-1.7h.8l-.3.3-.6.2-.4.3-.7.8-.3.3-.3.2h-.6c0,.1-.3.3-.3.3l-.6.6-.3.2-.4.2v.2c.1,0,.2.1.2.1h.2v.2h-.1v.6c-.1,0,0-.2,0-.2v.2c.1,0,.5-.5.5-.5h.2v.3c-.1,0,1.1-.6,1.1-.6h-.1l-.2-.2,1-.8v-.2c.1,0,.3.1.3.1l.2.3v.3h.5c0-.1.3-.4.3-.4h.5v-.4h.1c0-.1,1.1-.3,1.1-.3l.5-.3v-.3c-.1,0,.1-.1.1-.1h.3c0,.1.3.2.3.2v.2c.1,0,0,.4,0,.4v.3c-.1,0-.1.2-.1.2l.2.3.3-.3.2-.2v-.2c.1,0,.6-.3.6-.3h.1c0-.1.1,0,.1,0h.1c0,.1-.3.3-.3.3l-.4.2v.3c-.1,0-.3.4-.3.4h.3l.2-.2v.3c-.1,0-.2.1-.2.1l-.2.2h-.2c0,.1.6.1.6.1h.2c0-.1.2-.3.2-.3h.1c0-.1.2,0,.2,0h.1v-.3l.4-.3h.1v.4c.1,0,.1.2.1.2h.2c0-.1.1-.1.1-.1h.2c0,.1.2.1.2.1v-.2c.1,0,.2-.2.2-.2v-.2h.3v-.4h.1c0-.1.4,0,.4,0h.3l.2-.2.3-.2v-.3c.1,0-.1-.1-.1-.1v-.3h.2c0,.1.3.3.3.3h.3c0,.1.9-.1.9-.1l.2-.2h.4c0,.1.3.3.3.3h.2v.4c.1,0,.3.1.3.1v-.3c.1,0,.1-.1.1-.1l.6-.2.2-.3.2-.5.2-.3.3.2h.2c0-.1.2-.1.2-.1h.2c0,.1.6.1.6.1h.1c0,.1.1.3.1.3h.2c0,.1.1,0,.1,0h.6c0,.1-.1-.3-.1-.3v-.2c.1,0,.2-.2.2-.2l.2-.2h-.4c0-.1.1-.2.1-.2h.1v-.3h-.9c0-.1-.2-.4-.2-.4l2,.2.8-.2h.3l.2.2.2.5.3.2v-.3l-.2-.4v-.3h0c0-.1.2-.8.2-.8h.3v-.6h-.2v.2h-.6c0-.1-.2-.2-.2-.2h0c0-.1.8-.1.8-.1l.3.2.2.5h.2v-.8h-.3c0-.1.2-.1.2-.1,0-.1.2,0,.2,0l.3.2v.3l.3-.3h.2c0-.1.6-.3.6-.3l.5-.2v-.3l.7-.6v-.3h0v-.4h0c0-.1.3-.5.3-.5h-.6v-.2h.2c0-.1-.2-.2-.2-.2v-.2h0v-.2h-.8l.3-.8-.4-.3-.7-.2-.5-.2.3-.2h1.3c0-.1.3-.2.3-.2h.3c0-.1.2.1.2.1h0c0,.1.6.1.6.1h.4c0,.1.2.2.2.2v-.2h.3v.2h-.2v.6h0c0,.2-.2.4-.2.4l-.3.2h-.2c0,.1-.2.1-.2.1v.3h0c0,.1-.2.1-.2.1h0v.5h0c0,.1,1.9.1,1.9.1,0-.1.6-.4.6-.4l1.3-.2.2-.2-.3-.4.3-.3.8-.4h.7c0-.1.4-.3.4-.3l.2-.3h-.2l-.5-.5h.3l.3-.2.3-.3.2-.3v-1.1l.3.2v.6l1.8.2h0v-.8l.5-.2h.9c0,.1.3-.1.3-.1h0c0-.1.2-.1.2-.1h0v-1.1l.6-.4v-.3h0c0-.1-.5-.4-.5-.4h-.5l-.2.2v-.8c0,0,.4-.2.4-.2h.3c0-.1,0,.3,0,.3h.2c0,.1.3.1.3.1v-.3h0l.6-.2,1.2-.6,3.2-.4.6.2h.3l.3-.2h0v-.5h.7c0,.1.2.2.2.2h0v-.2h0v-.4h.5l.3.2-.4.6v.3h.2c0-.1,1.1-.1,1.1-.1,0-.1.3-.3.3-.3l.5-.7.3-.2v-.2h-.4v-.9c0,0,0-.3,0-.3l-.3-.4v-1.2.3c0,0,.3.9.3.9h.2c0,.1.2.2.2.2l.2.3v.2l.2.2.3,1.1v.3l-.2.2h-.2c0,.1-.2.3-.2.3v.5c0,0,.4-.2.4-.2l.2-.4h0c0-.1,1.2-.9,1.2-.9v-.2h0v-.2h-.2v-.7h0c0,.1-.2.2-.2.2v-.8l.4.2h.4c0-.1.2-.4.2-.4l.2-.3v.4l-.2.4-.2.2h-.2v.3h.3c0,.1,1.1-.1,1.1-.1l1.3.4h.3c0,.1.4.6.4.6h.3l.7-.4h.8c0-.1.3-.3.3-.3h.2l.2.2h-.4c0,.1.8.1.8.1h0c0-.1.3-.2.3-.2v-.2h.2c0-.1.2-.1.2-.1v.5h-.3v.3h.2c0,.1.3.1.3.1l.2-.2.2-.3.5-1.2-.9-.8-.3-.6.2-.6v-.2l-.4.7-.2.2v-.3l-.2-.2h-.5v-.8l-.3-.3-.3-.2h-.2v-.4h.3v-.2.5h.3c0,.1,1,0,1,0h0v.2l.2.2v-1.8l.5-.7.3-.3.2-.2.3-.4,1-1.6.3-.5v-1.6l-.2-.8v-.9l.8-1.4.4-.8v-.7l.3-1.3.2-.4.2-.2.7-.7-.2-.2.6-1.3.2-.2v-.2l.2-.5h0c0-.1.3-.2.3-.2v-.2l-.8-.8-.2-.4v-.5l.2-.4v-1.8h0v-.2l-.5-1.2-.3-.3.2-.5v-.3l-.3-.3-.2-.3v-1.9h-.2v-.2h-.2c0-.1-.4-.2-.4-.2l-.3-.2-.3-.5-.4-.4v-.6l.9-.7h.2c0-.1.2-.2.2-.2h.3l.2.3h0c0,.1.3.2.3.2l.2.2h.2l.2-.5-.3-.2h-.7c0-.1-.3-.2-.3-.2h0v-.3h0c0-.1-.2-.3-.2-.3v-.6l-1.2-.6.3-.2h.3c0-.1.3,0,.3,0v.2l.3-.2.2-.5v-.6l.4-.5v-.8l-.2-.4v-.2l-.4-.3-.5-.2-.5-.3-.3-.7-.4-.3-.2-.2v-.3l-.2-.4v-.4l-.2-2v-.7l.4-.4-.3-.3-.2-.5v-.4l.2-.6v-.2h-1.2c0-.1-.6-.4-.6-.4l-.4-.5v-1.9l.2-.5.2-.3v-.3h0v-.4l.8.2,1.2.5h.2c0-.1.3,0,.3,0l.4.3h.4c0,.1.3,0,.3,0l.5-.6v-.4l-.3-.5h-.2c0-.1-.4-.1-.4-.1h0c0-.1-.2-.5-.2-.5h0c0-.1-.3-.3-.3-.3l-1-1v-.2l.4.2h.5l.5.2v.5h.4l1.2.5h0l-.3.2v.2l.3.2h1.1c0-.1.7-.7.7-.7l.5-.5.7-.4.3-.4.2-.4v-.6l.2-.6v-2h.5c0-.1.3-.1.3-.1,0-.1.7-.3.7-.3h.7c0-.1,1,0,1,0l.2.2v.2h.4v-.7h.4l.5-.6.5-.6.2-.9-.2-1-.5-.6-.7.2-.7.5-.7.2.2-.3.6-.5v-.2l.6-1.5-.2-.2v-.2h0c0-.2-.2-.3-.2-.3v-.2l-.2-.3v-.4l-.4-.3h0c0-.1.4-.2.4-.2h.3c0-.1-.2-.3-.2-.3h-.8v-.2l-.2-.2h-.2c0-.1.2-.4.2-.4v-.8h.5c0,.1.4.3.4.3l1.2,1.1.3.5.2.7v1.3l-.4.5v1l.3.3h.2v.6l.2.4.2.2h.2l.2-.4h.3c0-.1-.3-.5-.3-.5v-.2l.3-.2.2-.2v-1l.2-.3.3-.5v-.2h0v-.3h0v-.4h0c0-.1-.5-.9-.5-.9v-.4l-.2-1.1v-.3h-.4c0-.1-.2-.5-.2-.5l-.2-1.1v-.7h-.4c0-.1-.2-.5-.2-.5h0c0-.1-2,.2-2,.2h-.3l-.3-.2h-.3c0-.1-.3,0-.3,0l-.6.5-.6.3v.2l-.5.6h-.2v.5h-.3v-.7l-.2-.2.6-1.1.3-.4.4-.4.5-.3,1-.3.4-.2.4-.4.3-.7v-.8l-.2-.9-.3-.5-.5-.4-.5-.2-.3.5,1.1,1.2.3.6h0l-.4-.6-.5-.2-.4-.3-.2-.8v-.4l-.2-.4v-.3l-.3-.2h0c0-.1-.3-.4-.3-.4h0v-.8l-.2-.2-.3-.5-.4-.4-.4-.2h-.5v-.3l.3-1.1v-.8h-.2c0-.1-.2-.3-.2-.3h-.9v-.3l.2-.6v-2.4l-.8-.7h0v-.3l-.4-.2h-.6c0-.1-.3,0-.3,0l-.7.2h-.3c0,.1-.3,0-.3,0l-1.6-.9h-.4c0-.1-.7.3-.7.3h-.4c0-.1-.6-.5-.6-.5h-.3c0,.1-.4.2-.4.2l-.3.3-.3.4-.3.2h-1.1c0,.1-1.9,1-1.9,1h-2.1c0,.1-.4,0-.4,0l-.7-.5h-.3v.4l-.2,1.3-.2.3v.2l-.3.5-.2.5v.4l-.2.2-.4.5h-.2c0,.1-.5.2-.5.2h-.6c0-.1-.7-.5-.7-.5h-.3l-.6.2-.3-.6h0c0,.1,0,0,0,0l.3-.5.2-.5.7-1,.3-.2.4-.2.6-.3.5-.5.6-.4.5-.2h.5c0-.1.5-.4.5-.4v-.6l-.2-.5-.4.2-.3-.3-.8-.3h-.6c0-.1-.8-.5-.8-.5l-.3-.2-.8-1.3-.3-.2-.6-.4h-.3l-1.1-.4-.6-.4h-.5,1.9Z"/>
    <path class="st1" d="M80,204v.2h.4v-.7h.4l.5-.6.5-.6.2-.8-.2-1.1-.5-.6-.7.2-.7.5-.7.3.2-.3.6-.5v-.3l.6-1.5-.2-.2v-.2l.2-.2h-.3v-1l-.4-.3h0c0-.1.4-.2.4-.2h.3c0-.1-.2-.2-.2-.2h-.6c0-.1-.2-.2-.2-.2h0c0-.1-.2-.2-.2-.2h-.2v-.2l.3-.3v-.7h.5l.4.3,1.2,1.1.3.5.2.6v1.4l-.4.4-.2.4v.3l.2.3.2.3h.2v.6l.2.4.2.3h.2c0-.1.2-.5.2-.5h.3c0-.1-.3-.5-.3-.5v-.2l.3-.2.2-.2v-.9l.2-.4.3-.5v-.2h0v-.7h0l-.5-.9v-.4l-.2-1.1v-.2l-.4-.2-.2-.4-.2-1v-.6h0v-.2h-.2c0-.1-.2-.5-.2-.5h0c0-.1-2,.3-2,.3h-.4c0-.1-.2-.3-.2-.3h-.3c0-.1-.3,0-.3,0l-.6.4-.6.3-.2.2-.3.6-.2.2v.2h-.2c0,.1-.2.1-.2.1v-.7h-.3c0-.1.6-1.2.6-1.2l.4-.5.4-.4.5-.2.9-.3.5-.3.4-.4.2-.6v-1.8l-.3-.4-.5-.5h-.5c0-.1-.3.4-.3.4l1.1,1.1.3.6h0l-.4-.6-.5-.2-.4-.2-.2-.8v-.5l-.2-.3v-.3l-.3-.2v-.2l-.4-.2h0v-.8l-.2-.2-.3-.5-.4-.4-.5-.2h-.4v-.3l.3-1.1v-.8l-.2-.2h-.2c0-.1-.9-.1-.9-.1v-1.4l.2-1.6-.2-.3-.6-.7h0c0-.1-.2-.3-.2-.3l-.3-.2h-.6c0-.1-.4,0-.4,0l-.6.2h-.4c0,.1-.2,0-.2,0l-1.7-.9h-.4c0-.1-.6.3-.6.3h-.4c0-.1-.6-.5-.6-.5h-.4c0,.1-.3.2-.3.2l-.4.3-.2.4-.3.2h-1.1c0,.1-1.9,1-1.9,1h-2.2c0,.1-.3,0-.3,0l-.7-.5h-.3v.4l-.2,1.3-.2.3-.2.2-.2.5v.9l-.3.2-.3.4-.2.2h-.6c0,.1-.6,0-.6,0l-.7-.4h-.3l-.7.2h-.3l.2-.6h-.2c0,.1-.2.2-.2.2h0c0,.1-.2.4-.2.4h0c0,.1-1.1.3-1.1.3h0c0,.1-.2.3-.2.3l-.5.8v.2h0v1.3l-.2.2h-.3c0,.1-.2.3-.2.3v1.4l-.2.6-.3.5-1.2,1.6v1.3h0c0,.1-.2.2-.2.2h-.5c0-.1-.5,0-.5,0h-.6c0-.1-.3,0-.3,0l-.5.6-.6.3h-.6c0,.1-.5-.2-.5-.2l-.5-.4h-.2l-.6.5-.8.4.3.3h0l-.2.5.2.3h.2c0,.1.3.2.3.2h.2v.5h.2c0,.1.3,0,.3,0h.3c0,.1.6.6.6.6h.2c0,.1.3,0,.3,0l.2-.2h.2v.6l-.6.2-1.7,1.6-.6.3h-.7l-1.2-.3-.4.4-.3.5-.2.4h0c0,.1-.2.3-.2.3l-.4.2-.9.3-.4.2.2.2v.5l.2.2.4.4.7,1,.4.4.4.3h.5l.3.9.2.4.3.3h.3c0,.1.7.2.7.2l.2.2v.5l.2,1.2.2.5.3.2h.9c0,.1,1,0,1,0h.3c0,.1,1.2,1,1.2,1v.2l.2.2v.3h.2c0,.1,1.8.5,1.8.5h.4c0-.1.6-.6.6-.6h.5l-.2.3h.3l.2.3h0c0,.1.3.1.3.1l.8.2h.3l-.4-.8v-.2h0c0-.1.5-.4.5-.4h0v1.1h0c0,.1.2,0,.2,0l.2-.2v-.8l.3-.2h0v-.3h0v-.4h0v-.3h.2c0-.1,1-.4,1-.4l.3-.2v-.8c0,0-.5-.5-.5-.5v-.4l-.4-.3v-.3h0v-.3h0v-.3h0v-.3h.5l.5-.4.9-1.3.4-.5h.6l.5.3,1.1.9h0v.6h.2c0,.1.2.1.2.1h0c0,.1.3,1.1.3,1.1v.7l-.4.2.6.3.2.2v.5l.2.3.3.4.3.4.4.3.3.2h.2c0,.1,0,0,0,0l.2-.2h0c0-.1.2-.1.2-.1h.2c0,.1.4.4.4.4l.4.5v1l-.5.5.2.3v.4l-.3.6.3.2.4.6h.2c0,.1.2-.2.2-.2h0c0-.1.3-.1.3-.1h0c0,.1,1.4-.4,1.4-.4h.5c0-.1,0,0,0,0h0v.2h0c0,.1.4,0,.4,0h.5v-1l.2-.4h0c0,.1.2.2.2.2l.2.2h.2c0-.1.2-.2.2-.2h.3l.2.2v-.2l.5.2h.9c0,.1.2.7.2.7h.2l1.3.5h0l-.4.2h0c0,.1.3.4.3.4h1c0-.1.2-.2.2-.2l.7-.5.5-.6.7-.3.3-.4.2-.4v-.6l.2-.6v-2h.5c0-.1.3-.1.3-.1,0-.1.7-.3.7-.3h.7c0-.1,1,0,1,0l.2.2h.7Z"/>
    <path class="st0" d="M104.4,119.5c-5.4,0-9.7,4.2-9.7,9.4,0,9,9.6,20.6,9.6,20.6,0,0,9.7-11.7,9.7-20.6s-4.3-9.4-9.6-9.4ZM104.4,133.2c-2.7,0-4.8-2.2-4.8-5s2.2-5,4.8-5,4.8,2.2,4.8,5-2.2,5-4.8,5Z"/>
  </g>
</svg>