<svg xmlns="http://www.w3.org/2000/svg" style="display: none;">
	<symbol id="speech" viewBox="0 0 64 64">
		<title>speech bubble</title>
		<path fill="currentColor" d="M59.904 6.4h-55.808c-0.896 0-1.536 0.64-1.536 1.536v35.328c0 0.768 0.64 1.536 1.536 1.536h13.312v11.52c0 0.512 0.256 1.024 0.768 1.28l0.768 0.256 0.64-0.128 24.448-12.8h16.128c0.768 0 1.536-0.64 1.536-1.536v-35.456c-0.256-0.896-0.896-1.536-1.792-1.536zM58.496 41.728h-14.976l-0.64 0.128-22.656 11.904v-10.496c0-0.768-0.64-1.536-1.536-1.536h-13.184v-32.384h52.992v32.384zM14.336 22.656h35.328c0.768 0 1.536-0.64 1.536-1.536 0-0.768-0.64-1.408-1.536-1.408h-35.328c-0.768 0-1.408 0.64-1.408 1.408s0.64 1.536 1.408 1.536zM14.336 31.488h35.328c0.768 0 1.536-0.64 1.536-1.408s-0.64-1.536-1.536-1.536h-35.328c-0.768 0-1.408 0.64-1.408 1.536 0 0.64 0.64 1.408 1.408 1.408z"></path>
	</symbol>
	<symbol id="computer" viewBox="0 0 64 64">
		<title>computer</title>
		<path fill="currentColor" d="M11.008 42.112h42.112c0.768 0 1.408-0.64 1.408-1.408v-25.216c0-0.768-0.64-1.408-1.408-1.408h-42.112c-0.768 0-1.408 0.64-1.408 1.408v25.216c0 0.768 0.64 1.408 1.408 1.408zM12.416 16.896h39.296v22.4h-39.296v-22.4zM60.032 43.52h-56.064c-0.768 0-1.408 0.64-1.408 1.408s0.64 1.408 1.408 1.408h56.064c0.768 0 1.408-0.64 1.408-1.408s-0.64-1.408-1.408-1.408z"></path>
	</symbol>
	<symbol id="download" viewBox="0 0 64 64">
		<title>download</title>
		<path fill="currentColor" d="M31.104 45.056c0.128 0.128 0.256 0.128 0.256 0.256 0.128 0 0.128 0.128 0.256 0.128 0.256 0.128 0.384 0.128 0.64 0.128s0.384 0 0.64-0.128c0.128 0 0.128-0.128 0.256-0.128 0.128-0.128 0.256-0.128 0.256-0.256l17.28-17.28c0.64-0.64 0.64-1.664 0-2.432-0.64-0.64-1.664-0.64-2.432 0l-14.336 14.464v-35.584c0-0.896-0.768-1.664-1.664-1.664s-1.664 0.768-1.664 1.664v35.584l-14.464-14.464c-0.64-0.64-1.664-0.64-2.432 0-0.64 0.64-0.64 1.664 0 2.432l17.408 17.28zM57.088 48.64c-0.896 0-1.664 0.768-1.664 1.664v7.808h-46.976v-7.808c0-0.896-0.768-1.664-1.664-1.664s-1.664 0.768-1.664 1.664v9.472c0 0.896 0.768 1.664 1.664 1.664h50.304c0.896 0 1.664-0.768 1.664-1.664v-9.472c0-0.896-0.768-1.664-1.664-1.664z"></path>
	</symbol>
	<symbol id="bar" viewBox="0 0 64 64">
		<title>bar</title>
		<g fill="currentColor">
			<path d="M16.64 17.536c2.688 0 4.992-2.176 4.992-4.992s-2.304-4.864-4.992-4.864c-2.688 0-4.992 2.176-4.992 4.992s2.176 4.864 4.992 4.864zM16.64 10.112c1.408 0 2.432 1.152 2.432 2.432s-1.152 2.56-2.432 2.56c-1.408 0-2.432-1.152-2.432-2.432s1.024-2.56 2.432-2.56z"></path>
			<path d="M43.136 25.088c-0.64 0-1.28 0.512-1.28 1.28v6.144h-19.072v-6.144c0-0.64-0.512-1.28-1.28-1.28s-1.28 0.512-1.28 1.28v6.144h-7.424v-6.144c0-0.64-0.512-1.28-1.28-1.28-0.64 0-1.28 0.512-1.28 1.28v6.144h-1.28v-9.088c0-0.512 0.256-0.896 0.64-0.896h13.696c0.256 0 0.64 0.384 0.64 0.896v6.016c0 0.512 0.256 0.896 0.768 1.152 0.512 0.128 1.024 0.128 1.408-0.256l5.504-5.76c0.512-0.512 0.512-1.28 0-1.792s-1.28-0.512-1.792 0l-3.456 3.584v-2.944c0-1.792-1.408-3.328-3.072-3.328h-13.568c-1.664 0-3.072 1.536-3.072 3.328v9.088h-2.816c-0.64 0-1.28 0.512-1.28 1.28 0 0.64 0.512 1.28 1.28 1.28h38.016v23.552c0 0.64 0.512 1.28 1.28 1.28 0.64 0 1.28-0.512 1.28-1.28v-32.384c-0.128-0.64-0.64-1.152-1.28-1.152z"></path>
			<path d="M48 17.536c2.688 0 4.992-2.176 4.992-4.992s-2.176-4.864-4.992-4.864c-2.688 0-4.992 2.176-4.992 4.992s2.304 4.864 4.992 4.864zM48 10.112c1.408 0 2.432 1.152 2.432 2.432s-1.152 2.432-2.432 2.432c-1.408 0-2.432-1.152-2.432-2.432s1.152-2.432 2.432-2.432z"></path>
			<path d="M60.16 32.512h-2.304v-9.6c0-1.536-1.28-2.816-2.688-2.816h-14.336c-1.152 0-2.688 0.64-3.456 1.536l-6.4 6.912c-0.512 0.512-0.384 1.28 0.128 1.792s1.28 0.384 1.792-0.128l6.4-6.912c0.384-0.384 1.152-0.768 1.664-0.768h14.336c0.128 0 0.256 0.128 0.256 0.256v9.6h-1.28v-6.144c0-0.64-0.512-1.28-1.28-1.28-0.64 0-1.28 0.512-1.28 1.28v7.296c0 0 0 0.128 0 0.128s0 0.128 0 0.128v24.704c0 0.64 0.512 1.28 1.28 1.28 0.64 0 1.28-0.512 1.28-1.28v-23.552h5.888c0.64 0 1.28-0.512 1.28-1.28 0-0.64-0.512-1.152-1.28-1.152z"></path>
		</g>
	</symbol>
	<symbol id="globe" viewBox="0 0 64 64">
		<title>globe</title>
		<path fill="currentColor" d="M47.744 9.728c-5.248-5.12-12.416-7.68-20.096-7.040-0.768 0-1.28 0.64-1.152 1.408 0 0.768 0.64 1.28 1.408 1.152 8.96-0.64 14.848 3.072 18.176 6.272 4.992 4.864 7.68 11.904 7.296 19.2-0.512 10.88-7.936 22.656-22.784 22.912v-2.944c11.136-0.64 20.096-9.984 20.096-21.376 0 0 0 0 0 0s0 0 0 0c0-11.776-9.6-21.376-21.376-21.376 0 0 0 0-0.128 0-11.904 0-21.504 9.6-21.504 21.376 0 11.392 8.96 20.736 20.096 21.376v8.192h-10.752c-0.768 0-1.28 0.64-1.28 1.28 0 0.768 0.64 1.28 1.28 1.28h24.064c0.768 0 1.28-0.64 1.28-1.28 0-0.768-0.64-1.28-1.28-1.28h-10.752v-2.688c0 0 0 0 0 0v0c16.512-0.256 24.704-13.312 25.344-25.344 0.512-8.064-2.432-15.744-7.936-21.12zM32.384 47.872c1.792-1.92 3.2-3.968 4.352-5.888 1.408 0.512 2.944 1.152 4.352 1.792-2.432 2.048-5.504 3.456-8.704 4.096zM43.008 41.856c-1.664-0.896-3.456-1.664-5.12-2.304 1.408-2.944 2.304-6.016 2.432-8.96h7.424c-0.256 4.352-1.92 8.32-4.736 11.264zM47.872 28.032h-7.424c-0.128-2.944-1.024-6.016-2.432-8.96 1.664-0.64 3.456-1.408 5.12-2.304 2.688 3.072 4.352 6.912 4.736 11.264zM41.088 14.848c-1.536 0.768-2.944 1.408-4.352 1.792-1.152-1.92-2.688-3.968-4.352-5.888 3.2 0.64 6.272 2.048 8.704 4.096zM30.336 12.544c1.408 1.664 2.688 3.328 3.712 4.992-1.28 0.256-2.56 0.384-3.712 0.512v-5.504zM30.336 20.48c1.664-0.128 3.328-0.384 4.992-0.768 1.408 2.816 2.176 5.504 2.432 8.32h-7.424v-7.552zM30.336 30.592h7.424c-0.128 2.688-1.024 5.504-2.432 8.32-1.664-0.384-3.328-0.64-4.992-0.768v-7.552zM30.336 40.704c1.28 0.128 2.432 0.256 3.712 0.512-1.024 1.664-2.304 3.328-3.712 4.992v-5.504zM25.856 10.752c-1.792 1.92-3.2 3.968-4.352 5.888-1.408-0.512-2.944-1.152-4.48-1.92 2.432-1.92 5.504-3.328 8.832-3.968zM15.104 16.768c1.664 0.896 3.456 1.664 5.12 2.304-1.408 2.944-2.304 6.016-2.432 8.96h-7.424c0.256-4.352 2.048-8.192 4.736-11.264zM10.368 30.592h7.424c0.128 2.944 1.024 6.016 2.432 8.96-1.664 0.64-3.456 1.408-5.12 2.304-2.688-2.944-4.48-6.912-4.736-11.264zM17.024 43.776c1.536-0.768 2.944-1.408 4.48-1.92 1.152 2.048 2.56 3.968 4.352 5.888-3.328-0.512-6.4-1.92-8.832-3.968zM27.776 46.208c-1.408-1.664-2.688-3.328-3.712-4.992 1.28-0.256 2.56-0.384 3.712-0.512v5.504zM27.776 38.144c-1.664 0.128-3.328 0.384-5.12 0.768-1.408-2.816-2.176-5.504-2.432-8.32h7.424v7.552zM27.776 28.032h-7.424c0.128-2.688 1.024-5.504 2.432-8.32 1.664 0.384 3.328 0.64 5.12 0.768v7.552zM27.776 17.92c-1.28-0.128-2.432-0.256-3.712-0.512 1.024-1.664 2.304-3.328 3.712-4.992v5.504z"></path>
	</symbol>
	<symbol id="hands" viewBox="0 0 64 64">
		<title>shaking hands</title>
		<path fill="currentColor" d="M60.16 17.92h-9.344c-0.768 0-1.28 0.768-1.28 1.28v1.28h-5.12l-11.392-2.56c-0.128 0-0.256 0-0.256 0-0.384 0-0.64 0.128-0.896 0.256l-2.816 2.432h-14.464v-1.28c0-0.64-0.64-1.28-1.28-1.28h-9.472c-0.768 0-1.28 0.768-1.28 1.28v21.376c0 0.64 0.64 1.28 1.28 1.28h9.344c0.64 0 1.28-0.64 1.28-1.28v-1.28h1.28l6.272 9.984c0.896 1.408 2.56 2.048 3.84 2.048 1.536 0 2.688-0.896 3.456-2.048 0.768 0.512 1.792 0.768 2.56 0.768 1.024 0 2.048-0.256 2.944-0.896 0.512-0.384 1.024-0.896 1.28-1.408 0.64 0.256 1.152 0.384 1.792 0.384 0.896 0 1.92-0.256 2.944-0.896 0.512-0.384 1.024-0.896 1.408-1.536 0.768 0.256 1.664 0.384 2.432 0.384 1.664 0 3.072-1.152 3.712-2.432s0.896-2.944 0.128-4.224h0.896v1.28c0 0.64 0.64 1.28 1.28 1.28h9.472c0.64 0 1.28-0.64 1.28-1.28v-21.632c0-0.64-0.64-1.28-1.28-1.28zM11.904 39.296h-6.656v-18.688h6.656v18.688zM44.032 43.392c-0.768 0-1.536-0.384-1.92-1.024-0.256-0.384-5.632-9.088-5.632-9.088-0.384-0.64-1.28-0.768-1.792-0.384-0.64 0.384-0.768 1.28-0.384 1.792 0 0 4.864 7.552 5.12 7.936 0.64 1.28-0.256 2.688-1.28 2.688-0.64 0-1.28-0.384-1.664-0.896-0.256-0.384-4.608-7.168-4.608-7.168-0.256-0.384-0.768-0.64-1.28-0.64-0.896 0.128-1.536 1.28-1.024 2.048 0 0 3.584 5.632 3.84 6.016 0.768 1.28-0.256 2.688-1.28 2.688-0.768 0-1.408-0.384-1.792-1.024-0.128-0.256-3.072-5.632-3.072-5.632-0.256-0.512-0.768-0.768-1.28-0.768-0.896 0.128-1.408 1.28-1.024 2.048 0 0 2.304 3.584 2.56 4.096 0.64 1.28-0.256 2.688-1.28 2.688-0.64 0-1.152-0.256-1.536-0.768-0.128-0.256-6.656-10.624-6.656-10.624-0.256-0.384-0.64-0.64-1.152-0.64h-2.048v-13.44h11.136l-1.92 1.664c0 0 0 0 0 0-1.28 1.152-2.432 2.56-2.432 4.352 0 1.28 0.384 2.56 1.408 3.584s2.56 1.664 4.608 1.664c0.256 0 0.512 0 0.64-0.128l10.88-6.016c0 0 7.040 11.136 7.168 11.52s0.256 0.768 0.256 1.152c-0.256 1.152-1.28 2.304-2.56 2.304zM49.408 36.608h-2.432l-6.4-10.752c-0.384-0.64-1.152-0.768-1.792-0.512l-11.648 6.528c-1.28-0.128-2.048-0.512-2.432-0.896s-0.64-1.024-0.64-1.792c0-0.64 0.384-1.408 1.536-2.304v0l7.552-6.272 10.752 2.56c0.128 0 0.256 0 0.256 0h5.376v13.44zM58.752 39.296h-6.656v-17.152c0-0.128 0-0.256 0-0.384v-1.152h6.656v18.688z"></path>
	</symbol>
	<symbol id="document" viewBox="0 0 64 64">
		<title>document</title>
		<path fill="currentColor" d="M52.096 2.56h-29.44c-0.384 0-0.768 0.128-1.152 0.512l-10.88 10.88c-0.256 0.256-0.384 0.64-0.384 1.024v44.928c0 0.896 0.64 1.536 1.536 1.536h40.32c0.896 0 1.536-0.64 1.536-1.536v-55.808c0-0.896-0.64-1.536-1.536-1.536zM21.12 7.808v5.504h-5.504l5.504-5.504zM50.56 58.368h-37.248v-41.856h9.344c0.896 0 1.536-0.64 1.536-1.536v-9.344h26.368v52.736zM41.216 44.416h-18.56c-0.896 0-1.536 0.64-1.536 1.536s0.64 1.536 1.536 1.536h18.56c0.896 0 1.536-0.64 1.536-1.536s-0.64-1.536-1.536-1.536zM21.12 24.192c0 0.896 0.64 1.536 1.536 1.536h18.56c0.896 0 1.536-0.64 1.536-1.536s-0.64-1.536-1.536-1.536h-18.56c-0.896 0-1.536 0.768-1.536 1.536zM41.216 29.952h-18.56c-0.896 0-1.536 0.64-1.536 1.536s0.64 1.536 1.536 1.536h18.56c0.896 0 1.536-0.64 1.536-1.536s-0.64-1.536-1.536-1.536zM41.216 37.12h-18.56c-0.896 0-1.536 0.64-1.536 1.536s0.64 1.536 1.536 1.536h18.56c0.896 0 1.536-0.64 1.536-1.536s-0.64-1.536-1.536-1.536z"></path>
	</symbol>
	<symbol id="trophy" viewBox="0 0 64 64">
		<title>trophy</title>
		<path fill="currentColor" d="M50.56 4.224c0 0 0 0 0 0 0-0.896-0.768-1.664-1.664-1.664h-33.664c-0.896 0-1.664 0.768-1.664 1.664 0 0 0 0 0 0-4.736 0-8.448 3.84-8.448 8.448s3.712 8.448 8.448 8.448c0.128 0 0.128-0.128 0.256-0.128 1.28 7.552 7.936 13.184 16.512 13.824v11.776c-6.656 0.896-11.776 6.4-11.776 13.312 0 0.896 0.768 1.664 1.664 1.664h23.552c0.896 0 1.664-0.768 1.664-1.664 0-6.784-5.12-12.416-11.776-13.312v-11.776c8.576-0.64 15.232-6.272 16.512-13.824 0.128 0 0.128 0.128 0.256 0.128 4.608 0 8.448-3.712 8.448-8.448 0.128-4.608-3.712-8.448-8.32-8.448zM13.568 17.664c-2.816 0-4.992-2.304-4.992-4.992 0-2.816 2.304-4.992 4.992-4.992v9.984zM41.984 58.112h-19.84c0.768-4.736 4.992-8.448 9.984-8.448s9.088 3.584 9.856 8.448zM47.232 18.176c0 7.424-6.656 13.312-15.104 13.312s-15.104-5.888-15.104-13.312v-12.288h30.336v12.288zM50.56 17.664v-10.112c2.816 0 4.992 2.304 4.992 4.992 0 2.944-2.176 5.12-4.992 5.12z"></path>
	</symbol>
	<symbol id="calendar" viewBox="0 0 64 64">
		<title>calendar</title>
		<path fill="currentColor" d="M55.808 7.936h-8.96v-3.584c0.128-1.024-0.768-1.792-1.664-1.792-1.024 0-1.792 0.768-1.792 1.792v3.584h-21.376v-3.584c0-1.024-0.768-1.792-1.792-1.792s-1.792 0.768-1.792 1.792v3.584h-8.96c-1.024 0-1.792 0.768-1.792 1.792v49.92c0 1.024 0.768 1.792 1.792 1.792h46.336c1.024 0 1.792-0.768 1.792-1.792v-49.92c0-1.024-0.768-1.792-1.792-1.792zM11.264 11.52h7.168c0 1.024 0.768 1.792 1.792 1.792s1.792-0.768 1.792-1.792h21.376c0 1.024 0.768 1.792 1.792 1.792s1.792-0.768 1.792-1.792h7.168v7.168h-42.88v-7.168zM54.016 57.856h-42.752v-35.712h42.88v35.712z"></path>
	</symbol>
	<symbol id="clock" viewBox="0 0 64 64">
		<title>clock</title>
		<path fill="currentColor" d="M32 2.56c-16.256 0-29.44 13.184-29.44 29.44s13.184 29.44 29.44 29.44c16.256 0 29.44-13.184 29.44-29.44s-13.184-29.44-29.44-29.44zM32 58.368c-14.464 0-26.368-11.904-26.368-26.368s11.904-26.368 26.368-26.368c14.464 0 26.368 11.776 26.368 26.368 0 14.464-11.904 26.368-26.368 26.368zM49.408 30.464h-15.872v-15.872c0-0.896-0.64-1.536-1.536-1.536s-1.536 0.64-1.536 1.536v17.408c0 0.896 0.64 1.536 1.536 1.536h17.408c0.896 0 1.536-0.64 1.536-1.536s-0.64-1.536-1.536-1.536z"></path>
	</symbol>
	<symbol id="tick" viewBox="0 0 64 64">
		<title>tick</title>
		<path fill="currentColor" d="M60.928 12.032c-0.64-0.64-1.664-0.64-2.304 0l-38.528 38.528-14.72-14.72c-0.64-0.64-1.664-0.64-2.304 0s-0.64 1.664 0 2.304l15.872 15.872c0.384 0.384 0.768 0.512 1.152 0.512s0.896-0.128 1.152-0.512l39.68-39.68c0.64-0.64 0.64-1.664 0-2.304z"></path>
	</symbol>
	<symbol id="medal" viewBox="0 0 64 64">
		<title>medal</title>
		<path fill="currentColor" d="M54.784 55.552l-8.32-26.88c1.536-2.56 2.432-5.504 2.432-8.704 0-9.6-7.808-17.408-17.408-17.408s-17.408 7.808-17.408 17.408c0 3.584 1.152 6.912 2.944 9.6l-8.064 25.984c-0.128 0.384 0 0.896 0.256 1.28s0.768 0.512 1.152 0.512l8.064-0.512 6.656 4.48c0.256 0.128 0.512 0.256 0.768 0.256l0.512-0.128c0.384-0.128 0.768-0.512 0.768-0.896l4.864-17.792 4.864 17.792c0.128 0.384 0.384 0.768 0.768 0.896l0.512 0.128c0.256 0 0.512-0.128 0.768-0.256l6.656-4.48 8.064 0.512c0.384 0 0.896-0.128 1.152-0.512 0-0.384 0.128-0.896 0-1.28zM24.96 57.984l-5.504-3.712c-0.256-0.128-0.512-0.256-0.768-0.256l-6.528 0.384 6.912-22.4c2.944 2.944 6.912 4.864 11.392 5.12l0.128 0.256-5.632 20.608zM31.488 34.688c-8.064 0-14.72-6.656-14.72-14.72s6.656-14.72 14.72-14.72 14.72 6.656 14.72 14.72-6.528 14.72-14.72 14.72zM45.184 54.144c-0.256 0-0.512 0.128-0.768 0.256l-5.504 3.712-5.504-20.48 0.128-0.384c4.48-0.512 8.32-2.56 11.136-5.76l7.168 23.040-6.656-0.384z"></path>
	</symbol>
	<symbol id="plane" viewBox="0 0 64 64">
		<title>plane</title>
		<path fill="currentColor" d="M59.264 39.296l-19.072-19.2c-0.384-5.632-1.92-17.408-7.040-17.536-5.248-0.128-6.784 11.776-7.168 17.536l-19.072 19.2c-0.384 0.256-0.512 0.64-0.512 1.024v8.32c0 0.512 0.256 1.024 0.768 1.408 0.512 0.256 1.152 0.256 1.536 0l17.536-10.112 2.176 10.88-7.808 7.808c-0.512 0.512-0.64 1.28-0.256 1.92s1.024 0.896 1.792 0.768l10.752-2.688 10.752 2.688h0.384c0.512 0 1.152-0.256 1.408-0.768 0.384-0.64 0.256-1.408-0.256-1.92l-7.808-7.808 2.176-10.88 17.536 10.112c0.512 0.256 1.152 0.256 1.536 0 0.512-0.256 0.768-0.768 0.768-1.408v-8.32c0.256-0.384 0.128-0.768-0.128-1.024zM56.576 45.952l-17.152-9.728c-0.384-0.256-1.024-0.256-1.408 0-0.512 0.256-0.768 0.64-0.896 1.152l-2.816 13.824c-0.128 0.512 0 1.024 0.384 1.408l4.352 4.352-5.632-1.408h-0.768l-5.632 1.408 4.352-4.352c0.384-0.384 0.512-0.896 0.384-1.408l-2.816-13.952c-0.128-0.512-0.384-0.896-0.896-1.152s-1.024-0.128-1.408 0l-17.024 9.856v-4.992l19.072-19.072c0.256-0.256 0.384-0.64 0.512-1.024 0.512-8.448 2.56-15.232 3.968-15.232v0c1.408 0 3.456 6.656 3.968 15.232 0 0.384 0.128 0.768 0.512 1.024l18.944 19.072v4.992z"></path>
	</symbol>
	<symbol id="computer-blog" viewBox="0 0 64 64">
		<title>computer blog</title>
		<path fill="currentColor" d="M46.208 33.536h0.64c1.408-0.128 2.816-0.896 3.712-2.048s1.28-2.56 1.152-4.096c-0.128-1.408-0.896-2.816-2.048-3.712s-2.56-1.28-4.096-1.152c-1.408 0.128-2.816 0.896-3.712 2.048s-1.28 2.56-1.152 4.224c0.128 1.408 0.896 2.816 2.048 3.712 1.152 0.64 2.304 1.024 3.456 1.024zM44.288 26.24c0.512-0.64 1.28-1.024 2.048-1.024 0.512 0 1.152 0.128 1.536 0.512 1.152 0.896 1.28 2.56 0.384 3.712s-2.56 1.28-3.712 0.384c-1.024-0.768-1.152-2.432-0.256-3.584zM18.56 33.536h0.64c1.408-0.128 2.816-0.896 3.712-2.048s1.28-2.56 1.152-4.096c-0.128-1.408-0.896-2.816-2.048-3.712s-2.56-1.28-4.096-1.152c-1.408 0-2.816 0.768-3.712 1.92s-1.28 2.56-1.152 4.096 0.896 2.816 2.048 3.712c1.152 0.896 2.304 1.28 3.456 1.28zM16.64 26.24c0.512-0.64 1.28-1.024 2.048-1.024 0.512 0 1.152 0.128 1.536 0.512 1.152 0.896 1.28 2.56 0.384 3.712s-2.56 1.28-3.712 0.384c-1.152-0.768-1.28-2.432-0.256-3.584zM32.768 33.792h0.64c1.408-0.128 2.816-0.896 3.712-2.048s1.28-2.56 1.152-4.096c-0.128-1.408-0.896-2.816-2.048-3.712s-2.56-1.28-4.224-1.152c-1.408 0.128-2.816 0.896-3.712 2.048s-1.28 2.56-1.152 4.096c0.128 1.408 0.896 2.816 2.048 3.712 1.024 0.768 2.176 1.152 3.584 1.152zM30.592 26.624c0.512-0.64 1.28-1.024 2.048-1.024 0.512 0 1.152 0.128 1.536 0.512 1.152 0.896 1.28 2.56 0.384 3.712-0.384 0.512-1.024 0.896-1.664 1.024s-1.408-0.128-1.92-0.512c-1.024-1.024-1.28-2.56-0.384-3.712zM60.032 7.68h-56.064c-0.768 0-1.408 0.64-1.408 1.408v35.456c0 0.768 0.64 1.408 1.408 1.408h13.184v11.52c0 0.512 0.256 1.024 0.64 1.28l0.768 0.256 0.64-0.128 24.576-12.8h16.128c0.768 0 1.408-0.64 1.408-1.408v-35.456c0.128-0.896-0.512-1.536-1.28-1.536zM58.496 43.136h-14.976l-0.64 0.128-22.656 11.904v-10.624c0-0.768-0.64-1.408-1.408-1.408h-13.312v-32.512h53.12v32.512z"></path>
	</symbol>
	<symbol id="web" viewBox="0 0 64 64">
		<title>web</title>
		<path fill="currentColor" d="M20.352 24.32c0.384 0.384 0.768 0.512 1.152 0.512s0.896-0.128 1.152-0.512l3.456-3.456c0.64-0.64 0.64-1.664 0-2.304s-1.664-0.64-2.304 0l-3.456 3.456c-0.512 0.64-0.512 1.664 0 2.304zM14.592 24.832c0.384 0 0.896-0.128 1.152-0.512l6.912-6.912c0.64-0.64 0.64-1.664 0-2.304s-1.664-0.64-2.304 0l-6.912 6.912c-0.64 0.64-0.64 1.664 0 2.304 0.384 0.384 0.768 0.512 1.152 0.512zM59.776 7.68h-55.552c-0.896 0-1.664 0.768-1.664 1.664v34.816c0 0.896 0.768 1.664 1.664 1.664h19.2v7.168h-1.792c-0.896 0-1.664 0.768-1.664 1.664s0.768 1.664 1.664 1.664h20.864c0.896 0 1.664-0.768 1.664-1.664s-0.768-1.664-1.664-1.664h-1.792v-7.168h19.2c0.896 0 1.664-0.768 1.664-1.664v-34.816c-0.128-0.896-0.896-1.664-1.792-1.664zM37.376 52.864h-10.624v-7.168h10.624v7.168zM58.112 42.496h-19.2c0 0 0 0 0 0s0 0 0 0h-13.824c0 0 0 0 0 0s0 0 0 0h-19.2v-31.488h52.352v31.488z"></path>
	</symbol>
	<symbol id="writer" viewBox="0 0 64 64">
		<title>writer</title>
		<path fill="currentColor" d="M61.056 16.64l-6.016-6.016c-0.256-0.256-0.512-0.384-0.896-0.384-0.256 0-0.64 0.128-0.896 0.384l-30.464 30.336c-0.128 0.128-0.256 0.256-0.256 0.512l-2.688 8.192h-16.128c-0.64 0-1.152 0.512-1.152 1.152s0.512 1.152 1.152 1.152h16.768c0 0 0 0 0.128 0 0 0 0 0 0.128 0s0.256 0 0.384 0l9.216-3.072c0.128 0 0.384-0.128 0.512-0.256v0 0l30.592-30.592c0-0.128 0-0.896-0.384-1.408zM22.656 49.024l1.536-4.864 3.328 3.328-4.864 1.536zM29.824 46.208l-4.352-4.352 24.064-24.064 4.352 4.352-24.064 24.064zM55.552 20.352l-4.352-4.352 2.944-2.944 4.352 4.352-2.944 2.944z"></path>
	</symbol>
	<symbol id="currency-sterling" viewBox="0 0 64 64">
		<title>currency: Sterling</title>
		<path fill="currentColor" d="M47.744 56.832h-26.624v-20.224h18.56c1.28 0 2.176-0.896 2.176-2.176s-0.896-2.176-2.176-2.176h-18.56v-13.312c0-0.64 0-12.032 11.776-12.416v0c0 0 0 0 0.256 0 11.776 0 12.416 11.776 12.416 12.416 0 1.28 0.896 2.176 2.176 2.176v0c1.28 0 2.176-0.896 2.176-2.176 0-5.504-3.712-16.384-16.512-16.384 0 0 0 0-0.256 0h-0.256c-12.672 0.256-16.128 11.136-15.744 16.768v13.312h-6.016c-1.28 0-2.176 0.896-2.176 2.176s0.896 2.176 2.176 2.176h5.888v24.448h30.72c1.28 0 2.176-0.896 2.176-2.176 0-1.536-0.896-2.432-2.176-2.432z"></path>
	</symbol>
	<symbol id="study-abroad" viewBox="0 0 64 64">
		<title>study abroad</title>
		<path fill="currentColor" d="M32 2.56c-16.256 0-29.44 13.184-29.44 29.44s13.184 29.44 29.44 29.44c16.256 0 29.44-13.184 29.44-29.44s-13.184-29.44-29.44-29.44zM51.584 50.048c-2.56-1.408-5.248-2.56-7.808-3.456 2.176-4.352 3.328-8.832 3.584-13.184h11.264c-0.384 6.4-2.944 12.16-7.040 16.64zM5.376 33.408h11.264c0.256 4.352 1.408 8.832 3.584 13.184-2.56 0.896-5.248 2.048-7.808 3.456-4.096-4.48-6.656-10.24-7.040-16.64zM12.416 13.952c2.56 1.408 5.248 2.56 7.808 3.456-2.176 4.352-3.328 8.832-3.584 13.184h-11.264c0.384-6.4 2.944-12.16 7.040-16.64zM30.592 16.64c-2.048-0.128-4.224-0.384-6.272-0.896 1.664-2.688 3.712-5.504 6.272-8.192v9.088zM30.592 19.328v11.264h-11.264c0.256-4.096 1.408-8.192 3.584-12.416 2.56 0.64 5.12 1.024 7.68 1.152zM30.592 33.408v11.264c-2.56 0.128-5.12 0.512-7.68 1.152-2.176-4.096-3.328-8.32-3.584-12.416h11.264zM30.592 47.36v9.088c-2.56-2.816-4.608-5.504-6.272-8.192 2.048-0.512 4.224-0.768 6.272-0.896zM33.408 47.36c2.048 0.128 4.224 0.384 6.272 0.896-1.664 2.688-3.712 5.504-6.272 8.192v-9.088zM33.408 44.672v-11.264h11.264c-0.256 4.096-1.408 8.192-3.584 12.416-2.56-0.64-5.12-1.024-7.68-1.152zM33.408 30.592v-11.264c2.56-0.128 5.12-0.512 7.68-1.152 2.176 4.096 3.328 8.32 3.584 12.416h-11.264zM33.408 16.64v-9.216c2.56 2.816 4.608 5.504 6.272 8.192-2.048 0.64-4.224 0.896-6.272 1.024zM35.456 5.632c5.376 0.64 10.112 2.944 13.952 6.4-2.304 1.28-4.736 2.304-7.040 2.944-1.792-3.2-4.096-6.272-6.912-9.344zM21.504 14.976c-2.304-0.768-4.736-1.792-7.040-2.944 3.84-3.328 8.704-5.632 13.952-6.4-2.688 3.072-4.992 6.144-6.912 9.344zM21.504 49.024c1.792 3.072 4.096 6.272 6.912 9.344-5.376-0.64-10.112-2.944-13.952-6.4 2.432-1.152 4.736-2.176 7.040-2.944zM42.496 49.024c2.304 0.768 4.736 1.792 7.040 2.944-3.84 3.328-8.704 5.632-13.952 6.4 2.688-3.072 4.992-6.144 6.912-9.344zM47.36 30.592c-0.256-4.352-1.408-8.832-3.584-13.184 2.56-0.896 5.248-2.048 7.808-3.456 4.096 4.48 6.656 10.24 7.040 16.64h-11.264z" />
	</symbol>
	<symbol id="travel" viewBox="0 0 64 64">
		<title>travel</title>
		<path fill="currentColor" d="M60.416 3.712c-4.096-4.096-14.592 3.968-19.456 8.192h-30.080c-0.512 0-0.896 0.128-1.28 0.512l-6.528 6.528c-0.384 0.384-0.64 1.024-0.512 1.664s0.64 1.024 1.28 1.28l21.76 5.888-6.912 10.368h-12.16c-0.768 0-1.536 0.512-1.664 1.28-0.256 0.768 0.128 1.536 0.768 1.92l10.624 6.4 6.4 10.624 0.256 0.384c0.384 0.384 1.152 0.64 1.664 0.512 0.768-0.256 1.28-0.896 1.28-1.664v-12.16l10.368-6.912 5.888 21.76c0.128 0.64 0.64 1.024 1.28 1.28 0.64 0.128 1.28 0 1.664-0.512l6.528-6.528c0.384-0.384 0.512-0.768 0.512-1.28v-30.208c4.096-4.736 12.288-15.104 8.32-19.328zM49.024 21.248c-0.256 0.384-0.384 0.768-0.384 1.152v29.952l-3.968 3.84-5.76-21.12c-0.128-0.512-0.512-1.024-1.024-1.152-0.512-0.256-1.152-0.128-1.536 0.128l-13.312 8.832c-0.512 0.384-0.768 0.896-0.768 1.408v6.784l-3.328-5.504-0.256-0.384-0.384-0.256-5.504-3.328h6.784c0.64 0 1.152-0.256 1.408-0.768l8.704-13.184c0.256-0.512 0.384-1.024 0.128-1.536s-0.64-0.896-1.152-1.024l-20.992-5.76 3.84-3.968h29.952c0.384 0 0.896-0.128 1.152-0.384 7.168-6.272 14.080-9.856 15.232-8.832v0c1.024 1.152-2.56 8.064-8.832 15.104z" />	
	</symbol>
	<symbol id="student-life" viewBox="0 0 50 50">
		<title>student life</title>
		<path fill="currentColor" d="M12.6,23.3c2.5,0,4.5-1.6,5.6-4c1.3,2.8,3.7,4.6,6.6,4.6c3,0,5.5-1.9,6.7-4.9c1.1,2.6,3.2,4.2,5.7,4.2
			c3.7,0,6.5-3.4,6.5-8c0-3.7-2.9-6.6-6.5-6.6c-2.2,0-4.2,1.2-5.4,2.9c-1.1-2.9-3.9-5-7.1-5c-3.2,0-5.9,2-7.1,4.8
			c-1.2-1.7-3.1-2.7-5.2-2.7c-3.6,0-6.5,3-6.5,6.6C6.1,19.8,8.9,23.3,12.6,23.3z M37.4,10.9c2.3,0,4.2,1.9,4.2,4.3
			c0,3.3-1.8,5.7-4.2,5.7c-2.4,0-4.2-2.4-4.2-5.7C33.2,12.9,35.1,10.9,37.4,10.9z M24.9,8.9c3,0,5.4,2.5,5.4,5.6
			c0,4.2-2.3,7.2-5.4,7.2s-5.4-3-5.4-7.2C19.5,11.4,21.9,8.9,24.9,8.9z M12.6,10.9c2.3,0,4.2,1.9,4.2,4.3c0,3.3-1.8,5.7-4.2,5.7
			c-2.4,0-4.2-2.4-4.2-5.7C8.4,12.9,10.3,10.9,12.6,10.9z M46,26.4c-1.8-0.9-4.7-2.1-8.6-2.1c-3.1,0-5.5,0.7-7.1,1.4
			c-1.6-0.4-3.3-0.6-5.3-0.6c-1.9,0-3.7,0.2-5.2,0.6c-2.2-0.9-4.6-1.4-7-1.4c-3.9,0-6.8,1.1-8.7,2.1c-1.2,0.6-2,2-2,3.6v6.7
			c0,0.6,0.5,1.1,1.1,1.1h9v2.1c0,0.6,0.5,1.1,1.1,1.1h23.1c0.6,0,1.1-0.5,1.1-1.1v-2.1h9.3c0.6,0,1.1-0.5,1.1-1.1V30
			C48,28.4,47.2,27,46,26.4z M12.2,31.7v3.8H4.3V30c0-0.7,0.3-1.3,0.8-1.5c1.6-0.8,4.2-1.8,7.6-1.8c1.1,0,2.2,0.1,3.3,0.3
			c-0.5,0.2-1,0.5-1.4,0.7C13.1,28.3,12.2,30,12.2,31.7z M35.3,38.8H14.5v-7c0-0.9,0.4-1.8,1.1-2.1c2-1,5.2-2.3,9.4-2.3
			c4.2,0,7.4,1.2,9.3,2.2c0.7,0.4,1.1,1.2,1.1,2.1V38.8z M45.7,35.5h-8.1v-3.8c0-1.8-0.9-3.4-2.3-4.1c-0.4-0.2-0.8-0.4-1.3-0.6
			c1-0.2,2.2-0.4,3.4-0.4c3.4,0,6,1,7.5,1.8c0.5,0.2,0.8,0.9,0.8,1.5V35.5z"/>
	</symbol>
	<symbol id="commitment" viewBox="0 0 50 50">
		<title>Commitment</title>
		<path fill="currentColor" d="M37.6,12.1c-0.4-1.1-0.8-2.2-1.3-3.2l-1-2.2c-0.4-0.7-1.2-1.1-2-1l-2.3,0.5c-1.3,0.3-2.7,0.3-3.9,0
		c-1.3-0.3-2.5-0.8-3.6-1.5l-1.7-1.2c-0.6-0.4-1.4-0.4-2,0l-1.7,1.2c-1.1,0.7-2.3,1.3-3.6,1.5c-1.3,0.3-2.7,0.3-3.9,0L8,5.7
		c-0.8-0.2-1.6,0.2-2,1L5,8.8c-4.3,9-4.1,18.9,0.6,26c0.4,0.6,0.8,1.1,1.2,1.7c0.8,1,7.9,9.9,13.9,9.9c0,0,0.1,0,0.1,0
		c4-0.1,9.4-5.5,9.9-6.1c0.2-0.2,0.3-0.3,0.5-0.5c0.8,0.1,1.6,0.2,2.4,0.2c7.9,0,14.3-6.4,14.3-14.3C48,19.3,43.6,13.8,37.6,12.1z
		M20.8,43.9c-4,0.1-10.1-6.4-12-8.9c-0.4-0.5-0.8-1-1.1-1.5C3.5,27.1,3.3,18.1,7.3,9.9l0.8-1.7l1.8,0.4c1.6,0.3,3.3,0.3,4.9,0
		c1.6-0.3,3.2-1,4.5-1.9l1.3-0.9L22,6.7c1.3,0.9,2.9,1.6,4.5,1.9c1.6,0.3,3.3,0.3,4.9,0l1.8-0.4L34,9.9c0.3,0.6,0.5,1.1,0.7,1.7
		c-0.4,0-0.7-0.1-1.1-0.1c-7.9,0-14.3,6.4-14.3,14.3c0,6.1,3.8,11.2,9.1,13.3C26.4,41.1,22.9,43.9,20.8,43.9z M33.7,37.6
		c-6.5,0-11.8-5.3-11.8-11.8S27.2,14,33.7,14c6.5,0,11.8,5.3,11.8,11.8S40.2,37.6,33.7,37.6z M41.9,20.3c-0.5-0.5-1.3-0.5-1.7,0
		l-8.8,8.8l-4-4c-0.5-0.5-1.3-0.5-1.7,0c-0.5,0.5-0.5,1.3,0,1.7l4.8,4.8c0.2,0.2,0.5,0.4,0.9,0.4c0.3,0,0.6-0.1,0.9-0.4l9.6-9.6
		C42.4,21.6,42.4,20.8,41.9,20.3z"/>
	</symbol>
	<symbol id="flag" viewBox="0 0 50 50">
		<title>flag</title>
		<path fill="currentColor" d="M39.2,4.5c-3.7-2.2-7.1-2.9-10.1-2.2c-2,0.5-3.1,1.5-4.2,2.4c-0.8,0.7-1.6,1.3-2.6,1.7c-2.5,0.7-5.9-0.6-10.1-3.8
		c-0.2-0.2-0.5-0.3-0.8-0.3c0,0,0,0,0,0c0,0,0,0,0,0c-0.2,0-0.4,0-0.6,0.1c-0.1,0.1-0.2,0.2-0.3,0.3c0,0-0.1,0.1-0.1,0.1
		C10.2,3,10,3.3,10,3.6v16.1c0,0,0,0,0,0v26.9c0,0.7,0.6,1.4,1.4,1.4c0.7,0,1.4-0.6,1.4-1.4V22.3c3,2,5.7,3.1,8.1,3.1
		c0.8,0,1.5-0.1,2.2-0.3c1.7-0.5,2.7-1.4,3.7-2.2c0.9-0.8,1.7-1.5,3.1-1.9c2.2-0.6,4.9,0.1,8,1.9c0.4,0.3,0.9,0.3,1.4,0
		c0.4-0.2,0.7-0.7,0.7-1.2V5.6C39.9,5.2,39.6,4.7,39.2,4.5z M37.2,19.5c-2.9-1.4-5.6-1.7-8-1.1c-2,0.5-3.1,1.5-4.2,2.4
		c-0.8,0.7-1.5,1.3-2.6,1.7c-2.4,0.7-5.6-0.5-9.6-3.4V6.3c4,2.7,7.4,3.6,10.3,2.7c1.7-0.5,2.7-1.4,3.7-2.2c0.9-0.8,1.7-1.5,3.1-1.8
		c2.1-0.5,4.5,0,7.4,1.5V19.5z"/>
	</symbol>
	<symbol id="email" viewBox="0 0 64 64">
		<title>flag</title>
		<path fill="currentColor" d="M60.032 10.24h-56.064c-0.768 0-1.408 0.64-1.408 1.408v38.272c0 0.768 0.64 1.408 1.408 1.408h55.936c0.768 0 1.408-0.64 1.408-1.408v-38.272c0.128-0.768-0.512-1.408-1.28-1.408zM56.448 13.184l-24.448 24.192-24.448-24.192h48.896zM5.504 48.512v-33.28l25.472 25.216c0.256 0.256 0.64 0.384 1.024 0.384s0.768-0.128 1.024-0.384l25.472-25.216v33.28h-52.992z"/>
	</symbol>
	<symbol id="telephone" viewBox="-5 -5 74 74">
		<title>telephone</title>
		<path fill="currentColor" d="M59.136 45.184l-7.296-7.296c-1.28-1.28-2.816-2.048-4.352-2.048s-3.072 0.64-4.352 2.048l-4.224 4.224h-0.128l-0.64-0.384-0.384-0.128c-0.512-0.256-0.896-0.512-1.28-0.768-3.968-2.56-7.552-5.76-11.008-9.984-1.664-2.048-2.816-3.84-3.584-5.632v-0.128l0.128-0.128c1.024-0.896 1.92-1.792 2.816-2.688l0.256-0.256 0.512-0.64 0.512-0.512c2.688-2.688 2.688-6.272 0-8.96l-3.584-3.584c-0.384-0.384-0.896-0.896-1.28-1.28-0.768-0.768-1.664-1.664-2.432-2.432-1.28-1.28-2.816-1.92-4.352-1.92-1.664-0.128-3.2 0.512-4.48 1.792l-4.48 4.608c-1.792 1.664-2.688 3.712-2.944 6.016-0.256 3.84 0.768 7.424 1.664 9.728 2.176 5.888 5.504 11.136 10.24 16.896 5.76 6.912 12.8 12.416 20.736 16.256 3.072 1.408 7.168 3.2 11.648 3.456h0.768c3.072 0 5.504-1.024 7.552-3.2v0 0c0.64-0.768 1.408-1.536 2.176-2.304l0.128-0.128c0.512-0.512 1.152-1.024 1.664-1.664 1.28-1.28 1.92-2.816 1.92-4.48 0.128-1.664-0.512-3.2-1.92-4.48zM56.96 51.84c-0.384 0.512-0.896 0.896-1.28 1.408l-0.256 0.256c-0.896 0.768-1.664 1.664-2.56 2.688-1.408 1.536-3.072 2.176-5.12 2.176h-0.64c-3.968-0.256-7.68-1.792-10.368-3.072-7.552-3.712-14.208-8.832-19.584-15.36-4.48-5.504-7.552-10.496-9.6-16-1.28-3.328-1.664-5.888-1.536-8.32 0-1.792 0.64-3.2 1.664-4.352l4.48-4.48c0.64-0.64 1.408-1.024 2.176-1.024 0.896 0 1.664 0.512 2.048 1.024v0c0.896 0.768 1.664 1.664 2.432 2.432l4.864 4.864c1.408 1.408 1.408 2.944 0 4.352l-1.152 1.152c-1.024 1.024-2.176 2.176-3.328 3.2v0c-1.024 1.024-0.896 2.048-0.64 2.816v0.128c0.896 2.176 2.176 4.352 4.224 6.912 3.712 4.48 7.552 8.064 11.776 10.752 0.512 0.384 1.152 0.64 1.664 0.896v0c0.512 0.256 0.896 0.512 1.28 0.64h0.256c0.384 0.256 0.768 0.256 1.28 0.256 1.024 0 1.664-0.64 1.92-0.896l4.48-4.48c0.512-0.512 1.28-1.024 2.176-1.024 1.024 0 1.664 0.64 2.048 1.024l7.296 7.296c1.28 1.664 1.408 3.2 0 4.736z"/>
	</symbol>
	<symbol id="cursor" viewBox="-10 -10 84 84">
		<title>cursor</title>
		<path fill="currentColor" d="M53.12 30.208l-34.944-27.264c-0.512-0.384-1.28-0.512-1.792-0.256-0.64 0.256-1.024 0.896-1.024 1.536l-2.56 44.16c0 0.768 0.384 1.408 1.024 1.664 0.64 0.384 1.408 0.256 1.92-0.256l11.136-9.728 9.088 20.096c0.256 0.64 0.896 1.024 1.664 1.024l0.768-0.128 7.424-3.328c0.384-0.256 0.768-0.512 0.896-1.024s0.128-0.896 0-1.408l-9.088-20.096 14.592-1.92c0.768-0.128 1.28-0.64 1.536-1.28 0.128-0.64-0.128-1.408-0.64-1.792zM34.816 32.128c-0.512 0.128-1.024 0.384-1.28 0.896s-0.256 1.024-0.128 1.664l9.344 20.736-4.224 1.92-9.344-20.736c-0.256-0.512-0.64-0.896-1.28-1.024h-0.384c-0.384 0-0.896 0.128-1.152 0.384l-9.728 8.448 2.048-36.608 28.8 22.528-12.672 1.792z"/>
	</symbol>
	<symbol id="podium" viewBox="0 0 64 64">
		<title>podium</title>
		<path fill="currentColor" d="M46.976 25.088h-4.608v-1.28c0-4.736-4.096-8.96-8.96-9.728 2.432-0.768 4.352-2.816 4.352-5.632 0.128-3.328-2.56-5.888-5.76-5.888s-5.888 2.56-5.888 5.888c0 2.688 1.792 4.864 4.352 5.632-4.992 0.768-8.96 4.992-8.96 9.728v1.28h-4.608c-0.768 0-1.536 0.64-1.536 1.536v6.016c0 0.768 0.64 1.536 1.536 1.536h4.224l1.664 18.048h-3.072c-0.768 0-1.536 0.64-1.536 1.536v6.016c0 0.768 0.64 1.536 1.536 1.536h24.192c0.768 0 1.536-0.64 1.536-1.536v-6.016c0-0.768-0.64-1.536-1.536-1.536h-1.92l1.792-18.048h3.2c0.768 0 1.536-0.64 1.536-1.536v-6.016c0-0.896-0.64-1.536-1.536-1.536zM28.928 8.448c0-1.536 1.28-2.816 2.816-2.816s2.816 1.28 2.816 2.816-1.28 2.816-2.816 2.816-2.816-1.28-2.816-2.816zM24.448 23.808c0-3.584 3.712-6.784 7.552-6.784s7.552 3.328 7.552 6.784v1.28h-15.104v-1.28zM42.496 58.368h-21.248v-3.072h21.248v3.072zM38.912 52.224h-13.056l-1.792-18.176h16.896l-2.048 18.176zM45.44 31.232h-27.264v-3.072h27.264c0 0 0 3.072 0 3.072z"/>
	</symbol>
	<symbol id="timer" viewBox="0 0 64 64">
		<title>timer</title>
		<path fill="currentColor" d="M34.048 14.848c-0.768 0-1.408 0.64-1.408 1.408v16.128c0 0.768 0.64 1.408 1.408 1.408h16.128c0.768 0 1.408-0.64 1.408-1.408s-0.64-1.408-1.408-1.408h-14.592v-14.592c0-0.896-0.64-1.536-1.536-1.536z"/>
		<path fill="currentColor" d="M34.048 5.12c-6.912 0-13.312 2.688-18.176 6.912l2.432 1.664c4.224-3.584 9.728-5.76 15.744-5.76 13.44 0 24.448 11.008 24.448 24.448s-11.008 24.448-24.448 24.448-24.448-10.88-24.448-24.32c0-3.712 0.896-7.168 2.304-10.368l1.536 4.992c0.256 0.768 1.024 1.152 1.792 0.896s1.152-1.024 0.896-1.792l-3.072-9.6-9.6 3.072c-0.768 0.256-1.152 1.024-0.896 1.792s1.024 1.152 1.792 0.896l4.992-1.536c-1.664 3.456-2.56 7.424-2.56 11.648 0 15.104 12.288 27.392 27.392 27.392s27.264-12.288 27.264-27.392-12.288-27.392-27.392-27.392z"/>
	</symbol>
</svg>