<svg xmlns="http://www.w3.org/2000/svg" viewBox="0 0 711 943"><defs><style>.cls-1{fill:#006938;opacity:.5;}#marker{fill:#76bd22}</style></defs><title>University of Stirling</title><path id="england-wales" d="M642 641h1v1h1a9 9 0 0 1 1 0 4 4 0 0 0 1 0l2-1h-2a11 11 0 0 1-1-1 4 4 0 0 0-1 0 5 5 0 0 0-2 0v1M539 873h-1v-2l-2-1a10 10 0 0 0-2-1h-2a8 8 0 0 0-1 0l-1-1h-1l-1-1-1-1-1 1a1 1 0 0 0-2-1 2 2 0 0 1-1 1 2 2 0 0 0-1 1l-2 1-1 1a2 2 0 0 1 0 1c0-3-4 0-5 1a13 13 0 0 1-2 0 3 3 0 0 0-1 0 1 1 0 0 0-1 0v2l-1 1a1 1 0 0 0-1 0v1l-1 1h3a8 8 0 0 1 3-1l2 2 4 2a9 9 0 0 1 1 1l1 1a7 7 0 0 1 3 1l1 1 1 1a6 6 0 0 0 2 0h1l3-1a3 3 0 0 0 2-2l1-4a4 4 0 0 1 2-2h2v-1c0-1 0 0 0 0 1 0 2 0 1-1a2 2 0 0 0-1-1m171-186a31 31 0 0 1-1-5 3 3 0 0 1 0-2 13 13 0 0 0 0-2 21 21 0 0 1 0-2 7 7 0 0 0 0-3 32 32 0 0 0-2-5l-2-4a7 7 0 0 0-1-2l-2-2a59 59 0 0 0-7-5 34 34 0 0 1-5-5 10 10 0 0 0-3-2l-5-2a35 35 0 0 0-3-2 27 27 0 0 0-5 0 33 33 0 0 1-7-1l-4-2a7 7 0 0 0-1 0 2 2 0 0 0-2 0l-1 1 2 1 1-1c1 0 0 0 0 0a2 2 0 0 0 1 1h-3a1 1 0 0 0-1 0h-1a8 8 0 0 0-1 0 3 3 0 0 0-2 0v-1a1 1 0 0 0-1 0h-1a4 4 0 0 0-1 0h-3l-2 1-1-1a12 12 0 0 0-1 0 4 4 0 0 0-1 0l-1 1-1-1a1 1 0 0 0-1 0l-1 1a2 2 0 0 1-1 0 4 4 0 0 1-1-1l-1 1a1 1 0 0 0-1 0h-1-2a7 7 0 0 0-1 1l-2 5v2l-1 2v1a5 5 0 0 0 0 1v1h-1v1a4 4 0 0 1-1 0h-1a7 7 0 0 0-1 2v1l-1 1a11 11 0 0 0-2-1v-1h-1-1a2 2 0 0 0-1 0v1a3 3 0 0 1-2 0 5 5 0 0 1-2-1c1-1 0-1-1-2v-1l-1-1c0-1 0 0 0 0a5 5 0 0 0 0-1l-1-1h-1a4 4 0 0 0-2-1 5 5 0 0 0-1 0 2 2 0 0 1-1 0 8 8 0 0 0-1-1 10 10 0 0 0-1 0 2 2 0 0 0-1 0v-1h1a1 1 0 0 1 0-1h1v-1l1-1a16 16 0 0 1 1-2 2 2 0 0 1 1-1 9 9 0 0 0 0-2l2-1v-1h1v-1l1-1h1a10 10 0 0 0 1-1l2-1a7 7 0 0 0 0-1l1-1 1-1c1 0 0 0 0 0v-1h3v-3-4a12 12 0 0 0 1-3 8 8 0 0 0-1-2l-3-8a25 25 0 0 1-1-3l-2-4-1-1a5 5 0 0 1 0-1 7 7 0 0 0 0-1l-1-1-1-1v-1-1a2 2 0 0 1-1 0v-1-1l-1-1c0-1 0 0 0 0l-1-1v-2h-2a3 3 0 0 0 0 1v-1a1 1 0 0 0 0-1 3 3 0 0 0-1 0c-2-1 0 1 0 1h-1c-1 0 0 0 0 0a3 3 0 0 1-1-1v-1h-1v-1a2 2 0 0 0-1 0h-1c0 1 0 0 0 0a2 2 0 0 0 1 0v1a3 3 0 0 1-2-2 26 26 0 0 0-2-2 24 24 0 0 1-2-2h-2a10 10 0 0 1-1-1l-1-1a25 25 0 0 1-3-2l-2-2-2-2a14 14 0 0 0-1-2 9 9 0 0 1-1-2l-2-2a6 6 0 0 0-2 0l-1 1h-2l-1 1a7 7 0 0 1-2 0h-1a5 5 0 0 0-2 0 18 18 0 0 1-2 2 3 3 0 0 1-2 0l-2-1a2 2 0 0 1-1-1l-1-1a2 2 0 0 0-1 0 14 14 0 0 1-1 1h-2l-1 1v2a2 2 0 0 1 0-1v-1a1 1 0 0 0 0-1l1-1 2-1a5 5 0 0 1 2-1l2 2h7a15 15 0 0 0 3-1 11 11 0 0 0 2 0l2-1 1-1a4 4 0 0 1 3 0l1 1h1v1l2 2a14 14 0 0 1 1 2l4 3 1 1 3 1 4-2a3 3 0 0 0 1 0c1 0-1 0 0 0a2 2 0 0 1 1 0 10 10 0 0 1 2 0l4 3s0 2 1 1a4 4 0 0 0 0-1 11 11 0 0 0-1-2l-1-3a12 12 0 0 0-2-3l-1-2a8 8 0 0 1-2-1 26 26 0 0 0-3-4l-3-4a29 29 0 0 1-2-4l-2-3a37 37 0 0 1-2-4 50 50 0 0 1-3-8 13 13 0 0 1-1-4 15 15 0 0 1 0-2 3 3 0 0 1 0-1l1-1 1-1a3 3 0 0 1 2-1 7 7 0 0 1 2-1 2 2 0 0 0 2-1l-2-2-2-1-3-1-2-1a5 5 0 0 1-1 0l-1-1h-1v-1-2l1-1-2-1-2-1-1-1-1-1-2-1v-1-1l-1-1a5 5 0 0 0 0-1l-1-1c0-1 1 0 0 0v-1-1l-1-2c-1-1 0 0 0 0a1 1 0 0 1 0-1 6 6 0 0 0-2-3 4 4 0 0 0-2-1 2 2 0 0 1-1-2v-2a2 2 0 0 0-1-1 2 2 0 0 1-1-1l-1-1a19 19 0 0 0-2-1h-1a7 7 0 0 1-2-1 2 2 0 0 1-1-1 1 1 0 0 0-1-1l-1-1h-2c-1 0 0 0 0 0a2 2 0 0 0-1-1l-1-1a4 4 0 0 0 0-1 3 3 0 0 0-2 0l-2-1h-3a9 9 0 0 1-1-1 3 3 0 0 0-3 0 7 7 0 0 1-2-1 10 10 0 0 1-2-2l-1-1a5 5 0 0 0-2 0 5 5 0 0 1-2 0 1 1 0 0 1 0-1 3 3 0 0 1-1 0 1 1 0 0 0 0-1l-1 1a2 2 0 0 0 1 1l-1 1a3 3 0 0 1 0 1l-1 1-2 1 1-1 2-2-1-1h-1l-1 1 1-1a6 6 0 0 0 1 0l1-1-1-1h1l-2-1a5 5 0 0 1 0-1v-1-1l1-1-1-1a4 4 0 0 0-1 0 3 3 0 0 1-2-2 10 10 0 0 1-1-1 13 13 0 0 0-2-2l-1-1a3 3 0 0 1 0-3 6 6 0 0 0 0-2l-1-1v-1c0-1 0 0 0 0a2 2 0 0 1-1-1v-2l-1-2a2 2 0 0 1 0-1v-1a6 6 0 0 0 0-1 6 6 0 0 1 0-1v-1s-1 0 0 0a3 3 0 0 0 0-3l-1-1-1-1a6 6 0 0 1-1-1v-1h-2v1a5 5 0 0 1 1-1h1v-1l-1-1v-1l-1-1a2 2 0 0 1-1-2v-1l-1-1a4 4 0 0 1-1-2 4 4 0 0 1 0-1 2 2 0 0 0 0-1 13 13 0 0 0-1-2 2 2 0 0 1 0-1 8 8 0 0 1 0-1v-1-1a3 3 0 0 0 0-1l-1-1a4 4 0 0 1 0-1 3 3 0 0 0-1-2l-1-1v-1c0-1 0 0 0 0v-1h-1l1-1a8 8 0 0 1 0-1l1-2a2 2 0 0 0-1-2v-1c0-1 0 0 0 0l-2-1v-1a6 6 0 0 1 0-1h-1v-1l1-1v-1h1v-1-2l-1-1 1-1-1-1v-1-1-1l-1-1a3 3 0 0 1 0-1 1 1 0 0 0 0-1v-1h-1a2 2 0 0 1 0-1v-1c1-1-1-2-1-2l1-1-1-1a3 3 0 0 1-1 0l-1-1c-1 0 0 0 0 0l-2-2a3 3 0 0 0-3 1 1 1 0 0 0 0-1 1 1 0 0 0 0-1 2 2 0 0 0-1-2v0a1 1 0 0 0-1 1 2 2 0 0 1-2 0v-2h-1v-1a14 14 0 0 1-1-1 7 7 0 0 0-1-2 5 5 0 0 0-1-1 3 3 0 0 1-1-1 13 13 0 0 1-2-3l-1-1h-1l1-1a1 1 0 0 0-1-1l-1-1v-1l-1-1c-1-1 0 0 0 0v-1l-1 1v1a4 4 0 0 0-1 0v1l-2 1c-2 0-1 2-2 3l-1 1a4 4 0 0 0 0 1 3 3 0 0 0-1 1l-1 2a7 7 0 0 0-2 1v1a3 3 0 0 1 0 1l-1 2h-2a8 8 0 0 1-1 1h-2l-2 2 1 2 2 2a11 11 0 0 1 1 2v1l-1 1 1 1a3 3 0 0 0 1 0 9 9 0 0 1 1 3l-1 2h1a8 8 0 0 0 0 1 5 5 0 0 1 0 3 5 5 0 0 1-1 2l-1 1h-3l-3 1v4a4 4 0 0 1-2 1 5 5 0 0 1-1 0l-2-1h-4v1a5 5 0 0 1 0 2 5 5 0 0 1-1 1v1h-1l-1 1v1h-1a27 27 0 0 1-1 3 2 2 0 0 0 0 1v1l-2 1a9 9 0 0 0-1 1 2 2 0 0 0-1 2v1l-2 2a10 10 0 0 1 0 1v1a6 6 0 0 1-2 2 14 14 0 0 1-2 0h-1l-1 1a10 10 0 0 0-1 1 2 2 0 0 1-1 1h-2l-1 1a8 8 0 0 1-2 1l-1 1v1l-1 1-1 1-1 1v1l-1 1v1a5 5 0 0 0-1 0 10 10 0 0 1-2 2l-1 1 2-1a1 1 0 0 0-1 0v2a1 1 0 0 0-1 1v1h1v1a11 11 0 0 0-2 0 1 1 0 0 1 0-1l-1-1-2-1a3 3 0 0 0-2 0v1a3 3 0 0 1-1 0 2 2 0 0 1-1 0 2 2 0 0 0-1 0 6 6 0 0 0-1 1l-1 2h1a4 4 0 0 0 1 1h1l1-1v1a3 3 0 0 1-1 1h-1v1h-1v-1h-1c-1 0 0 0 0 0h-1a1 1 0 0 0 0-1h-1a5 5 0 0 0-2 2 6 6 0 0 1-1 1 3 3 0 0 0 0 2l-2 5v4a8 8 0 0 1-2 2l-1 1a1 1 0 0 1-1 1h-1a4 4 0 0 0 0 1 8 8 0 0 1 0 2 2 2 0 0 1-1 0 5 5 0 0 1 0 1 4 4 0 0 0-1 1 3 3 0 0 0-1 1v1a4 4 0 0 0 0 1 7 7 0 0 1-1 4 8 8 0 0 0 0 3l-1 1v1a4 4 0 0 1-1 2l-1 1a1 1 0 0 0-1 1 3 3 0 0 0 1 1l1 1h1a2 2 0 0 1 0 1l2 3 2 2a22 22 0 0 1 2 3 11 11 0 0 1 1 2v1a6 6 0 0 0 1 1l1 1 1 1v-1h1l-1 1a3 3 0 0 0 0 1v4a6 6 0 0 0 0 1 13 13 0 0 0 2 3 49 49 0 0 1 3 5 4 4 0 0 0 1 2 1 1 0 0 0 2-1h2l1-1h-1v-1-1h1v-1h1v-1-1h-1l1 1 1 1v1l-1 1v1a3 3 0 0 0 0 1 5 5 0 0 1 0 1l-1 1h-2l1 2h-1-1a3 3 0 0 0 0 1 10 10 0 0 0 0 3 13 13 0 0 0 1 1 5 5 0 0 0 0 2l2 2 1 2a3 3 0 0 0 1 0c1 0 2 0 1-1h-1l-1-1v-1h-1v-1a5 5 0 0 1-1-1v-1a4 4 0 0 0 1 1h1c1-1 1 0 1 1a1 1 0 0 0 1 0v1h1v-1l1-1a24 24 0 0 0 2-2l1-1a2 2 0 0 0 1-2 3 3 0 0 1 0-1l1-1v-1a1 1 0 0 0 0-1 1 1 0 0 0 1 0v-1l1-1v-1l-1-1a1 1 0 0 0 1 0 5 5 0 0 0 0 1 1 1 0 0 0 0 1v1c0 1-1 0 0 0v2a3 3 0 0 1 1 0v3l-1 1a1 1 0 0 0 0 1h2a5 5 0 0 0 0-1 2 2 0 0 0 1 0v-1h1l1-1h1v-1c0-1 0 0 0 0a2 2 0 0 0 0-1l1-1 1-1c1-1 0 1 0 0h3a3 3 0 0 1-1 0l-1 1v1c0 1 0 0 0 0v2a1 1 0 0 0 2 1v1c0 1 0 0 0 0a3 3 0 0 0 0 1 1 1 0 0 0 2 1v-1 1a4 4 0 0 1-1 1l-1 1v1a2 2 0 0 1-1 1h-2v1a2 2 0 0 0 0 1h-1v1l-1 1c-1 0 0 0 0 0-1 1 1 1 1 2l-1 1a3 3 0 0 0 1 1v1h2a4 4 0 0 1 0 1l-1 1h1v1l-1 1-1 1v-1h-1c-1 0 0 0 0 0h-1a4 4 0 0 0-1 0 4 4 0 0 1-1 1l-2 1h-3v3a12 12 0 0 1 0 3 18 18 0 0 1 0 2l-1 3a9 9 0 0 1 0 2 4 4 0 0 0 0 1 7 7 0 0 1 0 1 2 2 0 0 0 1 2 12 12 0 0 0 1 2h4a33 33 0 0 0 4 1h-1a4 4 0 0 1-1 0l-1 1v1a1 1 0 0 0-1 0v1h-1l-1 1a2 2 0 0 1 0 1h-1v1l-1 2a9 9 0 0 0-1 1 8 8 0 0 1 0 1l-1 2-1 1-1 1a7 7 0 0 0-1 3 3 3 0 0 0 0 2h1l1 2h1v1a3 3 0 0 0 0 2l1 1a2 2 0 0 1 0 1 2 2 0 0 0 0 1l1 1a4 4 0 0 1 1 1v3a16 16 0 0 0 2 3 3 3 0 0 0 1 1l2 1a15 15 0 0 1 1 2l2 1h3c1 0 1 2 3 1v-2l1-1h1a2 2 0 0 0-1 1 2 2 0 0 0 0 2l-1 1-1 1h-1a4 4 0 0 0-1-1 3 3 0 0 0-1 0l-1 1h-2l-2-1-1-2a11 11 0 0 1-1-2 6 6 0 0 0-1-1 6 6 0 0 1-1-2l-1-1a9 9 0 0 0 0-1v-1l-1-1v-1a4 4 0 0 0 0-2h-1l-2 1-1 1a11 11 0 0 0-1 0l-4 2-1 1a3 3 0 0 1 0 1h-1a3 3 0 0 0 1 2l1 2a17 17 0 0 0 2 1 3 3 0 0 1 1 3l1 1c-1 1 0 1 1 1v1a5 5 0 0 0 0 1 4 4 0 0 1 0 1h-1v1h0a4 4 0 0 0-1 0 2 2 0 0 1 0-1l-1-1a4 4 0 0 1-1 0l-1-1-2-2a6 6 0 0 0-1-1l-1-1-1-1h-1-1a4 4 0 0 1 0-1l-1-1a3 3 0 0 0 0-1h-2a10 10 0 0 1-1 0 11 11 0 0 0-2 0 20 20 0 0 0-2 1l-1 1a18 18 0 0 1-2 0 3 3 0 0 0-1 1h-1-1l-1 1h-1l-3 2a3 3 0 0 1-1 0 5 5 0 0 0-2 0l-2-1a3 3 0 0 1-2 0v-1l-1-1h-1l-1-1h-3l-1-1a15 15 0 0 0-1-1 1 1 0 0 0-1 2l2 1v1a3 3 0 0 0 0 1l-2 1a2 2 0 0 0-1 0 6 6 0 0 0-1 1 4 4 0 0 1-2 1h-1l-2 1a1 1 0 0 0-1 0v1l-2 1h-3-1-1a3 3 0 0 0-1 0l-1 1a4 4 0 0 1-1 0 3 3 0 0 0-2 1 9 9 0 0 0-1 2 2 2 0 0 1-1 2 5 5 0 0 0-2 1v1a1 1 0 0 0-1 1h-1a3 3 0 0 0-1 2l-1-1v-1-1h3l2-3h2v-2a3 3 0 0 1 2-2h1c1 0 0 0 0 0l1-1 2-1a6 6 0 0 1 1-1h1v-1l1-1v-1l1-1 1-1c1-1-1-1-1-1-2 0-4-2-5 0a2 2 0 0 1-1 1h-2a5 5 0 0 1-1 0v-2-1l-1-1a7 7 0 0 1 0-1v-1h-1l-1-1-1-1a2 2 0 0 0 1-2 4 4 0 0 0-1-1v-1h-3a4 4 0 0 0-1 0l-1-1a2 2 0 0 0-2 0h-1v-1a2 2 0 0 0-1 0l-1 2a6 6 0 0 1-1 0v-1a1 1 0 0 0-1 0l-1 1h-1-1a2 2 0 0 1-1 1l-1-1v4a12 12 0 0 1-1 2v2a1 1 0 0 0-1 0 3 3 0 0 0 1 1l1 1v1a12 12 0 0 0-1 2l-1 1v-1-1-1c0-1 0 0 0 0h-1v-1c-1 0-1 0 0 0l-1-1h-1 1c1-1 0-1-1-1v1h-1l-1-1-1 1-1 2a1 1 0 0 0 1 0s1 0 0 0v1l1 1a1 1 0 0 0 1 0h2s0 1 0 0a2 2 0 0 0 0 1v2c0 1 0 0 0 0l1 1a2 2 0 0 0 1 0 2 2 0 0 0 1 0l1-1v1l2 1a1 1 0 0 0 0 1v1a1 1 0 0 1 1 0v1a3 3 0 0 0-1 1l1 1 1 1a6 6 0 0 0 1-1 6 6 0 0 1 0 1v1c0 1 0 0 0 0h1v1h1a8 8 0 0 1 0-1 4 4 0 0 0 1-1 2 2 0 0 1 1 0 7 7 0 0 0 1-1l-1 1-1 1v3l1-1 1 1a6 6 0 0 1 1 0 9 9 0 0 0 2 1l-1 1a4 4 0 0 0 0 2 16 16 0 0 1 0 4 1 1 0 0 1 0 1 8 8 0 0 0-1 1 3 3 0 0 1-1 1c-1 1-1 2-3 2a1 1 0 0 0 1 1l-1-1a1 1 0 0 0-1 1 6 6 0 0 0-1 1l-1 1-1 1a4 4 0 0 1-1 1l-1 1a2 2 0 0 1-1 0h-1-1v-1l-1 1a4 4 0 0 0 0 1h-1l-1 1-1 1h-1l-1 1-1 1v1a1 1 0 0 0-1 1l-1 1h-1c1 0 0 0 0 0v2h-1v1l-1 1v1l-1 1v1h1c1 0 0 0 0 0l2 1a4 4 0 0 0 0-2h1a1 1 0 0 1 1 0v1l1-1a1 1 0 0 1 1 0c1 0 0 0 0 0l3-1a5 5 0 0 1 0-1h1a6 6 0 0 1 2 1 4 4 0 0 1 1 1v1a2 2 0 0 0 0 1 3 3 0 0 0 0 1 1 1 0 0 0 2-1v-1h2v-1a2 2 0 0 0 0-1h-1c-1 0 0 0 0 0v-1s0-1 0 0l2-2a1 1 0 0 0 0-1v-1h1v-1a5 5 0 0 1 2 0 4 4 0 0 1 1 0v-1h1v-1a4 4 0 0 1 2 0h2v-1h2a8 8 0 0 0 2 0l2-1c1-1 1 1 1 1a2 2 0 0 1 1 0 4 4 0 0 0 1 1s2 0 1-1l2-1v1h2a4 4 0 0 1 2-1h-1v1h-1v1h-1a4 4 0 0 0-1 0h-1a1 1 0 0 0-1 0c-1 1 1 3 1 4l1 2-1 1-1 2 1 3a8 8 0 0 0 1 1 8 8 0 0 1 1 1 11 11 0 0 1 1 3l1 1a2 2 0 0 0 2 0l1-1a8 8 0 0 0 1 0l1-1a9 9 0 0 0 1 0l-1 1h-1a2 2 0 0 1-1 1h-1l-1 1c-1 1 1 1 0 0h-1v1a3 3 0 0 1-2 3 6 6 0 0 0-2 3v2a6 6 0 0 0 0 1v1a5 5 0 0 0 0 1h1a13 13 0 0 1 1 2c0 2 0 3 2 3h2a5 5 0 0 0 1 0 6 6 0 0 1 2-1h1l-1 1a3 3 0 0 1-1 0h-1v1a6 6 0 0 1-1 0 3 3 0 0 1-1 0h-1c-1-1-1 2-1 2a7 7 0 0 1 1 3l-1 1-1 2a11 11 0 0 0 0 2 10 10 0 0 1-1 1 5 5 0 0 0 0 1 3 3 0 0 1 0 2 17 17 0 0 1-1 2 7 7 0 0 0-1 2 11 11 0 0 1-2 4l-1 1a4 4 0 0 1-1 1 4 4 0 0 0 0 1h-1v1a6 6 0 0 1-2 2 14 14 0 0 0-2 0v1l-2 1a4 4 0 0 1-1 1 8 8 0 0 1-2 0h-1-1l-2 2-1 1-2 1h-1v1a4 4 0 0 1-1 1 15 15 0 0 0-1 1 2 2 0 0 1-2 1 3 3 0 0 1-1-1 2 2 0 0 0-1 0h-2a8 8 0 0 0-2 0 11 11 0 0 0-1 0 10 10 0 0 0-2 1v-1h-1v1h1a2 2 0 0 0-1 1v1l1 1a7 7 0 0 0-1-1h-1l-1-1c-1-1 0 0-1 1s0 1 0 1l-1 1-1 1a1 1 0 0 0 0 1 2 2 0 0 0-1 0 6 6 0 0 1-2 1 4 4 0 0 0-1 0 2 2 0 0 0 0 1l-1 1c0 1 0 0 0 0l1 1h-1-2l-1-1a1 1 0 0 0-1 0 1 1 0 0 0 0 1l-1 1a3 3 0 0 0-1 0l-1 1a3 3 0 0 0-1 0l1-1c1 0 0 0 0 0l-1-1c0-1 0 0 0 0l-1-1-1 1a3 3 0 0 0-1-1 6 6 0 0 1-1 0 3 3 0 0 0-1 0h-1v3h-1a1 1 0 0 0 1 1l-1 2-2 1-1-1-1 1c-1 1 1 0 0 0h-2a2 2 0 0 0-1 1l-1 1a2 2 0 0 0-1 1 5 5 0 0 0-1 0l-1 1a3 3 0 0 1-1 0h-1a4 4 0 0 0-1 1c-1 1 1 0 1 1-1 0-2 0-1 1v1l-1 1h1l1 1v-1a4 4 0 0 1 1 0 2 2 0 0 1 1 0 2 2 0 0 0 1 0 4 4 0 0 0 1 0 8 8 0 0 0 1 0h2v1h1a2 2 0 0 0 1 0h1l1 2v1a5 5 0 0 0 0 1 3 3 0 0 1 0 2v3l-1-1h-1-1l-1 1a4 4 0 0 0-1 1 2 2 0 0 0-1 0v1a2 2 0 0 1 0 1h-1a9 9 0 0 0-1 0h-1v1h1l1 1c1 0 0-1 0 0a1 1 0 0 1 1 0v1h1a3 3 0 0 0 0 1v2a1 1 0 0 0 1 0v-1h1v-1-1l-1-1 2 1h2v-1a5 5 0 0 1 1 1v1h2c-1 0-1 0 0 0v-1a8 8 0 0 0 1 1 4 4 0 0 1 1 0 4 4 0 0 0 3 0 6 6 0 0 0 1 0 5 5 0 0 1 1 0h2a1 1 0 0 0 0 1v-1a1 1 0 0 0-1 0h-1-1v1l-1 1a2 2 0 0 0 1 0h1v1h-1-1v-1l-1-1h-1c-1 0 0 0 0 0a2 2 0 0 0-1-1 2 2 0 0 0-2 1v1h-1c1-1 0-1-1-1a4 4 0 0 0-1 0h-1v1c0 1 0 0 0 0v1a1 1 0 0 1 1 0 6 6 0 0 0 1 1l2 1v3a4 4 0 0 1 1 1l2 1 1-1v1h1a2 2 0 0 1 1 0v1a2 2 0 0 0 1 0h1v-1a1 1 0 0 1 1 0h1v-1a5 5 0 0 1 0-1h1v-1c1 0 2 0 1-1a1 1 0 0 1 1 0h1a1 1 0 0 0 0 1 5 5 0 0 0 1 0 2 2 0 0 0 1 0 6 6 0 0 0 1 1l1-1c1 0 0 0 0 0h1v-1a17 17 0 0 1 1 0h1v-1h1v-1h1v-1a6 6 0 0 1 0-1l1-1h-1a1 1 0 0 0 0-1l1-1a3 3 0 0 1 1-1h1a8 8 0 0 1 1 0 4 4 0 0 1 2 0 9 9 0 0 0 1 0h3l5 1a7 7 0 0 0 2-1 1 1 0 0 0 0-1h-1l-1-2h-1a3 3 0 0 1 1 0l2 1h2a4 4 0 0 0 1-3 2 2 0 0 1 1-1l-1 2a8 8 0 0 0 0 1 3 3 0 0 0-1 2 2 2 0 0 0 2 1v1a2 2 0 0 1-1 0l-1-1c-1 1 1 3 1 4a10 10 0 0 0 4 3 3 3 0 0 0 2 1v-1l1-1c0 1 0 0 0 0a7 7 0 0 0 1 0 2 2 0 0 0 1 0 2 2 0 0 1 2 0l1 2 1 1a1 1 0 0 0 1 0v-1l1 1a2 2 0 0 0 1 0l1-1-2 2a2 2 0 0 0-1 0h-1l-1 1h-1-1-1a1 1 0 0 1-1 0v-2l-2 2-1 1h-1l-1 1 1 1a2 2 0 0 1 0 1 5 5 0 0 1 0 2s-2 0-1 1a1 1 0 0 0 1 0 1 1 0 0 1 1 0 7 7 0 0 0 1 1l1 1a3 3 0 0 0 1 0 2 2 0 0 1 1 0l1 1v-1h3a1 1 0 0 0 0-1c-1-1 2-1 2-2l2 1a4 4 0 0 0 1 1 1 1 0 0 0 1-1h2a1 1 0 0 0 1 0 6 6 0 0 1 1 0 1 1 0 0 0 1 0v-1l-1-1a2 2 0 0 1 0-1 4 4 0 0 1 3-1 2 2 0 0 1 1 0 4 4 0 0 0 2 0v-1h2a6 6 0 0 1 1 0l1 2a3 3 0 0 1 1 1v1h1v1h1a20 20 0 0 1 1 3 2 2 0 0 1 0 1v1a5 5 0 0 1 1 1v1l1 1v1h3v1h1v-1a4 4 0 0 0 1 1l2 2 1 1a4 4 0 0 1 1 1v2l1 1h1a4 4 0 0 0 1 1 2 2 0 0 1 1 0h2a9 9 0 0 0 3 1 3 3 0 0 1 1 0l1 1 1-1h3a3 3 0 0 0 1 0 3 3 0 0 1 1-1l1 1h1l1-1h5a2 2 0 0 0 1-1v-1a2 2 0 0 1 0-1 5 5 0 0 0 0-2 2 2 0 0 1 0-1h2a2 2 0 0 0 0-1l1-1v-1h1a4 4 0 0 0 1-1h1c1 0 0 0 0 0l1-1a8 8 0 0 1 1 0v-1a2 2 0 0 1 1 0 8 8 0 0 0 1-1 3 3 0 0 0 1-1 3 3 0 0 0 0-1h1c-1 1 1 1 2 1a3 3 0 0 0 1 1 4 4 0 0 1 0-1l1 1a3 3 0 0 1 1 0l1-1a8 8 0 0 1 1 0h1l1-1a8 8 0 0 1 2-1l1-1a10 10 0 0 1 3-1l3-1a2 2 0 0 1 0-1 5 5 0 0 0 2-1l1-1a8 8 0 0 1 0-1 7 7 0 0 0 2-3v-1l1-1a10 10 0 0 1 2-1 9 9 0 0 0 1-1h2a4 4 0 0 0 1-1l1-2a8 8 0 0 1 2-2l1-1 1-1c1-1 2 0 1-1a1 1 0 0 0-1 0h2a1 1 0 0 1 0 2l-1 1-2 1h-1l-1 1-1 1v2a3 3 0 0 1-1 1l-2 1h-1a2 2 0 0 0 0 1 9 9 0 0 0-2 3v1h-1a9 9 0 0 1-1 2l-3 3a1 1 0 0 0-1 1 9 9 0 0 0 0 1 5 5 0 0 1 0 2 20 20 0 0 1-2 2l-1 1a1 1 0 0 0-1 0v1h-1-1a11 11 0 0 1-1 1 4 4 0 0 0-2 1l-3 3a9 9 0 0 1-1 1v1h-1v2a3 3 0 0 1-1 1 5 5 0 0 1-1 0l-1-1v1a5 5 0 0 1-2 0v1l1 1a1 1 0 0 1-1 1l-1 1v1c0 1 0 0 0 0v2a3 3 0 0 0-1 0h-1l-1-1v1l1 1a5 5 0 0 1 0 2 6 6 0 0 0 0 3l1 2a1 1 0 0 1 0 1v1l-1 1a5 5 0 0 0 0 1 2 2 0 0 1-2 1l2-1v-1l-1-1-2 2h-1a2 2 0 0 0-2-1 5 5 0 0 0-3 0l-1 1h-1a1 1 0 0 0-1 0 6 6 0 0 1-1 1 13 13 0 0 0-2 0l-1 1h-2a8 8 0 0 1-2 0 12 12 0 0 0-1 0h-2a4 4 0 0 1-2-1l-1-2a1 1 0 0 0-1 0h-1v-1a5 5 0 0 0-1 0 3 3 0 0 0-2-1h-1a3 3 0 0 0-1-1 5 5 0 0 0-2 0l-2 2c-1 1-1-1-2-1h-2a6 6 0 0 1-1-1h-2a7 7 0 0 0-2-1 5 5 0 0 1-1 0h-1a1 1 0 0 0-1 0v1h-3a2 2 0 0 1-1 0h-1l-1 1v-1a3 3 0 0 0-2 0l-2 1a3 3 0 0 1-1 0h-2a5 5 0 0 0-1 0l-1 1-1-1a4 4 0 0 0-2 0l-1 1h-1a2 2 0 0 0-1 0 6 6 0 0 1-2 0l-1 1h-1-1v1h-1l1 1a4 4 0 0 1 0 1 3 3 0 0 1-1 2h-2v1l1 1 1 1v1a6 6 0 0 0 0 2 3 3 0 0 0 1 2l1 1v-1l2-1a2 2 0 0 1 1 0 3 3 0 0 0 1-1v1h-1-1-1v1l-1 1a3 3 0 0 1 0 1s0-2-1-1v-1a1 1 0 0 0-1 0 3 3 0 0 0-1 2h-1l-2 2a7 7 0 0 1-1 3h-5a2 2 0 0 1-1-1 3 3 0 0 0-3-1 5 5 0 0 1 0-1h-1a3 3 0 0 0-2 0h-3v1a1 1 0 0 0 0 1v3a10 10 0 0 1-1 1 5 5 0 0 1 0 1v1l-1 1a3 3 0 0 0 0 1v1h-1l1 2v1a3 3 0 0 1 0 1 9 9 0 0 1 0 1 6 6 0 0 0 0 3v2a3 3 0 0 0 0 1 2 2 0 0 1 0 1 3 3 0 0 1-1 1h-1a7 7 0 0 1-1 1 3 3 0 0 0-1 1h-1l-1 1v1c-1 1 0 0 0 0-1 0-1 0 0 0a2 2 0 0 1-1 2 7 7 0 0 1-1 1l-1 1s1 0 0 0a2 2 0 0 0-1 0v1h-1a2 2 0 0 0-1 1s1 0 0 0c0-1 0-1 0 0h-1c-1 0 0 0 0 0a4 4 0 0 0-1 2v1a6 6 0 0 0-1 1 4 4 0 0 1 1 1 3 3 0 0 1-1 1l-1 1a3 3 0 0 1-3 0l-1 1h-1l-1 1a5 5 0 0 1-1-1l-1-1v1h-1a1 1 0 0 0 0 1h1l-1 1a4 4 0 0 0 1 4l-1-1v-1-1l-1-1-1 1h-1a9 9 0 0 0 0 1 3 3 0 0 1-1 1l-1-1-1-1a1 1 0 0 0-1 1l1 1a3 3 0 0 1 0 1v1a1 1 0 0 1-1 1v2a3 3 0 0 1 0 1 4 4 0 0 0 0 1v1a4 4 0 0 1-1 2 1 1 0 0 0 0 1h-1l-1 1-1-1v1c-1 0-2 0-1 1h-2c-1 0 0 0 0 0v1h-1v2a5 5 0 0 1 0 2l-1 1h-1v1a3 3 0 0 0-1 1h-2l-1 3a2 2 0 0 1-1 1 5 5 0 0 0-1 1l-1 1a1 1 0 0 0-1 0 3 3 0 0 0-1 1l-1 1a7 7 0 0 1-1 0 2 2 0 0 0-1 0v-1h-1s0 1 0 0a1 1 0 0 0-1 0v2a4 4 0 0 1 0 1 3 3 0 0 1-1 1l-2 1h-1v-1c0-1 0 0 0 0l-1-1v-1l-1 1-1-1a6 6 0 0 0-1 1h-1a3 3 0 0 0-1 0l-1 1-1 1h-2v1a2 2 0 0 0-1 0 2 2 0 0 1 0 1h-1-1-1a6 6 0 0 0-1 2l-1 1c0 1 0 0 0 0l-1 1 1 1v3a10 10 0 0 0-1 2 1 1 0 0 0 0 1h1v1l1 1h3l1-1a13 13 0 0 0 2 0 4 4 0 0 0 1 0l1-1h1l1-2v-1-2-1c0-1 0 0 0 0a5 5 0 0 1 2 0 4 4 0 0 1 2 0l1 1a3 3 0 0 1 1 1v1h2a7 7 0 0 1 1 0h1l2 1a2 2 0 0 1 1 0v1h1a5 5 0 0 1 1 1 4 4 0 0 1 1 2v1l1 1a1 1 0 0 1 0 1l-1 1 1 1a1 1 0 0 0 0 1v1c0 1 0 0 0 0l2 1v1a1 1 0 0 0 2 0 1 1 0 0 0 1 0v-1a1 1 0 0 1 0-1 8 8 0 0 0 1-1l1-1a3 3 0 0 1 1 0h1l2-2 2-1a4 4 0 0 0 0-1v-1a4 4 0 0 0 0-1l-1-1v-1a3 3 0 0 0-1-1v0l-2-1h2v-1a1 1 0 0 0 1-1l1-2a2 2 0 0 1 1 0h1v-1h-2l-1-1c1 0 3 0 2-1v-1c0-1 0 0 0 0a3 3 0 0 0 0-1v-1h1c0 1 0 3 1 2l-1 3h2l-1 1h2a4 4 0 0 0 1-1v-3 1l1-1a2 2 0 0 1 1-1h1v1l2-1v-1h1c1 0 0 0 0 0v-1l1-1h2l1 1c1 0 0 0 0 0l1 1 1-1 1-1v-1h1l-1-2v-1a1 1 0 0 0 0-1 3 3 0 0 1 1-1h1a1 1 0 0 0 0-1l-1-1a1 1 0 0 1 1-1 5 5 0 0 1 1-1 10 10 0 0 0 2 0v-1l1 1a1 1 0 0 1 0 1v1h1c0-1 0 0 0 0a2 2 0 0 1 1-1 8 8 0 0 0 1 0h4c1-1 0 0 1 1a6 6 0 0 0 1 0 3 3 0 0 0 1 0l1-1a4 4 0 0 0 1 0h1a1 1 0 0 0 1 0l1-1 1-1h1a13 13 0 0 1 2-1l3 1h2a8 8 0 0 1 3 1 11 11 0 0 1 2 1 5 5 0 0 1 0 1v1c-1 1 0 1 1 1l1-1c1-1 2 0 1-1v-1l2-1a2 2 0 0 0-1-1h-1l-1-1v1l-1-1h2v-1a4 4 0 0 0 0-1 2 2 0 0 1-1 0 1 1 0 0 1 1 0l-2-1a6 6 0 0 0 1-1l1 2c-1 0 0 0 0 0a2 2 0 0 1 0 1v1a2 2 0 0 0 1 1h1a1 1 0 0 1 2 0v3l1 2a6 6 0 0 0 1 0 4 4 0 0 1 2 0c-2 1 0 2 1 2a2 2 0 0 0 1 0s2 0 1-1h4a1 1 0 0 0 1 1h1l1 1h2v2l1 1v1l-1 1a2 2 0 0 1 1 0v1a4 4 0 0 1 2 0v1h1a3 3 0 0 1 1 1l1-1v-1l2 1 1 1 1 1a6 6 0 0 0 1-1 8 8 0 0 1 1-1h3v-1a2 2 0 0 1-1-1 3 3 0 0 1 0-1l1-2a10 10 0 0 1 1-3l2-2 1-1 1-2a2 2 0 0 0 2 2v-1h1v-2a3 3 0 0 1 1-2h1c1 0 0 0 0 0l1-1-2-1-2-1a3 3 0 0 1-1 0v-2-1a2 2 0 0 1 1-1 3 3 0 0 1 0-1h1l1 1h1a3 3 0 0 0 1-1 2 2 0 0 0-1-1l-1-2a6 6 0 0 1 0-3l1-2 1-1 1-1 1-2 1-1v-1l1-1h-1a10 10 0 0 1 0-1 12 12 0 0 1-1-2 2 2 0 0 0 0-2 2 2 0 0 1-1-1h1a17 17 0 0 0 1 3 5 5 0 0 1 1 1l-1 1c-1 1 1 1 1 1a4 4 0 0 0 1 0l1 1h2v-1l3-1v-1a2 2 0 0 0 1 0 3 3 0 0 0 1-1 5 5 0 0 1 1-3 11 11 0 0 1 4-1 22 22 0 0 1 3 0 23 23 0 0 0 3 0l1-1c0-1 0 0 0 0a4 4 0 0 1 1-1h1a13 13 0 0 1 1 1 7 7 0 0 0 3-1 4 4 0 0 0 2 0v-1h1c1 0 0 0 0 0l1-1h1a7 7 0 0 1 3 0l3 1a19 19 0 0 1 3 0 25 25 0 0 0 2 2 18 18 0 0 1 3 1 31 31 0 0 1 4 2 12 12 0 0 0 1 1l1 1c0 1 0 0 0 0h1v1h1l1 1 1 1h1a3 3 0 0 1 1 1v1a2 2 0 0 0 1 0 3 3 0 0 0 0 1h1v1a8 8 0 0 1 1 1v2a5 5 0 0 0 0 1c0 1-1 3 1 2a7 7 0 0 0 2-2 3 3 0 0 0-1-3l-2-1a2 2 0 0 1 0-2h1v-2l2-2h1a4 4 0 0 1 2 1h2a3 3 0 0 0 1 0h1a3 3 0 0 0 0 1h2a16 16 0 0 0 2 0 3 3 0 0 0 2 0 2 2 0 0 1 1 0 1 1 0 0 0 1 1 4 4 0 0 1 1 0h2l2 1 2 1v1h2l4-1a2 2 0 0 0 1 0 1 1 0 0 0 0-1h1a1 1 0 0 0 0-1l-1-1 1-1a3 3 0 0 0 1-1l-1-1a1 1 0 0 1 0-1v-2h-2v0h-1-1v-1h-1v-1l-1-1a4 4 0 0 0-1 1l-1 1v-1-1l1-1 2 1h2a1 1 0 0 1 1 0c0-1 0 0 0 0h1l1 1-1 1-2-1c-1 1 2 2 2 1a1 1 0 0 0 1 1l1-1a6 6 0 0 1 1-1 12 12 0 0 1 2-1 8 8 0 0 1 3-1 14 14 0 0 1 4 1 5 5 0 0 0 1 0v-1h-1 2l1-1a4 4 0 0 1 2-1 14 14 0 0 1 3 1l4 2h1l-1-1a1 1 0 0 0 1 0l1-1c0-1 0 0 0 0l1-1v-1a5 5 0 0 0 0-1 6 6 0 0 0 2 0h3l1-1h1c1 0 2 0 1-1a11 11 0 0 0 2 0 13 13 0 0 0 2 0l1-1a16 16 0 0 1 0-2l1-1a1 1 0 0 0-1 0 2 2 0 0 0 0-1h-1v-2h-1a8 8 0 0 0-1-1 8 8 0 0 1-1-1l-1-1a4 4 0 0 0 0-1 4 4 0 0 1-1-1h-1l-1-1a3 3 0 0 1 2 1l1 2 1-1v-1a1 1 0 0 0 1 1v1a6 6 0 0 0 3 3h1v-1-1-1a7 7 0 0 0 0 2 5 5 0 0 0 0 2l2 1 1 1h2l2 2a3 3 0 0 0 1 1 6 6 0 0 1 1 1h2a1 1 0 0 0 1 0 2 2 0 0 0 0-2 6 6 0 0 0 0-1 6 6 0 0 0-1-1 3 3 0 0 1-1-1v-1l-1-1a4 4 0 0 1 1 1l3-1a1 1 0 0 1 0 1v1l-1 2a2 2 0 0 0 0 1 2 2 0 0 0 0 1 3 3 0 0 0 2 1 8 8 0 0 0 2-1h2a3 3 0 0 0-1-2 3 3 0 0 1 0-1 5 5 0 0 0 0-1l-1-1h2v-1h1l2 1-1-1h3a8 8 0 0 1 0 1h-2-1v1a6 6 0 0 0 0 1l-1 2h-1a2 2 0 0 0 0 1h1a7 7 0 0 1 2 1h2c1-1 0-2-1-1v-1-1-1a1 1 0 0 1 0-1l1 1 2 1a2 2 0 0 0 0-2v-2 1c0 1 1 3 2 2a1 1 0 0 0 1 0l1 1a6 6 0 0 1-1 0l-1-1a1 1 0 0 0-1 0v2h-1v1h-1l2 1a26 26 0 0 1 3 2 12 12 0 0 1 2 2l2 1a6 6 0 0 0 2-3l-1-1-1-1h2v1l1-1a14 14 0 0 1 4-1 19 19 0 0 0 2-1 7 7 0 0 1 2 0l2-1a7 7 0 0 0 2 0h1a5 5 0 0 1 2 0l3-1a18 18 0 0 0 2 0 18 18 0 0 0 3 0l3-1 2-1h6a30 30 0 0 1 5 1 2 2 0 0 0 2 0 5 5 0 0 1 2 1h1a12 12 0 0 0 2 1l1 1a11 11 0 0 1 2 0h1a10 10 0 0 1 2 0 10 10 0 0 1 1 2 4 4 0 0 0 2 1l1-1a6 6 0 0 1 1 1h2l4 1a3 3 0 0 0 1-1v-1a5 5 0 0 0 1-1 6 6 0 0 1 1-1 17 17 0 0 0 1-1l1-1a8 8 0 0 1 2-3h2a8 8 0 0 1 2-1 23 23 0 0 0 3-1 28 28 0 0 1 3-1 14 14 0 0 0 2 0h2l1-1a3 3 0 0 0 1 0l3-2 2-3a14 14 0 0 0 1-1 4 4 0 0 1 2-1h1v-1a2 2 0 0 1 1 0l2 1a17 17 0 0 1 2 0l3 1a12 12 0 0 0 4 0 1 1 0 0 0 2-2 26 26 0 0 0-1-2 7 7 0 0 1 0-5 13 13 0 0 1 2-3 17 17 0 0 1 3-3l7-2h1v-1h1a5 5 0 0 1 0-1 5 5 0 0 1 2 0 6 6 0 0 1 2-1 2 2 0 0 0 1 0 2 2 0 0 1 1-1h1v-1c0-1 0 0 0 0h1l3-2a9 9 0 0 0 1-3 6 6 0 0 0 0-2v-3a19 19 0 0 0 0-3l-2-4v-2h-1v-1h2a5 5 0 0 0 1 0l1-1 1-2a8 8 0 0 0 0-2 7 7 0 0 0 0-1 1 1 0 0 0-1-1 5 5 0 0 0-2 0h-1a4 4 0 0 0-1 0l-2 1a3 3 0 0 1-1 0h-1l-3 1a11 11 0 0 1-3-1l-3 1a14 14 0 0 1-2 0 7 7 0 0 0-2 0l-1 1h-1-2l-2 2a5 5 0 0 1-2 0l-5 1-1-1h3a2 2 0 0 0 0-1 1 1 0 0 1 1 0c2-1-1-4-2-5a3 3 0 0 0-2-1 16 16 0 0 1-2 0 4 4 0 0 1-2-1 7 7 0 0 0-1 0 8 8 0 0 0-2-1s-2-1-2 1a2 2 0 0 1 0 1 1 1 0 0 0 0 1l-1 1v-1h1v-1l-3 1h-2 1v1a1 1 0 0 0 0 1 2 2 0 0 0 1 0h1l-1 1-1 1a5 5 0 0 0-1-2l-1 1a1 1 0 0 0-1 0h-1a3 3 0 0 0-1 0l-2-1 2-1h-1l-1 1a1 1 0 0 0-2-1h1a5 5 0 0 0 1 0h2a4 4 0 0 0 2-1v-1l1-1a7 7 0 0 1 2 0v1a3 3 0 0 0 4-1l-1-3-3-1h-4l-1-1h-2-1a2 2 0 0 1-1 0l-4 1a2 2 0 0 0 0 1 8 8 0 0 0 0 1h-1a1 1 0 0 0 0 1l-3 1h-2l1-1h1a6 6 0 0 0 2 0 2 2 0 0 0 1-2 14 14 0 0 1 0-2 1 1 0 0 1 0-1h1a16 16 0 0 0 2 0 11 11 0 0 0 1-1h5a3 3 0 0 0 1 0l1-1c1-1 0-1-1-1l3-1h1a44 44 0 0 1 5 1 5 5 0 0 0 2 0l1-1a4 4 0 0 1 1-1 6 6 0 0 0 1 0c1 0 2-1 1-2a2 2 0 0 0 2 0l1-2 2-1a6 6 0 0 0 1-1 9 9 0 0 0 0-1c1-1 0-1-1-1h-1a4 4 0 0 1-2 0l-1 1-1-1v1a4 4 0 0 1-2-1 8 8 0 0 0-1 0h-1l-1-1h-1-1a2 2 0 0 1-1 0 9 9 0 0 0-1 0 7 7 0 0 1-3 0 1 1 0 0 0 1 0 9 9 0 0 1 2 0 18 18 0 0 0 2-1 3 3 0 0 1 2 1 3 3 0 0 0 2 1 6 6 0 0 1 1 0h3a8 8 0 0 0 2 0 3 3 0 0 0 2-1 6 6 0 0 0 0-2 14 14 0 0 1 0-2 8 8 0 0 0 1-1l-1-1a4 4 0 0 1 1-2 2 2 0 0 0-1-3l-2-1a2 2 0 0 0-2 1 4 4 0 0 1-2 2h-1a4 4 0 0 0-2 1l-1 1a6 6 0 0 0-1 0h-1v-1h-2c1 1 1 0 1-1l1-1h1a1 1 0 0 0 1 0l1-1h1l1 1c1 0 0 0 0 0a5 5 0 0 1 1 0 1 1 0 0 0 0-1h1a3 3 0 0 1 1-1v-1h1v-1a2 2 0 0 0-1 0 4 4 0 0 1 0-1h1c-1 2 4 0 5 0l2-2-2-1v-1-1-1a3 3 0 0 0 0-1 2 2 0 0 1 0 1 3 3 0 0 0 1 2l1 1 1 1v1a1 1 0 0 0 1 2 7 7 0 0 0 3 0 9 9 0 0 0 4-2l3-2a27 27 0 0 0 2-2 8 8 0 0 0 2-2l1-1a2 2 0 0 0 0-2l-1-1h-1-1c-1 0 0 0 0 0h-1c-1-1-1 1-2 1v-1a2 2 0 0 0 1 0h1a1 1 0 0 0 0-1l2-2a6 6 0 0 0 1-1l1-1v-1l-1-1-1 1-1-1-1 1h-1a14 14 0 0 1-2 0h-1a3 3 0 0 0-2 0 2 2 0 0 1-1 1l-2-1a4 4 0 0 1-2 0h2a14 14 0 0 0 2 0l1-1 2-1 1 2a5 5 0 0 0 1 0 3 3 0 0 0 2-1h1c1 0 2 1 2-1l-1-2a10 10 0 0 0-2-1 5 5 0 0 1-1 0l-1-1h-2l-1-2v-1l1 1a2 2 0 0 0 1 1 1 1 0 0 1 1 1h2l1 1a3 3 0 0 1 1 0l1 2a3 3 0 0 0 0 1 6 6 0 0 0 1 1l1 1v1h1a11 11 0 0 0 1-1 5 5 0 0 1 1-2c1-1 2-2 1-3l-1-2-1-1h-1a2 2 0 0 1 0-1 2 2 0 0 1 1 1l1 1 1 1a2 2 0 0 1 1 1v1l1-1a5 5 0 0 0 2-3 9 9 0 0 1 1-1 5 5 0 0 1 0-2 10 10 0 0 1 3-2 10 10 0 0 0 4-2v-3a21 21 0 0 1 2-7v-3a20 20 0 0 1 0-3 12 12 0 0 1 1-5 4 4 0 0 1 0-1 9 9 0 0 0 2-1 7 7 0 0 0 0-2 17 17 0 0 1 1-2l1-4a5 5 0 0 0 1-2 8 8 0 0 1-1-2 17 17 0 0 1 1-3 3 3 0 0 1 0-1c2-1 1-2 0-3M412 452l-1-1 1 1M271 748l1-1-1 1m1 2h-1 1m-2 3s0-1 0 0m382 14v1c2 0 3-1 1-1a2 2 0 0 0-1 0m-381-15h-1 1m3 1h1v-1-1-1l-1 1-1 1a4 4 0 0 1 1 1m57-93h0m-14 2v-1 1m-5 3l1-2a1 1 0 0 0-2 0v1a2 2 0 0 1 0 1h1m9-144a1 1 0 0 0 1-1h2a4 4 0 0 1 1-1h1v-1a1 1 0 0 1 1 0l1 2a1 1 0 0 0 1 0l1-1h1v1a1 1 0 0 0 1 0v-1l1-1a1 1 0 0 1 1-1h2a7 7 0 0 0 1-1v-1a3 3 0 0 0 3-1l1-2a4 4 0 0 0 1 0l1-1c1 0 2-1 1-2 0 0-1 0 0 0l1-1a2 2 0 0 0 1-1v-1l1-2 1-1 1-1a3 3 0 0 0-1 0l-2-1c-2-1-1-3 0-4a6 6 0 0 0 0-3v-1h-2l-4 2a9 9 0 0 0-4 2l-2 3-1 3a7 7 0 0 1-1 2h-2v1a6 6 0 0 1-2 1 2 2 0 0 0-1 1l-1 1a1 1 0 0 1 0 1 2 2 0 0 0-1 1v2a3 3 0 0 1 0 1 3 3 0 0 1 0 1l-1 1c-1 0-2 1 0 2h-1l-1 1h-1l-1 1a1 1 0 0 0 1 1m90 283v0m-98 20l1 1v-3a8 8 0 0 1 0-1 4 4 0 0 0 0-1l-1-1-1 2 1 1a4 4 0 0 1-1 0l1 2m-34-59h-1l-1-1a2 2 0 0 0-1 0 1 1 0 0 0 0 1v1l1-1h2m-1 3a1 1 0 0 0-1 0v1a1 1 0 0 0 1 0l1-1h-1m36 8l-2-1h-1l1 1a4 4 0 0 0 1 0v1l2-1-1-1m97 33h0m6 11v0m73-444h1a1 1 0 0 1 1 0v1a2 2 0 0 0 1 0h1v-1l-1-1h-4l1 1" class="cls-1"/><path id="scotland" fill="#006938" d="M430 66a2 2 0 0 0 0-2l-1 1v1h1m-134 85l1-2-1-1a2 2 0 0 0-1 2l1 1m2-15l-1 1v1a1 1 0 0 0 1 0l1-1a5 5 0 0 0-1-1m0 5v0m-26 61v1l1 1a1 1 0 0 0 1 0 1 1 0 0 0 0-1l-1-1-1-1a1 1 0 0 0 0 1m26-62l1 2a2 2 0 0 0 0-1l-1-1m-22 24l1 1 1-1v-1l-1 1v-1l-1 1m18-22c-1 1 1 1 1 1v-1l-1-1v1m-22 68a1 1 0 0 0 1 0 1 1 0 0 0-1-1h-1s0 2 1 1M424 74a2 2 0 0 1 0-1 1 1 0 0 0-1 0l-1 1a7 7 0 0 1 0 1v1h1l1-1v-1m-13-22h1l1 1a11 11 0 0 0 0 1 4 4 0 0 0 1 2 16 16 0 0 0 1 1v1a14 14 0 0 0 1 2l1 1 1 1a9 9 0 0 0 1-1l1 1s2 0 1-1l2 1a8 8 0 0 0 1-1 4 4 0 0 0 2 0l-1-1v-1h-1a5 5 0 0 0-1 0h-1l1-1a7 7 0 0 0 1-1l-1-1v-1h-1a1 1 0 0 0 1-1l-1-2c1-1-1-2-2-2a14 14 0 0 0-2-2 4 4 0 0 0-1 0l-1-1v-1a3 3 0 0 0-2 0h-1l-1 1-1 2c-1 1-2 3 0 3m8-7h-1-1v2a2 2 0 0 0 2 0v-1-1m-118 92l-1-1c-1 0 0 0 0 0a5 5 0 0 1-1 0 4 4 0 0 0 0 1 1 1 0 0 0 0 1h2v-1s-1 0 0 0m57-52v1h1v-1h1l-2-1a1 1 0 0 0 0 1m-3 3h1v-2s0-1 0 0a3 3 0 0 1 0 1h-1v1m-58 48v0m15-26h1-1m-62 123a2 2 0 0 0-1-1l-1-1h-1v-1h-1a1 1 0 0 0-1-1l-1 1h-2a10 10 0 0 0-1 1l-1 1a2 2 0 0 0-1 1l-1 1v1a10 10 0 0 1 1 1 13 13 0 0 0 1 2h2a3 3 0 0 1 0 1v1l1 1 1 1h1a3 3 0 0 0 1 0l1-1 1-1 1-3 1-2-2-1 2-1m-16 71l1 1a2 2 0 0 0 1-1 8 8 0 0 0 2-3l-1-1a9 9 0 0 0-1 0v1h-1v1s0 1 0 0c0 1-2 1-1 2m2-17l1-1h-1v1c0 1 0 0 0 0m3 22v0m-4-79c0 1 0 0 0 0a3 3 0 0 1 1 1 3 3 0 0 0 1 0h1a1 1 0 0 0 0-1l-1-1v-1l-2-1a7 7 0 0 0 0 1h-1a6 6 0 0 0-1 0h-2l-2 2a2 2 0 0 0 2 1 8 8 0 0 0 0-1 2 2 0 0 0 1 0l1-1h1l1 1a2 2 0 0 0-1-1l1 1a1 1 0 0 0 0 1m13 98a2 2 0 0 0 0-1 4 4 0 0 1 1-1v-1l1-1v-1-1h-1l-1 1h-1v1c-1 0 0 0 0 0h-2a1 1 0 0 0 0 1h-1a4 4 0 0 0-1 1 2 2 0 0 0 0 1v2l-1 1-1 1h2l1 1h1-1-1a1 1 0 0 0-1 0v2l-1 1a3 3 0 0 0 2 0l1-2h2a2 2 0 0 0 0-1v-1h1a3 3 0 0 0 0-1v-1l1-1s-1 0 0 0m-8-37h0m-2-94v0m-1 3a1 1 0 0 0 0 1h1c1 0 0 0 0 0a2 2 0 0 0 1-1h-2m34 5v0m-15 42v-1a15 15 0 0 1 0-2 9 9 0 0 0 0-2 2 2 0 0 0-1-2 2 2 0 0 0-1 1v1a4 4 0 0 1 0 1h-1l-2 1a2 2 0 0 0 0 1h-1l2 2a4 4 0 0 0 2 1h2l-1-1h1m21 59v0m-8-96l-1-1a14 14 0 0 0-2 0l-1-1h-1a3 3 0 0 0 0-1h-2l-2 1a11 11 0 0 1 2-1l1-1-1-1v-1a1 1 0 0 0-1 0 2 2 0 0 1-2 0 2 2 0 0 0-1 0l-2 1 1-1a4 4 0 0 1 2-1s0 1 0 0v-1l1-1h-1l-1-2v-1l1-3-3-1h-1v0c0-1 0 0 0 0h1a3 3 0 0 0 1-1l1-4a8 8 0 0 0 1-1 8 8 0 0 0-1-2v-1l1-2a8 8 0 0 0 0-1 11 11 0 0 0 0-3 3 3 0 0 1 0-1v-2a13 13 0 0 1-1-2 10 10 0 0 0-1-2l-1-1h-2a14 14 0 0 1 0-2 5 5 0 0 0-1-2 1 1 0 0 0 0-1 2 2 0 0 1-1 0 1 1 0 0 0-1-1h1a1 1 0 0 0-1-1 4 4 0 0 0-1 0h-1c-1 0 0 0 0 0h-1v1c0 1 0 0 0 0v1a1 1 0 0 1-1 1 3 3 0 0 1-1 1 11 11 0 0 1-1 0v1l-1 1a1 1 0 0 0 0 1 11 11 0 0 1 1 2 3 3 0 0 1 0 1v2a1 1 0 0 0 1 0h1a4 4 0 0 1-1 1v1h-1a3 3 0 0 0 0 1v2h1v2a4 4 0 0 0 1 1 8 8 0 0 1 1 1 2 2 0 0 0 1 1l-1 1a10 10 0 0 1 0 1l1 1-1-2-1-2a2 2 0 0 0 0-1l-1-1-2-2v2h-1l-1 2a2 2 0 0 0 0 1 5 5 0 0 1 0-1l1-2-1-1-1 2a2 2 0 0 0 0-1 5 5 0 0 0-1-1l-1-1c-1-1 0 0 0 0l-1-1-1-1h-1v-2a4 4 0 0 0 0-1 6 6 0 0 0-1-2h-1v-1a2 2 0 0 0-1 0h-1v2l-1 2s1 0 0 0v1a1 1 0 0 0 0 1c0 1 0 0 0 0h1a4 4 0 0 0 1 1 2 2 0 0 1 1 1 2 2 0 0 0 1 2v1l-1-2-2 1h-1v1l1 1v3c0 1 0 0 0 0a1 1 0 0 0 1 0v1l1 2c0-1 0 0 0 0a3 3 0 0 0-1-2 1 1 0 0 0-1 0h-1a1 1 0 0 1 0-1l-1-1-1-2v-1h-1v-1a1 1 0 0 0-1-1l-2 2a9 9 0 0 0 0 2 6 6 0 0 0 1 2l-1-1a4 4 0 0 0-1 0 1 1 0 0 0-1 0v2a2 2 0 0 0 0 1v1l1-1 1 1a3 3 0 0 1 0 1 5 5 0 0 1 0 1 2 2 0 0 0 0 1v1a5 5 0 0 0 1 1 1 1 0 0 0 1 0 1 1 0 0 1 0 1l1 1a4 4 0 0 0 1 0 5 5 0 0 1 2 1 4 4 0 0 0 1 1 10 10 0 0 0 1 1 1 1 0 0 0 2-1v-1a5 5 0 0 0 0-2 6 6 0 0 1 0-1v-1h1a5 5 0 0 0 0-2l1 1v1a1 1 0 0 0-1 1h1l-1 1v1a1 1 0 0 0 1-1l1-1v-1a1 1 0 0 0 1 1 1 1 0 0 0 0 1l1 1v3l1-1h1a9 9 0 0 0 1-1 2 2 0 0 0 0 2h0a4 4 0 0 0-1-1h-1v2a6 6 0 0 0-1 0l-1 1-1 1v1h1v1a6 6 0 0 0 0 1l2 2v2h3l1-1c0 2 0 1-1 1l-1 2 1 2 1 1a2 2 0 0 0 2 0l1-1c1 0 0-1 0 0a2 2 0 0 1 0 1c-1 1-2 1-1 2s2 0 2 0a21 21 0 0 0 2 0 3 3 0 0 1 1-1l2 1 1-3 1 1h1v1a7 7 0 0 0 1 1 4 4 0 0 1 0 2v1l-1 1h1c1 2 2 0 2-1l1-2a3 3 0 0 0 1-1l1-3a4 4 0 0 0-1-1 3 3 0 0 1 0-1l1 1v1a1 1 0 0 1 0 1l1 1v1l3 1a4 4 0 0 1 1 0l2-1a1 1 0 0 0 1 0h1a4 4 0 0 1-2 1 5 5 0 0 0-1 0 2 2 0 0 0-1 1 1 1 0 0 0-1 0v1h-1-1v1l-2 1 1 2a2 2 0 0 0-1 1v2h-1a2 2 0 0 0-1 1 1 1 0 0 0 0 1 5 5 0 0 0 0 1 6 6 0 0 0 0 1h1a1 1 0 0 0-1 1v1l1-1h3l1-1a5 5 0 0 0 2-1 2 2 0 0 0 1-1v-1l1-1a3 3 0 0 0 1-2l1-1a2 2 0 0 0 1 0h1l1-1v-1-1h1a1 1 0 0 0 0-1l-1 1v-2-1l2 1a15 15 0 0 1 2-1 4 4 0 0 0 2-2l1-1a3 3 0 0 0 1-2v-1a7 7 0 0 1 0-1 1 1 0 0 0 0-2 6 6 0 0 0-3 0v-1h-1a2 2 0 0 0-1 0 7 7 0 0 1-1 0 3 3 0 0 0-1 0l-1 1h-1l-1 1h-1l-1 1a1 1 0 0 1-1-1v-1h-1m-11 62l-3-2-1-1-1 1v-1a1 1 0 0 0-1 1l-2 1h-1-1v1a6 6 0 0 1 0 1v1a1 1 0 0 0-1-1h-1v1h-1a4 4 0 0 0-1 0 2 2 0 0 1-1 0s0-1 0 0v3h1v1h-1a2 2 0 0 0-2 2 1 1 0 0 0 0 1h1l1 1h1a1 1 0 0 0 1 0 7 7 0 0 0 1 0h1l1 1a4 4 0 0 1 1 0l1 1 1 1 1 1h-1c0 1 0 0 0 0h-1c-1 0 0 0 0 0h-1v-1a4 4 0 0 0-1 0h-1a1 1 0 0 0-1 0 3 3 0 0 1-1 0 1 1 0 0 0-1-1h-1v1c1 0 0 0 0 0v1a1 1 0 0 0 1 1 1 1 0 0 0 1 0h1v1a1 1 0 0 0 0 1 1 1 0 0 0 1 0v-1h1a1 1 0 0 0 0 1h1a2 2 0 0 1 1 0 1 1 0 0 0 1 0l1-2 1 1h1a8 8 0 0 1 1 0 4 4 0 0 0 1-1 2 2 0 0 1 1 0 3 3 0 0 0 1 0l1-1a1 1 0 0 1 1 1h-1a6 6 0 0 0 0 1l-2 1a2 2 0 0 1-2 1 7 7 0 0 1-1 0h-2a2 2 0 0 1 0 1h-1v1a11 11 0 0 1 0 1 3 3 0 0 1-1 1l-1 1h-1v4a2 2 0 0 0 2 0 4 4 0 0 1 2 0 4 4 0 0 0 2-1 3 3 0 0 0 1-1v1l1-1 2-1v2l-1 1a15 15 0 0 1-1 0l-2 1v1h-1a4 4 0 0 1-1-1l-2 1h-2-1l-2-1a1 1 0 0 0 0 2v1h-1v-2a6 6 0 0 0-1-1h-2a3 3 0 0 0-1-1 5 5 0 0 0-1 0 6 6 0 0 0-1 1 3 3 0 0 0 0 1 2 2 0 0 1 0 1 6 6 0 0 1 0 1v1h-1a1 1 0 0 0 0 1h-1l1 1h2a1 1 0 0 0 1 1 1 1 0 0 0 0 1h1c1 0 0 0 0 0h3l1-1v-1c0-1 0 0 0 0a1 1 0 0 0 1 0h2a1 1 0 0 0 1 1v-1a5 5 0 0 0 1 0v1l1-1 3-1 2 1 1-1a8 8 0 0 0 2 0c0-1 0-2 1-1l3-1a4 4 0 0 1 2-2h2c1 0 0 0 0 0l-1 1c-1 1 0 0 0 0a1 1 0 0 1 0 1l-1 1 1 1h2l1-1a8 8 0 0 0 1 0 12 12 0 0 0 1-1 8 8 0 0 0 1 0l3-2c1-1 2-2 1-3 1 1 2-1 2-1a1 1 0 0 0 0-1 1 1 0 0 0 0-2l1-1a3 3 0 0 0 0-2h-1-1v-1-1h-1v-1h-2a1 1 0 0 1-1-1l-1-1a8 8 0 0 0-1-1l-1-1-1 1-1-1a5 5 0 0 0-1-1 5 5 0 0 0-1 0l-2 1v-1h-1a7 7 0 0 0-1-1v-2l-1-1v-1a2 2 0 0 0 0-1h-1a3 3 0 0 1 0-1l-1-1a3 3 0 0 0 0-1h-2c0-1 0-1 0 0v-1-1m16 41l1 1v-1-1a1 1 0 0 0-1 1m0 8a7 7 0 0 0 1 0l2-1v-2-1-1-1c0-1 0 0 0 0a4 4 0 0 0 0-1v-1h-1a5 5 0 0 1-1 1v2a1 1 0 0 0 1 0l-2 1v1h-1l-1 1 2 2m-3-9l-1 1a3 3 0 0 0-1 1l1 1v-1h1a5 5 0 0 1 1-1l1-1v-1l-2 1c-1 0 0 0 0 0M449 50h1c1-1-1-1-1-1h-1v1a2 2 0 0 0 1 0m13-46v1h1l1-1c0-1 1 0 0 0V3a1 1 0 0 1 0-1l1-1h1a1 1 0 0 0-1-1l-1 1-1-1v1h-1v1l-1 1 1 1m-13 17v-1h1v-1h1v-1a2 2 0 0 0 1-1l1-1v1l2-1c-1 1 0 3 1 1 0-2 1 0 2-1 0 1 0 2 1 1a1 1 0 0 0 0-1h-1v-1c0-1 0 0 0 0v-1 1l1-1a12 12 0 0 0 1-1 2 2 0 0 1 1-1l1-1 1 1h1c1 1 2 0 1-1h-1a1 1 0 0 1-1-1V8l-2 1v1l-1 1-2 1-1 1h-1c1-1-1 0 0 0a2 2 0 0 1-1 0v-1h1l1-1 1-2h-1a1 1 0 0 0-1 0l-1 1h-1-1v1l1 2h-1v1h-1a3 3 0 0 1-1 1l-1 2h-1l-1 1v2l1 1m5 15v1c1 1 2-1 1-1h-1M238 285v0M458 30h-1l-1-1 1-1-1-1-1 1h-1v-1l1-1v-1a1 1 0 0 0 0-1h-1l-1 1h1a7 7 0 0 1-1 0h-1l1-1a1 1 0 0 0-1-1l-1 1h-2l1 1 1 2 1 1h-1a1 1 0 0 0-1 1l-1 1c-1 1 0 0 0 0v1a1 1 0 0 0 0 1h2a2 2 0 0 0 1-1l-1-1 1-1a5 5 0 0 1 1 1v2h4v-1l1-1m-14-9h-1v-1c-1-1-1 1-1 1a2 2 0 0 0 0 1v1a3 3 0 0 1 1 0l1 2 1 1h2c1-1-1-2-1-3v-1a3 3 0 0 0 0-1v-2l1-2 1-1a4 4 0 0 0-1-1c-1-1-1 1-1 1v-1-1a5 5 0 0 0-2 1v4l1 1h-1v1m-6-14h2a1 1 0 0 0 0-1 1 1 0 0 0 0-1c1 1 1 0 1-1h-1a1 1 0 0 1 0-1h1c0-1-1-3-2-2v1a13 13 0 0 1-1 2 6 6 0 0 0 0 3m-24 33a4 4 0 0 1 0 1v2h1a2 2 0 0 0 1 1h1l1-1h1l1-1 1 1a8 8 0 0 1-1 1 6 6 0 0 0 0 1l2 3h3a2 2 0 0 0 1 0l1-2 1 1 1-1h2a4 4 0 0 0 2-1 5 5 0 0 0 0-1l1-1v2a3 3 0 0 0 0 1 13 13 0 0 1 1 1 10 10 0 0 0 0 1l1 1v1a1 1 0 0 0 1 1v-1h1a1 1 0 0 1-1 1l-1 1h1a4 4 0 0 1 0 2l-2-1-2 1a1 1 0 0 0 0 1 3 3 0 0 0 1-1l3 1-2 1h-1a2 2 0 0 0-1 0c-1-1-2 0-2 1v1l1-1 1 1a1 1 0 0 1 0 1 1 1 0 1 0-2 0 1 1 0 0 0 1 1v1h1v2a2 2 0 0 0 0 2l1 1 1 1a6 6 0 0 1 1-1 1 1 0 0 0 1 0v-2c1-1-1 0-1-1v-1a3 3 0 0 0 1-1l-1-1 1-1a3 3 0 0 1 1-1 1 1 0 0 0 1 0v-1-1h-1a7 7 0 0 0 1-1l1-1h-1v-1l-2-1 2-1-1-1h1a5 5 0 0 0 1 1 4 4 0 0 1 1 1h1v-1h1v-2l1-1h2l2-1v-1-1-1-1a6 6 0 0 0 0-1h-1l-1 1h-1a4 4 0 0 0-1 1l-2 1h1v1h-1v-1l-1-1 1-1h1l1-1-1-2-1 1h-2l-1 1c-1 1 0 0 0 0a1 1 0 0 0 0 1h-1-1v-1a3 3 0 0 0 0-1h2l-1-1h-1l1-1v-1h-1-1l-1 2c0 1 0 0 0 0l-1-1h-1l-1-1a5 5 0 0 0-1 0l-2 1a2 2 0 0 1-1 0h-1l1-1 1-1 1-1v-1l2 1v-1l1-1v-1-1-1a4 4 0 0 0-1 0 2 2 0 0 1-1-1l-1-1v-1l-1-1h-1l-1-1-2-1a7 7 0 0 0-1 0 2 2 0 0 1 0-1l-2-1a1 1 0 0 1-1 1v-1l-1 1a6 6 0 0 0-1 0 4 4 0 0 1-2 1l-1 1a2 2 0 0 1 0 1l-2 2h1l-1 1 1 1a2 2 0 0 1 0 1v2h-1v2a4 4 0 0 0 0 1 4 4 0 0 0 0 1v2m13-17l1 1a3 3 0 0 0 1 2l3 1a6 6 0 0 0 2-1h1v-2-2c0 1 0 2 1 1a5 5 0 0 0 0 3l1 1 1-1v-2l-2-2v-1h-1v-1l-1 1a2 2 0 0 1-2 0l-1-1v-1h-1-1l-1 1a9 9 0 0 0-1 1v2m3-16v1h1a1 1 0 0 1 1 1 3 3 0 0 1 0 1v2a11 11 0 0 1 2 1v1l1-1s-1 0 0 0l1-1-1-1h2v1a7 7 0 0 1 1 0 5 5 0 0 1 1 1v3l1 1v-2h2v-1c0-1-1-3-2-2l-1-2V9h-1-1l-1-1-1-1h1V5 4c0-1 0 0 0 0l-1-1-1 1a2 2 0 0 0 0 1v1c0 1 0 0 0 0h-1l-1 1a12 12 0 0 0-1-1h-1a1 1 0 0 0 0 1m-2 17a2 2 0 0 0-1 0l-1 1c1 1 3 0 2-1m-1 36l1-1-1 1m9 11l1-1s-2 0-1 1m-7-13v-1-1h-2 1l1-1v-1-1l-1 1a7 7 0 0 0-2 1l-1 1-1-2v-1a1 1 0 0 0-1 1v1c0 1 1 2 2 1a2 2 0 0 0 1 2h1c1 0 0 0 0 0h2m21-31l1-1c1-1 0-1-1-1v1h-1l1 1m-26 25v-1l-1-1v1l1 1m19-21h-1v1l-1-1v2a2 2 0 0 1-1 0h-1c-1 0 0 0 0 0l-1-2v1a8 8 0 0 1-1 1 6 6 0 0 0 0 1 5 5 0 0 0-1 1v1l1 1a1 1 0 0 0 1 1v-1a1 1 0 0 1 1-1 2 2 0 0 1 1 1h1l1 1v-1a9 9 0 0 0 1 0l-1-2 1-1a3 3 0 0 0 0-3m8-9v0m-10-7v1l1 1-1 1 1 1 1-1-1-1v-1l-1-1m1 12v-1 1m-8 1h1l1-1-2-1-1 1-1 1h2m0 4h1l1-1h-1v-1a4 4 0 0 0-2 0 1 1 0 0 0 1 2M303 362l1-2-1-2v4m-26 46v1c-2-1-2 2-1 2a3 3 0 0 0 1-1h1l-1-1v-1m-9-35a2 2 0 0 0 0 1v1a1 1 0 0 0 1 0v-1l-1-1m32 23l1-1h1a3 3 0 0 1 1 0h1l1-1a3 3 0 0 0 1-1v-4-1l-2-1a1 1 0 0 1 0-2h1l1-1v-1l-1-2h-1-1c-1 0 0 0 0 0a2 2 0 0 1 0-1l1-2a8 8 0 0 0 0-2 6 6 0 0 0 0-2l-1-1a18 18 0 0 0 0-2l-2-2a9 9 0 0 0-1-1 14 14 0 0 0-1-1 3 3 0 0 0-3-1l-1 1a1 1 0 0 0 0 1l-1-1-1 2-1 1a3 3 0 0 0-1 0c-2 2-1 4-2 5v4l1 2a7 7 0 0 1 1 2 3 3 0 0 1 0 2 2 2 0 0 0-1 1v1 1h1l1 1a9 9 0 0 1 0 1 4 4 0 0 0 2 3 16 16 0 0 1 1 1l1 1h1a4 4 0 0 1 1 0 6 6 0 0 0 2 1m-37-49a2 2 0 0 1 1 0 4 4 0 0 1 0-1 14 14 0 0 0 1-3l1-1a18 18 0 0 0 0-2c1 1 2-3 3-4h1l1-2a4 4 0 0 0 0-2 3 3 0 0 1 1-1 28 28 0 0 0 2-3 7 7 0 0 0 1-2v-1-1a2 2 0 0 0 0-2c-1 0-3 0-2 1l-2 1-1 1v1h-1l-1 1h-1v1h-1c-1 0 0 0 0 0a4 4 0 0 1-1 1 5 5 0 0 0-1 0l-1 1-1 1-1 1a3 3 0 0 1-1 1l-1 2h-1v1a10 10 0 0 0-1 1 2 2 0 0 0-1 1v1h1v1h2v1h0a1 1 0 0 0-1 0h-1a1 1 0 0 0-1 0l-1 1h-1a3 3 0 0 0 0 1 4 4 0 0 1-1 1l-1 1a5 5 0 0 0-1 2 5 5 0 0 0 0 2v2a2 2 0 0 0 0 1l1 4 1 1h1a7 7 0 0 1 1 0l1 1a1 1 0 0 0 1 0v-1 1h1a1 1 0 0 0 1-1 1 1 0 0 1 0-1v-1l1-1-1-1v-1l2-2h1v-1l1-1v1a1 1 0 0 0 1-1v-1m7 19a2 2 0 0 0 1-1l-2-1v2h-1v1a5 5 0 0 1-1 1 5 5 0 0 0 0 2v2a2 2 0 0 0 0 1l1-1c0 2 2 0 1 0l1-2h-1l1-1v-1-1-1m35 19v2s1 2 2 1c0-1-1-4-2-3m187-194h-1a2 2 0 0 1 0-1v-1a1 1 0 0 0 0-1l-1-2a4 4 0 0 1 0-3l-1-2-1-1a6 6 0 0 1-1-1 4 4 0 0 1-1-1v-1l-1-1-1-1a5 5 0 0 0-1 0h-1c-1 0 0 0 0 0a3 3 0 0 1-1 0l-1-2h-1-1-1a3 3 0 0 0-1 0 3 3 0 0 0-1 0 2 2 0 0 1-1 0h-1l-1 1-1 1a1 1 0 0 1-1 0h-1-1-1a5 5 0 0 0-1 0l-1-1-1-1a1 1 0 0 0-1 0l-1 1v2l-1-1h-1a3 3 0 0 1-1 1h-1a7 7 0 0 0-1-1h-2a10 10 0 0 0-1 0l-1 1h-1v-1h-4a3 3 0 0 1-1-1 7 7 0 0 1-1 0h-1-2a2 2 0 0 1-1 0h-2v-1h-1l-1-1-1 1a2 2 0 0 1-1 0l-1-1h-2c-1 0 0 0 0 0h-1a5 5 0 0 0-2 1v1h-1-1a4 4 0 0 0-1 1 3 3 0 0 1-2 1l-3-1a4 4 0 0 1-1 0 10 10 0 0 0-2-1 25 25 0 0 1-4-2 11 11 0 0 1-2-1v-1l-1 1v-2l-2 1-1-1a4 4 0 0 0-2 1h-1a9 9 0 0 1-1 0h-1a3 3 0 0 0-1 1 4 4 0 0 1-2 0 2 2 0 0 1-1 0 1 1 0 0 0-1 1h1a5 5 0 0 1-1 2 3 3 0 0 1-1 1 4 4 0 0 1-3 0l-2 1-3-1a3 3 0 0 0-2 1h1a1 1 0 0 0 0 1h-1l-2 1a2 2 0 0 1-1 0 7 7 0 0 0-1 1h-1a6 6 0 0 0-1 1v1a5 5 0 0 1-2 1 11 11 0 0 1-1 0h-2a6 6 0 0 1-2 0h-1a3 3 0 0 0-2-1l-1 1-3 1h1l1 1c0 2-1 2-2 2-1 1-3 2-2 3a6 6 0 0 1-1 0l-1 1a2 2 0 0 1-1 2h-1l-1-1a3 3 0 0 0-1 0h-1l-2 1h-2-2-1s-1-2-2-1l1-1h3a5 5 0 0 0 2 1h1a4 4 0 0 1 2 0l1-1a2 2 0 0 1 1-1 6 6 0 0 0 1 0l-1-3a2 2 0 0 1-1 0 1 1 0 0 0-1 0h4l1-1v-1a2 2 0 0 1 3 0h1l-1-1v-1-1a5 5 0 0 1 2-2 7 7 0 0 0 1-1v-1l3-2v-2h-2a4 4 0 0 1-2 1 10 10 0 0 0-1 0 4 4 0 0 1-1 1 8 8 0 0 0-1 0h-2v-1a1 1 0 0 0 0-1 6 6 0 0 0-5 2l-3 2-2 2a3 3 0 0 0-1 1 6 6 0 0 1-1 1l-1 1-1 1c0-1 2-2 0-2a16 16 0 0 1 2-2l1-1h1a4 4 0 0 1 0-1l1-1h1l1-1v-1-1h2l2-1a3 3 0 0 1 2 0l1 1 1-1a6 6 0 0 1 1-1c1-1 2-3 3-2a1 1 0 0 0 1 0l1-1a3 3 0 0 1 1 0l-1 2a11 11 0 0 0 0 1v1l2 1a2 2 0 0 0 2-1 18 18 0 0 1 1-2 10 10 0 0 0 1-2l1-1a3 3 0 0 1 0-1l1-1 1-1a7 7 0 0 0 1-1 21 21 0 0 1 2-3l2-2v-3l-3 2a4 4 0 0 1 0 1 6 6 0 0 1-1 1 2 2 0 0 1-1 0h-1l-1-1a1 1 0 0 0-1 0 3 3 0 0 0 0-1 4 4 0 0 0-1 0 1 1 0 0 0-1 0 13 13 0 0 0-3 2 2 2 0 0 0 0-1h-1-1-1v-1a3 3 0 0 0-2 0h-1-1l-2-2h1a3 3 0 0 0 1 1h2c0 2 2 0 3 0a17 17 0 0 0 2 0l1-1v-1-1-1a8 8 0 0 1 1 0v-1a8 8 0 0 0 0-1l-1-2 2-3a1 1 0 0 1 0-1h2l2-1 1-1a6 6 0 0 1 1 0l1-1h1v-1a3 3 0 0 1 0-1 2 2 0 0 1 1-2l1-1 2-1a4 4 0 0 0 1 0l1-1 1-1h1a8 8 0 0 0 1-1l1-1h1v-1a6 6 0 0 1 2-2 8 8 0 0 0 2-1 8 8 0 0 1 1-1l2-2a2 2 0 0 1 0-1h1a6 6 0 0 0 1-1 11 11 0 0 1 1-2l1-2 1-1a4 4 0 0 0 0-1 7 7 0 0 1 1 0 6 6 0 0 1 2-1 5 5 0 0 1 0-1 2 2 0 0 1 1 0h1l1-1h2a2 2 0 0 0 1 0 5 5 0 0 0 2-3h1a2 2 0 0 1 0-1l2-1v-1h1c1 0 0 0 0 0l1-2c0-1 0 0 0 0a4 4 0 0 0 0-1v-1l1-1v-1a2 2 0 0 1 0-1h1l-1-1h2v-1c-1 0 0 0 0 0v-1a2 2 0 0 1 0-1v-1h-2l-2-2a8 8 0 0 1 0-1v-1a2 2 0 0 1 0-1l1-1a9 9 0 0 0 1-1 10 10 0 0 1 1-1l1-2v-1l-1-1h2a3 3 0 0 0 0-1 2 2 0 0 0 0-1v-1a2 2 0 0 1 0-1l1-1h-1a6 6 0 0 0-1 0h-1-2c-1 1 0 0 0 0h-1-1l-1-1-1-1c0-1 0 0 0 0a1 1 0 0 1-1 1h-2a2 2 0 0 0-1 0 5 5 0 0 0-1 0h-1v1l-1-1a1 1 0 0 0-1 0 8 8 0 0 1 0-1 3 3 0 0 0-1-1 1 1 0 0 0-2 0v4l1 1c1 1 0 0 0 0 1 1 2 0 1 1a2 2 0 0 1 0 1h-1a2 2 0 0 0-1 0h-1l-1-1c-1 0 0 0 0 0h-1a4 4 0 0 0-1 0 7 7 0 0 0-1 0l-1 1-2-1h1a2 2 0 0 0 0-1h-2-2a14 14 0 0 1-1 0h-1a1 1 0 0 0-1 0l-1 1h-1a6 6 0 0 1 0 1 15 15 0 0 0-2 1c-1 1-3 1-2 2l-1-1-1 1h-1-1-2s0-1 0 0h-1l-1-1h-1-1a5 5 0 0 0-2 1v-2c0-1 0 0 0 0a3 3 0 0 1 0-1l-1-1v1h-1a2 2 0 0 0 0 1 4 4 0 0 1-1 1l-1 1h-1v-1a1 1 0 0 0-1 0h-1v1a2 2 0 0 0-1 1h-2a1 1 0 0 0-1 0v1c0 1-1 0 0 0h-1v1a1 1 0 0 0-1 0 1 1 0 0 0-1-1l-1-1c1 0 0 0 0 0h-1a1 1 0 0 0 0 1l-1-1a2 2 0 0 0-1 1l-1 1-1 1-1 1-1 1h-1l1 1-1 1-1 2-1 1a3 3 0 0 0 1-3l1-1v-2a3 3 0 0 1 1 0 6 6 0 0 0 1-1v-1h-1v-1a4 4 0 0 1 0-1h1l-1-1h-1a1 1 0 0 0-1-1h-1l-1-1a3 3 0 0 0 0-1h-1a1 1 0 0 0-1 0h-1-1-1v4a2 2 0 0 1-1 2 4 4 0 0 1-1 0 2 2 0 0 0-1 1 9 9 0 0 0-1 1v1c0 1 0 0 0 0l-1 1-1 1-1 1a3 3 0 0 1-1 1v-1l1-1a13 13 0 0 0 1-1 6 6 0 0 1 0-2 4 4 0 0 1 1 0v-1h1v-1l1-1a4 4 0 0 0 0-1v-1s1 0 0 0h-1v-1a6 6 0 0 1-1 0v-1h-1l-1-1v-1h-1v-1l-1-1v3h-1a2 2 0 0 0-1 1 2 2 0 0 0 1 1v1c1 1-1 1-1 2h-1l2-2-1-1v-1a4 4 0 0 0 0-1v-1s0-1 0 0l-1-1a1 1 0 0 0 0-1h-1-1v-1h-2a2 2 0 0 0-1 0h-1-1a2 2 0 0 0 0-1 3 3 0 0 1-1 0l-1-1a1 1 0 0 0-1 2v2a1 1 0 0 0 0 1v1a2 2 0 0 0-1 1 6 6 0 0 1 0 1 7 7 0 0 1-1 1 2 2 0 0 1-1 0l-1 1-1 1c0 1 0 0 0 0a3 3 0 0 0-1 1 7 7 0 0 1 0 1v3a2 2 0 0 0 1-1l1 1v1h1v1h1a3 3 0 0 0-2 0 5 5 0 0 0-1 1 2 2 0 0 1 0 1h-1l1 1c1 0 0 0 0 0v1a3 3 0 0 0 2 1l1 1v1h-1l-1-1a1 1 0 0 0-1-1h-1c-1 0 0-2-1-1l-1 1v2l-1-1h-1a2 2 0 0 0-1 1l1 1h1c1 0 0 0 0 0v1l-1 1a2 2 0 0 0 1 1s0-1 0 0c0 0-1 0 0 0v2h2c1 0 0 0 0 0a1 1 0 0 0-1 1v1c0 1 0 0 0 0l1 1c1 0 0 0 0 0v1h1v1a5 5 0 0 1 1 0 6 6 0 0 0 0 1 2 2 0 0 0 1 0l1 1a4 4 0 0 1 1-1v1h-1a2 2 0 0 1-1 0 3 3 0 0 1-1-1l-1-1h-1a1 1 0 0 0 0 1h-2l-1 1-1-1h-1c-1 0 0 0 0 0h-1l-1-1v-1l-1 1v1a1 1 0 0 0 1 1h-1c-1 0 0 0 0 0a1 1 0 0 0-1 1h-1a3 3 0 0 0 0-1h-1a1 1 0 0 0 0-1h-1c-1 0 0 0 0 0l-1-1h-1a3 3 0 0 0 0 1l-1 1v1l1 1a6 6 0 0 1 1 1v1l1 1v1h1v1c0 1 0 0 0 0h1v2a2 2 0 0 0 1 1 2 2 0 0 0 1 0 1 1 0 0 1 1 0 1 1 0 0 1-1 1l-1-1a1 1 0 0 0-1 1l1 1c0 1 0 0 0 0l-1 1 1 1c0 1 0 0 0 0v3l-1 1-1-1-1-1-1 1a2 2 0 0 0 0 1v-1l-1-1v-1h-1a9 9 0 0 1 0-1 2 2 0 0 0-1 0 3 3 0 0 0 0-1l-1 1h-1v4a2 2 0 0 0 1 0 6 6 0 0 1 1 1 2 2 0 0 0-2 0h-1a1 1 0 0 0 1 1h1a1 1 0 0 0 1 1l1 1h2c0 1-1 2 1 2a1 1 0 0 1 0 1 5 5 0 0 1 1 1v1h1a8 8 0 0 1 2 1h1a8 8 0 0 0 0 1 2 2 0 0 0 1 0 5 5 0 0 1 1 0v1l1 1h-1l-1 1c-1 1 0 0 0 0h-1l1 1 1 1a3 3 0 0 1 1 1l1 1 1 1-2-1a6 6 0 0 1-1-1 7 7 0 0 0-1-1 2 2 0 0 0-1-1h-1a4 4 0 0 0-1 0h-1-1a2 2 0 0 1-2-1v-1c0-1 0 0 0 0h-2-1v2a6 6 0 0 0 2 1 3 3 0 0 1 2 0v3a3 3 0 0 0 2 1h2v2a7 7 0 0 0 1 0 4 4 0 0 1-1 0l-1-1h-1a7 7 0 0 1-1-1l-1-1a3 3 0 0 1-1 0 2 2 0 0 0 0-1l-3-3-2 1v2h-1v3l-1-1h-1c-1 0 0 0 0 0a6 6 0 0 0-1 0 3 3 0 0 1 0-1 3 3 0 0 0-1 0v-1h-1a9 9 0 0 1 0-2v-1-1h-1s-1-1 0 0h-1v-1a6 6 0 0 0-1 0l-2 2a4 4 0 0 0 0 1l-1 1c0 1 0 0 0 0v1c0 1 0 0 0 0v1l1 1c0 1 0 0 0 0a5 5 0 0 0 1 1 2 2 0 0 1 1 0v1h1v1a5 5 0 0 1-1 2v1h1l-1 1h-2a7 7 0 0 0 1 1l1 1h-1l-1-1-1-2v-1-1c0-1 0 0 0 0a3 3 0 0 0 0-1l-1-1a1 1 0 0 0 0-1h-1a4 4 0 0 1 1-1v-1a1 1 0 0 0-2-1h-1c-1 0 0 0 0 0h-1a1 1 0 0 0-1 0l-1 1h-2l1 2-1 1a30 30 0 0 1 1 3 4 4 0 0 1 0 2 5 5 0 0 0-1 2v1l1 1h1l1 1a4 4 0 0 0 2 0l1 1v1l1 1v1h-1v-1a1 1 0 0 0-1-1 1 1 0 0 0 0 1 1 1 0 0 0-2-1 2 2 0 0 0-1 0v1l-1 1v1l-1 1a2 2 0 0 0 0 1l-1 1 1 2v-1a1 1 0 0 1 1 1 3 3 0 0 1 1 0 4 4 0 0 1 0 1l1 1a4 4 0 0 1 0 1 2 2 0 0 0 0 1 3 3 0 0 0 1 1l2 1h-1a1 1 0 0 0 0 1l1 1 1 1c1 1 0 0 0 0h1l1-1h2l1 1a3 3 0 0 0 1 0 2 2 0 0 1 2 0v1a1 1 0 0 1-1 0h-3a2 2 0 0 0-2 1v-1a1 1 0 0 0-1 0 1 1 0 0 0 0-1 1 1 0 0 0-1 0v1a6 6 0 0 0 1 1v1l-1-1-1-1c0-1 0 0 0 0l-1-2-1 1h-1v-1a3 3 0 0 1 0-1h-1v-1h-1v-1h-1v-1a1 1 0 0 0-1 1h-1v1h-1v1a1 1 0 0 1 0 1 6 6 0 0 0 0 1 5 5 0 0 1-1 2v5l1 3a1 1 0 0 0 1 0h1l-1 1a3 3 0 0 0 0 1v2c0-1 0 0 0 0v1h-1a6 6 0 0 0 0 2s0 2 1 1a2 2 0 0 0 1 1v1h2l2-1 1-1a6 6 0 0 1 1-1 4 4 0 0 0 1-1 2 2 0 0 1 1 0l1-1a3 3 0 0 0 1 0 5 5 0 0 1 0-1v1h1l-1 1c-1 1-2 0-2 2h1a6 6 0 0 0 1 0v1h2l-1 1a3 3 0 0 1-1 1 2 2 0 0 1-1-1l-1 1v-1h-1-1v2h-1l-1 1a3 3 0 0 0-1 1 2 2 0 0 0 0 1v1a1 1 0 0 0 1 1 7 7 0 0 1 2 0 1 1 0 0 0 1-1h1l1 1a2 2 0 0 0 1 0 1 1 0 0 0 1 1l1-1h3c-1 1 1 2 2 3a5 5 0 0 0 1 2 5 5 0 0 0 3 0h-1v1l-1 1-1-2-1-1-1-1c0-1 0 0 0 0a8 8 0 0 0-2-2h-1l-2 1h-1-1-1a1 1 0 0 0 0 1 6 6 0 0 1-1 0v2h1a9 9 0 0 1 0 1v1a2 2 0 0 1-1 0 10 10 0 0 0-2 3v3h1a4 4 0 0 0 2 0 2 2 0 0 1 2 1l1 1h1a6 6 0 0 0 0 1 2 2 0 0 0 1 2 3 3 0 0 0 2 0h1l-3 1h-1a8 8 0 0 1-1-1v-1a7 7 0 0 1-1-1l-3-1h-4a4 4 0 0 0-1 1 5 5 0 0 1 0 1 2 2 0 0 1-1 1h-1v1a2 2 0 0 0-1 0v1l-1 1 1 1v1c0 1 0 0 0 0h1v1a1 1 0 0 0 2 1 1 1 0 0 0 0-1 6 6 0 0 1 2 0 2 2 0 0 1 1 1l-1 1a3 3 0 0 0 1 2h1v1h2a7 7 0 0 0 1 0h1l2-1h1l-2 1c-1 0 0 0 0 0a1 1 0 0 1-1 0 3 3 0 0 0-1 0v1a4 4 0 0 0 0-1 2 2 0 0 0-1 0l-1 1h-1a1 1 0 0 0-1 0 1 1 0 0 1-1-1 1 1 0 0 0-1-1l-1-3-3 1h-1a2 2 0 0 0-1 0 3 3 0 0 0-1 0 1 1 0 0 0-1 1l1 1h-1a7 7 0 0 0 0 1v1h1-1l-1 1v1a7 7 0 0 0 0 1 3 3 0 0 0-1 1h-1a1 1 0 0 0-1 1h1l2 1v1a2 2 0 0 1-1 0l-1-1a1 1 0 0 0-1 1l-1 1a1 1 0 0 0 0 1h1l1 1 1-1h2a1 1 0 0 0 1 0 3 3 0 0 0 1 0v-1h2a10 10 0 0 1 1 0v1h-1a3 3 0 0 0-1 1l-1 1a1 1 0 0 0 1 0 3 3 0 0 1 0 1h3c0-1 0 0 0 0a1 1 0 0 1 1-1v1a2 2 0 0 0-1 0v1l-2-1-1 1h-1l-1 1h-1-1c0 1-2 1-1 2l-2 1 2 1a2 2 0 0 0 0 1l2-1s2 0 1-1a4 4 0 0 1 1 1h-1-1a1 1 0 0 0 0 1h-2a2 2 0 0 0 0-1h-1a1 1 0 0 0-1 0 2 2 0 0 0 0 2l1 1a2 2 0 0 0-1 0h-1a6 6 0 0 0 0-1l-1-1c0-1 0 0 0 0l-1-1c0-1 0 0 0 0l-1 1h-2l-1 1v-1 1a2 2 0 0 0-1 0h-1-2a1 1 0 0 0 0-1h-1a5 5 0 0 1-1 1v-1l-1 1c-1 0 0 0 0 0h-1l-1 1v1h-1a1 1 0 0 0-1 0v1a2 2 0 0 0-1 2l2 2 1 1a3 3 0 0 1 1 0h2a5 5 0 0 0 0-1h1v1a1 1 0 0 0 1 0l1-1a2 2 0 0 1 1 1l1 1a8 8 0 0 0 2 0h2c0-1 0 0 0 0l1-1 1 1h1a1 1 0 0 0 0 1h1c1 0 0 0 0 0a2 2 0 0 0-1 1v-1h-1l-1-1v1l-1 1h-3v3a2 2 0 0 0 1 1l1 2v1l1 1a3 3 0 0 0 0 1h1v1h1l1 1h1a14 14 0 0 0 3 2 11 11 0 0 0 1 0l1-1 1 2v1l1-1 1 1 1 1 1 1c1 1 0 0 1-1h1l1-1h1l1-1a3 3 0 0 0 1 0 4 4 0 0 1 0-1l2-1v-1h1l1-1v-1l1-2v-1a1 1 0 0 0 1 0 4 4 0 0 0 1-1 12 12 0 0 1 3-2l1-1 2-2v-1h1a3 3 0 0 1 1-1 1 1 0 0 0 1 0l1-1v1l1-1a3 3 0 0 1 1-1l1-1-1-1a4 4 0 0 1 1-1l1-2a2 2 0 0 0 1 0l2-2 1-1a7 7 0 0 0 1-2 2 2 0 0 0 1-1l-1-1h1a1 1 0 0 1 1 2h-1l-1 2a9 9 0 0 0-2 2 3 3 0 0 1 0 1 6 6 0 0 1-1 0 9 9 0 0 0-1 2 8 8 0 0 1-1 1l-1 1a9 9 0 0 0 0 1l-1 1 2 1a9 9 0 0 1 1 0l1 1h-2a2 2 0 0 0-1 0v1a2 2 0 0 0-1 0l-3 1a3 3 0 0 0-1 1c-1 1 0 1 1 1v1h-1a15 15 0 0 1-1 1 11 11 0 0 0-1 2l-2 2 1-1h-1a1 1 0 0 0-1 1l1 1a3 3 0 0 0 1 1 2 2 0 0 1-1 0l-1-1a3 3 0 0 0 0 1l-1 1a1 1 0 0 0 0-1h-1a2 2 0 0 1-1 1v-1h-1v1a8 8 0 0 0-2 2 4 4 0 0 1-1 1 9 9 0 0 1-1 1 7 7 0 0 1-1 1 8 8 0 0 0-1 0l-1 1h1a4 4 0 0 1 0 1l-1 1a1 1 0 0 0 0 1l2-1a7 7 0 0 0 1-1 4 4 0 0 1 1-1 4 4 0 0 0 2-2 7 7 0 0 1 1-1l1-1a14 14 0 0 0 2-2h1l-1 1h1a1 1 0 0 0 0 1 1 1 0 0 0-1 0v1h-1a3 3 0 0 0-1 1 6 6 0 0 1 0 1l-1 1-1 1a1 1 0 0 0 1 0h1l-1 1h1v-1l1-1h1v2a3 3 0 0 1 0 1v1h1l2-1c1-1 0 0 0 0h1a5 5 0 0 0 1 0l1 1h2l1 1a1 1 0 0 0 1 0c1 0 4-1 3-2a3 3 0 0 1 1-1v-1l1-1a9 9 0 0 0 1-1 3 3 0 0 0 1-1v-1h1a4 4 0 0 1-1 2 4 4 0 0 0-1 1l-1 1v1a4 4 0 0 0-1 1l-1 1a3 3 0 0 1-1 1h-1a7 7 0 0 1-1 1 1 1 0 0 0-1 0 2 2 0 0 1 0-1l-1-1h-1c-1 0 0 0 0 0h-1c-1 0 0 0 0 0h-2l-1-1-1 1a5 5 0 0 1-1 0h-1v-1l-1 1h-2l-1 1v1h-1l-1 1h-1v1h-1l-1 1-1 1v1a1 1 0 0 0 1 0v1h1a8 8 0 0 0 1-1v1h-1l1 2h-1a6 6 0 0 0-1 0 2 2 0 0 0-1 1 8 8 0 0 0 0 1l-1 1-1-1-2 2a3 3 0 0 0 0 1 1 1 0 1 0 0 1h0l1 1a1 1 0 0 1-1 1l-1 1a4 4 0 0 0 0 1v2a2 2 0 0 0 0 1 6 6 0 0 1 0 1v1a4 4 0 0 0 1 1h1a1 1 0 0 0 0-1v-1-1l1-3a1 1 0 0 0 0-1l2 1 1-1a2 2 0 0 0 1 0 5 5 0 0 1 1 0h1s0-1 0 0a1 1 0 0 0-1 1h-1a4 4 0 0 1-1 1h-1a1 1 0 0 0 1 1v1h1l-2 1v1l-1 2c-1 1 0 0 0 0v1l-1 1v1h-1v2l2-1 1-1v-1a3 3 0 0 1 1-1v-1a10 10 0 0 0 1-1 1 1 0 0 1 2 0l-1 1-1 1v1l-1 1-1 1a4 4 0 0 1 0 1 3 3 0 0 0 0 1v1l1 1v1h-3l-1 1v1a10 10 0 0 0-2 1v2c0 1 0 0 0 0l-1 1v1h-1v1l-1 1v1l-1 1a9 9 0 0 0 0 1v1a3 3 0 0 0 0 2h1a4 4 0 0 0 1-1v-1-1l1-1h-1a2 2 0 0 0 1-1h1l1-1 1-2a2 2 0 0 1 0-1h1l-1 1v1l-1 1a2 2 0 0 1 0 1l-1 2-1 1-1 1v1l-1 1a11 11 0 0 0 0 1h-1l1 1v2l1-1h1a1 1 0 0 0 1-1 9 9 0 0 1 1-2h1l1-1a2 2 0 0 1 0 1 5 5 0 0 0-1 1l-1 1a2 2 0 0 0-1 1 2 2 0 0 0 0 1v1l-1 1a9 9 0 0 0-1 1v2a3 3 0 0 0-1 1 8 8 0 0 1 0 1 4 4 0 0 0 0 1 1 1 0 0 0 1 1l2 1v1l1 2 1-1 1-1h1a3 3 0 0 1 1 0 3 3 0 0 0 0-1 11 11 0 0 0 1-1h1v-1l1-1h1v-1h1v-1-1 2h-1a4 4 0 0 0 0 1 3 3 0 0 1-1 1v1h-1v1h-1l-1 1-1 1h-1l-2 2a14 14 0 0 0-2 4 4 4 0 0 1-2 2l-1 1 1 1-1 1v2a4 4 0 0 1 0 2l-1 2a3 3 0 0 1-1 1 2 2 0 0 0-1 2 12 12 0 0 0 1 2 3 3 0 0 1-1 2 3 3 0 0 0 0 1v2a6 6 0 0 1 0 2v2l-1 2v1h-1l-1 1c-1 0 0 0 0 0l-1 1-1 1a13 13 0 0 1 0 2l-1 1v4a5 5 0 0 0 0 1 2 2 0 0 0 0 1l1 1a1 1 0 0 0 1 0 9 9 0 0 0 1 1 10 10 0 0 0 1-1h2a6 6 0 0 1 2-1 2 2 0 0 1 1 0h3l2-1v-1l1-1a2 2 0 0 0 1-1l1-1a3 3 0 0 0 0-1v-2a5 5 0 0 0-1-1 7 7 0 0 1 0-1v-1h-2-1l-1-1 1 1a6 6 0 0 0 1-1 1 1 0 0 0 1 0v-1c0-1 0 0 0 0a2 2 0 0 0 1-1v-2a3 3 0 0 1 2-1v-1-1c0-1 0 0 0 0v-1-2h1a5 5 0 0 0 0-1 4 4 0 0 1 0-1 11 11 0 0 1 0-1v-1l1-1 1 1v-1-2a5 5 0 0 1-1-1 13 13 0 0 0 0-2v-1a1 1 0 0 1 1-1v-1a6 6 0 0 1 1-1 2 2 0 0 0 0-1v-1a2 2 0 0 0 1-1 2 2 0 0 1 0-1l1-1a8 8 0 0 1 1-1 7 7 0 0 0 0-1l2-1a5 5 0 0 0 1-1h2v-2a3 3 0 0 0 0-1v-2a3 3 0 0 0-1-2l-1-2-1-1a2 2 0 0 0-1 0 1 1 0 0 0 0-2v-1h-1a3 3 0 0 1 0-1 6 6 0 0 1 0-2 7 7 0 0 0 0-1 5 5 0 0 0 0-1 3 3 0 0 0 0-1l-1-1a8 8 0 0 1 0-1 6 6 0 0 0 0-1v-1a7 7 0 0 1 0-1v-1-1a4 4 0 0 0 1-1 10 10 0 0 1 0 1v1l1 1 1 1v-1 1l1-1 1-1c1-1 0 0 0 0a2 2 0 0 1 0-1c1 1 1 0 1-1a2 2 0 0 0 0-1 1 1 0 0 0 1-1h1l1-1a4 4 0 0 0 0-1 2 2 0 0 1 1-2h1v-1l1-1a2 2 0 0 1 1-1 10 10 0 0 0 1-1 5 5 0 0 1 1 0 2 2 0 0 1 1-1h1l1-1 1-1 1-1v-1a3 3 0 0 1 0-1l1-1 1-1a3 3 0 0 0 0-1l1-2 1 2 1-1c1 0 0 0 0 0h1a2 2 0 0 0 1 0 2 2 0 0 1 1-1 5 5 0 0 0 2-1l-2 2a2 2 0 0 1-2 1 4 4 0 0 0-1 0l-1 1c-1 1 0 0 0 0l-1 1-1 1a3 3 0 0 0-1 2v1l-1 1a7 7 0 0 1-2 1v1h-1a2 2 0 0 0-1 0 7 7 0 0 0-2 0v3l-1 1-1 1a8 8 0 0 0-1 1l-1 1-1 2a10 10 0 0 0-1 1 7 7 0 0 1 0 1 3 3 0 0 1-1 1l-1 1v2l-1 2a2 2 0 0 0 1 0v1l-1 1v5c0 1 0 0 0 0v1h1v1h1v1a7 7 0 0 1-1 0v1h2l1 1h1v1l2 1h1v-2a2 2 0 0 0 0-1l-1-1a5 5 0 0 1 0-1v-2a2 2 0 0 1 0-1l2-1v-1-1a2 2 0 0 1 0-1v-3a10 10 0 0 1 0 2 6 6 0 0 1 0 1 2 2 0 0 0 1 2 4 4 0 0 1 1 1l-1-1c-1-1 0 0 0 0l-1 1a3 3 0 0 1-1 1l-1 1v1a2 2 0 0 0 0 1h1a4 4 0 0 0 1 1 8 8 0 0 1 0 1l1 1a1 1 0 0 0 1 0h1v1a4 4 0 0 0-1 1v3h1a4 4 0 0 1 0 1 2 2 0 0 0 0 1v1l1-1 1 2h1c1 0 0 0 0 0a2 2 0 0 1 0 1 2 2 0 0 0 0 1h1l-1 1h1a3 3 0 0 1 0 1h2l1-1a2 2 0 0 0 0-1l-1-1s-1 0 0 0v-1l1-1v-1a17 17 0 0 1 0-2 8 8 0 0 1-1-2v-1s0-2-1-1h-1v-2h-1v-2l-1-1a8 8 0 0 1-3-3 6 6 0 0 0 1 0 4 4 0 0 1 0 1l2 1 1 1a1 1 0 0 0 1-2 9 9 0 0 1-1-1v-1a5 5 0 0 0 0-1v-2l-1-1 1 1a6 6 0 0 1 1 2 5 5 0 0 1 0 1 6 6 0 0 0 0 2 5 5 0 0 1 1 1 10 10 0 0 0 0 1v3a2 2 0 0 1 1 0 5 5 0 0 0 2 0h1v-2a5 5 0 0 1 1 0v-1a7 7 0 0 0 1-1 9 9 0 0 0 0-1 5 5 0 0 1 0-1 6 6 0 0 0 1-1v-1c0-1 0 0 0 0l1-1a2 2 0 0 0 0-2 3 3 0 0 0-1-1h-1v-1a2 2 0 0 0 1 1h2a3 3 0 0 0 0-1 4 4 0 0 1 0-1 15 15 0 0 0 0-2v-1a8 8 0 0 1 0-1v-1l1-1v-1a6 6 0 0 1 0-1 2 2 0 0 0 0-2h-1a4 4 0 0 1 0-1v-1a2 2 0 0 0 0-1 5 5 0 0 0 0-2v-1 1a3 3 0 0 1 1 2l-1 3a2 2 0 0 0 2 1l1-1 1-1v-1l1-1a1 1 0 0 0 0-1v-1h1v-2h1l1-2h1l-2 2v1l-1 1a3 3 0 0 0-1 2 2 2 0 0 1-1 2 4 4 0 0 0-1 1 6 6 0 0 0 0 1l-1 2-1 2v4l1 2v1a2 2 0 0 0 1 1h1a1 1 0 0 0 1 0 5 5 0 0 1 1 0h1v-1c-1-1 0 0 0 0v-1h-1a4 4 0 0 0-1-2 12 12 0 0 1-1-2 5 5 0 0 1-1-2 4 4 0 0 1 1-1v-1 2a4 4 0 0 0 1 1 14 14 0 0 1 1 3v1h2a2 2 0 0 0 0 1h1l1 1c1 1 0 0 0 0h1v1 2h1l1 1c1 1 0 0 0 0h1l1 1 3 1h1l1 1a2 2 0 0 0 1 0 5 5 0 0 1 1 0h1a3 3 0 0 0-1 0h-1-1a4 4 0 0 1-1 0 6 6 0 0 0-1 0l-1-1a5 5 0 0 1-1 0h-1-2a4 4 0 0 1-1 0 6 6 0 0 1-1-1 5 5 0 0 0-2-1l-2-1a3 3 0 0 0-1-1 1 1 0 0 0-1 0v1l-1-1v1a2 2 0 0 1-1 0l-2 1v3l-1 1c0 1 0 0 0 0l-1 2 1 1c1 1-1 1-1 1a5 5 0 0 0 1 1 2 2 0 0 1-1 2 2 2 0 0 0 0 1 6 6 0 0 1 0 1l1 1a3 3 0 0 0 0 1l1 2a2 2 0 0 1 0 1v2h-1v1h-1v1a1 1 0 0 0-1 1v1a1 1 0 0 0 0 1h1a4 4 0 0 1 1 1v1l1 1 1 1a2 2 0 0 1 1 1l-1 1h1l1 1h1a2 2 0 0 1 1 0v1h1c2 2 1 1 0 0a2 2 0 0 1 1 0 7 7 0 0 1 1 1 5 5 0 0 0 1 1l1 1a12 12 0 0 1 0 1 5 5 0 0 1 0 1 6 6 0 0 1 0 1v1h-1a1 1 0 0 0 0 1h1v1a5 5 0 0 0 1 1h1a6 6 0 0 1 0 1 3 3 0 0 1 0 2 10 10 0 0 0 0 1l-1 1v1a2 2 0 0 0 0 1l-1 1h-3v1a5 5 0 0 1-1 0 3 3 0 0 0-1 1l-1 1-1 4-2 2v1h-1a4 4 0 0 0-1 1v3a5 5 0 0 1-1 3 12 12 0 0 0 0 2 5 5 0 0 0 0 1 1 1 0 0 1-1 1l-1 1a7 7 0 0 0 0 1 10 10 0 0 0-2 2 4 4 0 0 1-1 2 17 17 0 0 1-2 1 3 3 0 0 0-1 1 9 9 0 0 0-1 2 8 8 0 0 1 0 1 8 8 0 0 1 0 1 4 4 0 0 0-1 0 3 3 0 0 1 0 1v1a3 3 0 0 0-1 1 17 17 0 0 0-1 2v1a3 3 0 0 0-1 2l1 2v1a12 12 0 0 1 1 2l1 1a5 5 0 0 1 0 1v2a3 3 0 0 1 1 1l-1 1a1 1 0 0 1-1 0l-1-1-1-1a5 5 0 0 1 0-1v-1a8 8 0 0 1 0-1v-1c0-1 0 0 0 0a5 5 0 0 1 0-1 3 3 0 0 0-1-2l-1-2a1 1 0 0 0-1 0l-2 1h-1a2 2 0 0 0 0 2l-1 1c0 1 0 0 0 0v3l1 5a4 4 0 0 1 0 2l1 1a7 7 0 0 0 0 1 2 2 0 0 0 1 1 13 13 0 0 1 1 2l1 1c1 1 0 0 0 0l2 1a2 2 0 0 1 0 2l1 1h1l1 1-1 1a1 1 0 0 0 1 1c-1 0 0 0 0 0v1a1 1 0 0 0 0 1h1v1h1a2 2 0 0 0 0 1v1l-1 1a1 1 0 0 0 0 1v1s0 2 1 1l1 2h2a7 7 0 0 1 1 1h2c1-1-1 0-1-1a3 3 0 0 1 0-2 3 3 0 0 1 0-1l1-1h-1l-1-1a4 4 0 0 1-1-1 3 3 0 0 0 0-2v-1l-1-2a8 8 0 0 1 0-2 13 13 0 0 0-1-1 6 6 0 0 0 0-2v-2l1-1a10 10 0 0 1 1 0l2-1h1a8 8 0 0 0 1-1v-1a3 3 0 0 0 1 1 1 1 0 0 1 1 0 4 4 0 0 0 1 1l1 2a1 1 0 0 0 1 0 2 2 0 0 1 1 0l2 1a12 12 0 0 0 2 3 12 12 0 0 1 1 0 4 4 0 0 0 1 1h1a5 5 0 0 1 1 1 1 1 0 0 1 0 1c1 0 0 0 0 0a2 2 0 0 0 1 1l1 2h1v1l1 1h1a12 12 0 0 0 2 2l1 1h2l2 1a4 4 0 0 0 1-1 5 5 0 0 0 1-1 5 5 0 0 0 0-1v-1h-1a2 2 0 0 1 0-1l1-1v-1a2 2 0 0 0 0-2l-1-1a1 1 0 0 0 1 0 1 1 0 0 0 0-1h-1 1a1 1 0 0 0 1 0 3 3 0 0 0-1-3 6 6 0 0 0-2-1h-1v-1-2a6 6 0 0 1 0-1h-1 1a4 4 0 0 0-1-1l2-2v2l1 1a3 3 0 0 0 2 2 13 13 0 0 1 2 1h3v-1h1l1-1h1l-1 1v1s-1 0 0 0l-1 1a2 2 0 0 0 1 1 3 3 0 0 0 0 1 2 2 0 0 0 2 1v2h1l1 1 1-1 1 1v1h1v-2-2a2 2 0 0 0 0-1l1-1 1 1v-1c1 1 0 2-1 3a2 2 0 0 0 0 1 3 3 0 0 0 1 1h2a5 5 0 0 0 1 1s0-1 0 0h2l1-1a5 5 0 0 1 1-1 9 9 0 0 1 1 0 7 7 0 0 0 1-1 9 9 0 0 0 2 0v-1-1a1 1 0 0 1 1 0h2l-1-1a5 5 0 0 1-1-1v-1h1v-1a4 4 0 0 0-1-1 1 1 0 0 0 1 0 4 4 0 0 0 1 2 1 1 0 0 0 1 0l-1-1a2 2 0 0 1 0-1 2 2 0 0 1 0-1 3 3 0 0 0 1 2 4 4 0 0 1 1 0l1 1v-1a2 2 0 0 0 1 0h1v-1l1-1a3 3 0 0 0 1 0v-1l1 1a4 4 0 0 0 2 0 5 5 0 0 1 2 1l1-1 1-1a3 3 0 0 0 1-2 4 4 0 0 0 0-1l-1-1v-2a7 7 0 0 0 0-1v-1l1-1a1 1 0 0 0-1-1v-1a3 3 0 0 1 0-1 6 6 0 0 0 1 4 3 3 0 0 0 3 1h2a2 2 0 0 0 1-1l1-1a6 6 0 0 0 1-1l1 2a6 6 0 0 0 1 0 4 4 0 0 0 2 0 12 12 0 0 1 1 0 3 3 0 0 1 1 0l3 1 1-1 1 1v-1h1a5 5 0 0 0 1 0s-1 0 0 0a5 5 0 0 1 1 0l1 1a2 2 0 0 0 2 0l1-1a10 10 0 0 0 2-2 5 5 0 0 1 1-1l1-1v-1l1-2h1l1-1v-1l1-1a8 8 0 0 0 2-1l1-1h1l1-1a2 2 0 0 0 1 0 10 10 0 0 1 1-1l1-1h1l2-1a6 6 0 0 0 2-1l1-1a10 10 0 0 0 0-2l1-1v-2a2 2 0 0 1 1-1 9 9 0 0 1 2-1l1-1v-1a2 2 0 0 1 0-2 27 27 0 0 0 2-2v-1l1-1h1v-1a5 5 0 0 0 1-1 5 5 0 0 0 0-2l1-1h3l2 1a5 5 0 0 0 1 0 4 4 0 0 0 2-1v-4c0-2 1-2 3-2h4a5 5 0 0 0 1-2 5 5 0 0 0 0-3v-3a10 10 0 0 0 0-3 3 3 0 0 1-2 0l-1-1 1-1v-1a11 11 0 0 0-1-2l-2-3-1-1 2-2h2a8 8 0 0 0 1-1h2l1-2a3 3 0 0 0 0-1 2 2 0 0 1 1-1 7 7 0 0 1 1-1l1-2a3 3 0 0 1 1-2l1-1c1-1 0-3 2-3l2-1v-1a4 4 0 0 1 1-1v-1h1a3 3 0 0 1-1-1 4 4 0 0 0 0-1 5 5 0 0 1-1-1 5 5 0 0 1 0-1v-2a2 2 0 0 0-1 0h-1a3 3 0 0 1-1-1v-1c0-1 0 0 0 0v-1l-1-1h-2l-1-1-1-1a1 1 0 0 0-1 0l-2 1h-1a6 6 0 0 0-2 0l-1-1a7 7 0 0 0-1 0l-1-1-1-1-1-1v-1h-1c-1 0 0 0 0 0l-1-1a1 1 0 0 0-1 0v-1h-2a1 1 0 0 1-1-1h-2l-1-1v1a2 2 0 0 1-1 1v-1-1c0-1 0 0 0 0v-1a2 2 0 0 0-1-1v-1l-1-1h-1a2 2 0 0 0-1 0 8 8 0 0 1-2-1l-1 1v-1a2 2 0 0 0-1 0h-1-2a4 4 0 0 0-1 0l-1 1-1 1c0 1 0 0 0 0l-2 1 1 2a2 2 0 0 1-1 0 1 1 0 0 0-1 1v1l-1 1a2 2 0 0 1 0 1 3 3 0 0 1-2 0 3 3 0 0 0-2 1l-2 1h-2a2 2 0 0 1-1 0 2 2 0 0 1-1 0l-2-1-1-1-1-1a2 2 0 0 0-1-1l-1 1h-2a6 6 0 0 1-2 0 3 3 0 0 1-1 0 3 3 0 0 0-1 0 3 3 0 0 0-1-1l-1-1-3 1h-1a3 3 0 0 0-1-1h-1-4l-1-1a1 1 0 0 0-1 0 1 1 0 0 1-1 0v-1h-1a1 1 0 0 0-1 0h-1-1-2v-1c0-1 0-2-1-1l-1 1-1-1a7 7 0 0 0 0-1 3 3 0 0 0 0-1 11 11 0 0 0 0-1l-1-1c-2 0-2-2-3-3l1 1 1 1a2 2 0 0 0 2 1c-1 1 0 1 1 1l1 2a5 5 0 0 0 1 0 3 3 0 0 0 1 0h2l1 1a2 2 0 0 0 1-1v-1l1 1 1 1a3 3 0 0 0 1 0h1v1a3 3 0 0 0 1 0h2v2c0 1 2 0 1-1h1l1 1 1 1v-1a2 2 0 0 0 0-1s1 0 0 0a1 1 0 0 0 1 0 1 1 0 0 0 2-1s0-1 0 0h2v-1a6 6 0 0 1 1-1 2 2 0 0 1 1 0 2 2 0 0 1 1 0 1 1 0 0 0 1 0 4 4 0 0 0 1-1l2 1v-1c0-1 0 0 0 0h1a7 7 0 0 0 0-1v-3a1 1 0 0 1 1-1 4 4 0 0 0 2-1l1-1 1-1v-1a15 15 0 0 1 1-1 1 1 0 0 0 1 0h1c1 0 0 0 0 0l1-1v-1l1-1a4 4 0 0 1 3-1h2a3 3 0 0 1 1 1v1h1a1 1 0 0 0 1 0h2c1 0 0 0 0 0a5 5 0 0 1 1-1 4 4 0 0 1 1 0l1-1a5 5 0 0 1 2-1h1a3 3 0 0 0 1 0v-1a4 4 0 0 1 1 0l1-1a7 7 0 0 0 1-1 6 6 0 0 0 0-1h1a1 1 0 0 0 1-1l1-1-2-1-1-1a5 5 0 0 0-1-1l-1-1-1-1c0-1 0 0 0 0h-1a3 3 0 0 0-1 0h-1a2 2 0 0 1-1-1h-1l-1-1-1-1-1-1v1h-1a3 3 0 0 0-2-1l-1 1 1-1h1a3 3 0 0 0 2-1 1 1 0 0 0 0-1 4 4 0 0 1 1-1 7 7 0 0 0 0-2v-3a2 2 0 0 0-2 0h-1v-1h-1a2 2 0 0 0-1 0 2 2 0 0 0-2 1l-1 1h-1l-1 1a4 4 0 0 1-1 0 5 5 0 0 0-2 1h-1a3 3 0 0 0 0 1 3 3 0 0 1-2 1 3 3 0 0 0-1 0 4 4 0 0 1-1 0l-1 1-1 1h-1a5 5 0 0 0-1 1 2 2 0 0 1-1 0 13 13 0 0 1-2 1 14 14 0 0 1-1 0 9 9 0 0 1-1 0l-2-2 1 1a2 2 0 0 0 1 1l2-1a7 7 0 0 1 1-1 3 3 0 0 0 1 0l1-1a5 5 0 0 0 2-2l1-1a2 2 0 0 0 1-1 3 3 0 0 1 1-1 15 15 0 0 0 1-1h2l1-1 2 1a8 8 0 0 0 2-1 3 3 0 0 0 1 0 8 8 0 0 1 1-1h2a2 2 0 0 1 1 0h1a2 2 0 0 0 1 0l1-1a4 4 0 0 1 1 0 2 2 0 0 1 1 0l2 1h2v-2l2-1a14 14 0 0 0 1-1l3-3 1-1 1-1h1a2 2 0 0 0 1 0 2 2 0 0 0 0-1v-1h1l1-1v-1h1v-1-1a2 2 0 0 0 1-1h-1l-1-1v-1a2 2 0 0 1 0-1l1-2 2 1a2 2 0 0 1 0-1 3 3 0 0 0 1-1v-1-1a5 5 0 0 1-2 0h-1a3 3 0 0 1-1 0v0a2 2 0 0 0-1 0 1 1 0 0 0 0-1l1-1a2 2 0 0 0 1 0l1 1 1 1a2 2 0 0 0 1-1 10 10 0 0 0 0-1l1-2a4 4 0 0 1 0-1l2-2h1a2 2 0 0 1 1-1 5 5 0 0 0 2-2l1-1v-1h1v-2h1l1-1 1-1c1-1 0 0 0 0v-1-2h1a4 4 0 0 0 0-1v-1-1a1 1 0 0 0 1-1v-1l-1-1c-1 0 0 0 0 0v-1l1-1v-1a3 3 0 0 1 0-1h1v-1-1h1v-1l1-1h1v-1a5 5 0 0 1 0-1l1-1v-1l1-1a4 4 0 0 0 0-1 10 10 0 0 1 1-1v-1-2h1l-1-1a7 7 0 0 1-1-1v-2-1l1-1a9 9 0 0 1 0-2l1-2a15 15 0 0 1 1-2 18 18 0 0 0 1-2l1-3-1-1a7 7 0 0 0 0-1 5 5 0 0 1 0-1v-1 2a10 10 0 0 1 1 1c0 1 0 1 0 0l1-1h1v-1l1-1 1-1a9 9 0 0 1 0-1 10 10 0 0 1 1-1l2-1v-1a1 1 0 0 1 0-1h1v-1a2 2 0 0 1 1 0v-1-1h1v-1-1a1 1 0 0 0 1 0v-1c0-1 0 0 0 0v-1c-1-1 0 0 0 0a4 4 0 0 0-1-1h1v-1c-1 0-1 0 0 0h1v-1a3 3 0 0 0-1-1m-247 99a1 1 0 0 0-1 0v1l1-1m-43-108h-1-1v1a1 1 0 0 0-1 0v-1a7 7 0 0 0-1 0h-2v1a2 2 0 0 0 1 0 2 2 0 0 1 0 1 7 7 0 0 1 0 1h-1v-1h-1v-1h-1-2a1 1 0 0 0 0-1l1-1-1 1a1 1 0 0 0-1 1l-1 1h-2a1 1 0 0 0 1 1l-1 2 1 1v1l1 1h1a2 2 0 0 0 1 0l1 1v1h1l1-1h1a6 6 0 0 1 1 1h-1v1a1 1 0 0 0 1 0 1 1 0 0 0 1 1v-1l1 1a5 5 0 0 0 1-1v-1-1h-1a1 1 0 0 0-1 1 4 4 0 0 1-1 1 1 1 0 0 0 0-1h1v-1h1a1 1 0 0 0 0-1v-2h-1s-1 0 0 0a1 1 0 0 0 1-1 1 1 0 0 0 0-1 4 4 0 0 0 0-1h-1v-1l1 1 1-1v1a1 1 0 0 0 1 1 1 1 0 0 0 1-1 4 4 0 0 1 0-1v-1h1v-1m112 179a12 12 0 0 0-1 2l-1 2h1a1 1 0 0 1 1-1l1 1a3 3 0 0 0 1-1v-2a5 5 0 0 1 0-1c0-2-2-1-2 0M199 201v-1l-1-1h-1a4 4 0 0 0-1 0h1l1-1v-1l-1-1-1-1v-2a1 1 0 0 0-1 0h-1v-1l-1-1a4 4 0 0 0-2 1l-1-1a1 1 0 0 0-1 1h-1v2a6 6 0 0 1 1 3 14 14 0 0 1 0 2 5 5 0 0 1 0 1 3 3 0 0 0-1 0 4 4 0 0 1 0 1l-1 2v1a4 4 0 0 0 0 1 4 4 0 0 1-1 1l-1 1 1 1v1a5 5 0 0 0 0 1 6 6 0 0 1 0 1 7 7 0 0 0 0 3 5 5 0 0 1 1 2 6 6 0 0 0 0 2v2a3 3 0 0 0 1 1 2 2 0 0 0 1 1 7 7 0 0 0 2 0 4 4 0 0 0 1 0l1-1 1 1h1a3 3 0 0 0 1 1 1 1 0 0 0 1 0 1 1 0 0 0 0-1v-1l1-1h-1a1 1 0 0 0-1-1c0 1 0 0 0 0v-1h-1a3 3 0 0 0-2 0v-1a2 2 0 0 0 1 0 1 1 0 0 0 1 0v-1h1a4 4 0 0 0 0-1 5 5 0 0 0 0-1c1 0 0-3-1-1l1-2h-1l-1-1a1 1 0 0 1-1 0h2c1 0 0 0 0 0a2 2 0 0 0 1-1 2 2 0 0 1 0-1h1v-1-1a4 4 0 0 0 1-2h1l1-1c1-1 0-2-1-2m6-22v-1a1 1 0 0 0 0-1 2 2 0 0 0 1-1l1-1a3 3 0 0 0 0-1 1 1 0 0 0-1-1h-1-1v-1s1 0 0 0v-1c0-1 0 0 0 0a1 1 0 0 0-1-1h-1l1-1-1-1h1v-1a3 3 0 0 0 1 0v1a2 2 0 0 0 0 1v1h2v0h-1v1l2 1 1-1 1-2a1 1 0 0 0 0-1h-1a1 1 0 0 0 0-1 1 1 0 0 0 1 0l-1-1-1-1v1h-1a2 2 0 0 0-1 1 1 1 0 0 0-1 0 5 5 0 0 0 1-1v-1l-1-1v-1c-1 0-1 0 0 0a5 5 0 0 1-1 0v-1h1a1 1 0 0 0 1-1 1 1 0 0 0 1-1v-1l-2-1a2 2 0 0 0-2 1v1l-1 2h1v1h-1l-1 1c-1 1 0 0 0 0v1a8 8 0 0 1-1 0h-1-1l-1-1 1-1a1 1 0 0 0 0-1l-1 1h-1-1l1 1-1 1-1 1-1 1a4 4 0 0 1 0 1l-1-1v-1a3 3 0 0 0 1 0c-1 0 0 0 0 0a2 2 0 0 1 1-1c1-1-1-1-2-1v1h-1-1a1 1 0 0 0-1 0 2 2 0 0 0-2 0v1a2 2 0 0 1 0 1v1h-1v1l-1 1c0-2-2 1 0 1v1c0 1 0 0 0 0h1v1h1l1 2c1 1 1 0 2-1-1 1 0 3 1 2l1 3 1 3 1-1v-2h1l-1-1a6 6 0 0 1 1 0v1h1l-1 2a1 1 0 0 0 2 0h1c1 0 0 0 0 0h3l1 1 1-1a3 3 0 0 0 1 1v-1h1a4 4 0 0 0 1-1v-1m21 98l1-1h1a3 3 0 0 1 1 0l1-1a4 4 0 0 0 1 0v-1h1v-1c0-1 0 0 0 0h1a8 8 0 0 0 1-2l1-1a9 9 0 0 0 1-2 7 7 0 0 1 0-1v-1l1-1h-1-1l1 1a2 2 0 0 0-1 0 2 2 0 0 0-1 0h-1l-2 1v1c0 1 0 0 0 0h-1v1h-1-1v1a8 8 0 0 1-1 0l-1 1v1l-1 1v1h-1v1h-1l-1 1h-1v1a4 4 0 0 0-1 0v1l2-1c0 2 1 1 1 0a3 3 0 0 1 1-1v1h2m28 91v-1a1 1 0 0 0 0-1v-1a2 2 0 0 0 0-1l-1-1v-2a3 3 0 0 0-1-2 3 3 0 0 1-1-2 13 13 0 0 1-1-2 16 16 0 0 1 0-2l1-2a7 7 0 0 0-1-1 8 8 0 0 0 0-2 6 6 0 0 1-1-1l1-1a11 11 0 0 0 0-3l-1-1a2 2 0 0 1-1 0l-1 1h-2a17 17 0 0 1-3 3l-1 1-1 1h-2v1 2a4 4 0 0 0-1 2v-1a2 2 0 0 1 0-1v-1-1l1-2-1-1-1 1h-1v1h-1a3 3 0 0 0 0 1h-2a2 2 0 0 0-1 0 5 5 0 0 0-1 1v1l-1 1 1 1-2 2v1l2 1a1 1 0 0 1-1 1v1l-1 1-1 1-1 1 1 1a6 6 0 0 1-1 1l-1 1 1 2v1h1a3 3 0 0 0 1-1 14 14 0 0 1 2-1 5 5 0 0 0 2-2 20 20 0 0 0 2-2 6 6 0 0 1 0-1l1-1a8 8 0 0 1 1-2l1-1h2l2 1a5 5 0 0 1-1 1h-1l-1 1c-1 0 0 0 0 0h-1l-1 1v3h2a7 7 0 0 0 0 1 7 7 0 0 1 1 1 9 9 0 0 1 1 2 3 3 0 0 1 0 1v1a2 2 0 0 0-3 1l-1 1v1a5 5 0 0 0 0 1v1h-1a5 5 0 0 0 0 1l1 1h1a4 4 0 0 0 1 1 5 5 0 0 0 1 0l1-1h1a3 3 0 0 0 1-1v-1l1-2s-1 0 0 0a2 2 0 0 1 1 0h1l1 1 1-1h2l1-1a1 1 0 0 0 1 0 3 3 0 0 0 0-1h1v-1l1-1h1v-1m-34-89h-1v-1l-1 1-1 1h-1l-1-1a1 1 0 0 1-1 0 4 4 0 0 0-1 1l-1 1h-1-1v-1h-2-1a2 2 0 0 0 0 1c-1-1-1 0-2 1h-1a1 1 0 0 0 0 1h1v4l1 1c1 0 0 0 0 0 1-1 1 0 1 1h1a1 1 0 0 0 2 0v-1-1-1a9 9 0 0 1 1-1 1 1 0 0 1 2 0h1l1-1a2 2 0 0 1 1 0v-1l-1-1a2 2 0 0 1 2-1v1a2 2 0 0 0 1 0 1 1 0 0 0-1 0 1 1 0 0 0 0 1 1 1 0 0 0 1 0v-1l1-1v1a1 1 0 0 0 1 0v-1-1a1 1 0 0 0 0-1m93 89a1 1 0 0 0 2 0 4 4 0 0 0 0-2h-1l-1 2M194 223l-1-1-1 1v-1l-1 1a1 1 0 0 0 0 1h1l-1 1a1 1 0 0 0 0 1 1 1 0 0 0 1 1 1 1 0 0 0 1 0v-1-1h1v-1-1m95-67v-1l-1-1v-1h-1v2l2 1m-9 163l1-1a1 1 0 0 0 0-1 5 5 0 0 0 0-2h-2a4 4 0 0 0 0 1v2l1 1m23-179a1 1 0 0 0 0 1l1-1a4 4 0 0 0 0-1h-1a1 1 0 0 0 0 1m8 4h-2v1l1 1v-1l1-1m-111-10a1 1 0 1 0-1-1 1 1 0 0 0 1 1m9-9h1a1 1 0 0 0-1-1v1m-18 104h-1-1l-1 1h3v-1m31-124c0 1 1 0 0 0m41 85a2 2 0 0 0-1 0l-1 1a7 7 0 0 0-1 4 14 14 0 0 0 0 1 5 5 0 0 1 1 3h-1v3s1 0 0 0a1 1 0 0 0 1 1 2 2 0 0 0 1 1 2 2 0 0 0 2-1l1-1v-3a3 3 0 0 1-1-1 5 5 0 0 1 0-2v-2l1-2a4 4 0 0 0 1-2l1-3-1-1v-1a1 1 0 0 0 2 0 10 10 0 0 0 0-2 14 14 0 0 1 0-1l1-1a2 2 0 0 0 0-2l-1-1c-1-1-1 0-1 1h-1a3 3 0 0 0 0 1 1 1 0 0 0 0 1l1 1h-1v3h-1v1a5 5 0 0 0 1 1h-1s0 1 0 0v1l-1-1a1 1 0 0 0-1 1l1 1v2s-1-1 0 0l-1-1m-41-84v1h1l-1-1m-13 52c-1 1 0 2 1 2v-1a5 5 0 0 1-1-1l1-1-1-2v1h-1l1 2m-2-26h1l1 1h1a1 1 0 0 0 1-1l-1 1a2 2 0 0 0-1 1 1 1 0 0 0 1 0 1 1 0 0 1 1 1 1 1 0 0 0 0 1h1l2 2a1 1 0 0 0 1 0h1l1 1h-1v1h1c1 0 1 0 0 0v-1a2 2 0 0 0 1 0 1 1 0 0 1 1 0v1l2 1a2 2 0 0 0 1 0h1l-1 1a4 4 0 0 0 1 1 2 2 0 0 0-1 0h-1l-1-1-2 1h-1c-1 1 0 0 0 0v2l1 1h1-1-1c1 0 0-1 0 0h-1a1 1 0 0 0-1 0v1h-1v1a2 2 0 0 0-1 1l-1 1h-2a2 2 0 0 0-2-2h-1v3a2 2 0 0 0 1 1h1a3 3 0 0 1 1 1v1a7 7 0 0 0 1 2 5 5 0 0 0 1 0 2 2 0 0 1 1 1l1 3 1 1v-1a1 1 0 0 0 2-1v-1h1a13 13 0 0 0 1-1v-1a4 4 0 0 0 1 0h1v-1-1l1 1v-1l1-1a3 3 0 0 1 0-1v1l1 1v-1h1l1 1a2 2 0 0 0 0-1v-1-1 1h2c1 0 0 0 0 0v-2-1h-1a2 2 0 0 1 0-1 3 3 0 0 0 0-1 1 1 0 0 0-1 0h-1v-1h1v-1-1l1 1 1 1h2a1 1 0 0 0 0 1v0l-1 1h2l1 1h1l1-1h-1v-1h-1a1 1 0 0 0 1-1v-1l-1-1a5 5 0 0 0-1-1h1a1 1 0 0 0 1-1l1 1a1 1 0 0 1 1 0 1 1 0 0 0 1 0v-1c0-1 0 0 0 0l-1-1v-1a4 4 0 0 0 0-1 5 5 0 0 1 0 1h1v3h1l1 1v-1a1 1 0 0 0 1 1v-1l1-2a4 4 0 0 0 0 1h1l1-1v1h1l1-1a3 3 0 0 0 0-1 4 4 0 0 1 0-1 2 2 0 0 0 1-2v-1a1 1 0 0 0 0-1 2 2 0 0 0-2 0h-1a8 8 0 0 1-1 0 1 1 0 0 0 0-1 1 1 0 0 0 2 1v-1a1 1 0 0 0 1 0l1 1a1 1 0 0 0 1 1 1 1 0 0 0 1 0l-1-1h1v1c1 0 2 0 1-1l1-1h1a6 6 0 0 0 0-1c1-2-1-2-2-2l1-1v-1a1 1 0 0 0 1-1l-1-1a1 1 0 0 0 0-1l-1-1q0 1 0 0h-1a1 1 0 0 0-1 1 2 2 0 0 0-1-1l-1 1h-1a6 6 0 0 1 2-1 1 1 0 0 0 1-1l1-1 1-1 1 1 1-2v-3-1-1h-1a1 1 0 0 1 0-1l2 1v1h1a2 2 0 0 1 1 0 3 3 0 0 0 0-1 1 1 0 0 1 1 0l1 1h1v1h1a4 4 0 0 0 2-1l1-1a5 5 0 0 0 1 0 2 2 0 0 0 1-1 3 3 0 0 0 0-1 2 2 0 0 1 0-1l1-1h-1 1v-2h-1c-1 0 0 0 0 0a1 1 0 0 0-1 0v1h-1-1v1a5 5 0 0 0-1 1h-1l-2 2a2 2 0 0 1-1 0v-1h-1a1 1 0 0 1 0-1h-1l1-1 1-1-1-1 1-1a2 2 0 0 0 1 0l1-1a5 5 0 0 1 0-1h1l1-1v-1l1-1a4 4 0 0 0 1-1 2 2 0 0 1 2-1s1 0 0 0l-1-1a6 6 0 0 1-1-1v-1-1a8 8 0 0 1 1-1v-2h1a1 1 0 0 0 1-1 2 2 0 0 0 0-1l-1-1c0-1 0 0 0 0v-1-1-1l-1-1a2 2 0 0 0 0-1h-1a1 1 0 0 0 0-1 2 2 0 0 0-1-1l-1-1a2 2 0 0 0-1 0v1a1 1 0 0 1-1 2 1 1 0 0 1-1 0l-1 1-2 2h-1l-2 1-1 2-2 1-1 1h-1l-1 1a15 15 0 0 0-1 1v1a3 3 0 0 1-1 0 3 3 0 0 0-2 1l-1 1h-1v-1h-1l-1 1a2 2 0 0 1-1 0 2 2 0 0 0-1 1 7 7 0 0 0-1 1 8 8 0 0 1-1 0v1a1 1 0 0 0-1 0h-1-1v1c0 1 0 0 0 0l-1 1a1 1 0 0 0 0 1v2c0 1 0 0 0 0a1 1 0 0 0 0 1h1a3 3 0 0 0 0 1l1 1 1 1h-1l-1-1c-1-1 0 0 0 0l-1-1h-1v-1a2 2 0 0 0 0-1h-1a2 2 0 0 0 0-1 5 5 0 0 0 0-1l-1-1v1h-1a2 2 0 0 0 1 1l-1 1 1 2v2l-1-1-1 1 1 1a1 1 0 0 0 1 0h2a1 1 0 0 0-1 0v1l-1 1v-1l-1 1a2 2 0 0 0-1-1 1 1 0 0 0-1-1h1v-2h-1a3 3 0 0 1-1-1h1l1 1c1 0 0 0 0 0v-1a1 1 0 0 0-1 0v-1h-1a1 1 0 0 0-1 1v1l-1-1a1 1 0 0 0-1-1h-1v-1l-1 1v1l-1 1v1h-1a1 1 0 0 0 1 1v1h-1-1l-1 1c0 1 0 0 0 0v1l1 1h-1l-1 1s1 0 0 0l-1 1a3 3 0 0 0 0 1 2 2 0 0 0 0 1 3 3 0 0 0 1 0v1a1 1 0 0 0 0 1h1l-1 2a1 1 0 0 0 1 1l1 1h1a1 1 0 0 0 0 1h-1a1 1 0 0 0 0 1h1v1a2 2 0 0 0 1 0 2 2 0 0 0-2 2l-1-2h-1a2 2 0 0 0 0-1h-1v-1h-1l-1 1-1 1 1 1m15-17h0m33 175v0m-7-36h1a1 1 0 0 0 1 0v-1a1 1 0 0 0-1-1h-2l-1-1 1 1-1 1 1 1h1m3-108a5 5 0 0 0-1 0v-1l-1 1h-2l1 1a2 2 0 0 1 1 1s0 1 0 0a1 1 0 0 0 1-1h-1v-1h2m0 147v-1a1 1 0 0 0-1 0 2 2 0 0 0 0 1h1m-40-124v-1c-1-1-2 0-1 1a1 1 0 0 0 1 0m21 15a2 2 0 0 0-1-1v1h1m21 40l-1-2c1 1 3-1 2-1h-3l-2 1a2 2 0 0 0 2 2 2 2 0 0 0 2 0m-25-77a1 1 0 1 0-1 1c1 1 2-1 1-1m40 59a6 6 0 0 0-1 0 2 2 0 0 0-1-1h-1a2 2 0 0 0-1 0l-1 1a3 3 0 0 0 0 1 1 1 0 0 0 0 1l1 1v1a2 2 0 0 0 2 0 2 2 0 0 0 2 0l1-1v-1l-1-2m-91 35c-1 0-2 1-1 2s1-1 1-2m7-1h-1v1l1-1m-9 5a3 3 0 0 0-1 0v2h1a3 3 0 0 0 1 0h1v-1l-2-1m35-100c0 1 0 2 1 1a1 1 0 0 0 1-1 6 6 0 0 1 1 0v1h2a6 6 0 0 0 0-1 5 5 0 0 0 1-1 3 3 0 0 0-1-2h-2l-1 1v1h-2v1m-30 97h-2c0-1 0-1 0 0v1a3 3 0 0 0 0 1h1l1-1c1 1 1 0 0 0v-1m9-17h1v-1h-2l1 1m-2 1l-1 1 1 1h1v-2h-1m2 6l-1 1h-1v-1a1 1 0 0 0-1-1l-2-1a1 1 0 0 1 1-1 2 2 0 0 0 0 1 1 1 0 0 0 1 0l-1-1a7 7 0 0 0 1-1l-1-1-1-1 1-1c-1 0-2 0-1 1l-1 1h1a3 3 0 0 0 0 1l-2 2h-2v3h-1v1c-1 0 0 0 0 0a2 2 0 0 0-1 0l-1 1v1 1c-1 1-2 1-1 2a2 2 0 0 0 1 0h1-1v2h2c1 0 0 0 0 0a2 2 0 0 0 1-1c1-1-1-1-1-1a2 2 0 0 1 1 0h2a2 2 0 0 0-1-1 3 3 0 0 0-1 0 5 5 0 0 1-1 0v-1h1c0-1 0 0 0 0h1l1 1 1-1c1 1 2 0 1-1h1v-1h1v-1h1v1l1-1v-1h1v-1m-16 20a4 4 0 0 0-2 0h1l1-1v-1-1-1h-1v1h-1l-1 1c0 1 1 0 0 0a3 3 0 0 0 0 1l1 1-1 1 1 1 2-1v-1m3-7v-1 1m24-92h0m2 4l1-1a2 2 0 0 0 0-1 1 1 0 0 0-1-1 2 2 0 0 0-1 0v1a6 6 0 0 0-1 0l-1 1 1 1a2 2 0 0 0 2 0m-3 8l1-1-1 1m-24 14h2l1 1h1l1-2a1 1 0 0 0-1 0l-1 1v-1h-1c-1 0 0 0 0 0a2 2 0 0 1-1 0l-1 1m23-16h1v-1-1a1 1 0 0 0-1 0l-1 1 1 1m222 283"/><path id="ireland" d="M177 420l1 1v1l2 1v2l2 2 4 3-2 1h-1l-1-1h-1 1l-1-2-1-1-1 1-2 2h-1l-1-1-2-1 1 1v1h-4l1 1-1 3v1l-1 1v4l2 1 2 3 1 1v2l-1 1v2h1v3l-1 2h-2l-1 1-1 1-6 6h-1l-1 1v-1l1-1 2-3 3-2 1-2-1-1-4 1v-1l4-2 1-2h1l1-1v-3l-1-1h-1v-2l-1-1v-1l-1-1-1-1v-5h-1v-2l-1-1h-2l-2 2v1l-2-1v1l-2 3v2h2l1 1v1h1v-4h1v2l1 1v3l1 1v1l-1 1-1 2v1-5l-1-1v-1l-1-1-1-1h-2v1h-1v-1h-1v-1l2-5h-1v-1l-1 2-2 1-1 1 1 2 1 2v2l-1 1v1h-2v-1h1v-1l1-1-1 1h-1v-2l-1-1-2 1h-1v-1l-3 1 3-2v-1l-1-1h-1l-1 1-1 2v1h-1l-4 3-2 2h-1v-1l1-1v-1l-2 1h-1l-4-1-1 1-1 3-1 1v2l1 3v1l-1 2h-1v-3h-1l-1 2v1h-2v3l-1-1h-1l-1 1 2 3 2 2h2l-2 1-1 1h-1v-1h-2l1 2 1 2 1 2h2v-3h2v1l1 2h1l-1 1-2-1-1 1v2l1 1h2v1h-1l-4-1h-3l-2-1v1l-1 1h-2l-1 1h2l2 2 2 1 3 3-1 1-1-1-1-1-1-1v-1l-3 1h-1l1 1 4 1v1h-1l-3-1-6-1-1 1-5 3v2l-1 1h-2v2h1v1l-1 1h1l5 2 1 1-1 1h5l1 1h1l1-1h2l1-1h1v3h1v-1l1-1 1-2v2h3v2l-1 1h-1l-1 1-2 1v1h1l1-1 1-1 3-2 1-1 1-2 1-1h1v4l1-1 2-2h4l1-1 1-1 1 1h-1v4h-1v-1h-1v-1 3l-3 2v2l-3 3 1 1h3v1h-2l-3 2-5 1-2 1-2 2v-2l-1-1v4h-1v1h-1l-7 5h-1l-1 1-1 1v1h6l2 1 1 1-1 1-1-1h-1v2h4l1 1 1 2-4-1h-1l-1 1-2-1-1 2v1h2l1 1v1l2 1h1v1h-3v1l-2-2-2-1v-2l-1-1-1-1-4 1-1-1-2 1h-5l-1-1h-1l-1-1v-1h-1v1l-4-1h-2l-1 2v3l-1 1-1 2h-2l1 2v1l-1 2v1-3l-1-1-3-3v-1h1v-1l-1-1v-3h-1l-1 1v-1l-1-2h-1l-3-2-1 1-1 1h-5l-1-1h-1v-1l-1 1h-2l-10-1h-1l-2-1-1-1-4 1v1l1 1v1l4 1 1 1-2-1h-1v2h1l1 1v1l-1-1-2-1h-2l-1 2-1 1 1 1-1 1v1l-1 1-1-1-1-1h-3l1-2 1 1h2l1-1 1-2v-1l-1 1v-1h-4l-1-1v-2h-1v1h-1l-2 2h-1v3l-1 1h-1l1 1h2v1l-1 1h-1v4l-2 2v3l1 2h3v-2h-1l-1-1 1-1h1v-1l-1-1v-1h1l1-1v-1h1l1-1v-1l-1-1 1-1 1 1 3 3-1 1-1-1 2 2 1 1h-2v1l1 1 2 1-1 1h-4l1 3 2 1h1l2-2v-1l1-1h-1l2-1h1v1l-2 1 1 1h-1v3h-1l-1 2v1l1 1v1l1 1h1v1l1 2v1h1-1v-1h1l1 1 1 1-1 1 1 1v1l-1 1-1-1v-3h-1l-1-1h-4v1h1v3l-1 1v2l-1 1 2 2 3-1 6-3h8l1 1 1-1h1l-1 1v1h-1l1 1h1l-2 2-1 1h1v1h-1v1h-1l3 1h1v1l-11 2h-1l-1-1h-1l-1 1h-2l-3 1v4l-1 1v2l1 4 4 4 3 1 4-1 1 1h-4l-3-1h-2v-1h-1l-2 2h-8l1 1 3 3-1 1-1 1-1-2-2-1h-3v2h-4l-1 1h3l1 1v2l1 1 3 1 2 1h1l-1 1-1-1h-2v1l1 1h1l-1 1-1 1-3-1h-1l-1 1v1l-1 1h2l1 1h1l3-1 1 1 1 1v1h6v-3l1-1h1v1l1-1 1-1v1l-1 1-1 1 1 1h1v-1l2-1h1l-1 1v1h2l-1 1-2 2h-3v2l-1 2 1 1 3-1 1 1 1 1 3-1 1-1 2-3v-1l1-1 1-1v-1h1v4l-1 1 1 1h2v-3l-1-1 1-1h3l-2 1v1l2 2v1l-1 1-1-1-1 1v5l-1 2 1 1h1v-1l1-2v-2h1l1 1-1 2v1l1 1v1h5l1-1 2-1 19-1 2-1h5v1l-2 1v1h1v1h-4l-1 1h9l-2 1-1 1v3l1 2h-2v-1l-1-1v-1l-1 1h-3l3 2h-1l-2-1-1-1-3 1v1h2l1 1v2l-1-1h-2l-1 1h-2l-3-3h-3v2l-1 2-1 2-2 1-3 6h1l-1 1v1l-2 2-1 1-2 2h7l1 1-1 1-3 4-1 1v3h-1v1l-1 1-1 1v4l-1 1h-1l-1 1h-4v1h-1v2l-11 11-3 1-3 2h-1v1l11-2 1-1 1 1v-1l1-1v-1h1l3-1 4-2v-2h-1v-1h2v2l1 1 2 1 1 1h1l1 1 3-1 4-1 2-1v1l-1 1-1 1-1 1 1 1h1l1-1 1-1 6-1 1-1 5-7 1-3 1-2 1-1 2-1h1l-1 2 1 1v3l-1 1v1h8l3 2h1-2l-10 2-1 1v1l-1 1h-3v-1h-1l-7 3h-1l-1 1h-1l-2 1H59v1h-2l-1-1h-8v1-1l-2 2v6h2v2l-1-1h-3l-1 1-1 1-6 3h-4l-1 1-1 1 2 1h1l3 1 1 1v6l-1 1h-1l1 1h1-2l-1-1 1 1v2l1-1 1 1 2 1h3l1 1-5 1-1-1h1l-1-1v1l-1 1-1 1h-2l-3-1-1-1h-2v-3l-1-2h1l-1-1h-2l2 2-1 2-1 2-2 1h-4l1-4-1-1-6 2h-1l-1 3H9l-1 1H7l-1 1 1 1-1 1v2H5l-2-1 1-1H3l-1 1H1l1 1v1l-2 1v2l1 2v1h2l3-1h1l-1-1h2l2 1h2v-1h-2v-1h2l2 1 1-1 1 1v1h1l1-1 8-2h2v1h1l1 1v1l1-1-1-2 12-1-3 1 1 1 1 1h-6l-2-1-1 5v2h-2v-3h-1l-1 3-2 2-6 1-3 1-2 1-1 1h-2l1 2h-1l-2 1v1h1v1l1 1h1v2h-2l-4 2H5v1h1v1H5h1v1l-1 1h3v5h1l1-2h1l1-1 2-2v-1l2 2 1 2v2l-2 1 5 3v1l1-1 2-1 1-1 1-1 2 1 1-1 2-2h1l2-1h1v-1h1v2l2-1v-1h2l1-1h1l1-1 5-2 5-1v1h-2l-4 2-1 1h-3v1l-1 1-2 2h-1v1l1 1h1-4v1l-1 1-1 1h-1l1-1v-1h-1l-3 1-1 2-1 1h2v1l-3 3h-4l-1 1h1l1 1v2h-1l-4 2v2h-1l1 1v-1l2-1 3-1 1 1h1l1-1 4-1 1-1v-1h1l2-1 7-1 2-1 4-1h1l1-1 2-2h2l-1-1v-3h1v1h1v2l2 1h1l1-1 1 1h-1v3l-2 1h-2l-2 2h-2l-1 1-7 4-2 1-1 1-1 1-3 2 4-1 11-5h3l-1 1-2 1-2 1-2 2-1 1-1 1h-2l-1 1-3 2-1 1-1 1 1 1v2h1l1-1h1v1l4-2h-1v-1l3-3v-1l1 1 1 1v1h2l1-2h1v-1h1l3-1 2-1v-1h3v2l-1 1v1l1 1 1-1 1-1 2-1v-1 1h1l-1 1h-2v1l-1 2h1l1-1v1l-1 1-1 1h2l1-1 1-1 1 1v-1l1-2 1 1v2l1-1 1 1 1-1v-2h1v-1h3l1-1h1v-1l-1-1v-1l1 1h1l1 1 3-1 1-1h1v1h1l1 1v1h1v-1l2-1 1-1 1-2 1-1 1 1h4v1h4l-1-1 1-1v-1h1l-2-1h1v-1h-3l-1-1h11l1 2 1 1v-4l1-2 1-1v-2h-1v1h-2l-1-1h3l1 1 1 2 1-1v-2l-1-1h1l1 1 1 1v-1h1l2-1 2-1v-1l2-2 1-1h-1v-1l1-2h-2 1v-1h1-1v-2h-2l1-2-2-1-2-1-2-1 1-1h6l1-1v1h2l2 1h1v-1h1v1l-1 1v1h1v1h1l-1 1h-1l-1 1v1h-1l-1 1v1h7l2-1 5-1v-1l-1-1 1-1 3-1 3-1 1-1 1-1h-1l-2-1h1l1-1 1-1 1-1v-4l1 1v2l7 1v-3l2-1h4v-1h2v-3l2-2v-1h-1l-1-1h-2l-1 1v-2l1-1 1-1h1v1h2v-1h2l4-2 11-2 2 1h1l1-1h1v-1h3v-1h-1v-1h2l1 1-1 2-1 1h4l1-1h1l2-3 1-1h-1l-1-1 1-2v-1l-1-2v-4 1l1 3 1 1 1 1v1h1l1 4v1l-1 1h-1v1l-1 1 1 1 1-1 1-1v-1l4-3h1v-1h-1l1-1v-1h-1v-2h2l1-1 1-1v1l-1 2h-1v1l1 1 3-1 5 1 1 1 1 1h1l3-1h3l1-1 1 1h-1 2l1-1h1v-1h1v1l-1 1v1h2l1-1 2-4-3-3-2-2 1-2v-1l-1 2-1 1v-1l-1-1h-1v-2l-1-1-1-1-1-1 1-1h1v1l1 1 3-1 1 1 1 1v-6l2-3 1-1v-1l1-1 4-5 1-2v-6l-1-2v-2l1-2 2-4 1-3v-3l1-4 1-2h1l2-3 2-5v-1h1v-2l1-1-2-3-1-2v-1l1-2v-7l-2-4-1-1 1-1v-2l-1-1-1-1v-6l-1-1h-1l-1-1h-1l-1-2-1-1-1-1 1-1 3-3 1-1h1l1 1v1h1l1 1 1-2-1-1h-4l1-1v-2l-1-1-3-2 1-1 1-1 1 1v1l1-1v-2l1-1v-1l1-2 1-1v-1l-1-2-1-1-1-1h-1l-2-1-1-3-1-1-1-1-1-1v-2l-1-7 1-3 1-1-1-1-1-2v-1l1-2v-1h-4l-2-1-2-2v-7l1-1 1-1v-1l-1-1v-1l3 1 4 2 1-1 1 1 1 1h3l1-2 1-2-2-1v-1h-2l-1-1v-1h-1l-4-4 1-1 1 1h2l1 1 1 2h1l4 1h-1l-1 1v1h5l3-2 1-2 3-1 1-2 1-1v-4l1-2-1-4 1-1h1l1-1h2l3-1 3 1h1v1h1l1-2h1l2-2 2-3v-6l-2-2h-3l-2 2-2 1v-1l2-2 1-1 1-5v-2l-1-1v-2l-1-1v-1h2v-1h-3v-1h-2l1-1v-4l2 1h1l4 4 1 2 1 2v5l-1 2-1 1v1l1 1v1h1v2l1 2h1l1-1h1l-1-2v-1h1l1-1v-2l-1-1 1-1 1-2 1-1-1-1 1-1-1-1-2-2v-6l-1-1h-1v-1l-1-4v-2l-1-1h-1v-1l-1-1-7 1h-2l-1-1-1 1-2 1-2 1v1l-2 2v1h-1v1h-1v-2l-1-1 2-4 1-1 2-2 1-1 4-1 1-1 2-1 1-2v-3l-1-3-1-2-2-1-2-1-1 2 4 4 1 2-1-2-2-1-2-1v-3l-1-1v-2l-1-1-1-2h-1v-2l-1-1-1-2-1-1-2-1h-1l-1-1 1-4 1-1-1-1-1-1h-3l-1-1 1-3 1-1v-6l-1-1-2-2-1-1-1-1h-3l-3 1h-2l-5-3-2-1-2 2-2-1-2-1h-1l-1 1-1 1-1 1-1 1h-4l-7 3h-8l-3-2h-1v6l-1 1v1l-1 2-1 1v2l-1 1-1 1-1 1h-3l-3-2h-1l-2 1-1-2 1-2 1-2 2-3 1-1 2-1 2-1 1-2 2-1 2-1h2l2-1v-2l-1-2-1 1-1-1-3-1-2-1-3-1-1-1-3-4-1-1-2-1h-1l-4-2-2-1h-2z" class="cls-1"/><g id="marker" class="marker"><path d="M401 249a37 37 0 0 0-14-13 36 36 0 0 0-36 0 37 37 0 0 0-13 13 35 35 0 0 0-5 18 34 34 0 0 0 2 11 53 53 0 0 0 6 11l12 18 13 18a5 5 0 0 0 7 0l13-18 12-18a53 53 0 0 0 6-11 34 34 0 0 0 2-11 35 35 0 0 0-5-18zm-19 31a18 18 0 1 1 5-13 17 17 0 0 1-5 13z"/></g></svg>