<svg xmlns="http://www.w3.org/2000/svg" xmlns:xlink="http://www.w3.org/1999/xlink" viewBox="0 0 387 73.34"><defs><clipPath id="clip-path" transform="translate(0 0)"><rect width="387" height="73.34" style="fill:none"/></clipPath></defs><title>Be the difference</title><g id="Layer_2" data-name="Layer 2"><g id="Layer_1-2" data-name="Layer 1"><g style="clip-path:url(#clip-path)"><path d="M.33,42.44a1.81,1.81,0,0,1-.14-.75c0,.29,0,.57,0,.84.05.07.09.09.12-.09m0,15.27L.2,56.16a8,8,0,0,0,.08,1.55M.24,31c0,1.32-.25,3.3-.18,5.14l.09.17C0,35.45.43,32.25.24,31M88.21.74,91,.68,89.09.57ZM273,.15c.72.07,1.48.11,2.26.14l.47,0Zm-11.9,0c-1.12,0-2.58,0-4,0Zm-4.45,0h0ZM184.1.39h.53c1.24,0,.4,0-.53,0M121.24.77c1,0,2.07,0,3,0-1.15,0-2.12,0-3,0m-2.08.1,2.08-.1a6.66,6.66,0,0,0-2.08.1M.42,3.86A1.22,1.22,0,0,0,.5,3.52a.9.9,0,0,0-.08.34m180.8,68.86H178c-.26-.08,0-.15.78-.14a24.44,24.44,0,0,0,2.48.14m-7.5,0h0ZM16.5,1.18H14A12.83,12.83,0,0,1,16.41,1c.09.05.17.12.09.18M1.12,53.92l-.3-1.86c.07-.31.2-.56.3-.45Zm0-13.16a4.84,4.84,0,0,1-.27-1.27l.27-.65Zm-.36,19c0-.14-.06-.26-.09-.37a.23.23,0,0,1,.06-.09ZM.64,62.12a1,1,0,0,1-.13-.42,6.85,6.85,0,0,1-.08-1.11c.07.51.11.95.21,1.53M387,5.59c-.16.12-.18,1.2-.29.51s0-1.62-.05-2.44c0-1.1,0-2.2,0-3.31h-6L376,.31l-9.43-.1L347.7,0c-5.51,0-3.13.67-10.06.36l2-.24C328.5.41,316.9.11,306,.36a10.51,10.51,0,0,1,1.72-.13,65.89,65.89,0,0,0-8.53.13c-1.69,0-.39-.13-1.43-.2-2.31-.1-5.78.23-7,0-.13,0,.18,0,.54,0-2,0-6.33,0-5,.16-4.08-.09-7.8.09-11.06,0-2.12.23-7-.11-7.66.21.3-.33-7.15-.26-9.73-.11.86-.1-2.24-.1-1.23-.24-3,0-5.64.07-5.13.23-5.42-.39-10.9.32-14-.18-8.74.17-16.84.29-24.7.37.28-.33,8.69,0,8.35-.38-7.46.14-11.76.42-19.17.34-1.91,0,1.09-.14,1.74-.2-7.46.14-14.42,0-21.05.15A13.9,13.9,0,0,1,184.1.39a12.77,12.77,0,0,0-2.9.1l1.28,0c2.09.22-5.19.46-5.43.57,2.22-.43-6.55-.11-3-.65-.86,0-1.94.1-1.74.2-1.28,0-1.68-.09-.39-.2-4.68.08-3,.24-7.26.24a11,11,0,0,1,1.31-.19c-2.15.14-4.31.28-7.89.22.18,0-.08-.08.48-.09-5.95,0-10.26.37-16.87.23,2-.31-2.29-.1-2.65-.37l-3.64.08,1.46.13c-3.18,0-6,.19-8.73.1l2.37-.11-6,.05,3.38.11c-3.22.14.34.34-3.89.27.86,0-3.19,0-4.85-.17h0c-1.58.09-3.2.18-5.55.11-.61-.09.49-.3.09-.36-1.55.23-7.45.07-9.42.31.66-.06.69-.2.48-.23l-1.31.18C102,.82,101.76.8,102,.68c-4.43,0,1.41.35-3.85.2.41,0,.21,0,1.07-.07C93.94.73,89,.93,84.15.83,82.72.56,88.4.77,86.76.54c-7,0-14.51.32-21.28.26l1.26,0c-.94.39-5-.19-8.47,0,.84,0,1.1-.21.87-.17C54.5.59,49.65.75,42.62.87l.87-.1C40.75.68,36.29.72,33.33.67c-.87.1-2.56.08-1.54.23C22.68.33,14.42,1.2,6.33.73c1,0,2.31-.09,1.54-.09L.42.73V.86L.49.77a10.5,10.5,0,0,0,1.14.1l.76,0L3.33,1,2.33,1,1,1.1c.05.52.07,1.07.07,1.55C1,1.66.88,1.55.77,2c0,.11,0,.24-.07.39s0,.26-.08.4-.09.56-.12.77c.08-.14.17.15.25.08C.28,5.88,1.28,4,1,7.1L.83,6.94c.07,1.17.25,2.25.21,3.51C.74,11,.9,9.2.65,9.12c0,1.77.58,3.5.27,5.1-.08-.75-.09-1.83-.17-2.59a13.33,13.33,0,0,0-.32,3.25v-.13l-.16,3L.37,17c.8,2.21.14,4.51.67,7.5-.5-2.91-.29-.48-.64-.7-.09.76-.2,1.92-.3,1.59.28,1.41-.22,2.35.19,4.34-.11.09,0,1.51-.29,1.2.09,1.83.19-.44.33-.28.39,2.83-.46,6.65.06,10.71.2,3.22.53,4,.73,6.67v1C1,49.51.77,47.87.77,47.87a25.35,25.35,0,0,0,0,4.77c-.1-.33-.18,0-.3.52,0,1.34.4.9.24,2.67a5.68,5.68,0,0,1-.45-1.34c.14,1.58.27,3.14.41,4.77a.07.07,0,0,1,0,0A.59.59,0,0,0,.45,59c-.07-.38-.14-1-.21-1.3,0,.42,0,.9.06,1.4a.77.77,0,0,0-.09.2c.06.27.1.5.14.72a12,12,0,0,0,.37,3l0-.31c0,.14.06.29.1.46C.9,64.62.73,65.69.59,65.45a24,24,0,0,0,.16,3,28.1,28.1,0,0,0,.06-6.72c.08-.54.18,0,.25.1-.05-.51-.12-1-.2-1.49.39-1,.13-3,0-4.87v0c0-.69-.09-1.35-.08-2l.38.8V71.83s0,0,0,0v.32H1.5c-.53.32-1.8.64,3.68.86l4.07-.21,1.31.17H7.13a26.49,26.49,0,0,0,4.56-.08,8.58,8.58,0,0,0,1.7.18l4-.32c.49.13-1.79.26.89.34,1.87-.16-1.79-.3,1.3-.4a15.3,15.3,0,0,0,3.67.15c.32.08-.16.14-1.07.18,2-.11,5.39,0,6.44-.23,2,.19,6.87,0,6.66.28.64-.08,3.59-.26,5.46-.27-3.42.38,7,0,6.09.43,2.53-.34,9.13-.15,13.6-.34A7.39,7.39,0,0,1,59.3,73c2.52,0,3.25.14,4.87.2.32-.28,4.24-.35,6.36-.52,3.09.27-1.88.33-.91.6C69.47,73,75,73,73.94,72.84a18.33,18.33,0,0,1,3.25.32c.41-.36,2.2-.06,4.16-.28,3.41.18.88.34,4.63.23,1.79.11-1.55.23-1.55.23,3.82,0,1.79-.26,2.6-.41,4.57-.08,2.12.19,3.67.33,2.85-.07,5-.32,7.16-.31.16,0,.57.06.09.12,3-.21,8.94,0,12.45-.28a2,2,0,0,1,.45.07c-.56-.14-.65-.27-.54-.37a26,26,0,0,1,3.83,0,9.17,9.17,0,0,0-1.63.12l1.8-.07c1.61.25-2.46.09-2.46.27,3.51-.08,7.59-.29,10.27-.22.56.25-6.27.09-2.69.31l-4.16-.1c3.18.39-2.52,0,.4.39,5.46.07,6.11-.12,11.56,0,1.23-.14-.41-.21.82-.34,7.75-.25,6.1.62,11.79.29a24,24,0,0,1,6.1-.31l-1.38.28c5.29,0,3-.41,8.56-.22-1,.11-4.16.1-3.36.13,3.59.22,2.54-.16,5.3-.16l.57.25c5.63,0,11.84-.22,18.07-.27-.34.08-1.41.16.05.23,7.87-.12,16.79,0,24.38.18L201,73c.67,0,1.25.09.52.13,3,.08.15-.13,1.57-.22,1.69,0,2.23.13,1.16.19,5.22-.18,14.87-.39,20.36-.16l-1.07.06c4.28.09,4.83-.44,8.8-.24l-.76,0c9.29.09,19.56-.1,26.65.22,1.35-.31,9.2.14,9.8-.29,5.3.21,3.78.29,11.26.43,2,0,3-.27,5.44-.31l.06.22,3.35-.23,1.78.27,2.31-.06a5.68,5.68,0,0,1-1.81-.17,76.23,76.23,0,0,1,8.9.27L307.9,73a12.65,12.65,0,0,1-1.91.15c3.22-.13.28.25,4.17.06-.56,0,.3-.13.4-.18,2.08.14,6.83.14,10.34.08l-.67.16c6.34,0,13.37-.08,20.49-.08-2.56-.07-2-.34.12-.36l.83.24c1.35-.15-2.18-.09.59-.27,2.66,0,1.79.27.26.34l3.23-.08c.19.07-.56.11-.76.2,1.33-.15,5.58.24,7.49,0l.19.07c7.11,0,10.34-.08,16.14-.09.11-.2,2.38-.16,4.11-.32l5.92.11L382,73l1.77,0h2.9V71.12c0-.3,0-.55-.06-.74s0-.3-.05-.4-.07-.23-.11-.23-.15.14-.24-.38c.29-.17.26-3.43.47-1.74-.05-3.92-.06-5-.29-10-.12.54-.18,1.15-.28.83-.05-.9.13-2,.27-1.91l0,.23c-.44-5.56.85-12.84.24-17.28l0,.25-.32-4.59c.05-2.12.22,1.26.4-.3-.48-5,.07-7.83-.25-11.92.86-3.16-.06-11.21.49-15.48l-.2.25A5.72,5.72,0,0,1,387,5.59M.43,20.11.31,22.63c.07-1.09.1-1.89.12-2.52" transform="translate(0 0)" style="fill:none"/><path d="M34.57,41.88c0-.66,1.12-.36,1.12-2.5V25.24c0-2.14-1.12-1.84-1.12-2.5,0-.43.49-.53,2.3-.53h5.36a15.47,15.47,0,0,1,4.28.6,4.49,4.49,0,0,1,3.09,4.34c0,2.17-.89,3.94-3.32,4.5v0c3,.24,4.76,2,4.76,4.71,0,4.64-3.68,6-8.87,6h-5.3c-1.81,0-2.3-.1-2.3-.53m6.94-17.26h-2V30.7h2.93c2.33,0,3.61-1.12,3.61-3.12,0-2.41-1.8-3-4.53-3m1.28,8.48H39.5v5.16c0,1.45.3,1.75,2.73,1.75h.49c3.23,0,4.38-1.48,4.38-3.69,0-2.43-1.48-3.22-4.31-3.22" transform="translate(0 0)" style="fill:#76bd22"/><path d="M58.94,39.91a30.48,30.48,0,0,1,3.15-.1h5.23c.4,0,.53.1.53.49v1.61c0,.37-.13.5-.53.5h-11c-1.8,0-2.3-.1-2.3-.53,0-.66,1.12-.36,1.12-2.5V25.24c0-2.14-1.12-1.84-1.12-2.5,0-.43.5-.53,2.3-.53H67c.4,0,.53.1.53.5v1.61c0,.36-.13.49-.53.49h-4.9a30.48,30.48,0,0,1-3.15-.1v6h6.61c.39,0,.52.1.52.49v1.55c0,.36-.13.49-.52.49H58.94Z" transform="translate(0 0)" style="fill:#76bd22"/><path d="M91.33,22.21c.39,0,.52.1.52.5v1.61c0,.36-.13.49-.52.49H88.86a30.85,30.85,0,0,1-3.16-.1V39.38c0,2.14,1.12,1.84,1.12,2.5,0,.43-.49.53-2.3.53H83.07c-1.81,0-2.3-.1-2.3-.53,0-.66,1.12-.36,1.12-2.5V24.71a30.72,30.72,0,0,1-3.16.1H76.26c-.39,0-.52-.13-.52-.49V22.71c0-.4.13-.5.52-.5Z" transform="translate(0 0)" style="fill:#76bd22"/><path d="M99.15,30.53h8.22V25.24c0-2.14-1.11-1.84-1.11-2.5,0-.43.49-.53,2.3-.53H110c1.8,0,2.3.1,2.3.53,0,.66-1.12.36-1.12,2.5V39.38c0,2.14,1.12,1.84,1.12,2.5,0,.43-.5.53-2.3.53h-1.45c-1.81,0-2.3-.1-2.3-.53,0-.66,1.11-.36,1.11-2.5V33.26H99.15v6.12c0,2.14,1.12,1.84,1.12,2.5,0,.43-.49.53-2.3.53H96.52c-1.81,0-2.3-.1-2.3-.53,0-.66,1.12-.36,1.12-2.5V25.24c0-2.14-1.12-1.84-1.12-2.5,0-.43.49-.53,2.3-.53H98c1.81,0,2.3.1,2.3.53,0,.66-1.12.36-1.12,2.5Z" transform="translate(0 0)" style="fill:#76bd22"/><path d="M120.73,39.91a30.48,30.48,0,0,1,3.15-.1h5.23c.4,0,.53.1.53.49v1.61c0,.37-.13.5-.53.5h-11c-1.8,0-2.3-.1-2.3-.53,0-.66,1.12-.36,1.12-2.5V25.24c0-2.14-1.12-1.84-1.12-2.5,0-.43.5-.53,2.3-.53h10.69c.4,0,.53.1.53.5v1.61c0,.36-.13.49-.53.49h-4.9a30.48,30.48,0,0,1-3.15-.1v6h6.61c.39,0,.52.1.52.49v1.55c0,.36-.13.49-.52.49h-6.61Z" transform="translate(0 0)" style="fill:#76bd22"/><path d="M145,22.21c8.06,0,11.12,3.82,11.12,10A10.26,10.26,0,0,1,153,40.1c-1.88,1.68-4.44,2.31-7.6,2.31h-5.2c-1.8,0-2.3-.1-2.3-.53,0-.66,1.12-.36,1.12-2.5V25.24c0-2.14-1.12-1.84-1.12-2.5,0-.43.5-.53,2.3-.53Zm.83,17.73c5,0,6.34-3.26,6.34-7.89,0-2.9-.72-4.74-2-5.86s-3.09-1.54-5.16-1.54h-2.17V38.2c0,1.44.29,1.74,2.72,1.74Z" transform="translate(0 0)" style="fill:#76bd22"/><path d="M164.33,39.38c0,2.14,1.12,1.84,1.12,2.5,0,.43-.5.53-2.31.53H161.7c-1.81,0-2.31-.1-2.31-.53,0-.66,1.12-.36,1.12-2.5V25.24c0-2.14-1.12-1.84-1.12-2.5,0-.43.5-.53,2.31-.53h1.44c1.81,0,2.31.1,2.31.53,0,.66-1.12.36-1.12,2.5Z" transform="translate(0 0)" style="fill:#76bd22"/><path d="M170.12,25.24c0-2.14-1.12-1.84-1.12-2.5,0-.43.49-.53,2.3-.53H182c.39,0,.52.1.52.5v1.61c0,.36-.13.49-.52.49h-4.9a30.72,30.72,0,0,1-3.16-.1V31h6.74c.4,0,.53.1.53.49v1.55c0,.36-.13.49-.53.49h-6.74v5.82c0,2.14,1.12,1.84,1.12,2.5,0,.43-.49.53-2.3.53H171.3c-1.81,0-2.3-.1-2.3-.53,0-.66,1.12-.36,1.12-2.5Z" transform="translate(0 0)" style="fill:#76bd22"/><path d="M186.39,25.24c0-2.14-1.11-1.84-1.11-2.5,0-.43.49-.53,2.3-.53h10.68c.4,0,.53.1.53.5v1.61c0,.36-.13.49-.53.49h-4.9a30.48,30.48,0,0,1-3.15-.1V31H197c.39,0,.53.1.53.49v1.55c0,.36-.14.49-.53.49h-6.74v5.82c0,2.14,1.12,1.84,1.12,2.5,0,.43-.5.53-2.31.53h-1.44c-1.81,0-2.3-.1-2.3-.53,0-.66,1.11-.36,1.11-2.5Z" transform="translate(0 0)" style="fill:#76bd22"/><path d="M206.49,39.91a30.48,30.48,0,0,1,3.15-.1h5.23c.4,0,.53.1.53.49v1.61c0,.37-.13.5-.53.5h-11c-1.8,0-2.3-.1-2.3-.53,0-.66,1.12-.36,1.12-2.5V25.24c0-2.14-1.12-1.84-1.12-2.5,0-.43.5-.53,2.3-.53h10.69c.4,0,.53.1.53.5v1.61c0,.36-.13.49-.53.49h-4.9a30.48,30.48,0,0,1-3.15-.1v6h6.61c.39,0,.52.1.52.49v1.55c0,.36-.13.49-.52.49h-6.61Z" transform="translate(0 0)" style="fill:#76bd22"/><path d="M228.91,33.86l4.38,5.75a6.78,6.78,0,0,0,2.07,1.91c.2.13.26.23.26.39,0,.46-1,.5-2.7.5-1.87,0-2.26-.27-3.15-1.45L225,34.64h-1.91v4.74c0,2.14,1.12,1.84,1.12,2.5,0,.43-.49.53-2.3.53h-1.45c-1.81,0-2.3-.1-2.3-.53,0-.66,1.12-.36,1.12-2.5V25.24c0-2.14-1.12-1.84-1.12-2.5,0-.43.49-.53,2.3-.53h2.63a17.2,17.2,0,0,1,6.51.89A5.27,5.27,0,0,1,233,28.23c0,3.09-1.51,4.64-4.11,5.63m-4.73-9.28h-1.09v7.73c4.54,0,6-1.48,6-4,0-3-2-3.75-4.9-3.75" transform="translate(0 0)" style="fill:#76bd22"/><path d="M242.86,39.91a30.48,30.48,0,0,1,3.15-.1h5.23c.4,0,.53.1.53.49v1.61c0,.37-.13.5-.53.5h-11c-1.8,0-2.3-.1-2.3-.53,0-.66,1.12-.36,1.12-2.5V25.24c0-2.14-1.12-1.84-1.12-2.5,0-.43.5-.53,2.3-.53h10.69c.4,0,.53.1.53.5v1.61c0,.36-.13.49-.53.49H246a30.48,30.48,0,0,1-3.15-.1v6h6.61c.39,0,.52.1.52.49v1.55c0,.36-.13.49-.52.49h-6.61Z" transform="translate(0 0)" style="fill:#76bd22"/><path d="M269.23,35.7V25.24c0-2.14-1.12-1.84-1.12-2.5,0-.43.5-.52,2.3-.52H271c1.81,0,2.3.09,2.3.52,0,.66-1.11.36-1.11,2.5V41.81c0,.43-.2.6-1.16.6h-.19c-.86,0-1-.1-1.35-.56l-9.47-12c-.46-.6-1-1.32-1.35-1.78h-.06V39.38c0,2.14,1.11,1.84,1.11,2.5,0,.43-.49.53-2.3.53h-.56c-1.81,0-2.3-.1-2.3-.53,0-.66,1.12-.36,1.12-2.5V25.24c0-2.14-1.12-1.84-1.12-2.5,0-.43.49-.52,2.3-.52h.2c1.58,0,1.78.29,2.73,1.48l8.06,10.22c.46.59,1,1.32,1.34,1.78Z" transform="translate(0 0)" style="fill:#76bd22"/><path d="M286,22a8.65,8.65,0,0,1,5.49,1.64,2.12,2.12,0,0,1,.76,1.75c0,1-.56,2-1.41,2-1.35,0-2.14-2.53-5.07-2.53s-5.36,2.43-5.36,7.17,2.17,7.47,6.51,7.47a13.07,13.07,0,0,0,4.51-.89c.26-.1.52-.07.52.59v.3c0,1.54-.32,1.94-1.64,2.4a13,13,0,0,1-4.11.65c-6.18,0-9.74-3.75-9.74-10.22a11.12,11.12,0,0,1,2.77-7.83A9.49,9.49,0,0,1,286,22" transform="translate(0 0)" style="fill:#76bd22"/><path d="M300.3,39.91a30.85,30.85,0,0,1,3.16-.1h5.23c.4,0,.53.1.53.49v1.61c0,.37-.13.5-.53.5h-11c-1.8,0-2.3-.1-2.3-.53,0-.66,1.12-.36,1.12-2.5V25.24c0-2.14-1.12-1.84-1.12-2.5,0-.43.5-.53,2.3-.53h10.69c.4,0,.53.1.53.5v1.61c0,.36-.13.49-.53.49h-4.9a30.85,30.85,0,0,1-3.16-.1v6h6.62c.39,0,.52.1.52.49v1.55c0,.36-.13.49-.52.49H300.3Z" transform="translate(0 0)" style="fill:#76bd22"/></g><polygon points="22.73 42.41 22.73 51.33 24.29 51.33 24.95 51.33 386.71 51.33 386.71 49.24 24.95 49.24 24.95 42.41 22.73 42.41" style="fill:#76bd22"/></g></g></svg>