<!DOCTYPE svg PUBLIC "-//W3C//DTD SVG 1.1//EN" "http://www.w3.org/Graphics/SVG/1.1/DTD/svg11.dtd">
<svg version="1.1" xmlns="http://www.w3.org/2000/svg" xmlns:xlink="http://www.w3.org/1999/xlink" xml:space="preserve" class="c-site-logo" id="university-of-logo" viewBox="0 0 662.07 165.4">
	<defs>
		<style>.cls-1{fill:#006430;}</style>
	</defs>
	<title>university-of-stirling</title>
	<g id="logo">
		<g id="coat-of-arms">
			<path class="cls-1" d="M662,90.6V0H518.9V90.6a8.13,8.13,0,0,0,0,1.8,46.93,46.93,0,0,0,.8,5.7,47.42,47.42,0,0,0,4.2,11.3c.4.8.9,1.7,1.4,2.6a81.59,81.59,0,0,0,7.4,11c.5.6.9,1.2,1.4,1.8,2.4,2.8,5.1,5.7,8.2,8.7.9.8,1.8,1.6,2.7,2.5,10.4,9.4,25,19.4,45.4,29.4,20.4-10,35-20,45.4-29.4.9-.8,1.8-1.7,2.7-2.5,3.1-3,5.8-5.9,8.2-8.7a22,22,0,0,0,1.4-1.8,78.11,78.11,0,0,0,7.4-10.9c.5-.9.9-1.7,1.4-2.6a54.22,54.22,0,0,0,4.2-11.3,25.22,25.22,0,0,0,.8-5.7C662.1,91.2,662.1,90.6,662,90.6ZM522.3,3.4H658.6V69.8A137.18,137.18,0,0,0,606.7,53l-2.6-21.5,2.7-5.3V11.6l-1.5-.2c-2.7-.3-5.5-.5-8.2-.6l-1.8-.1h-.9c-1.4,0-2.7-.1-3.9-.1s-2.6,0-4,.1h-.9l-1.8.1c-2.7.1-5.4.3-8.2.6l-1.5.2V26.2l2.7,5.3L574.2,53a137.18,137.18,0,0,0-51.9,16.8Zm56.3,24.1c4-.3,7.9-.4,11.9-.4s7.9.1,11.8.4l-1.7,3.4,2.6,20.9c-4.2-.4-8.5-.6-12.7-.6s-8.5.2-12.7.6l2.6-20.9Zm11.9-3.8c-4.3,0-8.6.2-12.9.5V14.7c1.6-.1,3.1-.3,4.7-.4v3.4l1.8-.2c.8-.1,1.7-.1,2.6-.2l1.6-.1V14h4.4v3.2l1.6.1a21.11,21.11,0,0,1,2.6.2l1.8.2V14.3c1.5.1,3.1.2,4.7.4v9.5C599.1,23.9,594.8,23.7,590.5,23.7ZM550.3,135.9a112.43,112.43,0,0,1-13.4-13.3,9.34,9.34,0,0,1,6-2c3.6,0,5.3,1.4,7.2,3s4.3,3.5,8.7,3.5a12.14,12.14,0,0,0,8.7-3.5c1.6-1.3,3-2.5,5.5-2.8v12.7a12.49,12.49,0,0,0-6.9,3.4c-2,1.6-3.7,3-7.2,3s-5.3-1.4-7.2-3C551.1,136.5,550.7,136.2,550.3,135.9Zm40.2,25.5A216.72,216.72,0,0,1,558.1,142h.6a12.14,12.14,0,0,0,8.7-3.5c1.6-1.3,3-2.5,5.5-2.8V142l.5.3c3.1,2,6.1,1.6,9,1.3,2.6-.3,5.1-.5,7.5,1l.6.4.6-.4c2.4-1.5,4.9-1.3,7.5-1,2.9.3,5.9.6,9-1.3l.5-.3v-6.3a11.1,11.1,0,0,1,5.5,2.8c2,1.6,4.3,3.5,8.7,3.5h.6A221.92,221.92,0,0,1,590.5,161.4Zm-15.4-20.6V118.3a11.56,11.56,0,0,0,3.7.7c1.2,0,2.4-.1,3.6-.2,2.4-.3,4.8-.5,7,.7v22.4a12.85,12.85,0,0,0-3.4-.7h-.6c-1.1,0-2.2.1-3.3.2C579.7,141.7,577.4,142,575.1,140.8Zm16.5,1.1V119.5c2.3-1.2,4.6-.9,7-.7a21.74,21.74,0,0,0,3.6.2,9.22,9.22,0,0,0,3.6-.7v22.5c-2.3,1.2-4.6.9-7,.7a25.48,25.48,0,0,0-3.9-.2A10.51,10.51,0,0,0,591.6,141.9Zm39.1-6-1.2.9c-2,1.6-3.7,3-7.2,3s-5.3-1.4-7.2-3a13.18,13.18,0,0,0-6.9-3.4V120.7a11.1,11.1,0,0,1,5.5,2.8c2,1.6,4.3,3.5,8.7,3.5a12.14,12.14,0,0,0,8.7-3.5c2-1.6,3.7-3,7.2-3a9,9,0,0,1,6,2A132.94,132.94,0,0,1,630.7,135.9Zm20.4-22.8a92.91,92.91,0,0,1-5.5,7.8,11.43,11.43,0,0,0-7.4-2.5,12.14,12.14,0,0,0-8.7,3.5c-2,1.6-3.7,3-7.2,3s-5.3-1.4-7.2-3a13.18,13.18,0,0,0-6.9-3.4v-4l-1.1.7-.7.4c-2.4,1.5-4.9,1.3-7.5,1s-5.5-.6-8.4,1c-2.9-1.6-5.7-1.3-8.4-1s-5.1.5-7.5-1l-.7-.4-1.1-.7v4a12.49,12.49,0,0,0-6.9,3.4c-2,1.6-3.7,3-7.2,3s-5.3-1.4-7.2-3-4.3-3.5-8.7-3.5a11.43,11.43,0,0,0-7.4,2.5,74.34,74.34,0,0,1-5.5-7.8,10.54,10.54,0,0,0-.7-1.1,12.93,12.93,0,0,0,6.4-3.3c2-1.6,3.7-3,7.2-3s5.3,1.4,7.2,3,4.3,3.5,8.7,3.5a12.14,12.14,0,0,0,8.7-3.5c2-1.6,3.7-3,7.2-3s5.3,1.4,7.2,3,4.3,3.5,8.7,3.5a12.14,12.14,0,0,0,8.7-3.5c2-1.6,3.7-3,7.2-3s5.3,1.4,7.2,3,4.3,3.5,8.7,3.5a12.14,12.14,0,0,0,8.7-3.5c2-1.6,3.7-3,7.2-3s5.3,1.4,7.2,3a12.93,12.93,0,0,0,6.4,3.3A10.54,10.54,0,0,0,651.1,113.1Zm7.6-22.5h-.1v1.7a31.21,31.21,0,0,1-.7,4.7,48.46,48.46,0,0,1-5,12.8c-2.9-.2-4.4-1.5-6.2-2.9-2-1.6-4.3-3.5-8.7-3.5a12.14,12.14,0,0,0-8.7,3.5c-2,1.6-3.7,3-7.2,3s-5.3-1.4-7.2-3-4.3-3.5-8.7-3.5a12.14,12.14,0,0,0-8.7,3.5c-2,1.6-3.7,3-7.2,3s-5.3-1.4-7.2-3-4.3-3.5-8.7-3.5a12.14,12.14,0,0,0-8.7,3.5c-2,1.6-3.7,3-7.2,3s-5.3-1.4-7.2-3-4.3-3.5-8.7-3.5a12.14,12.14,0,0,0-8.7,3.5c-1.8,1.4-3.3,2.7-6.2,2.9a52.29,52.29,0,0,1-5-12.8,31.22,31.22,0,0,1-.7-4.7V83a4.3,4.3,0,1,1,8.6,0V97h12.7V80.2a4.3,4.3,0,0,1,8.6,0V97h13V77.4a4.3,4.3,0,0,1,8.6,0V97h12.7V74.5a4.3,4.3,0,1,1,8.6,0V97h12.7V77.4a4.3,4.3,0,0,1,8.6,0V97h12.7V80.2a4.3,4.3,0,0,1,8.6,0V97h12.7V83a4.3,4.3,0,1,1,8.6,0Zm0-14h-.1a7.79,7.79,0,0,0-4.3-1.3,7.7,7.7,0,0,0-7.7,7.7V93.6h-5.9V80.2a7.7,7.7,0,0,0-15.4,0V93.6h-5.9V77.4a7.7,7.7,0,1,0-15.4,0V93.6h-5.9V74.5a7.7,7.7,0,0,0-15.4,0V93.6h-5.8V77.4a7.7,7.7,0,1,0-15.4,0V93.6h-5.9V80.2a7.7,7.7,0,0,0-15.4,0V93.6h-5.9V83a7.7,7.7,0,0,0-7.7-7.7,7.79,7.79,0,0,0-4.3,1.3V73.1a137.54,137.54,0,0,1,136.4,0Z" transform="translate(0 0)" />
			<path class="cls-1" d="M625.3,41.9c2.6-.3,5.1-.5,7.5,1l.6.4.6-.4c2.4-1.5,4.9-1.3,7.5-1,2.9.3,5.9.6,9-1.3l.5-.3V12.6l-1.7,1.1c-2.4,1.5-4.9,1.3-7.5,1s-5.5-.6-8.4,1c-2.9-1.6-5.7-1.3-8.4-1s-5.1.5-7.5-1l-1.7-1.1V40.2l.5.3C619.4,42.5,622.4,42.2,625.3,41.9Zm9.2-24.2c2.3-1.2,4.6-.9,7-.7a14.69,14.69,0,0,0,7.2-.4V39c-2.3,1.2-4.6.9-7,.7a14.69,14.69,0,0,0-7.2.4Zm-16.6-1.2h.1c2.5,1,4.9.7,7.2.4s4.8-.5,7,.7V40a11.25,11.25,0,0,0-4-.7c-1.1,0-2.2.1-3.3.2-2.4.3-4.8.5-7-.7Z" transform="translate(0 0)" />
			<path class="cls-1" d="M620.1,22c1.8,1.1,3.5.9,5.1.8a6.12,6.12,0,0,1,4.2.5c.1.1.2.1.4.1a.71.71,0,0,0,.6-.3.78.78,0,0,0-.2-1c-1.8-1.1-3.5-.9-5.1-.8a6.12,6.12,0,0,1-4.2-.5.78.78,0,0,0-1,.2A.61.61,0,0,0,620.1,22Z" transform="translate(0 0)" />
			<path class="cls-1" d="M620.1,28.2c1.8,1.1,3.5.9,5.1.8a6.12,6.12,0,0,1,4.2.5c.1.1.2.1.4.1a.71.71,0,0,0,.6-.3.78.78,0,0,0-.2-1c-1.8-1.1-3.5-.9-5.1-.8a6.12,6.12,0,0,1-4.2-.5.78.78,0,0,0-1,.2A.61.61,0,0,0,620.1,28.2Z" transform="translate(0 0)" />
			<path class="cls-1" d="M625.2,35.2a6.12,6.12,0,0,1,4.2.5c.1.1.2.1.4.1a.71.71,0,0,0,.6-.3.78.78,0,0,0-.2-1c-1.8-1.1-3.5-.9-5.1-.8a6.12,6.12,0,0,1-4.2-.5.72.72,0,0,0-.8,1.2C621.8,35.6,623.6,35.4,625.2,35.2Z" transform="translate(0 0)" />
			<path class="cls-1" d="M641.7,35.2a6.8,6.8,0,0,0,5.1-.8.72.72,0,0,0-.8-1.2,6.05,6.05,0,0,1-4.2.5,6.8,6.8,0,0,0-5.1.8.75.75,0,0,0-.2,1,.71.71,0,0,0,.6.3.6.6,0,0,0,.4-.1C638.8,34.9,640.2,35.1,641.7,35.2Z" transform="translate(0 0)" />
			<path class="cls-1" d="M637.1,29.7a.6.6,0,0,0,.4-.1,6.06,6.06,0,0,1,4.2-.5,6.8,6.8,0,0,0,5.1-.8.72.72,0,0,0-.8-1.2,6.06,6.06,0,0,1-4.2.5,6.8,6.8,0,0,0-5.1.8.75.75,0,0,0-.2,1A1.14,1.14,0,0,0,637.1,29.7Z" transform="translate(0 0)" />
			<path class="cls-1" d="M637.1,23.4a.6.6,0,0,0,.4-.1,6.06,6.06,0,0,1,4.2-.5,6.8,6.8,0,0,0,5.1-.8.72.72,0,0,0-.8-1.2,6.06,6.06,0,0,1-4.2.5,6.8,6.8,0,0,0-5.1.8.75.75,0,0,0-.2,1A.71.71,0,0,0,637.1,23.4Z" transform="translate(0 0)" />
			<path class="cls-1" d="M556.5,14.7c-2.7-.3-5.5-.6-8.4,1-2.9-1.6-5.7-1.3-8.4-1s-5.1.5-7.5-1l-1.7-1.1V40.2l.5.3c3.1,2,6.1,1.7,9,1.4,2.6-.3,5.1-.5,7.5,1l.6.4.6-.4c2.4-1.5,4.9-1.3,7.5-1,2.9.3,5.9.6,9-1.3l.5-.3V12.6L564,13.7C561.6,15.2,559.1,15,556.5,14.7ZM546.9,40a11.25,11.25,0,0,0-4-.7c-1.1,0-2.2.1-3.3.2-2.4.3-4.8.5-7-.7V16.5h.1c2.5,1,4.9.7,7.2.4s4.8-.5,7,.7Zm16.5-1c-2.3,1.2-4.6.9-7,.7a14.69,14.69,0,0,0-7.2.4V17.7c2.3-1.2,4.6-.9,7-.7a14.69,14.69,0,0,0,7.2-.4Z" transform="translate(0 0)" />
			<path class="cls-1" d="M539.8,21.3a6.12,6.12,0,0,1-4.2-.5.78.78,0,0,0-1,.2.61.61,0,0,0,.2,1c1.8,1.1,3.5.9,5.1.8a6.12,6.12,0,0,1,4.2.5c.1.1.2.1.4.1a.71.71,0,0,0,.6-.3.78.78,0,0,0-.2-1C543.1,21,541.4,21.2,539.8,21.3Z" transform="translate(0 0)" />
			<path class="cls-1" d="M539.8,27.5a6.12,6.12,0,0,1-4.2-.5.78.78,0,0,0-1,.2.61.61,0,0,0,.2,1c1.8,1.1,3.5.9,5.1.8a6.12,6.12,0,0,1,4.2.5c.1.1.2.1.4.1a.71.71,0,0,0,.6-.3.78.78,0,0,0-.2-1C543.1,27.2,541.4,27.4,539.8,27.5Z" transform="translate(0 0)" />
			<path class="cls-1" d="M539.8,33.7a6.12,6.12,0,0,1-4.2-.5.72.72,0,0,0-.8,1.2c1.7,1.2,3.5,1,5.1.8a6.12,6.12,0,0,1,4.2.5c.1.1.2.1.4.1a.71.71,0,0,0,.6-.3.78.78,0,0,0-.2-1C543.1,33.4,541.4,33.6,539.8,33.7Z" transform="translate(0 0)" />
			<path class="cls-1" d="M560.7,33.2a6.05,6.05,0,0,1-4.2.5,6.8,6.8,0,0,0-5.1.8.75.75,0,0,0-.2,1,.71.71,0,0,0,.6.3.6.6,0,0,0,.4-.1c1.3-.8,2.7-.6,4.2-.5a6.8,6.8,0,0,0,5.1-.8.72.72,0,0,0-.8-1.2Z" transform="translate(0 0)" />
			<path class="cls-1" d="M560.7,27.1a6.06,6.06,0,0,1-4.2.5,6.8,6.8,0,0,0-5.1.8.75.75,0,0,0-.2,1,1.14,1.14,0,0,0,.6.3.6.6,0,0,0,.4-.1,6.06,6.06,0,0,1,4.2-.5,6.8,6.8,0,0,0,5.1-.8.72.72,0,1,0-.8-1.2Z" transform="translate(0 0)" />
			<path class="cls-1" d="M556.5,21.3a6.8,6.8,0,0,0-5.1.8.75.75,0,0,0-.2,1,.71.71,0,0,0,.6.3.6.6,0,0,0,.4-.1,6.06,6.06,0,0,1,4.2-.5,6.8,6.8,0,0,0,5.1-.8.72.72,0,1,0-.8-1.2A6.06,6.06,0,0,1,556.5,21.3Z" transform="translate(0 0)" />
			<path class="cls-1" d="M593.9,42.5l-1.3-10.4h-4.2l-1.3,10.4h6.8Z" transform="translate(0 0)" />
			<path class="cls-1" d="M577.2,123.9c1.8,1.1,3.5.9,5.1.8.3,0,.5-.1.8-.1a5.08,5.08,0,0,1,3.4.6c.1.1.2.1.4.1a.71.71,0,0,0,.6-.3,1.27,1.27,0,0,0,.1-.6c0-.2-.1-.3-.3-.4a4.92,4.92,0,0,0-2.2-.8,9.31,9.31,0,0,0-2.9.1,2,2,0,0,0-.7.1,5.37,5.37,0,0,1-3.5-.6.78.78,0,0,0-1,.2C576.7,123.2,576.8,123.7,577.2,123.9Z" transform="translate(0 0)" />
			<path class="cls-1" d="M577.2,130.1c1.8,1.1,3.5.9,5.1.8a6.12,6.12,0,0,1,4.2.5c.1.1.2.1.4.1a.71.71,0,0,0,.6-.3.78.78,0,0,0-.2-1c-1.8-1.1-3.5-.9-5.1-.8a6.12,6.12,0,0,1-4.2-.5.78.78,0,0,0-1,.2A.62.62,0,0,0,577.2,130.1Z" transform="translate(0 0)" />
			<path class="cls-1" d="M583.4,137a4.67,4.67,0,0,1,3,.6c.1.1.2.1.4.1a.71.71,0,0,0,.6-.3.78.78,0,0,0-.2-1,3,3,0,0,0-.8-.4,8.12,8.12,0,0,0-4.3-.4h-.3a5.91,5.91,0,0,1-3.9-.6.78.78,0,0,0-1,.2.9.9,0,0,0-.1.5c0,.1,0,.1.1.2s.1.2.3.3a6.53,6.53,0,0,0,2.8.9,15.49,15.49,0,0,0,2.2-.1Z" transform="translate(0 0)" />
			<path class="cls-1" d="M597.5,137c.4,0,.8.1,1.2.1a8.68,8.68,0,0,0,2.3.1,5.14,5.14,0,0,0,2.8-.9l.3-.3c0-.1,0-.1.1-.2a.9.9,0,0,0-.1-.5.75.75,0,0,0-1-.2,5.81,5.81,0,0,1-3.9.6h-.3a8.12,8.12,0,0,0-4.3.4,3,3,0,0,0-.8.4.75.75,0,0,0-.2,1,.71.71,0,0,0,.6.3.6.6,0,0,0,.4-.1A3.85,3.85,0,0,1,597.5,137Z" transform="translate(0 0)" />
			<path class="cls-1" d="M603.1,128.9a6.06,6.06,0,0,1-4.2.5,6.8,6.8,0,0,0-5.1.8.75.75,0,0,0-.2,1,.78.78,0,0,0,1,.2,6.06,6.06,0,0,1,4.2-.5,6.8,6.8,0,0,0,5.1-.8.72.72,0,1,0-.8-1.2Z" transform="translate(0 0)" />
			<path class="cls-1" d="M594.2,125.3a.6.6,0,0,0,.4-.1,5.09,5.09,0,0,1,3.4-.6,2.2,2.2,0,0,1,.8.1,6.8,6.8,0,0,0,5.1-.8.72.72,0,1,0-.8-1.2,5.37,5.37,0,0,1-3.5.6,2,2,0,0,1-.7-.1,13.84,13.84,0,0,0-2.9-.1,4.92,4.92,0,0,0-2.2.8.54.54,0,0,0-.3.4,1.27,1.27,0,0,0,.1.6A.55.55,0,0,0,594.2,125.3Z" transform="translate(0 0)" />
		</g>
		<g id="stirling">
			<path class="cls-1" d="M14.5,97.2c0-4.2,3.8-6.7,9-6.7a19.16,19.16,0,0,1,12.9,5.6c1.7,1.7,3.2,3.1,5,3.1,2.8,0,4.7-3.3,4.7-6.7a6.87,6.87,0,0,0-2.5-5.8c-4.4-3.9-11.8-5.8-18.8-5.8C10.2,80.9.7,88.6.7,98.7c0,22.3,34.5,20.2,34.6,36.1,0,7-5.3,10.2-11.4,10.2-11.7,0-15-9.2-19.1-9.2-2.9,0-4.8,3.4-4.8,6.7a6.68,6.68,0,0,0,2.7,5.9c5.3,4.1,12.8,6.1,20.3,6.1,7.7,0,15.3-2.2,20-6.8a19.51,19.51,0,0,0,6-14.6C49,109.9,14.5,111.3,14.5,97.2Z" transform="translate(0 0)" />
			<path class="cls-1" d="M111.9,81.6H58.1c-1.4,0-1.9.4-1.9,1.8v5.8c0,1.3.5,1.8,1.9,1.8h8.8c5.8,0,9.2-.2,11.3-.4V143c0,7.6-4,6.6-4,8.9,0,1.5,1.7,1.9,8.2,1.9h5.2c6.4,0,8.2-.4,8.2-1.9,0-2.3-4-1.3-4-8.9V90.6a93.12,93.12,0,0,0,11.3.4h8.8c1.4,0,1.9-.5,1.9-1.8V83.4C113.8,82,113.3,81.6,111.9,81.6Z" transform="translate(0 0)" />
			<path class="cls-1" d="M145.9,83.5c0-1.5-1.7-1.9-8.2-1.9h-5.2c-6.4,0-8.2.4-8.2,1.9,0,2.3,4,1.3,4,8.9v50.5c0,7.6-4,6.6-4,8.9,0,1.5,1.7,1.9,8.2,1.9h5.2c6.4,0,8.2-.4,8.2-1.9,0-2.3-4-1.3-4-8.9V92.4C141.9,84.8,145.9,85.8,145.9,83.5Z" transform="translate(0 0)" />
			<path class="cls-1" d="M221.7,150.5a23,23,0,0,1-7.4-6.8l-15.6-20.5c9.3-3.6,14.7-9.1,14.6-20.1,0-9.8-5.4-15.2-12.2-18.3-4.8-2.1-12.3-3.2-23.2-3.2h-9.4c-6.4,0-8.2.4-8.2,1.9,0,2.3,4,1.3,4,8.9v50.5c0,7.6-4,6.6-4,8.9,0,1.5,1.7,1.9,8.2,1.9h5.2c6.4,0,8.2-.4,8.2-1.9,0-2.3-4-1.3-4-8.9V126h6.8l17,22.5c3.2,4.3,4.6,5.2,11.3,5.2,6,0,9.6-.2,9.6-1.8C222.6,151.3,222.4,151,221.7,150.5Zm-43.8-32.9V90h3.9c10.3,0,17.5,2.9,17.5,13.4C199.3,112.3,194.1,117.6,177.9,117.6Z" transform="translate(0 0)" />
			<path class="cls-1" d="M277.5,144.4v.1H261.6c-5.8,0-9.2.2-11.3.4V92.5c0-7.6,4-6.6,4-8.9,0-1.5-1.7-1.9-8.2-1.9h-5.2c-6.4,0-8.2.4-8.2,1.9,0,2.3,4,1.3,4,8.9V143c0,7.6-4,6.6-4,8.9,0,1.5,1.7,1.9,8.2,1.9h36.6c1.4,0,1.9-.5,1.9-1.8v-5.8C279.4,144.8,278.9,144.4,277.5,144.4Z" transform="translate(0 0)" />
			<path class="cls-1" d="M312.9,83.5c0-1.5-1.7-1.9-8.2-1.9h-5.2c-6.4,0-8.2.4-8.2,1.9,0,2.3,4,1.3,4,8.9v50.5c0,7.6-4,6.6-4,8.9,0,1.5,1.7,1.9,8.2,1.9h5.2c6.4,0,8.2-.4,8.2-1.9,0-2.3-4-1.3-4-8.9V92.4C308.9,84.8,312.9,85.8,312.9,83.5Z" transform="translate(0 0)" />
			<path class="cls-1" d="M386,81.6h-2c-6.4,0-8.2.4-8.2,1.9,0,2.3,4,1.3,4,8.9v37.3h-.2c-1.2-1.6-3.2-4.2-4.8-6.3L346,86.9c-3.4-4.2-4.1-5.3-9.7-5.3h-.7c-6.4,0-8.2.4-8.2,1.9,0,2.3,4,1.3,4,8.9v50.5c0,7.6-4,6.6-4,8.9,0,1.5,1.7,1.9,8.2,1.9h2c6.4,0,8.2-.4,8.2-1.9,0-2.3-4-1.3-4-8.9V102.5h.2c1.2,1.6,3.2,4.2,4.8,6.3l33.8,42.9c1.3,1.6,1.7,2,4.8,2h.7c3.4,0,4.1-.6,4.1-2.1V92.4c0-7.6,4-6.6,4-8.9C394.2,82,392.5,81.6,386,81.6Z" transform="translate(0 0)" />
			<path class="cls-1" d="M460.5,118.6h-1.9c-6.2,0-8.5.4-8.5,2,0,.7.3,1.1,1.2,1.8,2,1.5,2.8,2.8,2.8,7V143a26.88,26.88,0,0,1-10.2,2c-13.8,0-22.3-8.4-22.3-28.1,0-18,9.6-26.3,19.7-26.3,11.3,0,13.2,9.2,18.5,9.2,3,0,5-3.2,5-6.8a7.39,7.39,0,0,0-2.7-6.2c-3.9-3.6-11.5-5.9-20.5-5.9-21.7,0-34.1,15-34.1,37,0,22.6,11.8,36.5,34.9,36.5,7.9,0,15.8-1.7,21.8-5a5.22,5.22,0,0,0,3.1-5.2V121.5C467.3,119,466.7,118.6,460.5,118.6Z" transform="translate(0 0)" />
		</g>
		<g id="of">
			<path class="cls-1" d="M441.6,33.4a11.32,11.32,0,0,0-7.3-8,14.68,14.68,0,0,0-8.3-.5,16.34,16.34,0,0,0-10.8,7,19.31,19.31,0,0,0-3.3,8.6,17.69,17.69,0,0,0,.3,7.6,10.93,10.93,0,0,0,6.2,7.5,14.15,14.15,0,0,0,6.1,1.2,10.28,10.28,0,0,0,1.7-.1A16.73,16.73,0,0,0,439.5,48a22.19,22.19,0,0,0,2.5-8.3A16.79,16.79,0,0,0,441.6,33.4Zm-7.2,5.9a18.93,18.93,0,0,1-1.7,6.6,12,12,0,0,1-3.5,4.6,6.67,6.67,0,0,1-7.4.5,5.41,5.41,0,0,1-2.4-3.8c-.2-1-.2-2-.3-2.6.1-3.9.7-7.1,2.5-10a9.22,9.22,0,0,1,4.2-4.3,6.12,6.12,0,0,1,6.6.6,6,6,0,0,1,1.8,3.3A14.59,14.59,0,0,1,434.4,39.3Z" transform="translate(0 0)" />
			<path class="cls-1" d="M469.5,12.4a6.12,6.12,0,0,0-1.2-.5,14.7,14.7,0,0,0-8.6-.4,10.06,10.06,0,0,0-4.4,2.5c-2.6,2.4-2.9,4.6-3.6,9.2a18.28,18.28,0,0,1-.3,1.9h-4.3a1,1,0,0,0-.8.7c-.2,1.1-.4,2.1-.6,3.2-.1.5.1.7.6.7.3,0,.5.1.8.1H451q-1,12.07-2.31,23.6c-.2,1.9-1.1,9.4-4.4,10.2-1.4.3-3.2-.5-4,.7a1.69,1.69,0,0,0-.1,1.4c.3.8,1.1.8,1.6.9,2.8.4,8-1.3,9.9-3.7a14,14,0,0,0,1.8-3,20.14,20.14,0,0,0,1.7-5.6c.6-3.28,1.89-12.4,2.78-24.6h7.62c.8,0,1-.2,1.2-1a22.31,22.31,0,0,0,.4-2.3c.2-1.1.1-1.3-1.1-1.3h-6.6c-.1,0-.7.1-.9-.3a2.53,2.53,0,0,1,0-1.5c.9-5.3,1.2-6.7,3.2-7.4,2.7-.8,5.8,1,6.6,1.2a.84.84,0,0,0,1.2-.6,20.16,20.16,0,0,0,.7-2.3A1.55,1.55,0,0,0,469.5,12.4Z" transform="translate(0 0)" />
		</g>
		<g id="university">
			<path class="cls-1" d="M34,11.5c-3.9,0-4.1.2-4.1,1.8V41.6c0,3.5-.5,5.7-2.3,7.2-1.4,1.2-3.5,1.8-6.6,1.8s-5.5-.6-7-1.8c-1.7-1.3-2.1-3.5-2.1-7.2V13.3c0-1.6-.3-1.8-4.2-1.8v-.1H6c-4,0-5.1.2-5.1,1.2,0,1.5,2.5.8,2.5,5.6v24c0,4.2,1,7.8,4,10.6s7.5,4,13.7,4c6,0,10.3-1.3,13.3-4.1,2.8-2.7,3.7-6.1,3.7-10.5V13.3C38.1,11.7,37.9,11.5,34,11.5Z" transform="translate(0 0)" />
			<path class="cls-1" d="M85,11.4H83.8c-4,0-5.1.2-5.1,1.2,0,1.5,2.5.8,2.5,5.6V41.5h-.1c-.7-1.1-2-2.7-3-4L60.2,14.7c-2.1-2.6-2.6-3.3-6.1-3.3h-.4c-4,0-5.1.2-5.1,1.2,0,1.5,2.5.8,2.5,5.6V49.7c0,4.8-2.5,4.1-2.5,5.6,0,1,1.1,1.2,5.1,1.2h1.2c4,0,5.1-.2,5.1-1.2,0-1.5-2.5-.8-2.5-5.6V24.5h.1c.7,1.1,2,2.7,3,4l21,26.7c.8,1,1.1,1.2,3,1.2H85c2.2,0,2.6-.3,2.6-1.3V18.2c0-4.8,2.5-4.1,2.5-5.6C90.1,11.6,89,11.4,85,11.4Z" transform="translate(0 0)" />
			<path class="cls-1" d="M112.9,12.6c0-1-1.1-1.2-5.1-1.2h-3.2c-4,0-5.1.2-5.1,1.2,0,1.5,2.5.8,2.5,5.6V49.7c0,4.8-2.5,4.1-2.5,5.6,0,1,1.1,1.2,5.1,1.2h3.2c4,0,5.1-.2,5.1-1.2,0-1.5-2.5-.8-2.5-5.6V18.2C110.4,13.4,112.9,14.1,112.9,12.6Z" transform="translate(0 0)" />
			<path class="cls-1" d="M158.1,11.6c-5.3,0-6.3.1-6.3,1.2,0,.4.2.7.8,1.2a3.28,3.28,0,0,1,1.2,2.4,7.81,7.81,0,0,1-.7,2.6l-4.4,12.5c-1.6,4.2-2.6,7.1-4,11.2h-.1c-1.3-3.3-3.3-8.5-4.4-11.2L134.1,16c-1.5-3.9-2.6-4.5-7.4-4.5-3.6,0-5.9.1-5.9,1.2a1.07,1.07,0,0,0,.7,1,7.52,7.52,0,0,1,4,4.2l14.9,36.8c.6,1.6,1.3,1.8,2.4,1.8H144c1.1,0,1.8-.2,2.4-1.8L160,19a10.41,10.41,0,0,1,3.7-5.1c.5-.4.7-.7.7-1.1C164.4,11.7,163.3,11.6,158.1,11.6Z" transform="translate(0 0)" />
			<path class="cls-1" d="M201.6,50.7H190c-3.6,0-5.7.1-7,.2v-15h14.7c.9,0,1.2-.3,1.2-1.1V31.4c0-.9-.3-1.1-1.2-1.1H183V17c1.3.1,3.4.2,7,.2h10.9c.9,0,1.2-.3,1.2-1.1V12.5c0-.9-.3-1.1-1.2-1.1H177.1c-4,0-5.1.2-5.1,1.2,0,1.5,2.5.8,2.5,5.6V49.7c0,4.8-2.5,4.1-2.5,5.6,0,1,1.1,1.2,5.1,1.2h24.5c.9,0,1.2-.3,1.2-1.1V51.8C202.8,50.9,202.5,50.7,201.6,50.7Z" transform="translate(0 0)" />
			<path class="cls-1" d="M249.2,54.4a15.42,15.42,0,0,1-4.6-4.2l-9.7-12.8c5.8-2.2,9.2-5.6,9.3-12.6,0-6.1-3.4-9.5-7.6-11.4-3-1.3-7.7-2-14.5-2h-5.9c-4,0-5.1.2-5.1,1.2,0,1.5,2.5.8,2.5,5.6V49.7c0,4.8-2.5,4.1-2.5,5.6,0,1,1.1,1.2,5.1,1.2h3.2c4,0,5.1-.2,5.1-1.2,0-1.5-2.5-.8-2.5-5.6V39.1h4.2l10.6,14.1c1.9,2.6,2.8,3.2,7,3.2,3.7,0,6-.1,6-1.1C249.8,54.9,249.6,54.7,249.2,54.4ZM222,34V16.8h2.4c6.4,0,10.9,1.7,10.9,8.3C235.3,30.7,232.1,34,222,34Z" transform="translate(0 0)" />
			<path class="cls-1" d="M264.8,21.3c0-2.7,2.4-4.2,5.6-4.2a12.31,12.31,0,0,1,8.1,3.5c1.1,1,2,1.9,3.1,1.9,1.7,0,2.9-2.1,2.9-4.2a4.3,4.3,0,0,0-1.5-3.6c-2.7-2.4-7.3-3.6-11.7-3.6-9.1,0-15,4.8-15,11.1,0,13.9,21.5,12.6,21.5,22.4,0,4.4-3.3,6.4-7.1,6.4-7.3,0-9.3-5.7-11.9-5.7-1.8,0-3,2.2-3,4.2a4.24,4.24,0,0,0,1.7,3.7c3.3,2.6,8,3.8,12.7,3.8s9.5-1.3,12.4-4.2a12.2,12.2,0,0,0,3.7-9.1C286.3,29.2,264.8,30.1,264.8,21.3Z" transform="translate(0 0)" />
			<path class="cls-1" d="M307.5,12.6c0-1-1.1-1.2-5.1-1.2h-3.2c-4,0-5.1.2-5.1,1.2,0,1.5,2.5.8,2.5,5.6V49.7c0,4.8-2.5,4.1-2.5,5.6,0,1,1.1,1.2,5.1,1.2h3.2c4,0,5.1-.2,5.1-1.2,0-1.5-2.5-.8-2.5-5.6V18.2C305,13.4,307.5,14.1,307.5,12.6Z" transform="translate(0 0)" />
			<path class="cls-1" d="M350,11.5H316.6c-.9,0-1.2.2-1.2,1.1v3.6c0,.8.3,1.1,1.2,1.1h5.5c3.6,0,5.7-.1,7-.2V49.7c0,4.8-2.5,4.1-2.5,5.6,0,1,1.1,1.2,5.1,1.2h3.2c4,0,5.1-.2,5.1-1.2,0-1.5-2.5-.8-2.5-5.6V17.1c1.3.1,3.4.2,7,.2H350c.9,0,1.2-.3,1.2-1.1V12.6C351.2,11.7,350.9,11.5,350,11.5Z" transform="translate(0 0)" />
			<path class="cls-1" d="M393.3,11.5c-5.4,0-6.4.1-6.4,1.2,0,.4.2.7.8,1.2a3.28,3.28,0,0,1,1.2,2.4,6.31,6.31,0,0,1-.8,2.6L386,23c-2.2,4.1-4.1,7.9-5.6,11.1h-.1c-1.7-3.6-3.6-7.6-5.4-11.1l-3.5-7c-1.8-3.7-2.9-4.5-7.7-4.5-3.7,0-5.9.1-5.9,1.2a1.07,1.07,0,0,0,.7,1,8.64,8.64,0,0,1,4,4.2l12.2,23.9v7.9c0,4.8-2.5,4.1-2.5,5.6,0,1,1.1,1.2,5.1,1.2h3.2c4,0,5.1-.2,5.1-1.2,0-1.5-2.5-.8-2.5-5.6V41.9l11.8-23a14.43,14.43,0,0,1,4-5.1c.5-.4.7-.7.7-1.1C399.6,11.7,398.4,11.5,393.3,11.5Z" transform="translate(0 0)" />
		</g>
	</g>
</svg>
