<svg xmlns="http://www.w3.org/2000/svg" viewBox="-7150.812 10873.793 221.269 325.511">
  <defs>
    <style>
      .cls-1 {
        fill: #717171;
      }

      .cls-2 {
        fill: #76bd22;
      }
    </style>
  </defs>
  <g id="Group_334" data-name="Group 334" transform="translate(-8585 8151)">
    <path id="Path_59" data-name="Path 59" class="cls-1" d="M260.487,783.3v.274l-1.958-.255v-.255l.529-.235.607-1.077.294.02.235.215.059.215-.078.215-.2.157v.235l.137.118.215.255Zm43.741-23.084-.568.274-2.741-.117-.47-.176-.431-.411-.352-.49-.255-.431.274-1.057.176-.215.294-.1,2.937.881.235.137.274.2.509.509.235.548Zm-52.238,23.73,3.622,1.449.587-.039.255.039.294.235.02.1-.02.294.02.117.059.02.215-.059.059.02.49.764v.274h-.117l-.059.078-.059.1-.078.1-.9.274-.372.2-.666.607-.137.157-.059.2.02.822-.02.411-.078.2-2.643.822-.861-.255-3.133-2.193-.157-.235-.783-.548-.274-.118-.9.118-.392.137-.431.274.568-1.057.94-.822,2.075-1-.059.117-.059.255-.039.137.587-.078.548-.47.8-1,.587-.431ZM139.935,613.388l.509.2.842-.489.529.176,2.017,1.312.333.117.489-.039.842-.294.431-.059.822.215.411.235.176.294.176.1.744.94.2.411-.2,2.1-.176.626-.352.764.137.352.411.078h.411l.274.059.313.157.274.255.137.352-.078.666-.47,1.371.02.255.627.157.568.333.49.509.392.646.078.255.117.607.117.294.137.2.333.294.157.215.176.294.176.392.137.47.039.568.176,1.038.529.372.627.294.47.822h.137l-.352-.842-1.312-1.547.372-.626.646.215.646.626.372.646.2,1.194-.117,1.038-.352.8-.509.529-.666.294-1.312.294-.607.294-.607.49-.45.529-.568.94-.313.49.255.2.078.333v.333l.059.2.274.039.176-.176.137-.235.255-.215.529-.764.235-.215.783-.333.764-.509.489-.215.333.157.333.274.47.078,2.624-.274.117.117.235.548.2.137.235.078.059.235v.294l.039.392.274,1.312.235.568.352.235.117.313.059,1.488.078.509.627,1.1.137.1-.176.372.02.2.059.157-.02.2-.117.235-.45.627-.157.45.117.627-.117.607-.235.294-.294.235-.137.294.294.411-.333.176-.294.529-.313.039-.255-.274-.176-.548-.2-.764-.255-.137-.215-.352-.137-.431-.02-.431.176-.431.529-.607.137-.568-.02-1.175-.2-.881-.352-.646-1.449-1.547-.568-.372-.646-.059-.02.255.137.372-.078.372-.215.313-.215.2.294.039.235.176.2.2.157.117.8.117.235.215-.352.117-.489.059-.157.157.646.411-.137.47-.02.411.117.333.274.1-.02.157-.039.118-.137.235.157.235-.7,1.919-.2.333-.842.607-.255.392.9-.274,1.038-.548.94-.215.607.7.137,1.449-.333,1.057-.627.822-.764.7-.1.039-.255-.078-.1.02-.2.783-.157.078-.2.078-.176-.059-.059-.313-.255-.274-1.273-.176-.94.039-.959.294-.431.078-.45.137-.157.431-.02,1.312v.137l-.1.7-.176.783-.235.744-.274.587-.431.47-.959.431-.724.685-.979.666-.294.118-.861.02-.352-.1-.372-.294.02-.235.45-.215.176-.02-1.645-.724-.274-.039-.215-.7-.568-.235-.646-.078-.47-.215-.157.255-.313-.294-.333.02-.333.137-.294.059-.255-.2-.157-.294-.176-.039-.313.49-.039.235.02.274v.333l-.117.294-.157.137-.529.039-.587.176h-.157l-.137-.1-.117-.176-.078-.176v-.078l-.627-.02-1.938.607-.176-.039-.333-.157-.176.02-.117.137-.117.157-.137.176-.117.059-.313-.176-.548-.764-.313-.294.392-.862.059-.411-.215-.431.548-.627.255-.685-.078-.666-.176-.215-.294-.411-.431-.431-.235-.157-.255-.039-.235.118-.176.215-.2.2-.255-.039-.45-.352-.45-.431-.392-.509-.333-.626-.1-.372-.059-.372-.078-.333-.176-.215-.744-.45.392-.176.2-.392v-.529l-.2-.724-.176-.587-.137-.176-.255-.039-.176-.1-.157-.666-.137-.235-1.273-1.234-.7-.45-.685.02-.685.587-1.175,1.625-.764.489-.176-.02-.392-.1-.1.039-.059.039-.039.157.039.235.059.2.059.078v.02l-.2.333h-.02l-.137.137-.157-.059-.1.02.02.392.7.431-.176.529.744.7-.333.392.1.646-.489.274-1.234.235-.255.176-.2.176-.157.255-.157.352.1.157.2.2.02.2-.45.2.059.372-.078.372-.2.313-.215.215-.313.137-.059-.137.039-.352.039-.45.059-.333.078-.274-.059-.1-.7.352-.176.2-.02.235.431,1.116-.137-.02h-.235l-1.038-.431-.333.039-.1-.039-.039-.176-.137-.333-.176-.059h-.215l-.078-.059.274-.313-.548-.1-.959.646-.47.059-2.31-.744-.235-.215-.039-.333v-.333l-.137-.255-1.488-1.312-.392-.117-1.312-.02-1.194-.255-.411-.294-.235-.607.059-1.664-.1-.627-.313-.274-.842-.2-.176-.078-.176-.117-.333-.45-.235-.568-.372-1.234-.646-.059-.529-.333-.47-.587-.822-1.41-.47-.627-.176-.313-.02-.313-.039-.313-.255-.274.117-.059.411-.176,1.194-.255.568-.274.274-.215.117-.157.313-.509.489-.626.509-.47,1.625.529.842.1.862-.255,2.35-1.9.92-.235v-.02h0v-.724l-.215-.078-.372.235-.372.157-.333-.176-.646-.685-.294-.215-.176.059-.352.235-.176-.039-.157-.2-.176-.49-.176-.137-.372-.157-.333-.255-.157-.392.215-.568-.137-.078-.333-.333,1.116-.45.8-.685.294.02.568.607.685.431.744.02.783-.372.822-.685.411-.2.724.274.666-.137.392.235.235.039.294-.1v-.1l-.1-.117-.059-.294.117-.94.176-.47,1.723-1.821.392-.646.294-.8.02-.372-.02-.979.117-.431.2-.2.45-.157.039-.039.176-.235.059-.333-.059-.959.1-.255.117-.039.059-.059-.059-.333.685-.9.235-.215.274-.2,1.39-.1.2-.2.2-.235.2-.215.431-.137h0l-.255.685.333.039,1-.235.392.078.9.568.724.176.744-.059.255-.176.509-.568.333-.215.02-.47.215-.685.294-.587.274-.255.274-.333.255-1.684.157-.529h.352l.881.685.411.2,2.78.059,2.526-.979,1.488-.02.372-.235.372-.45.431-.352.49-.235.489-.02ZM175.511,687.3l.274.02.392-.039.157.137.333.333.294.411.2.47.059.49.1.215.2.235.117.313-.137.392-.176.078-.235-.1-.45-.431-.431-.881-.215-.255-.2-.059-.666.02-.137-.1-.372-.666v-.255l.627-.509Zm-27.02-95.8v1.116l.117.352.274.411.294.313.2.137.1.137-.078.313-.117.313-.039.235.1.215.137.157.333.176-.078.431-.02.411.039.372.1.313-.02.235-.255.117-.235.157-.176.2-.117.294-.117-.294-.411.568-.509.431-.587.274-.607.157-.9-.2-.294.117-.215.8-.1.137-.215.215-.568.411-.548.157-.49-.215-.255-.842.176-.861.489-.509,1.194-.607-.372-1.351-.235-.313-.822-.47-.176-.039.137-.666.587-.646,1.018-.9-.45-.255-.607-.137-.607.059-.45.353-.587,1.273-.333.587-.7.45-.744.959-.274.294-.607.078-.235-.392.059-.607.313-.666-.1-.078-.078-.137-.1-.078.255-.587,1.038-1.351-.666-.548.294-.215.2-.215.1-.353.059-.607.078-.47.176-.294.8-.509,1.194-.431.274-.255.255-.176.274.137-.176.215-.333,1.057-.02.235.117.685.137.294.255.078.02-.255-.117-.724.509-.8.724-.666.783-.392.568-.685.294-.137.294-.078.333-.176.294-.235.2-.215.2.078.137.157.059.235v1.605Zm8.654-12-.509.039.255-.607.352-.333.744-.529.137.294.117.587-.45.372Zm14.293,17.015-.157.235-.274-.02-.2-.333-.215-.685-1.331-1.371-.2-.646-.2-1.057-.02-.49-.7-.529-.117-.294-.137-.587-.235-.666.059-.587.7-.333.627.587.607.744.176.117.176.059.137.117.078.842.137.2.2.078.176.176.235.529.176.49.137.529.157,1.175-.039.235-.137.176-.255.509.215.176.137.294Zm14.215,91.946.274.078.294-.039.529-.157.274-.02.137-.1.215-.372.137-.059.157.059.274.2.1.059h.666l.313.078.274.215-.47.49L188,690.336l-.548.294-.568.1-.587.255-.548.411-.45.47-.078.117-.039.1-.02.157v.274l-.039.294-.059.02-.1-.059-.8.548-.372.431-1.468.822-.235.078-.274-.078-.568-.274-.02.1-.137.117-.176.078-.137-.078-.02-.215.02-.353.039-.333.059-.137.176-.157.274-.333.137-.352-.235-.176-.352.157-.529.7-.333.137-.02-.118-.724-.685-.059-.02-.176.039-.059-.02-.02-.1.039-.333-.02-.1V692l-.02-.255-.059-.274-.45-.45-.7-1.488-.372-.529.02-.274.137-.372.078-.587.02-.822.157-1.253-.039-.529-.2-.568.392-.294,2.9-.881h.294l1.547.313.431.039.842.509.215.2.1.47.039.45.078.215-.02.1.274.215.313.2.117.02.02.2-.02.255-.02.235.078.1.02.1.333.431.117.431.039.333ZM155.7,584.763l-1.978,3.446-.548,1.469-.215-.078-.568.627-.372.157-.157.274-.294,1.449-.176.548-.568.372-.822-.118-.724-.529L149,591.4l-.078-1.821.078-.646.235-.568.333-.235.372-.157.352-.352.646-.49,1.664-.235.724-.548-.489-.059-.783.2-.7-.02-.274-.626.313-.842.646-.94.685-.764.45-.294.646-.176,1.684-1.488,1.136-1.038.666-.411.431.255.059.352.039.509-.059.47-.352.313-.352.548-.45.411ZM145.789,611.2l.02.392-.157.49-.215.411-.176.215.059-.294.02-.176.02-.117.1-.176-.47-.45-.529-.078-.529.02-.489-.1.255-.215.255-.157.255-.078.274-.039,1.1.235Zm22.849-3.916-.979.137-1.136-.176-.959-.392-.862-.607-.842-.8.02-.255v-.255l-.157-1.018-.078-.274.02-.255.117-.078.039-.1.039-.137.1-.156-.489-.8-.352-.764-.137-.9.157-1.234.313-.783.548-.783.685-.548.724-.1-.039-.117-.039-.274-.039-.137h.548l.176.039,1.351.764.352.372.411.744.255.8.352,1.88-.274.47.881,1,.02.861-.215.1-.313-.02-.2.137.1.509.157.157.862.431-.489.313.02.49.2.587.039.627-.313.333Zm-8.948-31.445.02.529-.2.529-.235.548-.255,1.155-.2-.235-.352-1.018.235-.353.274-.881.274-.294.1.137.1.1.1-.02Zm.7-2.31-.137.45-.215.294-.117.313.1.489-.489.255-.372-.274-.1-.587.333-.744.274-.176.47.1Zm-8.713-11.532.47.8.724,2.075.059.255-.02.255.039.2.215.078,2.075.118.157.157.137.235.137.157.333-.215.2-.039.2.059.137.117.411.744.176.176.2.078.392-.039h.137l.235.215.274.333.215.45.078.47.157.078.313-.059.215.157-.157.744-.176-.118-.157-.078-.372-.1.176.274.274.548.137.529-.274.215-.685-.02-.294-.157.059-.411-.117-.176-.117-.078h-.294l.039.489-.274.431-.724.568-.02.274.352-.235.392-.137.8-.078.333.2-.157.411-.392.431-1.919,1.155-.842.157-.646-.509.137-.078.255-.235.215-.313.039-.352-.157-.2h-.255l-.529.137-.117.137-.137.255-.157.255-.215.1-.7.117-1.7.764-.372.372-.255.2-.255-.078-.294-.176-.235-.137-.215.078-.529.313-.235.1-1.938-.118-.137.118-.117.255-.137.255-.235.1-.255-.02-.431-.2-.548-.392-.352-.45-.274-.587-.078-.7.215-.529.47-.274.529-.078.411.1.313.411.235.568.274.352.392-.255.02-.255-.157-.039-.078-.078-.059-.078-.117-.1.392-.137.94.274.333-.137.372-.333,1.468-.215.979-.626.431-.392-.117-.2-.431.1-1.253.607-1.038.215-.509-.078-.392-.392-.059-.372.117-.372.215-.274.235-.1.274-.059.176-.176.352-.744.078-.255.117-.274.2-.215.2-.059.724.118,1.273-.509.255-.2.137-.372.039-.372-.059-.313-.176-.235-1.371.627-.45.039-.176.078-.176.157-.2.059-.176-.2-.294-.783-.157-.353-.235-.294-.411-.274-1.919-.45-.392-.215-.333-.274-.274-.313,1.038-.685-.157-.352-.392-.49-.1-.47.764-.02.352-.137.352-.274.176.313.176.157.176.02.157-.157.1-.724.646-.45.822-.215.666-.039.274.235.959.352-.039.157-.078.411-.039.157Zm-2.957,5.463h-1.1l-.509-.118-.509-.529.235-.333.255-.235.274-.117h.294l.274.352.607.568Zm13.569,2.565-.352.626-.392.431-.47.176-.548-.059.117-.352.137-.235.352-.431.666.059.294-.059Zm-7.244-42.292-.039.607-.294-.2-.1-.411.078-.489.255-.45-.078-.117v-.02l-.039-.137.157-.215.157-.157.137-.02.117.2Zm-.392,1.371-.117.548-.392,1.1-.372,1.273-.059,1.175.137.294.255.627.078.627-.372.254-.333.118-.333.215-.333.1-.333-.235.059-.274.039-.1.078-.157-.2-.333V533.7l.313-2.389.2-.627.352-.274.587-.039.02-.254-.117-.2-.1-.2-.137-.411.235-.215.215-.02.392.274.02-.274-.255-.529.176.059.137.1.117.176Zm.724,7.773-.685.235-.509-.255-.431-.509-.1-.529.509-.274.685.176.509.568Zm-6.853-15.918.157.411.157.274.45.411.176.294.431.861.059.176.842.842.352.509.2.392.078.313.02,2.624.117,1.155v.509l-.1.548-.235.822-.078.509-.137.274-.568.509-.215.333.274-.235.352-.215.372-.117.294.137.137.392-.137.372-.235.294-.137.235.059.607.274.411.294.294.117.294-.176.313-.7.372-.294.235,1.762-.117.45.176.078.313-.255.333-.529.2-.02.255.568-.039.45-.176.411-.039.411.49.176.176.274.039.509-.02.294.157.176.352.117.352.117.215.294.039.176-.157.137-.255.117-.137.842.1.607-.568.587-.176.607.059.313.49,1.508.078-.392.92v.255l.059.392-.1.372-.176.294-.45.529-.783.587-.313.137-.822.039-.157.255-.078.822-.215.509-.45.333-.45.235-.215.176-.176.274L154.894,546l-.333.313-.392.255-1.1.137-.274-.157-.176-.509.1-.627.607-.8-.039-.333.02-.255.117-.059.059-.117.117-.352.078-.157.157-.176.411-.685.2-.255.235-.215,2.017-.881.02-.254-.587.294-.587.137-1.743-.078-.1-.1-.02-.235v-.255l-.039-.215-.431-.842-.255-.333-.235-.157.059.392.078.313.215.587-.255.548-.157.255-.215.2.117.294-.274.294-.2.411-.215.352-.313.137-.235-.294-.078-.685-.039-.783v-.568l-.157-.215-.117-.059-.117.059-.176.176-.137-.235-.157-.176-.176-.1-.2-.039-.02.235.274.313-.372.235-2.917.568.02-.274.255-.2.666-.783.02-.235-.372-.039-.372.078-.352.157-.333.235-.352-.627-.255-.724.235-.078.2-.137.176-.2.137-.294-.94.039-.333-.137-.881-1.351-.039-.118-.078-.372-.059-.137-.1-.176-.078-.1-.059-.137-.039-.255.979-.607.411-.157.45.118.333.352.333.47.411.431.529.157-.235-.509-1.194-1.155-.235-.352-.117-.117-.235-.059-.235.039-.45.157-.255-.02.313-.215.02-.274-.157-.059-.372-.235.157-.059.059-.039.078-.137-.176-.1-.117-.215-.02-.313.137-.411-.313.059-.431.49-.274.176.137-.313.039-.352-.039-.352-.176-.294-.2.47-.235.157-.255.078-.215.294-.059.411.176.7-.078.411-.352.255-1.821-.764-.45-.352-.352-.49-.117-.548-.117-1-.8-.685-.157-.862,1.234.078-.255-.352-.157-.431v-.45l.176-.45.294-.392.215-.078.176.137.959,1.664.1.352.176.255.352.313.274.078-.078-.47.02-.235.1-.059.1-.137.1-.039-.313-.47-.059-.078-.039-.137-.157-.274-.02-.137.059-.157.2-.078.039-.118.176-.176.352.078.568.313-.157-.685-.47-.646-.587-.47-.489-.157.294-.352.255-.548.078-.529-.215-.333.02-.294.411.059.274.294.2.372.431.313.059.333v.352l.039.235.176.255.137.117.9.568.2.215.215.372.255.313h.274l.294-.117h.352l-.529,1.1.2.059.47-.529.294-.7.255.157,1.41,2.154.02-.255-.1-.137-.078-.235-.078-.137.039-.509-.255-.509-.646-.862-.294-.822.1-.392.294-.352.294-.724h-.255l-.235-.039-.2-.137-.137-.157.117-.509-.078-.313-.157-.235-.078-.255v-.45l.059-.117.137-.039.842-.45.137-.157.2-.431.157-.431.176-.274.255.137.157-.039.059-.059Zm60.286-33.168.137.137.607.02,1.292-.372.783-.078,1,.764.646.02,1.292-.235.666.313-.137.666-.392.764-.1.568-.235.294-.294.685-.176.294-.529.509-.137.235-.235.744-.02.607.215.45.411.255.255-.02.215-.137.2-.039.157.215.059.45-.1.333-.176.235-.2.039-.2,1.331-.881,1.684-1.077,1.527-.764.822-.842.47-1.743.587-.7.431-1.077,1.057-.176.352-.176.607L206,505l-.842.94-4.445,3.5-1.488.7-.372.372-.2.411-.215.744-.117.274-.176.176-.509.274-.627.117-1.312.881-.2.117-.137.235-.078.294-.02.392-.313-.2-.1-.1.137-.235-.274-.157-.509-.078-.568-.372-.1.137.039.333.157.333.294.235.627.039.294.176.137.176.392.744-.431.685-.1.392.078.431h-.313l-.587-.255h-.313l-.2.137-.372.47-.157.137-.568-.039-1.136-.627-.548-.176-1.645.392-.431-.333-.607-.94-.372-.372-.392-.157,1,1.645.627.568.764.2.822-.372.431-.059.333.352.333.431.47.372.333-.02-.1-.627,1.253.92.7.215,1.155-.881.646.176.333.47-.294.49.646.2.764-.313.744-.685.587-.8.313-.372.255.059.117.372-.059.607-.176.313-2.819,3.544-.47.352-.548.8-.274.255-.411.078-.313-.157-.1-.372.274-.607-.529-.529-.7.235-1.606,1.371-.274.117h-.509l-1.331.333-.372-.078-.352.02-.157.431-.157.509-.313.215-.294.137-1.351,1.273-.2.235-.176.392-.2.548.1.059.274-.2.607-.255.313-.274.294-.392.215-.333.255-.333.94-.548.8-.764.881-.431.157-.02.235.117.255.333,1,.274.45.02.333-.274.255-.255.881-.529.313-.059.078.489-.45.764-.607.724-.607.45-.744,1.116.059.2.059.137.059.1.078.1-.94.059-.392.2-.352.45.176.352-.137.039-.47-.157-1.1-.039v.274h.587l.274.059.235.215-.392.842-.235.372-.235.294.724.215.372.039.431-.2.352-.411.157-.255.02-.1.45-.039.215-.118.392-.548.294-.274.313-.2.294-.059.372-.176-.215-.431-.724-.7.548.039,1.86-.215,1.938.235.627-.176,3.133-2.252,1.214-.255-.157.411-.1.176-.176.157.255.235.255-.02.274-.117.294-.078-.392-1.018.744.294.392.059.392-.078.294-.2.333-.411.2-.47-.117-.45.215-.372.176-.039.2.117.255.059.255-.078.548-.313.235-.1,2.506.176,1.488,1.038,2.624.959.881.059.822-.274,1.253-.861.333-.137,3.172.039.137.1.2.372.2.078.235-.059.176-.117.157-.039.215.235.685-.313,1.723.627.646-.039.313.548.157-.078.137-.274.274-.176.352.059.959.489.137-.274.157.078.176.157.215.039.235-.117.352-.352.176-.078.392.255.235.078.1-.2.059-.215.137-.215.2-.137.176-.1.431.1.881.568.411.118.529-.1,1.214-.92.333-.078,2.212.078.02.157.118.333.176.333.176.215.235.039.333-.313h.235l.137.157.235.509,1.723,1.938.176.627.078.685.117.666.313.607v.235l-.078.47.215.411.587.646-.294.02-.137.274.02.333.2.157.255.1-.137.235-.47.411-.842,1.136-.352.685-.059.509-2.134,2.017-.529.822-1.312,3.5-.489,1.938-.117.764.059.7.392.313.059.333-.333.7-.02.02-1.86,2.957-.627,1.371-.274,1.351.059.294.117.235.1.274v.47l-.1.215-.392.49-.078.176-.137.666-.294.411-.7.587-.548.783-.509.881-.333.392-1.155.744-.352.294-.372.431-.2.392-.1.215-.235,1.645-.255.47-.294.372-.215.568v.294l.117.509.02.215-.117.255-.372.411-.215.646-.333.392-1.958,1.39-.372.783-.431.294-.8.392-.2.294-.411.979-.2.1-.157-.1-.157-.137-.255-.1-1.136.157-4.934.646-.1.02-.822.352-.724.548-2.212,2.173-.881.352-.9-.313.255.352.352.176h.881l.45-.118.881-.529.8-.176,4.19-2.056.215-.255.2-.352.45-.274.489-.078.352.235.372.372.744.059.235.47.039.724-.157.666-.294.548-.333.372h.509l.078.117.078.509.039.137.235.118.2.02.157.1.137.255,1.9.176.45.235.7.666.176.117.744.685v.215l-1.116,1.116-.392.744-.509.235-1.018.215-1.331.9-.47.137-.509-.1-1.273-.685-1-.039-.509.137-.215.274-.176.333-1.116.8-1.194,1.312-.352.2-.431.137-.235.392-.313,1.273-.235.529-.313.235-1.468.039-.411.176-.744.49-.842.372-.822.117-.822-.078-3.387-1.077-1.86-.02-.8-.274-.724-.548-.02-.02-.724-.744-.431-.568-.294-.215-.431-.02v.235l1.234.92.176.294.157.117.7,1.292.1.274.176.078.411-.078.137.02.137.2.1.255.137.235.255.1,1.194-.235.47.02,3.6,1.1,1,.02.372-.176.215.02.215.313.352.333,3.818.372.137.118.372.548.137.137.255.059,1.331-.118,1.606-.685.49-.411.352-.587.372-.47.529-.059-.117-.47-.059-.157-.1-.137.392-.352.627-.744.431-.176,3.524.294.411.2.587.842.372.235-.2.607-.117.215.294.117.529-.117.313.235.078-.157.215-.176.137-.157.313.333.842.607.8.255,1.331,1.155.9.49,3.387.685.176.1.117.294.039.352.039.274.157.118.45.2.411.47,1.214,2.408h0l.274.568,2.8,3.583.313.881.215.47.47.333.117.255.1.274.117.117.2-.039.137-.2.1-.2.078-.1.235.039.274.137.255.294.2.529h-.431v.255l.255.137.744-.215.47.059,1.449,1.018v.255l-.117.255.039.274.137.274.235.255-.294.235v.255l.176.118.411.392v.255l-.176.333.1.157.215.137.157.157.1.45.1,2.506-.039.372-.117.607-.02.215v.333l.137.822.529.979.059.646-.02.2-.039.157-.059.157-.078.137-.1.274.039.255.078.235.039.255.117.45.274.411.49.529-.176.489.117.235.215.215.137.372-.059.372-.137.333-.1.333.1.392.372.548.1.274.078.822.2.783.078.235.078.078.274.117.078.078.02.118.078.294.352.959.2.333.117.352.1.47.137.45.255.157.078.117.607.627.157.411.02.235-.039.157v.235l.02.822.059.352.157.117-.059.353,1.331,4.68.47,1.175.764,1,.333.255,1.155.49v.274h-.431v.157l.039.118.118.235.059.294.1.274.137.235.176.215-.176.333-.215.2-.509.235.059.274.117.137.157.059.215.02.059-.078.02-.117.039-.1.1.02.059.1.1.176.059.176-.039.078.255-.059.137-.215.176-1.057.392.509.372.294.431.157.92.1,1.077.7,4.5,1.331,4.973,3.054.646.587.274.529.02.333-.039.294.078.372.235.313.744.529.313.294.333.607.392.881.294.94.039.744.078.255.137.255.176.176.235.059-.078.392-.059.137.176.2.431.587.176.215.9.215.235.157.274.255.509.235.176.392.176,1,.059.137.607.607,2.722,1,.8.724-1.919,1.116-.666.8-.509,1.508.509,1.038.7,2.447.431,1.116,2.447,3.622,4.151,5.854.392,1.214-.235,1.234-.137.117-.47.411.45-1.155.078-.646-.352-.274-.47-.117-1-.685-.49-.176-.431.137-.842.568-.47.137-.548-.039-.509-.118-.45-.235-.392-.313-2.193-2.722-.8-.568-.783-.1-.215-.039L270,673.047h-.411l-1.351.02-.764.2-.157-.059-.548-.529-.078-.1-1.292-.118-.47.157-1.508,1.057.2.1.2.1.2.157.176.157.313-.587.607-.313.685-.059.529.137.92.666.255.255.333.2.352-.118.607-.529,3.975-.842.627.274.431.744,1.664,2.467,1,.49.7.8.392.294.783.1.333.1,1.077,1.292,2.193,1.7.431.176.431.078.411.176.372.411.078.274.059.392.078.333.137.157.215.059.666.45-.157.255.392.274.372.529.274.568.117.509,2,5.012.372,1.41.059,1.606-.411,1.978-.117.274-.255.1-.45.1-.372.255-1.958,2.134-.411.176-.294.274-1.7,2.682-.47.529-.529.255-.352.235-.294.548.039.45.685.059,1.175-.313.313.1.646.49.313.137.548.353,1.234,1.782.587.666.392-.313.47-.078.92.059.372.2.666.881.333.176v-.255l-.137-.607.431-.7.568-.666.294-.529.1-.92.255-1.038.313-.92.274-.666.764-.842,1.1-.548,1.214-.294h1.1l-.176-.274.45-.176.509.1.509.215.49.078,1.938-.078.9.215,1.038.45,1.1.235,1-.529-.255-.157-.274-.078-.274-.039-.294.039-.02-.255,7.068,1.39,2.819,1.292,5.854,4.073.7.7.607.9.509,1.743.47,1.077.372,1.1-.117.8.176.568.078.744.039,1.351.627,1.723-.059.352-.274.372-.47,1.978.039.352-.039.372-.881,2.722-.666,1.39-.235.274-.215.45v.959l.137,1.7-.1.724-.352,1.292-.059.7-.274,1.018-.02.529-.1.2-1.782.861-.372.49-.352-.255-.117.313-.039.49-.176.274-.157.137-.529.881-1.547,1.86-.235.431-.274.1-1.664-1.958-.7-.2-1.194-.881-.646-.1.02.255.862.724.489.352,1.077.176.255.137.117.157.02.607-.059.157-.47-.1-.274.039-.49.176-.294.059-.294-.059-.666-.411-.509.078-1.1.411-.587.118.627.255,3.857.078.45-.294-.039.7-1.762,1.978.313.215.372.137.862.078.235-.235.157-.411.1-.02.059.783-.255.587-1.273,1.292-1.155.861-.744.353-1.625.294-.431-.059-.215-.176-.411-.744-.8-1-.215-.509-.02.724-.352.411-.842.45-.685.7-.176.1v.215l-.039.45-.1.45-.1.215-.274.078-.372.333-.235.117-.294.02-.529-.2-.215-.059-.568.1-1.077.45-.49.313.372.176.431.039.392.2.294.568.627-.685,1.488-.392.7-.333.646-.568.411-.117.372.352.059.333-.059.372-.078.274-.059.059.059.294.1.294.215.431-.215.215-.078.333.039.861-.078.215-.176.2-.333.274.627-.039.235.1.1.157-.587,1.116-1.155,1.116-1.018.724-.274.176-1.038.391-1.88-.235-.646.078-.02-.02-.313-.02-.078.02-.059.02-.02.039-.45.45-.333.1-.313.039-.294.078-.294.333-.392-.353-.137.02-.509.039-1.605.47-.117.274-.059.372-.137.431-.294.392-.333.215-.352.137-.333.215,1.488-.313.2-.117.1-.274.078-.255.1-.117,1.527-.47,3.759.411.352.235.313.529.039.352-.215.215-.47.078-.862-.157-.372.02-.724.744-.842.235-.411.294.2.2.176.255.176.235.235.078,2.017-.078.979.215-.215-.431-.137-.509.1-.372h.489l.078.47.274.685.352.587.274.274,5.012.352,2.859-1,7.558-1.057.587.313-.137,1.234-.078.235-.1.235-.117.176-.137.137-.842.039-.117.117.1.8.2.627.431.979.274,1.488-.137,1.429-.411,1.234-.607.8-1.566.607-.627.548-.274.039-.509-.02-.274.137L310.9,770l-.176.255-.176.2-.45.235-1.547.1-.47.157-.47.353-.881.881L305.6,774l-.215.45.1.979.313,1.429-.8.392-1.8-.529-1.625-.47-.92.352-2.252,2.369-.94.45-5.11,1.292-.881.431-.117-.02-.255.353-.215.411-.039.157-.8.568-.842,1.292-.881.02-.47-.059-1.1-.372-.255-.039-.842.02-.215-.118-.431-.411-.45-.137-1.018-.039-.411-.157-4.582-1.527-.783-.059-.059.02-.568.333-.881-.352-3.015,1.194-4.073.078-3.877,1.37-.215-.059-.2-.176-.2-.118-.235.1-.117.333.176.7-.117.392-.45.255-.548-.176-2.193-1.371-.176-.215.117-.392.313-.235.685-.294v-.235l-.255-.176-.47-.45-.274-.137-.117.118-.294.176-.176-.039.235-.49-.255-.157-.215-.118-.764-.137h-.724l-.45.137-.294.646-.215.92-.313.7-.627.1-.489-.548.215-.646.431-.666.137-.49-.431-.235h-.02l-1.468.137-.352.118.842.666.157.255.059.724-.078.392-.313.313-.313-.02-.431-.157-.392-.255-.157-.235-.157-.352-.764-.411-.568-.49-.783-.255-.313-.157-.411-.509-.489-.568-2.624-1.469-.411-.235v.235l.235.137.431.274.294.039.587.685,1.88,2.056.215.509-.078.47-.529.2-1.527.137-.352.137.176.118.157.157v.235l-1.077.2L247.6,784l-.274.215-.1.02-.783-.137-.764,1.429-.059.137-.039.02-.47-.137-.509-.353-1.625-.294h-.529l-.529.137-.92.489-.431.118-.607-.118-.9-.157-.548.02-.47.137-.45.255h-.02l-.411.333-.352.45-.255.2-.1-.255-.039-.392-.078-.2-.92-.255-.627.039-.2-.039-.078-.137-.02-.039-.176-.47-.117-.1L234,785.1l-.822,1.351.313-.039.274-.1.274-.2.274-.215.509.9.274.274.431.118h.392l.352.078.157.274-.176.646.352.235.137.039-.822,1.018.059.568-.45.215-1.958.039-.392-.1-1.8-.861-4.425-.509-.8-.509-.509.059-.9.294-.274.352-.294.822-.137.783.215.372.607.2.059.49-.255.587-.352.529h-.137l-.02-1.429-.548-.94-4.973-3.877-4.092-1.586-.529-.039-1.39.313-.411.078-.842.548-.568.059-.9-.274-.274.059-.548.45-.117.059-.392.352-.235.1-.255-.02-.45-.215-.274-.059-.45.059-.8.352-.979.215-.274.372-.215.509-.372.509-1.743.744-.548-.039-.392-.157-.313-.313-.294-.568-.294-.92-.1-.137-.078-.039-.039-.078-.078-.1-.137-.02-.078.059-.039.176.02.157.294.353.294,1.312.2.49-.431.392-.392.529-.352.627-.333.764-.274,1.018v.744l.392,1.566-.529.039-.529.137-.431.294-.176.529.157.626.411.2,1.057-.02v.255l-.255.646-.02.137-.215.039-.176.1-.137.215-.176.92-.294.2-.372-.157-.372-.333-.2.842-.529.313-.548.137-.255.352-.137.646-.255.764-.157.881.157.959-.372.176-.979.255-.411.02-.548-.137-.431-.235-.372-.059-.352.392-.881-.842-1.351-1.762L188.316,800l-.274-.137-.215.059-.627.333-.235.059-.137.1-.333.372-.2.059-.274-.059-.235-.137-.372-.352.059-.118.1-.372-.529-.156-.529-.411-.235-.568.352-.7-.881.039-.255-.078-.313-.215-.137-.235-.1-.313-.176-.411-.157-.607.2-.529.333-.509.274-.529-.489.215-.235-.039-.255-.215-.078.294-.02.1-.2.274-.235.137-.294-.039v.235l.352.235.078.392-.1.392-.215.274-.313.1-1.155-.157.392.587,1.371-.176.529.411-.842.215v.255l.2-.039.47.059-.2.274.666.02v.235l-.274.117-.157.176-.039.255.117.255v.235l-.509-.039-.255-.47-.215-.548-.411-.274-2.036-.607-1.1.078-1.782,1.057-.959.313-3.955.1v.078l-.078.118-.137.059h-.137l-.294-1.038-.176-.02-.137.078-.137.137-.137.039-.49.02-.489.137-.294.313.176.47-.02.274-.176.137-.235.255-.2.255-.1.255.02.235.117.255v.137l-.313.7-.039.215-.255.255-1.175-.235-.47.176-.47.509-.431.235-1.038.313-.333.313-1.077,1.7-.274-.47-.078-1.351-.294-.274-.489.1-.02.352.02.411-.333.411v.235l.137.1.352.45-.2-.039-.176.059-.294.2-.235.157-.039.274v.294l-.117.274-.215.157-.783.313.274-.02.215.078.333.215h.117l.274-.039.117.059.039.157.078.49.1.118.1.313-.352.685-.724,1.018-.235.039-.49-.118-.294.039-.176.137-.764.8-.313.881-.078.215-.215-.1-.235-.2-.685-.842-.117-.2-.1-.255-.059-.47.02-.294v-.274l-.157-.372-.646-1.155-.372-.49-.45-.372-1.429-.764-.979-.235-.783-.529-.392-.176h-.509l-.646.2-.49.352-.02.509.117.666-.294.49-.45.333-.372.176-1,.255-1.155.078-.9-.392-.2-1.155.235-.039.176-.059.117-.137.02-.235-.059-.2-.078-.1h-.039l-.1-.724-.02-.392.1-.157.059-.137.49-.744.2-.137.724-.215,1.586-.842.842-.235.959-.568.529.02.7.724.47.274.509-.274.372-.568.2-.333.1-.352.137-.137.862.039.92-.47,2.878-2.761.9-.587.333-.1.1-.176.039-.45-.02-.47-.137-.744.274-.176h.548l1.7-.822.059-.235.235-.49.274-1.449.059-.764.1-.626.255-.529.489-.352.489.02.176-.117.333-.353.176-.039.137.215.078.45.039.509v.411l.176-.078.059-.059.1-.117.431.294.979.078.372.2-.235-.529-.411-.255-.783-.333-.352-.509.059-.353.137-.294-.117-.392v-.235l.587.137,1.782-.039.685-.215.392-.529.313-.685.392-.587-.117-.568.1-.411.235-.157.333.1,1.743-1.41.294-.45.215-.646.47-.49,1.018-.7.685-1.273V777.68l.313-1.547.176-.294.372-.94-.078-.274-.078-.548v-.529l.117-.235,2.115.078.255.1.49.392.235.078,1.371.215.489-.157.352-.255,1.664-1.743.137-.215.117-.235.137-.176.255-.157-.137-.352-.255-1.038-.039-.274-.078-.235-.392-.626-.157-.333.783.1.176-.059.157-.392-.02-.392-.157-.333-.255-.2v-.235l1.821-.666,4.327-.274.881-.333.45-.059,1.7.039.529-.078.764-.392.431-.02,3.035.861h1.9l2.937.744.685.685.45.215,2.7-.059,1.7-.509.861-.1,1.547.117.94-.117.666-.45.176.255-.333.529.313.255.411-.764.078-.274.059-.49-.039-.235-.078-.215-.059-.352.039-1.39-.059-.724-.255-.45.45.137.235-.117h0l.1-.352.02-.587.2-.333.333-.352.157-.352-.352-.372.509-.529.744.157.881-.822L216.041,757l.411-.353.411-.235.45-.137.568-.039.489-.2.47-.49,2.095-3.544.2-.157.235-.1.215-.157.078-.352.059-.294.137-.352.157-.294.137-.235,1.351-1.39.8-1.1.411-.235,1-.352.372-.352.2-.411-.059-.45-.333-.333-.1.7-.431.392-.548.157-.47.039-.431.157-.333.411-.294.509-.333.431-1.39.92-.235.235-.215.372-1.547,1.8h0l-.666.783-.45.352-1.116.255-.881.626-.431.274-1,.352-1.978.117-.294-.137-.176-.255-.117-.255-.118-.117-.215.157-.627.764-.117.235-1.371.861-.059.02-.294.1-.392.294-.627.626-.078.137-.137.431-.1.176-.176.1-.333.039-.137.1v.02l.294.8-.176.783-.431.489-.45-.137-.352-.059-1.664.666-5.854-.646-.431-.274-.411-.587-.666-.94-1.351-1.194-.313-.039-.431.2-.529-.274-.45-.47-.235-.372-.039-.2.039-.039.078-.02.059-.02-.157-.744-.059-.2-.157-.509-.255-.627-.274-.529-.176-.2-.411-.294-.2-.294-.352-.7-.2-.235-.313-.1-.744.078-1.782.2-.333.137-.313.176-.215.235-.039.372.157.352.235.372.157.333-.979-.02v.1l-.117.157-.137.059-.059-.2-.059-.157-.157-.117-.2-.078-.157-.059-.078.1-.235.353-.117.059-.157-.059-.235-.2-.568-.157h-.215l-.255.118-.255.2-.352.391-.235.157-.235-.078-.255-.2-.215-.02-.1.411-.294-.039-1.371-.626-.411-.059-.078-.118-.039-.117-.039-.274.47-.313-.059-.392-.2-.49.02-.587.8-.235.1-.117.274-.45.157-.2.137.274h-.137v.235l.157.137.157.137.724-.215,1.194-.039,1.116-.255.509-.842.02-.235v-.294l-.117-.078-.294.333-.2.137-.255.02-.92-.117-1.253-.764-.333.215-1.84.215-.509-.2-.607-.529-.548-.666-.274-.7.959.176.411-.039.235-.333h-.431l-.431-.1-.352-.294-.2-.45.078-.059.137-.255.117-.352.02-.353-.157-.254-.157.117-.2.391-.137.137-.2.294-.137.059-.235-.059-.2-.2-.176-.294-.45.059-.1.274.176.353.333.352-.822.411h-.881l-1.743-.294-.685.039-.842.2-.137.039-.783.509-.078.92-.215.039-.059.059v.137l-.059.274-.47,1.057-.215-.078-.294-.294-.157.117-.431.411-2.075-.118-.352.078-.372.215-.215.294-.2.313-.215.274-.45.176-.215.333-.215.078-.117-.02-.235-.215-1.508-.548-.548-.45.235-.392-.313-.744-1.136-.352-.431-.529.157-.255,1.782.333-.039-.117-.039-.274-.039-.137.352.02.607.235.333.059.313-.059.8-.431,1.136-.2.587-.353.235-.059.294.176v-.235l-.646-.685-.1-.92.411-.744.9-.2.02-.274-.274.176-.685.255-1.312.078-.294.157.392.02.274.176.1.333-.157.548.313.313-.1.411-.352.352-1.821.372-.509-.02-3.231-.588-.411.137.2.646-.294.294-.333-.02.078-.411.02-.235-1.116-.94-.45-.157.489.02.333-.059.274-.176.294-.392.352-.313.783-.1.411-.176.372-.353.1-.352-.078-.959V742.1l-.078-.568-.176-.47-.313-.313-.176.255-.411-.372-.9-.176-.411-.294-.352.235-1.292.2-.45-.02.157-.137.157-.078.02-.274-.078-.157-.039-.118.059-.117.235-.137.02-.235-.157-.489.235-.2.842-.039.431-.137.724-.685.313-.157.724-.078.959-.313.764-.626.117-.959.333.02.02-.235-.274-.274.039-.235.274-.2.392-.059.627.078.274.078,1.194.724.45.02.685-.255-.137-.509.431.078.881.392.489.117.215-.157-.02-.372-.078-.431.02-.333.176-.157.783-.078.45-.313.352-.411.607-.9.431-.45.313.02.744.626v-1.116l.9-.411,2.859.215.274-.078.157-.2.117-.255.157-.2.7-.215.47-.294.45-.411.724-.783.333-.215.392-.078h.47l.431-.118,2.8-2.291,1.39-1.86.724-1.292.333-.861.255-1.586.215-.862.274-.764.274-.529-.117-.352-.039-.45.039-.45.157-.313.176-.039.489.294.235.059.392-.137,1.194-.861v-.274l-.627-.02-1.194.392-.627.1-.352-.294-1-1.469-.255-.587.1-.92.411-.92.509-.7.411-.274.078-.118.117-.509.059-.137.078-.059.255-.078.959-.7.294-.372-.607.059-.411.294-.392.078-1.684-2.173-.411-.94-.1-.353.078-.294.392-.1.274-.274-.039-.587-.157-.587-.1-.235.02-.529.059-.255.157-.157,1.371-.92-.157-.1-.078-.039-.059-.157-.274.294-.274.176-.215-.078-.176-.431-.607.45-.627.02-1.292-.254-1.664.431-.372.235-.47.235-1.566-.059-.49.215-.45.353-.842.92.078.1.059.157-.372.2-.235.411-.039.489.274.431-.313.294-.176.137-.157.059-.274-.059-.294-.392-.49-.2-.411-.372-.274-.078-.274.039-.176.157-.137.157-.176.137-.509.1-1.273-.157-.352.2-.333.352-.313.137-.352-.215.255-.333.039-.157-.078-.235.157-.176.352-.587,3.289-3.563.352-.2h.431l.431-.118.45-.215,1.88-1.351.47-.744,1.508-.92.2-.489.117-.666.1-1.566.078-.431.157-.137.157.078.059.255.078.255.2-.294.176-.431.039-.157.94-1.057.255-.176.411-.157.313-.411.489-.959.529-.607.607-.372.666-.157.724-.039.2.078.176.1.176.078.294-.2.489-.215.529-.117.8-.627,2.487-.959.764.02-.2-.7-.646-.685-.157-.45.411.059.431.137.392.274.274.353.45-.215.489.176.45.431.352.568.352.215h2.565l.9-.2,4.327-2.036h.94l.842.431.47.372.2.372.255.313,2.859,1.938.333.411.274.47.157.2.078-.157.02-.744h0V689.3l-.255-.45-.333-.587-.529-1.175-.8-1.077-.294-.568-.02-.588.255-.372.411-.235.959-.117.45-.176.822-.646.509.059.509.626,1.273,3.5.392.548.548.49.646.313.685-.02.02-.078.039-.157.078-.176.176-.1.2.02.333.176.157.039.372-.02.313-.1.627-.372-.117-.49.059-.352.176-.255.2-.215.2.1.2-.02.2-.137.2-.215-.333-.02-1.136.274-.255.137-.157.548-.392.2-.235-.059-.744-.078-.959-.391-.861-.627-.7-.783-.529-.842L210.5,679.1l-.117-.509.059-.509.274-.607,1.508-2.428,1.214-1.527.176-.137.2-.392.9-.626.274-.392-1.919-.059-.8-.352-.607-.92-.137-1.253.294-2.819-.255-1.057.352-.646.529-.313,2.036-.744.372-.039.294.235.176.078.078-.176.078-.215.176-.215.2-.137.157-.059-.235-.431.783-.783.1-.607-.392.274-.392.157-.685.059-.1-.1-.333-.822-.039-.294.157-.215.235-.176.2-.176.45-.8.313-.352.7-.294.255-.372.431-.979-.372-.568-.509-1.057-.313-.627-.078-.352.47-.176.509-.489.333-.646-.02-.724h-.157l-.1.568-.313.431-.666.529-.783.411-.411.313-.176.392-.176.548-.411.255-1,.078-.294-.255-.294-.548-.137-.607.215-.372-.157-.45-.2-.372-.235-.157-.294.137.078.529-.078.509-.137.49-.078.411-.1.294-.666.862-.392.764-.235.372-.607.313-.059.45.059.49-.02.45-.764-1.116-.2-.2-.352-.02-.313-.1-.255-.176-.215-.255.078-.587.137-.646v-.529l-.333-.294v-.255l.744-.215.215-1.1-.039-1.273.059-.764-.352.2-.2.392-.235.92.176.744-.333.157-.509-.039-.352.059-.47.176-.47-.49-.764-1.41-.646-.842-.274-.49-.1-.607.059-.294.1-.294.039-.333-.157-.548-.039-.372-.059-.1-.529-.274-.724-1.566-.509-.47-2-2.937-.352-.215-.1-.117-.215-.568-.215-.235.176-.294.235-.254.1-.1.49-1.292.646-2.917.783-1.684.333-.92.157-.313.176-.157.489-.176.235-.157.294-.372.352-.607.2-.724-.176-.626.744-2.193.45-1.018.529-.587.431-.117.235.215.235.274.352.137.235-.039.9-.45-.274-.235-1.077-.587.568-.587.333-.255,1.371-.372.274.078.157.137.117.157.157.117.8.294.431.059,1.821-.529.392-.255-1.488-.02v-.274l.411-.059.333-.2.333-.137.411.176v-.274l-.529-.235-.078.02h0l-1.84.47-6.872-.646-.372-.1-.333-.2-.313-.118-.313.118.059.1h.02l.02.039.039.137-.372.176-.333-.157-.607-.568-.313,1.018.157.431.1.744.02.783-.059.626-.255.607-.372.2-2.017-.255-.568.078-.489.783-1.527-.274.039.2h.02l.078.1-.2.137-.157-.059-.137-.137-.117-.235.255-.45.1.059.1.2-.02-.313-.039-.117-.078-.1-.274.411-.352.313.1.372.039.157-.137.02-.294.255.7.764-.215.157-1.136.49-1.743,1.253-1.038.117-.666-.059v-.274l-.078-.059-.078-.02-.059-.039-.059-.1.059-.117.059-.137.02-.02-.039-.392.1-.49-.039-.372-.294-.157v-.157l-.333.274-.274.529-.1.627.2.607-.862.117-1.1-.764-.724-1.312.235-1.488-.333.176-.548.666-.352.176-.313-.059-1.586-.822-.255-.215-.176-.255-.2-.568-.078-.392-.137-.255-.352-.1-.137.137-.176.392-.157.47-.078.411.176.862.157.568.137.255.352.039.313.078.274.215.255.352.059.47-.2.431-.117.431.294.568-.294.529.039.8.078.724-.157.294-.117.059-.117.176-.157.157-.235.078-.489-.078-.45-.235-.529-.431-.2-.1H180.6l-.2-.176-1.194-1.978-.685-.744-2.506-1.684-.979-.313-.45-.313-.352-1.057-.45-.235-.822-.02-.529.215-.509.352-.45.45-.352.47-.2.313-.1.215-.02.215-.02.274.02.313.1.45.157.411.215.176.137.411.215.9.313.9.607.587v.333l-.137.666-.02.352v.2l.255.626-.47-.137-.92-.548-.45-.137-.2-.274-.117-.607.039-.607.274-.333-.157-.235-.078-.255v-.255l.1-.274-.411-.059-.176-.078-.137-.137-.078-.352-.078-.509-.117-.49-.2-.215-.431-.235-1.958-2.584-.568-1.175-.333-1.351-.039-1.488.137-1.371.176-.666.313-.294.47.039.235-.02.117-.117.117-.431.2.215.2.431.078.2.294.548.137.372.1.372v.411l-.059.9.078.353.274.411.333.372.392.078.392-.411.078-.137.1-.117.02-.255-.7-1.625-.1-.352-.039-.313-.02-.039-.274-.764-.039-.45.059-.842.059-.255.117-.313.411-.9.176-.509.1-.764.215-.685.431-.411.9-.548,1.468-1.821.117-.1.215-.059.039-.118.02-.392.02-.176.548-1.253.1-.313.039-.372-.02-.822.039-.352.137-.235.744-.861.392-.313.176-.235.137-.352.215-.881.215-.411.7-.607,1.449-.626.548-.724.215-1.018-.157-.92-.489-.666-.764-.294.47-.685v-.02l-.059-.8-.431-.8-.607-.568-1.136-.568-.685-.059-.2-.157.176-.353.02-.274-1.194-.842-.666-.666-.392-.646.979-.959.352-.783-.039-1.292-.117-.45-.117-.333-.1-.392-.059-1.605v-.02l-.039-1.057.176-1,.333-.646.509-.392.666-.255.392-.078.294.059,1.312.685.352.078.255-.1.431.294,3.485.685.529-.333-2.291-.568-.822-.215-.9-.627-1.018-1.41-.842-.352-.372-.411-.313-.509-.215-.49-.235-1.135v-.2l-.313-.1-.117.294v.372l.117.47.94,1.547.215.685-.157.294-.392.059-.509-.02-.489-.235-.215-.548-.039-.685.02-1.449.039-.294.9-2.134,1.586-2.33.117-.529-.1-.176-.235.176-.294.392-1.312,2.467-.333.431h-.45l-.137-.313.078-1.135-.059-.509-.2-.411-.274-.1-.294.333.215.685.235,1.312.137,1.312-.078.587-.274.1-.059.274.059.744-.039.744.02.509.1.431-.294.137-.313-.1-.333-.215-.352-.117-.02.254.255.137.274.215.215.294.078.45-.1.529-.215.372-.255.294-.2.313-.117.431-.078.372-.1.353-.215.372-.313.313-.235.039-.666-.176-.313-.431-.255-.959-.157-1.077-.059-.744-.783-1.175-.1-.47-.157-.333-.352.255.313.626.7,2.1.117.8-.2.372-.392-.157-1.331-1.234-.176-.47.039-.783-.215.274-.215.49-.157.529-.059.372-.117.274-.666.881.45,1.1.2.568.117.685-.392-.02-.9-.587-.7-.294-.2-.313-.1-.94-.117-.137-.157-.1-.157-.2-.059-.255v-.352l.059-.7.059-.294.235-.392.059-.333-.02-.333-.215-1.116.548-.587,2.487-3.9,1.253-.45.9-.666.215-.2.822-1.684.352-.47.646-.411.822-.313.744-.509.45-.979-.372.235-.822.842-.352.176h-.861l-.352.157-.333.294-.255.45-.568,1.273-.215.274-2.585,1.586-1.86,2.6-.2.118h-.372l-.176.117v.2l-.137.529-.137.45-.059-.059-.215.411-.47.117-.529-.078-.392-.137-.02-.2.02-.333-.039-.235-.157.078-.078.176-.02.255v.235l-.255,2.017.078.078.313.2.117.039.176.764.059.45v.352l.059.274.235.274-.02.235H163l-.02.255.078.059.215.2-.117.059-.1.137-.1.059,1.1,1.331.49.92.137.959-.176.529-.313.215-.724.2-.333.215-1.018,1.038-.255.333-.215.411-.176.45-.078.333-.1.646-.059.294-.47.352.039.137.078.2.039.1.215,1.547.176.235.255.078.137.372-.157.509-.352.117-.255.2.1.724-.489.862-.157.372-.039.176-.02.724-.039.294-.078.02-.1-.059-.1.078-.529,1.234-.372.49-.509.274-.02.235.274-.039.215.1.176.215.176.294.313.861v.157l.235.255-.235.568-.764.959-.372.352-.45.313-.489.235-.509.059-.2-.059-.411-.235-.255-.039-.235.078-.509.352-.255.059-.627-.059-.372-.157-.2-.47-.157-1.625v-.842l.157-.744.627-.45.862-.94.235-.352.059-.783-.059-.862.02-.842.352-1.077-.078-.294-.117-.255-.059-.255.1-.411.568-1.1.509-1.312.117-.744-.215-.548,1.194-.92.176-.411.157-.509.352-.626.392-.548.294-.215.627-.215.764-.666.7-.94.45-1.116-2.173,2.232-.783.587-.255.1-.274-.02.176-.49-.568-.235-.274-.2-.274-.392-.137-.529.02-1-.1-.313.959-1.312.137-.294.157-.489.333-.372.392-.352.333-.411-.489.235-.764.8-.568.274-.392.372-.2-.02-.137-.255-.117-.431-.02-.431,2.487-3.485.2-.45-.078-.176.137-.137.117-.176-.255-.137-.274.118-.294.235-.352.2-.157.685-.959,1-.02.842-.392.666-.078.117-.2-.1-.059-.215.039-.255.1-.235.176-1,.842-1.488,1.7-2.232.078-.137.039-.157.059-.157.137-.059.137.039.157.1.117.1v.039l.059.078.176.117.157.039.039-.215-.078-.255-.137-.137-.117-.1-.059-.059-.1-.607-.02-.333.1-.235.724-1.038.157-.313.157-.509-.646.157-.509.548-.45.626-.509.372.176-.783.313-.764.392-.7.411-.568-.157-.529.274-.392.47-.235.411-.078.235-.137.059-.274-.117-.255-.274-.157-.881.235-.2.137-.215.215-.215.176-.215-.039-.1-.353.078-.411.274-.764.333-1.41.235-.47.411-.431.372.255.568-.02,1.077-.392.02-.235-.509.02-.92.255-.45-.137.489-1.214.176-.294.235-.137.274-.118.176-.157-.078-.333.568-.725.7-.294,2.115-.078,1.664.548.7-.137.568-.47,1.41-1.723.744-1.527.47-.587-.47.235-.294.548-.255.646-.333.568-.881.724-.529.783-.235.215-.881.078-2.193-.627-.607.49-.333-.255-.255-1.469-.294.118-.255.313-.431.8-.274-.255.822-1.762.157-.529.47.509.489.235h.47l.392-.137,1.018-.724.548-.235.274-.176.235-.313-.724.411-.235.039-.411-.039-.078.02-.352.255-.235.078-.47.352-.255.059-.255-.137-.313-.391-.274-.059.078-.274.078-.118.1-.1.137-.137.1-.176.078-.313.059-.137.587-1,.2-.255.881-.724.157-.255.137-.235-.392-.294.02-.274.176-.117.489-.372.529.1.274-.039.627-.509.47.02.881.313.431-.1.842-.529,1.684-.294.372-.235-3.446.587-1.566-.842v-.235l.235-.509.137-.176,1.468-1.469.411-.607.372-.7-1.273,1.038-.2.294-.1.235-.235.2-.255.137-.215.059-.176.117-.1.274-.059.333-.078.294-.294.548-.294.313-.313.1-.372.02-.176.059-.215.333-.45.137-.176.2-.255.45-.627.724-.333.2-.431.078-.215.157-.333.666-.215.157-.255.059-.255.176-.235.274-.9,1.214-1.468,1.566-1.468,1.1-.137.039-.176-.157-.215-.509-.215-.137-.333-.1-.392-.176-.352-.274-.235-.313.333-.587.1-.294.059-.372h-.157l-.822,1.038-1.253-.333-2.937-2.741-.117-.313.059-.587.235-.294.313-.078,1.038-.02.7.176.646.392.548.587.176-.274-.47-.431-.2-.274.02-.372,2.271-1.371.509-.02,1.273.744.509.137,1.116-.039.607-.137.45-.255-1.938.157-.45-.1-1-.724-.842-.274-2.33,1.136-.783.2-.215-.02-.255-.137-.45-.352-.274-.078-1.449.039-1.488-.529-.529.039-.431.372-.392.235-.509-.157-.45-.313-.255-.274-.1-.215-.078-.215-.039-.215v-.255l.059-.372h.1l.137.078.157-.078.49-.685.274-.215,3.191-.137.255-.118.744-.49.313-.1.352.1.2.255.176.274.294.255,1.057.548.176.157v-.411l-.078-.411-.2-.294-.372-.059.02-.274.255-.039.255.039.235.137.215.2.313-.372.47-.117.509.176.411.137-1.508-.862-.372-.509.02-.392.294-.294,2.154-.176.861-.333.7-.646-.255-.157-.392.02-.352.176-.352.607-.411-.039-.8-.255.2-.372.881-.862-.92-.235-1.958.333-.94-.313.7-.137h.724l.02-.274-.137-.117-.392-.45.392-.431.274-.764.235-.881.274-.724.392-.45.607-.372.646-.2.529.118.176.235.372.764.215.313.274.255.313.176.666.137,1.136-.2,1-.47.02-.255-.352.1-.333.176-.313.1-.274-.176-.47.294-.431-.137-.411-.333-.411-.176-.294-.235.1-.47.059-.529-.431-.352-.2.039-.431.157-.215.02-.2-.1-.333-.352-.215-.1-.215-.294.352-.587.92-1.077.255-.411.157-.137h.255l.607.1.215-.176.372-.2.509.235.822.7.411.255,2.017.117.1-.117.157-.274h.352l.333.118.137.078h.137l.02-.274-.392-.274-1.723.215-.489.157-.274.039-.118.118-.489-.685-.215-.255-1.684-.607-.235-.411.176-.627.764-1.018.294-.49-.352-.646.529-.7.881-.49.7-.117.627.529.607.822.666.548.8-.215.02-.255-.842-.255-.176-.176-.274-.548-.2-.274-.2-.117-.176-.274.294-.548.529-.509.509-.157.02-.274-.49-.235-.352.294-.274.45-.255.215-.352.1-.744.47-.411.117-.411-.1-.764-.392-.392-.117-.9.235-.411-.039-.157-.529.1-.137.529-1.116.176-.176.47-.255.176-.176.2-.157.137.176.1.235.1.137.47-.059,2.33-.959.959-.822.235-1.038-.333-.118-.568.548-1,1.253-.548.372-.47-.1-.47-.255-.587-.117.509-.294.176-.255-.02-.333-.137-.47-.02-.235h-.1l-.333.313-1.468,1.743-.529.235-1.057.1-.45-.274-.255-1.488.059.02.1-.039.1-.117.039-.117-.039-.137-.176-.294-.02-.117.02-.509.078-.255.235-.215-.215-.157-.627-.215-.137-.078-.02-.431-.157-.646-.02-.49.078-.274.313-.607.1-.235.059-.529.02-.49.1-.274.313.02-.039-.2-.039-.431-.039-.157.372-.137.352.1.333.255,1.018,1.194.333.274.176-.157.313.568.176.157.587.45.215.078-.1-.215-.059-.215-.039-.2-.059-.157,1.468-.176.822.176h.47l.1-.235-.587-.568-.9-.255-.9.078-.587.49-.646-.861.117-.117.2-.372-.666-.176-.313-.607-.215-.764-.333-.627-.313-.137-.313-.059-.235-.176-.078-.47.137-.431.431-.45-.1-.352.02-.274.764-.372h.372l.548.7.255-.039.235-.274.176-.411-.215-.059-.137-.215-.117-.235-.176-.274-.235-.157-1.645-.489-.039-.392.157-.979v-.45l.059-.294-.137-.783v-.47l.1-.392.176-.372.235-.294.274-.215.509-.176.529.039.509.2.47.352-.1.509.02.744.1.783.117.548.176.411.255.294.294.176h.333l-.137-.176-.078-.2-.137-.47.255.02.2.059.352.254-.1-.724.117-.529.059-.49-.235-.587-.724-.764-.235-.45.235-.352-.157-.059-.059-.078-.039-.137.215-.333.489-.607.176-.294.274.392.215.157.724.039-.157,1.018.529.8.8.49.646.1-.117-.255.255-.313.294-1.057.215-.392.255.02.881.45.274.274.529.7.646.45,1.429.627-.274-.529-.215-.235-.568-.313-.822-.959-1.253-.646-.157-.176-.02-.215-.039-.1v-.1l.1-.255.117-.02.137.176.137.039.137-.431.372.255.529.861.431.255.235-.02.392-.176.215-.039.235.1.431.352.2.078.255.176.7.764.822.431.529,1.077.392.274-.117-.2-.117-.352-.1-.372-.039-.255-.1-.255-1.919-1.84-.489-.157.02-.274.392.02.176-.274-.02-.411-.157-.489-.235-.215-.646-.157-.274-.294-.587-.2-.764-1.1-.509-.117.039-.1.02-.039.1-.1-.274-.431-.392-.157h-.822l.078-.157.039-.137.059-.117.117-.117.02-.255-.607-1.253.411-.49.744.274.431,1,.45-.352.411.176.431.059.509-.587h-.117l.117-.372v-.352l-.078-.313-.117-.255.274.02.02-.255-.392-.294.274-.2.568-.117.274-.117.02-.274h-.646l-.313-.078-.274-.215.157-.235-.137-.2-.157-.176-.176-.1-.2-.078.059-.176.078-.431.059-.157-.255-.02-.2-.157-.842-1.468.039-.627.333-.1.45.235.8.627.333.117.333-.078.8-.489.431-.117.431.059.392.372.176-.274.274-.235L173.1,501l.176-.039.352.137.587.548.255.157,1-.039.294.1,1.312,1.077-.176-.372-.215-.274-.529-.411.274-.215.568-.078.274-.176-1.234-.333h-.392l-.157.078-.235.313-.215.078-.2-.1-.392-.372-.215-.078-.294-.215-.548-.92-.2-.215-.02-.137-.352-.568-.078-.078-.137-.49-.059-.274-.039-.274.392.02-.176-.411.039-.372.157-.372.215-.392.02-.176-.02-.255v-.215l.078-.1.137.059.255.176.117.02,1.1.861h.822l-.529-.47-.176-.274.078-.294-.117-.294-.2.2-.215.078-.215.02-.215-.059.02-.274.2.039.059-.02.02-.255-.137-.039-.078-.078-.176-.2,1.116-.607.47.255.568.45-2-2.036.02-.685.059-.333.157-.176,1.077-.568.313-.313.255-.568h-.137l.2-.764.117-.764.157-.646.352-.372,2.506.666.45.313.333.489v.215l.078.587.1.509.059-.039-.039.411-.059.333-.1.274-.137.274.372-.274.176-.352.059-.392.02-.392.1-.529.176-.235.117-.274-.078-.627.333.313.568.842.313.176.529.47.255.078.2.157v.313l-.1.352-.1.235-.235.294-.724.666-.392.92-.411.7-.2.509.372-.059,1.214-1.253.2-.117.157-.568.333-.235.411-.176.372-.352.235-.646.137-.666.215-.529.489-.2.842.2.822.411.94.764-.02.274-.039.137-.02.02.039.372-.489.529-.313.685-.274.764-.372.8.333-.137.352-.333.568-.764.039-.137-.02-.2v-.137l.078-.059.078-.039.822-.842.059-.1.783-.509.548-.235.2-.02.392.157.568.587.45.137-.274-.294.215-.157.117-.215.1-.235.137-.137.235-.02.372.2.274.059.176-.117.157-.49.235-.117.744.02.411.157h.176l.235-.137.176-.274.274-.627.176-.117.176-.039.039-.039.02.1.352.764.1.1.45-.078,1.664.333,1.7-.235.861-.372,1.371-1,.764-.352,1.234-.2.627.039.431.215-.2.215-.078.039.47.45.548-.039,1.136-.372,1.077.529.529-.02.274-.744-.333-.137-.352-.294-.313-.372-.2-.509.45-.587.294-.2.333.078.078.215.039.352Z" transform="translate(1334 2235.948)"/>
    <path id="Path_60" data-name="Path 60" class="cls-2" d="M19.024,3.347A10.616,10.616,0,0,0,11.1,0a10.51,10.51,0,0,0-7.75,3.347A10.51,10.51,0,0,0,0,11.1c0,3.171,1.938,6.87,3.7,10.217.528,1.057,1.057,1.938,1.409,2.818l5.108,10.745c.176.176.352.352.528.352a1.011,1.011,0,0,0,1.233-.352l5.108-10.745c.352-.881.881-1.761,1.409-2.818,1.761-3.347,3.7-7.046,3.7-10.217A9.749,9.749,0,0,0,19.024,3.347ZM14.972,14.972A5.047,5.047,0,0,1,11.1,16.734a5.336,5.336,0,0,1-3.875-1.761A5.588,5.588,0,0,1,5.637,11.1,5.179,5.179,0,0,1,7.222,7.222,5.179,5.179,0,0,1,11.1,5.637a5.588,5.588,0,0,1,3.875,1.585A5.179,5.179,0,0,1,16.558,11.1,4.41,4.41,0,0,1,14.972,14.972Z" transform="translate(1517.023 2779)"/>
  </g>
</svg>
