<svg xmlns="http://www.w3.org/2000/svg" viewBox="0 0 589.61 146.59"><defs><style>.cls-1{fill:#fff;}</style></defs><title>mono-reverse-logo</title><g id="uos-logo"><path class="cls-1" d="M5.09,94.37c0-9,8.47-15.84,21.43-15.84,6.27,0,12.86,1.67,16.73,5.11a6.14,6.14,0,0,1,2.19,5.11c0,3-1.67,5.94-4.18,5.94-1.57,0-2.92-1.25-4.49-2.71a17.31,17.31,0,0,0-11.5-5c-4.6,0-8,2.18-8,5.94,0,12.5,30.73,11.25,30.73,31.88a17.24,17.24,0,0,1-5.33,12.93c-4.18,4.06-11,6-17.77,6S11.47,142,6.76,138.35a5.94,5.94,0,0,1-2.41-5.21c0-2.92,1.68-5.94,4.29-5.94,3.66,0,6.59,8.13,17,8.13,5.44,0,10.15-2.81,10.15-9.07,0-14-30.74-12.09-30.74-31.89" transform="translate(-4.35 -6.77)"/><path class="cls-1" d="M104.1,79.16c1.26,0,1.68.31,1.68,1.56v5.11c0,1.14-.42,1.56-1.68,1.56H96.26c-5.12,0-8.15-.1-10-.31v46.48c0,6.77,3.55,5.84,3.55,7.92,0,1.35-1.57,1.67-7.32,1.67h-4.6c-5.75,0-7.32-.32-7.32-1.67,0-2.08,3.56-1.15,3.56-7.92V87.08c-1.88.21-4.92.31-10,.31H56.22c-1.25,0-1.67-.42-1.67-1.56V80.72c0-1.25.42-1.56,1.67-1.56Z" transform="translate(-4.35 -6.77)"/><path class="cls-1" d="M130.77,133.56c0,6.77,3.56,5.84,3.56,7.92,0,1.35-1.57,1.66-7.32,1.66h-4.6c-5.75,0-7.32-.31-7.32-1.66,0-2.08,3.55-1.15,3.55-7.92V88.75c0-6.78-3.55-5.84-3.55-7.92,0-1.36,1.57-1.67,7.32-1.67H127c5.75,0,7.32.31,7.32,1.67,0,2.08-3.56,1.14-3.56,7.92Z" transform="translate(-4.35 -6.77)"/><path class="cls-1" d="M166.32,86.66h-3.45v24.49c14.43,0,19-4.69,19-12.61,0-9.38-6.37-11.88-15.58-11.88m15.06,29.39,13.9,18.24a21.47,21.47,0,0,0,6.59,6c.63.42.84.73.84,1.25,0,1.46-3.24,1.57-8.57,1.57-6,0-7.22-.84-10-4.59l-15.16-20h-6.07v15c0,6.77,3.56,5.84,3.56,7.92,0,1.35-1.57,1.67-7.32,1.67h-4.6c-5.75,0-7.32-.32-7.32-1.67,0-2.08,3.56-1.15,3.56-7.92V88.74c0-6.77-3.56-5.83-3.56-7.91,0-1.36,1.57-1.67,7.32-1.67h8.36c9.73,0,16.42.93,20.71,2.81,6.06,2.71,10.87,7.51,10.87,16.26,0,9.8-4.81,14.7-13.07,17.82" transform="translate(-4.35 -6.77)"/><path class="cls-1" d="M251.54,134.91c1.26,0,1.67.32,1.67,1.57v5.1c0,1.15-.41,1.56-1.67,1.56H218.92c-5.75,0-7.32-.31-7.32-1.66,0-2.09,3.56-1.15,3.56-7.92V88.75c0-6.78-3.56-5.84-3.56-7.93,0-1.35,1.57-1.66,7.32-1.66h4.6c5.75,0,7.32.31,7.32,1.66,0,2.09-3.56,1.15-3.56,7.93v46.48c1.89-.21,4.92-.32,10-.32Z" transform="translate(-4.35 -6.77)"/><path class="cls-1" d="M279.46,133.56c0,6.77,3.56,5.84,3.56,7.92,0,1.35-1.57,1.66-7.32,1.66h-4.6c-5.75,0-7.32-.31-7.32-1.66,0-2.08,3.56-1.15,3.56-7.92V88.75c0-6.78-3.56-5.84-3.56-7.92,0-1.36,1.57-1.67,7.32-1.67h4.6c5.75,0,7.32.31,7.32,1.67,0,2.08-3.56,1.14-3.56,7.92Z" transform="translate(-4.35 -6.77)"/><path class="cls-1" d="M342.62,121.89V88.74c0-6.77-3.56-5.83-3.56-7.91,0-1.36,1.57-1.67,7.32-1.67h1.78c5.75,0,7.31.31,7.31,1.67,0,2.08-3.55,1.14-3.55,7.91v52.53c0,1.35-.63,1.88-3.66,1.88h-.63c-2.71,0-3.13-.32-4.28-1.77l-30.11-38c-1.47-1.88-3.24-4.17-4.29-5.63h-.21v35.85c0,6.77,3.56,5.84,3.56,7.92,0,1.35-1.57,1.67-7.32,1.67H303.2c-5.75,0-7.32-.32-7.32-1.67,0-2.08,3.56-1.15,3.56-7.92V88.74c0-6.77-3.56-5.83-3.56-7.91,0-1.36,1.57-1.67,7.32-1.67h.63c5,0,5.64.93,8.68,4.69l25.61,32.41c1.46,1.87,3.24,4.17,4.29,5.63Z" transform="translate(-4.35 -6.77)"/><path class="cls-1" d="M397.41,87.18c-9,0-17.57,7.4-17.57,23.35,0,17.5,7.53,24.9,19.87,24.9a24,24,0,0,0,9.1-1.77V121.57c0-3.75-.74-4.9-2.51-6.25-.84-.63-1.05-.94-1.05-1.56,0-1.46,2.09-1.77,7.53-1.77h1.67c5.54,0,6.06.31,6.06,2.6V134.7a4.58,4.58,0,0,1-2.71,4.59c-5.34,2.92-12.34,4.48-19.45,4.48-20.59,0-31.05-12.3-31.05-32.41,0-19.49,11.08-32.83,30.32-32.83,8.05,0,14.74,2.09,18.3,5.22a6.68,6.68,0,0,1,2.4,5.52c0,3.23-1.78,6-4.5,6-4.7,0-6.37-8.13-16.41-8.13" transform="translate(-4.35 -6.77)"/><path class="cls-1" d="M593.94,87.17h0V6.77H466.5v80.4h0a12.49,12.49,0,0,0,0,1.56,29.58,29.58,0,0,0,.75,5.07,45.48,45.48,0,0,0,3.71,10c.37.74.78,1.51,1.21,2.29a70.73,70.73,0,0,0,6.62,9.72c.42.51.84,1,1.29,1.55a94,94,0,0,0,7.29,7.69c.77.72,1.56,1.45,2.38,2.19,9.3,8.31,22.3,17.24,40.47,26.07,18.17-8.83,31.17-17.76,40.47-26.07.82-.74,1.62-1.47,2.38-2.19a95.93,95.93,0,0,0,7.3-7.69c.44-.52.87-1,1.28-1.55a69,69,0,0,0,6.62-9.72c.43-.78.84-1.55,1.21-2.29a45.48,45.48,0,0,0,3.71-10,29.58,29.58,0,0,0,.75-5.07A12.56,12.56,0,0,0,593.94,87.17ZM494.4,127.32a100.14,100.14,0,0,1-11.93-11.77,8.13,8.13,0,0,1,5.3-1.74c3.18,0,4.69,1.21,6.44,2.63s3.82,3.08,7.71,3.08a11,11,0,0,0,7.71-3.08,9.57,9.57,0,0,1,4.87-2.52v11.27a11.41,11.41,0,0,0-6.14,3c-1.75,1.41-3.26,2.63-6.44,2.63s-4.69-1.22-6.44-2.63C495.14,127.89,494.78,127.6,494.4,127.32ZM530.22,150a194.31,194.31,0,0,1-28.83-17.19h.53a11,11,0,0,0,7.71-3.08,9.73,9.73,0,0,1,4.87-2.52v5.61l.47.29c2.75,1.74,5.42,1.46,8,1.18,2.34-.25,4.56-.48,6.71.88l.54.34.54-.34c2.15-1.36,4.37-1.13,6.71-.88,2.58.28,5.25.56,8-1.18l.47-.29v-5.61a9.61,9.61,0,0,1,4.87,2.52,11,11,0,0,0,7.71,3.08h.53A194.31,194.31,0,0,1,530.22,150Zm-13.69-18.31V111.8h0a9.41,9.41,0,0,0,3.25.6,23.92,23.92,0,0,0,3.18-.21c2.17-.23,4.23-.44,6.24.61v19.89a9.47,9.47,0,0,0-3-.6h-.54a28.25,28.25,0,0,0-2.92.21C520.59,132.52,518.53,132.74,516.53,131.68Zm14.7,1V112.8c2-1,4.07-.84,6.24-.61a24.07,24.07,0,0,0,3.19.21,9.36,9.36,0,0,0,3.24-.6h0v19.88c-2,1.06-4.07.84-6.24.61a23.39,23.39,0,0,0-3.46-.19A9.18,9.18,0,0,0,531.23,132.69ZM566,127.35c-.36.27-.7.55-1,.82-1.75,1.41-3.26,2.63-6.44,2.63s-4.69-1.22-6.44-2.63a11.49,11.49,0,0,0-6.14-3V113.92a9.53,9.53,0,0,1,4.87,2.52c1.79,1.44,3.82,3.08,7.71,3.08a11,11,0,0,0,7.71-3.08c1.75-1.42,3.26-2.63,6.44-2.63a8.13,8.13,0,0,1,5.3,1.74A100.77,100.77,0,0,1,566,127.35Zm18.2-20.27a68.57,68.57,0,0,1-4.94,6.91,10.25,10.25,0,0,0-6.59-2.2c-3.89,0-5.92,1.64-7.71,3.08s-3.26,2.63-6.44,2.63-4.69-1.22-6.44-2.63a11.41,11.41,0,0,0-6.14-3v-3.56l-1,.61-.6.37c-2.15,1.37-4.36,1.13-6.7.88s-4.9-.52-7.46.86c-2.56-1.38-5.05-1.12-7.46-.86s-4.55.49-6.7-.88l-.6-.37-1-.61v3.56a11.48,11.48,0,0,0-6.14,3c-1.75,1.41-3.26,2.63-6.44,2.63s-4.69-1.22-6.44-2.63a11,11,0,0,0-7.71-3.08,10.33,10.33,0,0,0-6.59,2.2,70.19,70.19,0,0,1-4.94-6.91c-.21-.34-.41-.68-.61-1a11.61,11.61,0,0,0,5.7-2.92c1.75-1.41,3.26-2.63,6.44-2.63s4.69,1.22,6.44,2.63a11.19,11.19,0,0,0,15.42,0c1.75-1.41,3.26-2.63,6.44-2.63s4.69,1.22,6.44,2.63a11.19,11.19,0,0,0,15.42,0c1.75-1.41,3.26-2.63,6.44-2.63s4.69,1.22,6.44,2.63a11.19,11.19,0,0,0,15.42,0c1.75-1.41,3.26-2.63,6.44-2.63s4.69,1.22,6.44,2.63a11.69,11.69,0,0,0,5.7,2.92C584.61,106.4,584.41,106.74,584.2,107.08Zm6.71-19.91v1.46a26.88,26.88,0,0,1-.6,4.19,44.19,44.19,0,0,1-4.42,11.35c-2.56-.22-3.94-1.33-5.51-2.59a11.19,11.19,0,0,0-15.42,0c-1.75,1.41-3.26,2.63-6.44,2.63s-4.69-1.22-6.44-2.63a11.19,11.19,0,0,0-15.42,0c-1.75,1.41-3.26,2.63-6.44,2.63s-4.69-1.22-6.44-2.63a11.19,11.19,0,0,0-15.42,0c-1.75,1.41-3.26,2.63-6.44,2.63s-4.69-1.22-6.44-2.63a11.19,11.19,0,0,0-15.42,0c-1.57,1.26-2.95,2.37-5.51,2.59a43.71,43.71,0,0,1-4.41-11.35,26.07,26.07,0,0,1-.61-4.2V80.4a3.84,3.84,0,0,1,7.67,0V92.79h11.29V77.88a3.83,3.83,0,0,1,7.66,0V92.79h11.29V75.36a3.83,3.83,0,0,1,7.66,0V92.79h11.29v-20a3.83,3.83,0,0,1,7.66,0v20h11.29V75.36a3.83,3.83,0,0,1,7.66,0V92.79h11.29V77.88a3.83,3.83,0,0,1,7.66,0V92.79h11.29V80.4a3.84,3.84,0,0,1,7.67,0Zm0-12.45a6.87,6.87,0,0,0-10.7,5.68v9.37H575V77.88a6.87,6.87,0,0,0-13.73,0V89.77H556V75.36a6.87,6.87,0,0,0-13.73,0V89.77h-5.23V72.84a6.86,6.86,0,0,0-13.72,0V89.77h-5.23V75.36a6.86,6.86,0,0,0-13.72,0V89.77h-5.23V77.88a6.87,6.87,0,0,0-13.73,0V89.77h-5.22V80.4a6.87,6.87,0,0,0-10.7-5.68V71.6a122.44,122.44,0,0,1,121.38,0Zm-66.4-52.41c.73-.06,1.48-.11,2.3-.15l1.44-.07V19.26c1.34,0,2.57,0,3.92,0v2.83l1.44.07c.84,0,1.6.09,2.31.15l1.64.14v-3c1.38.08,2.77.19,4.16.32v8.43c-3.84-.3-7.7-.45-11.5-.45s-7.66.15-11.51.45V19.78c1.39-.13,2.78-.24,4.16-.32v3Zm-4.84,8.86c3.52-.25,7.06-.38,10.55-.38s7,.13,10.54.38l-1.55,3,2.29,18.56c-3.76-.33-7.54-.5-11.28-.5h0c-3.74,0-7.53.17-11.29.5l2.28-18.57ZM590.91,68.7a123,123,0,0,0-46.22-14.89l-2.35-19.08L544.75,30v-13l-1.35-.14c-2.44-.26-4.89-.44-7.29-.55l-1.58-.08h0l-.8,0c-1.25,0-2.39-.05-3.51-.05s-2.29,0-3.53.05l-.79,0h0l-1.59.08c-2.39.11-4.84.29-7.27.55l-1.36.14V30l2.41,4.69-2.34,19.09A123,123,0,0,0,469.53,68.7V9.79H590.91Z" transform="translate(-4.35 -6.77)"/><path class="cls-1" d="M561.19,43.91c2.34-.25,4.55-.49,6.7.87l.55.35.54-.35c2.15-1.36,4.36-1.12,6.7-.87,2.58.27,5.25.56,8-1.18l.47-.3V18l-1.55,1c-2.15,1.36-4.36,1.12-6.7.88s-4.91-.53-7.46.86c-2.56-1.39-5.05-1.12-7.47-.86s-4.55.48-6.7-.88l-1.55-1V42.43l.47.3C555.94,44.47,558.61,44.18,561.19,43.91Zm8.26-21.49c2-1.06,4.06-.84,6.23-.61a13.31,13.31,0,0,0,6.45-.4V41.3c-2,1.06-4.06.84-6.23.6a13.31,13.31,0,0,0-6.45.4Zm-14.71-1a13.31,13.31,0,0,0,6.45.4c2.17-.23,4.23-.45,6.23.61V42.3a9.77,9.77,0,0,0-3.52-.6,28.45,28.45,0,0,0-2.93.2c-2.17.24-4.22.46-6.23-.6Z" transform="translate(-4.35 -6.77)"/><path class="cls-1" d="M556.56,26.29a6.53,6.53,0,0,0,4.53.67,5.4,5.4,0,0,1,3.72.48.61.61,0,0,0,.34.1.62.62,0,0,0,.53-.29.63.63,0,0,0-.19-.87,6.53,6.53,0,0,0-4.53-.67,5.4,5.4,0,0,1-3.72-.48.63.63,0,1,0-.68,1.06Z" transform="translate(-4.35 -6.77)"/><path class="cls-1" d="M556.56,31.81a6.53,6.53,0,0,0,4.53.67,5.4,5.4,0,0,1,3.72.48.61.61,0,0,0,.34.1.62.62,0,0,0,.53-.29.63.63,0,0,0-.19-.87,6.53,6.53,0,0,0-4.53-.67,5.4,5.4,0,0,1-3.72-.48.63.63,0,1,0-.68,1.06Z" transform="translate(-4.35 -6.77)"/><path class="cls-1" d="M561.09,38a5.35,5.35,0,0,1,3.72.49.69.69,0,0,0,.34.09.62.62,0,0,0,.53-.29.63.63,0,0,0-.19-.87,6.53,6.53,0,0,0-4.53-.67,5.4,5.4,0,0,1-3.72-.48.63.63,0,1,0-.68,1.06A6.53,6.53,0,0,0,561.09,38Z" transform="translate(-4.35 -6.77)"/><path class="cls-1" d="M575.78,38a6.53,6.53,0,0,0,4.53-.67.63.63,0,0,0-.68-1.06,5.4,5.4,0,0,1-3.72.48,6.58,6.58,0,0,0-4.53.67.63.63,0,0,0-.19.87.62.62,0,0,0,.53.29.69.69,0,0,0,.34-.09A5.35,5.35,0,0,1,575.78,38Z" transform="translate(-4.35 -6.77)"/><path class="cls-1" d="M571.72,33.06a.61.61,0,0,0,.34-.1,5.4,5.4,0,0,1,3.72-.48,6.53,6.53,0,0,0,4.53-.67.63.63,0,0,0-.68-1.06,5.4,5.4,0,0,1-3.72.48,6.53,6.53,0,0,0-4.53.67.63.63,0,0,0-.19.87A.62.62,0,0,0,571.72,33.06Z" transform="translate(-4.35 -6.77)"/><path class="cls-1" d="M571.72,27.54a.61.61,0,0,0,.34-.1,5.4,5.4,0,0,1,3.72-.48,6.53,6.53,0,0,0,4.53-.67.63.63,0,0,0-.68-1.06,5.4,5.4,0,0,1-3.72.48,6.53,6.53,0,0,0-4.53.67.63.63,0,0,0-.19.87A.62.62,0,0,0,571.72,27.54Z" transform="translate(-4.35 -6.77)"/><path class="cls-1" d="M485.24,43.91c2.34-.25,4.55-.49,6.7.87l.54.35.55-.35c2.15-1.36,4.36-1.12,6.7-.87,2.58.27,5.25.56,8-1.18l.47-.3V18l-1.55,1c-2.15,1.36-4.37,1.12-6.71.88s-4.9-.53-7.46.86c-2.55-1.39-5-1.12-7.46-.86s-4.55.48-6.7-.88l-1.55-1V42.43l.47.3C480,44.47,482.66,44.18,485.24,43.91Zm8.25-21.49c2-1.06,4.07-.84,6.24-.61a13.32,13.32,0,0,0,6.45-.4V41.3c-2,1.06-4.06.84-6.24.6a13.32,13.32,0,0,0-6.45.4Zm-14.7-1a13.31,13.31,0,0,0,6.45.4c2.17-.23,4.23-.45,6.23.61V42.3a9.77,9.77,0,0,0-3.52-.6,28.45,28.45,0,0,0-2.93.2c-2.17.24-4.23.46-6.23-.6Z" transform="translate(-4.35 -6.77)"/><path class="cls-1" d="M480.61,26.29a6.53,6.53,0,0,0,4.53.67,5.4,5.4,0,0,1,3.72.48.61.61,0,0,0,.34.1.62.62,0,0,0,.53-.29.63.63,0,0,0-.19-.87,6.53,6.53,0,0,0-4.53-.67,5.4,5.4,0,0,1-3.72-.48.63.63,0,1,0-.68,1.06Z" transform="translate(-4.35 -6.77)"/><path class="cls-1" d="M480.61,31.81a6.53,6.53,0,0,0,4.53.67,5.4,5.4,0,0,1,3.72.48.61.61,0,0,0,.34.1.62.62,0,0,0,.53-.29.63.63,0,0,0-.19-.87,6.53,6.53,0,0,0-4.53-.67,5.4,5.4,0,0,1-3.72-.48.63.63,0,1,0-.68,1.06Z" transform="translate(-4.35 -6.77)"/><path class="cls-1" d="M485.14,38a5.35,5.35,0,0,1,3.72.49.69.69,0,0,0,.34.09.62.62,0,0,0,.53-.29.63.63,0,0,0-.19-.87,6.53,6.53,0,0,0-4.53-.67,5.4,5.4,0,0,1-3.72-.48.63.63,0,1,0-.68,1.06A6.53,6.53,0,0,0,485.14,38Z" transform="translate(-4.35 -6.77)"/><path class="cls-1" d="M499.83,38a6.53,6.53,0,0,0,4.53-.67.63.63,0,0,0-.68-1.06,5.4,5.4,0,0,1-3.72.48,6.53,6.53,0,0,0-4.53.67.63.63,0,0,0-.19.87.62.62,0,0,0,.53.29.69.69,0,0,0,.34-.09A5.35,5.35,0,0,1,499.83,38Z" transform="translate(-4.35 -6.77)"/><path class="cls-1" d="M495.77,33.06a.61.61,0,0,0,.34-.1,5.4,5.4,0,0,1,3.72-.48,6.53,6.53,0,0,0,4.53-.67.63.63,0,0,0-.68-1.06,5.4,5.4,0,0,1-3.72.48,6.53,6.53,0,0,0-4.53.67.63.63,0,0,0-.19.87A.62.62,0,0,0,495.77,33.06Z" transform="translate(-4.35 -6.77)"/><path class="cls-1" d="M495.77,27.54a.61.61,0,0,0,.34-.1,5.4,5.4,0,0,1,3.72-.48,6.53,6.53,0,0,0,4.53-.67.63.63,0,0,0-.68-1.06,5.4,5.4,0,0,1-3.72.48,6.53,6.53,0,0,0-4.53.67.63.63,0,0,0-.19.87A.62.62,0,0,0,495.77,27.54Z" transform="translate(-4.35 -6.77)"/><path class="cls-1" d="M533.24,44.48l-1.14-9.2-1.9,0h-1.87l-1.13,9.2c.89,0,1.78,0,2.68,0C531,44.44,532.12,44.46,533.24,44.48Z" transform="translate(-4.35 -6.77)"/><path class="cls-1" d="M518.35,116.68a6.58,6.58,0,0,0,4.53.67l.7-.07a4.55,4.55,0,0,1,3,.55.58.58,0,0,0,.33.1.66.66,0,0,0,.54-.29.64.64,0,0,0-.2-.87,5,5,0,0,0-1.94-.72,10.14,10.14,0,0,0-2.59,0l-.58.05a4.69,4.69,0,0,1-3.14-.54.63.63,0,0,0-.67,1.07Z" transform="translate(-4.35 -6.77)"/><path class="cls-1" d="M518.35,122.2a6.58,6.58,0,0,0,4.53.67,5.4,5.4,0,0,1,3.72.48.58.58,0,0,0,.33.1.66.66,0,0,0,.54-.29.62.62,0,0,0-.2-.87,6.52,6.52,0,0,0-4.53-.67,5.4,5.4,0,0,1-3.72-.49.63.63,0,0,0-.67,1.07Z" transform="translate(-4.35 -6.77)"/><path class="cls-1" d="M523.94,128.29a4.37,4.37,0,0,1,2.66.58.58.58,0,0,0,.33.1.64.64,0,0,0,.54-.29.62.62,0,0,0-.2-.87,4.83,4.83,0,0,0-.67-.36,7.3,7.3,0,0,0-3.86-.31l-.25,0a5,5,0,0,1-3.47-.51.63.63,0,0,0-.87.2.63.63,0,0,0-.08.44.43.43,0,0,0,0,.16.54.54,0,0,0,.23.27,5.11,5.11,0,0,0,2.53.77,11.91,11.91,0,0,0,2-.1C523.24,128.35,523.59,128.31,523.94,128.29Z" transform="translate(-4.35 -6.77)"/><path class="cls-1" d="M536.5,128.29c.35,0,.7.06,1.06.1a12,12,0,0,0,2,.1,5.08,5.08,0,0,0,2.52-.77.62.62,0,0,0,.24-.27.75.75,0,0,0,0-.16.63.63,0,0,0-1-.64,5,5,0,0,1-3.47.51l-.25,0a7.3,7.3,0,0,0-3.86.31,4.83,4.83,0,0,0-.67.36.62.62,0,0,0-.2.87.64.64,0,0,0,.54.29.58.58,0,0,0,.33-.1A4.39,4.39,0,0,1,536.5,128.29Z" transform="translate(-4.35 -6.77)"/><path class="cls-1" d="M533.51,123.45a.58.58,0,0,0,.33-.1,5.4,5.4,0,0,1,3.72-.48,6.58,6.58,0,0,0,4.53-.67.63.63,0,0,0,.2-.87.63.63,0,0,0-.87-.2,5.4,5.4,0,0,1-3.72.49,6.53,6.53,0,0,0-4.53.67.62.62,0,0,0-.2.87A.66.66,0,0,0,533.51,123.45Z" transform="translate(-4.35 -6.77)"/><path class="cls-1" d="M533.51,117.93a.58.58,0,0,0,.33-.1,4.56,4.56,0,0,1,3-.55l.7.07a6.58,6.58,0,0,0,4.53-.67.63.63,0,0,0,.2-.87.63.63,0,0,0-.87-.2,4.68,4.68,0,0,1-3.13.54l-.59-.05a10.06,10.06,0,0,0-2.58,0,4.7,4.7,0,0,0-2,.72.64.64,0,0,0-.2.87A.66.66,0,0,0,533.51,117.93Z" transform="translate(-4.35 -6.77)"/><path class="cls-1" d="M382.38,57.19a13,13,0,0,1-5.43-1.1,9.81,9.81,0,0,1-5.52-6.63,16.81,16.81,0,0,1-.29-6.7,17.16,17.16,0,0,1,3-7.67,14.85,14.85,0,0,1,9.59-6.24,13.69,13.69,0,0,1,7.4.43,9.78,9.78,0,0,1,6.47,7.1,16.34,16.34,0,0,1,.37,5.62,17.48,17.48,0,0,1-2.26,7.35,15,15,0,0,1-11.83,7.75C383.36,57.15,382.87,57.16,382.38,57.19Zm-4.74-10.87c.05.49.11,1.4.26,2.3A4.75,4.75,0,0,0,380,52a6.06,6.06,0,0,0,6.63-.47,10.73,10.73,0,0,0,3.13-4.12,18.3,18.3,0,0,0,1.49-5.9,15.11,15.11,0,0,0-.19-4.55,4.75,4.75,0,0,0-1.63-2.89,5.5,5.5,0,0,0-5.92-.53,8.15,8.15,0,0,0-3.77,3.79A18.76,18.76,0,0,0,377.64,46.32Zm34.58-13.23c.15,0,5.9,0,6.76,0s.91-.21,1-.92.26-1.39.39-2.08c.19-1,.05-1.14-.94-1.14h-5.83c-.09,0-.62.07-.82-.25a2.41,2.41,0,0,1,0-1.31c.81-4.69,1-6,2.89-6.54,2.4-.72,5.2.89,5.84,1.06a.82.82,0,0,0,1.1-.57,13.63,13.63,0,0,0,.64-2.06,1.3,1.3,0,0,0-.71-1.56,5.3,5.3,0,0,0-1-.46,13.26,13.26,0,0,0-7.64-.39,9.51,9.51,0,0,0-4,2.2c-2.31,2.14-2.62,4.1-3.25,8.16-.13.85-.27,1.71-.27,1.71h-3.21c-.21,0-.4,0-.62.05a.75.75,0,0,0-.71.63c-.19.94-.38,1.88-.53,2.82-.07.43.07.58.51.64a5.79,5.79,0,0,0,.72,0l3.28,0h1" transform="translate(-4.35 -6.77)"/><path class="cls-1" d="M412.26,32.91c-.8,10.91-2,19.08-2.52,22a17.75,17.75,0,0,1-1.48,4.93,10.93,10.93,0,0,1-1.63,2.7c-1.71,2.09-6.3,3.64-8.82,3.28-.41-.06-1.2-.1-1.46-.84a1.61,1.61,0,0,1,.1-1.28c.75-1,2.32-.33,3.54-.62,3-.71,3.76-7.36,3.95-9.07.8-7.14,1.51-14.36,2.13-21.87Z" transform="translate(-4.35 -6.77)"/><path class="cls-1" d="M11.26,17c3.46,0,3.78.2,3.78,1.63V43.66c0,3.32.33,5.2,1.89,6.44,1.37,1,3.39,1.62,6.26,1.62s4.63-.52,5.87-1.62c1.56-1.3,2-3.32,2-6.44V18.59c0-1.43.19-1.63,3.65-1.63s3.65.2,3.65,1.63V44.25c0,3.9-.78,7-3.33,9.36s-6.51,3.63-11.86,3.63c-5.54,0-9.58-1.17-12.19-3.57S7.48,48,7.48,44.25V22.94c0-4.22-2.21-3.64-2.21-4.94,0-.84,1-1,4.56-1Z" transform="translate(-4.35 -6.77)"/><path class="cls-1" d="M76.74,43.6V22.94c0-4.22-2.21-3.64-2.21-4.94,0-.84,1-1,4.56-1H80.2c3.58,0,4.56.2,4.56,1,0,1.3-2.22.72-2.22,4.94V55.68c0,.85-.39,1.17-2.28,1.17h-.39c-1.69,0-2-.19-2.67-1.1L58.43,32c-.92-1.17-2-2.59-2.68-3.5h-.13V50.88c0,4.22,2.22,3.64,2.22,4.93,0,.85-1,1-4.56,1H52.17c-3.59,0-4.57-.19-4.57-1,0-1.29,2.22-.71,2.22-4.93V22.94c0-4.22-2.22-3.64-2.22-4.94,0-.84,1-1,4.57-1h.39c3.13,0,3.52.59,5.41,2.92l16,20.21c.91,1.17,2,2.6,2.67,3.51Z" transform="translate(-4.35 -6.77)"/><path class="cls-1" d="M102.72,50.88c0,4.22,2.21,3.64,2.21,4.93,0,.85-1,1-4.56,1H97.5c-3.58,0-4.56-.19-4.56-1,0-1.29,2.22-.71,2.22-4.93V22.94c0-4.22-2.22-3.64-2.22-4.94,0-.84,1-1,4.56-1h2.87c3.59,0,4.56.2,4.56,1,0,1.3-2.21.72-2.21,4.94Z" transform="translate(-4.35 -6.77)"/><path class="cls-1" d="M140.76,23.59a7.78,7.78,0,0,0,.58-2.34,2.76,2.76,0,0,0-1.11-2.14c-.52-.46-.71-.72-.71-1,0-1,.85-1.11,5.6-1.11s5.61.13,5.61,1a1.25,1.25,0,0,1-.59,1,9.31,9.31,0,0,0-3.32,4.54L134.69,55.23c-.52,1.43-1.17,1.62-2.15,1.62h-1c-1,0-1.56-.19-2.15-1.62l-13.3-32.62a6.59,6.59,0,0,0-3.52-3.7,1,1,0,0,1-.65-.91c0-1,2.09-1,5.22-1,4.3,0,5.21.52,6.58,4l5.47,13.78c1,2.4,2.81,7,3.91,9.94h.13c1.24-3.64,2.16-6.17,3.52-9.94Z" transform="translate(-4.35 -6.77)"/><path class="cls-1" d="M167.38,51.92c1.17-.13,3.06-.2,6.26-.2H184c.78,0,1,.2,1,1v3.18c0,.71-.26,1-1,1H162.16c-3.58,0-4.56-.19-4.56-1,0-1.29,2.22-.71,2.22-4.93V22.94c0-4.22-2.22-3.64-2.22-4.94,0-.84,1-1,4.56-1h21.19c.78,0,1,.2,1,1v3.18c0,.71-.26,1-1,1h-9.71c-3.2,0-5.09-.06-6.26-.19V33.72h13.1c.78,0,1,.2,1,1v3c0,.72-.26,1-1,1h-13.1Z" transform="translate(-4.35 -6.77)"/><path class="cls-1" d="M213.62,40l8.67,11.37a13.37,13.37,0,0,0,4.1,3.77c.39.26.52.45.52.78,0,.91-2,1-5.34,1-3.72,0-4.5-.52-6.26-2.85l-9.45-12.48h-3.78v9.36c0,4.22,2.22,3.64,2.22,4.93,0,.85-1,1-4.57,1h-2.87c-3.58,0-4.56-.19-4.56-1,0-1.29,2.22-.71,2.22-4.93V22.94c0-4.22-2.22-3.64-2.22-4.94,0-.84,1-1,4.56-1h5.22c6.06,0,10.23.59,12.91,1.76,3.78,1.68,6.77,4.67,6.77,10.13C221.76,35,218.77,38,213.62,40Zm-9.39-18.32h-2.15V36.91c9,0,11.86-2.93,11.86-7.86C213.94,23.2,210,21.64,204.23,21.64Z" transform="translate(-4.35 -6.77)"/><path class="cls-1" d="M232.66,26.45c0-5.59,5.28-9.88,13.36-9.88,3.91,0,8,1,10.43,3.18a3.84,3.84,0,0,1,1.37,3.19c0,1.88-1.05,3.7-2.61,3.7-1,0-1.82-.78-2.8-1.69a10.82,10.82,0,0,0-7.17-3.12c-2.87,0-5,1.37-5,3.71,0,7.79,19.16,7,19.16,19.88a10.76,10.76,0,0,1-3.32,8.06c-2.61,2.53-6.85,3.76-11.08,3.76a18.69,18.69,0,0,1-11.28-3.37,3.71,3.71,0,0,1-1.5-3.25c0-1.82,1-3.71,2.67-3.71,2.29,0,4.11,5.07,10.63,5.07,3.39,0,6.32-1.75,6.32-5.65C251.82,37.62,232.66,38.79,232.66,26.45Z" transform="translate(-4.35 -6.77)"/><path class="cls-1" d="M276.06,50.88c0,4.22,2.22,3.64,2.22,4.93,0,.85-1,1-4.56,1h-2.87c-3.59,0-4.56-.19-4.56-1,0-1.29,2.21-.71,2.21-4.93V22.94c0-4.22-2.21-3.64-2.21-4.94,0-.84,1-1,4.56-1h2.87c3.58,0,4.56.2,4.56,1,0,1.3-2.22.72-2.22,4.94Z" transform="translate(-4.35 -6.77)"/><path class="cls-1" d="M316.07,17c.78,0,1,.2,1,1v3.18c0,.71-.26,1-1,1h-4.89c-3.2,0-5.09-.06-6.26-.19v29c0,4.22,2.22,3.64,2.22,4.93,0,.85-1,1-4.57,1H299.7c-3.58,0-4.56-.19-4.56-1,0-1.29,2.22-.71,2.22-4.93v-29c-1.18.13-3.07.19-6.26.19h-4.89c-.78,0-1-.26-1-1V17.94c0-.78.26-1,1-1Z" transform="translate(-4.35 -6.77)"/><path class="cls-1" d="M360.25,18a1.24,1.24,0,0,1-.58,1,12.15,12.15,0,0,0-3.52,4.54l-10.5,20.4v7c0,4.22,2.22,3.64,2.22,4.93,0,.85-1,1-4.56,1h-2.87c-3.59,0-4.56-.19-4.56-1,0-1.29,2.21-.71,2.21-4.93v-7L327.27,22.61a7.38,7.38,0,0,0-3.58-3.7A1,1,0,0,1,323,18c0-1,2-1,5.22-1,4.3,0,5.21.72,6.84,4l3.13,6.24c1.57,3.12,3.33,6.62,4.83,9.81h.13c1.37-2.86,3.06-6.18,4.95-9.81L350,23.59a5.27,5.27,0,0,0,.72-2.34,2.79,2.79,0,0,0-1.11-2.14c-.52-.46-.72-.72-.72-1,0-1,.92-1.11,5.67-1.11S360.25,17.09,360.25,18Z" transform="translate(-4.35 -6.77)"/></g></svg>