<?xml version="1.0" encoding="utf-8"?>
<!-- Generator: Adobe Illustrator 21.1.0, SVG Export Plug-In . SVG Version: 6.00 Build 0)  -->
<svg version="1.1" id="Layer_1" xmlns="http://www.w3.org/2000/svg" xmlns:xlink="http://www.w3.org/1999/xlink" x="0px" y="0px"
	 viewBox="0 0 717 219.6" style="enable-background:new 0 0 717 219.6;" xml:space="preserve">
<style type="text/css">
	.st0{fill:#006430;}
</style>
<g>
	<g>
		<path class="st0" d="M28.8,128c0-10.1,9.5-17.8,24.1-17.8c7,0,14.4,1.9,18.8,5.8c1.8,1.5,2.5,3.3,2.5,5.8c0,3.4-1.9,6.7-4.7,6.7
			c-1.8,0-3.3-1.4-5-3.1c-4.1-3.9-8.9-5.6-12.9-5.6c-5.2,0-9,2.5-9,6.7c0,14.1,34.5,12.7,34.5,35.9c0,5.9-2.1,10.9-6,14.6
			c-4.7,4.6-12.3,6.8-20,6.8c-7.5,0-15-2-20.3-6.1c-2.1-1.6-2.7-3.5-2.7-5.9c0-3.3,1.9-6.7,4.8-6.7c4.1,0,7.4,9.2,19.1,9.2
			c6.1,0,11.4-3.2,11.4-10.2C63.3,148.2,28.8,150.3,28.8,128"/>
		<path class="st0" d="M140,110.9c1.4,0,1.9,0.4,1.9,1.8v5.8c0,1.3-0.5,1.8-1.9,1.8h-8.8c-5.8,0-9.2-0.1-11.3-0.4v52.4
			c0,7.6,4,6.6,4,8.9c0,1.5-1.8,1.9-8.2,1.9h-5.2c-6.5,0-8.2-0.4-8.2-1.9c0-2.3,4-1.3,4-8.9v-52.4c-2.1,0.2-5.5,0.4-11.3,0.4h-8.8
			c-1.4,0-1.9-0.5-1.9-1.8v-5.8c0-1.4,0.5-1.8,1.9-1.8H140z"/>
		<path class="st0" d="M170,172.2c0,7.6,4,6.6,4,8.9c0,1.5-1.8,1.9-8.2,1.9h-5.2c-6.5,0-8.2-0.4-8.2-1.9c0-2.3,4-1.3,4-8.9v-50.5
			c0-7.6-4-6.6-4-8.9c0-1.5,1.8-1.9,8.2-1.9h5.2c6.5,0,8.2,0.4,8.2,1.9c0,2.3-4,1.3-4,8.9V172.2z"/>
		<path class="st0" d="M209.9,119.3H206v27.6c16.2,0,21.4-5.3,21.4-14.2C227.4,122.2,220.2,119.3,209.9,119.3 M226.8,152.5
			l15.6,20.5c2.2,3.1,4.1,4.7,7.4,6.8c0.7,0.5,0.9,0.8,0.9,1.4c0,1.6-3.6,1.8-9.6,1.8c-6.7,0-8.1-0.9-11.3-5.2l-17-22.5H206v16.9
			c0,7.6,4,6.6,4,8.9c0,1.5-1.8,1.9-8.2,1.9h-5.2c-6.5,0-8.2-0.4-8.2-1.9c0-2.3,4-1.3,4-8.9v-50.5c0-7.6-4-6.6-4-8.9
			c0-1.5,1.8-1.9,8.2-1.9h9.4c10.9,0,18.4,1.1,23.2,3.2c6.8,3.1,12.2,8.5,12.2,18.3C241.5,143.4,236.1,148.9,226.8,152.5"/>
		<path class="st0" d="M305.6,173.7c1.4,0,1.9,0.4,1.9,1.8v5.8c0,1.3-0.5,1.8-1.9,1.8H269c-6.5,0-8.2-0.4-8.2-1.9c0-2.3,4-1.3,4-8.9
			v-50.5c0-7.6-4-6.6-4-8.9c0-1.5,1.8-1.9,8.2-1.9h5.2c6.5,0,8.2,0.4,8.2,1.9c0,2.3-4,1.3-4,8.9v52.4c2.1-0.2,5.5-0.4,11.3-0.4
			H305.6z"/>
		<path class="st0" d="M337,172.2c0,7.6,4,6.6,4,8.9c0,1.5-1.8,1.9-8.2,1.9h-5.2c-6.5,0-8.2-0.4-8.2-1.9c0-2.3,4-1.3,4-8.9v-50.5
			c0-7.6-4-6.6-4-8.9c0-1.5,1.8-1.9,8.2-1.9h5.2c6.5,0,8.2,0.4,8.2,1.9c0,2.3-4,1.3-4,8.9V172.2z"/>
		<path class="st0" d="M407.9,159v-37.3c0-7.6-4-6.6-4-8.9c0-1.5,1.8-1.9,8.2-1.9h2c6.5,0,8.2,0.4,8.2,1.9c0,2.3-4,1.3-4,8.9v59.2
			c0,1.5-0.7,2.1-4.1,2.1h-0.7c-3.1,0-3.5-0.4-4.8-2l-33.8-42.9c-1.6-2.1-3.6-4.7-4.8-6.3h-0.2v40.4c0,7.6,4,6.6,4,8.9
			c0,1.5-1.8,1.9-8.2,1.9h-2c-6.5,0-8.2-0.4-8.2-1.9c0-2.3,4-1.3,4-8.9v-50.5c0-7.6-4-6.6-4-8.9c0-1.5,1.8-1.9,8.2-1.9h0.7
			c5.6,0,6.3,1.1,9.7,5.3l28.8,36.5c1.6,2.1,3.6,4.7,4.8,6.3H407.9z"/>
		<path class="st0" d="M469.4,119.9c-10.1,0-19.7,8.3-19.7,26.3c0,19.7,8.5,28.1,22.3,28.1c3.6,0,7-0.7,10.2-2v-13.6
			c0-4.2-0.8-5.5-2.8-7c-0.9-0.7-1.2-1.1-1.2-1.8c0-1.6,2.3-2,8.5-2h1.9c6.2,0,6.8,0.4,6.8,2.9v22.7c0,2.3-0.7,3.9-3.1,5.2
			c-6,3.3-13.9,5-21.8,5c-23.1,0-34.9-13.9-34.9-36.5c0-22,12.4-37,34.1-37c9,0,16.6,2.3,20.5,5.9c1.9,1.6,2.7,3.5,2.7,6.2
			c0,3.6-2,6.8-5,6.8C482.6,129.1,480.7,119.9,469.4,119.9"/>
	</g>
	<path class="st0" d="M690.1,119.9L690.1,119.9v-7.6v-83H547v83v7.6v0c0,0-0.1,0.6,0,1.8c0.1,1.3,0.3,3.2,0.8,5.7
		c0.7,3,1.9,6.9,4.2,11.3c0.4,0.8,0.9,1.7,1.4,2.6c1.9,3.4,4.3,7.1,7.4,11c0.5,0.6,0.9,1.2,1.4,1.8c2.4,2.8,5.1,5.7,8.2,8.7
		c0.9,0.8,1.8,1.6,2.7,2.5c10.4,9.4,25,19.4,45.4,29.4c20.4-10,35-20,45.4-29.4c0.9-0.8,1.8-1.7,2.7-2.5c3.1-3,5.8-5.9,8.2-8.7
		c0.5-0.6,1-1.2,1.4-1.8c3.1-3.9,5.6-7.6,7.4-10.9c0.5-0.9,0.9-1.7,1.4-2.6c2.2-4.5,3.5-8.3,4.2-11.3c0.6-2.5,0.8-4.4,0.8-5.7
		C690.2,120.5,690.2,119.9,690.1,119.9z M578.4,165.2c-5.1-4.3-9.6-8.8-13.4-13.3c1.5-1.1,3.2-2,6-2c3.6,0,5.3,1.4,7.2,3
		c2,1.6,4.3,3.5,8.7,3.5c4.4,0,6.7-1.8,8.7-3.5c1.6-1.3,3-2.5,5.5-2.8v12.7c-3.3,0.4-5.2,2-6.9,3.4c-2,1.6-3.7,3-7.2,3
		c-3.6,0-5.3-1.4-7.2-3C579.2,165.8,578.8,165.5,578.4,165.2z M618.6,190.7c-12.3-6.1-23.2-12.6-32.4-19.4c0.2,0,0.4,0,0.6,0
		c4.4,0,6.7-1.8,8.7-3.5c1.6-1.3,3-2.5,5.5-2.8v6.3l0.5,0.3c3.1,2,6.1,1.6,9,1.3c2.6-0.3,5.1-0.5,7.5,1l0.6,0.4l0.6-0.4
		c2.4-1.5,4.9-1.3,7.5-1c2.9,0.3,5.9,0.6,9-1.3l0.5-0.3V165c2.4,0.4,3.9,1.5,5.5,2.8c2,1.6,4.3,3.5,8.7,3.5c0.2,0,0.4,0,0.6,0
		C641.7,178.1,630.9,184.6,618.6,190.7z M603.2,170.1v-4.8v-0.4v-2.3v-12.7v-2.3v0c0,0,0,0,0,0c1.2,0.5,2.4,0.6,3.7,0.7
		c1.2,0,2.4-0.1,3.6-0.2c2.4-0.3,4.8-0.5,7,0.7v5.2v2.3v9v3.7v2.2c-1.1-0.4-2.2-0.6-3.4-0.7c-0.2,0-0.4,0-0.6,0
		c-1.1,0-2.2,0.1-3.3,0.2C607.8,171,605.5,171.3,603.2,170.1z M619.7,171.2V169v-3.7v-9V154v-5.2c2.3-1.2,4.6-0.9,7-0.7
		c1.2,0.1,2.4,0.3,3.6,0.2c1.2,0,2.4-0.2,3.6-0.7c0,0,0,0,0,0v0v2.3v12.7v2.3v0.4v4.8c-2.3,1.2-4.6,0.9-7,0.7
		c-1.3-0.1-2.6-0.3-3.9-0.2C622,170.6,620.9,170.8,619.7,171.2z M658.8,165.2c-0.4,0.3-0.8,0.6-1.2,0.9c-2,1.6-3.7,3-7.2,3
		c-3.6,0-5.3-1.4-7.2-3c-1.7-1.4-3.6-2.9-6.9-3.4v-12.7c2.4,0.4,3.9,1.5,5.5,2.8c2,1.6,4.3,3.5,8.7,3.5c4.4,0,6.7-1.8,8.7-3.5
		c2-1.6,3.7-3,7.2-3c2.8,0,4.4,0.8,6,2C668.4,156.4,663.9,160.8,658.8,165.2z M679.2,142.4c-1.6,2.6-3.5,5.2-5.5,7.8
		c-1.7-1.3-3.9-2.5-7.4-2.5c-4.4,0-6.7,1.8-8.7,3.5c-2,1.6-3.7,3-7.2,3c-3.6,0-5.3-1.4-7.2-3c-1.7-1.4-3.6-2.9-6.9-3.4v-4l-1.1,0.7
		l-0.7,0.4c-2.4,1.5-4.9,1.3-7.5,1c-2.7-0.3-5.5-0.6-8.4,1c-2.9-1.6-5.7-1.3-8.4-1c-2.6,0.3-5.1,0.5-7.5-1l-0.7-0.4l-1.1-0.7v4
		c-3.3,0.4-5.2,2-6.9,3.4c-2,1.6-3.7,3-7.2,3c-3.6,0-5.3-1.4-7.2-3c-2-1.6-4.3-3.5-8.7-3.5c-3.5,0-5.7,1.2-7.4,2.5
		c-2.1-2.6-3.9-5.2-5.5-7.8c-0.2-0.4-0.5-0.8-0.7-1.1c3-0.5,4.8-2,6.4-3.3c2-1.6,3.7-3,7.2-3c3.6,0,5.3,1.4,7.2,3
		c2,1.6,4.3,3.5,8.7,3.5c4.4,0,6.7-1.8,8.7-3.5c2-1.6,3.7-3,7.2-3c3.6,0,5.3,1.4,7.2,3c2,1.6,4.3,3.5,8.7,3.5c4.4,0,6.7-1.8,8.7-3.5
		c2-1.6,3.7-3,7.2-3c3.6,0,5.3,1.4,7.2,3c2,1.6,4.3,3.5,8.7,3.5c4.4,0,6.7-1.8,8.7-3.5c2-1.6,3.7-3,7.2-3c3.6,0,5.3,1.4,7.2,3
		c1.6,1.3,3.4,2.8,6.4,3.3C679.7,141.6,679.4,142,679.2,142.4z M686.7,119.9v0.2v1.5c-0.1,1-0.2,2.6-0.7,4.7c-0.7,3-2,7.4-5,12.8
		c-2.9-0.2-4.4-1.5-6.2-2.9c-2-1.6-4.3-3.5-8.7-3.5c-4.4,0-6.7,1.8-8.7,3.5c-2,1.6-3.7,3-7.2,3c-3.6,0-5.3-1.4-7.2-3
		c-2-1.6-4.3-3.5-8.7-3.5s-6.7,1.8-8.7,3.5c-2,1.6-3.7,3-7.2,3c-3.6,0-5.3-1.4-7.2-3c-2-1.6-4.3-3.5-8.7-3.5c-4.4,0-6.7,1.8-8.7,3.5
		c-2,1.6-3.7,3-7.2,3c-3.6,0-5.3-1.4-7.2-3c-2-1.6-4.3-3.5-8.7-3.5c-4.4,0-6.7,1.8-8.7,3.5c-1.8,1.4-3.3,2.7-6.2,2.9
		c-2.9-5.4-4.3-9.8-5-12.8c-0.5-2.1-0.6-3.7-0.7-4.7v-1.5v-0.2v-7.6c0-2.4,1.9-4.3,4.3-4.3s4.3,1.9,4.3,4.3v14h12.7v-16.8
		c0-2.4,1.9-4.3,4.3-4.3c2.4,0,4.3,1.9,4.3,4.3v16.8H593v-19.6c0-2.4,1.9-4.3,4.3-4.3c2.4,0,4.3,1.9,4.3,4.3v19.6h12.7v-22.5
		c0-2.4,1.9-4.3,4.3-4.3c2.4,0,4.3,1.9,4.3,4.3v22.5h12.7v-19.6c0-2.4,1.9-4.3,4.3-4.3s4.3,1.9,4.3,4.3v19.6h12.7v-16.8
		c0-2.4,1.9-4.3,4.3-4.3c2.4,0,4.3,1.9,4.3,4.3v16.8h12.7v-14c0-2.4,1.9-4.3,4.3-4.3c2.4,0,4.3,1.9,4.3,4.3V119.9z M686.7,105.9
		c-1.2-0.8-2.7-1.3-4.3-1.3c-4.3,0-7.7,3.5-7.7,7.7v10.6h-5.9v-13.4c0-4.3-3.5-7.7-7.7-7.7c-4.3,0-7.7,3.5-7.7,7.7v13.4h-5.9v-16.2
		c0-4.3-3.5-7.7-7.7-7.7c-4.3,0-7.7,3.5-7.7,7.7v16.2h-5.9v-19.1c0-4.3-3.5-7.7-7.7-7.7c-4.3,0-7.7,3.5-7.7,7.7v19.1H605v-16.2
		c0-4.3-3.5-7.7-7.7-7.7c-4.3,0-7.7,3.5-7.7,7.7v16.2h-5.9v-13.4c0-4.3-3.5-7.7-7.7-7.7c-4.3,0-7.7,3.5-7.7,7.7v13.4h-5.9v-10.6
		c0-4.3-3.5-7.7-7.7-7.7c-1.6,0-3.1,0.5-4.3,1.3v-3.5c20.5-11.9,44-18.1,68.2-18.1c24.2,0,47.7,6.3,68.2,18.1V105.9z M612.2,46.8
		c0.8-0.1,1.7-0.1,2.6-0.2l1.6-0.1v-3.2c1.5,0,2.9,0,4.4,0v3.2l1.6,0.1c0.9,0,1.8,0.1,2.6,0.2l1.8,0.2v-3.4c1.5,0.1,3.1,0.2,4.7,0.4
		v9.5c-4.3-0.3-8.6-0.5-12.9-0.5c-4.3,0-8.6,0.2-12.9,0.5V44c1.6-0.1,3.1-0.3,4.7-0.4V47L612.2,46.8z M606.7,56.8
		c4-0.3,7.9-0.4,11.9-0.4c3.9,0,7.9,0.1,11.8,0.4l-1.7,3.4l2.6,20.9c-4.2-0.4-8.5-0.6-12.7-0.6h0c-4.2,0-8.5,0.2-12.7,0.6l2.6-20.9
		L606.7,56.8z M686.7,99.1c-15.9-9-33.6-14.7-51.9-16.8l-2.6-21.5l2.7-5.3V40.9l-1.5-0.2c-2.7-0.3-5.5-0.5-8.2-0.6l-1.8-0.1v0
		l-0.9,0c-1.4,0-2.7-0.1-3.9-0.1c-1.3,0-2.6,0-4,0.1l-0.9,0v0l-1.8,0.1c-2.7,0.1-5.4,0.3-8.2,0.6l-1.5,0.2v14.6l2.7,5.3l-2.6,21.5
		c-18.3,2.1-36,7.8-51.9,16.8V32.7h136.3V99.1z"/>
	<path class="st0" d="M653.4,71.2c2.6-0.3,5.1-0.5,7.5,1l0.6,0.4l0.6-0.4c2.4-1.5,4.9-1.3,7.5-1c2.9,0.3,5.9,0.6,9-1.3l0.5-0.3V41.9
		l-1.7,1.1c-2.4,1.5-4.9,1.3-7.5,1c-2.7-0.3-5.5-0.6-8.4,1c-2.9-1.6-5.7-1.3-8.4-1c-2.6,0.3-5.1,0.5-7.5-1l-1.7-1.1v27.6l0.5,0.3
		C647.5,71.8,650.5,71.5,653.4,71.2z M662.6,47c2.3-1.2,4.6-0.9,7-0.7c2.4,0.3,4.8,0.5,7.2-0.4v22.4c-2.3,1.2-4.6,0.9-7,0.7
		c-2.4-0.3-4.8-0.5-7.2,0.4V47z M646.1,45.8c2.5,1,4.9,0.7,7.2,0.4c2.4-0.3,4.8-0.5,7,0.7v22.4c-1.3-0.5-2.7-0.7-4-0.7
		c-1.1,0-2.2,0.1-3.3,0.2c-2.4,0.3-4.8,0.5-7-0.7V45.8z"/>
	<path class="st0" d="M648.2,51.3c1.8,1.1,3.5,0.9,5.1,0.8c1.5-0.2,2.8-0.3,4.2,0.5c0.1,0.1,0.2,0.1,0.4,0.1c0.2,0,0.5-0.1,0.6-0.3
		c0.2-0.3,0.1-0.8-0.2-1c-1.8-1.1-3.5-0.9-5.1-0.8c-1.5,0.2-2.8,0.3-4.2-0.5c-0.3-0.2-0.8-0.1-1,0.2
		C647.7,50.7,647.8,51.1,648.2,51.3z"/>
	<path class="st0" d="M648.2,57.5c1.8,1.1,3.5,0.9,5.1,0.8c1.5-0.2,2.8-0.3,4.2,0.5c0.1,0.1,0.2,0.1,0.4,0.1c0.2,0,0.5-0.1,0.6-0.3
		c0.2-0.3,0.1-0.8-0.2-1c-1.8-1.1-3.5-0.9-5.1-0.8c-1.5,0.2-2.8,0.3-4.2-0.5c-0.3-0.2-0.8-0.1-1,0.2
		C647.7,56.9,647.8,57.3,648.2,57.5z"/>
	<path class="st0" d="M653.3,64.5c1.5-0.2,2.8-0.3,4.2,0.5c0.1,0.1,0.2,0.1,0.4,0.1c0.2,0,0.5-0.1,0.6-0.3c0.2-0.3,0.1-0.8-0.2-1
		c-1.8-1.1-3.5-0.9-5.1-0.8c-1.5,0.2-2.8,0.3-4.2-0.5c-0.3-0.2-0.8-0.1-1,0.2c-0.2,0.3-0.1,0.8,0.2,1
		C649.9,64.9,651.7,64.7,653.3,64.5z"/>
	<path class="st0" d="M669.8,64.5c1.6,0.2,3.3,0.4,5.1-0.8c0.3-0.2,0.4-0.6,0.2-1c-0.2-0.3-0.6-0.4-1-0.2c-1.3,0.8-2.7,0.7-4.2,0.5
		c-1.6-0.2-3.3-0.4-5.1,0.8c-0.3,0.2-0.4,0.6-0.2,1c0.1,0.2,0.4,0.3,0.6,0.3c0.1,0,0.3,0,0.4-0.1C666.9,64.2,668.3,64.4,669.8,64.5z
		"/>
	<path class="st0" d="M665.2,59c0.1,0,0.3,0,0.4-0.1c1.3-0.8,2.7-0.7,4.2-0.5c1.6,0.2,3.3,0.4,5.1-0.8c0.3-0.2,0.4-0.6,0.2-1
		c-0.2-0.3-0.6-0.4-1-0.2c-1.3,0.8-2.7,0.7-4.2,0.5c-1.6-0.2-3.3-0.4-5.1,0.8c-0.3,0.2-0.4,0.6-0.2,1C664.7,58.8,665,59,665.2,59z"
		/>
	<path class="st0" d="M665.2,52.7c0.1,0,0.3,0,0.4-0.1c1.3-0.8,2.7-0.7,4.2-0.5c1.6,0.2,3.3,0.4,5.1-0.8c0.3-0.2,0.4-0.6,0.2-1
		c-0.2-0.3-0.6-0.4-1-0.2c-1.3,0.8-2.7,0.7-4.2,0.5c-1.6-0.2-3.3-0.4-5.1,0.8c-0.3,0.2-0.4,0.6-0.2,1
		C664.7,52.6,665,52.7,665.2,52.7z"/>
	<path class="st0" d="M568.1,71.2c2.6-0.3,5.1-0.5,7.5,1l0.6,0.4l0.6-0.4c2.4-1.5,4.9-1.3,7.5-1c2.9,0.3,5.9,0.6,9-1.3l0.5-0.3V41.9
		l-1.7,1.1c-2.4,1.5-4.9,1.3-7.5,1c-2.7-0.3-5.5-0.6-8.4,1c-2.9-1.6-5.7-1.3-8.4-1c-2.6,0.3-5.1,0.5-7.5-1l-1.7-1.1v27.6l0.5,0.3
		C562.2,71.8,565.2,71.5,568.1,71.2z M577.3,47c2.3-1.2,4.6-0.9,7-0.7c2.4,0.3,4.8,0.5,7.2-0.4v22.4c-2.3,1.2-4.6,0.9-7,0.7
		c-2.4-0.3-4.8-0.5-7.2,0.4V47z M560.8,45.8c2.5,1,4.9,0.7,7.2,0.4c2.4-0.3,4.8-0.5,7,0.7v22.4c-1.3-0.5-2.7-0.7-4-0.7
		c-1.1,0-2.2,0.1-3.3,0.2c-2.4,0.3-4.8,0.5-7-0.7V45.8z"/>
	<path class="st0" d="M562.9,51.3c1.8,1.1,3.5,0.9,5.1,0.8c1.5-0.2,2.8-0.3,4.2,0.5c0.1,0.1,0.2,0.1,0.4,0.1c0.2,0,0.5-0.1,0.6-0.3
		c0.2-0.3,0.1-0.8-0.2-1c-1.8-1.1-3.5-0.9-5.1-0.8c-1.5,0.2-2.8,0.3-4.2-0.5c-0.3-0.2-0.8-0.1-1,0.2
		C562.4,50.7,562.5,51.1,562.9,51.3z"/>
	<path class="st0" d="M562.9,57.5c1.8,1.1,3.5,0.9,5.1,0.8c1.5-0.2,2.8-0.3,4.2,0.5c0.1,0.1,0.2,0.1,0.4,0.1c0.2,0,0.5-0.1,0.6-0.3
		c0.2-0.3,0.1-0.8-0.2-1c-1.8-1.1-3.5-0.9-5.1-0.8c-1.5,0.2-2.8,0.3-4.2-0.5c-0.3-0.2-0.8-0.1-1,0.2
		C562.4,56.9,562.5,57.3,562.9,57.5z"/>
	<path class="st0" d="M568,64.5c1.5-0.2,2.8-0.3,4.2,0.5c0.1,0.1,0.2,0.1,0.4,0.1c0.2,0,0.5-0.1,0.6-0.3c0.2-0.3,0.1-0.8-0.2-1
		c-1.8-1.1-3.5-0.9-5.1-0.8c-1.5,0.2-2.8,0.3-4.2-0.5c-0.3-0.2-0.8-0.1-1,0.2c-0.2,0.3-0.1,0.8,0.2,1
		C564.6,64.9,566.4,64.7,568,64.5z"/>
	<path class="st0" d="M584.5,64.5c1.6,0.2,3.3,0.4,5.1-0.8c0.3-0.2,0.4-0.6,0.2-1c-0.2-0.3-0.6-0.4-1-0.2c-1.3,0.8-2.7,0.7-4.2,0.5
		c-1.6-0.2-3.3-0.4-5.1,0.8c-0.3,0.2-0.4,0.6-0.2,1c0.1,0.2,0.4,0.3,0.6,0.3c0.1,0,0.3,0,0.4-0.1C581.6,64.2,583,64.4,584.5,64.5z"
		/>
	<path class="st0" d="M579.9,59c0.1,0,0.3,0,0.4-0.1c1.3-0.8,2.7-0.7,4.2-0.5c1.6,0.2,3.3,0.4,5.1-0.8c0.3-0.2,0.4-0.6,0.2-1
		c-0.2-0.3-0.6-0.4-1-0.2c-1.3,0.8-2.7,0.7-4.2,0.5c-1.6-0.2-3.3-0.4-5.1,0.8c-0.3,0.2-0.4,0.6-0.2,1C579.4,58.8,579.7,59,579.9,59z
		"/>
	<path class="st0" d="M579.9,52.7c0.1,0,0.3,0,0.4-0.1c1.3-0.8,2.7-0.7,4.2-0.5c1.6,0.2,3.3,0.4,5.1-0.8c0.3-0.2,0.4-0.6,0.2-1
		c-0.2-0.3-0.6-0.4-1-0.2c-1.3,0.8-2.7,0.7-4.2,0.5c-1.6-0.2-3.3-0.4-5.1,0.8c-0.3,0.2-0.4,0.6-0.2,1
		C579.4,52.6,579.7,52.7,579.9,52.7z"/>
	<path class="st0" d="M622,71.8l-1.3-10.4c-0.7,0-1.4,0-2.1,0c-0.7,0-1.4,0-2.1,0l-1.3,10.4c1,0,2,0,3,0
		C619.5,71.8,620.7,71.8,622,71.8z"/>
	<path class="st0" d="M605.3,153.2c1.8,1.1,3.5,0.9,5.1,0.8c0.3,0,0.5-0.1,0.8-0.1c1.2-0.1,2.3-0.1,3.4,0.6c0.1,0.1,0.2,0.1,0.4,0.1
		c0.2,0,0.5-0.1,0.6-0.3c0.1-0.2,0.1-0.4,0.1-0.6c0-0.2-0.1-0.3-0.3-0.4c-0.7-0.5-1.5-0.7-2.2-0.8c-1-0.2-2,0-2.9,0.1
		c-0.2,0-0.4,0-0.7,0.1c-1.2,0.1-2.4,0.1-3.5-0.6c-0.3-0.2-0.8-0.1-1,0.2C604.8,152.5,604.9,153,605.3,153.2z"/>
	<path class="st0" d="M605.3,159.4c1.8,1.1,3.5,0.9,5.1,0.8c1.5-0.2,2.8-0.3,4.2,0.5c0.1,0.1,0.2,0.1,0.4,0.1c0.2,0,0.5-0.1,0.6-0.3
		c0.2-0.3,0.1-0.8-0.2-1c-1.8-1.1-3.5-0.9-5.1-0.8c-1.5,0.2-2.8,0.3-4.2-0.5c-0.3-0.2-0.8-0.1-1,0.2
		C604.8,158.7,604.9,159.2,605.3,159.4z"/>
	<path class="st0" d="M611.5,166.3c1-0.1,2,0,3,0.6c0.1,0.1,0.2,0.1,0.4,0.1c0.2,0,0.5-0.1,0.6-0.3c0.2-0.3,0.1-0.8-0.2-1
		c-0.3-0.2-0.5-0.3-0.8-0.4c-1.5-0.7-3-0.5-4.3-0.4c-0.1,0-0.2,0-0.3,0c-1.4,0.1-2.6,0.2-3.9-0.6c-0.3-0.2-0.8-0.1-1,0.2
		c-0.1,0.2-0.1,0.3-0.1,0.5c0,0.1,0,0.1,0.1,0.2c0.1,0.1,0.1,0.2,0.3,0.3c1,0.6,1.9,0.8,2.8,0.9c0.8,0,1.5,0,2.2-0.1
		C610.7,166.3,611.1,166.3,611.5,166.3z"/>
	<path class="st0" d="M625.6,166.3c0.4,0,0.8,0.1,1.2,0.1c0.7,0.1,1.5,0.2,2.3,0.1c0.9,0,1.9-0.3,2.8-0.9c0.1-0.1,0.2-0.2,0.3-0.3
		c0-0.1,0-0.1,0.1-0.2c0-0.2,0-0.3-0.1-0.5c-0.2-0.3-0.6-0.4-1-0.2c-1.2,0.8-2.5,0.7-3.9,0.6c-0.1,0-0.2,0-0.3,0
		c-1.3-0.1-2.8-0.3-4.3,0.4c-0.3,0.1-0.5,0.2-0.8,0.4c-0.3,0.2-0.4,0.6-0.2,1c0.1,0.2,0.4,0.3,0.6,0.3c0.1,0,0.3,0,0.4-0.1
		C623.6,166.3,624.6,166.2,625.6,166.3z"/>
	<path class="st0" d="M622.3,160.8c0.1,0,0.3,0,0.4-0.1c1.3-0.8,2.7-0.7,4.2-0.5c1.6,0.2,3.3,0.4,5.1-0.8c0.3-0.2,0.4-0.6,0.2-1
		c-0.2-0.3-0.6-0.4-1-0.2c-1.3,0.8-2.7,0.7-4.2,0.5c-1.6-0.2-3.3-0.4-5.1,0.8c-0.3,0.2-0.4,0.6-0.2,1
		C621.8,160.7,622,160.8,622.3,160.8z"/>
	<path class="st0" d="M622.3,154.6c0.1,0,0.3,0,0.4-0.1c1.1-0.7,2.2-0.7,3.4-0.6c0.3,0,0.5,0,0.8,0.1c1.6,0.2,3.3,0.4,5.1-0.8
		c0.3-0.2,0.4-0.6,0.2-1c-0.2-0.3-0.6-0.4-1-0.2c-1.1,0.7-2.3,0.7-3.5,0.6c-0.2,0-0.4,0-0.7-0.1c-0.9-0.1-1.9-0.2-2.9-0.1
		c-0.7,0.1-1.5,0.3-2.2,0.8c-0.2,0.1-0.3,0.3-0.3,0.4c0,0.2,0,0.4,0.1,0.6C621.8,154.5,622,154.6,622.3,154.6z"/>
	<g>
		<path class="st0" d="M452.6,86.1c-2.1,0-4.2-0.3-6.1-1.2c-3.2-1.5-5.3-4-6.2-7.5c-0.7-2.5-0.7-5-0.3-7.6c0.4-3.1,1.5-6,3.3-8.6
			c2.6-3.8,6.2-6.1,10.8-7c2.8-0.6,5.6-0.5,8.3,0.5c3.8,1.4,6.2,4.1,7.3,8c0.6,2.1,0.6,4.2,0.4,6.3c-0.3,2.9-1.1,5.7-2.5,8.3
			c-3,5.1-7.4,8.1-13.3,8.7C453.7,86.1,453.1,86.1,452.6,86.1z M447.2,73.9c0.1,0.6,0.1,1.6,0.3,2.6c0.3,1.6,1,2.9,2.4,3.8
			c2.1,1.4,5.4,1.1,7.4-0.5c1.6-1.3,2.7-2.8,3.5-4.6c1-2.1,1.5-4.3,1.7-6.6c0.2-1.7,0.2-3.4-0.2-5.1c-0.3-1.3-0.8-2.4-1.8-3.3
			c-2.1-1.6-4.4-1.6-6.6-0.6c-1.9,0.9-3.2,2.4-4.2,4.3C447.9,66.8,447.3,70,447.2,73.9z M486.1,59c0.2,0,6.6,0,7.6,0
			c0.8,0,1-0.2,1.2-1c0.2-0.8,0.3-1.6,0.4-2.3c0.2-1.1,0.1-1.3-1.1-1.3c-2.4,0-4.2,0-6.6,0c-0.1,0-0.7,0.1-0.9-0.3
			c-0.2-0.3-0.1-1,0-1.5c0.9-5.3,1.2-6.7,3.2-7.4c2.7-0.8,5.8,1,6.6,1.2c0.6,0.2,1,0,1.2-0.6c0.3-0.7,0.5-1.6,0.7-2.3
			c0.2-0.8-0.1-1.3-0.8-1.8c-0.4-0.2-0.8-0.4-1.2-0.5c-2.8-0.9-5.4-1.2-8.6-0.4c-1.2,0.3-2.8,1-4.4,2.5c-2.6,2.4-2.9,4.6-3.6,9.2
			c-0.1,1-0.3,1.9-0.3,1.9s-2.4,0-3.6,0c-0.2,0-0.4,0-0.7,0c-0.4,0.1-0.7,0.3-0.8,0.7c-0.2,1.1-0.4,2.1-0.6,3.2
			c-0.1,0.5,0.1,0.7,0.6,0.7c0.3,0,0.5,0.1,0.8,0.1l3.7,0l1.1,0"/>
		<path class="st0" d="M486.1,58.8c-0.9,12.3-2.2,21.5-2.8,24.8c-0.3,1.6-0.6,3.3-1.7,5.6c-0.7,1.4-1,2-1.8,3
			c-1.9,2.4-7.1,4.1-9.9,3.7c-0.5-0.1-1.3-0.1-1.6-0.9c-0.2-0.4-0.1-1.1,0.1-1.4c0.8-1.2,2.6-0.4,4-0.7c3.3-0.8,4.2-8.3,4.4-10.2
			c0.9-8,1.7-16.2,2.4-24.6L486.1,58.8z"/>
	</g>
	<g>
		<path class="st0" d="M35.8,40.8c3.9,0,4.2,0.2,4.2,1.8v28.3c0,3.7,0.4,5.9,2.1,7.2c1.5,1.2,3.8,1.8,7,1.8c3.1,0,5.2-0.6,6.6-1.8
			c1.8-1.5,2.3-3.7,2.3-7.2V42.6c0-1.6,0.2-1.8,4.1-1.8c3.9,0,4.1,0.2,4.1,1.8v28.9c0,4.4-0.9,7.8-3.7,10.5c-3,2.8-7.3,4.1-13.3,4.1
			c-6.2,0-10.8-1.3-13.7-4c-3-2.8-4-6.4-4-10.6v-24c0-4.8-2.5-4.1-2.5-5.6c0-1,1.1-1.2,5.1-1.2H35.8z"/>
		<path class="st0" d="M109.3,70.8V47.5c0-4.8-2.5-4.1-2.5-5.6c0-1,1.1-1.2,5.1-1.2h1.2c4,0,5.1,0.2,5.1,1.2c0,1.5-2.5,0.8-2.5,5.6
			v36.9c0,1-0.4,1.3-2.6,1.3h-0.4c-1.9,0-2.2-0.2-3-1.2L88.7,57.8c-1-1.3-2.3-2.9-3-4h-0.1V79c0,4.8,2.5,4.1,2.5,5.6
			c0,1-1.1,1.2-5.1,1.2h-1.2c-4,0-5.1-0.2-5.1-1.2c0-1.5,2.5-0.8,2.5-5.6V47.5c0-4.8-2.5-4.1-2.5-5.6c0-1,1.1-1.2,5.1-1.2h0.4
			c3.5,0,4,0.7,6.1,3.3l17.9,22.8c1,1.3,2.3,2.9,3,4H109.3z"/>
		<path class="st0" d="M138.5,79c0,4.8,2.5,4.1,2.5,5.6c0,1-1.1,1.2-5.1,1.2h-3.2c-4,0-5.1-0.2-5.1-1.2c0-1.5,2.5-0.8,2.5-5.6V47.5
			c0-4.8-2.5-4.1-2.5-5.6c0-1,1.1-1.2,5.1-1.2h3.2c4,0,5.1,0.2,5.1,1.2c0,1.5-2.5,0.8-2.5,5.6V79z"/>
		<path class="st0" d="M181.2,48.3c0.4-1,0.7-1.9,0.7-2.6c0-0.9-0.4-1.6-1.2-2.4c-0.6-0.5-0.8-0.8-0.8-1.2c0-1.1,1-1.2,6.3-1.2
			c5.2,0,6.3,0.1,6.3,1.2c0,0.4-0.2,0.7-0.7,1.1c-1.9,1.5-2.9,2.9-3.7,5.1l-13.6,35.7c-0.6,1.6-1.3,1.8-2.4,1.8h-1.2
			c-1.1,0-1.8-0.2-2.4-1.8l-14.9-36.8c-1-2.3-2.2-3.3-4-4.2c-0.6-0.3-0.7-0.7-0.7-1c0-1.1,2.3-1.2,5.9-1.2c4.8,0,5.9,0.6,7.4,4.5
			l6.1,15.5c1.1,2.7,3.1,7.9,4.4,11.2h0.1c1.4-4.1,2.4-7,4-11.2L181.2,48.3z"/>
		<path class="st0" d="M211.1,80.2c1.3-0.1,3.4-0.2,7-0.2h11.6c0.9,0,1.2,0.2,1.2,1.1v3.6c0,0.8-0.3,1.1-1.2,1.1h-24.5
			c-4,0-5.1-0.2-5.1-1.2c0-1.5,2.5-0.8,2.5-5.6V47.5c0-4.8-2.5-4.1-2.5-5.6c0-1,1.1-1.2,5.1-1.2H229c0.9,0,1.2,0.2,1.2,1.1v3.6
			c0,0.8-0.3,1.1-1.2,1.1h-10.9c-3.6,0-5.7-0.1-7-0.2v13.3h14.7c0.9,0,1.2,0.2,1.2,1.1v3.4c0,0.8-0.3,1.1-1.2,1.1h-14.7V80.2z"/>
		<path class="st0" d="M263,66.7l9.7,12.8c1.4,1.9,2.6,2.9,4.6,4.2c0.4,0.3,0.6,0.5,0.6,0.9c0,1-2.3,1.1-6,1.1c-4.2,0-5.1-0.6-7-3.2
			l-10.6-14.1h-4.2V79c0,4.8,2.5,4.1,2.5,5.6c0,1-1.1,1.2-5.1,1.2h-3.2c-4,0-5.1-0.2-5.1-1.2c0-1.5,2.5-0.8,2.5-5.6V47.5
			c0-4.8-2.5-4.1-2.5-5.6c0-1,1.1-1.2,5.1-1.2h5.9c6.8,0,11.5,0.7,14.5,2c4.2,1.9,7.6,5.3,7.6,11.4C272.2,61.1,268.8,64.5,263,66.7z
			 M252.5,46.1h-2.4v17.2c10.1,0,13.3-3.3,13.3-8.9C263.4,47.8,258.9,46.1,252.5,46.1z"/>
		<path class="st0" d="M284.4,51.5c0-6.3,5.9-11.1,15-11.1c4.4,0,9,1.2,11.7,3.6c1.1,1,1.5,2,1.5,3.6c0,2.1-1.2,4.2-2.9,4.2
			c-1.1,0-2-0.9-3.1-1.9c-2.6-2.4-5.6-3.5-8.1-3.5c-3.2,0-5.6,1.5-5.6,4.2c0,8.8,21.5,7.9,21.5,22.4c0,3.7-1.3,6.8-3.7,9.1
			c-2.9,2.9-7.7,4.2-12.4,4.2c-4.7,0-9.4-1.2-12.7-3.8c-1.3-1-1.7-2.2-1.7-3.7c0-2,1.2-4.2,3-4.2c2.6,0,4.6,5.7,11.9,5.7
			c3.8,0,7.1-2,7.1-6.4C305.9,64.1,284.4,65.4,284.4,51.5z"/>
		<path class="st0" d="M333.1,79c0,4.8,2.5,4.1,2.5,5.6c0,1-1.1,1.2-5.1,1.2h-3.2c-4,0-5.1-0.2-5.1-1.2c0-1.5,2.5-0.8,2.5-5.6V47.5
			c0-4.8-2.5-4.1-2.5-5.6c0-1,1.1-1.2,5.1-1.2h3.2c4,0,5.1,0.2,5.1,1.2c0,1.5-2.5,0.8-2.5,5.6V79z"/>
		<path class="st0" d="M378.1,40.8c0.9,0,1.2,0.2,1.2,1.1v3.6c0,0.8-0.3,1.1-1.2,1.1h-5.5c-3.6,0-5.7-0.1-7-0.2V79
			c0,4.8,2.5,4.1,2.5,5.6c0,1-1.1,1.2-5.1,1.2h-3.2c-4,0-5.1-0.2-5.1-1.2c0-1.5,2.5-0.8,2.5-5.6V46.4c-1.3,0.1-3.4,0.2-7,0.2h-5.5
			c-0.9,0-1.2-0.3-1.2-1.1v-3.6c0-0.9,0.3-1.1,1.2-1.1H378.1z"/>
		<path class="st0" d="M427.7,42c0,0.4-0.2,0.7-0.7,1.1c-1.8,1.5-2.9,2.9-4,5.1l-11.8,23V79c0,4.8,2.5,4.1,2.5,5.6
			c0,1-1.1,1.2-5.1,1.2h-3.2c-4,0-5.1-0.2-5.1-1.2c0-1.5,2.5-0.8,2.5-5.6v-7.9l-12.2-23.9c-1.1-2.2-2.3-3.3-4-4.2
			c-0.6-0.3-0.7-0.7-0.7-1c0-1.1,2.2-1.2,5.9-1.2c4.8,0,5.9,0.8,7.7,4.5l3.5,7c1.8,3.5,3.7,7.5,5.4,11.1h0.1c1.5-3.2,3.4-7,5.6-11.1
			l2.1-4.1c0.5-1,0.8-1.9,0.8-2.6c0-0.9-0.4-1.6-1.2-2.4c-0.6-0.5-0.8-0.8-0.8-1.2c0-1.1,1-1.2,6.4-1.2
			C426.5,40.8,427.7,41,427.7,42z"/>
	</g>
</g>
</svg>
