<svg xmlns="http://www.w3.org/2000/svg" xmlns:xlink="http://www.w3.org/1999/xlink" x="0px" y="0px" viewBox="177 169 1058 1058" preserveAspectRatio="xMinYMin meet">
    <style type="text/css">.st0{fill: #9d1e65;}.st1{fill: rgba(0,0,0,0.4);}.st2{fill:rgba(0,0,0,0.2);}.st3{fill: rgba(255,255,255,0.3);}</style>
    <rect x="176.1" y="168.2" fill="none" width="1059.4" height="1059.8"/>
    <path class="st1" d="M1060.1,998.9l-70.6-70.7v8.8l70.6,70.6V998.9z M1060.1,981.2l-70.6-70.6v8.8l70.6,70.7V981.2z
        M1060.1,910.7L989.5,840v8.8l70.6,70.6V910.7z M1130.9,699l70.6,70.6h8.8l-70.6-70.6H1130.9z M1060.1,928.4l-70.6-70.6v8.8
    l70.6,70.6V928.4z M989.5,972.4l70.6,70.7v-8.8l-70.6-70.6L989.5,972.4L989.5,972.4z M1342.5,583.9l70.6,70.7v-8.8l-70.6-70.6
    V583.9z M1060.1,1016.5l-70.6-70.6v8.8l70.6,70.6V1016.5z M1095.6,699l70.6,70.6h8.8l-70.6-70.6H1095.6z M1113.3,699l70.7,70.6
    h8.8l-70.7-70.6H1113.3z M1077.9,699l70.6,70.6h8.8l-70.6-70.6H1077.9z M1060.3,699l70.7,70.6h8.8l-70.6-70.6H1060.3z
        M1060.1,945.9l-70.6-70.6v8.8l70.6,70.6V945.9z M813.2,699l70.6,70.6h8.8L822.1,699H813.2z M830.7,699l70.6,70.6h8.8L883.4,743
    v0l-44-43.9H830.7z M848.3,699l35.1,35.1v-0.2l35.7,35.7h8.8L857.3,699H848.3z M1060.1,893l-70.6-70.6v8.8l70.6,70.6V893z
        M777.7,699l70.7,70.6h8.8L786.5,699H777.7z M795.4,699l70.6,70.6h8.8L804.2,699H795.4z M1060.1,875.1l-70.6-70.6v8.8l70.6,70.6
    V875.1z M1060.1,857.6l-70.6-70.6v8.8l70.6,70.6V857.6z M865.9,699l70.6,70.6h8.8L874.7,699H865.9z M883.7,699l70.6,70.6h8.8
    L892.5,699H883.7z M901.4,699l70.6,70.6h8.8L910.2,699H901.4z M1413.1,892.8l-70.6-70.6v8.8l70.6,70.6V892.8z M1342.5,972.4
    l70.6,70.7v-8.8l-70.6-70.6V972.4z M1431.1,699l70.6,70.6h8.8l-70.6-70.6H1431.1z M1413.4,699l70.7,70.6h8.8l-70.7-70.6H1413.4z
        M1413.1,1016.5l-70.6-70.6v8.8l70.6,70.6V1016.5z M1413.1,981.2l-70.6-70.6v8.8l70.6,70.7V981.2z M1413.1,998.9l-70.6-70.7v8.8
    l70.6,70.6V998.9z M1342.5,619.2l70.6,70.7V681l-70.6-70.7V619.2z M1342.5,601.5l70.6,70.6v-8.8l-70.6-70.6V601.5z M1448.8,699
    l70.6,70.6h8.8l-70.6-70.6H1448.8z M1413.1,963.6l-70.6-70.6v8.8l70.6,70.6V963.6z M1466.4,699l70.6,70.6h8.8l-70.6-70.6H1466.4z
        M1148.6,699l70.6,70.6h8.8l-70.6-70.6H1148.6z M1563.5,769.6l-70.7-70.6h-8.8l70.7,70.6H1563.5z M1219.2,699l70.6,70.6h8.8
    L1228,699H1219.2z M1236.9,699l70.6,70.6h8.8l-70.6-70.6H1236.9z M1201.6,699l70.6,70.6h8.8l-70.6-70.6H1201.6z M1166.2,699
    l70.6,70.6h8.8l-70.6-70.6H1166.2z M1254.5,699l70.6,70.6h8.8l-70.6-70.6H1254.5z M1183.9,699l70.7,70.6h8.8l-70.6-70.6H1183.9z
        M1413.1,910.7l-70.6-70.6v8.8l70.6,70.6V910.7z M1413.1,928.3l-70.6-70.6v8.8l70.6,70.6V928.3z M1413.1,945.9l-70.6-70.6v8.8
    l70.6,70.6V945.9z M1413.1,875.2l-70.6-70.6v8.8l70.6,70.6V875.2z M760,699l70.6,70.6h8.8L768.9,699H760z M1413.1,857.6
    l-70.6-70.6v8.8l70.6,70.6V857.6z M1060.1,963.6l-70.6-70.6v8.8l70.6,70.6V963.6z M353.7,892.8l-70.6-70.6v8.8l70.6,70.6V892.8z
        M353.7,910.4l-70.6-70.6v8.8l70.6,70.6V910.4z M353.7,875.2l-70.6-70.6v8.8l70.6,70.6V875.2z M353.7,857.6l-70.6-70.6v8.8
    l70.6,70.6V857.6z M353.7,928.3l-70.6-70.6v8.8l70.6,70.6V928.3z M195,699l70.6,70.6h8.8L203.8,699H195z M177.4,699l70.6,70.6
    h8.8L186.2,699H177.4z M353.7,998.9l-70.6-70.7v8.8l70.6,70.6V998.9z M283.1,972.4l70.6,70.7v-8.8l-70.6-70.6V972.4z
        M353.7,963.6l-70.6-70.6v8.8l70.6,70.6V963.6z M353.7,945.9l-70.6-70.6v8.8l70.6,70.6V945.9z M353.7,981.2l-70.6-70.6v8.8
    l70.6,70.7V981.2z M353.7,1016.5l-70.6-70.6v8.8l70.6,70.6V1016.5z M274.1,1122.5l-70.6-70.6h-8.8l70.6,70.6H274.1z
        M450.7,1122.5l-70.6-70.6h-8.8l70.6,70.6H450.7z M486,1122.5l-70.6-70.6h-8.8l70.6,70.6H486z M742.4,699l70.6,70.6h8.8
    L751.2,699H742.4z M521.3,1122.5l-70.6-70.6h-8.8l70.6,70.6H521.3z M177.2,415.8l0.2,0.2h8.8l-9-9L177.2,415.8L177.2,415.8z
        M503.6,1122.5l-70.6-70.6h-8.8l70.6,70.6H503.6z M177.2,734.1l35.5,35.5h8.8l-44.4-44.3V734.1z M177.2,716.4l53.2,53.2h8.8
    l-62-62V716.4z M247.6,1122.5h8.8l-70.6-70.6H177L247.6,1122.5z M177.2,769.4l0.2,0.2h8.8l-9-9L177.2,769.4L177.2,769.4z
        M177.2,751.8l17.9,17.9h8.8l-26.7-26.7V751.8z M468.3,1122.5l-70.6-70.6h-8.8l70.6,70.6H468.3z M706.8,928.3l-70.6-70.6v8.8
    l70.6,70.6V928.3z M706.8,945.9l-70.6-70.6v8.8l70.6,70.6V945.9z M706.8,963.6l-70.6-70.6v8.8l70.6,70.6V963.6z M706.8,892.8
    l-70.6-70.6v8.8l70.6,70.6V892.8z M706.8,875l-70.6-70.6v8.8l70.6,70.6V875z M706.8,910.4l-70.6-70.6v8.8l70.6,70.6V910.4z
        M706.8,981.2l-70.6-70.6v8.8l70.6,70.7V981.2z M706.8,998.9l-70.6-70.7v8.8l70.6,70.6V998.9z M724.7,699l70.6,70.6h8.8
    L733.5,699H724.7z M707.1,699l70.7,70.6h8.8L715.9,699H707.1z M706.8,1016.5l-70.6-70.6v8.8l70.6,70.6V1016.5z M636.2,972.4
    l70.6,70.7v-8.8l-70.6-70.6V972.4z M530.5,699l70.6,70.6h8.8L539.3,699H530.5z M459.9,699l70.6,70.6h8.8L468.7,699H459.9z
        M406.9,699l70.6,70.6h8.8L415.7,699H406.9z M706.8,857.6l-70.6-70.6v8.8l70.6,70.6V857.6z M424.6,699l70.6,70.6h8.8L433.4,699
    H424.6z M371.6,699l70.6,70.6h8.8L380.4,699H371.6z M389.2,699l70.6,70.6h8.8L398.1,699H389.2z M442.2,699l70.6,70.6h8.8L451,699
    H442.2z M477.5,699l70.6,70.6h8.8L486.4,699H477.5z M548.2,699l70.6,70.6h8.8L557,699H548.2z M353.9,699l70.6,70.6h8.8L362.8,699
    H353.9z M495.2,699l70.6,70.6h8.8L504,699H495.2z M512.9,699l70.6,70.6h8.8L521.7,699H512.9z M1342.5,513.2l70.6,70.7v-8.8
    l-70.6-70.6V513.2z M706.8,1369.7l-70.6-70.6v8.8l70.6,70.6V1369.7z M706.8,1334.4l-70.6-70.6v8.8l70.6,70.7V1334.4z
        M1060.1,1210.8l-70.6-70.7v8.8l70.6,70.6V1210.8z M636.2,1325.5l70.6,70.7v-8.8l-70.6-70.7V1325.5z M706.8,1352l-70.6-70.6v8.8
    l70.6,70.7V1352z M1060.1,1228.4l-70.6-70.7v8.8l70.6,70.6V1228.4z M706.8,1060.7v-8.8l70.6,70.6h8.8l-70.6-70.6h-8.8l-70.6-70.6
    v8.8l61.8,61.8h-8.8l-53-53v8.8l44.1,44.2h-8.8l-35.3-35.3v8.8l26.5,26.5h-8.8l-17.6-17.6v8.8l8.8,8.8h-8.9v8.8l-8.8-8.8h-8.8
    l17.7,17.7v8.8l-26.5-26.5h-8.8l35.3,35.3v8.8l-44.2-44.2h-8.8l53,53v8.8l-61.8-61.8h-8.8l70.6,70.6v0h0.1v8.8l70.6,70.6v-8.8
    l-70.6-70.6h8.8l61.8,61.8v-8.8l-53-53h8.8l44.1,44.1v-8.8l-35.3-35.3h8.8l26.5,26.5v-8.8l-17.7-17.7h8.8l8.8,8.8v-8.8l0,0h8.8
    l-8.8-8.8v-0.1l0,0v-8.8l17.6,17.6h8.8l-26.5-26.4v-0.1l0,0v-8.8l35.2,35.2h8.8l-44.1-44.1v-0.1l0,0v-8.8l52.9,52.9h8.8
    L706.8,1060.7L706.8,1060.7L706.8,1060.7z M1060.1,1299.1l-70.6-70.6v8.8l70.6,70.7V1299.1z M1060.1,1316.7l-70.6-70.7v8.8
    l70.6,70.6V1316.7z M1060.1,1246.1l-70.6-70.6v8.8l70.6,70.7V1246.1z M1060.1,1281.4l-70.6-70.7v8.8l70.6,70.7V1281.4z
        M1060.1,1263.8l-70.6-70.6v8.8l70.6,70.7V1263.8z M353.7,1369.7l-70.6-70.6v8.8l70.6,70.6V1369.7z M1060.1,1334.4l-70.6-70.6
    v8.8l70.6,70.7V1334.4z M353.7,1060.7v-8.7l70.5,70.5h8.8l-70.6-70.6h-8.7l-70.6-70.6v8.8l61.8,61.8h-8.8l-53-53v8.8l44.1,44.2
    h-8.9l-35.3-35.3v8.8l26.5,26.5h-8.8l-17.6-17.6v8.8l8.8,8.8h-8.9v9l-9-9h-8.8l17.8,17.8v8.8l-26.6-26.6h-8.8l35.4,35.4v8.8
    l-44.3-44.3H230l53.1,53.1v8.8l-61.9-61.9h-8.8l70.6,70.6h0.1v0h0v8.8l70.6,70.6v-8.8l-70.6-70.6h8.9l61.8,61.8v-8.8l-53-53h8.8
    l44.1,44.1v-8.8l-35.3-35.3h8.8l26.5,26.5v-8.8l-17.7-17.7h8.8l8.8,8.8v-8.8l0,0v0h8.7l-8.7-8.7v-0.2l0,0v-8.7l17.5,17.5h8.8
    l-26.3-26.3v-0.2l0,0v-8.7l35.2,35.2h8.8l-44-44v-0.2l0,0v-8.7l52.8,52.8h8.8l-61.6-61.6L353.7,1060.7L353.7,1060.7z
        M283.1,1325.5l70.6,70.7v-8.8l-70.6-70.7V1325.5z M706.8,1210.8l-70.6-70.7v8.8l70.6,70.6V1210.8z M353.7,1352l-70.6-70.6v8.8
    l70.6,70.7V1352z M706.8,1316.7l-70.6-70.7v8.8l70.6,70.6V1316.7z M353.7,1334.4l-70.6-70.6v8.8l70.6,70.7V1334.4z M706.8,1281.4
    l-70.6-70.7v8.8l70.6,70.7V1281.4z M706.8,1299.1l-70.6-70.6v8.8l70.6,70.7V1299.1z M706.8,1263.8l-70.6-70.6v8.8l70.6,70.7
    V1263.8z M706.8,1246.1l-70.6-70.6v8.8l70.6,70.7V1246.1z M706.8,1228.4l-70.6-70.7v8.8l70.6,70.6V1228.4z M1580.8,416.1
    l-70.6-70.6h-8.8l70.6,70.6H1580.8z M1413.1,1352l-70.6-70.6v8.8l70.6,70.7V1352z M1545.5,416.1l-70.6-70.6h-8.8l70.6,70.6
    H1545.5z M1413.1,1060.7v-8.8l70.6,70.6h8.8l-70.6-70.6h-8.8l-70.6-70.6v8.8l61.8,61.8h-8.8l-52.9-53v8.8l44.1,44.2h-8.8
    l-35.3-35.3v8.8l26.5,26.5h-8.8l-17.6-17.6v8.8l8.8,8.8h-8.9v8.8l-8.8-8.8h-8.8l17.7,17.7v8.8l-26.5-26.5h-8.8l35.3,35.3v8.8
    l-44.2-44.2h-8.8l53,53v8.8l-61.8-61.8h-8.8l70.6,70.6v0h0.1v8.8l70.6,70.6v-8.8l-70.6-70.6h8.8l61.8,61.8v-8.8l-53-53h8.8
    l44.1,44.1v-8.8l-35.3-35.3h8.8l26.5,26.5v-8.8l-17.7-17.7h8.8l8.8,8.8v-8.8l0,0h8.8l-8.8-8.8v-0.1l0,0v-8.8l17.6,17.6h8.8
    l-26.5-26.4v-0.1l0,0v-8.8l35.2,35.2h8.8l-44.1-44.1v-0.1l0,0v-8.8l52.9,52.9h8.8L1413.1,1060.7L1413.1,1060.7L1413.1,1060.7z
        M1413.1,1369.7l-70.6-70.6v8.8l70.6,70.6V1369.7z M1563.2,416.1l-70.7-70.6h-8.8l70.7,70.6H1563.2z M1342.5,1325.5l70.6,70.7
    v-8.8l-70.6-70.7V1325.5z M1527.8,416.1l-70.6-70.6h-8.8l70.6,70.6H1527.8z M1589.4,354.1l-8.6-8.6h-8.8l17.4,17.4L1589.4,354.1
    L1589.4,354.1z M1060.1,1352l-70.6-70.6v8.8l70.6,70.7V1352z M1589.4,371.8l-26.3-26.3h-8.8l35.1,35.1L1589.4,371.8L1589.4,371.8
    z M1589.4,389.4l-43.9-43.9h-8.8l52.8,52.8V389.4z M1589.4,407.1l-61.6-61.6h-8.8l70.4,70.4V407.1z M353.7,1316.7l-70.6-70.7v8.8
    l70.6,70.6V1316.7z M1413.1,1228.4l-70.6-70.7v8.8l70.6,70.6V1228.4z M1060.1,1060.7v-8.7l70.5,70.5h8.8l-70.6-70.6h-8.7
    l-70.6-70.6v8.8l61.8,61.8h-8.8l-53-53v8.8l44.1,44.2h-8.8l-35.3-35.3v8.8l26.5,26.5h-8.8l-17.6-17.6v8.8l8.8,8.8h-8.9v9l-9-9
    h-8.8l17.8,17.8v8.8l-26.6-26.6H954l35.4,35.4v8.8l-44.3-44.3h-8.8l53.1,53.1v8.8l-61.9-61.9h-8.8l70.7,70.6h0.1v0h0v8.8
    l70.6,70.6v-8.8l-70.6-70.6h8.8l61.8,61.8v-8.8l-53-53h8.8l44.1,44.1v-8.8l-35.3-35.3h8.8l26.5,26.5v-8.8l-17.7-17.7h8.8l8.8,8.8
    v-8.8l0,0v0h8.7l-8.7-8.7v-0.2l0,0v-8.7l17.5,17.5h8.8l-26.3-26.3v-0.2l0,0v-8.7l35.2,35.2h8.8l-44-44v-0.2l0,0v-8.7l52.8,52.8
    h8.8l-61.7-61.6L1060.1,1060.7L1060.1,1060.7z M1413.1,1210.8l-70.6-70.7v8.8l70.6,70.6V1210.8z M989.5,1325.5l70.6,70.7v-8.8
    l-70.6-70.7L989.5,1325.5L989.5,1325.5z M1060.1,1369.7l-70.6-70.6v8.8l70.6,70.6V1369.7z M1413.1,1334.4l-70.6-70.6v8.8
    l70.6,70.7V1334.4z M1413.1,1316.7l-70.6-70.7v8.8l70.6,70.6V1316.7z M1413.1,1299.1l-70.6-70.6v8.8l70.6,70.7V1299.1z
        M1413.1,1263.8l-70.6-70.6v8.8l70.6,70.7V1263.8z M1413.1,1281.4l-70.6-70.7v8.8l70.6,70.7V1281.4z M1413.1,1246.1l-70.6-70.6
    v8.8l70.6,70.7V1246.1z M283.1,495.6l70.6,70.6v-8.8l-70.6-70.6V495.6z M989.5,460.3l70.6,70.6v-8.8l-70.6-70.6L989.5,460.3
    L989.5,460.3z M989.5,548.5l70.6,70.6v-8.8l-70.6-70.7L989.5,548.5L989.5,548.5z M989.5,495.6l70.6,70.6v-8.8l-70.6-70.6
    L989.5,495.6L989.5,495.6z M989.5,477.9l70.6,70.6v-8.8l-70.6-70.6L989.5,477.9L989.5,477.9z M989.5,530.9l70.6,70.7v-8.8
    l-70.6-70.6L989.5,530.9L989.5,530.9z M989.5,513.2l70.6,70.7v-8.8l-70.6-70.6L989.5,513.2L989.5,513.2z M1060.1,504.4
    l-70.6-70.6v8.8l70.6,70.6V504.4z M636.2,583.9l70.6,70.7v-8.8l-70.6-70.6V583.9z M636.2,566.2l70.6,70.7V628l-70.6-70.6V566.2z
        M636.2,619.2l70.6,70.7V681l-70.6-70.7V619.2z M927.9,699H919l70.4,70.3v0.2h0v8.5l70.6,70.6v-8.8l-70.3-70.3h8.7l-0.1-0.1h0.2
    l61.5,61.5v-8.8l-52.6-52.6h8.7l-0.1-0.1h0.1l43.9,43.9v-8.8l-35-35h8.7l-0.1-0.1h0.2l26.2,26.2v-8.8l-17.3-17.3h8.7l-0.1-0.1
    h0.2l8.6,8.6v-8.7l0.2,0.2h8.8l-9-9v-0.2l0,0v-8.7l17.9,17.9h8.8l-26.7-26.7v-0.2l0,0v-8.7l35.5,35.5h8.8l-44.4-44.3v-0.1l0,0
    v-8.7l53.2,53.2h8.8l-62-62v-0.2l0,0v-8.8L989.4,628v8.8l62,62h-8.8l-53.2-53.2v8.8l44.4,44.4h-8.8l-35.5-35.6v8.8l26.7,26.7
    h-8.8l-17.9-17.9v8.8l9.1,9.1h-9.1v8.7l-8.6-8.6H972l17.4,17.4v8.8L963.2,699h-8.8l35.1,35.1v8.8L945.5,699h-8.8l52.7,52.7v8.8
    L927.9,699z M636.2,601.5l70.6,70.6v-8.8l-70.6-70.6V601.5z M989.5,566.2l70.6,70.7V628l-70.6-70.6L989.5,566.2L989.5,566.2z
        M539,1122.5l-70.6-70.6h-8.8l70.6,70.6H539z M1342.5,495.6l70.6,70.6v-8.8l-70.6-70.6V495.6z M1342.5,477.9l70.6,70.6v-8.8
    l-70.6-70.6V477.9z M1413.1,504.4l-70.6-70.6v8.8l70.6,70.6V504.4z M1342.5,530.9l70.6,70.7v-8.8l-70.6-70.6V530.9z
        M1342.5,548.5l70.6,70.6v-8.8l-70.6-70.7V548.5z M636.2,548.5l70.6,70.6v-8.8l-70.6-70.7V548.5z M989.5,583.9l70.6,70.7v-8.8
    l-70.6-70.6L989.5,583.9L989.5,583.9z M989.5,601.5l70.6,70.6v-8.8l-70.6-70.6L989.5,601.5L989.5,601.5z M1281,699h-8.8
    l70.3,70.3v0.3h0v8.5l70.6,70.6v-8.8l-70.3-70.3h8.8l-0.1-0.1h0.1l61.5,61.5v-8.8l-52.6-52.6h8.8l-0.1-0.1h0.1l43.9,43.9v-8.8
    l-35-35h8.8l-0.1-0.1h0.1l26.2,26.2v-8.8l-17.3-17.3h8.8l-0.1-0.1h0.1l8.6,8.6v-8.8l0.3,0.3h8.8l-9.1-9.1v0l0,0v-8.8l18,18h8.8
    l-26.8-26.8v0l0,0V734l35.6,35.6h8.8l-44.4-44.4v-0.1l0,0v-8.8l53.3,53.3h8.8l-62.1-62.1v-0.1l0,0v-8.8l-70.6-70.6v8.8l62,62
    h-8.8l-53.2-53.2v8.8l44.4,44.4h-8.8l-35.6-35.6v8.8l26.7,26.7h-8.8l-17.9-17.9v8.8l9.1,9.1h-9.1v8.6l-8.5-8.5h-8.8l17.3,17.3
    v8.8l-26.1-26.1h-8.8l35,35v8.8l-43.8-43.8h-8.8l52.6,52.6v8.8L1281,699z M1342.5,460.3l70.6,70.6v-8.8l-70.6-70.6V460.3z
        M989.5,619.2l70.6,70.7V681l-70.6-70.7L989.5,619.2L989.5,619.2z M574.6,699h-8.8l70.3,70.3v0.3h0v8.5l70.6,70.6v-8.8
    l-70.3-70.3h8.8l-0.1-0.1h0.1l61.5,61.5v-8.8l-52.6-52.6h8.8l-0.1-0.1h0.1l43.9,43.9v-8.8l-35-35h8.8l-0.1-0.1h0l26.2,26.2v-8.8
    l-17.3-17.3h8.8l-0.1-0.1h0l8.6,8.6v-8.8l0.3,0.3h8.8l-9.1-9.1v0l0,0v-8.8l18,18h8.8l-26.8-26.8v0l0,0V734l35.6,35.6h8.8
    l-44.4-44.4v-0.1l0,0v-8.8l53.3,53.3h8.8l-62.1-62.1v-0.1l0,0v-8.8L636.1,628v8.8l62,62h-8.8l-53.2-53.2v8.8l44.4,44.4h-8.8
    l-35.5-35.6v8.8l26.7,26.7H654l-17.9-17.9v8.8l9.1,9.1h-9.1v8.6l-8.5-8.5h-8.8l17.3,17.3v8.8L610,699h-8.8l35,35v8.8L592.3,699
    h-8.8l52.6,52.6v8.8L574.6,699z M353.7,504.4l-70.6-70.6v8.8l70.6,70.6V504.4z M283.1,460.3l70.6,70.6v-8.8l-70.6-70.6V460.3z
        M636.2,530.9l70.6,70.7v-8.8l-70.6-70.6V530.9z M283.1,530.9l70.6,70.7v-8.8l-70.6-70.6V530.9z M283.1,513.2l70.6,70.7v-8.8
    l-70.6-70.6V513.2z M1342.5,566.2l70.6,70.7V628l-70.6-70.6V566.2z M221.5,699h-8.8l70.4,70.3v0.2h0v8.5l70.6,70.6v-8.8
    l-70.3-70.3h8.7l-0.1-0.1h0.1l61.5,61.5v-8.8l-52.6-52.6h8.7l-0.1-0.1h0.1l43.9,43.9v-8.8l-35-35h8.7l-0.1-0.1h0.2l26.2,26.2
    v-8.8l-17.3-17.3h8.7l-0.1-0.1h0.2l8.6,8.6v-8.7l0.2,0.2h8.8l-9-9v-0.2l0,0v-8.7l17.9,17.9h8.8l-26.7-26.7v-0.2l0,0v-8.7
    l35.5,35.5h8.8l-44.4-44.3v-0.1l0,0v-8.7l53.2,53.2h8.8l-62-62v-0.2l0,0v-8.8L283.1,628v8.8l62,62h-8.8l-53.2-53.2v8.8l44.4,44.4
    h-8.8l-35.5-35.6v8.8l26.7,26.7H301l-17.9-17.9v8.8l9.1,9.1H283v8.7l-8.6-8.6h-8.8l17.4,17.4v8.8L256.8,699H248l35.1,35.1v8.8
    L239.2,699h-8.8l52.7,52.7v8.8L221.5,699z M353.7,1281.4l-70.6-70.7v8.8l70.6,70.7V1281.4z M353.7,1263.8l-70.6-70.6v8.8
    l70.6,70.7V1263.8z M353.7,1228.4l-70.6-70.7v8.8l70.6,70.6V1228.4z M353.7,1246.1l-70.6-70.6v8.8l70.6,70.7V1246.1z
        M353.7,1210.8l-70.6-70.7v8.8l70.6,70.6V1210.8z M283.1,477.9l70.6,70.6v-8.8l-70.6-70.6V477.9z M636.2,477.9l70.6,70.6v-8.8
    l-70.6-70.6V477.9z M706.8,504.4l-70.6-70.6v8.8l70.6,70.6V504.4z M636.2,460.3l70.6,70.6v-8.8l-70.6-70.6V460.3z M636.2,495.6
    l70.6,70.6v-8.8l-70.6-70.6V495.6z M636.2,513.2l70.6,70.7v-8.8l-70.6-70.6V513.2z M283.1,619.2l70.6,70.7V681l-70.6-70.7V619.2z
        M283.1,566.2l70.6,70.7V628l-70.6-70.6V566.2z M283.1,583.9l70.6,70.7v-8.8l-70.6-70.6V583.9z M283.1,601.5l70.6,70.6v-8.8
    l-70.6-70.6V601.5z M353.7,1299.1l-70.6-70.6v8.8l70.6,70.7V1299.1z M283.1,548.5l70.6,70.6v-8.8l-70.6-70.7V548.5z
        M636.2,1519.7l61.6,61.6h8.8l-70.4-70.4L636.2,1519.7L636.2,1519.7z M353.9,1405.3l70.6,70.6h8.8l-70.6-70.6H353.9z
        M353.7,1413.8L353.7,1413.8l0-8.8l-70.6-70.6v8.8l62,62h-8.8l-53.2-53.2v8.8l44.4,44.4h-8.8l-35.5-35.6v8.8l26.7,26.7H301
    l-17.9-17.9v8.8l9.1,9.1H283v8.7l-8.6-8.6h-8.8l17.4,17.4v8.8l-26.3-26.2H248l35.1,35.1v8.8l-43.9-43.9h-8.8L283,1458v8.8
    l-61.6-61.6h-8.8l70.4,70.3v0.2h0v8.6l70.6,70.6v-8.8l-70.3-70.3h8.7l-0.1-0.1h0.1l61.5,61.5v-8.8l-52.6-52.6h8.7l-0.1-0.1h0.1
    l43.9,43.9v-8.8l-35-35h8.7l-0.1-0.1h0.2l26.2,26.2v-8.8l-17.3-17.3h8.7l-0.1-0.1h0.2l8.6,8.6v-8.7l0.2,0.2h8.8l-9-9v-0.2l0,0
    v-8.7l17.9,17.9h8.8l-26.7-26.7v-0.2l0,0v-8.7l35.5,35.5h8.8l-44.4-44.3v-0.1l0,0v-8.7l53.2,53.2h8.8L353.7,1413.8L353.7,1413.8
    L353.7,1413.8z M283.1,1502.1l70.6,70.6v-8.8l-70.6-70.6V1502.1z M389.2,1405.3l70.6,70.6h8.8l-70.6-70.6H389.2z M371.6,1405.3
    l70.6,70.6h8.8l-70.6-70.6H371.6z M283.1,1519.7l61.6,61.6h8.8l-70.4-70.4L283.1,1519.7L283.1,1519.7z M406.9,1405.3l70.6,70.6
    h8.8l-70.6-70.6H406.9z M177.4,1405.3L248,1476h8.8l-70.6-70.6H177.4z M195,1405.3l70.6,70.6h8.8l-70.6-70.6H195z M283.1,1555.1
    l26.3,26.3h8.8l-35.1-35.1V1555.1z M283.1,1572.7l8.6,8.6h8.8l-17.5-17.4V1572.7z M283.1,1537.4l43.9,43.9h8.8l-52.8-52.8V1537.4
    z M530.5,1405.3l70.6,70.6h8.8l-70.6-70.6H530.5z M177.2,1422.8l53.2,53.2h8.8l-62-62V1422.8z M636.2,1555.1l26.3,26.3h8.8
    l-35.1-35.1V1555.1z M424.6,1405.3l70.6,70.6h8.8l-70.6-70.6H424.6z M636.2,1572.7l8.6,8.6h8.8l-17.4-17.4L636.2,1572.7
    L636.2,1572.7z M636.2,1537.4l43.9,43.9h8.8l-52.8-52.8V1537.4z M636.2,1502.1l70.6,70.6v-8.8l-70.6-70.6V1502.1z M548.2,1405.3
    l70.6,70.6h8.8l-70.6-70.6H548.2z M442.2,1405.3l70.6,70.6h8.8l-70.6-70.6H442.2z M706.8,1413.8L706.8,1413.8v-8.8l-70.6-70.6
    v8.8l62,62h-8.8l-53.2-53.2v8.8l44.4,44.4h-8.8l-35.5-35.6v8.8l26.7,26.7H654l-17.9-17.9v8.8l9.1,9.1h-9.1v8.6l-8.5-8.5h-8.8
    l17.3,17.3v8.8l-26.2-26.2h-8.8l35,35v8.8l-43.8-43.8h-8.8l52.6,52.6v8.8l-61.5-61.5h-8.8l70.3,70.3v0.3h0v8.6l70.6,70.6v-8.8
    l-70.3-70.3h8.8l-0.1-0.1h0.1l61.5,61.5v-8.8l-52.6-52.6h8.8l-0.1-0.1h0.1l43.9,43.9v-8.8l-35-35h8.8l-0.1-0.1h0l26.2,26.2v-8.8
    l-17.3-17.3h8.8l-0.1-0.1h0l8.6,8.6v-8.8l0.3,0.3h8.8l-9.1-9.1v-0.1l0,0v-8.8l18,18h8.8l-26.8-26.8v-0.1l0,0v-8.8l35.6,35.6h8.8
    l-44.4-44.4v-0.1l0,0v-8.8l53.3,53.3h8.8L706.8,1413.8L706.8,1413.8L706.8,1413.8z M459.9,1405.3l70.6,70.6h8.8l-70.6-70.6H459.9
    z M477.5,1405.3l70.6,70.6h8.8l-70.6-70.6H477.5z M495.2,1405.3l70.6,70.6h8.8l-70.6-70.6H495.2z M512.9,1405.3l70.6,70.6h8.8
    l-70.6-70.6H512.9z M353.7,274.9l-70.6-70.6v8.8l70.6,70.7V274.9z M556.6,1122.5l-70.6-70.6h-8.8l70.6,70.6H556.6z M353.7,292.6
    l-70.6-70.6v8.8l70.6,70.6V292.6z M353.7,327.9l-70.6-70.6v8.8l70.6,70.6V327.9z M353.7,239.6l-70.6-70.6v8.8l70.6,70.6V239.6z
        M353.7,310.2l-70.6-70.6v8.8l70.6,70.6V310.2z M353.7,204.3l-35.5-35.5h-8.8l44.3,44.4V204.3z M353.7,221.9l-53.2-53.2h-8.8
    l62,62V221.9z M353.7,168.9l-0.2-0.2h-8.8l9,9V168.9z M450.7,416.1L380,345.5h-8.8l70.6,70.6H450.7z M353.7,186.6l-17.9-17.9H327
    l26.7,26.7V186.6z M283.1,416.1L283.1,416.1L283.1,416.1l0,8.8l70.6,70.6v-8.8L283.1,416.1l8.9,0l61.8,61.8v-8.8l-53-53h8.8
    l44.1,44.1v-8.8l-35.3-35.3h8.8l26.5,26.5v-8.8l-17.7-17.7h8.8l8.8,8.8v-8.8l0,0v0h8.7l-8.7-8.7v-0.2l0,0v-8.7l17.5,17.5h8.8
    l-26.3-26.3v-0.2l0,0V381l35.2,35.2h8.8l-44-44V372l0,0v-8.7l52.8,52.8h8.8l-61.6-61.6v-0.2l0,0v-8.7l70.5,70.5h8.8l-70.6-70.6
    h-8.7l-70.6-70.6v8.8l61.8,61.8H336l-53-53v8.8l44.1,44.1h-8.9l-35.3-35.3v8.8l26.5,26.5h-8.8l-17.6-17.6v8.8l8.8,8.8H283v9l-9-9
    h-8.8l17.8,17.8v8.8l-26.6-26.6h-8.8l35.4,35.4v8.8l-44.3-44.3H230l53.1,53.1v8.8l-61.9-61.9h-8.8L283.1,416.1L283.1,416.1
    L283.1,416.1z M274.1,416.1l-70.6-70.6h-8.8l70.6,70.6H274.1z M203.5,1122.5l-26.7-26.7v8.8l17.9,17.9L203.5,1122.5L203.5,1122.5
    z M177.4,1122.4h8.8l-9-9v8.8L177.4,1122.4z M177.2,1440.4l35.5,35.5h8.8l-44.4-44.3V1440.4z M177.2,1458.1L195,1476h8.8
    l-26.7-26.7V1458.1z M468.3,416.1l-70.6-70.6h-8.8l70.6,70.6H468.3z M177.2,1475.7l0.2,0.2h8.8l-9-9L177.2,1475.7L177.2,1475.7z
        M256.5,416.1l-70.6-70.6H177l70.6,70.6H256.5z M238.8,416.1l-62-62v8.8l53.2,53.2L238.8,416.1L238.8,416.1z M238.8,1122.5
    l-62-62v8.8l53.2,53.2L238.8,1122.5L238.8,1122.5z M221.1,416.1l-44.4-44.3v8.8l35.5,35.5H221.1z M203.5,416.1l-26.7-26.7v8.8
    l17.9,17.9H203.5z M221.1,1122.5l-44.4-44.3v8.8l35.5,35.5L221.1,1122.5L221.1,1122.5z M1431.1,1405.3l70.6,70.6h8.8l-70.6-70.6
    H1431.1z M1342.5,1502.1l70.6,70.6v-8.8l-70.6-70.6V1502.1z M1342.5,1555.1l26.3,26.3h8.8l-35.1-35.1L1342.5,1555.1
    L1342.5,1555.1z M1342.5,1537.4l43.9,43.9h8.8l-52.8-52.8V1537.4z M1413.4,1405.3l70.7,70.6h8.8l-70.6-70.6H1413.4z
        M1413.1,1413.8L1413.1,1413.8v-8.8l-70.6-70.6v8.8l62,62h-8.8l-53.2-53.2v8.8l44.4,44.4h-8.8l-35.6-35.6v8.8l26.7,26.7h-8.8
    l-17.9-17.9v8.8l9.1,9.1h-9.1v8.6l-8.5-8.5h-8.8l17.3,17.3v8.8l-26.2-26.2h-8.8l35,35v8.8l-43.8-43.8h-8.8l52.6,52.6v8.8
    l-61.5-61.5h-8.8l70.3,70.3v0.3h0v8.6l70.6,70.6v-8.8l-70.3-70.3h8.8l-0.1-0.1h0.1l61.5,61.5v-8.8l-52.6-52.6h8.8l-0.1-0.1h0.1
    l43.9,43.9v-8.8l-35-35h8.8l-0.1-0.1h0.1l26.2,26.2v-8.8l-17.3-17.3h8.8l-0.1-0.1h0.1l8.6,8.6v-8.8l0.3,0.3h8.8l-9.1-9.1v-0.1
    l0,0v-8.8l18,18h8.8l-26.8-26.8v-0.1l0,0v-8.8l35.6,35.6h8.8l-44.4-44.4v-0.1l0,0v-8.8l53.3,53.3h8.8L1413.1,1413.8
    L1413.1,1413.8L1413.1,1413.8z M1342.5,1519.7l61.6,61.6h8.8l-70.4-70.4L1342.5,1519.7L1342.5,1519.7z M1219.2,1405.3l70.6,70.6
    h8.8l-70.6-70.6H1219.2z M1201.6,1405.3l70.6,70.6h8.8l-70.6-70.6H1201.6z M1183.9,1405.3l70.7,70.6h8.8l-70.7-70.6H1183.9z
        M1236.9,1405.3l70.6,70.6h8.8l-70.6-70.6H1236.9z M1254.5,1405.3l70.6,70.6h8.8l-70.6-70.6H1254.5z M1342.5,1572.7l8.6,8.6h8.8
    l-17.4-17.4L1342.5,1572.7L1342.5,1572.7z M1519.4,699l70.4,70.4v-8.8l-61.6-61.6H1519.4z M1537,699l52.8,52.8v-8.8l-44-43.9
    H1537z M1572.3,1405.3l17.4,17.4v-8.8l-8.6-8.6L1572.3,1405.3L1572.3,1405.3z M1554.7,699l35.1,35.1v-8.8l-26.3-26.3H1554.7z
        M1554.7,1405.3l35.1,35.1v-8.8l-26.3-26.3L1554.7,1405.3L1554.7,1405.3z M1448.8,1405.3l70.6,70.6h8.8l-70.6-70.6H1448.8z
        M1581.2,699h-8.8l17.4,17.4v-8.8L1581.2,699z M1484.1,1405.3l70.7,70.6h8.8l-70.7-70.6H1484.1z M1466.4,1405.3l70.6,70.6h8.8
    l-70.6-70.6H1466.4z M1501.7,1405.3l70.6,70.6h8.8l-70.6-70.6H1501.7z M707.1,1405.3l70.7,70.6h8.8l-70.6-70.6H707.1z
        M1537,1405.3l52.8,52.8v-8.8l-43.9-43.9H1537z M1519.4,1405.3l70.4,70.4v-8.8l-61.6-61.6H1519.4z M865.9,1405.3l70.6,70.6h8.8
    l-70.7-70.6H865.9z M848.3,1405.3l35.1,35.1v-0.2l35.7,35.7h8.8l-70.7-70.6H848.3z M883.4,1449.3l-44-43.9h-8.8l70.6,70.6h8.8
    L883.4,1449.3L883.4,1449.3z M901.4,1405.3L972,1476h8.8l-70.7-70.6H901.4z M989.5,1572.7l8.6,8.6h8.8l-17.5-17.4V1572.7z
        M883.7,1405.3l70.6,70.6h8.8l-70.7-70.6H883.7z M813.2,1405.3l70.6,70.6h8.8l-70.7-70.6H813.2z M742.4,1405.3L813,1476h8.8
    l-70.6-70.6H742.4z M1166.2,1405.3l70.6,70.6h8.8l-70.6-70.6H1166.2z M724.7,1405.3l70.6,70.6h8.8l-70.6-70.6H724.7z
        M777.7,1405.3l70.7,70.6h8.8l-70.7-70.6H777.7z M760,1405.3l70.6,70.6h8.8l-70.6-70.6H760z M795.4,1405.3L866,1476h8.8
    l-70.6-70.6H795.4z M1113.3,1405.3l70.7,70.6h8.8l-70.6-70.6H1113.3z M989.5,1555.1l26.3,26.3h8.8l-35.1-35.1L989.5,1555.1
    L989.5,1555.1z M1077.9,1405.3l70.6,70.6h8.8l-70.7-70.6H1077.9z M1148.6,1405.3l70.6,70.6h8.8l-70.7-70.6H1148.6z
        M1130.9,1405.3l70.6,70.6h8.8l-70.7-70.6H1130.9z M1095.6,1405.3l70.6,70.6h8.8l-70.6-70.6H1095.6z M1060.3,1405.3l70.7,70.6
    h8.8l-70.6-70.6H1060.3z M989.5,1537.4l43.9,43.9h8.8l-52.8-52.8L989.5,1537.4L989.5,1537.4z M989.5,1519.7l61.6,61.6h8.8
    l-70.4-70.4L989.5,1519.7L989.5,1519.7z M1060.1,1413.8L1060.1,1413.8l0-8.8l-70.6-70.6v8.8l62,62h-8.8l-53.2-53.2v8.8l44.4,44.4
    h-8.8l-35.5-35.6v8.8l26.7,26.7h-8.8l-17.9-17.9v8.8l9.1,9.1h-9.1v8.7l-8.6-8.6H972l17.4,17.4v8.8l-26.3-26.2h-8.8l35.1,35.1v8.8
    l-43.9-43.9h-8.8l52.7,52.7v8.8l-61.6-61.6H919l70.4,70.3v0.2h0v8.6l70.6,70.6v-8.8l-70.3-70.3h8.7l-0.1-0.1h0.2l61.5,61.5v-8.8
    l-52.6-52.6h8.7l-0.1-0.1h0.1l43.9,43.9v-8.8l-35-35h8.7l-0.1-0.1h0.2l26.2,26.2v-8.8l-17.3-17.3h8.7l-0.1-0.1h0.2l8.6,8.6v-8.7
    l0.2,0.2h8.8l-9-9v-0.2l0,0v-8.7l17.9,17.9h8.8l-26.7-26.7v-0.2l0,0v-8.7l35.5,35.5h8.8l-44.4-44.3v-0.1l0,0v-8.7l53.2,53.2h8.8
    L1060.1,1413.8L1060.1,1413.8L1060.1,1413.8z M989.5,1502.1l70.6,70.6v-8.8l-70.6-70.6L989.5,1502.1L989.5,1502.1z M353.7,257.2
    l-70.6-70.6v8.8l70.6,70.6V257.2z M1580.8,1122.5l-70.6-70.6h-8.8l70.6,70.6H1580.8z M1315.9,1122.5l-70.6-70.6h-8.8l70.6,70.6
    H1315.9z M1589.4,1113.4l-61.6-61.6h-8.8l70.4,70.4V1113.4z M1589.4,1095.8l-43.9-43.9h-8.8l52.8,52.8V1095.8z M1589.4,1060.5
    l-8.6-8.6h-8.8l17.4,17.4L1589.4,1060.5L1589.4,1060.5z M1501.7,699l70.6,70.6h8.8l-70.6-70.6H1501.7z M486,416.1l-70.6-70.6
    h-8.8l70.6,70.6H486z M1510.2,1122.5l-70.6-70.6h-8.8l70.6,70.6H1510.2z M1333.6,1122.5l-70.6-70.6h-8.8l70.6,70.6H1333.6z
        M1545.5,1122.5l-70.6-70.6h-8.8l70.6,70.6H1545.5z M1563.2,1122.5l-70.7-70.6h-8.8l70.7,70.6H1563.2z M1510.2,416.1l-70.6-70.6
    h-8.8l70.6,70.6H1510.2z M1589.4,1078.1l-26.3-26.3h-8.8l35.1,35.1L1589.4,1078.1L1589.4,1078.1z M1413.1,274.9l-70.6-70.6v8.8
    l70.6,70.7V274.9z M1413.1,327.9l-70.6-70.6v8.8l70.6,70.6V327.9z M1413.1,292.6l-70.6-70.6v8.8l70.6,70.6V292.6z M1413.1,310.2
    l-70.6-70.6v8.8l70.6,70.6V310.2z M1333.6,416.1l-70.6-70.6h-8.8l70.6,70.6H1333.6z M1413.1,168.9l-0.2-0.2h-8.8l9,9
    L1413.1,168.9L1413.1,168.9z M1342.4,416.1L1342.4,416.1l0.1,8.8l70.6,70.6v-8.8L1342.4,416.1l8.9,0l61.8,61.8v-8.8l-53-53h8.8
    l44.1,44.1v-8.8l-35.3-35.3h8.8l26.5,26.5v-8.8l-17.7-17.7h8.8l8.8,8.8v-8.8l0,0h8.8l-8.8-8.8v0l0,0v-8.8l17.6,17.6h8.8
    l-26.5-26.5v0l0,0v-8.8l35.2,35.2h8.8l-44.1-44.1v-0.1l0,0v-8.8l52.9,52.9h8.8l-61.8-61.7v-0.1l0,0v-8.8l70.6,70.5h8.8
    l-70.6-70.6h-8.8l-70.6-70.6v8.8l61.8,61.8h-8.8l-52.9-53v8.8l44.1,44.1h-8.8l-35.3-35.3v8.8l26.5,26.5h-8.8l-17.6-17.6v8.8
    l8.8,8.8h-8.9v8.8l-8.8-8.8h-8.8l17.7,17.6v8.8l-26.5-26.5h-8.8l35.3,35.3v8.9l-44.2-44.2h-8.8l53,53v8.8l-61.8-61.8h-8.8
    L1342.4,416.1L1342.4,416.1L1342.4,416.1z M1413.1,204.3l-35.5-35.5h-8.8l44.3,44.4L1413.1,204.3L1413.1,204.3z M1413.1,257.2
    l-70.6-70.6v8.8l70.6,70.6V257.2z M1413.1,186.6l-17.9-17.9h-8.8l26.7,26.7L1413.1,186.6L1413.1,186.6z M1413.1,239.6l-70.6-70.6
    v8.8l70.6,70.6V239.6z M1413.1,221.9l-53.2-53.2h-8.8l62,62L1413.1,221.9L1413.1,221.9z M945.2,1122.5l-70.7-70.6h-8.8l70.6,70.6
    H945.2z M874.5,1122.5l-70.6-70.6H795l70.6,70.6H874.5z M856.8,1122.5l-70.7-70.6h-8.8l70.7,70.6H856.8z M821.5,1122.5
    l-70.6-70.6H742l70.6,70.6H821.5z M839.1,1122.5l-70.6-70.6h-8.8l70.6,70.6H839.1z M909.7,1122.5l-70.7-70.6h-8.8l70.6,70.6
    H909.7z M892.3,1122.5l-70.7-70.6h-8.8l70.6,70.6H892.3z M927.6,1122.5l-70.7-70.6h-8.8l70.6,70.6H927.6z M574.3,1122.5
    l-70.6-70.6h-8.8l70.6,70.6H574.3z M803.8,1122.5l-70.6-70.6h-8.8l70.6,70.6H803.8z M592,1122.5l-70.6-70.6h-8.8l70.6,70.6H592z
        M627.2,1122.5l-70.6-70.6h-8.8l70.6,70.6H627.2z M609.6,1122.5l-70.6-70.6h-8.8l70.6,70.6H609.6z M1210,1122.5l-70.7-70.6h-8.8
    l70.6,70.6H1210z M1227.7,1122.5l-70.7-70.6h-8.8l70.6,70.6H1227.7z M1298.3,1122.5l-70.6-70.6h-8.8l70.6,70.6H1298.3z
        M1245.3,1122.5l-70.6-70.6h-8.8l70.6,70.6H1245.3z M1263,1122.5l-70.7-70.6h-8.8l70.7,70.6H1263z M1280.7,1122.5l-70.6-70.6
    h-8.8l70.6,70.6H1280.7z M1157,1122.5l-70.7-70.6h-8.8l70.6,70.6H1157z M962.8,1122.5l-70.7-70.6h-8.8l70.6,70.6H962.8z
        M980.5,1122.5l-70.7-70.6H901l70.6,70.6H980.5z M1174.7,1122.5l-70.6-70.6h-8.8l70.6,70.6H1174.7z M1315.9,416.1l-70.6-70.6
    h-8.8l70.6,70.6H1315.9z M1192.3,1122.5l-70.6-70.6h-8.8l70.7,70.6H1192.3z M1527.8,1122.5l-70.6-70.6h-8.8l70.6,70.6H1527.8z
        M706.8,221.9l-53.2-53.2h-8.8l62,62L706.8,221.9L706.8,221.9z M706.8,168.9l-0.2-0.2h-8.8l9,9L706.8,168.9L706.8,168.9z
        M706.8,186.6l-17.9-17.9h-8.8l26.7,26.7V186.6z M706.8,204.3l-35.5-35.5h-8.8l44.3,44.4V204.3z M706.8,257.2l-70.6-70.6v8.8
    l70.6,70.6V257.2z M706.8,239.6l-70.6-70.6v8.8l70.6,70.6V239.6z M874.5,416.1l-70.6-70.6H795l70.6,70.6H874.5z M803.8,416.1
    l-70.6-70.6h-8.8l70.6,70.6H803.8z M856.8,416.1l-70.7-70.6h-8.8l70.7,70.6H856.8z M706.8,274.9l-70.6-70.6v8.8l70.6,70.7V274.9z
        M821.5,416.1l-70.6-70.6H742l70.6,70.6H821.5z M839.1,416.1l-70.6-70.6h-8.8l70.6,70.6H839.1z M556.6,416.1L486,345.5h-8.8
    l70.6,70.6H556.6z M892.3,416.1l-70.7-70.6h-8.8l70.6,70.6H892.3z M539,416.1l-70.6-70.6h-8.8l70.6,70.6H539z M574.3,416.1
    l-70.6-70.6h-8.8l70.6,70.6H574.3z M592,416.1l-70.6-70.6h-8.8l70.6,70.6H592z M521.3,416.1l-70.6-70.6h-8.8l70.6,70.6H521.3z
        M503.6,416.1L433,345.5h-8.8l70.6,70.6H503.6z M636.1,416.1L636.1,416.1l0.1,8.8l70.6,70.6v-8.8L636.1,416.1l8.9,0l61.8,61.8
    v-8.8l-53-53h8.8l44.1,44.1v-8.8l-35.3-35.3h8.8l26.5,26.5v-8.8l-17.7-17.7h8.8l8.8,8.8v-8.8l0,0h8.8l-8.8-8.8v0l0,0v-8.8
    l17.6,17.6h8.8l-26.5-26.5v0l0,0v-8.8l35.2,35.2h8.8L706.7,372v-0.1l0,0v-8.8l52.9,52.9h8.8l-61.8-61.7v-0.1l0,0v-8.8l70.6,70.5
    h8.8l-70.6-70.6h-8.8l-70.6-70.6v8.8l61.8,61.8h-8.8l-53-53v8.8l44.1,44.1h-8.8l-35.3-35.3v8.8l26.5,26.5h-8.8l-17.6-17.6v8.8
    l8.8,8.8h-8.9v8.8l-8.8-8.8h-8.8l17.7,17.6v8.8l-26.5-26.5h-8.8l35.3,35.3v8.9l-44.2-44.2h-8.8l53,53v8.8l-61.8-61.8h-8.8
    L636.1,416.1L636.1,416.1L636.1,416.1z M706.8,327.9l-70.6-70.6v8.8l70.6,70.6V327.9z M706.8,310.2l-70.6-70.6v8.8l70.6,70.6
    V310.2z M609.6,416.1L539,345.5h-8.8l70.6,70.6H609.6z M706.8,292.6l-70.6-70.6v8.8l70.6,70.6V292.6z M627.2,416.1l-70.6-70.6
    h-8.8l70.6,70.6H627.2z M1157,416.1l-70.7-70.6h-8.8l70.6,70.6H1157z M1298.3,416.1l-70.6-70.6h-8.8l70.6,70.6H1298.3z
        M1060.1,168.9l-0.2-0.2h-8.8l9,9V168.9z M1174.7,416.1l-70.6-70.6h-8.8l70.6,70.6H1174.7z M1060.1,204.3l-35.5-35.5h-8.8
    l44.3,44.4V204.3z M1192.3,416.1l-70.6-70.6h-8.8l70.7,70.6H1192.3z M1060.1,186.6l-17.9-17.9h-8.8l26.7,26.7L1060.1,186.6
    L1060.1,186.6z M1210,416.1l-70.7-70.6h-8.8l70.6,70.6H1210z M1060.1,221.9l-53.2-53.2h-8.8l62,62V221.9z M1263,416.1l-70.7-70.6
    h-8.8l70.7,70.6H1263z M1280.7,416.1l-70.7-70.6h-8.8l70.6,70.6H1280.7z M1245.3,416.1l-70.6-70.6h-8.8l70.6,70.6H1245.3z
        M1227.7,416.1l-70.7-70.6h-8.8l70.6,70.6H1227.7z M909.7,416.1l-70.7-70.6h-8.8l70.6,70.6H909.7z M962.8,416.1l-70.7-70.6h-8.8
    l70.6,70.6H962.8z M980.5,416.1l-70.7-70.6H901l70.6,70.6H980.5z M945.2,416.1l-70.7-70.6h-8.8l70.6,70.6H945.2z M927.6,416.1
    l-70.7-70.6h-8.8l70.6,70.6H927.6z M1060.1,239.6l-70.6-70.6v8.8l70.6,70.6V239.6z M989.4,416.1L989.4,416.1L989.4,416.1l0,8.8
    l70.6,70.6v-8.8L989.4,416.1l8.9,0l61.8,61.8v-8.8l-53-53h8.8l44.1,44.1v-8.8l-35.3-35.3h8.8l26.5,26.5v-8.8l-17.7-17.7h8.8
    l8.8,8.8v-8.8l0,0v0h8.7l-8.7-8.7v-0.2l0,0v-8.7l17.5,17.5h8.8l-26.3-26.3v-0.2l0,0V381l35.2,35.2h8.8l-44-44V372l0,0v-8.7
    l52.8,52.8h8.8l-61.7-61.6v-0.2l0,0v-8.7l70.5,70.5h8.8l-70.6-70.6h-8.7l-70.6-70.6v8.8l61.8,61.8h-8.8l-53-53v8.8l44.1,44.1
    h-8.8l-35.3-35.3v8.8l26.5,26.5h-8.8l-17.6-17.6v8.8l8.8,8.8h-8.9v9l-9-9h-8.8l17.8,17.8v8.8l-26.6-26.6H954l35.4,35.4v8.8
    l-44.3-44.3h-8.8l53.1,53.1v8.8l-61.9-61.9h-8.8L989.4,416.1L989.4,416.1L989.4,416.1z M1060.1,327.9l-70.6-70.6v8.8l70.6,70.6
    V327.9z M1060.1,257.2l-70.6-70.6v8.8l70.6,70.6V257.2z M1060.1,274.9l-70.6-70.6v8.8l70.6,70.7V274.9z M1060.1,310.2l-70.6-70.6
    v8.8l70.6,70.6V310.2z M1060.1,292.6l-70.6-70.6v8.8l70.6,70.6V292.6z"/>
    
    <path class="st2" d="M882.5,821.6L811.9,751v8.8l70.6,70.6V821.6z M882.5,804l-70.6-70.6v8.8l70.6,70.7V804z M882.5,733.4
    l-70.6-70.6v8.8l70.6,70.6V733.4z M953.3,521.7l70.6,70.6h8.8l-70.7-70.6H953.3z M882.5,751.1l-70.6-70.6v8.8l70.6,70.6V751.1z
        M811.9,795.1l70.6,70.7v-8.8l-70.6-70.6V795.1z M1164.9,406.6l70.6,70.6v-8.8l-70.6-70.6V406.6z M882.5,839.3l-70.6-70.6v8.8
    l70.6,70.6V839.3z M918,521.7l70.6,70.6h8.8l-70.6-70.6H918z M935.7,521.7l70.7,70.6h8.8l-70.6-70.6H935.7z M900.3,521.7
    l70.7,70.6h8.8l-70.7-70.6H900.3z M882.7,521.7l70.7,70.6h8.8l-70.6-70.6H882.7z M882.5,768.7L811.9,698v8.8l70.6,70.6V768.7z
        M635.7,521.7l70.6,70.6h8.8l-70.7-70.6H635.7z M653,521.7l70.6,70.6h8.8l-26.7-26.7v0l-44-43.9H653z M670.7,521.7l35.1,35.1
    v-0.2l35.7,35.7h8.8l-70.7-70.6L670.7,521.7L670.7,521.7z M882.5,715.7l-70.6-70.6v8.8l70.6,70.6V715.7z M600.1,521.7l70.7,70.6
    h8.8l-70.7-70.6H600.1z M617.8,521.7l70.6,70.6h8.8l-70.6-70.6H617.8z M882.5,697.9l-70.6-70.6v8.8l70.6,70.6V697.9z
        M882.5,680.3l-70.6-70.6v8.8l70.6,70.6V680.3z M688.3,521.7l70.6,70.6h8.8l-70.7-70.6H688.3z M706.1,521.7l70.6,70.6h8.8
    l-70.7-70.6H706.1z M723.8,521.7l70.6,70.6h8.8l-70.7-70.6H723.8z M1235.5,715.6l-70.6-70.6v8.8l70.6,70.6V715.6z M1164.9,795.1
    l70.6,70.7v-8.8l-70.6-70.6V795.1z M1253.5,521.7l70.6,70.6h8.8l-70.6-70.6H1253.5z M1235.8,521.7l70.7,70.6h8.8l-70.6-70.6
    H1235.8z M1235.5,839.3l-70.6-70.6v8.8l70.6,70.6V839.3z M1235.5,804l-70.6-70.6v8.8l70.6,70.7V804z M1235.5,821.6l-70.6-70.7
    v8.8l70.6,70.6V821.6z M1164.9,441.9l70.6,70.6v-8.8l-70.6-70.6V441.9z M1164.9,424.3l70.6,70.6v-8.8l-70.6-70.6V424.3z
        M1271.2,521.7l70.6,70.6h8.8l-70.6-70.6H1271.2z M1235.5,786.3l-70.6-70.6v8.8l70.6,70.6V786.3z M1288.8,521.7l70.6,70.6h8.8
    l-70.6-70.6H1288.8z M971,521.7l70.6,70.6h8.8l-70.7-70.6H971z M1385.9,592.4l-70.7-70.6h-8.8l70.7,70.6H1385.9z M1041.6,521.7
    l70.6,70.6h8.8l-70.6-70.6H1041.6z M1059.3,521.7l70.6,70.6h8.8l-70.6-70.6H1059.3z M1024,521.7l70.6,70.6h8.8l-70.6-70.6H1024z
        M988.7,521.7l70.6,70.6h8.8l-70.6-70.6H988.7z M1076.9,521.7l70.6,70.6h8.8l-70.6-70.6H1076.9z M1006.3,521.7l70.6,70.6h8.8
    l-70.7-70.6H1006.3z M1235.5,733.4l-70.6-70.6v8.8l70.6,70.6V733.4z M1235.5,751l-70.6-70.6v8.8l70.6,70.6V751z M1235.5,768.7
    l-70.6-70.6v8.8l70.6,70.6V768.7z M1235.5,697.9l-70.6-70.6v8.8l70.6,70.6V697.9z M582.5,521.7l70.6,70.6h8.8l-70.6-70.6H582.5z
        M1235.5,680.3l-70.6-70.6v8.8l70.6,70.6V680.3z M882.5,786.3l-70.6-70.6v8.8l70.6,70.6V786.3z M176.1,715.6l-70.6-70.6v8.8
    l70.6,70.6V715.6z M176.1,733.2l-70.6-70.6v8.8l70.6,70.6V733.2z M176.1,697.9l-70.6-70.6v8.8l70.6,70.6V697.9z M176.1,680.3
    l-70.6-70.6v8.8l70.6,70.6V680.3z M176.1,751l-70.6-70.6v8.8l70.6,70.6V751z M17.4,521.7l70.6,70.6h8.8l-70.7-70.6H17.4z
        M-0.2,521.7l70.6,70.6h8.8L8.6,521.7H-0.2z M176.1,821.6L105.5,751v8.8l70.6,70.6V821.6z M105.5,795.1l70.6,70.7v-8.8
    l-70.6-70.6C105.5,786.3,105.5,795.1,105.5,795.1z M176.1,786.3l-70.6-70.6v8.8l70.6,70.6V786.3z M176.1,768.7L105.5,698v8.8
    l70.6,70.6V768.7z M176.1,804l-70.6-70.6v8.8l70.6,70.7V804z M176.1,839.3l-70.6-70.6v8.8l70.6,70.6V839.3z M96.5,945.2
    l-70.7-70.6H17l70.6,70.6H96.5z M273.1,945.2l-70.6-70.6h-8.8l70.6,70.6H273.1z M308.4,945.2l-70.6-70.6h-8.8l70.7,70.6H308.4z
        M564.8,521.7l70.6,70.6h8.8l-70.6-70.6H564.8z M343.7,945.2l-70.6-70.6h-8.8l70.6,70.6H343.7z M-0.4,238.6l0.2,0.2h8.8l-9-9
    L-0.4,238.6L-0.4,238.6z M326,945.2l-70.6-70.6h-8.8l70.6,70.6H326z M-0.4,556.8l35.5,35.5h8.8L-0.4,548
    C-0.4,548-0.4,556.8-0.4,556.8z M-0.4,539.2l53.2,53.2h8.8l-62-62C-0.4,530.4-0.4,539.2-0.4,539.2z M70,945.2h8.8L8.2,874.6h-8.8
    L70,945.2z M-0.4,592.1l0.2,0.2h8.8l-9-9L-0.4,592.1L-0.4,592.1z M-0.4,574.5l17.9,17.9h8.8l-26.7-26.7
    C-0.5,565.7-0.5,574.5-0.4,574.5z M290.7,945.2l-70.6-70.6h-8.8l70.6,70.6H290.7z M529.2,751l-70.6-70.6v8.8l70.6,70.6V751z
        M529.2,768.7L458.5,698v8.8l70.6,70.6V768.7z M529.2,786.3l-70.6-70.6v8.8l70.6,70.6V786.3z M529.2,715.6l-70.6-70.6v8.8
    l70.6,70.6V715.6z M529.2,697.7l-70.6-70.6v8.8l70.6,70.6V697.7z M529.2,733.2l-70.6-70.6v8.8l70.6,70.6V733.2z M529.2,804
    l-70.6-70.6v8.8l70.6,70.7V804z M529.2,821.6L458.5,751v8.8l70.6,70.6V821.6z M547.1,521.7l70.6,70.6h8.8l-70.6-70.6H547.1z
        M529.5,521.7l70.7,70.6h8.8l-70.6-70.6H529.5z M529.2,839.3l-70.6-70.6v8.8l70.6,70.6V839.3z M458.5,795.1l70.6,70.7v-8.8
    l-70.6-70.6V795.1z M352.9,521.7l70.6,70.6h8.8l-70.6-70.6H352.9z M282.3,521.7l70.6,70.6h8.8l-70.6-70.6H282.3z M229.3,521.7
    l70.6,70.6h8.8l-70.6-70.6H229.3z M529.2,680.3l-70.6-70.6v8.8l70.6,70.6V680.3z M247,521.7l70.6,70.6h8.8l-70.6-70.6H247z
        M194,521.7l70.6,70.6h8.8l-70.6-70.6H194z M211.6,521.7l70.6,70.6h8.8l-70.6-70.6H211.6z M264.6,521.7l70.6,70.6h8.8l-70.6-70.6
    H264.6z M299.9,521.7l70.6,70.6h8.8l-70.6-70.6H299.9z M370.6,521.7l70.6,70.6h8.8l-70.6-70.6H370.6z M176.3,521.7l70.7,70.6h8.8
    l-70.6-70.6H176.3z M317.6,521.7l70.6,70.6h8.8l-70.6-70.6H317.6z M335.3,521.7l70.6,70.6h8.8l-70.6-70.6H335.3z M1164.9,336
    l70.6,70.6v-8.8l-70.6-70.6V336z M529.2,1192.4l-70.6-70.6v8.8l70.6,70.6V1192.4z M529.2,1157.1l-70.6-70.6v8.8l70.6,70.7V1157.1
    z M882.5,1033.5l-70.6-70.7v8.8l70.6,70.6V1033.5z M458.5,1148.3l70.6,70.7v-8.8l-70.6-70.7V1148.3z M529.2,1174.8l-70.6-70.6
    v8.8l70.6,70.7V1174.8z M882.5,1051.2l-70.6-70.7v8.8l70.6,70.6V1051.2z M529.2,883.4v-8.8l70.6,70.5h8.8l-70.6-70.6h-8.8
    l-70.6-70.6v8.8l61.8,61.8h-8.8l-53-53v8.8l44.1,44.2h-8.9l-35.3-35.3v8.8l26.5,26.5h-8.8l-17.6-17.6v8.8l8.8,8.8h-8.9v8.8
    l-8.8-8.8h-8.8l17.7,17.7v8.8L432,874.5h-8.8l35.3,35.3v8.8l-44.2-44.2h-8.8l53,53v8.8l-61.8-61.8h-8.8l70.6,70.6v0h0.1v8.8
    l70.6,70.6v-8.8l-70.6-70.6h8.9l61.8,61.8v-8.8l-53-53h8.8l44.1,44.1v-8.8l-35.3-35.3h8.8l26.5,26.5v-8.8l-17.7-17.7h8.8l8.8,8.8
    v-8.8l0,0h8.8l-8.8-8.8v0l0,0v-8.8l17.6,17.6h8.8l-26.5-26.5v0l0,0v-8.8l35.2,35.2h8.8l-44.1-44.1V901l0,0v-8.8l52.9,52.9h8.8
    L529.2,883.4L529.2,883.4L529.2,883.4z M882.5,1121.8l-70.6-70.6v8.8l70.6,70.7V1121.8z M882.5,1139.5l-70.6-70.7v8.8l70.6,70.6
    V1139.5z M882.5,1068.8l-70.6-70.6v8.8l70.6,70.6V1068.8z M882.5,1104.2l-70.6-70.7v8.8l70.6,70.7V1104.2z M882.5,1086.5
    l-70.6-70.6v8.8l70.6,70.7V1086.5z M176.1,1192.4l-70.6-70.6v8.8l70.6,70.6V1192.4z M882.5,1157.1l-70.6-70.6v8.8l70.6,70.7
    V1157.1z M176.1,883.4v-8.7l70.5,70.5h8.8l-70.6-70.6h-8.7L105.5,804v8.8l61.8,61.8h-8.8l-53-53v8.8l44.1,44.2h-8.9l-35.3-35.3
    v8.8l26.5,26.5h-8.8l-17.6-17.6v8.8l8.8,8.8h-8.9v9l-9-9h-8.8l17.8,17.8v8.8l-26.6-26.6H70l35.4,35.5v8.8l-44.3-44.3h-8.8
    l53.1,53.1v8.8l-61.9-61.9h-8.8l70.6,70.6h0.1v0h0v8.8l70.6,70.6v-8.8l-70.6-70.6h8.8l61.8,61.8v-8.8l-53-53h8.8l44.1,44.1v-8.8
    l-35.3-35.3h8.8l26.5,26.5v-8.8l-17.7-17.7h8.8l8.8,8.8v-8.8l0,0v0h8.7l-8.7-8.7v-0.2l0,0v-8.7l17.5,17.5h8.8l-26.3-26.3v-0.2
    l0,0V910l35.2,35.2h8.8l-44-44V901l0,0v-8.7l52.8,52.8h8.8l-61.6-61.6L176.1,883.4L176.1,883.4z M105.5,1148.3l70.6,70.7v-8.8
    l-70.6-70.7C105.5,1139.4,105.5,1148.3,105.5,1148.3z M529.2,1033.5l-70.6-70.7v8.8l70.6,70.6V1033.5z M176.1,1174.8l-70.6-70.6
    v8.8l70.6,70.7V1174.8z M529.2,1139.5l-70.6-70.7v8.8l70.6,70.6V1139.5z M176.1,1157.1l-70.6-70.6v8.8l70.6,70.7V1157.1z
        M529.2,1104.2l-70.6-70.7v8.8l70.6,70.7V1104.2z M529.2,1121.8l-70.6-70.6v8.8l70.6,70.7V1121.8z M529.2,1086.5l-70.6-70.6v8.8
    l70.6,70.7V1086.5z M529.2,1068.8l-70.6-70.6v8.8l70.6,70.6V1068.8z M529.2,1051.2l-70.6-70.7v8.8l70.6,70.6V1051.2z
        M1403.2,238.9l-70.6-70.6h-8.8l70.6,70.6L1403.2,238.9L1403.2,238.9z M1235.5,1174.8l-70.6-70.6v8.8l70.6,70.7V1174.8z
        M1367.9,238.9l-70.6-70.6h-8.8l70.6,70.6L1367.9,238.9L1367.9,238.9z M1235.5,883.4v-8.8l70.6,70.5h8.8l-70.6-70.6h-8.8
    l-70.6-70.6v8.8l61.8,61.8h-8.8l-52.9-53v8.8l44.1,44.2h-8.8l-35.3-35.3v8.8l26.5,26.5h-8.8l-17.6-17.6v8.8l8.8,8.8h-8.9v8.8
    l-8.8-8.8h-8.8l17.7,17.7v8.8l-26.5-26.5h-8.8l35.3,35.3v8.8l-44.2-44.2h-8.8l53,53v8.8l-61.8-61.8h-8.8l70.6,70.6v0h0.1v8.8
    l70.6,70.6v-8.8l-70.6-70.6h8.8l61.8,61.8v-8.8l-53-53h8.8l44.1,44.1v-8.8l-35.3-35.3h8.8l26.5,26.5v-8.8l-17.7-17.7h8.8l8.8,8.8
    v-8.8l0,0h8.8l-8.8-8.8v0l0,0v-8.8l17.6,17.6h8.8l-26.5-26.5v0l0,0v-8.8l35.2,35.2h8.8l-44.1-44.1V901l0,0v-8.8l52.9,52.9h8.8
    L1235.5,883.4L1235.5,883.4L1235.5,883.4z M1235.5,1192.4l-70.6-70.6v8.8l70.6,70.6V1192.4z M1385.6,238.9l-70.7-70.6h-8.8
    l70.7,70.6L1385.6,238.9L1385.6,238.9z M1164.9,1148.3l70.6,70.7v-8.8l-70.6-70.7V1148.3z M1350.2,238.9l-70.6-70.6h-8.8
    l70.6,70.6L1350.2,238.9L1350.2,238.9z M1411.8,176.9l-8.6-8.6h-8.8l17.4,17.4L1411.8,176.9L1411.8,176.9z M882.5,1174.8
    l-70.6-70.6v8.8l70.6,70.7V1174.8z M1411.8,194.5l-26.3-26.3h-8.8l35.1,35.1L1411.8,194.5L1411.8,194.5z M1411.8,212.2
    l-43.9-43.9h-8.8l52.8,52.8V212.2z M1411.8,229.8l-61.6-61.6h-8.8l70.4,70.4V229.8z M176.1,1139.5l-70.6-70.7v8.8l70.6,70.6
    V1139.5z M1235.5,1051.2l-70.6-70.7v8.8l70.6,70.6V1051.2z M882.5,883.4v-8.7l70.5,70.5h8.8l-70.6-70.6h-8.7L811.9,804v8.8
    l61.8,61.8h-8.8l-53-53v8.8l44.1,44.2h-8.8l-35.3-35.3v8.8l26.5,26.5h-8.8l-17.6-17.6v8.8l8.8,8.8h-8.9v9l-9-9H794l17.8,17.8v8.8
    l-26.6-26.6h-8.8l35.4,35.4v8.8l-44.3-44.3h-8.8l53.1,53.1v8.8l-61.9-61.9h-8.8l70.7,70.6h0.1v0h0v8.8l70.6,70.6v-8.8l-70.6-70.6
    h8.8l61.8,61.8v-8.8l-53-53h8.8l44.1,44.1v-8.8l-35.3-35.3h8.8l26.5,26.5v-8.8l-17.7-17.7h8.8l8.8,8.8v-8.8l0,0v0h8.7l-8.7-8.7
    v-0.2l0,0v-8.7l17.5,17.5h8.8l-26.3-26.3v-0.2l0,0V910l35.2,35.2h8.8l-44-44V901l0,0v-8.7l52.8,52.8h8.8l-61.7-61.6L882.5,883.4
    L882.5,883.4z M1235.5,1033.5l-70.6-70.7v8.8l70.6,70.6V1033.5z M811.9,1148.3l70.6,70.7v-8.8l-70.6-70.7V1148.3z M882.5,1192.4
    l-70.6-70.6v8.8l70.6,70.6V1192.4z M1235.5,1157.1l-70.6-70.6v8.8l70.6,70.7V1157.1z M1235.5,1139.5l-70.6-70.7v8.8l70.6,70.6
    V1139.5z M1235.5,1121.8l-70.6-70.6v8.8l70.6,70.7V1121.8z M1235.5,1086.5l-70.6-70.6v8.8l70.6,70.7V1086.5z M1235.5,1104.2
    l-70.6-70.7v8.8l70.6,70.7V1104.2z M1235.5,1068.8l-70.6-70.6v8.8l70.6,70.6V1068.8z M105.5,318.3l70.6,70.6v-8.8l-70.6-70.6
    C105.5,309.5,105.5,318.3,105.5,318.3z M811.9,283l70.6,70.6v-8.8l-70.6-70.6V283z M811.9,371.3l70.6,70.6v-8.8l-70.6-70.6V371.3
    z M811.9,318.3l70.6,70.6v-8.8l-70.6-70.6V318.3z M811.9,300.7l70.6,70.6v-8.8l-70.6-70.6V300.7z M811.9,353.6l70.6,70.6v-8.8
    l-70.6-70.6V353.6z M811.9,336l70.6,70.6v-8.8l-70.6-70.6V336z M882.5,327.2l-70.6-70.6v8.8l70.6,70.6V327.2z M458.5,406.6
    l70.6,70.6v-8.8l-70.6-70.6V406.6z M458.5,388.9l70.6,70.6v-8.8l-70.6-70.6V388.9z M458.5,441.9l70.6,70.6v-8.8l-70.6-70.6V441.9
    z M750.3,521.7h-8.8l70.4,70.3v0.2h0v8.5l70.6,70.6v-8.8l-70.3-70.3h8.7l-0.1-0.1h0.2l61.5,61.5V645l-52.6-52.6h8.7l-0.1-0.1h0.1
    l43.9,43.9v-8.8l-35-35h8.7l-0.1-0.1h0.2l26.2,26.2v-8.8l-17.3-17.3h8.7l-0.1-0.1h0.2l8.6,8.6v-8.7l0.2,0.2h8.8l-9-9v-0.2l0,0
    v-8.7l17.9,17.9h8.8l-26.7-26.7v-0.2l0,0v-8.7l35.5,35.5h8.8L882.4,548v-0.1l0,0v-8.7l53.2,53.2h8.8l-62-62v-0.2l0,0v-8.8
    l-70.6-70.6v8.8l62,62H865l-53.2-53.2v8.8l44.4,44.4h-8.8L811.8,486v8.8l26.7,26.7h-8.8l-17.9-17.9v8.8l9.1,9.1h-9.1v8.7
    l-8.6-8.6h-8.8l17.4,17.4v8.8l-26.3-26.2h-8.8l35.1,35.1v8.8l-43.9-43.9H759l52.7,52.7v8.8L750.3,521.7z M458.5,424.3l70.6,70.6
    v-8.8l-70.6-70.6V424.3z M811.9,388.9l70.6,70.6v-8.8l-70.6-70.6V388.9z M361.4,945.2l-70.6-70.6h-8.8l70.6,70.6H361.4z
        M1164.9,318.3l70.6,70.6v-8.8l-70.6-70.6V318.3z M1164.9,300.7l70.6,70.6v-8.8l-70.6-70.6V300.7z M1235.5,327.2l-70.6-70.6v8.8
    l70.6,70.6V327.2z M1164.9,353.6l70.6,70.6v-8.8l-70.6-70.6V353.6z M1164.9,371.3l70.6,70.6v-8.8l-70.6-70.6V371.3z M458.5,371.3
    l70.6,70.6v-8.8l-70.6-70.6V371.3z M811.9,406.6l70.6,70.6v-8.8l-70.6-70.6V406.6z M811.9,424.3l70.6,70.6v-8.8l-70.6-70.6V424.3
    z M1103.4,521.7h-8.8l70.3,70.3v0.3h0v8.5l70.6,70.6v-8.8l-70.3-70.3h8.8l-0.1-0.1h0.1l61.5,61.5V645l-52.6-52.6h8.8l-0.1-0.1
    h0.1l43.9,43.9v-8.8l-35-35h8.8l-0.1-0.1h0.1l26.2,26.2v-8.8l-17.3-17.3h8.8l-0.1-0.1h0.1l8.6,8.6V592l0.3,0.3h8.8l-9.1-9.1v0
    l0,0v-8.8l18,18h8.8l-26.8-26.8v0l0,0v-8.8l35.6,35.6h8.8l-44.4-44.4v-0.1l0,0v-8.8l53.3,53.3h8.8l-62.1-62.1v-0.1l0,0v-8.8
    l-70.6-70.6v8.8l62,62h-8.8l-53.2-53.2v8.8l44.4,44.4h-8.8l-35.6-35.6v8.8l26.7,26.7h-8.8l-17.9-17.9v8.8l9.1,9.1h-9.1v8.6
    l-8.5-8.5h-8.8l17.3,17.3v8.8l-26.2-26.2h-8.8l35,35v8.8l-43.8-43.8h-8.8l52.6,52.6v8.8L1103.4,521.7z M1164.9,283l70.6,70.6
    v-8.8l-70.6-70.6V283z M811.9,441.9l70.6,70.6v-8.8l-70.6-70.6V441.9z M397,521.7h-8.8l70.3,70.3v0.3h0v8.5l70.6,70.6v-8.8
    l-70.3-70.3h8.8l-0.1-0.1h0.1l61.5,61.5V645l-52.6-52.6h8.8l-0.1-0.1h0.1l43.9,43.9v-8.8l-35-35h8.8l-0.1-0.1h0l26.2,26.2v-8.8
    l-17.3-17.3h8.8l-0.1-0.1h0l8.6,8.6V592l0.3,0.3h8.8l-9.1-9.1v0l0,0v-8.8l18,18h8.8l-26.8-26.8v0l0,0v-8.8l35.6,35.6h8.8
    l-44.4-44.4v-0.1l0,0v-8.8l53.3,53.3h8.8l-62.1-62.1v-0.1l0,0v-8.8l-70.6-70.6v8.8l62,62h-8.8l-53.2-53.2v8.8l44.4,44.4H494
    L458.5,486v8.8l26.7,26.7h-8.8l-17.9-17.9v8.8l9.1,9.1h-9.1v8.6l-8.5-8.5h-8.8l17.3,17.3v8.8l-26.2-26.2h-8.8l35,35v8.8
    l-43.8-43.8h-8.8l52.6,52.6v8.8L397,521.7z M176.1,327.2l-70.6-70.6v8.8l70.6,70.6V327.2z M105.5,283l70.6,70.6v-8.8l-70.6-70.6
    V283z M458.5,353.6l70.6,70.6v-8.8l-70.6-70.6V353.6z M105.5,353.6l70.6,70.6v-8.8l-70.6-70.6
    C105.5,344.8,105.5,353.6,105.5,353.6z M105.5,336l70.6,70.6v-8.8l-70.6-70.6C105.5,327.2,105.5,336,105.5,336z M1164.9,388.9
    l70.6,70.6v-8.8l-70.6-70.6V388.9z M43.9,521.7h-8.8l70.4,70.3v0.2h0v8.5l70.6,70.6v-8.8l-70.3-70.3h8.7l-0.1-0.1h0.2l61.5,61.5
    V645l-52.6-52.6h8.7l-0.1-0.1h0.1l43.9,43.9v-8.8l-35-35h8.7l-0.1-0.1h0.2l26.2,26.2v-8.8l-17.3-17.3h8.7l-0.1-0.1h0.2l8.6,8.6
    v-8.7l0.2,0.2h8.8l-9-9v-0.2l0,0v-8.7l17.9,17.9h8.8l-26.7-26.7v-0.2l0,0v-8.7l35.5,35.5h8.8L176.1,548v-0.1l0,0v-8.7l53.2,53.2
    h8.8l-62-62v-0.2l0,0v-8.8l-70.6-70.6v8.8l62,62h-8.8l-53.2-53.2v8.8l44.4,44.4H141L105.5,486v8.8l26.7,26.7h-8.8l-17.9-17.9v8.8
    l9.1,9.1h-9.1v8.7l-8.6-8.6H88l17.4,17.4v8.8l-26.3-26.2h-8.8l35.1,35.1v8.8l-43.9-43.9h-8.8l52.7,52.7v8.8L43.9,521.7z
        M176.1,1104.2l-70.6-70.7v8.8l70.6,70.7V1104.2z M176.1,1086.5l-70.6-70.6v8.8l70.6,70.7V1086.5z M176.1,1051.2l-70.6-70.7v8.8
    l70.6,70.6V1051.2z M176.1,1068.8l-70.6-70.6v8.8l70.6,70.6V1068.8z M176.1,1033.5l-70.6-70.7v8.8l70.6,70.6V1033.5z
        M105.5,300.7l70.6,70.6v-8.8l-70.6-70.6C105.5,291.9,105.5,300.7,105.5,300.7z M458.5,300.7l70.6,70.6v-8.8l-70.6-70.6V300.7z
        M529.2,327.2l-70.6-70.6v8.8l70.6,70.6V327.2z M458.5,283l70.6,70.6v-8.8l-70.6-70.6V283z M458.5,318.3l70.6,70.6v-8.8
    l-70.6-70.6V318.3z M458.5,336l70.6,70.6v-8.8l-70.6-70.6V336z M105.5,441.9l70.6,70.6v-8.8l-70.6-70.6
    C105.5,433.1,105.5,441.9,105.5,441.9z M105.5,388.9l70.6,70.6v-8.8l-70.6-70.6C105.5,380.1,105.5,388.9,105.5,388.9z
        M105.5,406.6l70.6,70.6v-8.8l-70.6-70.6C105.5,397.8,105.5,406.6,105.5,406.6z M105.5,424.3l70.6,70.6v-8.8l-70.6-70.6
    C105.5,415.5,105.5,424.3,105.5,424.3z M176.1,1121.8l-70.6-70.6v8.8l70.6,70.7V1121.8z M105.5,371.3l70.6,70.6v-8.8l-70.6-70.6
    C105.5,362.5,105.5,371.3,105.5,371.3z M458.5,1342.5l61.6,61.6h8.8l-70.4-70.4L458.5,1342.5L458.5,1342.5z M176.3,1228.1
    l70.7,70.6h8.8l-70.6-70.6H176.3z M176.1,1236.6L176.1,1236.6l0-8.8l-70.6-70.6v8.8l62,62h-8.8l-53.2-53.2v8.8l44.4,44.4H141
    l-35.6-35.6v8.8l26.7,26.7h-8.8l-17.9-17.9v8.8l9.1,9.1h-9.1v8.7l-8.6-8.6H88l17.4,17.4v8.8l-26.3-26.2h-8.8l35.1,35.1v8.8
    l-43.9-43.9h-8.8l52.7,52.7v8.8L43.9,1228h-8.8l70.4,70.3v0.2h0v8.6l70.6,70.6v-8.8l-70.3-70.3h8.7l-0.1-0.1h0.2l61.5,61.5v-8.8
    l-52.6-52.6h8.7l-0.1-0.1h0.1l43.9,43.9v-8.8l-35-35h8.7l-0.1-0.1h0.2l26.2,26.2v-8.8l-17.3-17.3h8.7l-0.1-0.1h0.2l8.6,8.6v-8.7
    l0.2,0.2h8.8l-9-9v-0.2l0,0v-8.7l17.9,17.9h8.8l-26.7-26.7v-0.2l0,0v-8.7l35.5,35.5h8.8l-44.4-44.3v-0.1l0,0v-8.7l53.2,53.2h8.8
    l-62-62L176.1,1236.6L176.1,1236.6z M105.5,1324.8l70.6,70.6v-8.8l-70.6-70.6C105.5,1316,105.5,1324.8,105.5,1324.8z
        M211.6,1228.1l70.6,70.6h8.8l-70.6-70.6H211.6z M194,1228.1l70.6,70.6h8.8l-70.6-70.6H194z M105.5,1342.5l61.6,61.6h8.8
    l-70.4-70.4L105.5,1342.5L105.5,1342.5z M229.3,1228.1l70.6,70.6h8.8l-70.6-70.6H229.3z M-0.2,1228.1l70.6,70.6h8.8l-70.7-70.6
    H-0.2z M17.4,1228.1l70.6,70.6h8.8l-70.7-70.6H17.4z M105.5,1377.8l26.3,26.3h8.8l-35.1-35.1
    C105.5,1369,105.5,1377.8,105.5,1377.8z M105.5,1395.5l8.6,8.6h8.8l-17.4-17.4V1395.5z M105.5,1360.1l43.9,43.9h8.8l-52.8-52.8
    V1360.1z M352.9,1228.1l70.6,70.6h8.8l-70.6-70.6H352.9z M-0.4,1245.5l53.2,53.2h8.8l-62-62C-0.4,1236.7-0.4,1245.5-0.4,1245.5z
        M458.5,1377.8l26.3,26.3h8.8l-35.1-35.1V1377.8z M247,1228.1l70.6,70.6h8.8l-70.6-70.6H247z M458.5,1395.5l8.6,8.6h8.8
    l-17.4-17.4L458.5,1395.5L458.5,1395.5z M458.5,1360.1l43.9,43.9h8.8l-52.8-52.8V1360.1z M458.5,1324.8l70.6,70.6v-8.8
    l-70.6-70.6V1324.8z M370.6,1228.1l70.6,70.6h8.8l-70.6-70.6H370.6z M264.6,1228.1l70.6,70.6h8.8l-70.6-70.6H264.6z
        M529.2,1236.6L529.2,1236.6v-8.8l-70.6-70.6v8.8l62,62h-8.8l-53.2-53.2v8.8l44.4,44.4h-8.8l-35.5-35.6v8.8l26.7,26.7h-8.8
    l-17.9-17.9v8.8l9.1,9.1h-9.1v8.6l-8.5-8.5h-8.8l17.3,17.3v8.8l-26.2-26.2h-8.8l35,35v8.8l-43.8-43.8h-8.8l52.6,52.6v8.8
    L397,1228h-8.8l70.3,70.3v0.3h0v8.6l70.6,70.6v-8.8l-70.3-70.3h8.8l-0.1-0.1h0.1l61.5,61.5v-8.8l-52.6-52.6h8.8l-0.1-0.1h0.1
    l43.9,43.9v-8.8l-35-35h8.8l-0.1-0.1h0l26.2,26.2v-8.8l-17.3-17.3h8.8l-0.1-0.1h0l8.6,8.6v-8.8l0.3,0.3h8.8l-9.1-9.1v-0.1l0,0
    v-8.8l18,18h8.8l-26.8-26.8v-0.1l0,0v-8.8l35.6,35.6h8.8l-44.4-44.4v-0.1l0,0v-8.8l53.3,53.3h8.8L529.2,1236.6L529.2,1236.6
    L529.2,1236.6z M282.3,1228.1l70.6,70.6h8.8l-70.6-70.6H282.3z M299.9,1228.1l70.6,70.6h8.8l-70.6-70.6H299.9z M317.6,1228.1
    l70.6,70.6h8.8l-70.6-70.6H317.6z M335.3,1228.1l70.6,70.6h8.8l-70.6-70.6H335.3z M176.1,97.6L105.5,27v8.8l70.6,70.7V97.6z
        M379,945.2l-70.6-70.6h-8.8l70.6,70.6H379z M176.1,115.3l-70.6-70.7v8.8l70.6,70.6V115.3z M176.1,150.6l-70.6-70.6v8.8
    l70.6,70.7V150.6z M176.1,62.3L105.5-8.3v8.8l70.6,70.6V62.3z M176.1,132.9l-70.6-70.7v8.8l70.6,70.6V132.9z M176.1,27L140.6-8.5
    h-8.8l44.3,44.3V27z M176.1,44.7L123-8.5h-8.8l62,62V44.7z M176.1-8.3l-0.2-0.2h-8.8l9,9V-8.3z M273.1,238.9l-70.6-70.6h-8.8
    l70.6,70.6L273.1,238.9L273.1,238.9z M176.1,9.3L158.2-8.5h-8.8l26.7,26.7V9.3z M105.5,238.9L105.5,238.9L105.5,238.9l0,8.8
    l70.6,70.6v-8.8L105.5,238.9l8.9,0l61.8,61.8v-8.8l-53-53h8.8l44.1,44.1v-8.8l-35.3-35.3h8.8l26.5,26.5v-8.8l-17.7-17.7h8.8
    l8.8,8.8v-8.8l0,0v0h8.7l-8.7-8.7V230l0,0v-8.7l17.5,17.5h8.8l-26.3-26.3v-0.2l0,0v-8.7l35.2,35.2h8.8l-44-44v-0.2l0,0V186
    l52.8,52.8h8.8l-61.6-61.6V177l0,0v-8.7l70.5,70.5h8.8l-70.6-70.6h-8.7l-70.6-70.6v8.8l61.8,61.8h-8.8l-52.9-53v8.8l44.1,44.2
    h-8.9l-35.3-35.3v8.8l26.5,26.5h-8.8l-17.6-17.6v8.8l8.8,8.8h-8.9v9l-9-9h-8.8l17.8,17.8v8.8l-26.6-26.6H70l35.4,35.4v8.8
    l-44.3-44.3h-8.8l53.1,53.1v8.8l-61.9-61.9h-8.8l70.7,70.6L105.5,238.9L105.5,238.9z M96.5,238.9l-70.7-70.6H17l70.6,70.6
    L96.5,238.9L96.5,238.9z M25.9,945.2l-26.7-26.7v8.8l17.9,17.9H25.9z M-0.2,945.1h8.8l-9-9v8.8L-0.2,945.1z M-0.4,1263.2
    l35.5,35.5h8.8l-44.3-44.3C-0.4,1254.4-0.4,1263.2-0.4,1263.2z M-0.4,1280.8l17.9,17.9h8.8L-0.5,1272
    C-0.5,1272-0.5,1280.8-0.4,1280.8z M290.7,238.9l-70.6-70.6h-8.8l70.6,70.6L290.7,238.9L290.7,238.9z M-0.4,1298.5l0.2,0.2h8.8
    l-9-9L-0.4,1298.5L-0.4,1298.5z M78.9,238.9L8.2,168.2h-8.8L70,238.9L78.9,238.9L78.9,238.9z M61.2,238.9l-62-62v8.8l53.2,53.2
    L61.2,238.9L61.2,238.9z M61.2,945.2l-62-62v8.8l53.2,53.2H61.2z M43.5,238.9l-44.3-44.3v8.8l35.5,35.5H43.5z M25.9,238.9
    l-26.7-26.7v8.8l17.9,17.9H25.9z M43.5,945.2l-44.3-44.3v8.8l35.5,35.5L43.5,945.2L43.5,945.2z M1253.5,1228.1l70.6,70.6h8.8
    l-70.6-70.6H1253.5z M1164.9,1324.8l70.6,70.6v-8.8l-70.6-70.6V1324.8z M1164.9,1377.8l26.3,26.3h8.8l-35.1-35.1L1164.9,1377.8
    L1164.9,1377.8z M1164.9,1360.1l43.9,43.9h8.8l-52.8-52.8V1360.1z M1235.8,1228.1l70.7,70.6h8.8l-70.6-70.6H1235.8z
        M1235.5,1236.6L1235.5,1236.6v-8.8l-70.6-70.6v8.8l62,62h-8.8l-53.2-53.2v8.8l44.4,44.4h-8.8l-35.6-35.6v8.8l26.7,26.7h-8.8
    l-17.9-17.9v8.8l9.1,9.1h-9.1v8.6l-8.5-8.5h-8.8l17.3,17.3v8.8l-26.2-26.2h-8.8l35,35v8.8L1121,1228h-8.8l52.6,52.6v8.8
    l-61.5-61.5h-8.8l70.3,70.3v0.3h0v8.6l70.6,70.6v-8.8l-70.3-70.3h8.8l-0.1-0.1h0.1l61.5,61.5v-8.8l-52.6-52.6h8.8l-0.1-0.1h0.1
    l43.9,43.9v-8.8l-35-35h8.8l-0.1-0.1h0.1l26.2,26.2v-8.8l-17.3-17.3h8.8l-0.1-0.1h0.1l8.6,8.6v-8.8l0.3,0.3h8.8l-9.1-9.1v-0.1
    l0,0v-8.8l18,18h8.8l-26.8-26.8v-0.1l0,0v-8.8l35.6,35.6h8.8l-44.4-44.4v-0.1l0,0v-8.8l53.3,53.3h8.8L1235.5,1236.6
    L1235.5,1236.6L1235.5,1236.6z M1164.9,1342.5l61.6,61.6h8.8l-70.4-70.4L1164.9,1342.5L1164.9,1342.5z M1041.6,1228.1l70.6,70.6
    h8.8l-70.6-70.6H1041.6z M1024,1228.1l70.6,70.6h8.8l-70.6-70.6H1024z M1006.3,1228.1l70.6,70.6h8.8l-70.7-70.6H1006.3z
        M1059.3,1228.1l70.6,70.6h8.8l-70.6-70.6H1059.3z M1076.9,1228.1l70.6,70.6h8.8l-70.6-70.6H1076.9z M1164.9,1395.5l8.6,8.6h8.8
    l-17.4-17.4L1164.9,1395.5L1164.9,1395.5z M1341.8,521.7l70.4,70.4v-8.8l-61.6-61.6H1341.8z M1359.4,521.7l52.8,52.8v-8.8
    l-43.9-43.9H1359.4z M1394.8,1228.1l17.4,17.4v-8.8l-8.6-8.6L1394.8,1228.1L1394.8,1228.1z M1377.1,521.7l35.1,35.1V548
    l-26.3-26.3H1377.1z M1377.1,1228.1l35.1,35.1v-8.8l-26.3-26.3L1377.1,1228.1L1377.1,1228.1z M1271.2,1228.1l70.6,70.6h8.8
    l-70.6-70.6H1271.2z M1403.6,521.7h-8.8l17.4,17.4v-8.8L1403.6,521.7z M1306.5,1228.1l70.7,70.6h8.8l-70.7-70.6H1306.5z
        M1288.8,1228.1l70.6,70.6h8.8l-70.6-70.6H1288.8z M1324.1,1228.1l70.6,70.6h8.8l-70.6-70.6H1324.1z M529.5,1228.1l70.7,70.6h8.8
    l-70.6-70.6H529.5z M1359.4,1228.1l52.8,52.8v-8.8l-43.9-43.9H1359.4z M1341.8,1228.1l70.4,70.4v-8.8l-61.6-61.6H1341.8z
        M688.3,1228.1l70.6,70.6h8.8l-70.7-70.6H688.3z M670.7,1228.1l35.1,35.1v-0.2l35.7,35.7h8.8l-70.7-70.6H670.7z M705.8,1272
    l-44-43.9H653l70.6,70.6h8.8L705.8,1272L705.8,1272z M723.8,1228.1l70.6,70.6h8.8l-70.7-70.6H723.8z M811.9,1395.5l8.6,8.6h8.8
    l-17.5-17.4V1395.5z M706.1,1228.1l70.6,70.6h8.8l-70.7-70.6H706.1z M635.7,1228.1l70.6,70.6h8.8l-70.7-70.6H635.7z
        M564.8,1228.1l70.6,70.6h8.8l-70.6-70.6H564.8z M988.7,1228.1l70.6,70.6h8.8l-70.6-70.6H988.7z M547.1,1228.1l70.6,70.6h8.8
    l-70.6-70.6H547.1z M600.1,1228.1l70.7,70.6h8.8l-70.7-70.6H600.1z M582.5,1228.1l70.6,70.6h8.8l-70.6-70.6H582.5z M617.8,1228.1
    l70.6,70.6h8.8l-70.6-70.6H617.8z M935.7,1228.1l70.7,70.6h8.8l-70.6-70.6H935.7z M811.9,1377.8l26.3,26.3h8.8l-35.1-35.1V1377.8
    z M900.3,1228.1l70.6,70.6h8.8l-70.7-70.6H900.3z M971,1228.1l70.6,70.6h8.8l-70.7-70.6H971z M953.3,1228.1l70.6,70.6h8.8
    l-70.7-70.6H953.3z M918,1228.1l70.6,70.6h8.8l-70.6-70.6H918z M882.7,1228.1l70.7,70.6h8.8l-70.6-70.6H882.7z M811.9,1360.1
    l43.9,43.9h8.8l-52.8-52.8V1360.1z M811.9,1342.5l61.6,61.6h8.8l-70.4-70.4L811.9,1342.5L811.9,1342.5z M882.5,1236.6
    L882.5,1236.6l0-8.8l-70.6-70.6v8.8l62,62H865l-53.2-53.2v8.8l44.4,44.4h-8.8l-35.5-35.6v8.8l26.7,26.7h-8.8l-17.9-17.9v8.8
    l9.1,9.1h-9.1v8.7l-8.6-8.6h-8.8l17.4,17.4v8.8l-26.3-26.2h-8.8l35.1,35.1v8.8l-43.9-43.9h-8.8l52.7,52.7v8.8l-61.6-61.6h-8.8
    l70.4,70.3v0.2h0v8.6l70.6,70.6v-8.8l-70.3-70.3h8.7l-0.1-0.1h0.2l61.5,61.5v-8.8l-52.6-52.6h8.7l-0.1-0.1h0.1l43.9,43.9v-8.8
    l-35-35h8.7l-0.1-0.1h0.2l26.2,26.2v-8.8l-17.3-17.3h8.7l-0.1-0.1h0.2l8.6,8.6v-8.7l0.2,0.2h8.8l-9-9v-0.2l0,0v-8.7l17.9,17.9
    h8.8l-26.7-26.7v-0.2l0,0v-8.7l35.5,35.5h8.8l-44.4-44.3v-0.1l0,0v-8.7l53.2,53.2h8.8l-62-62L882.5,1236.6L882.5,1236.6z
        M811.9,1324.8l70.6,70.6v-8.8l-70.6-70.6V1324.8z M176.1,80L105.5,9.3v8.8l70.6,70.6V80z M1403.2,945.2l-70.6-70.6h-8.8
    l70.6,70.6H1403.2z M1138.3,945.2l-70.6-70.6h-8.8l70.6,70.6H1138.3z M1411.8,936.2l-61.6-61.6h-8.8l70.4,70.4V936.2z
        M1411.8,918.5l-43.9-43.9h-8.8l52.8,52.8V918.5z M1411.8,883.2l-8.6-8.6h-8.8l17.4,17.4L1411.8,883.2L1411.8,883.2z
        M1324.1,521.7l70.6,70.6h8.8l-70.6-70.6H1324.1z M308.4,238.9l-70.6-70.6h-8.8l70.7,70.6L308.4,238.9L308.4,238.9z
        M1332.6,945.2l-70.6-70.6h-8.8l70.6,70.6H1332.6z M1156,945.2l-70.6-70.6h-8.8l70.6,70.6H1156z M1367.9,945.2l-70.6-70.6h-8.8
    l70.6,70.6H1367.9z M1385.6,945.2l-70.7-70.6h-8.8l70.7,70.6H1385.6z M1332.6,238.9l-70.6-70.6h-8.8l70.6,70.6L1332.6,238.9
    L1332.6,238.9z M1411.8,900.8l-26.3-26.3h-8.8l35.1,35.1L1411.8,900.8L1411.8,900.8z M1235.5,97.6L1164.9,27v8.8l70.6,70.7V97.6z
        M1235.5,150.6l-70.6-70.6v8.8l70.6,70.7V150.6z M1235.5,115.3l-70.6-70.7v8.8l70.6,70.6V115.3z M1235.5,132.9l-70.6-70.6v8.8
    l70.6,70.6V132.9z M1156,238.9l-70.6-70.6h-8.8l70.6,70.6L1156,238.9L1156,238.9z M1235.5-8.3l-0.2-0.2h-8.8l9,9L1235.5-8.3
    L1235.5-8.3z M1164.8,238.9L1164.8,238.9l0.1,8.8l70.6,70.6v-8.8L1164.8,238.9l8.9,0l61.8,61.8v-8.8l-53-53h8.8l44.1,44.1v-8.8
    l-35.3-35.3h8.8l26.5,26.5v-8.8l-17.7-17.7h8.8l8.8,8.8v-8.8l0,0h8.8l-8.8-8.8V230l0,0v-8.8l17.6,17.6h8.8l-26.5-26.4v-0.1l0,0
    v-8.8l35.2,35.2h8.8l-44.1-44.1v-0.1l0,0v-8.8l52.9,52.9h8.8l-61.8-61.7V177l0,0v-8.8l70.6,70.6h8.8l-70.6-70.6h-8.8l-70.6-70.6
    v8.8l61.8,61.8h-8.8l-52.9-53v8.8l44.1,44.2h-8.8l-35.3-35.3v8.8l26.5,26.5h-8.8l-17.6-17.6v8.8l8.8,8.8h-8.9v8.8l-8.8-8.8h-8.8
    l17.7,17.6v8.8l-26.5-26.5h-8.8l35.3,35.3v8.9l-44.2-44.2h-8.8l53,53v8.8l-61.8-61.8h-8.8L1164.8,238.9L1164.8,238.9z M1235.5,27
    L1200-8.5h-8.8l44.3,44.3L1235.5,27L1235.5,27z M1235.5,80l-70.6-70.6v8.8l70.6,70.6V80z M1235.5,9.3l-17.9-17.9h-8.8l26.7,26.7
    L1235.5,9.3L1235.5,9.3z M1235.5,62.3l-70.6-70.6v8.8l70.6,70.6V62.3z M1235.5,44.7l-53.2-53.2h-8.8l62,62L1235.5,44.7
    L1235.5,44.7z M767.6,945.2l-70.7-70.6h-8.8l70.6,70.6H767.6z M696.8,945.2l-70.6-70.6h-8.8l70.6,70.6H696.8z M679.2,945.2
    l-70.7-70.6h-8.8l70.7,70.6H679.2z M643.9,945.2l-70.6-70.6h-8.8l70.6,70.6H643.9z M661.5,945.2l-70.6-70.6h-8.8l70.6,70.6H661.5
    z M732.1,945.2l-70.7-70.6h-8.8l70.6,70.6H732.1z M714.7,945.2l-70.7-70.6h-8.8l70.6,70.6H714.7z M750,945.2l-70.7-70.6h-8.8
    l70.6,70.6H750z M396.7,945.2L326,874.6h-8.8l70.6,70.6H396.7z M626.2,945.2l-70.6-70.6h-8.8l70.6,70.6H626.2z M414.3,945.2
    l-70.6-70.6h-8.8l70.6,70.6H414.3z M449.6,945.2L379,874.6h-8.8l70.6,70.6H449.6z M432,945.2l-70.6-70.6h-8.8l70.6,70.6H432z
        M1032.4,945.2l-70.7-70.6H953l70.6,70.6H1032.4z M1050.1,945.2l-70.7-70.6h-8.8l70.6,70.6H1050.1z M1120.7,945.2l-70.6-70.6
    h-8.8l70.6,70.6H1120.7z M1067.7,945.2l-70.6-70.6h-8.8l70.6,70.6H1067.7z M1085.4,945.2l-70.7-70.6h-8.8l70.6,70.6H1085.4z
        M1103,945.2l-70.6-70.6h-8.8l70.6,70.6H1103z M979.4,945.2l-70.7-70.6H900l70.6,70.6H979.4z M785.2,945.2l-70.7-70.6h-8.8
    l70.6,70.6H785.2z M802.9,945.2l-70.7-70.6h-8.8l70.6,70.6H802.9z M997.1,945.2l-70.6-70.6h-8.8l70.6,70.6H997.1z M1138.3,238.9
    l-70.6-70.6h-8.8l70.6,70.6L1138.3,238.9L1138.3,238.9z M1014.8,945.2l-70.6-70.6h-8.8l70.7,70.6H1014.8z M1350.2,945.2
    l-70.6-70.6h-8.8l70.6,70.6H1350.2z M529.2,44.7L476-8.5h-8.8l62,62L529.2,44.7L529.2,44.7z M529.2-8.3L529-8.5h-8.8l9,9
    L529.2-8.3L529.2-8.3z M529.2,9.3L511.3-8.5h-8.8l26.7,26.7V9.3z M529.2,27L493.6-8.5h-8.8l44.3,44.3V27z M529.2,80L458.5,9.3
    v8.8l70.6,70.6V80z M529.2,62.3L458.5-8.3v8.8l70.6,70.6V62.3z M696.8,238.9l-70.6-70.6h-8.8l70.6,70.6L696.8,238.9L696.8,238.9z
        M626.2,238.9l-70.6-70.6h-8.8l70.6,70.6L626.2,238.9L626.2,238.9z M679.2,238.9l-70.7-70.6h-8.8l70.7,70.6L679.2,238.9
    L679.2,238.9z M529.2,97.6L458.5,27v8.8l70.6,70.7V97.6z M643.9,238.9l-70.6-70.6h-8.8l70.6,70.6L643.9,238.9L643.9,238.9z
        M661.5,238.9l-70.6-70.6h-8.8l70.6,70.6L661.5,238.9L661.5,238.9z M379,238.9l-70.6-70.6h-8.8l70.6,70.6L379,238.9L379,238.9z
        M714.7,238.9l-70.7-70.6h-8.8l70.6,70.6L714.7,238.9L714.7,238.9z M361.4,238.9l-70.6-70.6h-8.8l70.6,70.6L361.4,238.9
    L361.4,238.9z M396.7,238.9L326,168.2h-8.8l70.6,70.6L396.7,238.9L396.7,238.9z M414.3,238.9l-70.6-70.6h-8.8l70.6,70.6
    L414.3,238.9L414.3,238.9z M343.7,238.9l-70.6-70.6h-8.8l70.6,70.6L343.7,238.9L343.7,238.9z M326,238.9l-70.6-70.6h-8.8
    l70.6,70.6L326,238.9L326,238.9z M458.5,238.9L458.5,238.9l0.1,8.8l70.6,70.6v-8.8L458.5,238.9l8.9,0l61.8,61.8v-8.8l-53-53h8.8
    l44.1,44.1v-8.8l-35.3-35.3h8.8l26.5,26.5v-8.8l-17.7-17.7h8.8l8.8,8.8v-8.8l0,0h8.8l-8.8-8.8V230l0,0v-8.8l17.6,17.6h8.8
    l-26.5-26.4v-0.1l0,0v-8.8l35.2,35.2h8.8l-44.1-44.1v-0.1l0,0v-8.8l52.9,52.9h8.8l-61.8-61.7V177l0,0v-8.8l70.6,70.6h8.8
    l-70.6-70.6h-8.8l-70.6-70.6v8.8l61.8,61.8h-8.8l-53-53v8.8l44.1,44.2h-8.9l-35.3-35.3v8.8l26.5,26.5h-8.8l-17.6-17.6v8.8
    l8.8,8.8h-8.9v8.8l-8.8-8.8h-8.8l17.7,17.6v8.8L432,168.2h-8.8l35.3,35.3v8.9l-44.2-44.2h-8.8l53,53v8.8l-61.8-61.8h-8.8
    L458.5,238.9L458.5,238.9z M529.2,150.6l-70.6-70.6v8.8l70.6,70.7V150.6z M529.2,132.9l-70.6-70.6v8.8l70.6,70.6V132.9z
        M432,238.9l-70.6-70.6h-8.8l70.6,70.6L432,238.9L432,238.9z M529.2,115.3l-70.6-70.7v8.8l70.6,70.6V115.3z M449.6,238.9
    L379,168.2h-8.8l70.6,70.6L449.6,238.9L449.6,238.9z M979.4,238.9l-70.7-70.6H900l70.6,70.6L979.4,238.9L979.4,238.9z
        M1120.7,238.9l-70.6-70.6h-8.8l70.6,70.6L1120.7,238.9L1120.7,238.9z M882.5-8.3l-0.2-0.2h-8.8l9,9L882.5-8.3L882.5-8.3z
        M997.1,238.9l-70.6-70.6h-8.8l70.6,70.6L997.1,238.9L997.1,238.9z M882.5,27L847-8.5h-8.8l44.3,44.3L882.5,27L882.5,27z
        M1014.8,238.9l-70.6-70.6h-8.8l70.7,70.6L1014.8,238.9L1014.8,238.9z M882.5,9.3L864.6-8.5h-8.8l26.7,26.7V9.3z M1032.4,238.9
    l-70.7-70.6H953l70.6,70.6L1032.4,238.9L1032.4,238.9z M882.5,44.7L829.3-8.5h-8.8l62,62L882.5,44.7L882.5,44.7z M1085.4,238.9
    l-70.7-70.6h-8.8l70.6,70.6L1085.4,238.9L1085.4,238.9z M1103,238.9l-70.6-70.6h-8.8l70.6,70.6L1103,238.9L1103,238.9z
        M1067.7,238.9l-70.6-70.6h-8.8l70.6,70.6L1067.7,238.9L1067.7,238.9z M1050.1,238.9l-70.7-70.6h-8.8l70.6,70.6L1050.1,238.9
    L1050.1,238.9z M732.1,238.9l-70.7-70.6h-8.8l70.6,70.6L732.1,238.9L732.1,238.9z M785.2,238.9l-70.7-70.6h-8.8l70.6,70.6
    L785.2,238.9L785.2,238.9z M802.9,238.9l-70.7-70.6h-8.8l70.6,70.6L802.9,238.9L802.9,238.9z M767.6,238.9l-70.7-70.6h-8.8
    l70.6,70.6L767.6,238.9L767.6,238.9z M750,238.9l-70.7-70.6h-8.8l70.6,70.6L750,238.9L750,238.9z M882.5,62.3L811.9-8.3v8.8
    l70.6,70.6V62.3z M811.8,238.9L811.8,238.9L811.8,238.9l0,8.8l70.6,70.6v-8.8L811.8,238.9l8.9,0l61.8,61.8v-8.8l-53-53h8.8
    l44.1,44.1v-8.8l-35.3-35.3h8.8l26.5,26.5v-8.8l-17.7-17.7h8.8l8.8,8.8v-8.8l0,0v0h8.7l-8.7-8.7V230l0,0v-8.7l17.5,17.5h8.8
    l-26.3-26.3v-0.2l0,0v-8.7l35.2,35.2h8.8l-44-44v-0.2l0,0V186l52.8,52.8h8.8l-61.7-61.6V177l0,0v-8.7l70.5,70.5h8.8l-70.6-70.6
    h-8.7l-70.6-70.6v8.8l61.8,61.8h-8.8l-53-53v8.8l44.2,44.2h-8.8l-35.3-35.3v8.8l26.5,26.5h-8.8l-17.6-17.6v8.8l8.8,8.8h-8.9v9
    l-9-9H794l17.8,17.8v8.8l-26.6-26.6h-8.8l35.4,35.4v8.8l-44.3-44.3h-8.8l53.1,53.1v8.8l-61.9-61.9h-8.8L811.8,238.9L811.8,238.9
    L811.8,238.9z M882.5,150.6l-70.6-70.6v8.8l70.6,70.7V150.6z M882.5,80L811.9,9.3v8.8l70.6,70.6V80z M882.5,97.6L811.9,27v8.8
    l70.6,70.7V97.6z M882.5,132.9l-70.6-70.6v8.8l70.6,70.6V132.9z M882.5,115.3l-70.6-70.7v8.8l70.6,70.6V115.3z"/>
    
    <path class="st3" d="M706.8,504.3l35.3,35.3v-8.8l-35.3-35.4V504.3z M706.8,522l35.3,35.3v-8.8l-35.3-35.4V522z M706.8,486.6
    l35.3,35.3v-8.8l-35.3-35.4V486.6z M706.8,469l35.3,35.4v-8.8l-35.3-35.4V469z M873.5,662.6h8.8l-35.3-35.3h-8.8L873.5,662.6z
        M706.8,575l35.3,35.3v-8.8l-35.3-35.3V575z M706.8,539.7l35.3,35.3v-8.8l-35.3-35.3L706.8,539.7L706.8,539.7z M706.8,451.3
    l35.3,35.4v-8.8l-35.3-35.4V451.3z M1448.4,124.4L1413.1,89v8.8l35.3,35.3V124.4z M1448.4,71.4L1413.1,36v8.8l35.3,35.4V71.4z
        M706.8,433.6l35.3,35.4v-8.8l-35.3-35.4V433.6z M846.6,309.5h0.2l-0.2-0.2V309.5z M1448.4,106.7l-35.3-35.3v8.8l35.3,35.3V106.7
    z M1448.4,89l-35.3-35.3v8.8l35.3,35.3V89z M1448.4,36l-9.1-9.1h-8.8l17.9,17.9L1448.4,36L1448.4,36z M1448.4,53.7L1421.7,27
    h-8.6v0.2l35.3,35.4V53.7z M706.8,415.9l35.3,35.4v-8.8l-35.3-35.4V415.9z M1456.5,627.3l35.3,35.3h8.8l-35.3-35.3H1456.5z
        M1536,662.6l-35.3-35.3h-8.8l35.3,35.3H1536z M1518.3,662.6l-35.3-35.3h-8.8l35.3,35.3H1518.3z M706.8,557.3l35.3,35.3v-8.8
    l-35.3-35.3V557.3z M1059.3,539.4l35.3,35.3V566l-35.3-35.3V539.4z M1059.3,557.1l35.3,35.3v-8.8l-35.3-35.3V557.1z
        M1059.3,521.8l35.3,35.3v-8.8l-35.3-35.4V521.8z M1059.3,486.4l35.3,35.4v-8.8l-35.3-35.4V486.4z M1059.3,504.1l35.3,35.4v-8.8
    l-35.3-35.4V504.1z M1059.3,574.8l35.3,35.3v-8.8l-35.3-35.3V574.8z M1448.4,354.1l-35.3-35.4v8.8l35.3,35.4V354.1z
        M1413.1,362.9l35.3,35.4v-8.8l-35.3-35.4V362.9z M1394.7,627.3h-8.8l27.3,27.3v8.8l35.3,35.3v-8.8l-27.1-27.1h8.8l18.2,18.3
    v-8.8l-9.4-9.4h9.5v-8.2l8.1,8h8.8l-16.9-16.9v-8.8l25.7,25.7h8.8l-34.5-34.5v-0.7h0v-8.2l-35.3-35.3v8.8l34.7,34.8h0l-0.2-0.2
    h-8.8l-25.8-25.8v8.8l17.1,17.1h-0.1l-0.2-0.2h-8.8l-8.1-8.1v8.8l0,0v0.1l-0.8-0.8h-8.8l9.6,9.6v8.8l0,0v0.1L1394.7,627.3z
        M1413.1,345.2l35.3,35.4v-8.8l-35.3-35.4V345.2z M1059.3,433.4l35.3,35.4v-8.8l-35.3-35.4V433.4z M1059.3,362.7l35.3,35.4v-8.8
    l-35.3-35.4V362.7z M1059.3,380.4l35.3,35.4v-8.8l-35.3-35.4V380.4z M1094.6,353.9l-35.3-35.4v8.8l35.3,35.4V353.9z M1059.3,345
    l35.3,35.4v-8.8l-35.3-35.4V345z M1041.2,627.3h-8.8l26.9,26.9v8.9l35.3,35.3v-8.8l-26.9-26.9h8.8l18,18V672l-9.2-9.2h8.8
    l0.4,0.4v-9l8.5,8.5h8.8l-17.3-17.3v-8.8l26.1,26.1h8.8l-34.9-34.9V619l-35.3-35.3v8.8l34.8,34.8h-8.7l0.2,0.2h-0.1l-26.1-26.1
    v8.8l17.2,17.2h-8.7l0.2,0.2h-0.1l-8.5-8.5v8.7l-0.4-0.4h-8.8l9.2,9.2v8.8L1041.2,627.3z M1413.1,380.6l35.3,35.4v-8.8
    l-35.3-35.4V380.6z M1059.3,468.7l35.3,35.4v-8.8l-35.3-35.4V468.7z M1059.3,398l35.3,35.4v-8.8l-35.3-35.4V398z M1059.3,415.7
    l35.3,35.4v-8.8l-35.3-35.4V415.7z M1059.3,451.1l35.3,35.4v-8.8l-35.3-35.4V451.1z M1094.6,106.5l-35.3-35.3V80l35.3,35.3V106.5
    z M1094.6,159.5l-35.3-35.4v8.8l35.3,35.4V159.5z M1094.6,141.8l-35.3-35.3v8.8l35.3,35.4V141.8z M1094.6,124.2l-35.3-35.4v8.8
    l35.3,35.3V124.2z M1094.6,71.1l-35.3-35.3v8.8l35.3,35.4V71.1z M1094.6,88.8l-35.3-35.3v8.8l35.3,35.3V88.8z M1164.9,309.5
    l-35.3-35.3h-8.8l35.3,35.3H1164.9z M1147.2,309.5l-35.3-35.3h-8.8l35.3,35.3H1147.2z M1094.6,53.5l-26.7-26.7h-8.6v0.2
    l35.3,35.4V53.5z M1094.6,35.8l-9.1-9.1h-8.8l17.9,17.9L1094.6,35.8L1094.6,35.8z M1094.6,212.5l-35.3-35.4v8.8l35.3,35.4V212.5z
        M1059.3,309.7l35.3,35.4v-8.8l-26.7-26.7h8.8l17.9,17.9v-8.8l-9.1-9.1h9.1V301l8.5,8.5h8.8l-17.3-17.3v-8.8l26.1,26.1h8.8
    l-34.9-34.9v-9l-35.3-35.4v8.8l35.1,35.2h-8.8l-26.3-26.3v8.8l17.5,17.5h-8.8l-8.6-8.6v9.1l-0.4-0.4h-8.8l9.2,9.2v8.8l-18.1-18.1
    h-8.8l26.9,26.9L1059.3,309.7L1059.3,309.7z M1041.2,309.5l-35.3-35.3H997l35.4,35.3H1041.2z M1058.9,309.5l-35.3-35.3h-8.8
    l35.4,35.3H1058.9z M1023.5,309.5l-35.3-35.3h-8.8l35.3,35.3H1023.5z M1005.9,309.5l-35.3-35.3h-8.8l35.3,35.3H1005.9z
        M1094.6,247.9l-35.3-35.4v8.8l35.3,35.4V247.9z M1182.6,309.5l-35.3-35.3h-8.8l35.3,35.3H1182.6z M1094.6,194.9l-35.3-35.4v8.8
    l35.3,35.4V194.9z M1094.6,177.2l-35.3-35.4v8.8l35.3,35.4V177.2z M1094.6,230.2l-35.3-35.4v8.8l35.3,35.4V230.2z M1359.3,309.5
    l-35.3-35.3h-8.8l35.3,35.3H1359.3z M1448.4,248.1l-35.3-35.4v8.8l35.3,35.4V248.1z M1413.1,309.9l35.3,35.4v-8.8l-26.9-27h8.8
    l18.1,18.1v-8.8l-9.3-9.3h9.3v-8l8.1,8h8.8l-16.9-16.9v-8.8l25.7,25.7h8.8l-34.5-34.5v-0.8h0v-8.4l-35.3-35.4v8.8l34.9,35h-8.8
    l-26.1-26.1v8.8l17.3,17.3h-8.8l-8.4-8.4v8.8l0,0v0.4l-0.8-0.8h-8.8l9.6,9.6v8.5l0,0v0.4l-18.5-18.5h-8.8l27.3,27.2L1413.1,309.9
    L1413.1,309.9z M1377,309.5l-35.3-35.3h-8.8l35.3,35.3H1377z M1448.4,230.4l-35.3-35.3v8.8l35.3,35.4V230.4z M1412.3,309.5
    l-35.3-35.3h-8.8l35.3,35.3H1412.3z M1394.7,309.5l-35.3-35.3h-8.8l35.3,35.3H1394.7z M1448.4,212.7l-35.3-35.3v8.8l35.3,35.4
    V212.7z M1448.4,159.7l-35.3-35.4v8.8l35.3,35.4V159.7z M1448.4,177.4l-35.3-35.4v8.8l35.3,35.4V177.4z M1448.4,195.1l-35.3-35.4
    v8.8l35.3,35.4V195.1z M1448.4,142l-35.3-35.3v8.8l35.3,35.4V142z M1235.6,309.5l-35.3-35.3h-8.8l35.3,35.3H1235.6z
        M1200.3,309.5l-35.3-35.3h-8.8l35.3,35.3H1200.3z M1270.9,309.5l-35.3-35.3h-8.8l35.3,35.3H1270.9z M1217.9,309.5l-35.3-35.3
    h-8.8l35.3,35.3H1217.9z M1253.3,309.5l-35.3-35.3h-8.8l35.3,35.3H1253.3z M1288.6,309.5l-35.4-35.3h-8.8l35.3,35.3H1288.6z
        M1324,309.5l-35.3-35.3h-8.8l35.3,35.3H1324z M1341.6,309.5l-35.3-35.3h-8.8l35.4,35.3H1341.6z M1306.3,309.5l-35.3-35.3h-8.8
    l35.4,35.3H1306.3z M167,627.3l35.3,35.3h8.8l-35.4-35.3H167z M1209.1,627.3l35.3,35.3h8.8l-35.3-35.3H1209.1z M1226.8,627.3
    l35.3,35.3h8.8l-35.3-35.3H1226.8z M742.1,760.2l-35.3-35.3v8.8l34.5,34.5h0.8L742.1,760.2L742.1,760.2z M1103.1,627.3l35.3,35.3
    h8.8l-35.3-35.3H1103.1z M742.1,742.3L706.8,707v8.8l34.5,34.5h0.8L742.1,742.3L742.1,742.3z M1173.8,627.3l35.3,35.3h8.8
    l-35.3-35.3H1173.8z M1120.7,627.3l35.3,35.3h8.8l-35.3-35.3H1120.7z M1138.4,627.3l35.3,35.3h8.8l-35.3-35.3H1138.4z
        M742.1,725.2l-35.3-35.3v8.8l34.5,34.5h0.8L742.1,725.2L742.1,725.2z M1156.1,627.3l35.3,35.3h8.8l-35.3-35.3H1156.1z
        M1191.4,627.3l35.3,35.3h8.8l-35.3-35.3H1191.4z M573.5,627.3l35.3,35.3h8.8l-35.3-35.3H573.5z M555.8,627.3l35.4,35.3h8.8
    l-35.3-35.3H555.8z M591.1,627.3l35.4,35.3h8.8L600,627.3H591.1z M538.1,627.3l35.3,35.3h8.8l-35.4-35.3H538.1z M742.1,707.6
    l-35.3-35.3v8.8l35.3,35.3V707.6z M520.4,627.3l35.3,35.3h8.8l-35.3-35.3H520.4z M644.1,627.3l35.3,35.3h8.8L653,627.3H644.1z
        M661.8,627.3l35.3,35.3h8.8l-35.3-35.3H661.8z M608.8,627.3l35.3,35.3h8.8l-35.3-35.3H608.8z M626.5,627.3l35.3,35.3h8.8
    l-35.3-35.3H626.5z M908.7,627.3l35.3,35.3h8.8l-35.3-35.3H908.7z M997,627.3l35.4,35.3h8.8l-35.3-35.3H997z M1014.7,627.3
    l35.3,35.3h8.8l-35.3-35.3H1014.7z M979.4,627.3l35.3,35.3h8.8l-35.3-35.3H979.4z M944,627.3l35.3,35.3h8.8l-35.4-35.3H944z
        M961.7,627.3l35.3,35.3h8.8l-35.3-35.3H961.7z M1094.6,707.3l-35.3-35.3v8.8l35.3,35.3V707.3z M1094.6,742.4l-35.3-35.4v8.8
    l34.5,34.5h0.8L1094.6,742.4L1094.6,742.4z M1094.6,759.8l-35.3-35.3v8.8l34.5,34.5h0.8L1094.6,759.8L1094.6,759.8z M750.2,627.3
    l35.3,35.3h8.8L759,627.3H750.2z M1094.6,725l-35.3-35.4v8.8l34.5,34.5h0.8L1094.6,725L1094.6,725z M926.3,627.3l35.3,35.3h8.8
    l-35.3-35.3H926.3z M785.5,627.3l35.3,35.3h8.8l-35.3-35.3H785.5z M803.2,627.3l35.3,35.3h8v-0.8L812,627.3H803.2z M502.8,627.3
    l35.3,35.3h8.8l-35.4-35.3H502.8z M1413.1,398.3l35.3,35.4v-8.8l-35.3-35.4V398.3z M846.8,662.6l-0.2-0.2v0.2H846.8z
        M820.9,627.3l35.3,35.3h8.8l-35.3-35.3H820.9z M873.3,627.3l35.3,35.3h8.8l-35.3-35.3H873.3z M891,627.3l35.3,35.3h8.8
    l-35.3-35.3H891z M855.7,627.3l35.3,35.3h8.8l-35.3-35.3H855.7z M767.8,627.3l35.3,35.3h8.8l-35.3-35.3H767.8z M220,627.3
    l35.4,35.3h8.8l-35.4-35.3H220z M308.4,627.3l35.4,35.3h8.8l-35.4-35.3H308.4z M202.3,627.3l35.3,35.3h8.8l-35.4-35.3H202.3z
        M149.3,627.3l35.4,35.3h8.8l-35.4-35.3H149.3z M1448.4,760.3l-35.3-35.4v8.8l34.5,34.5h0.8L1448.4,760.3L1448.4,760.3z
        M988.2,309.5l-35.4-35.3H944l35.3,35.3H988.2z M485.1,627.3l35.4,35.3h8.8l-35.4-35.3H485.1z M273,627.3l35.4,35.3h8.8
    l-35.4-35.3H273z M290.7,627.3l35.4,35.3h8.8l-35.4-35.3H290.7z M255.4,627.3l35.4,35.3h8.8l-35.4-35.3H255.4z M184.7,627.3
    l35.4,35.3h8.8l-35.4-35.3H184.7z M1413.1,451.3l35.3,35.4v-8.8l-35.3-35.4V451.3z M1413.1,469l35.3,35.4v-8.8l-35.3-35.4V469z
        M1413.1,415.9l35.3,35.4v-8.8l-35.3-35.4V415.9z M1413.1,575l35.3,35.3v-8.8l-35.3-35.3V575z M1413.1,486.6l35.3,35.3v-8.8
    l-35.3-35.4V486.6z M1413.1,433.6l35.3,35.4v-8.8l-35.3-35.4V433.6z M1413.1,539.7l35.3,35.3v-8.8l-35.3-35.3V539.7z
        M1413.1,504.3l35.3,35.3v-8.8l-35.3-35.4V504.3z M1413.1,557.3l35.3,35.3v-8.8l-35.3-35.3V557.3z M1413.1,522l35.3,35.3v-8.8
    l-35.3-35.4V522z M237.7,627.3l35.3,35.3h8.8l-35.4-35.3H237.7z M1262.1,627.3l35.4,35.3h8.8l-35.3-35.3H1262.1z M1315.1,627.3
    l35.3,35.3h8.8l-35.3-35.3H1315.1z M396.7,627.3l35.4,35.3h8.8l-35.4-35.3H396.7z M1279.8,627.3l35.3,35.3h8.8l-35.3-35.3H1279.8
    z M1297.5,627.3l35.4,35.3h8.8l-35.3-35.3H1297.5z M1244.4,627.3l35.3,35.3h8.8l-35.4-35.3H1244.4z M449.7,627.3l35.4,35.3h8.8
    l-35.4-35.3H449.7z M467.4,627.3l35.4,35.3h8.8l-35.4-35.3H467.4z M414.4,627.3l35.4,35.3h8.8l-35.4-35.3H414.4z M432.1,627.3
    l35.4,35.3h8.8l-35.4-35.3H432.1z M1448.4,742.8l-35.3-35.3v8.8l34.5,34.5h0.8L1448.4,742.8L1448.4,742.8z M388.3,759.8
    l-35.3-35.3v8.8l34.5,34.5h0.8L388.3,759.8L388.3,759.8z M388.3,742.8l-35.3-35.3v8.8l34.5,34.5h0.8L388.3,742.8L388.3,742.8z
        M388.3,725l-35.3-35.4v8.8l34.5,34.5h0.8L388.3,725L388.3,725z M388.3,707.3L352.9,672v8.8l35.3,35.3V707.3z M1448.4,725.2
    l-35.3-35.3v8.8l34.5,34.5h0.8L1448.4,725.2L1448.4,725.2z M1368.2,627.3l35.3,35.3h8.8l-35.3-35.3H1368.2z M1350.5,627.3
    l35.3,35.3h8.8l-35.3-35.3H1350.5z M1448.4,707.6l-35.3-35.3v8.8l35.3,35.3V707.6z M1332.8,627.3l35.3,35.3h8.8l-35.3-35.3
    H1332.8z M388.3,353.9l-35.3-35.4v8.8l35.3,35.4V353.9z M140.3,309.3v0.2h0.2L140.3,309.3z M175.8,662.6l-35.4-35.3h-0.2v8.6
    l26.7,26.7H175.8z M140.3,662.4v0.2h0.2L140.3,662.4z M158.1,662.6l-17.9-17.9v8.8l9.1,9H158.1z M175.8,309.5l-35.4-35.3h-0.2
    v8.6l26.7,26.7L175.8,309.5L175.8,309.5z M158.1,309.5l-17.9-17.9v8.8l9.1,9L158.1,309.5L158.1,309.5z M193.5,309.5l-35.3-35.3
    h-8.8l35.4,35.3H193.5z M706.8,398.3l35.3,35.4v-8.8l-35.3-35.4V398.3z M706.8,345.2l35.3,35.4v-8.8l-35.3-35.4V345.2z
        M742.1,354.1l-35.3-35.4v8.8l35.3,35.4V354.1z M706.8,380.6l35.3,35.4v-8.8l-35.3-35.4V380.6z M706.8,362.9l35.3,35.4v-8.8
    l-35.3-35.4V362.9z M264.2,309.5l-35.4-35.3H220l35.4,35.3H264.2z M352.5,309.5l-35.4-35.3h-8.8l35.4,35.3H352.5z M334.9,309.5
    l-35.4-35.3h-8.8l35.4,35.3H334.9z M352.9,309.7l35.3,35.4v-8.8l-26.7-26.7h8.9l17.9,17.9v-8.8l-9.1-9.1h9.1V301l8.5,8.5h8.8
    l-17.3-17.3v-8.8l26.1,26.1h8.8l-35-34.9v-9l-35.3-35.4v8.8l35.1,35.2h-8.9l-26.3-26.3v8.8l17.5,17.5h-8.9l-8.6-8.6v9.1l-0.4-0.4
    h-8.8l9.2,9.2v8.8l-18.1-18.1H326l26.9,26.9L352.9,309.7L352.9,309.7z M388.3,247.9l-35.3-35.4v8.8l35.3,35.4V247.9z
        M388.3,230.2l-35.3-35.4v8.8l35.3,35.4V230.2z M317.2,309.5l-35.4-35.3H273l35.4,35.3H317.2z M211.2,309.5l-35.4-35.3H167
    l35.4,35.3H211.2z M246.5,309.5l-35.4-35.3h-8.8l35.4,35.3H246.5z M228.8,309.5l-35.3-35.3h-8.8l35.4,35.3H228.8z M299.5,309.5
    l-35.4-35.3h-8.8l35.4,35.3H299.5z M281.9,309.5l-35.4-35.3h-8.8l35.4,35.3H281.9z M688.3,627.3h-8.8l27.3,27.3v8.8l35.3,35.3
    v-8.8L715,662.8h8.8l18.2,18.3v-8.8l-9.4-9.4h9.5v-8.2l8,8h8.8l-16.9-16.9v-8.8l25.7,25.7h8.8l-34.5-34.5v-0.7h0v-8.2l-35.3-35.3
    v8.8l34.7,34.8h0l-0.2-0.2h-8.8l-25.8-25.8v8.8l17.1,17.1h0l-0.2-0.2h-8.8l-8.1-8.1v8.8l0,0v0.1l-0.8-0.8h-8.8l9.6,9.6v8.8l0,0
    v0.1L688.3,627.3z M1500.7,309.5l-35.3-35.3h-8.8l35.3,35.3H1500.7z M352.9,362.7l35.3,35.4v-8.8l-35.3-35.4V362.7z M388.3,212.5
    l-35.3-35.4v8.8l35.3,35.4V212.5z M1536,309.5l-35.3-35.3h-8.8l35.3,35.3H1536z M352.9,345l35.3,35.4v-8.8l-35.3-35.4V345z
        M1509.5,627.3l35.3,35.3h8v-0.8l-34.6-34.5L1509.5,627.3L1509.5,627.3z M334.9,627.3H326l26.9,26.9v8.9l35.3,35.3v-8.8
    l-26.9-26.9h8.9l18,18V672l-9.2-9.2h8.8l0.4,0.4v-9l8.5,8.5h8.8l-17.3-17.3v-8.8l26.1,26.1h8.8l-35-34.9V619L353,583.6v8.8
    l34.8,34.8h-8.7l0.1,0.2h-0.1L353,601.3v8.8l17.2,17.2h-8.7l0.1,0.2h-0.1L353,619v8.7l-0.4-0.4h-8.8l9.2,9.2v8.8L334.9,627.3z
        M1518.3,309.5l-35.3-35.3h-8.8l35.3,35.3H1518.3z M1527.2,274.2l25.7,25.7V291l-16.9-16.9H1527.2z M1527.2,627.3l25.7,25.7v-8.8
    l-16.9-16.9H1527.2z M1544.9,274.2l8,8v-8H1544.9z M1544.4,627.3l8.5,8.5v-8.5H1544.4z M1509.5,274.2l35.3,35.3h8v-0.8
    l-34.6-34.5H1509.5z M352.9,539.4l35.3,35.3V566l-35.3-35.3V539.4z M352.9,504.1l35.3,35.4v-8.8l-35.3-35.4V504.1z M352.9,380.4
    l35.3,35.4v-8.8l-35.3-35.4V380.4z M352.9,486.4l35.3,35.4v-8.8l-35.3-35.4V486.4z M352.9,557.1l35.3,35.3v-8.8l-35.3-35.3V557.1
    z M352.9,574.8l35.3,35.3v-8.8L352.9,566V574.8z M352.9,521.8l35.3,35.3v-8.8l-35.3-35.4V521.8z M352.9,398l35.3,35.4v-8.8
    l-35.3-35.4V398z M352.9,415.7l35.3,35.4v-8.8l-35.3-35.4V415.7z M352.9,451.1l35.3,35.4v-8.8l-35.3-35.4V451.1z M352.9,433.4
    l35.3,35.4v-8.8l-35.3-35.4V433.4z M352.9,468.7l35.3,35.4v-8.8l-35.3-35.4V468.7z M812,309.5l-35.3-35.3h-8.8l35.3,35.3H812z
        M742.1,106.7l-35.3-35.3v8.8l35.3,35.3V106.7z M742.1,124.4L706.8,89v8.8l35.3,35.3V124.4z M742.1,142l-35.3-35.3v8.8l35.3,35.4
    V142z M706.8,309.9l35.3,35.4v-8.8l-26.9-27h8.8l18.1,18.1v-8.8l-9.3-9.3h9.3v-8l8,8h8.8l-16.9-16.9v-8.8l25.7,25.7h8.8
    L742.1,275v-0.8h0v-8.4l-35.3-35.4v8.8l34.9,35h-8.8l-26.1-26.1v8.8l17.3,17.3h-8.8l-8.4-8.4v8.8l0,0v0.4l-0.8-0.8h-8.8l9.6,9.6
    v8.5l0,0v0.4l-18.5-18.5h-8.8l27.3,27.2L706.8,309.9L706.8,309.9z M742.1,71.4L706.8,36v8.8l35.3,35.4L742.1,71.4L742.1,71.4z
        M742.1,159.7l-35.3-35.4v8.8l35.3,35.4V159.7z M742.1,195.1l-35.3-35.4v8.8l35.3,35.4V195.1z M742.1,230.4l-35.3-35.3v8.8
    l35.3,35.4V230.4z M742.1,177.4L706.8,142v8.8l35.3,35.4V177.4z M742.1,248.1l-35.3-35.4v8.8l35.3,35.4V248.1z M742.1,212.7
    l-35.3-35.3v8.8l35.3,35.4V212.7z M742.1,53.7L715.4,27h-8.6v0.2l35.3,35.4V53.7z M742.1,89l-35.3-35.3v8.8l35.3,35.3V89z
        M881.6,309.5v-0.8l-34.5-34.5h-8.8l35.3,35.3H881.6z M829.7,309.5l-35.3-35.3h-8.8l35.3,35.3H829.7z M864.4,309.5v-0.8
    l-34.5-34.5H821l35.3,35.3H864.4z M846.5,309.5v-0.8L812,274.2h-8.8l35.3,35.3H846.5z M970.5,309.5l-35.3-35.3h-8.8l35.3,35.3
    H970.5z M388.3,194.9l-35.3-35.4v8.8l35.3,35.4V194.9z M935.2,309.5l-35.3-35.3H891l35.3,35.3H935.2z M952.8,309.5l-35.3-35.3
    h-8.8l35.3,35.3H952.8z M794.3,309.5L759,274.2h-8.8l35.3,35.3H794.3z M899.8,309.5l-35.3-35.3h-8.8l35.3,35.3H899.8z
        M917.5,309.5l-35.3-35.3h-8.8l35.3,35.3H917.5z M742.1,36l-9-9.1h-8.8l17.9,17.9V36z M458.6,309.5l-35.4-35.3h-8.8l35.4,35.3
    H458.6z M440.9,309.5l-35.4-35.3h-8.8l35.4,35.3H440.9z M388.3,177.2l-35.3-35.4v8.8l35.3,35.4V177.2z M388.3,53.5l-26.7-26.7
    h-8.6v0.2l35.3,35.4V53.5z M493.9,309.5l-35.4-35.3h-8.8l35.4,35.3H493.9z M706,309.5l-35.3-35.3h-8.8l35.3,35.3H706z
        M476.2,309.5l-35.4-35.3h-8.8l35.4,35.3H476.2z M388.3,35.8l-9-9.1h-8.8l17.9,17.9L388.3,35.8L388.3,35.8z M388.3,88.8
    l-35.3-35.3v8.8l35.3,35.3V88.8z M388.3,159.5l-35.3-35.4v8.8l35.3,35.4V159.5z M388.3,141.8l-35.3-35.3v8.8l35.3,35.4V141.8z
        M388.3,124.2l-35.3-35.3v8.8l35.3,35.3L388.3,124.2L388.3,124.2z M388.3,106.5l-35.3-35.3V80l35.3,35.3V106.5z M388.3,71.1
    l-35.3-35.3v8.8L388.3,80V71.1z M617.6,309.5l-35.3-35.3h-8.8l35.3,35.3H617.6z M635.3,309.5l-35.3-35.3h-8.8l35.4,35.3H635.3z
        M600,309.5l-35.3-35.3h-8.8l35.4,35.3H600z M670.6,309.5l-35.3-35.3h-8.8l35.3,35.3H670.6z M688.3,309.5L653,274.2h-8.8
    l35.3,35.3H688.3z M582.3,309.5l-35.4-35.3h-8.8l35.3,35.3H582.3z M653,309.5l-35.3-35.3h-8.8l35.3,35.3H653z M511.6,309.5
    l-35.4-35.3h-8.8l35.4,35.3H511.6z M529.2,309.5l-35.4-35.3h-8.8l35.4,35.3H529.2z M564.6,309.5l-35.3-35.3h-8.8l35.3,35.3H564.6
    z M546.9,309.5l-35.4-35.3h-8.8l35.4,35.3H546.9z M1094.6,1272.5l-35.3-35.3v8.8l35.3,35.3V1272.5z M1094.6,1254.8l-35.3-35.4
    v8.8l35.3,35.3V1254.8z M1094.6,1237.1l-35.3-35.3v8.8l35.3,35.3V1237.1z M1094.6,1290.2l-35.3-35.3v8.8l35.3,35.3V1290.2z
        M1448.4,1078.3l-35.3-35.3v8.8l35.3,35.3V1078.3z M1120.7,1016h8.8l-34.9-34.9v-9l-35.3-35.3v8.8l35.1,35.2h-8.8l-26.3-26.3v8.8
    l17.5,17.5h-8.8l-8.6-8.6v9.1l-0.4-0.4h-8.8l9.2,9.2v8.8l-18.1-18.1h-8.8l26.9,26.9v8.7l35.3,35.4v-8.8l-26.7-26.7h8.8l17.9,17.9
    v-8.8l-9.1-9.1h9.1v-8.5l8.5,8.5h8.8l-17.3-17.3v-8.8L1120.7,1016z M1059.3,1281.3l35.3,35.3v-8.8l-35.3-35.3V1281.3z
        M1094.6,1219.5l-35.3-35.3v8.8l35.3,35.3V1219.5z M1448.4,1060.6l-35.3-35.3v8.8l35.3,35.3V1060.6z M1094.6,1201.8l-35.3-35.3
    v8.8l35.3,35.3V1201.8z M1094.6,1095.8l-35.3-35.3v8.8l35.3,35.3V1095.8z M1094.6,1078.1l-35.3-35.3v8.8l35.3,35.3V1078.1z
        M1094.6,1060.4l-35.3-35.3v8.8l35.3,35.3V1060.4z M1448.4,1096l-35.3-35.3v8.8l35.3,35.3V1096z M1094.6,1113.4l-35.3-35.3v8.8
    l35.3,35.3V1113.4z M1094.6,1131.1l-35.3-35.3v8.8l35.3,35.3V1131.1z M1094.6,1184.1l-35.3-35.3v8.8l35.3,35.3V1184.1z
        M1094.6,1166.4l-35.3-35.3v8.8l35.3,35.3V1166.4z M1094.6,1148.8l-35.3-35.3v8.8l35.3,35.3V1148.8z M1474.2,1016h8.8l-34.5-34.5
    v-0.8h0v-8.4l-35.3-35.3v8.8l34.9,35h-8.8l-26.1-26.1v8.8l17.3,17.3h-8.8l-8.4-8.4v8.8l0,0v0.4l-0.8-0.8h-8.8l9.6,9.6v8.5l0,0
    v0.4l-18.5-18.5h-8.8l27.3,27.2v8.5l35.3,35.3v-8.8l-26.9-27h8.8l18.1,18.1v-8.8l-9.3-9.3h9.3v-8l8.1,8h8.8l-16.9-16.8v-8.8
    L1474.2,1016z M1413.1,1281.5l35.3,35.3v-8.8l-35.3-35.3V1281.5z M1448.4,1272.7l-35.3-35.3v8.8l35.3,35.3V1272.7z M1448.4,1255
    l-35.3-35.4v8.8l35.3,35.3V1255z M1448.4,1290.4l-35.3-35.3v8.8l35.3,35.3V1290.4z M864.4,1016v-0.8l-34.5-34.5H821l35.3,35.3
    H864.4z M1094.6,866l-35.3-35.4v8.8l35.3,35.3V866z M1094.6,883.7l-35.3-35.3v8.8l35.3,35.3V883.7z M1448.4,1237.4l-35.3-35.3
    v8.8l35.3,35.3V1237.4z M1094.6,901.4l-35.3-35.3v8.8l35.3,35.3V901.4z M1448.4,1202l-35.3-35.3v8.8l35.3,35.3V1202z
        M1059.3,927.8l35.3,35.3v-8.8l-35.3-35.3V927.8z M1094.6,936.7l-35.3-35.3v8.8l35.3,35.3V936.7z M1094.6,919l-35.3-35.3v8.8
    l35.3,35.3V919z M1448.4,1131.3l-35.3-35.3v8.8l35.3,35.3V1131.3z M1448.4,1219.7l-35.3-35.3v8.8l35.3,35.3V1219.7z
        M1448.4,1113.6l-35.3-35.3v8.8l35.3,35.3V1113.6z M1448.4,1184.3l-35.3-35.3v8.8l35.3,35.3V1184.3z M1448.4,1149l-35.3-35.3v8.8
    l35.3,35.3V1149z M1448.4,1166.7l-35.3-35.3v8.8l35.3,35.3V1166.7z M742.1,1113.6l-35.3-35.3v8.8l35.3,35.3V1113.6z
        M1448.4,777.9l-35.3-35.3v8.8l35.3,35.3V777.9z M388.3,1078.1l-35.3-35.3v8.8l35.3,35.3V1078.1z M1448.4,795.5l-35.3-35.3v8.8
    l35.3,35.3V795.5z M1448.4,830.9l-35.3-35.3v8.8l35.3,35.3V830.9z M1448.4,813.2l-35.3-35.3v8.8l35.3,35.3V813.2z M1448.4,848.6
    l-35.3-35.3v8.8l35.3,35.4V848.6z M388.3,1166.4l-35.3-35.3v8.8l35.3,35.3V1166.4z M388.3,1184.1l-35.3-35.3v8.8l35.3,35.3
    V1184.1z M388.3,1148.8l-35.3-35.3v8.8l35.3,35.3V1148.8z M388.3,1113.4l-35.3-35.3v8.8l35.3,35.3V1113.4z M388.3,1131.1
    l-35.3-35.3v8.8l35.3,35.3V1131.1z M388.3,1095.8l-35.3-35.3v8.8l35.3,35.3V1095.8z M149.3,980.7l35.4,35.3h8.8l-35.4-35.3H149.3
    z M211.2,1016l-35.4-35.3H167l35.4,35.3H211.2z M1094.6,848.3l-35.3-35.3v8.8l35.3,35.4V848.3z M388.3,1060.4l-35.3-35.3v8.8
    l35.3,35.3V1060.4z M846.8,1016l-0.2-0.2v0.2H846.8z M1413.1,928.1l35.3,35.3v-8.8l-35.3-35.3V928.1z M1448.4,901.6l-35.3-35.3
    v8.8l35.3,35.3V901.6z M1448.4,936.9l-35.3-35.3v8.8l35.3,35.3V936.9z M1448.4,883.9l-35.3-35.3v8.8l35.3,35.3V883.9z
        M1448.4,919.3l-35.3-35.4v8.8l35.3,35.3V919.3z M1448.4,866.2l-35.3-35.4v8.8l35.3,35.3V866.2z M228.8,1016l-35.3-35.3h-8.8
    L220,1016H228.8z M742.1,1237.4l-35.3-35.3v8.8l35.3,35.3V1237.4z M742.1,1219.7l-35.3-35.3v8.8l35.3,35.3V1219.7z M742.1,1202
    l-35.3-35.3v8.8l35.3,35.3V1202z M742.1,1184.3l-35.3-35.3v8.8l35.3,35.3V1184.3z M742.1,1166.7l-35.3-35.3v8.8l35.3,35.3V1166.7
    z M742.1,1272.7l-35.3-35.3v8.8l35.3,35.3V1272.7z M388.3,1201.8l-35.3-35.3v8.8l35.3,35.3V1201.8z M742.1,1255l-35.3-35.4v8.8
    l35.3,35.3V1255z M742.1,1290.4l-35.3-35.3v8.8l35.3,35.3V1290.4z M742.1,1149l-35.3-35.3v8.8l35.3,35.3V1149z M706.8,1281.5
    l35.3,35.3v-8.8l-35.3-35.3V1281.5z M767.9,1016h8.8l-34.5-34.5v-0.8h0v-8.4l-35.3-35.3v8.8l34.9,35h-8.8l-26.1-26.1v8.8
    l17.3,17.3h-8.8l-8.4-8.4v8.8l0,0v0.4l-0.8-0.8h-8.8l9.6,9.6v8.5l0,0v0.4l-18.5-18.5h-8.8l27.3,27.2v8.5l35.3,35.3v-8.8l-26.9-27
    h8.8l18.1,18.1v-8.8l-9.3-9.3h9.3v-8l8,8h8.8l-16.9-16.8v-8.8L767.9,1016z M388.3,1272.5l-35.3-35.3v8.8l35.3,35.3V1272.5z
        M352.9,1281.3l35.3,35.3v-8.8l-35.3-35.3V1281.3z M388.3,1254.8l-35.3-35.4v8.8l35.3,35.3V1254.8z M388.3,1219.5l-35.3-35.3v8.8
    l35.3,35.3V1219.5z M388.3,1237.1l-35.3-35.3v8.8l35.3,35.3V1237.1z M742.1,1060.6l-35.3-35.3v8.8l35.3,35.3V1060.6z
        M742.1,1078.3l-35.3-35.3v8.8l35.3,35.3V1078.3z M388.3,1290.2l-35.3-35.3v8.8l35.3,35.3V1290.2z M742.1,1096l-35.3-35.3v8.8
    l35.3,35.3V1096z M742.1,1131.3l-35.3-35.3v8.8l35.3,35.3V1131.3z M414.4,1016h8.8l-35-34.9v-9l-35.3-35.3v8.8l35.1,35.2h-8.9
    l-26.3-26.3v8.8l17.5,17.5h-8.9l-8.6-8.6v9.1l-0.4-0.4h-8.8l9.2,9.2v8.8l-18.1-18.1H326l26.9,26.9v8.7l35.3,35.4v-8.8l-26.7-26.8
    h8.9l17.9,17.9v-8.8l-9.1-9.1h9.1v-8.5l8.5,8.5h8.8l-17.3-17.3v-8.8L414.4,1016z M1341.6,1016l-35.3-35.3h-8.8l35.4,35.3H1341.6z
        M644.1,1333.8l35.3,35.3h8.8l-35.3-35.3H644.1z M661.8,1333.8l35.3,35.3h8.8l-35.3-35.3H661.8z M626.5,1333.8l35.3,35.3h8.8
    l-35.3-35.3H626.5z M520.4,1333.8l35.3,35.3h8.8l-35.3-35.3H520.4z M706.8,1405.2l34.5,34.6h0.8v-8l-35.3-35.3V1405.2z
        M706.8,1439.8h8l-8-8V1439.8z M555.8,1333.8l35.4,35.3h8.8l-35.3-35.3H555.8z M538.1,1333.8l35.3,35.3h8.8l-35.4-35.3H538.1z
        M591.1,1333.8l35.4,35.3h8.8l-35.3-35.3H591.1z M573.5,1333.8l35.3,35.3h8.8l-35.3-35.3H573.5z M608.8,1333.8l35.3,35.3h8.8
    l-35.3-35.3H608.8z M706.8,1422.9l16.9,16.9h8.8l-25.7-25.7V1422.9z M846.6,1369.1h0.2l-0.2-0.2V1369.1z M706.8,1387.5l35.3,35.3
    v-8.8l-35.3-35.3V1387.5z M820.9,1333.8l35.3,35.3h8.8l-35.3-35.3H820.9z M855.7,1333.8l35.3,35.3h8.8l-35.3-35.3H855.7z
        M838.1,1333.8l35.3,35.3h8.8l-35.3-35.3H838.1z M803.2,1333.8l35.3,35.3h8v-0.8l-34.5-34.5H803.2z M742.1,1334L742.1,1334l0-8.2
    l-35.3-35.3v8.8l34.7,34.8h0l-0.2-0.2h-8.8l-25.8-25.8v8.8l17.1,17.1h0l-0.2-0.2h-8.8l-8.1-8.1v8.8l0,0v0.1l-0.8-0.8h-8.8
    l9.6,9.6v8.8l0,0v0.1l-18.5-18.5h-8.8l27.3,27.3v8.8l35.3,35.3v-8.8l-27.1-27.1h8.8l18.2,18.3v-8.8l-9.4-9.4h9.5v-8.2l8,8h8.8
    l-16.9-16.9v-8.8l25.7,25.7h8.8l-34.5-34.5L742.1,1334L742.1,1334z M750.2,1333.8l35.3,35.3h8.8l-35.4-35.3H750.2z M785.5,1333.8
    l35.3,35.3h8.8l-35.3-35.3H785.5z M767.8,1333.8l35.3,35.3h8.8l-35.3-35.3H767.8z M352.9,1405l34.5,34.6h0.8v-8l-35.3-35.4V1405z
        M255.4,1333.8l35.4,35.3h8.8l-35.4-35.3H255.4z M273,1333.8l35.4,35.3h8.8l-35.4-35.3H273z M237.7,1333.8l35.3,35.3h8.8
    l-35.4-35.3H237.7z M352.9,1439.5h8l-8-8V1439.5z M290.7,1333.8l35.4,35.3h8.8l-35.4-35.3H290.7z M308.4,1333.8l35.4,35.3h8.8
    l-35.4-35.3H308.4z M167,1333.8l35.3,35.3h8.8l-35.4-35.3H167z M220,1333.8l35.4,35.3h8.8l-35.4-35.3H220z M184.7,1333.8
    l35.4,35.3h8.8l-35.4-35.3H184.7z M202.3,1333.8l35.3,35.3h8.8l-35.4-35.3H202.3z M149.3,1333.8l35.4,35.3h8.8l-35.4-35.3H149.3z
        M414.4,1333.8l35.4,35.3h8.8l-35.4-35.3H414.4z M432.1,1333.8l35.4,35.3h8.8l-35.4-35.3H432.1z M449.7,1333.8l35.4,35.3h8.8
    l-35.4-35.3H449.7z M467.4,1333.8l35.4,35.3h8.8l-35.4-35.3H467.4z M485.1,1333.8l35.4,35.3h8.8l-35.4-35.3H485.1z M396.7,1333.8
    l35.4,35.3h8.8l-35.4-35.3H396.7z M352.9,1387.3l35.3,35.3v-8.8l-35.3-35.3V1387.3z M352.9,1422.7l16.9,16.9h8.8l-25.7-25.7
    L352.9,1422.7L352.9,1422.7z M502.8,1333.8l35.3,35.3h8.8l-35.4-35.3H502.8z M388.3,1325.5l-35.3-35.3v8.8l34.8,34.8H379l0.1,0.2
    H379l-26.1-26.1v8.8l17.2,17.2h-8.7l0.1,0.2h-0.1l-8.5-8.5v8.7l-0.4-0.4h-8.8l9.2,9.2v8.8l-18.1-18.1H326l26.9,26.9v8.9
    l35.3,35.3v-8.8l-26.9-26.9h8.9l18,18v-8.8l-9.2-9.2h8.8l0.4,0.4v-9l8.5,8.5h8.8l-17.3-17.3v-8.8l26.1,26.1h8.8l-35-34.9
    L388.3,1325.5L388.3,1325.5z M873.3,1333.8l35.3,35.3h8.8l-35.3-35.3H873.3z M1413.1,1439.8h8l-8-8V1439.8z M1262.1,1333.8
    l35.4,35.3h8.8l-35.3-35.3H1262.1z M1413.1,1405.2l34.5,34.6h0.8v-8l-35.3-35.3L1413.1,1405.2L1413.1,1405.2z M1413.1,1387.5
    l35.3,35.3v-8.8l-35.3-35.3V1387.5z M891,1333.8l35.3,35.3h8.8l-35.3-35.3H891z M1350.5,1333.8l35.3,35.3h8.8l-35.3-35.3H1350.5z
        M1279.8,1333.8l35.3,35.3h8.8l-35.3-35.3H1279.8z M1297.5,1333.8l35.4,35.3h8.8l-35.3-35.3H1297.5z M1332.8,1333.8l35.3,35.3
    h8.8l-35.3-35.3H1332.8z M1315.1,1333.8l35.3,35.3h8.8l-35.3-35.3H1315.1z M1368.2,1333.8l35.3,35.3h8.8l-35.3-35.3H1368.2z
        M1509.5,980.7l35.3,35.3h8v-0.8l-34.6-34.5H1509.5z M1527.2,1333.8l25.7,25.7v-8.8l-16.9-16.9H1527.2z M1544.4,1333.8l8.5,8.5
    v-8.5H1544.4z M1552.9,988.7v-8h-8L1552.9,988.7z M1527.2,980.7l25.7,25.7v-8.8l-16.9-16.8H1527.2z M1509.5,1333.8l35.3,35.3h8
    v-0.8l-34.6-34.5L1509.5,1333.8L1509.5,1333.8z M1474.2,1333.8l35.3,35.3h8.8l-35.3-35.3H1474.2z M1456.5,1333.8l35.3,35.3h8.8
    l-35.3-35.3H1456.5z M1491.8,1333.8l35.3,35.3h8.8l-35.3-35.3H1491.8z M1448.5,1334L1448.5,1334l0-8.2l-35.3-35.3v8.8l34.7,34.8
    h0l-0.2-0.2h-8.8l-25.8-25.8v8.8l17.1,17.1h-0.1l-0.2-0.2h-8.8l-8.1-8.1v8.8l0,0v0.1l-0.8-0.8h-8.8l9.6,9.6v8.8l0,0v0.1
    l-18.5-18.5h-8.8l27.3,27.3v8.8l35.3,35.3v-8.8l-27.1-27.1h8.8l18.2,18.3v-8.8l-9.4-9.4h9.5v-8.2l8.1,8h8.8l-16.9-16.9v-8.8
    l25.7,25.7h8.8l-34.5-34.5L1448.5,1334L1448.5,1334z M1413.1,1422.9l16.9,16.9h8.8l-25.7-25.7V1422.9z M997,1333.8l35.4,35.3h8.8
    l-35.3-35.3H997z M979.4,1333.8l35.3,35.3h8.8l-35.3-35.3H979.4z M1014.7,1333.8l35.3,35.3h8.8l-35.3-35.3H1014.7z
        M1059.3,1439.5h8l-8-8V1439.5z M1059.3,1422.7l16.9,16.9h8.8l-25.7-25.7V1422.7z M1059.3,1405l34.5,34.6h0.8v-8l-35.3-35.4
    L1059.3,1405L1059.3,1405z M908.7,1333.8l35.3,35.3h8.8l-35.3-35.3H908.7z M926.3,1333.8l35.3,35.3h8.8l-35.3-35.3H926.3z
        M944,1333.8l35.3,35.3h8.8l-35.4-35.3H944z M961.7,1333.8l35.3,35.3h8.8l-35.3-35.3H961.7z M1209.1,1333.8l35.3,35.3h8.8
    l-35.3-35.3H1209.1z M1173.8,1333.8l35.3,35.3h8.8l-35.3-35.3H1173.8z M1191.4,1333.8l35.3,35.3h8.8l-35.3-35.3H1191.4z
        M1156.1,1333.8l35.3,35.3h8.8l-35.3-35.3H1156.1z M1244.4,1333.8l35.3,35.3h8.8l-35.4-35.3H1244.4z M1226.8,1333.8l35.3,35.3
    h8.8l-35.3-35.3H1226.8z M1059.3,1387.3l35.3,35.3v-8.8l-35.3-35.3V1387.3z M1094.6,830.7l-35.3-35.3v8.8l35.3,35.3V830.7z
        M1103.1,1333.8l35.3,35.3h8.8l-35.3-35.3H1103.1z M1094.6,1325.5l-35.3-35.3v8.8l34.8,34.8h-8.7l0.2,0.2h-0.1l-26.1-26.1v8.8
    l17.2,17.2h-8.7l0.2,0.2h-0.1l-8.5-8.5v8.7l-0.4-0.4h-8.8l9.2,9.2v8.8l-18.1-18.1h-8.8l26.9,26.9v8.9l35.3,35.3v-8.8l-26.9-26.9
    h8.8l18,18v-8.8l-9.2-9.2h8.8l0.4,0.4v-9l8.5,8.5h8.8l-17.3-17.3v-8.8l26.1,26.1h8.8l-34.9-34.9L1094.6,1325.5L1094.6,1325.5z
        M1120.7,1333.8l35.3,35.3h8.8l-35.3-35.3H1120.7z M1138.4,1333.8l35.3,35.3h8.8l-35.3-35.3H1138.4z M299.5,1016l-35.4-35.3h-8.8
    l35.4,35.3H299.5z M617.6,1016l-35.3-35.3h-8.8l35.3,35.3H617.6z M334.9,1016l-35.4-35.3h-8.8L326,1016H334.9z M264.2,1016
    l-35.4-35.3H220l35.4,35.3H264.2z M352.5,1016l-35.4-35.3h-8.8l35.4,35.3H352.5z M317.2,1016l-35.4-35.3H273l35.4,35.3H317.2z
        M388.3,813l-35.3-35.3v8.8l35.3,35.3V813z M140.3,1333.8v8.6l26.7,26.7h8.8l-35.4-35.3H140.3z M388.3,795.3L352.9,760v8.8
    l35.3,35.3V795.3z M388.3,777.7l-35.3-35.3v8.8l35.3,35.3V777.7z M440.9,1016l-35.4-35.3h-8.8l35.4,35.3H440.9z M546.9,1016
    l-35.4-35.3h-8.8l35.4,35.3H546.9z M564.6,1016l-35.3-35.3h-8.8l35.3,35.3H564.6z M529.2,1016l-35.4-35.3h-8.8l35.4,35.3H529.2z
        M582.3,1016l-35.4-35.3h-8.8l35.3,35.3H582.3z M600,1016l-35.3-35.3h-8.8l35.4,35.3H600z M458.6,1016l-35.4-35.3h-8.8l35.4,35.3
    H458.6z M511.6,1016l-35.4-35.3h-8.8l35.4,35.3H511.6z M388.3,830.7l-35.3-35.3v8.8l35.3,35.3V830.7z M476.2,1016l-35.4-35.3
    h-8.8l35.4,35.3H476.2z M493.9,1016l-35.4-35.3h-8.8l35.4,35.3H493.9z M281.9,1016l-35.4-35.3h-8.8L273,1016H281.9z M742.1,901.6
    l-35.3-35.3v8.8l35.3,35.3V901.6z M742.1,919.3l-35.3-35.4v8.8l35.3,35.3V919.3z M742.1,866.2l-35.3-35.4v8.8l35.3,35.3V866.2z
        M706.8,928.1l35.3,35.3v-8.8l-35.3-35.3V928.1z M742.1,848.6l-35.3-35.3v8.8l35.3,35.4V848.6z M742.1,883.9l-35.3-35.3v8.8
    l35.3,35.3V883.9z M1094.6,795.3l-35.3-35.3v8.8l35.3,35.3V795.3z M1094.6,813l-35.3-35.3v8.8l35.3,35.3V813z M388.3,848.3
    L352.9,813v8.8l35.3,35.4V848.3z M1094.6,777.7l-35.3-35.3v8.8l35.3,35.3V777.7z M742.1,936.9l-35.3-35.3v8.8l35.3,35.3V936.9z
        M388.3,919l-35.3-35.3v8.8l35.3,35.3V919z M388.3,901.4L352.9,866v8.8l35.3,35.3V901.4z M742.1,830.9l-35.3-35.3v8.8l35.3,35.3
    V830.9z M388.3,866l-35.3-35.4v8.8l35.3,35.3V866z M388.3,883.7l-35.3-35.3v8.8l35.3,35.3V883.7z M352.9,927.8l35.3,35.3v-8.8
    L352.9,919V927.8z M742.1,813.2l-35.3-35.3v8.8l35.3,35.3V813.2z M388.3,936.7l-35.3-35.3v8.8l35.3,35.3V936.7z M742.1,795.5
    l-35.3-35.3v8.8l35.3,35.3V795.5z M742.1,777.9l-35.3-35.3v8.8l35.3,35.3V777.9z M246.5,1016l-35.4-35.3h-8.8l35.4,35.3H246.5z
        M1306.3,1016l-35.3-35.3h-8.8l35.4,35.3H1306.3z M1288.6,1016l-35.4-35.3h-8.8l35.3,35.3H1288.6z M635.3,1016l-35.3-35.3h-8.8
    l35.4,35.3H635.3z M1270.9,1016l-35.3-35.3h-8.8l35.3,35.3H1270.9z M1377,1016l-35.3-35.3h-8.8l35.3,35.3H1377z M1359.3,1016
    l-35.3-35.3h-8.8l35.3,35.3H1359.3z M1217.9,1016l-35.3-35.3h-8.8l35.3,35.3H1217.9z M1200.3,1016l-35.3-35.3h-8.8l35.3,35.3
    H1200.3z M1182.6,1016l-35.3-35.3h-8.8l35.3,35.3H1182.6z M1235.6,1016l-35.3-35.3h-8.8l35.3,35.3H1235.6z M1253.3,1016
    l-35.3-35.3h-8.8l35.3,35.3H1253.3z M1394.7,1016l-35.3-35.3h-8.8l35.3,35.3H1394.7z M175.8,1016l-35.4-35.3h-0.2v8.6L167,1016
    L175.8,1016L175.8,1016z M158.1,1016l-17.9-17.9v8.8l9.1,9H158.1z M140.3,1360.1l9.1,9.1h8.8l-17.9-17.9L140.3,1360.1
    L140.3,1360.1z M140.3,1369.1h0.2l-0.2-0.2V1369.1z M140.3,1015.8v0.2h0.2L140.3,1015.8z M1536,1016l-35.3-35.3h-8.8l35.3,35.3
    H1536z M1500.7,1016l-35.3-35.3h-8.8l35.3,35.3H1500.7z M1412.3,1016l-35.3-35.3h-8.8l35.3,35.3H1412.3z M1518.3,1016l-35.3-35.3
    h-8.8l35.3,35.3H1518.3z M1324,1016l-35.3-35.3h-8.8l35.3,35.3H1324z M829.7,1016l-35.3-35.3h-8.8l35.3,35.3H829.7z M812,1016
    l-35.3-35.3h-8.8l35.3,35.3H812z M794.3,1016L759,980.7h-8.8l35.3,35.3H794.3z M899.8,1016l-35.3-35.3h-8.8L891,1016H899.8z
        M881.6,1016v-0.8l-34.5-34.5h-8.8l35.3,35.3H881.6z M846.5,1016v-0.8L812,980.7h-8.8l35.3,35.3H846.5z M706,1016l-35.3-35.3
    h-8.8l35.3,35.3H706z M653,1016l-35.3-35.3h-8.8l35.3,35.3H653z M670.6,1016l-35.3-35.3h-8.8l35.3,35.3H670.6z M688.3,1016
    L653,980.7h-8.8l35.3,35.3H688.3z M988.2,1016l-35.4-35.3H944l35.3,35.3H988.2z M1005.9,1016l-35.3-35.3h-8.8L997,1016H1005.9z
        M1023.5,1016l-35.3-35.3h-8.8l35.3,35.3H1023.5z M1041.2,1016l-35.3-35.3H997l35.4,35.3H1041.2z M1058.9,1016l-35.3-35.3h-8.8
    l35.4,35.3H1058.9z M1147.2,1016l-35.3-35.3h-8.8l35.3,35.3H1147.2z M935.2,1016l-35.3-35.3H891l35.3,35.3H935.2z M917.5,1016
    l-35.3-35.3h-8.8l35.3,35.3H917.5z M952.8,1016l-35.3-35.3h-8.8L944,1016H952.8z M1164.9,1016l-35.3-35.3h-8.8l35.3,35.3H1164.9z
        M970.5,1016l-35.3-35.3h-8.8l35.3,35.3H970.5z"/>
    </svg>
    