<?xml version="1.0" encoding="UTF-8"?>
<svg width="97px" height="183px" viewBox="0 0 97 183" version="1.1" xmlns="http://www.w3.org/2000/svg" xmlns:xlink="http://www.w3.org/1999/xlink">
    <defs></defs>
    <g id="Our-global-position" stroke="none" stroke-width="1" fill="none" fill-rule="evenodd">
        <g id="small" transform="translate(-112.000000, -3187.000000)" fill-rule="nonzero">
            <g id="fact-7" transform="translate(0.000000, 3114.000000)">
                <g id="expert" transform="translate(112.000000, 73.000000)">
                    <g id="Group_418">
                        <g id="Group_417">
                            <path d="M48.1982222,0.215951537 C38.6981881,0.215951537 30.9968889,7.93139828 30.9968889,17.4488842 C30.9968889,26.96637 38.6981881,34.6818168 48.1982222,34.6818168 C57.6982563,34.6818168 65.3995556,26.96637 65.3995556,17.4488842 C65.3886272,7.93593694 57.693726,0.226899922 48.1982222,0.215951537 Z" id="Path_241" fill="#3DABB6"></path>
                            <path d="M65.4426667,38.5689444 C55.4156723,46.8039058 40.9807722,46.8039058 30.9537778,38.5689444 C22.9782222,43.8813522 17.5893333,52.562604 17.5893333,61.9349007 L17.5893333,66.9449764 L78.8933333,66.9449764 L78.8933333,61.978091 C78.8502222,52.562604 73.4182222,43.8813522 65.4426667,38.5689444 Z" id="Path_242" fill="#3DABB6"></path>
                            <path d="M92.344,73.5099031 L4.78533333,73.5099031 C3.61835086,73.5074886 2.49847108,73.9708534 1.6732881,74.7975523 C0.848105113,75.6242511 0.385589938,76.7461882 0.388,77.9153144 L0.388,95.4505792 C0.385589938,96.6197054 0.848105113,97.7416425 1.6732881,98.5683413 C2.49847108,99.3950402 3.61835086,99.858405 4.78533333,99.8559905 L92.344,99.8559905 C93.5109825,99.858405 94.6308623,99.3950402 95.4560452,98.5683413 C96.2812282,97.7416425 96.7437434,96.6197054 96.7413333,95.4505792 L96.7413333,77.9153144 C96.7158998,75.4929057 94.7619669,73.5353833 92.344,73.5099031 Z" id="Path_243" fill="#008C97"></path>
                            <polygon id="Path_244" fill="#3DABB6" points="76.7808889 155.096394 81.7817778 106.334537 72.9871111 106.334537 67.9431111 155.096394"></polygon>
                            <polygon id="Path_245" fill="#3DABB6" points="29.876 155.096394 24.832 106.334537 15.9942222 106.334537 21.0813333 155.096394"></polygon>
                            <path d="M83.5924444,156.392103 L13.5368889,156.392103 C12.3699064,156.389688 11.2500266,156.853053 10.4248437,157.679752 C9.59966067,158.506451 9.13714549,159.628388 9.13955556,160.797514 L9.13955556,178.332779 C9.13714549,179.501905 9.59966067,180.623842 10.4248437,181.450541 C11.2500266,182.27724 12.3699064,182.740605 13.5368889,182.73819 L83.5924444,182.73819 C84.7594269,182.740605 85.8793067,182.27724 86.7044897,181.450541 C87.5296727,180.623842 87.9921878,179.501905 87.9897778,178.332779 L87.9897778,160.797514 C87.9796215,158.3687 86.0168053,156.402278 83.5924444,156.392103 L83.5924444,156.392103 Z" id="Path_246" fill="#008C97"></path>
                        </g>
                    </g>
                </g>
            </g>
        </g>
    </g>
</svg>