<?xml version="1.0" encoding="UTF-8"?>
<svg width="367px" height="393px" viewBox="0 0 367 393" version="1.1" xmlns="http://www.w3.org/2000/svg" xmlns:xlink="http://www.w3.org/1999/xlink">
    <defs>
        <rect id="path-1" x="0" y="0" width="521" height="433.276667"></rect>
    </defs>
    <g id="Our-global-position" stroke="none" stroke-width="1" fill="none" fill-rule="evenodd">
        <g id="xxlarge" transform="translate(-408.000000, -4933.000000)">
            <g id="fact-7" transform="translate(0.000000, 4825.000000)">
                <g id="expert" transform="translate(302.000000, 67.000000)">
                    <mask id="mask-2" fill="white">
                        <use xlink:href="#path-1"></use>
                    </mask>
                    <g id="Mask"></g>
                    <g id="Group-499" mask="url(#mask-2)">
                        <g transform="translate(106.000000, 112.811667)" id="Group_499">
                            <g>
                                <g id="Group_418" fill-rule="nonzero">
                                    <g id="Group_417">
                                        <path d="M111.8,0.499166667 C89.7638385,0.499166667 71.9,18.3332321 71.9,40.3326667 C71.9,62.3321012 89.7638385,80.1661667 111.8,80.1661667 C133.836162,80.1661667 151.7,62.3321012 151.7,40.3326667 C151.674651,18.3437231 133.825653,0.52447359 111.8,0.499166667 Z" id="Path_241" fill="#3DABB6"></path>
                                        <path d="M151.8,89.1511667 C128.541508,108.186077 95.0584922,108.186077 71.8,89.1511667 C53.3,101.430667 40.8,121.497167 40.8,143.161 L40.8,154.741667 L183,154.741667 L183,143.260833 C182.9,121.497167 170.3,101.430667 151.8,89.1511667 Z" id="Path_242" fill="#3DABB6"></path>
                                        <path d="M214.2,169.916333 L11.1,169.916333 C8.39308188,169.910752 5.79542261,170.981809 3.88133837,172.892703 C1.96725413,174.803597 0.894409651,177.396927 0.9,180.099333 L0.9,220.631667 C0.894409651,223.334073 1.96725413,225.927403 3.88133837,227.838297 C5.79542261,229.749191 8.39308188,230.820248 11.1,230.814667 L214.2,230.814667 C216.906918,230.820248 219.504577,229.749191 221.418662,227.838297 C223.332746,225.927403 224.40559,223.334073 224.4,220.631667 L224.4,180.099333 C224.341005,174.499995 219.808686,169.97523 214.2,169.916333 Z" id="Path_243" fill="#008C97"></path>
                                        <polygon id="Path_244" fill="#3DABB6" points="178.1 358.5015 189.7 245.789667 169.3 245.789667 157.6 358.5015"></polygon>
                                        <polygon id="Path_245" fill="#3DABB6" points="69.3 358.5015 57.6 245.789667 37.1 245.789667 48.9 358.5015"></polygon>
                                    </g>
                                </g>
                            </g>
                        </g>
                    </g>
                    <g id="speech" mask="url(#mask-2)">
                        <g transform="translate(315.000000, 40.931667)" id="Group_416">
                            <g>
                                <path d="M43.8,136.8715 C43.08875,136.873115 42.3929053,136.66471 41.8,136.2725 C40.6055709,135.560365 39.881571,134.266946 39.9,132.878167 L39.9,102.229333 L4.6,102.229333 C2.44608948,102.229333 0.7,100.486154 0.7,98.3358333 L0.7,4.4925 C0.7,2.34217933 2.44608948,0.599 4.6,0.599 L153.7,0.599 C155.853911,0.599 157.6,2.34217933 157.6,4.4925 L157.6,98.5355 C157.6,100.685821 155.853911,102.429 153.7,102.429 L110.7,102.429 L45.6,136.472167 C45.0478655,136.767096 44.4252887,136.905216 43.8,136.8715 L43.8,136.8715 Z M8.5,94.5421667 L43.8,94.5421667 C45.9539105,94.5421667 47.7,96.285346 47.7,98.4356667 L47.7,126.488833 L107.9,94.9415 C108.459685,94.6674711 109.076738,94.5305769 109.7,94.5421667 L149.7,94.5421667 L149.7,8.386 L8.5,8.386 L8.5,94.5421667 Z" id="Path_238" fill="#3DABB6" fill-rule="nonzero"></path>
                                <path d="M126.2,43.6271667 L32,43.6271667 C29.8460895,43.6271667 28.1,41.8839873 28.1,39.7336667 C28.1378971,37.5992137 29.8619837,35.8780006 32,35.8401667 L126.2,35.8401667 C128.353911,35.8401667 130.1,37.583346 130.1,39.7336667 C130.1,41.8839873 128.353911,43.6271667 126.2,43.6271667 L126.2,43.6271667 Z" id="Path_239" fill="#3DABB6" fill-rule="nonzero"></path>
                                <path d="M126.2,67.088 L32,67.088 C29.8460895,67.088 28.1,65.3448207 28.1,63.1945 C28.1378971,61.0600471 29.8619837,59.3388339 32,59.301 L126.2,59.301 C128.353911,59.301 130.1,61.0441793 130.1,63.1945 C130.1,65.3448207 128.353911,67.088 126.2,67.088 L126.2,67.088 Z" id="Path_240" fill="#3DABB6" fill-rule="nonzero"></path>
                            </g>
                        </g>
                    </g>
                </g>
            </g>
        </g>
    </g>
</svg>