<?xml version="1.0" encoding="UTF-8"?>
<svg width="405px" height="144px" viewBox="0 0 405 144" version="1.1" xmlns="http://www.w3.org/2000/svg" xmlns:xlink="http://www.w3.org/1999/xlink">
    <defs></defs>
    <g id="Our-global-position" stroke="none" stroke-width="1" fill="none" fill-rule="evenodd">
        <g id="xxlarge" transform="translate(-759.000000, -6628.000000)" fill-rule="nonzero">
            <g id="fact-10" transform="translate(0.000000, 6439.000000)">
                <g id="flags">
                    <g transform="translate(759.000000, 189.000000)">
                        <g id="flagsAsset-1">
                            <g id="Layer_2">
                                <g id="Layer_1-2">
                                    <polygon id="Shape" fill="#3DABB6" points="267.192013 50.6075431 160.609545 88.3703017 141.953073 37.8081466 248.580934 0 235.507787 34.4948276"></polygon>
                                    <polygon id="Shape" fill="#008C97" points="248.444756 0.136163793 160.473366 88.0525862 160.564152 88.3249138 267.192013 50.5167672 235.462394 34.4040517"></polygon>
                                    <path d="M179.084444,143.516638 C177.733313,143.956777 176.263925,143.338155 175.634586,142.064224 L136.36975,35.2664224 C135.996399,33.7270694 136.925249,32.1724246 138.457822,31.7715517 C139.91389,31.0748784 141.660197,31.6569175 142.407002,33.0878017 L181.762624,139.885603 C181.939207,140.638094 181.808578,141.429924 181.399648,142.085844 C180.990719,142.741763 180.337213,143.207679 179.583766,143.380474 L179.084444,143.516638 Z" id="Shape" fill="#008C97"></path>
                                    <polygon id="Shape" fill="#3DABB6" points="131.240355 50.6075431 24.657887 88.3703017 6.00141576 37.8081466 112.583884 0 99.5561291 34.4948276"></polygon>
                                    <polygon id="Shape" fill="#008C97" points="112.493098 0.136163793 24.5217084 88.0525862 24.6124941 88.3249138 131.194962 50.5167672 99.5107362 34.4040517"></polygon>
                                    <path d="M43.0873938,143.516638 C41.7362621,143.956777 40.266875,143.338155 39.6375354,142.064224 L0.191127891,35.2664224 C0.017646906,34.49447 0.166590737,33.6851625 0.603538963,33.0255282 C1.04048719,32.3658939 1.72762764,31.9130155 2.50616446,31.7715517 C3.96223237,31.0748784 5.7085397,31.6569175 6.4553445,33.0878017 L45.5840019,139.885603 C45.7605845,140.638094 45.6299556,141.429924 45.2210263,142.085844 C44.8120971,142.741763 44.1585909,143.207679 43.4051439,143.380474 L43.0873938,143.516638 Z" id="Shape" fill="#008C97"></path>
                                    <polygon id="Shape" fill="#3DABB6" points="404.414671 50.6075431 297.78681 88.3703017 279.175731 37.8081466 385.7582 0 372.685052 34.4948276"></polygon>
                                    <polygon id="Shape" fill="#008C97" points="385.667414 0.136163793 297.696024 88.0525862 297.78681 88.3249138 404.369278 50.5167672 372.685052 34.4040517"></polygon>
                                    <path d="M316.26171,143.516638 C314.910578,143.956777 313.441191,143.338155 312.811851,142.064224 L273.501622,35.2664224 C273.131205,33.7131508 274.084122,32.1521592 275.635087,31.7715517 C277.091155,31.0748784 278.837463,31.6569175 279.584267,33.0878017 L318.939889,139.885603 C319.116472,140.638094 318.985843,141.429924 318.576914,142.085844 C318.167984,142.741763 317.514478,143.207679 316.761031,143.380474 L316.26171,143.516638 Z" id="Shape" fill="#008C97"></path>
                                </g>
                            </g>
                        </g>
                    </g>
                </g>
            </g>
        </g>
    </g>
</svg>