<?xml version="1.0" encoding="UTF-8"?>
<svg width="196px" height="127px" viewBox="0 0 196 127" version="1.1" xmlns="http://www.w3.org/2000/svg" xmlns:xlink="http://www.w3.org/1999/xlink">
    <!-- Generator: Sketch 42 (36781) - http://www.bohemiancoding.com/sketch -->
    <title>3</title>
    <desc>Created with Sketch.</desc>
    <defs></defs>
    <g id="Our-global-position" stroke="none" stroke-width="1" fill="none" fill-rule="evenodd">
        <g id="xxlarge-copy" transform="translate(-688.000000, -2321.000000)" fill-rule="nonzero">
            <g id="3" transform="translate(685.000000, 2321.000000)">
                <path d="M113.41,51.333 C113.060447,49.553783 113.482012,47.7097957 114.56995,46.2592122 C115.657887,44.8086288 117.310077,43.8876097 119.116,43.725 C120.895217,43.3754468 122.739204,43.797012 124.189788,44.8849497 C125.640371,45.9728873 126.56139,47.6250768 126.724,49.431 L136.868,113.146 C137.217553,114.925217 136.795988,116.769204 135.70805,118.219788 C134.620113,119.670371 132.967923,120.59139 131.162,120.754 C129.382783,121.103553 127.538796,120.681988 126.088212,119.59405 C124.637629,118.506113 123.71661,116.853923 123.554,115.048 L113.41,51.333 Z" id="Path_203" fill="#3DABB6"></path>
                <path d="M61.108,111.878 C60.7317416,113.647665 61.0942326,115.494234 62.1115765,116.990328 C63.1289205,118.486422 64.7129317,119.502357 66.497,119.803 C70.1608223,120.45021 73.6739267,118.062771 74.421,114.418 L86.784,51.018 C87.1602584,49.2483346 86.7977674,47.4017661 85.7804235,45.905672 C84.7630795,44.409578 83.1790683,43.3936433 81.395,43.093 C79.6253346,42.7167416 77.7787661,43.0792326 76.282672,44.0965765 C74.786578,45.1139205 73.7706433,46.6979317 73.47,48.482 L61.108,111.878 Z" id="Path_204" fill="#3DABB6"></path>
                <g id="Group-3" transform="translate(72.000000, 42.000000)" fill="#3DABB6">
                    <polygon id="Path_201" points="46.8 11.235 46.8 1.408 9.4 0.774 9.4 10.601 0.836 10.284 8.127 55.297 46.483 55.931 55.042 11.231"></polygon>
                    <polygon id="Path_202" points="46.799 11.235 46.799 1.408 28.099 1.091 28.099 10.918 27.782 16.941 27.146 55.613 46.482 55.93 55.041 11.23"></polygon>
                    <path d="M9.18362666,85 L8.127,55.296 L46.483,55.93 L44.4065129,85 L9.18362666,85 Z" id="Combined-Shape"></path>
                </g>
                <path d="M116.405786,127 L118.482,97.93 L99.144,97.613 L98.6213248,127 L116.405786,127 Z" id="Combined-Shape" fill="#008C97"></path>
                <ellipse id="Ellipse_24" fill="#3DABB6" transform="translate(100.680141, 20.683470) rotate(-88.988000) translate(-100.680141, -20.683470) " cx="100.680141" cy="20.6834696" rx="20.287" ry="20.287"></ellipse>
                <path d="M101.048,0.614 L100.414,40.872 C105.799304,40.9736222 111.002583,38.9223848 114.86983,35.1732206 C118.737077,31.4240563 120.948629,26.2868664 121.014,20.901 C120.863543,9.88375728 112.061442,0.940142005 101.048,0.614 L101.048,0.614 Z" id="Path_207" fill="#008C97"></path>
                <g id="Group-2" transform="translate(0.000000, 2.000000)">
                    <path d="M17.4103712,125 C18.1075757,123.915282 18.5072585,122.622951 18.497046,121.240214 L17.40086,56.66351 C17.4007503,54.8545154 16.6621479,53.1239696 15.3559979,51.8723972 C14.049848,50.6208247 12.2893706,49.9567149 10.482018,50.033772 C8.67302345,50.0338817 6.94247762,50.7724841 5.69090517,52.0786341 C4.43933273,53.384784 3.7752229,55.1452614 3.85228,56.952614 L4.948612,121.525198 C4.94868705,122.762959 5.2944987,123.963993 5.93128795,125 L17.4103712,125 Z" id="Combined-Shape" fill="#3DABB6"></path>
                    <polygon id="Path_201-2" fill="#3DABB6" transform="translate(34.288026, 72.836411) rotate(-12.006708) translate(-34.288026, -72.836411) " points="53.1466494 55.7210679 53.1466494 45.8953062 15.7513621 45.2613861 15.7513621 55.0871478 7.18844119 54.7701878 14.4785225 99.7775158 52.8296893 100.411436 61.3876108 55.7170684"></polygon>
                    <polygon id="Path_202-2" fill="#3DABB6" transform="translate(47.185991, 70.254799) rotate(-12.006708) translate(-47.185991, -70.254799) " points="52.8907721 52.9814759 52.8907721 43.1557141 34.1931284 42.8387541 34.1931284 52.6645158 33.8761684 58.6867568 33.2402485 97.3538839 52.573812 97.6708439 61.1317335 52.9764765"></polygon>
                    <path d="M49.6785999,48.3176915 C49.3290908,46.5386986 49.7506029,44.6949438 50.8384034,43.244543 C51.926204,41.7941423 53.5781853,40.8732394 55.3838809,40.7106501 C57.1628738,40.361141 59.0066287,40.7826531 60.4570294,41.8704536 C61.9074301,42.9582542 62.828333,44.6102354 62.9909223,46.4159311 L73.1336441,110.122903 C73.4831532,111.901895 73.0616411,113.74565 71.9738406,115.196051 C70.88604,116.646452 69.2340587,117.567355 67.4283631,117.729944 C65.6493702,118.079453 63.8056153,117.657941 62.3552146,116.57014 C60.9048139,115.48234 59.983911,113.830359 59.8213217,112.024663 L49.6785999,48.3176915 Z" id="Path_203-2" fill="#3DABB6" transform="translate(61.406122, 79.220297) rotate(-12.006708) translate(-61.406122, -79.220297) "></path>
                    <path d="M25.9422325,125 L20.516138,103.30805 L58.160178,95.950054 L62.2020321,125 L25.9422325,125 Z" id="Combined-Shape" fill="#3DABB6"></path>
                    <path d="M62.2013017,125 L58.1592,95.950262 L39.1807,99.66254 L44.1001848,125 L62.2013017,125 Z" id="Combined-Shape" fill="#008C97"></path>
                    <ellipse id="Ellipse_24-2" fill="#3DABB6" transform="translate(24.681703, 24.105942) rotate(-100.994708) translate(-24.681703, -24.105942) " cx="24.6817034" cy="24.105942" rx="20.2844437" ry="20.2844437"></ellipse>
                    <path d="M24.8427928,1.950617 L24.2088727,42.2035442 C29.5934984,42.3051536 34.7961216,40.2541747 38.662881,36.5054828 C42.5296404,32.756791 44.7409145,27.6202484 44.8062769,22.2350607 C44.6558389,11.2192062 35.854847,2.27671791 24.8427928,1.950617 L24.8427928,1.950617 Z" id="Path_207-2" fill="#008C97" transform="translate(34.507575, 22.078882) rotate(-12.006708) translate(-34.507575, -22.078882) "></path>
                </g>
                <g id="Group" transform="translate(116.000000, 4.000000)">
                    <polygon id="Path_201-3" fill="#3DABB6" transform="translate(50.087162, 73.384806) rotate(13.000000) translate(-50.087162, -73.384806) " points="68.9481624 56.2673062 68.9481624 46.4403062 31.5481624 45.8063062 31.5481624 55.6333062 22.9841624 55.3163062 30.2751624 100.329306 68.6311624 100.963306 77.1901624 56.2633062"></polygon>
                    <polygon id="Path_202-3" fill="#3DABB6" transform="translate(62.868971, 76.497875) rotate(13.000000) translate(-62.868971, -76.497875) " points="68.5744712 59.2223753 68.5744712 49.3953753 49.8744712 49.0783753 49.8744712 58.9053753 49.5574712 64.9283753 48.9214712 103.600375 68.2574712 103.917375 76.8164712 59.2173753"></polygon>
                    <path d="M76.4701,123 L80.8919781,59.0248369 C81.1397803,57.2286201 80.6140287,55.411592 79.4453563,54.0252278 C78.2766839,52.6388637 76.5747895,51.8132963 74.7625413,51.7536537 C72.9663246,51.5058514 71.1492964,52.031603 69.7629323,53.2002754 C68.3765681,54.3689478 67.5510007,56.0708423 67.4913581,57.8830904 L63.0426116,122.246983 C63.0079828,122.497993 62.9884602,122.74941 62.9836873,123.000001 L76.4701,123 Z" id="Combined-Shape" fill="#3DABB6"></path>
                    <path d="M9.4308434,108.779281 C9.05458499,110.548946 9.41707597,112.395515 10.4344199,113.891609 C11.4517639,115.387703 13.0357751,116.403638 14.8198434,116.704281 C18.4836657,117.351491 21.9967701,114.964052 22.7438434,111.319281 L35.1068434,47.9192809 C35.4831018,46.1496154 35.1206108,44.303047 34.1032669,42.8069529 C33.0859229,41.3108588 31.5019117,40.2949241 29.7178434,39.9942809 C27.948178,39.6180225 26.1016095,39.9805134 24.6055154,40.9978574 C23.1094214,42.0152014 22.0934867,43.5992125 21.7928434,45.3832809 L9.4308434,108.779281 Z" id="Path_204-3" fill="#3DABB6" transform="translate(22.268843, 78.329603) rotate(13.000000) translate(-22.268843, -78.329603) "></path>
                    <path d="M19.3332827,123 L24.7219739,95.1810158 L61.9522932,104.426989 L56.2435516,123 L19.3332827,123 Z" id="Combined-Shape" fill="#3DABB6"></path>
                    <path d="M56.242698,123 L61.9513188,104.426764 L43.18026,99.7677853 L37.3796555,123 L56.242698,123 Z" id="Combined-Shape" fill="#008C97"></path>
                    <ellipse id="Ellipse_24-3" fill="#3DABB6" transform="translate(61.982409, 25.155510) rotate(-75.988000) translate(-61.982409, -25.155510) " cx="61.9824086" cy="25.1555103" rx="20.287" ry="20.287"></ellipse>
                    <path d="M62.0793039,7.34159593 L61.4453039,47.5995959 C66.8306082,47.7012181 72.0338871,45.6499808 75.9011338,41.9008165 C79.7683805,38.1516522 81.9799332,33.0144623 82.0453039,27.6285959 C81.8948469,16.6113532 73.0927459,7.66773793 62.0793039,7.34159593 L62.0793039,7.34159593 Z" id="Path_207-3" fill="#008C97" transform="translate(71.745304, 27.472398) rotate(13.000000) translate(-71.745304, -27.472398) "></path>
                </g>
            </g>
        </g>
    </g>
</svg>