<?xml version="1.0" encoding="UTF-8"?>
<svg width="122px" height="113px" viewBox="0 0 122 113" version="1.1" xmlns="http://www.w3.org/2000/svg" xmlns:xlink="http://www.w3.org/1999/xlink">
    <!-- Generator: Sketch 42 (36781) - http://www.bohemiancoding.com/sketch -->
    <title>1</title>
    <desc>Created with Sketch.</desc>
    <defs></defs>
    <g id="Our-global-position" stroke="none" stroke-width="1" fill="none" fill-rule="evenodd">
        <g id="xxlarge-copy" transform="translate(-576.000000, -2335.000000)" fill-rule="nonzero">
            <g id="1" transform="translate(576.000000, 2331.000000)">
                <polygon id="Path_208-2" fill="#BCDBE0" transform="translate(30.848466, 85.071535) rotate(-6.000000) translate(-30.848466, -85.071535) " points="48.2029658 69.0300347 48.2029658 59.9880347 13.4939658 59.9880347 13.4939658 69.0300347 5.91096583 69.0300347 13.2029658 110.155035 48.4939658 110.155035 55.7859658 69.0300347"></polygon>
                <polygon id="Path_209-2" fill="#87C2CB" transform="translate(43.176062, 83.775852) rotate(-6.000000) translate(-43.176062, -83.775852) " points="48.134062 67.7343521 48.134062 58.6923521 30.634062 58.6923521 30.634062 108.859352 48.426062 108.859352 55.718062 67.7343521"></polygon>
                <path d="M68.4632689,117 L52.9650763,62.5126394 C52.3218744,60.3799374 50.5897483,58.7523836 48.4211733,58.2430618 C46.2525982,57.73374 43.9770323,58.4200283 42.4516591,60.0434084 C40.926286,61.6667886 40.3828461,63.9806307 41.026048,66.1133327 L55.5000721,117 L68.4632689,117 Z" id="Combined-Shape" fill="#87C2CB"></path>
                <path d="M0.937423006,117 L4.26381666,67.9229455 C4.5951144,64.5141963 7.58124811,61.9895835 10.9976182,62.2298843 C12.6384481,62.287936 14.1886304,62.9969508 15.3056443,64.2002681 C16.4226583,65.4035855 17.014557,67.0021545 16.9505574,68.6427632 L13.672148,117 L0.937423006,117 Z" id="Combined-Shape" fill="#BCDBE0"></path>
                <path d="M16.7396012,117 L15.9205749,111.862186 L51.0192416,108.173168 L51.4729707,117 L16.7396012,117 Z" id="Combined-Shape" fill="#BCDBE0"></path>
                <path d="M51.4729707,117 L51.0192416,108.173168 L33.3247081,110.032938 L34.0569758,117 L51.4729707,117 Z" id="Combined-Shape" fill="#87C2CB"></path>
                <circle id="Ellipse_25-2" fill="#BCDBE0" transform="translate(25.947770, 39.836495) rotate(-6.000000) translate(-25.947770, -39.836495) " cx="25.9477701" cy="39.8364946" r="18.667"></circle>
                <path d="M25.8803642,20.1947836 L25.8803642,57.2367836 C36.1596971,57.1643164 44.474897,48.8491165 44.5473642,38.5697836 C44.4516771,28.3472992 36.1030867,20.1293023 25.8803642,20.1947836 L25.8803642,20.1947836 Z" id="Path_214-2" fill="#87C2CB" transform="translate(35.213864, 38.715589) rotate(-6.000000) translate(-35.213864, -38.715589) "></path>
                <polygon id="Path_208-5" fill="#BCDBE0" transform="translate(80.291586, 67.440771) rotate(-11.000000) translate(-80.291586, -67.440771) " points="97.6460861 51.3992708 97.6460861 42.3572708 62.9370861 42.3572708 62.9370861 51.3992708 55.3540861 51.3992708 62.6460861 92.5242708 97.9370861 92.5242708 105.229086 51.3992708"></polygon>
                <polygon id="Path_209-5" fill="#87C2CB" transform="translate(92.459346, 65.075598) rotate(-11.000000) translate(-92.459346, -65.075598) " points="97.4173458 49.0340979 97.4173458 39.9920979 79.9173458 39.9920979 79.9173458 90.1590979 97.7093458 90.1590979 105.001346 49.0340979"></polygon>
                <path d="M93.9422295,45.0079694 C93.5254792,42.8197177 94.3078044,40.575356 95.9945108,39.1203138 C97.6812173,37.6652716 100.016054,37.2206043 102.119511,37.9538138 C104.222968,38.6870233 105.775479,40.4867177 106.192229,42.6749694 L116.400229,101.298969 C116.81698,103.487221 116.034655,105.731583 114.347948,107.186625 C112.661242,108.641667 110.326405,109.086335 108.222948,108.353125 C106.119491,107.619915 104.56698,105.820221 104.150229,103.631969 L93.9422295,45.0079694 Z" id="Path_210-5" fill="#87C2CB" transform="translate(105.171229, 73.153469) rotate(-11.000000) translate(-105.171229, -73.153469) "></path>
                <path d="M63.6289679,117 C65.1851558,115.790647 66.1827108,113.900178 66.179447,111.781661 L65.0147016,52.2857983 C64.9354691,50.6458546 64.2064983,49.1049561 62.9888589,48.0035719 C61.7712196,46.9021877 60.1651415,46.3309782 58.5254959,46.4161552 C55.1011825,46.474525 52.3464465,49.2497896 52.3135015,52.674442 L53.4792285,112.170114 C53.5125677,114.125985 54.4322591,115.863415 55.8530487,117 L63.6289679,117 Z" id="Combined-Shape" fill="#BCDBE0"></path>
                <path d="M73.156288,117 L67.7554594,95.4305272 L102.399046,88.6964961 L106.347937,117 L73.156288,117 Z" id="Combined-Shape" fill="#BCDBE0"></path>
                <path d="M106.347937,117 L102.399046,88.6964961 L84.9339351,92.0913698 L89.7756824,117 L106.347937,117 Z" id="Combined-Shape" fill="#87C2CB"></path>
                <circle id="Ellipse_25-5" fill="#BCDBE0" transform="translate(71.467045, 22.804987) rotate(-11.000000) translate(-71.467045, -22.804987) " cx="71.4670454" cy="22.8049875" r="18.667"></circle>
                <path d="M71.2666859,2.35994853 L71.2666859,39.4019485 C81.5460188,39.3294814 89.8612187,31.0142814 89.9336859,20.7349485 C89.8379988,10.5124641 81.4894085,2.29446723 71.2666859,2.35994853 L71.2666859,2.35994853 Z" id="Path_214-5" fill="#87C2CB" transform="translate(80.600186, 20.880754) rotate(-11.000000) translate(-80.600186, -20.880754) "></path>
            </g>
        </g>
    </g>
</svg>