<?xml version="1.0" encoding="UTF-8"?>
<svg width="138px" height="153px" viewBox="0 0 138 153" version="1.1" xmlns="http://www.w3.org/2000/svg" xmlns:xlink="http://www.w3.org/1999/xlink">
    <!-- Generator: Sketch 42 (36781) - http://www.bohemiancoding.com/sketch -->
    <title>2</title>
    <desc>Created with Sketch.</desc>
    <defs></defs>
    <g id="Our-global-position" stroke="none" stroke-width="1" fill="none" fill-rule="evenodd">
        <g id="xxlarge-copy" transform="translate(-716.000000, -2295.000000)" fill-rule="nonzero">
            <g id="2" transform="translate(709.000000, 2293.000000)">
                <polygon id="Path_208-3" fill="#BCDBE0" transform="translate(37.848466, 66.071535) rotate(-6.000000) translate(-37.848466, -66.071535) " points="55.2029658 50.0300347 55.2029658 40.9880347 20.4939658 40.9880347 20.4939658 50.0300347 12.9109658 50.0300347 20.2029658 91.1550347 55.4939658 91.1550347 62.7859658 50.0300347"></polygon>
                <polygon id="Path_209-3" fill="#87C2CB" transform="translate(50.176062, 64.775852) rotate(-6.000000) translate(-50.176062, -64.775852) " points="55.134062 48.7343521 55.134062 39.6923521 37.634062 39.6923521 37.634062 89.8593521 55.426062 89.8593521 62.718062 48.7343521"></polygon>
                <path d="M50.9065402,45.7853986 C50.4897899,43.5971468 51.2721151,41.3527852 52.9588216,39.897743 C54.645528,38.4427007 56.9803648,37.9980334 59.0838216,38.731243 C61.1872783,39.4644525 62.7397899,41.2641468 63.1565402,43.4523986 L73.3645402,102.076399 C73.7812905,104.26465 72.9989653,106.509012 71.3122588,107.964054 C69.6255524,109.419096 67.2907156,109.863764 65.1872588,109.130554 C63.0838021,108.397345 61.5312905,106.59765 61.1145402,104.409399 L50.9065402,45.7853986 Z" id="Path_210-3" fill="#87C2CB" transform="translate(62.135540, 73.930899) rotate(-6.000000) translate(-62.135540, -73.930899) "></path>
                <path d="M4.23537181,107.260761 C3.63927941,110.633298 5.83792617,113.866967 9.19337181,114.552761 C12.7282879,115.156716 16.0975283,112.824063 16.7763718,109.302761 L26.9853718,50.6777611 C27.2205111,49.0528296 26.7989508,47.4011475 25.8138369,46.0876623 C24.828723,44.774177 23.361145,43.9070082 21.7353718,43.6777611 C18.3628352,43.0816687 15.129166,45.2803154 14.4433718,48.6357611 L4.23537181,107.260761 Z" id="Path_211-3" fill="#BCDBE0" transform="translate(15.593496, 79.114116) rotate(-6.000000) translate(-15.593496, -79.114116) "></path>
                <path d="M32.8260527,155 L22.9205749,92.8621862 L58.0192416,89.1731677 L61.4029635,155 L32.8260527,155 Z" id="Combined-Shape" fill="#BCDBE0"></path>
                <path d="M61.4029635,155 L58.0192416,89.1731677 L40.3247081,91.0329381 L47.0479172,155 L61.4029635,155 Z" id="Combined-Shape" fill="#87C2CB"></path>
                <circle id="Ellipse_25-3" fill="#BCDBE0" transform="translate(32.947770, 20.836495) rotate(-6.000000) translate(-32.947770, -20.836495) " cx="32.9477701" cy="20.8364946" r="18.667"></circle>
                <path d="M32.8803642,1.19478359 L32.8803642,38.2367836 C43.1596971,38.1643164 51.474897,29.8491165 51.5473642,19.5697836 C51.4516771,9.34729916 43.1030867,1.12930229 32.8803642,1.19478359 L32.8803642,1.19478359 Z" id="Path_214-3" fill="#87C2CB" transform="translate(42.213864, 19.715589) rotate(-6.000000) translate(-42.213864, -19.715589) "></path>
                <polygon id="Path_208-4" fill="#BCDBE0" transform="translate(114.591318, 69.982436) rotate(15.008914) translate(-114.591318, -69.982436) " points="131.947874 53.9390347 131.947874 44.8959633 97.2347611 44.8959633 97.2347611 53.9390347 89.6508626 53.9390347 96.9437266 95.0689077 132.238908 95.0689077 139.531772 53.9390347"></polygon>
                <polygon id="Path_209-4" fill="#87C2CB" transform="translate(126.565371, 73.192870) rotate(15.008914) translate(-126.565371, -73.192870) " points="131.523958 57.1494692 131.523958 48.1063978 114.021884 48.1063978 114.021884 98.2793422 131.815993 98.2793422 139.108857 57.1494692"></polygon>
                <path d="M123.218237,57.879648 C122.801437,55.6911369 123.583855,53.4465093 125.270761,51.9912947 C126.957668,50.5360801 129.292781,50.0913601 131.396487,50.8246565 C133.500193,51.5579529 135.052889,53.3578605 135.469688,55.5463715 L145.678898,114.177318 C146.095698,116.365829 145.31328,118.610457 143.626374,120.065671 C141.939467,121.520886 139.604354,121.965606 137.500648,121.23231 C135.396942,120.499013 133.844246,118.699106 133.427447,116.510594 L123.218237,57.879648 Z" id="Path_210-4" fill="#87C2CB" transform="translate(134.448568, 86.028483) rotate(15.008914) translate(-134.448568, -86.028483) "></path>
                <path d="M77.7773309,102.329784 C77.1811678,105.702721 79.3800751,108.936773 82.7359184,109.622648 C86.2712533,110.226675 89.6408929,107.893745 90.3198169,104.372026 L100.530027,45.7400796 C100.765194,44.1149556 100.343584,42.4630778 99.3583529,41.1494369 C98.3731222,39.8357961 96.9053704,38.9685245 95.2794045,38.7392502 C91.9064683,38.1430872 88.6724159,40.3419944 87.9865404,43.6978377 L77.7773309,102.329784 Z" id="Path_211-4" fill="#BCDBE0" transform="translate(89.136801, 74.179805) rotate(15.008914) translate(-89.136801, -74.179805) "></path>
                <path d="M77.2138277,155 L91.048172,89.642653 L125.140244,98.783281 L106.802371,155 L77.2138277,155 Z" id="Combined-Shape" fill="#BCDBE0"></path>
                <path d="M106.802371,155 L125.140244,98.783281 L107.953172,94.175153 L91.6450608,155 L106.802371,155 Z" id="Combined-Shape" fill="#87C2CB"></path>
                <ellipse id="Ellipse_25-4" fill="#BCDBE0" transform="translate(126.235135, 25.992234) rotate(15.008914) translate(-126.235135, -25.992234) " cx="126.235135" cy="25.992234" rx="18.6692119" ry="18.6692119"></ellipse>
                <path d="M125.953588,9.74512752 L125.953588,46.7915167 C136.234139,46.719041 144.550325,38.4028558 144.6228,28.1223048 C144.527102,17.8986091 136.177522,9.67963845 125.953588,9.74512752 L125.953588,9.74512752 Z" id="Path_214-4" fill="#87C2CB" transform="translate(135.288194, 28.268128) rotate(15.008914) translate(-135.288194, -28.268128) "></path>
            </g>
        </g>
    </g>
</svg>