<?xml version="1.0" encoding="UTF-8"?>
<svg width="120px" height="110px" viewBox="0 0 120 110" version="1.1" xmlns="http://www.w3.org/2000/svg" xmlns:xlink="http://www.w3.org/1999/xlink">
    <!-- Generator: Sketch 42 (36781) - http://www.bohemiancoding.com/sketch -->
    <title>4</title>
    <desc>Created with Sketch.</desc>
    <defs></defs>
    <g id="Our-global-position" stroke="none" stroke-width="1" fill="none" fill-rule="evenodd">
        <g id="xxlarge-copy" transform="translate(-869.000000, -2338.000000)" fill-rule="nonzero">
            <g id="4" transform="translate(868.000000, 2334.000000)">
                <polygon id="Path_208" fill="#BCDBE0" transform="translate(92.572805, 81.312179) rotate(9.000000) translate(-92.572805, -81.312179) " points="109.927305 65.2706786 109.927305 56.2286786 75.2183048 56.2286786 75.2183048 65.2706786 67.6353048 65.2706786 74.9273048 106.395679 110.218305 106.395679 117.510305 65.2706786"></polygon>
                <polygon id="Path_209" fill="#87C2CB" transform="translate(104.815696, 83.251262) rotate(9.000000) translate(-104.815696, -83.251262) " points="109.773696 67.209762 109.773696 58.167762 92.2736956 58.167762 92.2736956 108.334762 110.065696 108.334762 117.357696 67.209762"></polygon>
                <path d="M120.521376,114 L119.774482,65.246159 C119.70518,63.0196542 118.453317,60.9992507 116.490456,59.9460151 C114.527596,58.8927795 112.151944,58.9667233 110.258385,60.1399925 C108.364826,61.3132617 107.241037,63.4076089 107.310338,65.6341137 L108.051289,114 L120.521376,114 Z" id="Combined-Shape" fill="#87C2CB"></path>
                <path d="M52.1384701,114 L71.3323871,57.8672999 C72.5346453,54.6604472 76.0724469,52.9947267 79.3102125,54.1110612 C80.8801076,54.5918128 82.1939622,55.6778852 82.9614733,57.129305 C83.7289845,58.5807248 83.8869747,60.2780185 83.400535,61.8461605 L65.5661783,114 L52.1384701,114 Z" id="Combined-Shape" fill="#BCDBE0"></path>
                <path d="M70.1086003,114 L71.2196386,103.326338 L106.077135,108.847223 L104.976483,114 L70.1086003,114 Z" id="Combined-Shape" fill="#BCDBE0"></path>
                <path d="M104.976483,114 L106.077135,108.847223 L88.5041845,106.063941 L87.2472363,114 L104.976483,114 Z" id="Combined-Shape" fill="#87C2CB"></path>
                <circle id="Ellipse_25" fill="#BCDBE0" transform="translate(99.546786, 36.350092) rotate(9.000000) translate(-99.546786, -36.350092) " cx="99.5467861" cy="36.3500917" r="18.667"></circle>
                <path d="M99.4537573,19.1448163 L99.4537573,56.1868163 C109.73309,56.1143491 118.04829,47.7991492 118.120757,37.5198163 C118.02507,27.2973318 109.67648,19.079335 99.4537573,19.1448163 L99.4537573,19.1448163 Z" id="Path_214" fill="#87C2CB" transform="translate(108.787257, 37.665622) rotate(9.000000) translate(-108.787257, -37.665622) "></path>
                <polygon id="Path_208-6" fill="#BCDBE0" transform="translate(45.101139, 66.838821) rotate(14.000000) translate(-45.101139, -66.838821) " points="62.4556385 50.7973208 62.4556385 41.7553208 27.7466385 41.7553208 27.7466385 50.7973208 20.1636385 50.7973208 27.4556385 91.9223208 62.7466385 91.9223208 70.0386385 50.7973208"></polygon>
                <polygon id="Path_209-6" fill="#87C2CB" transform="translate(57.128439, 69.837564) rotate(14.000000) translate(-57.128439, -69.837564) " points="62.0864392 53.7960637 62.0864392 44.7540637 44.5864392 44.7540637 44.5864392 94.9210637 62.3784392 94.9210637 69.6704392 53.7960637"></polygon>
                <path d="M69.0685026,114 C69.2077746,113.536176 69.2940484,113.052374 69.3219003,112.556875 L73.5995508,53.2047197 C73.7245657,50.9806473 72.6535558,48.858825 70.7899602,47.6385227 C68.9263645,46.4182204 66.5533076,46.2848311 64.564697,47.2886011 C62.5760864,48.2923711 61.2740393,50.280804 61.1490243,52.5048764 L56.8713739,111.857032 C56.8300532,112.592145 56.9193951,113.316088 57.1248318,114 L69.0685026,114 Z" id="Combined-Shape" fill="#87C2CB"></path>
                <path d="M8.3693577,99.6298354 C7.7732653,103.002372 9.97191205,106.236041 13.3273577,106.921835 C16.8622738,107.525791 20.2315142,105.193137 20.9103577,101.671835 L31.1193577,43.0468354 C31.354497,41.4219039 30.9329367,39.7702218 29.9478228,38.4567366 C28.9627089,37.1432514 27.4951309,36.2760825 25.8693577,36.0468354 C22.4968211,35.450743 19.2631519,37.6493898 18.5773577,41.0048354 L8.3693577,99.6298354 Z" id="Path_211-6" fill="#BCDBE0" transform="translate(19.727482, 71.483191) rotate(14.000000) translate(-19.727482, -71.483191) "></path>
                <path d="M16.6726044,114 L21.9105671,86.9081589 L56.1542439,95.4460665 L50.4614083,114 L16.6726044,114 Z" id="Combined-Shape" fill="#BCDBE0"></path>
                <path d="M50.4614083,114 L56.1542439,95.4460665 L38.8907423,91.1417921 L33.191551,114 L50.4614083,114 Z" id="Combined-Shape" fill="#87C2CB"></path>
                <circle id="Ellipse_25-6" fill="#BCDBE0" transform="translate(55.967286, 22.655651) rotate(14.000000) translate(-55.967286, -22.655651) " cx="55.9672858" cy="22.6556508" r="18.667"></circle>
                <path d="M55.7244383,6.25072947 L55.7244383,43.2927295 C66.0037712,43.2202623 74.3189711,34.9050624 74.3914383,24.6257295 C74.2957511,14.403245 65.9471608,6.18524817 55.7244383,6.25072947 L55.7244383,6.25072947 Z" id="Path_214-6" fill="#87C2CB" transform="translate(65.057938, 24.771535) rotate(14.000000) translate(-65.057938, -24.771535) "></path>
            </g>
        </g>
    </g>
</svg>