<?xml version="1.0" encoding="UTF-8"?>
<svg width="381px" height="331px" viewBox="0 0 381 331" version="1.1" xmlns="http://www.w3.org/2000/svg" xmlns:xlink="http://www.w3.org/1999/xlink">
    <defs></defs>
    <g id="Our-global-position" stroke="none" stroke-width="1" fill="none" fill-rule="evenodd">
        <g id="xxlarge" transform="translate(-365.000000, -5876.000000)" fill-rule="nonzero">
            <g id="fact-9" transform="translate(365.000000, 5876.000000)">
                <g id="medal">
                    <g id="medalAsset-2">
                        <g id="Layer_2">
                            <g id="Layer_1-2">
                                <path d="M138.769277,113.767706 L190.047727,27.8242076 L173.475049,0 L0,0 L90.6654643,151.905133 C103.15075,135.277311 119.718182,122.142402 138.769277,113.767706 L138.769277,113.767706 Z" id="Shape" fill="#008894"></path>
                                <path d="M206.674213,0 L190.047727,27.8242076 L138.769277,113.767706 C172.557489,98.9662473 211.286029,100.491329 243.801317,117.903737 C261.061776,127.120914 275.830916,140.371808 286.847235,156.524596 L380.149261,0 L206.674213,0 Z" id="Shape" fill="#3DABB6"></path>
                                <path d="M278.991355,169.52355 C259.754088,137.073431 224.806435,117.149417 187.034513,117.098016 C164.6769,117.107666 142.89185,124.156342 124.779354,137.241024 C114.338755,144.695909 105.318425,153.955377 98.1446925,164.581799 C68.5510725,208.517966 75.6550807,267.463734 114.843289,303.139014 C154.031497,338.814294 213.482043,340.456965 254.587029,307.000257 C295.692014,273.543548 306.051345,215.080308 278.937547,169.577265 L278.991355,169.52355 Z" id="Shape" fill="#008894"></path>
                                <path d="M187.034513,117.098016 C127.957108,117.098017 80.0654087,164.907199 80.0654087,223.882813 C80.0654087,282.858427 127.957108,330.667609 187.034513,330.66761 L187.034513,117.098016 Z" id="Shape" fill="#3DABB6"></path>
                                <path d="M200.055903,263.201964 C200.055903,275.019195 207.696553,273.354039 207.696553,277.006638 C207.696553,279.370084 204.952376,279.907231 194.9442,279.907231 L184.182721,279.907231 C174.174545,279.907231 171.430368,279.370084 171.430368,277.006638 C171.430368,273.354039 179.071018,275.019195 179.071018,263.201964 L179.071018,189.612843 C179.071018,181.609355 176.864915,179.997914 168.309539,179.997914 C167.684626,180.100428 167.0474,179.908086 166.584077,179.477097 C166.120754,179.046108 165.883635,178.425123 165.942013,177.795612 L165.942013,170.382985 C165.942013,169.308692 166.480087,168.771545 168.309539,168.556686 C172.165201,168.081197 176.046978,167.847974 179.931936,167.858395 C195.374659,167.858395 199.571636,172.370429 199.571636,194.715738 L200.055903,263.201964 Z" id="Shape" fill="#FFFFFF"></path>
                            </g>
                        </g>
                    </g>
                </g>
            </g>
        </g>
    </g>
</svg>