<?xml version="1.0" encoding="UTF-8"?>
<svg width="202px" height="176px" viewBox="0 0 202 176" version="1.1" xmlns="http://www.w3.org/2000/svg" xmlns:xlink="http://www.w3.org/1999/xlink">
    <defs></defs>
    <g id="Our-global-position" stroke="none" stroke-width="1" fill="none" fill-rule="evenodd">
        <g id="small" transform="translate(-59.000000, -4356.000000)" fill-rule="nonzero">
            <g id="fact-9" transform="translate(28.000000, 4356.000000)">
                <g id="medal" transform="translate(31.000000, 0.000000)">
                    <g id="medalAsset-2">
                        <g id="Layer_2">
                            <g id="Layer_1-2">
                                <path d="M73.5732127,60.3105911 L100.760212,14.7501823 L91.9736478,0 L0,0 L48.0693538,80.5280224 C54.6888493,71.7132734 63.472632,64.7501888 73.5732127,60.3105911 L73.5732127,60.3105911 Z" id="Shape" fill="#008894"></path>
                                <path d="M109.575304,0 L100.760212,14.7501823 L73.5732127,60.3105911 C91.4871729,52.4640347 112.020415,53.2725117 129.259491,62.5031857 C138.410705,67.3894001 146.241063,74.4139703 152.081736,82.9768944 L201.548952,0 L109.575304,0 Z" id="Shape" fill="#3DABB6"></path>
                                <path d="M147.916676,89.8679062 C137.71739,72.6654332 119.188714,62.1033056 99.1626551,62.0760569 C87.3090128,62.0811723 75.7589336,65.8178197 66.1559831,72.7542777 C60.6205472,76.7062648 55.8381153,81.6148986 52.0347189,87.2481827 C36.3446631,110.539645 40.1110927,141.788003 60.888043,160.7002 C81.6649934,179.612397 113.184705,180.483211 134.9779,162.747124 C156.771094,145.011038 162.263443,114.018476 147.888148,89.8963815 L147.916676,89.8679062 Z" id="Shape" fill="#008894"></path>
                                <path d="M99.1626551,62.0760569 C67.8407762,62.0760574 42.4493768,87.4206838 42.4493768,118.684865 C42.4493768,149.949046 67.8407762,175.293672 99.1626551,175.293673 L99.1626551,62.0760569 Z" id="Shape" fill="#3DABB6"></path>
                                <path d="M106.066384,139.528752 C106.066384,145.793308 110.117333,144.910575 110.117333,146.846892 C110.117333,148.099804 108.662415,148.384556 103.356243,148.384556 L97.6506813,148.384556 C92.3445093,148.384556 90.8895912,148.099804 90.8895912,146.846892 C90.8895912,144.910575 94.9405397,145.793308 94.9405397,139.528752 L94.9405397,100.517652 C94.9405397,96.2748387 93.7708997,95.420581 89.2349784,95.420581 C88.9036598,95.4749254 88.565813,95.3729611 88.3201667,95.1444851 C88.0745205,94.9160091 87.9488038,94.5868123 87.979755,94.2530956 L87.979755,90.3235103 C87.979755,89.7540052 88.265033,89.4692527 89.2349784,89.3553516 C91.2791881,89.1032853 93.3372432,88.979649 95.3969846,88.9851733 C103.584465,88.9851733 105.809634,91.3770948 105.809634,103.222801 L106.066384,139.528752 Z" id="Shape" fill="#FFFFFF"></path>
                            </g>
                        </g>
                    </g>
                </g>
            </g>
        </g>
    </g>
</svg>