<?xml version="1.0" encoding="UTF-8"?>
<svg width="340px" height="435px" viewBox="0 0 340 435" version="1.1" xmlns="http://www.w3.org/2000/svg" xmlns:xlink="http://www.w3.org/1999/xlink">
    <defs></defs>
    <g id="Our-global-position" stroke="none" stroke-width="1" fill="none" fill-rule="evenodd">
        <g id="xxlarge" transform="translate(-987.000000, -2945.000000)">
            <g id="fact-4" transform="translate(0.000000, 2799.000000)">
                <g id="microscope" transform="translate(987.000000, 146.000000)">
                    <g id="Group_386" transform="translate(0.000000, 0.051000)">
                        <path d="M332.722,397.881 C288.813248,397.753034 253.249966,362.189752 253.122,318.281 C253.118886,297.13945 237.897015,279.069629 217.063175,275.475714 C196.229334,271.8818 175.833146,283.807374 168.747,303.726 L43.438,303.726 C39.4300408,303.753794 36.1877943,306.996041 36.16,311.004 L36.16,325.444 C36.1877943,329.451959 39.4300408,332.694206 43.438,332.722 L166.361,332.722 L166.361,397.765 L144.642,397.765 L144.642,383.326 C144.614206,379.318041 141.371959,376.075794 137.364,376.048 L65.043,376.048 C61.0350408,376.075794 57.7927943,379.318041 57.765,383.326 L57.765,397.767 L7.278,397.767 C3.2704275,397.794788 0.0283384811,401.036431 0,405.044 L0,426.764 C0.0267056624,430.77274 3.2692673,434.016193 7.278,434.044 L332.722,434.044 C336.730733,434.016193 339.973294,430.77274 340,426.764 L340,405.044 C339.962605,401.058619 336.707472,397.854919 332.722,397.881 L332.722,397.881 Z" id="Path_215" fill="#008C97"></path>
                        <path d="M224.241,318.282 C224.241,326.257414 217.775747,332.722816 209.800333,332.723 C201.824919,332.723184 195.359368,326.258081 195.359,318.282667 C195.358632,310.307253 201.823586,303.841552 209.799,303.841 C217.770139,303.852015 224.229433,310.310862 224.241,318.282 Z" id="Path_216" fill="#3DABB6"></path>
                        <path d="M200.702,0.57 C198.938446,-0.175515787 196.950335,-0.186627416 195.178558,0.539129257 C193.406781,1.26488593 191.997773,2.66752735 191.264,4.436 L177.391,37.868 L230.836,60.042 L244.709,26.61 C246.204728,22.9361404 244.486243,18.7408308 240.843,17.172 L200.702,0.57 Z" id="Path_217" fill="#3DABB6"></path>
                        <path d="M196.609,180.463 C210.624912,186.302762 221.703098,197.534309 227.349623,211.629178 C232.996148,225.724048 232.736453,241.497647 226.629,255.399 C253.552026,262.671947 272.878925,286.248352 274.729,314.075 C300.528672,282.5516 309.886383,240.677463 299.960078,201.170295 C290.033773,161.663127 261.994819,129.185026 224.359,113.6 L233.229,92.222 C234.722206,88.5481629 233.002035,84.3548571 229.359,82.788 L162.495,55.152 C158.821696,53.6570018 154.627405,55.3754342 153.059,59.018 L108.823,165.908 C107.326695,169.58186 109.045346,173.777573 112.689,175.346 L179.552,202.978 C183.22586,204.474305 187.421573,202.755654 188.99,199.112 L196.609,180.463 Z" id="Path_218" fill="#008C97"></path>
                        <path d="M100.977,241.186 C99.2085274,240.452227 97.8058859,239.043219 97.0801293,237.271442 C96.3543726,235.499665 96.3654842,233.511554 97.111,231.748 L110.984,198.316 L164.429,220.49 L150.556,253.921 C149.822227,255.689473 148.413219,257.092114 146.641442,257.817871 C144.869665,258.543627 142.881554,258.532516 141.118,257.787 L100.977,241.186 Z" id="Path_219" fill="#3DABB6"></path>
                    </g>
                </g>
            </g>
        </g>
    </g>
</svg>