<?xml version="1.0" encoding="UTF-8"?>
<svg width="413px" height="153px" viewBox="0 0 413 153" version="1.1" xmlns="http://www.w3.org/2000/svg" xmlns:xlink="http://www.w3.org/1999/xlink">
    <defs>
        <rect id="path-1" x="0" y="0" width="686" height="210"></rect>
    </defs>
    <g id="Our-global-position" stroke="none" stroke-width="1" fill="none" fill-rule="evenodd">
        <g id="xxlarge" transform="translate(-751.000000, -2295.000000)">
            <g id="fact-3" transform="translate(607.000000, 2238.000000)">
                <g id="people" transform="translate(5.000000, 0.000000)">
                    <mask id="mask-2" fill="white">
                        <use xlink:href="#path-1"></use>
                    </mask>
                    <g id="Mask"></g>
                    <g mask="url(#mask-2)" id="Group_498">
                        <g transform="translate(127.000000, 53.000000)">
                            <g>
                                <g id="Group_382" transform="translate(391.419191, 154.207537) rotate(9.000000) translate(-391.419191, -154.207537) translate(355.919191, 59.707537)" fill-rule="nonzero">
                                    <polygon id="Path_208" fill="#BCDBE0" points="53.268 48.125 53.268 39.083 18.559 39.083 18.559 48.125 10.976 48.125 18.268 89.25 53.559 89.25 60.851 48.125"></polygon>
                                    <polygon id="Path_209" fill="#87C2CB" points="53.267 48.125 53.267 39.083 35.767 39.083 35.767 89.25 53.559 89.25 60.851 48.125"></polygon>
                                    <path d="M48.017,46.376 C47.6002497,44.1877483 48.3825749,41.9433866 50.0692814,40.4883444 C51.7559878,39.0333022 54.0908246,38.5886349 56.1942814,39.3218444 C58.2977381,40.0550539 59.8502497,41.8547483 60.267,44.043 L70.475,102.667 C70.8917503,104.855252 70.1094251,107.099613 68.4227186,108.554656 C66.7360122,110.009698 64.4011754,110.454365 62.2977186,109.721156 C60.1942619,108.987946 58.6417503,107.188252 58.225,105 L48.017,46.376 Z" id="Path_210" fill="#87C2CB"></path>
                                    <path d="M1.059,102.958 C0.462907597,106.330537 2.66155435,109.564206 6.017,110.25 C9.55191605,110.853955 12.9211565,108.521302 13.6,105 L23.809,46.375 C24.0441393,44.7500685 23.622579,43.0983864 22.6374651,41.7849012 C21.6523512,40.4714159 20.1847732,39.6042471 18.559,39.375 C15.1864634,38.7789076 11.9527942,40.9775544 11.267,44.333 L1.059,102.958 Z" id="Path_211" fill="#BCDBE0"></path>
                                    <g id="Group_379" transform="translate(18.267000, 89.250000)">
                                        <polygon id="Path_212" fill="#BCDBE0" points="30.042 98.292 5.25 98.292 0 0 35.292 0"></polygon>
                                        <polygon id="Path_213" fill="#87C2CB" points="17.5 0 17.5 98.292 30.042 98.292 35.292 0"></polygon>
                                    </g>
                                    <circle id="Ellipse_25" fill="#BCDBE0" cx="35.768" cy="18.667" r="18.667"></circle>
                                    <path d="M35.767,-1.62630326e-19 L35.767,37.042 C46.0463329,36.9695328 54.3615328,28.6543329 54.434,18.375 C54.3383129,8.15251557 45.9897225,-0.0654813069 35.767,-1.62630326e-19 L35.767,-1.62630326e-19 Z" id="Path_214" fill="#87C2CB"></path>
                                </g>
                                <g id="Group_383" transform="translate(45.607945, 155.282087) rotate(-6.000000) translate(-45.607945, -155.282087) translate(10.107945, 60.782087)" fill-rule="nonzero">
                                    <polygon id="Path_208-2" fill="#BCDBE0" points="53.268 48.125 53.268 39.083 18.559 39.083 18.559 48.125 10.976 48.125 18.268 89.25 53.559 89.25 60.851 48.125"></polygon>
                                    <polygon id="Path_209-2" fill="#87C2CB" points="53.267 48.125 53.267 39.083 35.767 39.083 35.767 89.25 53.559 89.25 60.851 48.125"></polygon>
                                    <path d="M48.017,46.376 C47.6002497,44.1877483 48.3825749,41.9433866 50.0692814,40.4883444 C51.7559878,39.0333022 54.0908246,38.5886349 56.1942814,39.3218444 C58.2977381,40.0550539 59.8502497,41.8547483 60.267,44.043 L70.475,102.667 C70.8917503,104.855252 70.1094251,107.099613 68.4227186,108.554656 C66.7360122,110.009698 64.4011754,110.454365 62.2977186,109.721156 C60.1942619,108.987946 58.6417503,107.188252 58.225,105 L48.017,46.376 Z" id="Path_210-2" fill="#87C2CB"></path>
                                    <path d="M1.059,102.958 C0.462907597,106.330537 2.66155435,109.564206 6.017,110.25 C9.55191605,110.853955 12.9211565,108.521302 13.6,105 L23.809,46.375 C24.0441393,44.7500685 23.622579,43.0983864 22.6374651,41.7849012 C21.6523512,40.4714159 20.1847732,39.6042471 18.559,39.375 C15.1864634,38.7789076 11.9527942,40.9775544 11.267,44.333 L1.059,102.958 Z" id="Path_211-2" fill="#BCDBE0"></path>
                                    <g id="Group_379-2" transform="translate(18.267000, 89.250000)">
                                        <polygon id="Path_212-2" fill="#BCDBE0" points="30.042 98.292 5.25 98.292 0 0 35.292 0"></polygon>
                                        <polygon id="Path_213-2" fill="#87C2CB" points="17.5 0 17.5 98.292 30.042 98.292 35.292 0"></polygon>
                                    </g>
                                    <circle id="Ellipse_25-2" fill="#BCDBE0" cx="35.768" cy="18.667" r="18.667"></circle>
                                    <path d="M35.767,-1.08420217e-19 L35.767,37.042 C46.0463329,36.9695328 54.3615328,28.6543329 54.434,18.375 C54.3383129,8.15251557 45.9897225,-0.0654813069 35.767,-1.08420217e-19 L35.767,-1.08420217e-19 Z" id="Path_214-2" fill="#87C2CB"></path>
                                </g>
                                <g id="Group_384" transform="translate(185.607945, 98.282087) rotate(-6.000000) translate(-185.607945, -98.282087) translate(150.107945, 3.782087)" fill-rule="nonzero">
                                    <polygon id="Path_208-3" fill="#BCDBE0" points="53.268 48.125 53.268 39.083 18.559 39.083 18.559 48.125 10.976 48.125 18.268 89.25 53.559 89.25 60.851 48.125"></polygon>
                                    <polygon id="Path_209-3" fill="#87C2CB" points="53.267 48.125 53.267 39.083 35.767 39.083 35.767 89.25 53.559 89.25 60.851 48.125"></polygon>
                                    <path d="M48.017,46.376 C47.6002497,44.1877483 48.3825749,41.9433866 50.0692814,40.4883444 C51.7559878,39.0333022 54.0908246,38.5886349 56.1942814,39.3218444 C58.2977381,40.0550539 59.8502497,41.8547483 60.267,44.043 L70.475,102.667 C70.8917503,104.855252 70.1094251,107.099613 68.4227186,108.554656 C66.7360122,110.009698 64.4011754,110.454365 62.2977186,109.721156 C60.1942619,108.987946 58.6417503,107.188252 58.225,105 L48.017,46.376 Z" id="Path_210-3" fill="#87C2CB"></path>
                                    <path d="M1.059,102.958 C0.462907597,106.330537 2.66155435,109.564206 6.017,110.25 C9.55191605,110.853955 12.9211565,108.521302 13.6,105 L23.809,46.375 C24.0441393,44.7500685 23.622579,43.0983864 22.6374651,41.7849012 C21.6523512,40.4714159 20.1847732,39.6042471 18.559,39.375 C15.1864634,38.7789076 11.9527942,40.9775544 11.267,44.333 L1.059,102.958 Z" id="Path_211-3" fill="#BCDBE0"></path>
                                    <g id="Group_379-3" transform="translate(18.267000, 89.250000)">
                                        <polygon id="Path_212-3" fill="#BCDBE0" points="30.042 98.292 5.25 98.292 0 0 35.292 0"></polygon>
                                        <polygon id="Path_213-3" fill="#87C2CB" points="17.5 0 17.5 98.292 30.042 98.292 35.292 0"></polygon>
                                    </g>
                                    <circle id="Ellipse_25-3" fill="#BCDBE0" cx="35.768" cy="18.667" r="18.667"></circle>
                                    <path d="M35.767,-1.08420217e-19 L35.767,37.042 C46.0463329,36.9695328 54.3615328,28.6543329 54.434,18.375 C54.3383129,8.15251557 45.9897225,-0.0654813069 35.767,-1.08420217e-19 L35.767,-1.08420217e-19 Z" id="Path_214-3" fill="#87C2CB"></path>
                                </g>
                                <g id="Group_385" transform="translate(251.335500, 101.177500) rotate(15.008914) translate(-251.335500, -101.177500) translate(215.831293, 6.666302)" fill-rule="nonzero">
                                    <polygon id="Path_208-4" fill="#BCDBE0" points="53.2743119 48.1307025 53.2743119 39.0876311 18.5611991 39.0876311 18.5611991 48.1307025 10.9773006 48.1307025 18.2701646 89.2605755 53.5653464 89.2605755 60.8582104 48.1307025"></polygon>
                                    <polygon id="Path_209-4" fill="#87C2CB" points="53.2733118 48.1307025 53.2733118 39.0876311 35.7712381 39.0876311 35.7712381 89.2605755 53.5653464 89.2605755 60.8582104 48.1307025"></polygon>
                                    <path d="M48.0226897,46.3814952 C47.60589,44.1929842 48.3883079,41.9483566 50.0752142,40.493142 C51.7621205,39.0379273 54.097234,38.5932074 56.20094,39.3265038 C58.304646,40.0598002 59.8573415,41.8597078 60.2741412,44.0482188 L70.4833508,102.679165 C70.9001505,104.867676 70.1177325,107.112304 68.4308262,108.567519 C66.7439199,110.022733 64.4088065,110.467453 62.3051005,109.734157 C60.2013945,109.00086 58.6486989,107.200953 58.2318993,105.012442 L48.0226897,46.3814952 Z" id="Path_210-4" fill="#87C2CB"></path>
                                    <path d="M1.05912548,102.9702 C0.462962448,106.343136 2.66186973,109.577188 6.01771297,110.263064 C9.55304789,110.867091 12.9226875,108.534161 13.6016115,105.012442 L23.8118212,46.3804951 C24.0469883,44.7553711 23.6253781,43.1034932 22.6401475,41.7898524 C21.6549168,40.4762115 20.187165,39.6089399 18.5611991,39.3796657 C15.1882629,38.7835026 11.9542105,40.9824099 11.2683351,44.3382531 L1.05912548,102.9702 Z" id="Path_211-4" fill="#BCDBE0"></path>
                                    <g id="Group_379-4" transform="translate(18.269165, 89.260575)">
                                        <polygon id="Path_212-4" fill="#BCDBE0" points="30.0455598 98.3036469 5.25062209 98.3036469 0 0 35.2961819 0"></polygon>
                                        <polygon id="Path_213-4" fill="#87C2CB" points="17.5020736 0 17.5020736 98.3036469 30.0455598 98.3036469 35.2961819 0"></polygon>
                                    </g>
                                    <ellipse id="Ellipse_25-4" fill="#BCDBE0" cx="35.7722383" cy="18.6692119" rx="18.6692119" ry="18.6692119"></ellipse>
                                    <path d="M35.7712381,-1.62630326e-19 L35.7712381,37.0463892 C46.0517891,36.9739134 54.3679743,28.6577282 54.44045,18.3771773 C54.3447516,8.15348158 45.995172,-0.065489066 35.7712381,-1.62630326e-19 L35.7712381,-1.62630326e-19 Z" id="Path_214-4" fill="#87C2CB"></path>
                                </g>
                                <g id="Group_380" transform="translate(97.673588, 137.295858) rotate(-11.000000) translate(-97.673588, -137.295858) translate(62.173588, 42.795858)" fill-rule="nonzero">
                                    <polygon id="Path_208-5" fill="#BCDBE0" points="53.268 48.125 53.268 39.083 18.559 39.083 18.559 48.125 10.976 48.125 18.268 89.25 53.559 89.25 60.851 48.125"></polygon>
                                    <polygon id="Path_209-5" fill="#87C2CB" points="53.267 48.125 53.267 39.083 35.767 39.083 35.767 89.25 53.559 89.25 60.851 48.125"></polygon>
                                    <path d="M48.017,46.376 C47.6002497,44.1877483 48.3825749,41.9433866 50.0692814,40.4883444 C51.7559878,39.0333022 54.0908246,38.5886349 56.1942814,39.3218444 C58.2977381,40.0550539 59.8502497,41.8547483 60.267,44.043 L70.475,102.667 C70.8917503,104.855252 70.1094251,107.099613 68.4227186,108.554656 C66.7360122,110.009698 64.4011754,110.454365 62.2977186,109.721156 C60.1942619,108.987946 58.6417503,107.188252 58.225,105 L48.017,46.376 Z" id="Path_210-5" fill="#87C2CB"></path>
                                    <path d="M1.059,102.958 C0.462907597,106.330537 2.66155435,109.564206 6.017,110.25 C9.55191605,110.853955 12.9211565,108.521302 13.6,105 L23.809,46.375 C24.0441393,44.7500685 23.622579,43.0983864 22.6374651,41.7849012 C21.6523512,40.4714159 20.1847732,39.6042471 18.559,39.375 C15.1864634,38.7789076 11.9527942,40.9775544 11.267,44.333 L1.059,102.958 Z" id="Path_211-5" fill="#BCDBE0"></path>
                                    <g id="Group_379-5" transform="translate(18.267000, 89.250000)">
                                        <polygon id="Path_212-5" fill="#BCDBE0" points="30.042 98.292 5.25 98.292 0 0 35.292 0"></polygon>
                                        <polygon id="Path_213-5" fill="#87C2CB" points="17.5 0 17.5 98.292 30.042 98.292 35.292 0"></polygon>
                                    </g>
                                    <circle id="Ellipse_25-5" fill="#BCDBE0" cx="35.768" cy="18.667" r="18.667"></circle>
                                    <path d="M35.767,-1.62630326e-19 L35.767,37.042 C46.0463329,36.9695328 54.3615328,28.6543329 54.434,18.375 C54.3383129,8.15251557 45.9897225,-0.0654813069 35.767,-1.62630326e-19 L35.767,-1.62630326e-19 Z" id="Path_214-5" fill="#87C2CB"></path>
                                </g>
                                <g id="Group_381" transform="translate(341.361583, 139.171252) rotate(14.000000) translate(-341.361583, -139.171252) translate(305.861583, 44.671252)" fill-rule="nonzero">
                                    <polygon id="Path_208-6" fill="#BCDBE0" points="53.268 48.125 53.268 39.083 18.559 39.083 18.559 48.125 10.976 48.125 18.268 89.25 53.559 89.25 60.851 48.125"></polygon>
                                    <polygon id="Path_209-6" fill="#87C2CB" points="53.267 48.125 53.267 39.083 35.767 39.083 35.767 89.25 53.559 89.25 60.851 48.125"></polygon>
                                    <path d="M48.017,46.376 C47.6002497,44.1877483 48.3825749,41.9433866 50.0692814,40.4883444 C51.7559878,39.0333022 54.0908246,38.5886349 56.1942814,39.3218444 C58.2977381,40.0550539 59.8502497,41.8547483 60.267,44.043 L70.475,102.667 C70.8917503,104.855252 70.1094251,107.099613 68.4227186,108.554656 C66.7360122,110.009698 64.4011754,110.454365 62.2977186,109.721156 C60.1942619,108.987946 58.6417503,107.188252 58.225,105 L48.017,46.376 Z" id="Path_210-6" fill="#87C2CB"></path>
                                    <path d="M1.059,102.958 C0.462907597,106.330537 2.66155435,109.564206 6.017,110.25 C9.55191605,110.853955 12.9211565,108.521302 13.6,105 L23.809,46.375 C24.0441393,44.7500685 23.622579,43.0983864 22.6374651,41.7849012 C21.6523512,40.4714159 20.1847732,39.6042471 18.559,39.375 C15.1864634,38.7789076 11.9527942,40.9775544 11.267,44.333 L1.059,102.958 Z" id="Path_211-6" fill="#BCDBE0"></path>
                                    <g id="Group_379-6" transform="translate(18.267000, 89.250000)">
                                        <polygon id="Path_212-6" fill="#BCDBE0" points="30.042 98.292 5.25 98.292 0 0 35.292 0"></polygon>
                                        <polygon id="Path_213-6" fill="#87C2CB" points="17.5 0 17.5 98.292 30.042 98.292 35.292 0"></polygon>
                                    </g>
                                    <circle id="Ellipse_25-6" fill="#BCDBE0" cx="35.768" cy="18.667" r="18.667"></circle>
                                    <path d="M35.767,-1.62630326e-19 L35.767,37.042 C46.0463329,36.9695328 54.3615328,28.6543329 54.434,18.375 C54.3383129,8.15251557 45.9897225,-0.0654813069 35.767,-1.62630326e-19 L35.767,-1.62630326e-19 Z" id="Path_214-6" fill="#87C2CB"></path>
                                </g>
                                <g id="Group_376" transform="translate(181.034000, 29.223000)" fill-rule="nonzero">
                                    <polygon id="Path_201" fill="#3DABB6" points="58.766 54.012 58.766 44.185 21.366 43.551 21.366 53.378 12.802 53.061 20.093 98.074 58.449 98.708 67.008 54.008"></polygon>
                                    <polygon id="Path_202" fill="#3DABB6" points="58.765 54.012 58.765 44.185 40.065 43.868 40.065 53.695 39.748 59.718 39.112 98.39 58.448 98.707 67.007 54.007"></polygon>
                                    <path d="M53.376,52.11 C53.0264468,50.330783 53.448012,48.4867957 54.5359497,47.0362122 C55.6238873,45.5856288 57.2760768,44.6646097 59.082,44.502 C60.861217,44.1524468 62.7052043,44.574012 64.1557878,45.6619497 C65.6063712,46.7498873 66.5273903,48.4020768 66.69,50.208 L76.834,113.923 C77.1835532,115.702217 76.761988,117.546204 75.6740503,118.996788 C74.5861127,120.447371 72.9339232,121.36839 71.128,121.531 C69.348783,121.880553 67.5047957,121.458988 66.0542122,120.37105 C64.6036288,119.283113 63.6826097,117.630923 63.52,115.825 L53.376,52.11 Z" id="Path_203" fill="#3DABB6"></path>
                                    <path d="M1.074,112.655 C0.69774159,114.424665 1.06023257,116.271234 2.07757653,117.767328 C3.09492049,119.263422 4.67893167,120.279357 6.463,120.58 C10.1268223,121.22721 13.6399267,118.839771 14.387,115.195 L26.75,51.795 C27.1262584,50.0253346 26.7637674,48.1787661 25.7464235,46.682672 C24.7290795,45.186578 23.1450683,44.1706433 21.361,43.87 C19.5913346,43.4937416 17.7447661,43.8562326 16.248672,44.8735765 C14.752578,45.8909205 13.7366433,47.4749317 13.436,49.259 L1.074,112.655 Z" id="Path_204" fill="#3DABB6"></path>
                                    <g id="Group_375" transform="translate(20.093000, 98.073000)">
                                        <polygon id="Path_205" fill="#3DABB6" points="30.748 107.143 3.8 106.826 0 0 38.356 0.634"></polygon>
                                        <polygon id="Path_206" fill="#008C97" points="19.017 0.317 17.117 107.143 30.748 107.143 38.355 0.634"></polygon>
                                    </g>
                                    <ellipse id="Ellipse_24" fill="#3DABB6" transform="translate(40.646141, 21.460470) rotate(-88.988000) translate(-40.646141, -21.460470) " cx="40.6461408" cy="21.4604696" rx="20.287" ry="20.287"></ellipse>
                                    <path d="M41.014,1.391 L40.38,41.649 C45.7653043,41.7506222 50.9685832,39.6993848 54.8358299,35.9502206 C58.7030766,32.2010563 60.9146294,27.0638664 60.98,21.678 C60.829543,10.6607573 52.027442,1.717142 41.014,1.391 L41.014,1.391 Z" id="Path_207" fill="#008C97"></path>
                                </g>
                                <g id="Group_377" transform="translate(160.647000, 136.787000) rotate(-12.006708) translate(-160.647000, -136.787000) translate(122.151851, 33.300042)" fill-rule="nonzero">
                                    <polygon id="Path_201-2" fill="#3DABB6" points="58.758595 54.0051941 58.758595 44.1794323 21.3633077 43.5455122 21.3633077 53.3712739 12.8003868 53.0543139 20.0904681 98.0616419 58.441635 98.695562 66.9995565 54.0011946"></polygon>
                                    <polygon id="Path_202-2" fill="#3DABB6" points="58.7575951 54.0051941 58.7575951 44.1794323 40.0599515 43.8624723 40.0599515 53.688234 39.7429914 59.7104751 39.1070716 98.3776021 58.4406351 98.6945621 66.9985566 54.0001947"></polygon>
                                    <path d="M53.3692742,52.1034337 C53.0197651,50.3244409 53.4412772,48.480686 54.5290777,47.0302853 C55.6168782,45.5798846 57.2688595,44.6589817 59.0745552,44.4963924 C60.853548,44.1468833 62.6973029,44.5683954 64.1477036,45.6561959 C65.5981043,46.7439964 66.5190073,48.3959777 66.6815965,50.2016734 L76.8243183,113.908645 C77.1738274,115.687638 76.7523153,117.531393 75.6645148,118.981793 C74.5767143,120.432194 72.924733,121.353097 71.1190373,121.515686 C69.3400445,121.865195 67.4962896,121.443683 66.0458889,120.355883 C64.5954882,119.268082 63.6745852,117.616101 63.511996,115.810405 L53.3692742,52.1034337 Z" id="Path_203-2" fill="#3DABB6"></path>
                                    <path d="M1.07386467,112.640805 C0.697653669,114.410247 1.06009897,116.256583 2.07731474,117.752488 C3.0945305,119.248394 4.67834209,120.264201 6.46218561,120.564806 C10.1255463,121.211935 13.638208,118.824796 14.3851871,115.180485 L26.7466293,51.7884734 C27.1228403,50.019031 26.760395,48.1726952 25.7431792,46.6767897 C24.7259635,45.1808841 23.1421519,44.1650774 21.3583083,43.864472 C19.5888659,43.488261 17.7425301,43.8507063 16.2466246,44.8679221 C14.750719,45.8851379 13.7349123,47.4689495 13.434307,49.252793 L1.07386467,112.640805 Z" id="Path_204-2" fill="#3DABB6"></path>
                                    <g id="Group_375-2" transform="translate(20.090468, 98.060642)">
                                        <polygon id="Path_205-2" fill="#3DABB6" points="30.7441255 107.129499 3.79952117 106.812539 0 0 38.3511668 0.633920111"></polygon>
                                        <polygon id="Path_206-2" fill="#008C97" points="19.0146037 0.316960055 17.1148431 107.129499 30.7441255 107.129499 38.350167 0.633920111"></polygon>
                                    </g>
                                    <ellipse id="Ellipse_24-2" fill="#3DABB6" transform="translate(40.641019, 21.457765) rotate(-88.988000) translate(-40.641019, -21.457765) " cx="40.6410191" cy="21.4577654" rx="20.2844437" ry="20.2844437"></ellipse>
                                    <path d="M41.0088319,1.39082472 L40.3749118,41.6437519 C45.7595375,41.7453613 50.9621608,39.6943824 54.8289202,35.9456906 C58.6956796,32.1969987 60.9069537,27.0604561 60.972316,21.6752684 C60.821878,10.6594139 52.0208862,1.71692563 41.0088319,1.39082472 L41.0088319,1.39082472 Z" id="Path_207-2" fill="#008C97"></path>
                                </g>
                                <g id="Group_378" transform="translate(278.436394, 138.609596) rotate(13.000000) translate(-278.436394, -138.609596) translate(239.936394, 35.109596)" fill-rule="nonzero">
                                    <polygon id="Path_201-3" fill="#3DABB6" points="58.766 54.012 58.766 44.185 21.366 43.551 21.366 53.378 12.802 53.061 20.093 98.074 58.449 98.708 67.008 54.008"></polygon>
                                    <polygon id="Path_202-3" fill="#3DABB6" points="58.765 54.012 58.765 44.185 40.065 43.868 40.065 53.695 39.748 59.718 39.112 98.39 58.448 98.707 67.007 54.007"></polygon>
                                    <path d="M53.376,52.11 C53.0264468,50.330783 53.448012,48.4867957 54.5359497,47.0362122 C55.6238873,45.5856288 57.2760768,44.6646097 59.082,44.502 C60.861217,44.1524468 62.7052043,44.574012 64.1557878,45.6619497 C65.6063712,46.7498873 66.5273903,48.4020768 66.69,50.208 L76.834,113.923 C77.1835532,115.702217 76.761988,117.546204 75.6740503,118.996788 C74.5861127,120.447371 72.9339232,121.36839 71.128,121.531 C69.348783,121.880553 67.5047957,121.458988 66.0542122,120.37105 C64.6036288,119.283113 63.6826097,117.630923 63.52,115.825 L53.376,52.11 Z" id="Path_203-3" fill="#3DABB6"></path>
                                    <path d="M1.074,112.655 C0.69774159,114.424665 1.06023257,116.271234 2.07757653,117.767328 C3.09492049,119.263422 4.67893167,120.279357 6.463,120.58 C10.1268223,121.22721 13.6399267,118.839771 14.387,115.195 L26.75,51.795 C27.1262584,50.0253346 26.7637674,48.1787661 25.7464235,46.682672 C24.7290795,45.186578 23.1450683,44.1706433 21.361,43.87 C19.5913346,43.4937416 17.7447661,43.8562326 16.248672,44.8735765 C14.752578,45.8909205 13.7366433,47.4749317 13.436,49.259 L1.074,112.655 Z" id="Path_204-3" fill="#3DABB6"></path>
                                    <g id="Group_375-3" transform="translate(20.093000, 98.073000)">
                                        <polygon id="Path_205-3" fill="#3DABB6" points="30.748 107.143 3.8 106.826 0 0 38.356 0.634"></polygon>
                                        <polygon id="Path_206-3" fill="#008C97" points="19.017 0.317 17.117 107.143 30.748 107.143 38.355 0.634"></polygon>
                                    </g>
                                    <ellipse id="Ellipse_24-3" fill="#3DABB6" transform="translate(40.646141, 21.460470) rotate(-88.988000) translate(-40.646141, -21.460470) " cx="40.6461408" cy="21.4604696" rx="20.287" ry="20.287"></ellipse>
                                    <path d="M41.014,1.391 L40.38,41.649 C45.7653043,41.7506222 50.9685832,39.6993848 54.8358299,35.9502206 C58.7030766,32.2010563 60.9146294,27.0638664 60.98,21.678 C60.829543,10.6607573 52.027442,1.717142 41.014,1.391 L41.014,1.391 Z" id="Path_207-3" fill="#008C97"></path>
                                </g>
                            </g>
                        </g>
                    </g>
                </g>
            </g>
        </g>
    </g>
</svg>