<?xml version="1.0" encoding="UTF-8"?>
<svg width="482px" height="82px" viewBox="0 0 482 82" version="1.1" xmlns="http://www.w3.org/2000/svg" xmlns:xlink="http://www.w3.org/1999/xlink">
    <defs></defs>
    <g id="Our-global-position" stroke="none" stroke-width="1" fill="none" fill-rule="evenodd">
        <g id="xxlarge" transform="translate(-719.000000, -4382.000000)" fill-rule="nonzero">
            <g id="fact-6" transform="translate(607.000000, 4382.000000)">
                <g id="stars" transform="translate(112.000000, 0.000000)">
                    <g id="Group_414" transform="translate(0.000000, 0.833000)">
                        <g id="Group_409">
                            <polygon id="Path_228" fill="#008C97" points="42.312 0 29.266 26.516 0 30.747 21.156 51.409 16.149 80.534 42.312 66.783 68.475 80.534 63.468 51.409 84.624 30.747 55.424 26.516"></polygon>
                            <polyline id="Path_229" fill="#3DABB6" points="42.312 0 29.266 26.516 0 30.747 21.156 51.409 16.149 80.534 42.312 66.783"></polyline>
                        </g>
                        <g id="Group_410" transform="translate(99.151000, 0.000000)">
                            <polygon id="Path_230" fill="#008C97" points="42.312 0 29.2 26.516 2.84217094e-14 30.747 21.156 51.409 16.149 80.534 42.312 66.783 68.475 80.534 63.468 51.409 84.624 30.747 55.358 26.516"></polygon>
                            <polyline id="Path_231" fill="#3DABB6" points="42.312 0 29.2 26.516 2.84217094e-14 30.747 21.156 51.409 16.149 80.534 42.312 66.783"></polyline>
                        </g>
                        <g id="Group_411" transform="translate(198.303000, 0.000000)">
                            <polygon id="Path_232" fill="#008C97" points="42.312 0 29.2 26.516 0 30.747 21.156 51.409 16.149 80.534 42.312 66.783 68.475 80.534 63.468 51.409 84.624 30.747 55.358 26.516"></polygon>
                            <polyline id="Path_233" fill="#3DABB6" points="42.312 0 29.2 26.516 0 30.747 21.156 51.409 16.149 80.534 42.312 66.783"></polyline>
                        </g>
                        <g id="Group_412" transform="translate(297.383000, 0.000000)">
                            <polygon id="Path_234" fill="#008C97" points="42.312 0 29.266 26.516 0 30.747 21.156 51.409 16.22 80.534 42.312 66.783 68.475 80.534 63.539 51.409 84.695 30.747 55.429 26.516"></polygon>
                            <polyline id="Path_235" fill="#3DABB6" points="42.312 0 29.266 26.516 0 30.747 21.156 51.409 16.22 80.534 42.312 66.783"></polyline>
                        </g>
                        <g id="Group_413" transform="translate(396.535000, 0.000000)">
                            <polygon id="Path_236" fill="#008C97" points="42.312 0 29.266 26.516 0 30.747 21.156 51.409 16.149 80.534 42.312 66.783 68.475 80.534 63.468 51.409 84.624 30.747 55.424 26.516"></polygon>
                            <polyline id="Path_237" fill="#3DABB6" points="42.312 0 29.266 26.516 0 30.747 21.156 51.409 16.149 80.534 42.312 66.783"></polyline>
                        </g>
                    </g>
                </g>
            </g>
        </g>
    </g>
</svg>