<?xml version="1.0" encoding="utf-8"?>
<svg transform="rotate(90deg)" xmlns="http://www.w3.org/2000/svg" xmlns:xlink="http://www.w3.org/1999/xlink" viewBox="0 0 578 420.1" preserveAspectRatio="none">
<style type="text/css">
	.drama-1{fill:#76BD22;}
</style>
<title>dramatic lines</title>
<g>
	<path class="drama-1" d="M335.2,3.4c-0.9,8-3.4,16.5-5.3,24.1c-2,9-3.3,18.1-3.8,27.3c-0.3,3.7,3.6,5.3,5.4,3c2-2.6,2.4-5.4,2.8-9.1
		c0.7-6,1-11.6,2.5-17.4c2.2-8.3,4.7-17.4,5.8-26.2C343.3-0.4,335.9-2.2,335.2,3.4"/>
	<path class="drama-1" d="M422.3,4.1c-2.4,8.6-5.4,17-9,25.1c-3.3,8.1-5.2,17.8-7.7,26.3c-2.2,7.4,7.6,12.9,10,5.7
		c2.6-7.8,4.9-15.5,7.3-23.5c2.8-9.6,6.7-18.2,8.6-28.4C432.9,2.4,424.2-2.9,422.3,4.1"/>
	<path class="drama-1" d="M495.6,6.4c-0.5,1.7-2,2.6-2.5,4.3c-1.5,4.6-3.4,8.9-5.8,13.1c-3.6,6.2-6.9,12.6-10.4,18.9
		c-2.8,5.1,3.9,11.6,7,6.7c4.3-6.6,8.1-13.7,12-20.6c2.7-4.7,6.8-11.9,7.9-17.8C505.1,4.9,497.5,0.2,495.6,6.4"/>
	<path class="drama-1" d="M542.8,92.2c-6.4-0.9-13.9,3.8-19.8,5.8c-3.9,1.3-7.8,2.7-11.7,4c-0.5,0.2-4,1-2.4,0.7
		c-2.6,0.3-4.7,2.1-5.3,4.7c-1.6,4.9,2.5,11.2,7,10.8c6.2-0.6,12.3-3,18.1-5c4-1.3,7.9-2.7,11.8-4.1c1.9-0.7,4.6-1.1,6.1-2.7
		C550.2,102.6,549,93.1,542.8,92.2"/>
	<path class="drama-1" d="M565.6,176.7c-4,1.6-10.3-0.2-14.7-0.3c-6.9,0-13.9-0.4-20.8-1.2c-3.6-0.5-4.2,6.1-0.4,6.8
		c6.7,1.2,13.6,1.9,20.4,2.1c5.7,0.2,13,2.1,18.2,0C572.3,182.7,569.4,175.2,565.6,176.7"/>
	<path class="drama-1" d="M569.2,260.1c-3.8-0.9-7.6-2.1-11.4-3.4c-3.1-1.1-6.4-0.9-9.4-2.2c-2.6-1.1-5.1-1.8-7,0.5
		c-1.9,2.2-0.7,6.9,2.5,6.7c2.1-0.1,4.4,1.3,6.5,1.9c2.8,0.8,5.6,1.2,8.3,2.1c5.4,1.9,13.6,5.9,18.3,2.9c1.1-0.7,1.2-3.2,0.2-4.4
		C574.8,261.1,572.6,260.9,569.2,260.1"/>
	<path class="drama-1" d="M555.5,338.5c-5.8-6.2-11.5-15.3-18.3-19.6c-6.2-3.9-10.8,6.6-5.1,11.6c5.4,4.8,9.6,12,14.7,17.3
		c4.5,4.7,9.9,10.2,13.3,15.6c5.1,8,14,0.1,9.2-8.1C565.6,349.2,560.3,343.6,555.5,338.5"/>
	<path class="drama-1" d="M476.4,334c-3.1-3.8-8.4-1.4-6.4,4c2.7,7,5.8,13.7,9,20.4c1.6,3.4,3.4,6.7,5,10c0.7,1.3,1.3,2.6,2.1,4
		c-0.5-1,0.2-0.8,0.5,0.9c0.9,7.1,9.6,6,8.6-0.6l0.1,0.1c-0.5-4.3-5.6-12.4-8.2-17.7C483.7,348.4,480.9,339.8,476.4,334"/>
	<path class="drama-1" d="M407.2,348.6c3.2,12.2,6.6,24.4,9.8,36.7c1.9,7.1,3.7,18.9,8.1,24.9c3.8,5.1,11.3,3.2,9.9-4.2
		c-4-20.5-6.8-40.6-13.8-60.6C417.8,335.8,404.6,338.5,407.2,348.6"/>
	<path class="drama-1" d="M337.4,353.3c-2.9,4.7-0.3,13.2,0.5,19c1.1,7.8,1.7,15.7,3.2,23.5c0,1.1,0.2,2.1,0.6,3.1l0.1,0.3
		c2.9,7.1,12.5,5.5,10.7-2.4c-3-13.1-2.7-26.8-6.2-39.8C345.1,352,340.1,349,337.4,353.3"/>
	<path class="drama-1" d="M257.3,364c0.7,15.8,3.8,31.4,5.5,47.2c1.1,10.1,14.6,11.4,14.6,1.4l0-0.8c0-0.7-0.1-1.5-0.2-2.2
		c-1.6-14.7-4.7-29.4-5.7-44.2C270.8,355.5,256.8,354.2,257.3,364"/>
	<path class="drama-1" d="M190.1,372.2c1.8,13.7-2.4,26.4-1.5,40.1c-0.1,0.6-0.1,1.3,0,1.9l0.1,0.3c1.7,7.7,10.6,7.2,9.8-0.6
		c-1.5-14.5,3.3-27.6,1.2-42.3C198.5,364,189,364.6,190.1,372.2"/>
	<path class="drama-1" d="M129.2,373.5c-2.5,6.4-3.3,13.5-5.5,19.9c-1.5,4.4-4.3,10.3-4.1,15.4c0.2,4.6,6.1,6.4,6.2,1.5
		c0-2.3,1.4-4.2,2-6.3c0.9-3,1.8-6,2.8-8.9c2-5.8,2.6-12.3,4.9-18.1C137.3,372.7,131,369.1,129.2,373.5"/>
	<path class="drama-1" d="M79.5,346.3c-5,1.8-8.8,6.2-12.8,9.7c-4.5,3.9-9,8-13.4,11.9c-3.7,3.3,1.3,11,5.1,7.8
		c4.5-3.9,9.1-7.8,13.5-11.7c4-3.5,8.7-6.7,11.5-11.7C85,349.3,82.3,345.2,79.5,346.3"/>
	<path class="drama-1" d="M44.9,253.9c-10.7,3.1-23.3-1.3-33.5,3.4c-2.9-0.3-5.3,2.9-3.9,6.9c0.1,0.3,0.2,0.6,0.3,0.9
		c1.1,2.9,4,4.7,6.3,3.7c5.4-2.5,11.7-1.4,17.6-1.4c5.9,0.2,11.8-0.5,17.5-2C55.2,263.6,50.8,252.2,44.9,253.9"/>
	<path class="drama-1" d="M36.9,183c-0.2,0-0.3-0.1-0.5-0.1c-4.1-2.5-8.4-4.7-12.9-6.4c-5.5-2.3-12.3-7-17.9-6.3
		c-7.6,1-7.6,15.6,0.9,17.1c4.1,0.7,8.3,3.3,12.3,5s9.3,3.5,12.9,6.5c2.9,2.4,6.3,3,8.9,0.8c0.7-0.6,1.3-1.4,1.8-2.2
		C45.8,192.4,42.1,184.7,36.9,183"/>
	<path class="drama-1" d="M37.7,94.1c-2.2-2.7-5,1.2-3.3,3.9c5.4,8.9,11.5,17.2,16.9,26.2c0.6,1,1.7,1.7,2.9,1.7c1.1-0.1,2.1-0.9,2.3-2
		c0.3-1.3,0.1-2.6-0.6-3.7C50.5,111.1,44.4,102.3,37.7,94.1"/>
	<path class="drama-1" d="M104.8,62.8c1.7,5.9,5.1,11.6,7.7,17c2.5,5,4.7,10.3,7.2,15.3c0.2,0.5,0.4,0.9,0.7,1.3l0,0
		c1.4,2,3.9,2.9,5.7,1.5c4.2-3.6-2.2-13.3-4.1-17.3c-3.2-6.7-7.5-13.7-9.9-20.8C110,53.5,103.1,56.7,104.8,62.8"/>
	<path class="drama-1" d="M168.7,35.7c2.4,12.8,8.2,24.9,10.7,37.5c1.7,8.6,12.1,8,10.9-0.7c-0.8-5.5-2.9-10.7-4.3-16.1
		c-2.1-7.8-4.9-15.4-7-23.2C177,25.9,167.3,28.4,168.7,35.7"/>
	<path class="drama-1" d="M248.7,5.7c0.2,9.8,2.1,20.2,3.7,30.1c1.5,9.5,2.2,19.1,3.4,28.6c0.1,5.6,8.6,7.7,8.1,0.1
		c-0.7-9.6-2.1-19.6-3.4-29.3c-1.3-9.9-2-20.5-5.6-30C253.5,1.8,248.6,1.6,248.7,5.7"/>
</g>
</svg>
