<svg xmlns="http://www.w3.org/2000/svg" viewBox="0 0 259.9 210.2">
    <defs>
      <style>
        .a{fill:#76bd22}
      </style>
    </defs>
    <path d="M197 198.7h-.8v.5a17.1 17.1 0 002.5.2v-.6l-1-.1a8 8 0 01-.7 0zM221.2 202.3h-.7v-.2a9.4 9.4 0 00-1-.1h-1l-.1.5h.8l.4.1a3 3 0 00.4 0c.1.2.2.2.6.3h.8v.1h.1a1.4 1.4 0 01.5 0c.3 0 .3-.2.3-.3 0-.2-.5-.3-1-.4zM193.1 198.2c-.2 0-.5 0-.5.3s.2.4.8.5h1.1v-.5a6.3 6.3 0 01-1-.2h-.4zM183.7 200.2c-.5 0-.7 0-.8.3s.1.3 1.1.4h1.1v-.5a7 7 0 00-.7 0l-.7-.2zM191.7 202.5a1 1 0 01-.3 0v.5h.6l.7.1a.5.5 0 00.3 0h.2l.7.1a5.3 5.3 0 001 .1h.7v.1c.4 0 .4-.2.4-.3s0-.2-.5-.3l-.4-.1a21.5 21.5 0 00-2-.2v.2a1.6 1.6 0 00-.8-.3 2.5 2.5 0 00-.6 0zM196.7 203.9a51 51 0 00-3-.2v.6a68.2 68.2 0 013.3.1v-.5h-.3z" class="a"/>
    <path d="M2.2 166.1A38.3 38.3 0 012 170v.3a30 30 0 00-.5 3.4h.1v1a.8.8 0 000 .3v.7-.2l-.1 1.8a1 1 0 000 .4v.6l-.2.6v1.4l-.2 1-.1 2H.7l-.3 3-.2 2v.4H.5a18.8 18.8 0 012.3.2H3l2 .2c0 .2.1.2 1 .3l1.3.1a.7.7 0 01.1 0H8a6.3 6.3 0 011.3.1H12.2a.4.4 0 00.2 0h.7a5.9 5.9 0 001 .2 5.1 5.1 0 01.9 0v.1a19.4 19.4 0 013.5.3c0 .1 0 .2 3 .4v-.2l5.8.5a.6.6 0 00.2 0l.1.1.8.1a14.2 14.2 0 012.3.2l1.5.1v.2l2 .2c1.9.2 3.8.3 4.7.5l1 .2-.5-.4a2 2 0 00.2 0 24.1 24.1 0 002.8.3v-.3l3.8.4 5.2.5h.6a3.5 3.5 0 01.8 0h1v.2a2.7 2.7 0 001 0 2.7 2.7 0 01.9.1 3.3 3.3 0 011 0h.4v.2c.8 0 1.9 0 2.9.2l3.6.2.5.1.6.1h.2a1.4 1.4 0 01.3 0h.6v-.1h.2c0 .2.3.2.5.2h.4v.1a43.7 43.7 0 005.8.6l.5.1 2.7.2 2 .2a2.1 2.1 0 00.4 0 1 1 0 01.1 0 1 1 0 00.4 0 2.7 2.7 0 00.6.1.9.9 0 01.1 0 .5.5 0 00.2 0 5.3 5.3 0 002 .2h.2l2.3.3 4.7.4a17.4 17.4 0 001.8.1 8.5 8.5 0 011 .1H94l1.4.1 3.8.5h.4l1.8.2a27.6 27.6 0 013.5.3l4.3.3v-.2h.5v.1a10.1 10.1 0 001.5.1l1.6.1.6.2a.6.6 0 00.3 0h.2a2.2 2.2 0 00.7 0 7.8 7.8 0 001.6 0 .3.3 0 00.3.3h.8v.3l2.3.1v-.1h.6-.1l2.4.3a17.2 17.2 0 001.9.1 12.9 12.9 0 012.1.2h1.1l.8.1a22.2 22.2 0 002.8.2h.1c0 .2.3.2.6.3.8 0 3 0 5 .2v.1a2.8 2.8 0 01.6.1 3.5 3.5 0 00.7.1 44.5 44.5 0 013.7.3 13.3 13.3 0 002.4.2h2v.1h.9a11.6 11.6 0 002 .2l1.4-.4-1.5-.2a15.2 15.2 0 00-2.8-.2l-.9-.2-2.1-.1a.9.9 0 00-.5 0h-.5l-.6-.2.8-.1 3.5.3v-.1h.7l.5.1h-.1 1.3a7.4 7.4 0 002.1.2 2.9 2.9 0 01.5 0v.2h.2l2.4.2c0 .2.2.2.4.2h.4a4.7 4.7 0 011.3 0v.1h.2a.6.6 0 00.3-.1 4.7 4.7 0 001 0h.1a2.7 2.7 0 01.7 0 3 3 0 00.7.1 2 2 0 00.4 0 1 1 0 00.5.1 6.2 6.2 0 011.2.1 42 42 0 015.8.6 3 3 0 01.4 0 1.9 1.9 0 00.5 0l.2-.2a4.4 4.4 0 01.7.1 6.3 6.3 0 011 0 4.7 4.7 0 001 0h.2c.1.2.3.3.6.3a29 29 0 013.1.3h.5l1.4.3 2.2.2c.6 0 1.2 0 1.8.2a2.4 2.4 0 00.9-.1 18.5 18.5 0 002.2 0 1 1 0 00.5.2h.5v.1a18.7 18.7 0 003.2.3 4 4 0 01.4 0l.5.2a39.4 39.4 0 014 .3 1 1 0 00.5 0 19.4 19.4 0 012.4.2H197v-.6a12 12 0 01-1.4 0l-.3-.1c0-.2-.2-.2-.7-.3h-.2v-.1h-.5a5.5 5.5 0 01-1.3-.1H191c-.2-.1-.4-.2-1-.2l-1-.1-.3-.1-.7-.1a12.4 12.4 0 011.5 0l.8.1a.8.8 0 00.3 0 1.8 1.8 0 01.6 0v-.7h-.8l-1-.3h-.4a4.1 4.1 0 01-.6.1h-.4.1l-1.5-.3h-.7l.2-.1-1.5-.2h-1.8v-.2h-.5a11.1 11.1 0 01-1.3-.2h-.1a1.7 1.7 0 01-.9-.1l-1.6-.1v-.2l-1.1-.1a4.3 4.3 0 00-1.5 0h-.6v-.1a8.9 8.9 0 00-1-.2h-.9c-1.7 0-3.4-.2-5.1-.4a2.8 2.8 0 00-.4-.2h-2.7l-12.4-1.2v-.1a9.8 9.8 0 01-1.2-.1l-1-.1h-1.1a5.6 5.6 0 01-.9 0v-.1c-.2 0-.4 0-.5.2a9 9 0 01-1.2-.1 6.6 6.6 0 00-.8-.1l-.3-.1v-.2h-.5a1.6 1.6 0 00-.4-.1h-.5l-.2.2-1-.1c-.2-.2-.6-.2-2.2-.4a58 58 0 01-3-.3H137l-1.2-.2a.3.3 0 00-.2.1l-1-.1a4.8 4.8 0 01-1 0 4.4 4.4 0 01-.8 0 3.7 3.7 0 00-.5-.1v-.1l-1.9-.2-3.7-.3v-.1h-.8l.3-.1-1.7-.2h-.2a1.4 1.4 0 00.5 0h.3l.7.1h1.9a2.4 2.4 0 00.7.1 7.6 7.6 0 011 .2 12 12 0 011.3 0 .3.3 0 00.2.1h.1l1.8.1a7.5 7.5 0 002 .1h.9v.2h1.3l1.3.2a3.5 3.5 0 011 0l.7.1a19.4 19.4 0 012.4.4l.6-.1a108.1 108.1 0 008.6.7H153v.2h1.7l1.2.1a1.8 1.8 0 00.5.1H156.9a10.8 10.8 0 001.4 0v-.3l1.3.1v.5a12.7 12.7 0 001.7 0 14 14 0 011.6.2h.8a8.5 8.5 0 001 .1l.5.1h.2a5.8 5.8 0 001 .1h.6a12.6 12.6 0 001.7.2l.9.1a15.3 15.3 0 002.8 0h.7v.4a5 5 0 001 0 4.3 4.3 0 01.7 0 2.2 2.2 0 01.4.2 2.2 2.2 0 00.7 0h1.1l1 .1a9.2 9.2 0 001 .2h.7a1.6 1.6 0 00.5 0l.6.1a4.4 4.4 0 00.9 0 4 4 0 01.8.1c.3 0 .5 0 .5-.2s-.1-.3-.5-.4h-.5l.3-.2h-1.1c-.2 0-.4 0-.5.2l-.4.1a.3.3 0 000-.2v-.1h.9l-1.3-.3h.5c.2 0 .4 0 .4-.3l1.2.1h.7v.1h.2l1.3.1h.3v.1h1l2.3.2c0 .4 0 .4 1 .5l1 .2h.1c.2 0 .4 0 .4-.3v-.1l1 .1h.4l2 .1h.2v.1l2.4.2v-.1h.7v.1l3.5.4h.6c2.2.3 2.3.2 2.4.1h.7a7 7 0 01.7.2v-.1l1.8.1.4.1a6.6 6.6 0 001 .1l.9.1a.4.4 0 00.3 0h1.9c.7.2 1.5.2 2.3.3h.1l.1-.1H214.6v-.5a.6.6 0 00-.4-.2c0-.1-.2-.2-.6-.2a1.9 1.9 0 00-.8 0h-.4a5.6 5.6 0 00-.9 0 3.4 3.4 0 01-.4 0l-.9-.1h-.5a2 2 0 00-.9-.3 9.7 9.7 0 00-1.2 0h-.1l-1.6-.2.2-.1h-1.4l-2.8-.3-4.3-.3a8 8 0 00-1.4-.2v-.2a4.2 4.2 0 00-.7 0h-.5a1.8 1.8 0 01-.3 0 1.8 1.8 0 00-.2 0l-.4-.1a24.8 24.8 0 00-3.5-.3h-1.5a13.4 13.4 0 00-2.6-.3.3.3 0 00-.3 0h-.3a.8.8 0 00-.4 0l-1.3-.2v-.1l-2.8-.3a91 91 0 01-2.1-.2.5.5 0 00-.3.1 1.5 1.5 0 01-.6 0c0-.1-.1-.2-.7-.2h-.1l-1.8-.4a8.8 8.8 0 00-1.4-.2 9.2 9.2 0 01-1.2 0 .4.4 0 00-.3 0h-.2a.3.3 0 00-.1-.1h-.5a7.3 7.3 0 00-.7-.1h-1l-.1.1-4-.3v-.2a62 62 0 00-5.2-.6h-.1a25.5 25.5 0 01-3.5-.3 2.7 2.7 0 01-.5 0h-.1a5 5 0 00-.8-.2 4 4 0 01-.8 0h-.3a.4.4 0 000-.2l2.5.2a8.5 8.5 0 00.9.1v.1a3.2 3.2 0 001.3 0 6 6 0 01.9.2 8.1 8.1 0 001.6.1h.8c1.6.2 3.2.4 5 .4a1.2 1.2 0 00.5.2h.4l.6-.1h.8l1.5.2c0 .2.3.2.4.2h.8a.3.3 0 010-.1 5.2 5.2 0 01.7 0v.2a6.4 6.4 0 001.8 0l1.4.2a10.3 10.3 0 011.2.2 25.2 25.2 0 012.6.2h1.3v-.6l-1.1-.2a4.7 4.7 0 00-.6 0 3.2 3.2 0 01-.8-.1 1 1 0 00-.5 0h-.5l-2.8-.3-1.3-.2a4 4 0 00-.7 0v-.2a6.6 6.6 0 00-2.2 0l-.8-.1-.9-.1v-.2l-1-.1a4 4 0 00-.9 0 .6.6 0 00-.1 0l-.8-.1a1.4 1.4 0 00-.8 0 41 41 0 01-2.3-.2.4.4 0 00-.2 0h-1.1v-.3q-1.2 0-2.3-.2-1.3 0-2.5-.2a267 267 0 01-3.7-.3.6.6 0 00-.2 0h-.3a7.6 7.6 0 00-1.6-.2v.1h-.2l-.4-.1a6.2 6.2 0 01-.7 0h-.1l-4.9-.4v-.1l-1.3-.1h-.2l-4.3-.4a31.6 31.6 0 00-2.6-.3h-.4a5 5 0 00-1.8-.1h-.5c0-.2-.2-.2-.8-.3l-.6.1H132l-4-.4a11.2 11.2 0 01-1.6 0l-.3-.1v-.2l-2-.2-3-.2-2.2-.1.1-.2h-.4l-7.3-.5-.4-.2h-.7a146 146 0 01-6.8-.7 14.8 14.8 0 01-2.3-.1l-.5-.1a.5.5 0 00-.4 0h-.2l-3.5-.3-2.6-.2h-.1L90 188l-5.5-.4c-1.4-.3-3-.3-4.4-.5l-1.5-.1a16 16 0 00-1.6 0l-.4-.1-.5-.2-3.7-.3-12.7-1.1h-.2a1 1 0 00-.2 0 429.4 429.4 0 00-14.8-1.3l-1.5-.2a.3.3 0 00-.2 0c-1.3 0-3-.3-5-.4l-1.3-.2-13-1.1-1.3-.1a.4.4 0 00-.2 0 .8.8 0 01-.1 0l-8.7-.8-5.2-.4.4-4.5.7-7.7.4-4.7.2-2c0-1.4.2-2.6.3-3.8v-1c.2-.6.2-1.5.3-2.5l.3-3a343.2 343.2 0 011.4-17l.2-1 .8-10.5 1-10.8.4-4.7c0-1.5.2-3.1.4-4.6a52.5 52.5 0 01.4-5.6L16.7 82l3-34.3v-1.1-.3l1.4-16.6.2-1a6.7 6.7 0 000-.9 4.3 4.3 0 010-.5 11.1 11.1 0 00.2-2L23 8.7l44.5 4.1 48 4.3h.7l7 .7 8.6.7h.9a6 6 0 01.8.1h.1l4.3.4h1l1 .1 4.4.4 11.4 1 14.8 1.4h1a42 42 0 004.6.5 1 1 0 01.3 0 1.5 1.5 0 00.4.1 6.8 6.8 0 011.8.1h.3l6.6.6 1.5.1h.1v.2a5.3 5.3 0 00.7 0 8.1 8.1 0 011.5.1.4.4 0 00.2 0h.4a10.3 10.3 0 001.3 0v.1l2.4.2 6.7.5v.2a124.1 124.1 0 004 .4 21.8 21.8 0 012.7.2l.9.1a.3.3 0 00.2 0V25h.6a10.2 10.2 0 011.7.2h1.5l2 .2.6.1a4.8 4.8 0 01.7.1v.2l2.9.2 2.8.3V26h.3v.2a14.6 14.6 0 002.4.2v-.2h.5v.3c2.4.3 6.3.6 9 .7l.8.1a18.4 18.4 0 003.8.2 1.7 1.7 0 01.6.1 1.6 1.6 0 00.4.1 208.7 208.7 0 015.4.4l1.4.2-.3-.2h1l5.5.5h.4L250.7 47c-.4 5.8-1 13-1 14.8v.5l.2.1c-.4 6-1 12-1.4 15.6h.2l-.1 1.7a2282 2282 0 01-2.9 33.1v.3a13.6 13.6 0 01-.1 1.7v.5a15.9 15.9 0 00-.3 2.2 17.2 17.2 0 000 2.8v2.4l.4-2.4a8.6 8.6 0 00.1-.9v-.4l.2-1.1v1.5l-.7 4.2.3-1v.3l-.1 1.7-.2 1.6-.7 9.4c-.3 3.9-.8 9.7-.9 13.2l-.6 9.6-.2 2.4-.5 8.7h.2v.7h.4l.2-1.3.1-1.4.2-2.4a11.7 11.7 0 00.1-1.8 8.8 8.8 0 01.2-1.1v-.7l.1-.7v1.3l-.7 9.1h.5l.2-1.9.3-2.4.5-4.6a1.8 1.8 0 000-.5 20.5 20.5 0 00.2-2.2v-.5h.2v-1 1.8l-.1 1.6-.2.8v.1a83.3 83.3 0 01-.7 9.5l-.2 2.5v.3c0 2-.3 4.8-.5 7l-.4 4.5a54.2 54.2 0 00-.4 6.5l-.2 2.3v.8l-.2.3c-.6 9-.4 9.3-.3 9.5l.4.8v-1l.1.6.4-2.8.2-2.4a37 37 0 01.6-4.2v-.1l.1-1.8a8.9 8.9 0 000-1.8c.2-.4.2-.9.3-1.4a8.8 8.8 0 00.1-1.4c.3-1.6.5-5 .7-7.7v-.6l.5-4 .2-.8v-.8l.6-7v-.4h.2a15 15 0 00.2-2.2l.3-2.3-.3.9v-.1a20.6 20.6 0 00.2-4.8 1.2 1.2 0 010-.1.5.5 0 00.2-.4 6.2 6.2 0 000-2 1.9 1.9 0 01.1-.4 3.6 3.6 0 00.2-.7 3.5 3.5 0 000-1 1.6 1.6 0 010-.5v-.5l.2-.7a8.7 8.7 0 00.2-2.4v-.3l.1-1.6h.2a8 8 0 00.1-1.4 4.7 4.7 0 00.1-.7 6 6 0 01.1-.8v-.1l.2-2.5c.2-.8.3-1.7.3-2.6v-.6c.2-.1.2-.3.3-.5v-.8-1a5.6 5.6 0 01.2-.7 4 4 0 000-.5 5 5 0 000-.8v-.1l.1-.3a2 2 0 00.2-.7c0-1.2.1-2.4.3-3.5l.2-1.2a12 12 0 01.1-1.3v-.2a1.4 1.4 0 000-.3 232.5 232.5 0 001-12 .4.4 0 000-.4v-1a9.7 9.7 0 00.3-1.8h.1l.1-1.3v.1l.3-1.1a13 13 0 00.2-2 12.4 12.4 0 01.1-1.9l.1-3.7h.1a18 18 0 00.2-1.8l.1-1 .2-2-.2.8v-1.1l.2-2.5.1-.8v-.5c.2 0 .2-.3.2-.5v-.1a4.8 4.8 0 010-1h.2l.1-1.7.1-1.1a.6.6 0 000-.3 8.9 8.9 0 000-1V89h.2l.2-1.7a3.2 3.2 0 000-.5 1.3 1.3 0 010-.2v-.1a24.3 24.3 0 00.3-4.1 5.3 5.3 0 00.2-1V81l.2-3v-3.2h.3l.2-2.3V72h.2a18.8 18.8 0 00.2-2.8l-.1-.3.1-2.6.2-1.7h-.4V64l.1-.9v-.7h.4l.2-2.6.1-1.4v-1.6l.1-.4h-.3v-.8l.1-.6h.3v-.2l.2-1.7v-1.3h.2v-.3a6.9 6.9 0 000-1 6.9 6.9 0 01.1-1 .5.5 0 000-.2v-.1l-.1-.5a67.2 67.2 0 01.2-2.4 8 8 0 00.1-1 .8.8 0 000-.5l.1-2.7.2-.1c.2-.2.2-2 .2-2h-.3q0-.9.2-1.7l.2-.5v-.1a15.4 15.4 0 01.1-1.7l.1-1 .1-.2a24.4 24.4 0 00.3-3.4h-.2v-1.1h.3l.2-1.5h.2a23.8 23.8 0 01.1-1.5v-1-.7l.3-4-8.5-.6v.2l-2.5-.2.3-.4-.5-.1h-.3c-1.3-.1-1.3 0-1.4.2l-.1.2-1.7-.1v-.4h-1.4l-2.5-.1 1 .2H239a1 1 0 01-.2-.1 1.6 1.6 0 00-.5-.1l-2-.1-1.3-.2h-.1l-.7-.1a5.8 5.8 0 01-1-.1 1 1 0 00-.4 0l-10.6-1-1-.1-1.2-.1h-.6a24.8 24.8 0 00-3.2-.2 2 2 0 01-.3 0c0-.1-.2-.2-.6-.2a.5.5 0 00-.4 0 7.9 7.9 0 00-1.4 0l-1.4-.2a2.3 2.3 0 01-.2 0l-.7-.1a.5.5 0 00-.3 0c-1.2 0-2.8-.3-3.6-.4l.1-.1h-1.8l-1.4-.2a8.6 8.6 0 00-1.6 0h-.2a13.6 13.6 0 01-2.2-.3h-1.3l-1.8-.1-2-.2v-.1a10.5 10.5 0 00-2-.2 16 16 0 01-1.6 0 14.3 14.3 0 00-2.2-.2.3.3 0 00-.1-.2l.5-.1-1.4-.2h-.3l-.5-.1a5.9 5.9 0 01-.9 0 .3.3 0 00-.3 0h-1.5v-.3a80 80 0 00-4.7-.4v.2a37.2 37.2 0 01-2.2-.2 2.8 2.8 0 00-1-.1l-1.6-.2c-1 0-1.8 0-2.6-.2h-2l-.1-.1a1.9 1.9 0 00-.5-.1h-.3v-.4l-.3.3a6.5 6.5 0 01-1 0l-1.6-.1-.5-.1h-.1a1.8 1.8 0 00-.7 0 1.2 1.2 0 01-.5-.1v.1h-.5a.9.9 0 00-.5-.2l-.6.1h-.6c0-.2-.2-.3-.4-.3h-.2a1.4 1.4 0 00-.5 0 8.4 8.4 0 01-1 0 7 7 0 00-1.2-.1 3.5 3.5 0 01-.7-.1 2.5 2.5 0 00-.4-.1 26 26 0 01-2.4-.2l-.7-.1a21.5 21.5 0 01-3-.2l-.5-.2a23.8 23.8 0 01-2.5-.1l-1.3-.1h-.6a4 4 0 01-.3 0c-.1-.1-.3-.2-.7-.2a4.3 4.3 0 00-1 0 33 33 0 00-3.9-.4l-2.7-.2h.1l-1.2-.2h-.4l-1-.1-.1.1h-.5v-.1a31.4 31.4 0 00-3.5-.3 3.2 3.2 0 01-.9-.1 2.4 2.4 0 00-.5-.1l-.8-.1a5.8 5.8 0 00-1.1 0l-.9-.2v.2-.2a18.3 18.3 0 01-3-.3 7.3 7.3 0 01-1.5 0 .4.4 0 00-.3-.3h-.5a11 11 0 01-1.2-.1l-.6-.1h-.4v.1l-1.3-.2h-.1a10.3 10.3 0 00-2.4-.3l-1-.1V9h-.3l.1.1-.3-.2h-.1a5.5 5.5 0 00-1.1-.2h-1.4V9h-.5c0-.2-.2-.2-.5-.3h-.3a1 1 0 00-.4.1h-.5l-.4-.1a.3.3 0 00-.2-.2 90 90 0 01-6-.4V8h-.7a9.8 9.8 0 01-1.3-.2 19.6 19.6 0 01-2.5-.1l-2.8-.2a5.5 5.5 0 00-1-.1h-.4v-.1a3.5 3.5 0 00-.8 0 6.3 6.3 0 01-.9 0l-.3-.1V7h-.6a25.3 25.3 0 00-3-.2H88a7.5 7.5 0 00-2-.2 9.2 9.2 0 00-1-.2h-1l-1.4-.2a8.2 8.2 0 00-1 0A5.7 5.7 0 0181 6v-.2h-1.2l-.6-.1-1-.1h-.2v.1c-.6 0-1.1 0-1.8-.2a7.4 7.4 0 01-1 0 .5.5 0 00-.3 0h-1l-1.5-.2h-.5l-.4-.2a1 1 0 00-.5 0h-.2-.7a.9.9 0 00-.5 0L63 4.5l-3.5-.3V4h-.2L57.7 4 56 3.8v-.1l-1-.3h-3a.3.3 0 00-.2 0h-.5a.9.9 0 00-.4 0l-1-.1h-.2L49 3l-6.8-.6v.1h-.9v-.1L36.8 2A7.9 7.9 0 0035 2V2h-.3l-1-.2a64 64 0 00-2-.2 1.5 1.5 0 00-.4 0h-.5l-.6-.1h-.6v-.1h-.5a5.4 5.4 0 01-1.2-.2h-.1a5.7 5.7 0 01-.8 0 3.5 3.5 0 00-.5 0l-1-.1a14 14 0 00-1.3-.1h-.4L21.4.5 17 .3l-.2 2a24.8 24.8 0 00-.4 3.9l-.2 2.3-.2 1.6c0 .8 0 1.7-.2 2.6a.6.6 0 00.1.4v.4a5 5 0 00-.1 1v.1h-.1a1.7 1.7 0 000 .6 1.3 1.3 0 010 .3l-.2-.5-.1 1.2-.1 1.3-.3 2.2v.2l.2.1a9.4 9.4 0 000 1l-.1.3a2 2 0 00-.2.7v1.4h.1-.2v.3l-.1 1.5c0 .9 0 1.6-.3 3l-.1 2.6-.1 1a1.3 1.3 0 00-.1.5 15.8 15.8 0 01-.1 1.6l-.2 2c0 .3.1.4.2.4l-.1 1.5h-.3l-.3 2.7v.3a5.7 5.7 0 01-.1 1 .7.7 0 000 .4 5 5 0 010 1 8 8 0 00-.2.9 2.8 2.8 0 00-.1.6l-.1.4-.1 1.8-.2 1.9h.1a3.2 3.2 0 010 .4l-.1.2V49.7l-.1.3a13 13 0 00-.2 1.4 22.5 22.5 0 01-.3 3.2v.7a1.5 1.5 0 010 .3 2.5 2.5 0 00-.1.4 8.2 8.2 0 01-.3 2.4v.2l-.2 3-.2 2.2a1.8 1.8 0 000 .3 1.5 1.5 0 00-.1.5 7.9 7.9 0 01-.1 1 1.2 1.2 0 000 .3l-.5 6.2a5 5 0 00-.2 1.3L10 75l-.1 1.5a.6.6 0 000 .3 9.2 9.2 0 000 1v1.6a10 10 0 000 1.2l-.1 1.6h-.2v.4l-.3 1.1v.4h.2v.3L9.2 86H9v.2l-.2 2-.2 2.6a1.6 1.6 0 010 .3 2.3 2.3 0 00-.1.4v.3a31 31 0 010 2.4v1c-.1 0-.2.2-.3 1.5L8 98.2v.1a1.3 1.3 0 000 .2 8.7 8.7 0 010 1.5l-.2.8a14 14 0 00-.2 1.6.3.3 0 00.2.3v.2c0 .7 0 1.4-.2 2.4v1.4c-.2 0-.3.2-.4.8v.4a3.5 3.5 0 000 .7 1.5 1.5 0 010 .2l-.1.6a8.5 8.5 0 00-.1 1.1h.2l-.1 1v.6a1.4 1.4 0 00-.2.7v.7h-.2l-.1 1v1.2h.1v.4a.3.3 0 000 .1h-.3a31.5 31.5 0 00-.3 3.6l-.1 1.3.2-.3v1.5H6a9.3 9.3 0 00-.1 1 8.7 8.7 0 01-.1.8c0 .8 0 1 .2 1a147.9 147.9 0 01-.4 4 73.5 73.5 0 01-.7 7.7l.1.2v.6l-.1.2v.4c-.2.5-.2 1-.2 1.1v.2l-.1.4-.2.7v1.3a6.7 6.7 0 00-.2.8l.1 1v.7h-.1l-.2 1.4-.2 2v.1l.1.5v.2l-.2.8v.4h-.1l-.2.8V152.3h.2v.3c-.2 0-.2.3-.2.6v1a6.6 6.6 0 01-.1 1.3l-.2.8v1.2l-.1.7a4.5 4.5 0 00-.3 1.2v.1a2.7 2.7 0 010 .4l-.1.4a15.2 15.2 0 01-.2 1.5c0 2-.3 3.4-.3 3.8v.2l.1.2v.1zm183 36.2zm-59.7-3.9a.5.5 0 00-.1 0zm49.6.1a19.5 19.5 0 012.1.2h.4v.1h-.5l-2-.2a.3.3 0 000-.1zm-2.8-.3h-.8a3.7 3.7 0 00-.7 0v-.1h-.5l2 .1zm-3.5-.3zm-.2-.3h.2-.2zm-4.4 0h1.2H164.2a.3.3 0 00-.1 0 .9.9 0 00.1 0zm-.8.6a.3.3 0 00.2 0v.4l-.4-.4h.2zm-10.9-3.6a.3.3 0 000 .1l-2-.1h-.4 2.4zm-8.4-.7h.5l3 .3a.3.3 0 000 .1H146c-.5-.2-1.3-.3-2-.3a.3.3 0 00.1-.1zm-5-.5l1 .1a.3.3 0 00-.1 0v.1h-1v-.1a.5.5 0 000-.1zm-31.4 3.2h-1.2v-.2a7.5 7.5 0 011.4.2zm2.2.3a1 1 0 01-.4 0h-.7a8 8 0 01-.2-.1.4.4 0 00.2-.1h1.1v.2zm-9.3-6.8h-.2zm-4.1 3h1.8a2.5 2.5 0 00.3.1c.2.3 1.7.3 1.7.3h2.6v.1h.9l1.5.1a8.9 8.9 0 001.9.2h1.4a109.3 109.3 0 014.8.5l3.3.3.8.2h.1a10 10 0 012.1.2v-.2l.1.1a5.4 5.4 0 011 0l.1.1.6.1h.7a.6.6 0 00.2 0 .5.5 0 00.2.1h.2-2.8l-2.6-.2-3.2-.4-4.4-.3v-.1l-1.8-.2c-1.9 0-4-.2-6-.5a.3.3 0 00-.3.1l-2.6-.3a.7.7 0 00-.3.1v-.2l-2.5-.1h-.7a.2.2 0 000-.1h.9zm-2.7-.2a.4.4 0 000 .1L92 193a.4.4 0 00-.2-.1h-.6v-.1l2.5.2zm-6.4-.6a5.3 5.3 0 001.1.1h.6a2.5 2.5 0 001 .2h.3a15.6 15.6 0 00-1 0 4.2 4.2 0 00-1-.2h-1.2.2zm-.5 0h-.2zm-1 0h.7-.7zm-9.8-1zm-3.3 2a3.2 3.2 0 00.8.1 3.5 3.5 0 01.5 0 .2.2 0 000 .1l-1-.1a2.8 2.8 0 01-.4 0 .3.3 0 00.1 0zm.1-2.2h-.1a.3.3 0 00-.2 0zm-2.8-.3a.3.3 0 00.1.1h-.9.8zm-4.4-.4a.2.2 0 00.1.1h-1.1a.2.2 0 000-.1zm-21 .2zm200.8-35.7l-.1 1v1.2a19.6 19.6 0 000-.6v-1.6zM21.8 14.3a.6.6 0 010 .2V14v.2zM7.4 110.5zm-4.3 48v.1a.2.2 0 01-.1-.1z" class="a"/>
    <path d="M258 37.3h.6a10.1 10.1 0 00.1-1.2 2.6 2.6 0 000-.4 1.4 1.4 0 010-.4V35h-.3c-.2 0-.3 0-.4 2.3zM257.8 39.8c-.1 1.3-.3 3-.3 4.8h.5l.4-4.8zM240.5 204.1l-.3-.1H239.4l-1.8-.2-4.7-.4a6.5 6.5 0 01-1.6-.2h-.1a.4.4 0 00-.2 0 1.1 1.1 0 01-.3 0 1.8 1.8 0 00-.7-.1 4.8 4.8 0 01-.8 0h-.9v-.3a15.1 15.1 0 00-2.2-.2v.2h-.8l-.7-.1h-.6v.5h.5a11 11 0 001.7.2v-.2a19.3 19.3 0 011.6.1v.3l2 .2h.8a10.7 10.7 0 001.7.2h.5l3.3.4 1.6.1a.8.8 0 00.5 0h.5a1.3 1.3 0 00.5.1 10.7 10.7 0 011.3 0v-.5zM216.5 201.5l-2.5-.2v.5h.3a1.2 1.2 0 00.5.2h.1a8.8 8.8 0 011.6 0l1.4.1v-.5l-1.4-.1zM189.5 198.6l2.1.1v-.5a9.9 9.9 0 00-1.5-.1h-.3v-.1l-.6-.1h-.7a6.5 6.5 0 00-1-.1h-.5l-2.2-.3h-2.1l-1-.1v.5h.4l1.7.2h1.6a2.3 2.3 0 00.5.2 16.8 16.8 0 012 .1h1.2v.1zM200.3 204.1h-1.6c-.3 0-.4.2-.4.2 0 .3.2.3.5.3l.5.1h1.6v-.5h-.6zM153.5 201.3h-.4v-.1h-1.3v.5h1.1l.8.2c.3 0 .4-.2.4-.3 0-.3-.3-.3-.6-.3z" class="a"/>
  </svg>
  