<svg xmlns="http://www.w3.org/2000/svg" viewBox="0 0 147.6 48.7">
	<g fill="#fff">
	  <path d="M28.6 5.4l.1.1.1-.1.1.2.1.2.1.2.1.2.1-.1V6l.1.4-.1.5-.1-.4c0-.2 0-.3-.2-.3.1.1.1.3 0 .4l-.1-.2-.1-.2c.2.3.2.6.2.8 0 .3-.1.6-.3.8l.1-.4.1-.3.1.1-.1-.1.1-.3-.1-.4-.1.1c0 .1 0 .1.1 0v.6l-.1-.1-.1-.1v.4l-.1.5h.1l.1-.1-.1 1.7-.2 1.7v-.2.4l-.1.1.1-.1v-.1l-.3 2.4-.5 2.3.1.2a5 5 0 00-.3 1.7l-.3 1.5v.3l-.1.3.1.2.1-.1v-.2l.2-.4V19l.1-.1.1-.2v-.3c.1-.1.1-.2 0-.4l.2-.8.1-.8.2-1.1.2-1.1v.6l-.1.7v.1-.1l.1.2v.3l.1.4v.3l.2.1.1.1v.6l-.2.4-.2-.1-.1-.2c-.2.3-.2.6.2.8l-.2.6-.2.5c.3.2.4.4.2.6l-.3.6c.2.2.2.4.1.6l-.3.6.1.6-.1.6h-.2l-.1.4.2.7c0 .3-.1.5-.3.6l-.1.6-.2.6c.1.1.2.3.1.5l-.1.5-.1-.1-.2.5c.2.2.3.4.2.6l-.3.7.1.1.1.1c0 .5-.2.8-.5 1v.4l.1.1.1.1-.2.7-.1.7-.2.1-.2.1.1.1.1.1-.1.4-.2.2.1.3c.1 0 .2.1.1.3l-.3.1-.2.3v.3l.2.2v.3h-.1c-.1.1-.1.1 0 .2s.1.1 0 .2l-.1-.1-.1-.2c-.1.1-.2.2-.1.4l.1.3-.1.1h-.1l-.1 1.1-.1 1.2.1.1.1.1h-.1c0 .1-.1.1-.2 0l-.1.4.1.1.2.1v.2c-.1.1-.2.1-.2 0l-.2-.1V38l-.1.3h-.1l-.1-.1v.7l.1-.4v.6h-.2V39v.2l-.1.2-.1.2h-.2l.1.2v.2l.1-.1v.5l-.1.4v.4l-.1.1-.1.3.1-.1v-.1l.1-.1.1.7-.1.6-.1-.1-.1.1c0 .1-.1 0-.1 0l-.1-.3-.1.5-.2.2-.1.5-.2.5c.1.2.1.3 0 .4l-.2.3v.2l-.3.3-.3.3-.1-.1-.3.3-.2.4h-.2l-.2.1-.2-.1-.7.5c-.2.1-.3.4-.3.7l-.2.1-.1.1c-.3 0-.7-.1-.9-.3l-.7-.6c-.8-1.5-1.3-3.1-1.6-5l-.9-5.7-.2-1.2-.1-1-.1-.9-.4-3.9-.4-4-.1-.6v-.5c-.2-.5-.3-.9-.3-1.5 0-.5-.1-1-.3-1.4l-.3.5h-.1l-.1-.1.2-.3.2-.3-.1-.1-.1-.1-.3.4v.2l-.9 1.8-.7 1.9.2-.5.2-.5c.1.2.1.4-.1.6-.2.2-.2.4-.2.6l-.1.2-.2.3.1-.1.1-.2.1-.2.1-.2.1-.2-.1.4-.1.4v.2l-.1-.1v.2l-.1.3v.5l-.1-.1-.3.9-.2.8.1-.2.1-.2.1-.2 1-.6c.1.2 0 .5-.1.7-.1.2-.2.5-.1.6l-.3.6-.1.8h-.2l-.2.8-.1.7c-.1 0-.1-.1 0-.1s0-.1 0-.1l-.3.9-.3 1 .2-.3.2-.3-.2.8-.2.8c-.1 0-.1 0 0 .1.1 0 .1 0 0-.1l.1-.1h.1l-.2.6c-.1-.1-.1-.1 0-.2.1 0 .1-.1 0-.2l-.1.1.1.2-.1.8c0 .3-.1.5-.3.7l-.1.6.1.1.1.3.1-.4v.6l-.2.4-.1.5v.1c.1 0 .1 0 0 .1l-.3 1.2a3 3 0 01-.4 1l-.1.2-.2.4.1.3-.5.9-.5.9-.2.1-.2.1-.4.7-.4.6H6.5v-.1l-.2.1c-.1.1-.2.1-.2-.1l-.4.3-.4.3c-.2-.1-.4 0-.5.1-.2-.1-.4-.1-.5.1l-.4.4.1.1v.1l-.2.1-.5-.1-.4.1c-.6 0-1-.3-1.4-.7l-.5-.8c-.2-.2-.3-.6-.3-.9l-.1-1-.2-.8-.1-.4V41l-.1-.6.1-.5-.1-.4.2-.8-.2-1.3-.2-1.3v-2.2l.1-.5v-.6h.2l-.2-2.5.2-2.3v-.1c-.1 0-.1 0 0-.1l.2-.6-.1-1.7c0-.5 0-1 .2-1.6l-.1-.1-.1-.1c0-.3.1-.7.3-.9l.1-1 .1-1.1-.1-.1-.1-.1.2-.5c-.1-.3-.1-.5.1-.8.2-.2.2-.5.1-.8l.3-2 .3-1.9V14l.1-.2.1-.2v-.2c.1-.7.3-1.3.6-1.8.2-.5.6-.9 1.1-1.2l.6-.2.5-.2.4-.1.3-.1.6.2.4.3c.3.4.6.9.7 1.5l.2 1.8-.2 2-.3 1.8-.1 1-.1.9-.1 1.3-.2 1.4-.1.2-.1.2c.1.6 0 1.2-.2 1.8-.2.6-.2 1.2-.1 1.8l-.1.9v1l-.1.1c-.1 0-.1 0 0 .1l.1.1.1.1-.1.7-.1.6-.1.1-.1.1v.1l.1.1v.7l-.1.3-.1.3c.2.4.3.9.2 1.5l.1.3-.1.4-.1.4.1.3v.1l-.1.1c.1.2.2.6.1 1s0 .7.2.9l-.1.4c-.1.1 0 .2 0 .4v.2l-.1.2.2.1h.2c0 .2 0 .4-.2.5-.1.1-.2.3-.1.6l.1-.1c0-.1 0-.1.1 0 0-.1 0-.1.1 0l.3-.9.3-1L7 35l.5-1.7.5-1.5.5-1.6.6-1.5.6-1.5.4-1 .5-1.4.6-1.4 1-2.3c.3-.8.7-1.4 1.2-2l.2-.4.2-.3.2-.1.2-.1c.3 0 .6-.1.8-.3.2-.2.4-.3.7-.3l.2.1.2.1.2-.1.2-.1c.8 0 1.5.3 1.9.9.7.2 1.2.6 1.7 1.1l.3.9.3.9c-.1.2-.1.5 0 .8.1.3.1.5-.1.8l.1.4.1.4c.1 0 .2.1.2.3l-.1.4-.3.1-.2.2.1.3v1.3c0 .4 0 .8.2 1.1l-.1.3-.1.3v.6l.1.1.1.1-.2 1.3-.1 1.4.1-.2v-.2l.1.3v.4l-.1-.1v.5l.1-.1V32l.1.2v.3l-.1-.1v.4l.1.4v-.4l.1.3v.4l-.1-.1v-.2.4l.1.1v.1a2 2 0 000 1.1l.1.1.1.1v.4l.1.1.1.1v.6l.1.6-.1.4.1.4.1-3V31.4l.1-.1-.1-.6V30l.1-1.5.1-1.4.1-.5.1-.5v-.4l.1-.4.7-5.7 1-5.6.2-1.3.2-1.1.5-2.5.6-2.4v-.4c.1-.3.3-.6.3-1l.3-1 .5-.9c-.2-.2.1-.3.5-.4l-.2.5c-.1.2 0 .4.1.5l.1-.3.1.2-.1.2c.1.1.1.1.1-.1s0-.1.1-.1v.3h.1l.1-.1v.2l.1.1.3-.3c.1.1.1.1 0 .1l-.1.1.1-.1c0-.1 0-.1.1 0l-.1.1-.1.1h.1l.2-.1.2.3c.2-.1.3-.2.3-.4.1.1.1.1 0 .2s-.1.1 0 .2l.1.1-.1.2.2-.1v-.3l.1.4.1.5zM5 45.1c-.1 0-.1 0 0 0 0-.1 0-.1 0 0zm0-26.7c0 .1 0 .1 0 0s0-.1 0 0zm0 26.7c.1-.1.1-.1 0 0 .1.1 0 .1 0 0zm.4-6.4c.1-.1.1-.2-.1-.2l.1.2zm.2-1.6v.3l-.1-.2.1-.1zm.2 7.2c0-.1 0-.1 0 0-.1.1-.1.1 0 0zm.9-.4l-.2.1c-.1.1-.1.1 0 .2l.2-.1s.1-.1 0-.2zm0 0c0 .1 0 .1 0 0zm1.2-.8c-.1-.1-.1-.1 0 0zm1-7.2c.1 0 .1 0 0 0 0-.1 0-.1 0 0zm.6-.3c0-.1 0-.1 0 0zm.2-.7v-.2.2l-.1.1.1-.1zm0 4.3V39v.2zm.1-4.8l-.1.1.1.1v-.2zm0 .6v-.2c.1 0 0-.1 0-.1l-.1.2.1.1zm.1-.3c.1 0 .1 0 0-.1-.1 0-.1 0 0 .1zm.1 2l.1-.1v-.2l-.1.3zm.3-3.4v-.1.1c0 .1 0 .1 0 0zm0 .8c0 .1 0 .1 0 0s0-.1 0 0zm0 .7c0 .1 0 .1 0 0zm.2-1.4l.1-.6-.2.6-.1.6.2-.6zm-.1-.3s-.1 0 0 0c-.1.1 0 .1 0 0zm0-.7s.1 0 0 0l.2-.2.1-.2-.2.1-.1.3c0-.1 0 0 0 0zm.1 4.3v.3l-.1-.1.1-.2zm.1-2.8c0-.1-.1-.1 0 0-.1.1 0 .1 0 0zm0-1.9l.2-.5c.1-.2.1-.3 0-.4l-.1.4c-.2.2-.2.3-.1.5zm.2-1zm.1-.2l.1-.2-.1-.2-.1.2.1.2zm.1-.4c-.1.1-.1.1 0 .1s.1-.1 0-.1zm0 1c.1 0 .1 0 0 0 .1.1 0 .1 0 .1v-.1zm.1-1.4c.1-.1.1-.1 0 0 0 .1 0 .1 0 0zm0-.2s0 .1 0 0c.1.1.1.1 0 0l.1-.1v-.1l-.1.2zm.1-1.5l-.1.1c.1.1.1 0 .1-.1.1 0 .1 0 0 0zm.1 1l-.1.2h.1v-.2l.1-.2V29l-.1.3zm.2.5c0 .1 0 .1 0 0-.1.1-.1 0 0 0zm0-.1c0 .1 0 .1 0 0zm0-1.3l.1.3.1-.3v-.3h.2l-.1-.2v.2c-.2 0-.3.2-.3.3zm.4-1.5l-.1.1.1-.1zm0 .4c.1 0 .1 0 0 0 0 .1 0 0 0 0zm.2-1.9c0-.1 0-.1 0 0-.1 0-.1 0 0 0zm.2 1.2l-.1.1.1-.1-.1-.1.1.1zm0-.5c0-.1 0-.1 0 0 .1 0 .1 0 0 0zm.1-.6c0 .1 0 .1 0 0zm.1-.3c.1-.1.1-.1 0 0 .1 0 0 0 0 0zm0 .1s0-.1 0 0c.1 0 .1 0 0 0zm0 .6c0 .1 0 0 0 0zm.1-.2c0 .1 0 .1 0 0s0-.1 0 0zm0-.2c.1 0 .1 0 0 0 0 .1 0 .1 0 0zm.3-.5v.2l-.1.2v-.2c.1.1.1.1.1 0-.1-.1-.1-.2 0-.2zm-.1-1.3c0 .1 0 .1 0 0s0-.1 0 0zm.2-.5l-.1.1-.1-.1.1-.2.1.2zm-.1 1.7c-.1 0-.1 0 0 0zm0-.9c0-.1 0-.1 0 0zm.1.8l-.1.1.1-.1zm.1-1.7L13 23l.3-.6.3-.5h.1c-.1.3-.2.6-.5.8l.1.1-.1.1-.1-.1-.1.1.1.2zm0 0v.1c-.1 0-.1 0 0-.1-.1 0-.1 0 0 0zm0 .1c-.1.1-.1.1 0 0zm.1-.1c.1 0 .1 0 0 0l-.1.1.1-.1zm.1-2.5c.1.1.1.1.1 0h-.1zm.1.3l-.1.1h.1v-.1l.2-.2-.1.1-.1.1zm0-.4l.1-.1-.1.1zm0 .7l.2-.2.2-.3.1-.1.1-.1c-.1 0-.2.1-.2.3-.3 0-.4.2-.4.4zm.2-.7zm0 1.3l.1-.1-.1.1zm.1.2c0 .1 0 .1 0 0-.1.1-.1 0 0 0zm.1-.5l-.1.2c0-.2 0-.3.2-.4l-.1.2zm-.1.4v.1h-.1l.1-.1zm.1-.2l.1.2h-.1v-.2zm.1-.8c0 .1 0 .1 0 0-.1 0-.1 0 0 0zm0 0c.1 0 .1 0 0 0 0-.1 0-.1 0 0zm1.4-3.1l-.1.1v.1c-.2-.1-.3 0-.3.2l.3-.1.2-.4c.1.1 0 .1-.1.1zm.4 1.8c.1 0 .1 0 0 0l-.1-.2-.1-.1.1.2.1.1zm-.2 1c0 .1.1.1 0 0 .1 0 0 0 0 0zm.2-2.6h-.1l.1.1V18zm0 3.9l-.1-.2.1.2zm.1-3.5c0-.1 0-.1 0 0s0 .1 0 0zm0 1.4c0-.1 0-.1 0 0zm.3.7c.1 0 0 0 0 0v-.3L16 20c0-.1 0-.2-.1-.1l.1.3.1.3c-.1 0 0 0 0 0zm-.2-2.7zm.3 11.9l-.1-.1v.2l.1.1c-.1-.1-.1-.2 0-.2zm0-8.7l-.1-.4.1.2c-.1.1-.1.1 0 .2zm0 12.1c0-.1 0-.1 0 0-.1.1-.1.1 0 0zm.1-8.8v-.1.1c-.1 0-.1 0 0 0zm-.1-3.1c0 .1 0 .1 0 0 .1 0 .1-.1 0 0zm0 9.6c.1-.1 0-.1 0-.1v.1zm.1.1l-.1-.1.1.1zm0 2.7v-.2h-.1l.1.2zm0-9.2c0 .1-.1.1 0 0 0-.1 0-.1 0 0zm0 6.6c-.1.2-.1.3 0 .4l.1.4-.1-.8zm0 2.8c0-.1 0-.1 0 0s0 .1 0 0zm0 .1c0 .1 0 .2 0 0 0 0 0-.1 0 0zm0 .2c0-.1 0-.1 0 0 0 .2 0 .2 0 0zm0-9.2v.1c.1 0 .1-.1 0-.1zm.1-3.1s0 .1 0 0c0 .1 0 .1 0 0zm.1-2s-.1 0 0 0l-.1-.1.1.1c-.1.1 0 .1 0 0zm0 5.8l-.1-.1.1.1zm0 2.4c.1-.1.1-.2-.1-.2l.1.2zm0 2.2V30v.2zm0 .4v-.2c0-.1 0-.1-.1 0v.1l.1.1zm.2-2.2l-.1-.3.1.4.1.3-.1-.4zm-.1 2.3c0-.1 0-.1 0 0-.1 0 0 0 0 0zm.1-10.8l-.1-.2.1.2zm0 4.6c0 .1 0 .1 0 0zm0-4.5c0 .1 0 .1 0 0zm.1 13.7v-.2c0-.1 0-.1-.1 0l.1.2c-.1.1-.1.1 0 0zm.1-11.2l-.1-.1.1.1zm.2 1c0-.1 0-.1 0 0zm0 15.4zm0-13.2v.1c.1-.1.1-.1 0-.1zm.4 15.9l-.1-.3.1.3zm0-20v-.2c0-.1 0-.1-.1 0l.1.2zm.5 22l-.2-.9c-.1-.4-.1-.7-.3-.9l.2.9.3.9zm-.4-21.5l.1-.2-.1-.2h-.1l.1.4zm.5 4.9c0-.1 0-.1 0 0s0 .1 0 0zm0-5.4s.1 0 0 0c.1-.1 0-.1 0 0zm0 1.2c0 .1.1.1 0 0 .1 0 0 0 0 0zm.1 21.6l.1-.1-.1.1zm.1-24.3s0-.1 0 0zm.1 24.5l-.1-.1.1.1zm0 .2c0-.1 0-.1 0 0s0 .1 0 0zm.1-24c0-.1 0-.1 0 0s0 .1 0 0zm0 .1v.1c.1 0 .1 0 0-.1.1 0 .1 0 0 0zm.2 2.6l-.1-.2.1.2zm0 .1c-.1.1-.1.1 0 .1v-.1zm.1 21.4zm.2.9l-.2-.3.2.3zm-.1-24.7c0 .1-.1.1 0 0 0 0 0-.1 0 0zm.1 6.2c0-.1 0-.1 0 0s0 .1 0 0zm.1.7c0 .1 0 .1 0 0zm.2-4.2c0 .1.1.1 0 0 .1 0 0 0 0 0zm.2 22.3zm.2-20l-.1-.1.1.1zm.1 17.9l.1.1-.1-.1zm.5-13.5c.1 0 .1 0 0 0-.1-.1-.1 0 0 0zm0-.1v-.2l-.1-.1.1.3zm.1.4l-.1-.2.1.2zm.2-.8l-.1.3.1-.3-.1-.2.1.2zm-.2 16c.1 0 .1 0 0 0 .1-.1.1-.1 0 0zm.3-10.5l-.1-.1v.3l.1-.2zm-.1-1.3c0 .1 0 .1 0 0 .1 0 0 0 0 0zm.3 3.6l-.1-.3.1.3zm.7 7.4c0-.1 0-.1 0 0s0 .1 0 0zM22.9 24l-.1-.2.1.2zm.3-4.1l.1-.1-.1-.1s-.1.1 0 .2c-.1-.1-.1-.1 0 0zm0 0c-.1.1-.1.1 0 0zm0 25c0-.1-.1-.1 0 0-.1 0 0 0 0 0zm.1-25.5l-.1-.1.1.1c-.1 0 0 0 0 0zm0-.3l.2-.8v-1l-.2.9v.9zm0-1.5c0 .1 0 .1 0 0zm.3-2.1c.1-.1 0-.2-.1-.2l.1.2zm.1 1.4l-.1-.1.1.1zm.1-.6v-.5l-.1.5v.5l.1-.5zm.1 4.8l-.1-.1v.1c0 .1.1.1.1 0zm-.1-.2c0 .1 0 .1 0 0s0-.1 0 0zm.1-.5c0 .1 0 .1 0 0s0-.1 0 0zm.1 19c0 .1 0 .1 0 0-.1 0-.1 0 0 0 0 .1 0 .1 0 0zm0-19.3v-.4.2c-.1.1-.1.1 0 .2zm0 22.4c-.1 0 0 0 0 0zm0-22.8l.1-.2-.1-.2v.4zM24 42zm.1-22.8v-.3c.1-.1 0-.2 0-.2l-.1.2.1.3zM24 42l.1-.1H24v.1zm0 .5s.1-.1 0 0c.1 0 .1 0 0 0zm.1-1c0 .1 0 .1 0 0zm0 .3l-.1-.2.1.2zm0-23.1l.1-.6-.1.3v.3zm0-6.5c0 .1 0 .1 0 0 .1-.1.1-.1 0 0zm.1 28.8v-.1.1c-.1.1-.1.1 0 .1V41zm0-23h.1l-.1-.1v.1zm.1-.9l-.1-.2v.1l.1.1zm0 22.3c.1-.1 0-.1 0-.1v.1c-.1.1-.1.2 0 .2v-.2zm0 .5v.1V39.7c-.1.1-.1.1 0 .2zm0 .2c-.1.1-.1.1 0 0 .1 0 .1 0 0 0zm-.1-22.4c.1 0 .1 0 0 0l.1-.2v.1l-.1.1zm0 22.5c.1.1.1.1 0 0 .1-.1.1-.1 0 0zm.1 1.2c0-.1 0-.1 0 0s0 .1 0 0zm.1-24.1l-.1-.1.1.1-.1.1.1-.1zm0 20.2l-.1.8.1.7v-.2.3l.1.2.1-.8.1-.8-.1-.2h-.1l-.1-.1h.2c.1-.1.1-.3 0-.4v-.3c0-.1 0-.1-.1 0 0 .1 0 .1 0 0l-.1-.1-.2.5.2.4zm0 1c.1 0 .1 0 0 0l.1.2h-.1v-.2zm.1-2.3c-.1 0-.1.1 0 0-.1.1 0 .1 0 0l.1-.3v-.3l-.1.3v.3zm0-19.4l.1-.3v-.4l-.1.4v.3zm0 20.2c-.1.1-.1.1 0 0 0-.1 0 0 0 0zm-.1-15.2c0 .1.1.1 0 0 .1-.1 0-.1 0 0zm.1 16.3l.1.3-.1.1c-.1-.2-.1-.3 0-.4zm0-16.9V21v.2c-.1-.1-.1-.1 0 0zm0 16.3c-.1.1-.1.1 0 0l-.1-.2.1.2zm0-.5c0 .1 0 .1 0 0zm0 2.7zm.1.8v.3l-.1.3.1-.2c-.1-.2 0-.3 0-.4zm0-11.3l-.1-.1.1.1-.1.1.1-.1zm-.1 6.4c0 .1 0 0 0 0zm0-14.7c.1 0 .1 0 0-.1v.1zm0 18.4c0 .1 0 .1 0 0v.1-.1zm.3-24.7l-.2.7c-.1.3-.1.6 0 .8l.1-.8.1-.7.2-.6c-.3.1-.3.3-.2.6zm0 25.8v1.2a.2.2 0 01-.2-.2l.1-.3v-.3l.1-.4zm-.2-.2c.1.1.1.1 0 .1-.1.1-.1 0 0-.1zm0-11.4c0-.1 0-.1 0 0zm.1 7.7c-.1-.1-.1-.1-.1 0h.1c-.1 0 0 0 0 0l.1-.4c.1-.1 0-.3 0-.4l-.2.7.1.1c-.1-.1 0-.1 0 0zm-.1 2.9s.1 0 0 0c.1.1 0 .1-.1.1l.1-.1zm0-12.2c0 .1.1.1 0 0 .1 0 0 0 0 0zm.1 4.3c-.1-.1-.1-.1 0 0-.1.1 0 .1 0 .1v-.1l.1-.1-.1-.1v.2zm0 .4zm-.1 4.6c.1 0 0 0 0 0zm.2-1.6v.1c-.1.1-.1.2 0 .2v-.1c.1 0 0 0 0-.1v-.1c.1-.1 0-.1 0 0zm0-.2c-.1 0-.1 0 0 0-.1.1 0 .1 0 0-.1-.1-.1-.1 0 0zm0 .6c-.1 0-.1 0 0 0zm0 2.3c-.1 0-.1.1 0 0-.1.1 0 .1 0 0zm0 3.3l.1.5-.1-.2v-.3zm0-.8l-.1.2v-.5l.1.3zm.1-26.3c-.1 0-.1.1 0 0 0 .1 0 0 0 0zm.2 13.8l-.1.4c-.1.1-.1.2 0 .4v.1c0 .1 0 .1-.1 0 .1.1.1.2-.1.3l.1.1v.1l.1-.1-.1-.1.1-.5.1-.7.1-.2-.1-.2v.4s-.1 0 0 0zm-.2 1.7c-.1.1 0 .1 0 0zm-.1 8.7h.1v-.2h-.1v.2zm0 .9s.1 0 0 0c.1.1 0 .1 0 .1v-.1zm.1-25.2l.1-.6v-.5l-.1.7c0 .1-.1.3 0 .4zm.1 26.7c.1.1 0 .2 0 .2l-.1-.1.1-.1zm0-19.8v-.1h-.1l.1.1zm0 2.1c.1 0 0 0 0-.1-.1.1-.1.1 0 .1zm0 8.8l.1-.2-.1-.2-.1.2.1.2zm0-1.8c0 .1 0 .1 0 0zm.1-9.4v-.2L25 20v.2l.1.1zm0-.7c0-.1 0-.2 0 0-.1.1-.1.1 0 0zm0 7.3l-.1.2.1.1.1-.1.1-.1-.2-.1c.1.1.1.1 0 0l.1-.1h-.1v.1zm0 3.4l.1-.2-.1-.2v.2c-.1.1 0 .1 0 .2zm0-17.8l.1-.2-.1.2zm0 23.8v-.6.6zm0 3.1c.1 0 .1 0 0 0l.1.1v.2l-.1-.1v-.2zm0-27.2l.2-.2-.1-.2-.1.2c.1.1.1.2 0 .2zm.1 6.9c-.1-.1 0-.1 0 0 .1-.1.1-.1 0-.1v.1c-.1 0-.1 0 0 0zm-.1 3.4h.1l-.1-.1c.1 0 .1.1 0 .1zm.1 12.9l-.1-.1v.2c.1.1.1 0 .1-.1zm0 .2c-.1.1-.1.1 0 0zm0-5.9l.1-.2-.1-.2v.2c-.1.1-.1.2 0 .2zm0-8.7c-.1.1-.1.1 0 .1s.1 0 0-.1zm0-12.3v-.1.1zm0 0c0 .1 0 .1 0 0zm0 10v-.1.1l-.1.1c.1.1.1 0 .1-.1zm0 .2c0-.1 0-.1 0 0zm0 16.3l.1.2-.1-.2zm.1-8.6c.1-.1 0-.2 0-.2v.2c-.1 0-.1 0 0 0zm.1-.8l-.2.3v.3l.2-.6.1-.7-.1.7zm-.1-14.4l-.1.4.1-.4.1-.4-.1.4zm0 13.1l-.1-.2.1.2zm0-16.4l.1-.4v-.4c-.2.2-.2.5-.1.8zm0 9.9zm.1 10.3l.1-.4c.1-.2 0-.3 0-.4l-.1.4c-.1.2-.1.3 0 .4zm0-8.1c0 .1 0 .1 0 0zm-.1.1c.1.1.1.1 0 0 .1 0 .1 0 0 0zm.1 3.2v.1l.1.1-.1-.2zm0-9.4c0 .1 0 .1 0 0 .1.1.1 0 0 0zm.1 9v-.2.2l-.1.2.1-.2zm0-17.7l-.1.1v.1l.1.1.1.2.1-.6-.2.1zm-.1 5.4v.2-.2zm0 13l-.1-.2.1.2zm0-6.5c0 .1 0 .1 0 0s0-.1 0 0zm0-10.1l.1-.4v-.5l-.1.5v.4zm.1 9.9l-.1-.1.1.1-.1.1.1-.1zm0-11.7c-.1 0-.1 0 0 0zm0 5c0-.1 0-.1 0 0l-.1.1.1-.1zm-.1.2c.1 0 .1 0 0 0zm.1.2c-.1.1 0 .1 0 0l.1-.2-.1.1v.1zm-.1 20.7c.1 0 .1 0 0 0 .1-.1.1-.1 0 0zm.2 4.9c0 .2-.1.3-.2.3v-.1l.1-.1h.1zm-.1-27.9v-.1.1zm.3 15.2l-.1.7-.1.7.2-.7v-.7l.1-.2-.1.2zm-.3 7.3c0-.1 0-.1 0 0s0 .1 0 0zm0 .3zm0-14.6c0 .1 0 .1 0 0zm0 10.3v.1c.1-.1.1-.1 0-.1zm.1-17.3l.1-.2-.1-.2-.1.2.1.2zm.1 16.7v-.3l-.1.3v.3l.1-.3zm-.1-4c-.1 0 0 0 0 0zm0 7.4c0 .2 0 .2 0 0zm0-10.8c0 .1 0 .1 0 0zm0 2.9c.1.1.1.1 0 0l.1-.2h-.1v.2c0-.1 0 0 0 0zm.1.2c-.1.1-.1.1 0 0-.1.1-.1 0 0 0zm-.1 7.9c.1 0 .1 0 0 0l-.1.1.1-.1zm.1-2v-.1s-.1 0 0 .1c-.1 0-.1 0 0 0zm0-21.2v-.3.3c-.1.2-.1.3 0 .4v-.4zm.1 21.4l-.1.7c-.1.3 0 .5 0 .8l.1-.7v-.8l.1-.2-.1-.1v.3zm0-19.9l-.2.9c.2-.2.2-.5.2-.9l.2-.9a3 3 0 00-.2.9zm0 17.6v-.2l-.1.4.1-.2zm.1.4c-.1 0-.1.1 0 0 0 .1 0 .1 0 0l.1-.1-.1.5-.1.4v-.3l-.1-.2-.1.5v.3l.1-.2v.5l.3-1.8.3-1.8.1-.3c.1-.1 0-.1-.1-.1v.3c0 .2-.1.3-.2.3v.9l-.2.8-.1-.1v-.1l-.1.2.2.3zm.3-7.6l-.2 1-.2 1c0 .1 0 .1 0 0v.4l-.1.4v-.2l-.1.2v-.1l.1.1.2-.9.2-.9-.1.1-.1.1.1-.4h.1l-.1.1h.1l.2-.9.2-.9-.1-.1h.2l.2-1.2.1-1.2.2-.7.1-.7.2-.8v-.7l-.2 1.2-.2 1.2-.2.5v.5l-.1.1v-.1.2c0 .1 0 0 .1 0l-.2 1-.2.5-.1.6.1-.1c0-.1 0-.1.1 0l-.1.1v.1l-.2-.1v.6zm-.4.7c.1-.1.1-.1 0-.1s-.1.1 0 .1zm0-7.4c0-.1 0-.2 0 0-.1 0-.1.1 0 0zm-.1 10c0 .1.1.1 0 0 .1-.1 0-.1 0 0zm.2-12.7V9v.3l-.1.3.1-.3zm0 15.9v-.4c0 .2-.1.3 0 .4l-.1.5.1-.5zm-.1-.5l.1-.2-.1-.1-.1.2.1.1zm0-12.9l.1-.1-.1-.1v.2c0-.1 0-.1 0 0zm0 3.7s0-.1 0 0zm0 3.7c0-.1 0-.1 0 0zm0 2.1l.1-.2-.1-.2v.4zm0 .4c0-.1 0-.1 0 0s0 .1 0 0zm.1-6.8v-.2c-.1.1-.1.2 0 .2-.1.1-.1.1 0 0zm0 9.3c0-.1 0-.1 0 0v.2c-.1-.1-.1-.2 0-.2zm0-15.4zm0 2.2l.1-.2v-.2l-.1.2v.2zm0 12.1l-.1-.1.1.1zm0 1.6l.1-.2-.1-.1v.3zm0-.8v-.1.1zm.1-5.5V18.1v.2c-.1 0-.1 0 0 .1zm-.1-9.8c0 .1.1.1 0 0 .1 0 0 0 0 0zm.1 11.8c-.1 0-.1 0 0 0zm0 4.9l-.1.3v.3l.1-.6zm0-16.8v-.2.2zm0 1.9l-.1.1.1-.1c0-.1 0-.1 0 0zm0 13.1v-.2.2c-.1-.1-.1-.1 0 0zM26.1 8s0-.1 0 0c-.1 0-.1.1 0 0-.1 0-.1 0 0 0zM26 20c.1 0 .1 0 0 0v.2-.2zm.1-13.7l-.1-.1-.1.1.1.2.1-.2zm.1-1.5l-.2-.4.2.4zm-.1 2.1l-.1-.1.1.1c-.1.1 0 0 0 0zm0 16.2c0-.1 0-.1 0 0-.1.1-.1.1 0 0zm-.1.8s.1 0 0 0c.1-.1 0-.1 0 0zm.1-18.2c-.1-.1-.1 0 0 0zm0 16.3l.1-.2v-.1l-.1.1c-.1.1-.1.2 0 .2zm0-16.7zm0 4.5c0 .1 0 .1 0 0s0-.1 0 0zm0 7.6c0 .1 0 .1 0 0zm0 5.4c0-.1 0-.1 0 0zm.1-3.5c0 .1-.1.1 0 0-.1 0 0 0 0 0zm0 4.2v-.2c-.1.1-.1.2 0 .2zm0-18.5v-.1c0-.1 0-.1-.1 0l.1.1zm0 4.4c-.1.1-.1.1 0 0 0-.1 0-.1 0 0zm0 11.2v-.1c.1 0 0 0 0 0l-.1.1h.1zm0-4.3zm.1-11.2v-.8h-.1l.1.4c-.1.2-.1.3 0 .4zm-.1 11.1c.1-.1 0-.1 0 0s0 .1 0 0zm0 2.6c0-.1 0-.1 0 0-.1-.1 0-.1 0-.1.1 0 .1 0 0 .1.1 0 .1 0 0 0zm0 0l-.1.2.1-.2zm0-10l.1-.1-.1-.1c.1.1.1.2 0 .2zm.1 12.4c-.1 0-.1 0 0 0 0-.1 0-.1 0 0zm0-.2c.1-.1.1-.1 0-.1v.1zm0-12.4l.1-.1-.1-.1v.2zm0 9.9s.1 0 0 0v.2-.2zm0 1.6c0 .1 0 .1 0 0s0-.1 0 0zm0-1.7c0 .1 0 .1 0 0s0-.1 0 0zm.1 2s.1 0 0 0c0-.1 0-.1 0 0zm0-13.7l.2-.5h-.1l-.1.3c-.1 0 0 .1 0 .2zm.1-1.8c-.1 0-.1.1 0 0 0 .1 0 .1 0 0-.1 0-.1 0 0 0zm-.1.2c.1.1.1.1 0 0 .1-.1.1-.1 0 0zm.3 17.9c.1-.3.1-.6 0-.8l-.2.8v.7l.2-.7zm-.2-5.6c0-.1 0-.1 0 0-.1.1-.1.1 0 0zm0 1.4c0-.1 0-.1 0 0zm0 1.1v.1-.1zm0-.1c.1-.1.2-.3.1-.5l-.1.3v.2zm.1-.7c.1 0 .1 0 0 0zm.1 2.4l-.1.1.1.1v-.2zm0-16.3c.1-.1.1-.2-.1-.2l.1.2c0-.1 0 0 0 0zM26.6 19c.1 0 .1 0 0 0l.1-.2-.1.1c.1 0 .1 0 0 .1zm.1-14.6c0 .2 0 .2.1.1 0-.1 0-.2-.1-.1zm0 3.3l-.1-.3v.2l.1.1zm0 11l.2-.2-.1-.2-.1.2v.2zm.1 2.8l-.1.6.1.1-.1-.1.1-.2v-.4l.1-.3.1-.4-.2.3v.4zm0-4.3V17v.2c-.1 0-.1 0 0 0zm-.1-10l.1-.1v-.2l-.1.3zm.1 11.2l.1-.2-.1-.2-.1.2.1.2zm0-14.1l.1.2v-.2h-.1zm.1 2.2v-.2l-.1-.1.1.3zm-.1 14.4c0-.1 0-.1 0 0zm.1-2.9v-1.1l-.1.6.1.5zm0-1.7c-.1.2-.1.2 0 0 .1.1.1 0 0 0zm-.1.2c.1.1.1.1 0 0 .1 0 .1 0 0 0zm.1 4v.2c0 .1 0 0 .1 0l.1-.3v-.3l-.1.3-.1.1zm0 0v-.1.1zm.2-15.9c0-.1-.1-.1 0 0l-.1-.1.1.1zm0 12.3l.1-.2-.1-.2-.1-.1v.2l.1.3zm.1-.7V16c0 .1-.1.1 0 .2-.1 0-.1 0 0 0zm-.1.2c0 .1.1.1 0 0 .1 0 0 0 0 0zm0 3.2c0-.1.1-.1 0 0 .1 0 0 0 0 0zm.1-15.5l.1.1-.1.1c-.1-.1-.1-.1 0-.2zm0 11.9l.1-.1-.1.1zm0-1.3c0 .1 0 .1 0 0s0-.1 0 0zm.1-.3c0 .1 0 .1 0 0s0-.1 0 0zm0 1.3c0-.1 0-.1 0 0zm.1-.8l-.1.2.1.2v-.4zm-.1-6.1c0 .1 0 .1 0 0 .1-.1 0-.1 0 0zm.2 3.1l-.1.1.1-.1c-.1 0 0 0 0 0l.1-.1c-.1-.1-.1 0-.1.1zm-.1.3c0 .1 0 .1 0 0l.1-.1-.1.1zm.1 2.4c-.1 0-.1 0 0 0-.1.1 0 .2 0 .2v-.2l.1-.1.1-.1h-.1l-.1.2zm0-6.9c0-.1 0-.1 0 0 0 0 0 .1 0 0zm0 4c.1 0 .1 0 0 0 0-.1 0 0 0 0zm.1-.3c.1-.1.2-.3.1-.5l-.1.3v.2zm0 .1c.1-.1 0-.1 0 0s0 .1 0 0zm0 5.5c0-.1 0-.1 0 0zm0-10.1c.1 0 .1 0 0 0 .1-.1.1-.1 0 0zm.2 9.8c.1.1.1.1.1 0h-.1zm0-.1l.1-.2v-.2l-.1.2c.1 0 .1.1 0 .2zm.1-12.3l.1.1-.1.1c-.1-.1-.1-.2 0-.2zm0 5.3c.1-.1.1-.1 0 0zm0 .3l-.1-.1.1.1zm0 0c0 .1 0 .1 0 0zm0-.2c.1.1.1.1 0 0 .1 0 .1 0 0 0zm.1-.3c.1 0 .1 0 0-.1v.1zm0 6.1c0 .1 0 .1 0 0zM28 9c0 .2.1.2 0 0 .1 0 .1 0 0 0zm.2-.5l.1-.1-.1-.1s-.1.1 0 .2c-.1.2 0 .2 0 0zm0 5.3c.1 0 .1 0 0 0 0 .2 0 .2 0 0zm.2-5.1l-.1.4v.3l.1-.7zm-.2 4.9zm.3.8l.1.3-.1.4.2.1v.3c0 .1-.1.2-.3.2a.6.6 0 01-.1-.7l.2-.6zm-.3-9.2c.1.1.1.1 0 0 .1-.1.1-.1 0 0zm0 2.9v.2-.2c.1 0 .1-.1 0 0 .1-.1 0-.1 0-.1v.1zm.3-1.1v.1l.1.1-.1-.2v-.1l-.1.1s0 .1.1 0zm0 .4l-.1-.1.1.1zm.1 6.4zm.1-6.2c0 .1-.1.1 0 0-.1.1-.1 0 0 0zm0 0c-.1-.1-.1-.1 0 0zm0 5.7c0 .1 0 .1 0 0s0-.1 0 0zm.6-6c0 .1 0 .1 0 0s0-.1 0 0zm8.2 16.6l-.1-.2-.1.1v.1h.2l-.1.2-.1.3c-.1-.1-.1-.1-.1.1 0 .1 0 .2.1.1l-.1.5c0 .1 0 .1 0 0s0-.1.1 0l.1.2v.2l-.2.2-.2.2-.1-.1-.1-.1v.3l-.1.2-.1.3c.1 0 .2-.1.2-.3.1.1.1.1.1 0l.1-.1.9-1.4 1.1-1.2 1.3-1.2c.5-.5 1-.7 1.7-.7.4 0 .8.1 1.1.3l1 .4c.4.3.7.7 1 1.3.3.5.4 1.1.4 1.8v.6l-.2.6c.1.1.1.3 0 .4v.5l-.1.3.2.1c0 .2-.1.3-.2.3l-.1.9-.2.9-.2-1.4c.4-.7.3-1.1.3-1.6h-.1l-.1-.6-.2-.5v.2l.1.2c-.1 0-.1 0 0 0l.1.1c-.1.1-.1.1-.2 0v.2l.1.2c0 .1.1.1.1 0s0 0 .1 0l-.2.1.1.6.1.6h.1v.2l-.1.2.1.1c.1 0 .1 0 0 .1l-.1-.1v1h.1l.1 1.2.2 1.3-.1-.1v-.1c-.1.2 0 .5.1.6l.2.6.2.5.2.5-.1.1.2.3v.3a.2.2 0 01-.2-.2c-.1.3-.1.5.2.6l.7.2c-.2.2-.4.2-.7.2-.7-.1-1.2-.4-1.5-.9l-1.1-1.3-.8-1.9c-.2-.7-.4-1.4-.4-2.2v-.5c-.1-.3-.2-.6-.1-1l-.2-2.2c0-.8-.2-1.4-.5-2l.1.1v-.1c-.1-.1-.2-.1-.2 0l-.1.1v-.2h-.3l-.2.2-.2.2-.1.2.1-.2h.2c.1.1.1.1-.1.2l-.1.2-.1-.1-.1.1-.9.9-.8 1 .2-.2-.2.5-.2.5v-.2l-.1.1v.2l-.2.2-.1.3-.2.7-.3.6h-.1c-.1.3-.1.5.1.7l.1-.1.1-.1v.1l.1.1v-.5c-.1-.2-.1-.3 0-.4l.1.1.1.1v-.4.2l.1.1v-.2h.1l.1-.1.2-.5v-.5l.1.2.2-.4.2-.4.1.2.1.1-.2.3v.2c-.1-.1-.1-.1-.2.1l-.2.2-.1.4-.1.4h-.2l.1.3c-.1-.1-.1-.1-.1 0v.2l-.1-.1-.2.6-.1.5-.1-.1v-.1l-.1.2v.2l-.1.1v.5l-.2.2v-.2l-.1.3H37v.3c.1.1.1.2 0 .4l-.1-.1-.1-.1-.1.7v-.4c-.1 0-.2.1-.1.3.1.2.1.3-.1.4l.1.5v.5l-.1-.1-.1-.1-.1.5.1-.1.1-.1.1.2a2 2 0 00-.5 1c-.1 0-.2.1-.2.3v.3l-.1.1-.1.1-.4 2-.3 2h-.1c0 .5 0 .9-.2 1.2l-.3 1.1h-.2l.2.2-.2.4-.1.5c-.2.2-.3.5-.3.8-.1-.1-.1-.1-.1 0l-.1.2.1.1.1.1-.1.1-.1.1.1.4v.3h-.1l-.1-.1-.1-.1v-.4l-.1.1.1.2.1.1.1.1c.1.1.1.3 0 .4-.1.1 0 .2 0 .4l-.1.1-.1.1-.1-.1-.1-.1-.1.2v.3l-.1-.1-.1-.1-.1.2-.1.2h-.1l-.1.1-.4.5c-.2.1-.3.3-.3.6l-.2.1-.1.2h-.2c-.1.1-.2.2-.4.1h-.5v-.2c-.4-.4-.6-.9-.7-1.6a6 6 0 00-.6-1.9l.1-.2.1-.1a48 48 0 01.1-6.6l.5-6.4c.2-.8.3-1.7.3-2.6 0-.9.2-1.8.4-2.6l.1-.7.2-.7.6-3.3.7-3.1.2-.3.1-.3h.5v-.3c.3-1.4.6-2.8 1.1-4 .4-1.3.9-2.5 1.5-3.6.2-.1.3-.2.3-.4l.3-.2.3-.2.4-.1.4-.1.6.1.6.1c.4.2.7.4.9.8l.6 1 .8.6c.3.2.4.6.4 1.1 0 .5-.1.9-.3 1.2l-.4 1-.5 1.3-.4 1.4-.1.4-.1.5-.4.8-.4.8-.2.7-.2.6.1.2v.2c-.2 0-.3.2-.4.5 0 .1.1.1.1 0s.1-.1.1 0c0 .2-.1.3-.2.3l-.2.5-.2.5.1.2.1-.1.1-.1.1.2-.1.2-.3-.1c.1 0 0 0 0 0zM31 37.3l-.1-.2h-.1v.3l.2-.1zm0 9.1c0 .1.1.1 0 0 .1-.1 0-.1 0 0zm.1.2l-.1-.1.1.1zm3-.4l-.2-.5-.2-.5.1.6.3.4zm-.3-22.7s.1 0 0 0c.1-.1 0-.1 0 0zm.1 21.2v.2l.1.1-.1-.3zm.3 1zm.1-1.3c0 .1 0 .1 0 0s0-.1 0 0zm0 .8l-.1-.2.1.2zm0-.3l-.1-.2.1.2zm.2-1.1c-.1.1-.1.1 0 0 0-.1 0-.1 0 0zm0 .4l.1.1-.1-.1zm.1-.5c.1.1.1.1 0 .1v-.1zm.1.5c0-.1 0-.1 0 0s0 .1 0 0zm0-.8v-.2.2zm0-.6c.1 0 .1.1 0 0v.2-.2zm.2-.1c0 .1 0 0 0 0 0-.1 0-.1 0 0zm.7-4.3l.1.3-.1-.3zm.7-3.2V35l-.1-.1.1.3c-.1-.1-.1 0 0 0zm.2-1.1c0-.1 0-.1 0 0zm.1-.8l-.1-.1v.2l.1-.1c.1.1.1.1 0 0zm0-.1c0 .1 0 .1 0 0zm.1-.3c.1-.1.2-.2.1-.4v.1h-.1v.3zm.4.4l.1.2-.1.3-.1-.3.1-.2zm0-2.4l-.1-.1.1.1-.1.2.1-.2zm0-5.5c0 .1 0 .1 0 0 .1 0 .1 0 0 0zm.1 6.8c.1.1.1.1 0 .2v.3l-.1-.2.1-.3zm0-7.1c.1.1.1.1 0 0 .1-.1.1-.1 0 0zm.2-.7c0 .1 0 .1 0 0-.1 0-.1 0 0 0zm0 5.7l.1.1-.1-.1zm.1 1.3c0 .1-.1.1 0 0-.1-.1 0-.1 0 0zm.2-.6v-.2c-.1.1-.1.2 0 .2zm.5-9.5c-.1.1-.1.1 0 0 0-.1 0-.1 0 0zm.1 5.1v.2c.1-.1.1-.1 0-.2v-.2l-.1.1-.1.2.2-.1zm.1-.2c-.1 0 0 .1 0 0h.1v-.1l-.1-.1-.1-.1v.1l.1.2c0-.1 0-.1 0 0zm-.1 1c.1-.1.1-.1 0 0 0 .1 0 .1 0 0zm.1.5v.3-.3zm.1-2.1v.4l.2-.3c.1-.2.1-.3-.1-.3l-.1.2zm.1 1.1l-.1-.2.1.2zm.2-9.4c0-.1 0-.1 0 0zm.1 8.8l.1-.1.1-.1-.2.2zm.2-.7l-.1.1v.1l.3-.3h-.1l-.1.1zm.1-11.6l-.1-.2c-.1.2 0 .3.1.5v-.3zM39.1 25l.1-.1-.1-.1-.1.1.1.1zm.1 1.6s0 .1 0 0c-.1 0-.1 0 0 0zm0-1.4c0-.1-.1-.1 0 0-.1 0 0 0 0 0zm-.1 1c0-.1.1-.1 0 0 .1.1 0 .1 0 0zm.1-1.6c0 .2 0 .2.1.1l.1-.1.1-.2.1-.2-.2.2c0 .2-.1.2-.2.2zm0 2v-.1c.1 0 .1 0 0 .1.1 0 .1 0 0 0zm.2-14.3l-.1-.1-.1-.1v.2c.1.1.1.1.2 0zm-.1 13.6c0 .1 0 .1 0 0zm.2-.8c0-.1 0-.1 0 0l-.1.1.1.1v-.2zm1-1.9l-.1.1-.1-.1v.1l-.1.1v-.1l-.1.1v.1c-.1 0-.1 0 0 0 .1.1.1 0 0 0h.4l-.1.2-.2.1-.1-.1v-.1l-.1.1-.1.1.1.3-.1.2-.1.2-.2.2-.2.3.1.1.1.1.1-.3.2-.3h.1l.1.1-.3.3.2-.2.2-.2h.1l.3-.5.5-.3.1-.2-.1-.1-.2.1v-.2l-.2.1-.2.1.1-.2c.1-.1 0-.1 0-.2s0 0-.1 0c-.1-.1-.1-.1 0 0zm-1.1 3c0-.1.1-.1 0 0 0 .1 0 .1 0 0zm0-2.2c.1 0 .1 0 0 0 .1-.1.1-.1 0 0zm.1 2.9c-.1 0-.1 0 0 0 0-.1 0-.1 0 0zm.1-.9c0-.1 0-.1 0 0l.1-.1v.2l.1.1c.1.1.1.1-.1.2l-.1.3-.1-.1v-.2l.1-.4zm0-.5c-.1 0-.1 0 0 0zm0-1.7l.1-.1-.1.1c0-.1 0 0 0 0zm.1.5c0-.1 0-.1 0 0l.1-.1h-.1v.1c-.1 0 0 0 0 0zm.3.7s0-.1 0 0l-.2.1-.1.2-.1-.1v-.1.1c.1-.1.1-.1 0-.1l.2-.2.2-.2.1.1-.1.2c.1 0 0 0 0 0zm-.2.7c0 .1 0 .1 0 0-.1.1-.1 0 0 0zm-.1-2.1zm.6 1.7s-.1 0 0 0c-.1.1 0 .2.1.2v.2l-.2.2-.2.3-.1-.1-.1-.1c.1-.1.2-.2.1-.3l.2-.2.2-.2zm-.5.4zm0-2.2l.1-.1c0-.1 0-.1-.1 0v.1zm.4 1.8l-.1.2-.1.2c-.2-.3-.1-.4.2-.4zm-.3-1.1zm0 .9l.1-.1c.1.1 0 .2-.1.1zm.1 0c-.1-.1 0-.1 0-.1v.1zm.1-1s-.1.1 0 0c-.1 0-.1 0 0 0zm0-.4l.1.1-.1.1c-.1-.1 0-.2 0-.2zm0 .2c0 .1.1.1 0 0 .1.1.1.1 0 0 0 .1 0 .1 0 0 0 .1 0 0 0 0zm.4.5l-.1.2-.2.2H40l.2-.2.1-.2c.1.1.1.1.2 0zm-.4 1.2l.1-.1-.1.1c0-.1 0-.1 0 0zm.1-1.3c-.1-.1-.1-.1 0-.1v.1zm0 1c0-.3.1-.4.3-.3l-.1.2-.2.1zm.1 0c-.1-.1-.1-.1 0 0zm.1.1s-.1 0 0 0c-.1 0-.1 0 0 0zm0-.5c0-.1 0-.1 0 0zm0 .2c0 .1 0 .1 0 0s0-.1 0 0zm.1.1l-.1.1.1-.1c-.1 0-.1 0 0 0zm.1-1.7l-.1.3v-.1l.1-.2zm-.1 1.1c0 .1 0 .1 0 0-.1.1-.1 0 0 0zm0-1.7s0 .1 0 0c0 .1 0 0 0 0zm0 2.1c0-.1 0-.1 0 0s0 .1 0 0zm.1-.3l-.1.1v-.1c.1.1.1 0 .1 0zm0 .2c-.1.1-.1.1 0 0 0-.1 0-.1 0 0zm0-.2c0-.1 0-.1 0 0l.1-.1.1.1h-.2zm.3-1.9c-.1.2-.2.2-.3.2v.2l.1-.1.1.1V23l.2-.1c0-.1.1-.1.2 0v-.2l-.2.1c0 .1 0 0-.1 0 0-.1 0-.1 0 0-.1 0 0 0 0 0zm-.2 0h.1-.1zm0 .7zm0 1.7c0-.1 0-.1 0 0zm0-1.1zm.1.9c-.1-.1-.1-.1 0-.1s.1-.1 0-.1l.2-.2h.2l-.4.4zm0-.5v-.2c.1.1.1.1 0 .2zm.1-1.3l.1-.1-.1-.1c.1.1 0 .1 0 .2zm.2.9l.1.1-.1-.1v.1c0 .1 0 .1-.1 0l.1-.1zm-.1.2c0-.1 0-.1 0 0s0 .1 0 0zm.1-1.8l-.1.1.1.1c.1 0 .1-.1 0-.2zm-.1.8c.1.1.1.1 0 0 .1-.1.1-.1 0 0zm.1.6c0 .1 0 .1 0 0zm0-1.4c0 .2.1.2 0 0 .1 0 .1-.1 0 0zm.1 1.5s.1 0 0 0c.1 0 .1 0 0 0 .1 0 0 0 0 0zm.2-1.5l.1-.2h-.1l-.1-.1.1.3zm-.1.3h.2v-.2c0 .1-.1.1-.1 0l-.1-.1v.3zm.4 1.3c.1 0 .1 0 0 0v.2c-.1-.1-.1-.1-.2.1l-.2.2.4-.5zm-.4.5s.1 0 0 0c.1.1 0 .1 0 0zm.6-1.2v-.2l-.2-.1-.3-.1.2.2.3.2zm-.4-1h.1l-.1-.2v.2zm.3.4h.2l-.2-.3-.1.1.1.2zm.1.9l.1.1.1.1-.1-.1-.1-.1-.1-.2.1.2zm-.1.5c0 .1 0 .1 0 0zm.2-1.1l-.1-.2.1.2zm.1.8l-.1-.2v.2l.2.1-.1-.1zm.1.5l-.1-.2.1.2zm.1-.3c0-.1 0-.1 0 0zm-.1 1c.1.1.1.1.1 0s0-.1-.1 0zm.1.2v.2l.1.1v-.2l-.1-.1c0-.1 0-.1 0 0zm.1-1.4c0-.1 0 0 0 0 .1.1.1 0 0 0zm.3.6l-.1-.2.1.2c-.1 0-.1 0 0 0zm0 .1zm0-.4c0 .1 0 .1 0 0zm.1.8c0-.1-.1-.1 0 0-.1 0 0 0 0 0zm.1 1c-.1.1-.1.1 0 0-.1-.1 0-.1 0 0zm.1 1.1V27v.1zm.1-2.3l-.1-.4.1.4zm0-.4c.1 0 .1 0 0 0-.1.1-.1.1 0 0zm0 3.2c0 .1 0 .1 0 0 0 0 0-.1 0 0zm.1-2.4l-.1-.1.1.1zm-.1 2.6v.1c.1-.1.1-.2 0-.1zm.1-1.1v-.2c-.1.2-.1.2 0 .2zm-.1 1.5c.1 0 .1 0 0 0 0 .1 0 .1 0 0zm.1-2.9v-.1c-.1 0-.1.1 0 .1zm-.1-1.5l.2.3v-.2.1l.1-.1-.1-.2v.1l-.1-.1v.2h-.1zm.1 2.7c0 .1 0 .1 0 0zm0 .5c-.1.1-.1.1 0 0 0-.1 0-.1 0 0zm0-1.6c0 .1 0 .1 0 0zm0 1.4c0 .1 0 .1 0 0zm.1 2.6l-.1-.5-.1-.5.2 1zm0-6.5l-.1-.2-.1.2c.2.1.2.1.2 0zm0 .9zm-.1 2.3c0 .1 0 .1 0 0 .1-.1.1-.1 0 0zm.1-1.7c0 .1 0 .1 0 0 .1.1.1.1 0 0-.1 0 0 0 0 0zm0 .6c.1 0 .1 0 0 0v-.1c-.1-.1 0 0 0 .1zm0 1.4c.1-.1.1-.2-.1-.3l.1.3zm.1 3.2c.1 0 0-.1 0-.1-.1 0-.1.1 0 .1zm0-5.4v-.1c0-.1 0 0-.1 0l.1.1c-.1.1 0 .1 0 0zm.1.9v-.4c0 .1-.1.1-.1 0l-.1-.1.1.2.1.3zm-.1.1l-.1-.2.1.2zm0 1.6V26.5h-.1l.1.3zm.1.6s0-.1 0 0c-.1-.1-.1-.1 0 0-.1 0-.1 0 0 0-.1 0-.1 0 0 0zm0-.3v-.2l-.1-.1.1.3zm-.1-2.8c.1.1.1.1 0 0 .1 0 .1 0 0 0zm.1 5.9c0-.1 0-.1 0 0s0 .1 0 0zm0-2.7c.1 0 .1 0 0 0 .1-.1.1-.1 0 0 0-.1 0 0 0 0zm0-5.3c0 .1 0 .1 0 0s0-.1 0 0zm.3 2.4l-.1-.1-.1-.4-.1-.3.1.4c0 .3 0 .4.2.4 0 .1 0 0 0 0zm-.3 1.9c.1-.1.1-.2 0 0 0 .1 0 .1 0 0zm.1 2.5l-.1-.1-.1.1h.2zm-.1-1.3c0 .1 0 .1 0 0 .1-.1.1-.1 0 0zm.1-2.2c0-.1 0-.1 0 0zm.2 4.6v-.5l-.2-.5v.5l.2.5zm-.2-7.8c0 .1 0 .1 0 0 .1-.1.1-.1 0 0zm.1.9l-.1.1h.2l-.1-.1c.1 0 0 0 0 0l.1-.1-.1-.1c.1.1.1.1 0 .2.1-.1.1 0 0 0zm-.1 2.7l.1.1.1.1c0-.2-.1-.2-.2-.2zm.1-2.9l-.1-.2.1.2zm0 4.7c0 .1 0 .1 0 0 .1-.1.1-.1 0 0zm0 .5zm.1-3.2v-.2h-.1l.1.2zm0-1.3l.1-.1c-.1.1-.1.1 0 .2.1 0 .1.1 0 .2l-.1-.1c.1-.1.1-.1 0-.2l.1.2.1.2.1-.1-.1-.3-.1-.3v.1h-.1v.2zm0 4c.1-.1.1-.1 0 0 0-.1 0 0 0 0zm.1-2.4l-.1-.3.1.3zm-.1 3.4c0 .1 0 .1 0 0s0-.1 0 0zm.1.5v-.3l-.1-.1.1.2c-.1.1 0 .2 0 .2zm-.1-1.4h.1c.1-.1 0-.1-.1 0zm.1-5.2c0 .1 0 .1 0 0 .1 0 0 0 0 0zm0 2.7c0 .2 0 .2 0 0 .1 0 .1 0 0 0zm0 .2c.1.1.1.1.1 0s0-.1-.1 0zm.5-1.2l.1.3-.1-.7v-.3l-.1-.1-.3-.5.1.2c.1.1.1.1 0 .2l.2.1c0 .1 0 .1.1 0v.3l.1.1-.1.4zm-.3 2.1c.1-.1.1-.1 0 0 0-.1 0-.1 0 0l-.1-.7v.3l.1.4zm-.1-2.2c0 .1.1.1 0 0 .1 0 0 0 0 0zm.2 5c-.1-.1-.1-.1 0 0l-.1-.2-.1.1.2.1zm0-2.3s.1 0 0 0l.1-.1-.1-.2v.1s.1.1 0 .2c0-.1 0 0 0 0zm0-2.7c0 .1.1.1 0 0 .1 0 0 0 0 0zm.1.7s.1 0 0 0c.1-.1 0-.2 0-.2v.1c-.1 0-.1 0 0 .1zm0 4.5c0-.1-.1-.1 0 0-.1.1 0 .1 0 0zm0-4l-.1-.1.1.1s0 .1 0 0zm0 .3c0 .1 0 .1 0 0s0-.1 0 0zm.1 1.4l-.1-.3.2.6-.1-.3zm0-1.9l-.1-.2.1.2zm0-.7v.2c.1-.1.1-.2 0-.2zm0 .3c0 .1 0 .1 0 0s0-.1 0 0zm.1 3.5v-.2l-.1-.2v.2l.1.2zm0-2.7c0-.1 0-.1 0 0s0 .1 0 0zm0 .1c-.1 0-.1.1 0 0 0 .1 0 .1 0 0zm0 3.5c0 .1 0 .1 0 0 .1-.1.1-.1 0 0zm.1-3.9l.1.2v.3h.2l-.1-.5-.2-.5v.5zm0 .9l.1-.2-.1-.2v.4zm.1 1.6l.1-.2-.1-.3-.1-.3-.1-.2-.1-.3.1.6c.2.2.2.4.2.7zm-.1 1.1l-.1-.5.2 1.2-.1-.7zm.1-2.5l-.1-.2c0 .2 0 .3.1.2zm0-2.4c0-.1 0-.1 0 0zm0 5.8l-.1-.2.1.2zm.1-1.8l.1-.2h-.1c-.1.2-.1.2 0 .2zm0 0v.1l.1.1-.1-.2zm0-1.6c0 .1-.1 0 0 0s.1 0 0 0zm0 .7c.1-.1.1-.1.1 0l-.1.2-.1-.1c.2 0 .2-.1.1-.1zm.1.4c0-.1 0-.1 0 0s0 .1 0 0zm0 .2c0-.1 0-.1 0 0zm0 .9c0 .1 0 .1 0 0s0-.1 0 0zm.1-.5v-.2.2zm0 .8c.1-.1.1-.1 0 0 .1 0 .1 0 0 0zm0 .1l.1.1H45V29zm.1.5l-.1-.2.1.2zm.2.3c0 .1 0 .1 0 0s0-.1 0 0zm.1 2.3c0 .1 0 .1 0 0zm.3 2.9s.1 0 0 0c.1-.1 0-.2 0-.2v.2zm.1-.2l-.1-.2.1.2c-.1.1 0 .1 0 0zm.5-.2l.1.1-.1-.1zM59.6 20c0-.1-.1-.1 0 0-.1 0 0 0 0 0l-.1.1.2.3h-.1v.1l.2.2.1.3-.1-.1h-.1l.1.1.1.1c-.1-.1-.1-.1-.1 0v.1l-.1-.1v.2l-.1.1.1.1.1.1v.3l.1.4.1-.2v.3l-.1-.1v.2l-.1.1.1.2-.1-.1-.1.8-.1-.1v.1c.1.1 0 .1 0 .2v-.2l-.1.1.1.1c.1.1.1.2-.1.1v.3l-.1.4v.1-.1l.1-.1v.3l-.1-.1v.1l.1.1-.1.1c-.1 0 0 .1 0 .1-.1 0-.2.1-.1.2h-.1v-.1l-.1.2.1.2-.1.1-.1.2-.1.2-.1.3-.1.1.2-.4.1.1c-.2.1-.2.3-.2.5 0 .3 0 .5-.2.6v-.4l-.2.7.2.1-.2.6-.4.5c.1 0 .1.1 0 .2h-.1l-.1.4-.2.3-.2.3-.1.5c-.2.2-.5.5-.6.8l-.8.9c-.3.3-.6.6-1 .7l-.4.3-.5.2-.5.2-.2.5-.2 1.1v1.1l-.1.1.3.4-.1.1-.1.1.2.6.2.6.1-.1.2.2v.3c.2.5.4.7.6.9.7-.1 1.2-.4 1.6-.8l1.2-1.2.7-1 .7-1 1.1-1.7c.3-.6.7-1.2 1.2-1.7l.8-1.5.8-1.5-.3.6-.2.7v.3l-.1.3-.1.3.1.1v.3l-.1.3-.1.3h.1l-.1.1-.1.2-.1.2.1.1.1-.1v.1l-.1.2h-.1c0-.1 0-.1-.1 0l-.1.1.1.1-.1.1v-.1l-.1.1.1.1-.1.1V33l-.1.1.1.1v.4l-.1-.1-.1.1-.1.1v-.1h.1v.2-.1h.1l-.1.2-.1.2h-.1V34h.2l-.1.1h-.1l-.1-.1.1.1v.2l-.1.1.2-.2h.1l-.1.4-.1.4c0-.1-.1-.1-.1 0v.2l-.2.2-.1.3-.1.1-.1.1v.1h.2l-.1.2.1.1c-.1.1-.1.1-.1 0l-.1-.1-.1.1-.1.1.1.1-.1.1-.1.1v-.1l-.1.2-.1.2v-.2c-.1 0-.1.1 0 .1s.1.1 0 .1l-.1.1c-.1 0-.1.1 0 .1l-.1.1-.1.2-.1.2-.1-.1.1.1-.1.1v.1H59l.1.2-.1-.1-.1.2h-.2l-.1.3-.1.2-.1.1-.1.1.1.2-.1.2-.2.2H58l-.1.1-.1-.1.1.1-.2.2-.1.2-.1-.1.1-.1-.2.2-.1-.2-.1.2v.2l-.1.1v.1l-.1.1v-.2c-.1-.1-.1-.1 0-.2l-.2.1.1.2v-.2l.1.2-.1.1-.1.1-.1-.2.1-.1c-.1-.1-.1-.1-.2 0l-.1.2h-.1c0 .1.1 0 .1 0l.1.1.1-.1.1.2h-.1l-.3.3-.4.2-.7.5h.1c.1 0 .1 0 0-.1-.2 0-.3.1-.5.3l-.2.1h-.1v-.1l-.1.1-.1.1h-.6v.1l.1.1-.1.1-.1.1v-.2h-.6l.1.1-.6.1-.5.1h-.2l-.2-.1c-.3 0-.5-.1-.5-.2l-1-.5-.8-.9-.5-.9-.5-1v-.2l-.1-.2-.2-.7v-.2l-.2-1v-1l.1-.8.1-.4-.1-.5v-.5l-.1.1c0 .1 0 0-.1 0l-.1.5-.1 1.1.1 1.1.4 2 .7 1.8c-.5-.9-.9-2-1.2-3.2a9.7 9.7 0 01-.2-3.8 33 33 0 011.5-6.2 15.2 15.2 0 013.2-5.5l.5-.5.9-.9a2 2 0 011.1-.6l.2-.2.2-.1.1-.3.2-.1.3-.1.2-.2.4-.1.3-.1c.2.1.5.2.7.1.2-.1.4 0 .6.1.4-.1.8.1.9.4l.5.9h.1l.3.3zM48 33l-.1.1.1.1v-.1c.1.1.1.1.1 0l.1-.1-.2-.3v.3c.1 0 .1.1 0 .1V33zm-.1 1.9l.1.2-.1-.2zm0 .8c0 .2 0 .2 0 0zm.3-3.3l-.1-.2.1.2c-.1 0-.1 0 0 0zm0 2.6v-.2l-.2.1.2.1zm.9 5.1L49 40l.1.1zm0 0s.1.1 0 0c0 .1 0 .1 0 0zm.1.1zm.1.2zm0 .1l.8.7.9.6a2 2 0 01-.9-.5l-.8-.8zm1.6 1.3l.1.1v.1l-.1-.2zm.1.1c.1-.1.1-.1 0 0zm1.1-9.3c0-.1 0-.1 0 0zm1.6 6.8c0-.1 0-.1-.1 0 .1.1.1.1.1 0zm.2 2.6zm2.7-19l-.6.9-.3.6a2 2 0 01-.4.6l-.3.8-.1.4-.2.3-.2.6-.3.5c.1 0 .2 0 .3-.2l.3-.3c.1-.3.3-.7.6-.9l1.2-2c.4-.7.7-1.4.9-2.3h-.2l-.7 1zm-2.3-1c.1.1.1.1 0 0 .1-.1.1-.1 0 0zm.4 1.8c0-.1-.1-.1 0 0-.1.1 0 .1 0 0zm0-.1l.1-.1v-.1.1l-.1.1zm.2-.4c.1.1.1.1 0 0 .1-.1.1-.1 0 0zm.3 18.1c.1 0 .1 0 0 0s0-.1 0 0zm.1-19c.1-.1.1-.1 0 0zm.2-.3c.1 0 .1 0 0 0 0-.1 0 0 0 0zm0 18.9s0 .1 0 0h.2l-.1-.1-.1.1zm.4-21.3c0 .1 0 .1 0 0 .1-.1.1-.1 0 0zm.2 21.1l.1-.2-.3.2c.1.1.1.1.2 0zm0-19.6c0 .1 0 0 0 0 .1-.1 0-.2 0-.2v.2c-.1 0-.1 0 0 0zm.2-1.7l-.1.1-.1.1.1.1v-.1l.1-.2c0 .1.1 0 0 0 0-.1 0-.1 0 0 0-.1 0-.1 0 0-.1 0-.1 0 0 0zm.8 1.7c.1-.1.1-.1 0 0zm.2 4.5c0 .1.1.1 0 0 .1-.1 0-.1 0 0zm.1-.2c.1 0 .1 0 0 0 .1-.1.1-.1 0 0zm.2-.3l-.1.1-.1.1.1.1v-.1l.1-.2.1-.1-.1.1c0-.1 0-.1 0 0zm-.1 14.5c.1 0 .1 0 0 0 0 .1 0 .1 0 0zm0 .3zm.3-15.3v.1l-.1.1v.1l-.1.1.1-.1v-.1l.1-.1v-.1c.1 0 .1 0 0 0 0-.1 0-.1 0 0zm-.1 15.2c0-.1 0-.1 0 0s0 .1 0 0zm0-.2c.1 0 .1 0 0 0l.1.1-.1-.1.1.1-.1-.1zm.2 0h-.1.1zm.1-15.6v.2l-.1.1v.2c-.1 0-.1 0 0 .1.1 0 .1 0 0-.1l.1-.2.1-.1v-.1l-.1-.1c.1-.1.1-.1 0 0 0-.1 0-.1 0 0zm-.1 4.2l.1.3v-.2l.1-.2-.2.1zm.1 10.8s-.1 0 0 0l-.1.1.1-.1c.1 0 .1 0 0 0 0-.1 0-.1 0 0zm.4-.6h-.1v.2l.1-.2zm-.1-12.8c0 .1.1.1 0 0 .1-.1 0-.1 0 0zm.1 2l-.1-.2.1.4v-.2zm.1 11.1l-.1.2.1-.2zm0-.4l-.1-.1.1.1zm0 .3c0-.1-.1-.1 0 0-.1.1 0 .1 0 0zm0-17c0 .1 0 .1 0 0zm0 16.7l.1-.1-.1-.1v.2zm.1.1c-.1.1-.1.1 0 0zm0-17.1c.1.1.1.1.1 0s-.1-.1-.1 0zm0 2.7c0 .1 0 .1 0 0zm0 3.6c0-.1 0-.1 0 0 0-.1 0 0 0 0zm.1-.8s0-.1 0 0l-.1-.1.1.1zm0-3.1c0 .1 0 .1 0 0s0-.1 0 0zm0 .8c0 .1 0 .1 0 0zm0 1.3c0 .1 0 .1 0 0 .1 0 0 0 0 0zm0 12.3c.1 0 .1 0 0 0l.2-.2.1.1V38l.1-.2.1-.2.1.1-.2-.2-.2.3-.2.4zm.1-12.4c-.1.1-.1.1 0 0 0-.1 0-.1 0 0zm0-2.5c0 .1 0 .1 0 0zm0 1.1c0 .1 0 .2 0 0zm0 .2c0 .1 0 .1 0 0s0-.1 0 0zm.1 1l-.1.1h.1c-.1 0-.1-.1 0-.1l.1-.2c.1-.1 0-.1 0-.2l-.1.2c-.1 0-.1.1 0 .2zm-.1 13.1c0 .1 0 .1 0 0s0-.1 0 0zm0-.1c.1 0 .1 0 0 0 0 .1 0 .1 0 0zm0-15.4c.1.1.1.1 0 0l.1-.1-.1.1zm0 .9c.1 0 .1 0 0 0zm.1-2.8c0-.1 0-.1 0 0zm0 5l-.1.1.1-.1zm0-4.3c0 .1 0 .1 0 0zm0 .4c.1.1.1 0 0 0l.1-.2-.1.2zm.1-.2c0-.1 0-.1 0 0zm0 .5l-.1-.1.1.1zm0 1.4c0-.1 0-.1 0 0-.1 0-.1 0 0 0zm-.1 2.2l.1-.1-.1.1zm.1 12c0-.1 0-.1 0 0zm0-14.8l-.1.2.1.1.1-.1-.1-.2zm.1 1.6c0-.1 0-.1 0 0l-.1.1.1.1v-.2zm0 .7l-.1.2v-.1l.1-.1zm.1-1.2l-.1.3.1-.1v-.2l.1-.2.1-.2.1.1c-.1-.1-.1-.1-.2 0l-.1.3zm-.1 1.2c-.1-.1 0-.1 0 0 .1-.1.1 0 0 0zm0-4.5l.1.1-.1-.1zm.1 16.7c.1.1.1.1 0 .1l-.1.1c-.1-.1-.1-.1 0-.2.1.1.1 0 .1 0zm-.1-15.8c.1 0 .1 0 0 0 0-.1 0-.1 0 0zm0 .6c0 .1 0 .1 0 0zm0 .1c0 .1 0 .1 0 0zm.1.3l-.1-.1.1.1zm-.1 14.3zm.1-14.6c0 .1-.1.1 0 0 0-.1 0-.1 0 0zm0-.4zm0 .3zm0 14.4c0 .1 0 .1 0 0zm.1-17.2c0-.1 0-.1 0 0zm.2 1.2v-.1.1l-.1-.1-.1.1.1.1.1.1v-.2zm-.2 1.2c0-.1 0-.1 0 0zm0 15.5c0 .1 0 .1 0 0zm0-.7c.1.1.1 0 0 0l.1-.1.1-.1c-.1 0-.2 0-.2.2zm0-14.1c0 .1 0 .2 0 0zm.1.5l-.1.5c.1-.1.2-.3.1-.5l.1-.6h.1l.1-.6-.1-.5.1.5-.1.5-.2.7zm-.1-.6c.1.1.1.1 0 0 .1-.1.1-.1 0 0zm0 .2v.1-.1zm.1 1.6v.2l-.1-.1h.1v-.1zm0 12.1s-.1 0 0 0c-.1.1 0 .1 0 0 .1 0 .1 0 0 0 0-.1 0 0 0 0zm0 .8l-.1.2v-.1l.1-.1zm0-17.5c.1-.1.1-.1-.1-.2l.1.2zm0 4.3c0 .1 0 .1 0 0s0-.1 0 0zm0 12.8c0 .1 0 .1 0 0s0-.1 0 0zm.1-.6c0 .1 0 .1 0 0l.1-.1-.1.1c-.1 0-.1 0 0 0zm0 .9c0 .1 0 .1 0 0-.1.1 0 0 0 0zm0-13s0 .1 0 0zm0 13zm0-.5zm0-.1l.1-.1v-.1c.1.1 0 .1-.1.2.1-.1 0-.1 0 0zm.2.1c-.1.1-.1.1 0 0zm0-15.2c0 .1 0 .1 0 0 .1.1.1 0 0 0s-.1 0 0 0zm0-1.2c0-.1 0-.1 0 0s0 .1 0 0zm0 1.1s0-.1 0 0zm0 14.7zm0 .3c0-.1 0-.1 0 0zm.1-13.6c0 .1 0 .1 0 0-.1 0-.1 0 0 0zm0-3v.1c-.1 0-.1-.1 0-.1zm-.1 2.6l.1.2-.1-.1v-.1zm.1.4c-.1-.1-.1-.1 0 0zm0-.5c-.1 0-.1 0 0 0 0-.1 0 0 0 0zm.1-1.3l-.1-.2.1.2zm-.1 1.3c0 .1 0 .1 0 0zm0-.3l.1.2v-.1l-.1-.1zm0 13.8c.1.1.1.1 0 0v.2c.1.1.2 0 .1-.1l-.1-.1zm0 .8c0-.1.1-.1 0 0 .1 0 0 0 0 0zm.1-.2c0-.1 0-.1 0 0-.1.1-.1.1 0 0zm0-.6c.1.1.1.1 0 0l.1-.1-.1-.1v.2zm.1.7s0 .1 0 0c-.1 0-.1 0 0 0zm0-1c0 .1 0 .1 0 0l.1-.2-.1.2zm0 1l.1-.2-.1.2zM60 20c.1-.1.1-.1 0 0 .1 0 .1 0 0 0zm0 16.6c.1 0 .1 0 0 0zm.1-1.9s-.1 0 0 0c0 .1 0 .1 0 0zm0-14.7h.2l.1.2-.1-.1-.2-.1zm.1 14.5c0 .1 0 .1 0 0zm-.1 1.5zm0 .1c.1-.1.1-.1 0 0 .1.1.1.1 0 0zm.1-.6c-.1.1-.1.1 0 0 .1 0 0 0 0 0zm0 .7zm.1-.8c0-.1 0-.1 0 0s0 .1 0 0zm0-1.1c0 .1 0 0 0 0s-.1 0 0 0zm0 1.4zm.1-.7s0-.1 0 0c-.1 0-.1 0 0 0zm-.1.3c.1 0 .1 0 0 0 .1-.1.1-.1 0 0zm0 .4c.1 0 .1 0 0 0 .1.1.1.1 0 0zm.1-.1c.1.1.1.1 0 0zm.1-.6c-.1.1 0 .1 0 0zm-.1.6l.1-.2-.1.2zm.1-.3c.1 0 .1 0 0 0l.1.2-.1-.2c0 .1 0 0 0 0zm0 .5c0-.1 0-.1 0 0zm0-.2c.1 0 .1 0 0 0 0 .1 0 .1 0 0zm.1-1.1l.1-.1-.1.1c-.1 0 0 0 0 0zm0 .2c0-.1-.1-.1 0 0 0 .1 0 .1 0 0zm0 .5c.1-.1.1-.1 0 0zm.1-.7s-.1 0 0 0c0 .1 0 .1 0 0zm0 .8c0 .1-.1.1 0 0 0-.1 0-.1 0 0zm0-.1c-.1-.1-.1-.1 0-.1.1-.1.1-.1 0 .1zm.1-.3c.1.1 0 .1-.1.1l.1-.1zm.1-1l-.1.1.1-.1zm-.1.9l-.1-.1.1.1zm0-1.6c.1 0 .1 0 0 0 .1-.1.1-.1 0 0zm.3.7c.1 0 .1.1 0 .2l-.2.2.2-.4v.1-.1zm0 0c-.1 0-.1-.1 0 0 0-.1 0-.1 0 0zm0 .3c0 .1 0 .1 0 0s0-.1 0 0zm.2-.6c0 .1 0 .1 0 0-.1-.1 0-.1 0 0zm0-.4c0-.1 0-.1.1 0v.1l-.1-.1zm.1.1c0 .1 0 .1 0 0zm0-.5l.1-.1-.1.1zm.2-.6v.1l-.1.1-.1-.1.2-.1zm-.1.6zm.1-.1c.1-.1.1-.1 0 0 .1 0 .1 0 0 0zm.1-1.1c-.1.1-.1.1 0 0 0 0 0-.1 0 0zm0 .4s0-.1 0 0c.1 0 .1 0 0 0zm0-.6c.1 0 .1 0 0 0 .1-.1 0-.1 0 0zm0 .5c.1-.1.1-.1 0 0 .1 0 .1 0 0 0zm.1-1c0 .1 0 .1 0 0zm0 .4c0 .1 0 .1 0 0s0-.1 0 0zm0 .4c0 .1 0 .1 0 0zm0-.2c.1 0 .1 0 0 0 0 .1 0 .1 0 0zm.1-.3c0-.1 0-.1 0 0 .1-.1.1 0 0 0zm.6-1.9c0-.1 0-.1 0 0 .1 0 .1 0 0 0zm.1-.2s0-.1 0 0c.1 0 .1 0 0 0zm.1-.1c0-.1 0-.1 0 0z"/>
	  <path d="M73.2 22.6c.1 0 .1 0 0 0 .1 0 .1 0 0 0l.2-.1c.1 0 .1-.1 0-.1s0 0 0-.1l.1.1.2-.2.3-.2h.1l-.1-.1c.1-.1.2-.1.2 0l.1-.1.1-.1c0 .2 0 .3-.2.3l-.2.2c-.1-.1-.1 0-.2.1-.1.2-.2.2-.3.1v.1c.1 0 0 0 0 .1l.2-.1.2-.1-.2.3-.3.2c-.2.3-.4.5-.7.6l-.4.4-.4.4-.4.4-.3.4c-.2.1-.4.3-.4.5-.2 0-.3.1-.3.3 0 .1-.1.2-.3.2l.1-.2-.1-.2-.1.1-.2.1v.3c-.1-.1-.1-.1-.1 0l-.2.1-.1.2-.2-.1-.1.2-.1.2-.1.1h-.1l-.2.8-.2.8c-.2.2-.3.5-.3.9l-.2.2v.4l-.2.3v.6l.7-1.8c0 .4-.1.7-.3 1l-.3 1v.1l-.1.1c-.1 0-.1 0 0-.1l-.2.7c0 .3-.1.5-.3.5l-.2.7v.3l-.3 1.1a2 2 0 00-.3 1l-.3 1.1-.5.9h-.2l-.8.6c-.1-.1-.2-.1-.2 0s0 .1-.1 0l-.1.2h-.1v.1l-.8.1a1 1 0 00-.6.2c-.4-.5-.7-1.1-.8-1.9-.2-.7-.3-1.5-.3-2.3V32l.1-2.4.1-.2.1-1.3.1-1.2.3-1.8.4-1.7V23l.1-.2.1-.2v-.5l-.1-.5.3-.8.3-.8h.2c.2-1.1.6-2.1 1.1-3l.2-.1.2-.1.1-.2.6-.1.5-.1.3.1.4.1.2.1c.3.2.5.5.6.9l.4 1.1.4.8.3.8c.1.6 0 1.1-.2 1.6l-.4 1.5.2-.2.2-.2.6-.5.2-.2.3-.2.2-.2.8-.6c.2-.2.5-.4.9-.5l1.1-.7a5 5 0 011.3-.4c.4-.1.8 0 1.2.2.3.2.6.5.7 1v1.6c0 .1-.1.1-.1 0v-.1l-.1-.5-.2-.4-.1-.1-.2-.1h-.2l-.1-.1h-.2l-.2-.1c-.1.1 0 .2.1.2l-.2.2-.2.1.1-.2-.1-.2-.3.2-.3.1-.1.2-.3.1c-.1.1-.2.2-.3.1l-.5.4-.4.5 1-.2zm-10.4 5.7l.2-.1-.1-.2-.1.2c-.1 0-.1 0 0 .1zm.5-2.6c0 .1.1.1 0 0 .1-.1.1-.1.2 0l.1-.3v-.3l-.1.3-.2.3zm1.3-2.9v.1s.1 0 0 .1l.2-.2.1-.4-.1-.1-.1-.1.1.3-.2.3zm.1-.2l.1.1h-.1v-.1zm.4-1v-.2l-.2-.1-.1.2.3.1zm2.8 10.8c0 .2 0 .2 0 0zm.5-2.8c0 .2.1.2 0 0 .1 0 .1 0 0 0zm.5-2.4l-.2.5-.1.5.3-.5c.1-.2.2-.3.1-.5-.1.1-.1.1-.1 0zm.1 1.9v.1-.1zm.1-.4v.1l.1.1-.2.2v-.2l.1-.2zm0-1c.1-.1.1-.1 0 0 .1.1.1.1 0 0zm.1.9c-.1-.1-.1-.1 0 0 0-.1 0 0 0 0zm.1-.4c.1 0 .1.1 0 0l-.1.1.1-.1c.1.1.1.1 0 0zm0-1.6c0 .1 0 .1 0 0zm.1 1.3zm0 0c.1 0 .1 0 0 0zm.2-.2v.1c0 .1 0 .1-.1 0l.1-.1c-.1.1-.1.1 0 0zm-.1-1.2h.1l-.1-.1c.1 0 .1.1 0 .1zm.1 1.1c0-.1 0-.1 0 0s0 .1 0 0zm.1-.2c.1-.1.1-.1 0 0 .1.2 0 .2-.1.2l.1-.1v-.1zm.1-1.3c.2-.1.2-.2.1-.3l-.1.2v.1zm.4.3v.3l-.2.3.1-.3.1-.3zm.3-.5l.4-.4c.2-.1.2-.3.1-.4l-.3.4c-.2 0-.2.2-.2.4zm.2-.8l.1-.1-.2.1.1.1c-.1-.1-.1-.1 0-.1zm.2.2c0-.1 0-.1 0 0zm.4-.7l.1.2.1-.1.1-.1-.1-.2-.1.1-.1.1zm.4-.6l.1-.2-.1.2c-.1 0-.1 0 0 0zm.2-.3l.1-.2-.1.2c-.1 0-.1 0 0 0zm.1-.1l.2-.2c-.1-.1-.2 0-.2.2zm.4.1l.3-.3c-.2 0-.3.1-.3.3zm.1-.4v.1-.1zm.9-.6c0-.1 0-.1 0 0l.1-.1h-.1c-.1 0-.1.1 0 .1zm.1-.9v-.2l-.1.1.1.1zm-.1 1c0-.1 0-.1 0 0zm.4-1c.1.1.1.1 0 0 .1 0 .1-.1 0 0zm.1.7l.2-.1.2-.1-.1.2h-.3zm.5-.3l-.2.1.2-.1zm.5-.7v.1l.1.1-.3.1-.2.2c-.1-.1-.1-.1 0-.2h.2v-.1l.1.1.1-.1v-.1zm-.3.7c0-.1 0-.1 0 0zm.2-.3c0 .1-.1.2-.3.2l.3-.2zm.1 0l.1-.1-.1.1zm.1-.1c.1 0 .1 0 0 0 .1.1.1.1 0 0zm.2 0s-.1 0 0 0c-.1.1-.1 0-.1 0h.1zm.1-.1c0 .1 0 .1 0 0-.1 0-.1 0 0 0zM86.8 20c0-.1-.1-.1 0 0-.1 0 0 0 0 0l-.1.1.2.3h-.1v.1l.2.2.1.3-.1-.1h-.1l.1.1.1.1c-.1-.1-.1-.1-.1 0v.1l-.1-.1v.2l-.1.1.1.1.1.1v.6l.1-.2v.3H87v.2l-.1.1.1.2-.1-.1-.1.8-.1-.1v.1c.1.1 0 .1 0 .2v-.2l-.1.1.1.1c.1.1.1.2-.1.1v.3l-.1.4v.1-.1l.1-.1v.3l-.1-.1v.1l.1.1-.1.1c-.1 0 0 .1 0 .1-.1 0-.2.1-.1.2h-.1v-.1l-.1.2.1.2-.1.1-.1.2-.1.2-.1.3-.1.1.3-.4.1.1c-.2.1-.2.3-.2.5 0 .3 0 .5-.2.6v-.4l-.2.7.2.1-.2.6-.4.5c.1 0 .1.1 0 .2h-.1l-.1.4-.2.3-.2.3-.1.5c-.2.2-.5.5-.6.8l-.8.9c-.2.3-.6.6-1 .7l-.4.3-.5.2-.5.2-.2.5-.2 1.1v1.1l-.1.1.3.4-.1.1-.1.1.2.6.2.6.1-.1.2.2v.3c.2.5.4.7.6.9.7-.1 1.2-.4 1.6-.8l1.2-1.2.7-1 .7-1 1.1-1.7c.3-.6.7-1.2 1.2-1.7l.8-1.5.8-1.5-.3.6-.2.7-.1-.1-.1.3-.1.3.1.1v.3l-.1.3-.1.3h.1l-.1.1-.1.2-.1.2.1.1.1-.1v.1l-.1.2h-.1c0-.1 0-.1-.1 0l-.1.1.1.1-.1.1v-.1l-.1.1.1.1-.1.1V33l-.1.1.1.1v.4l-.1-.1-.1.1-.1.1v-.1l-.1.1v.2-.1h.1l-.1.2-.1.2h.2V34h.2l-.1.1H88l-.1-.1.1.1v.2l-.1.1.2-.2h.1l-.1.4-.1.4c0-.1-.1-.1-.1 0v.2l-.2.2-.1.3-.1.1-.1.1v.1h.2l-.1.2.1.1c-.1.1-.1.1-.1 0l-.1-.1-.1.1-.1.1.1.1-.1.1-.1.1v-.1l-.1.2-.1.2v-.2c-.1 0-.1.1 0 .1s.1.1 0 .1l-.1.1c-.1 0-.1.1 0 .1l-.1.1-.1.2-.1.2-.1-.1.1.1-.1.1v.1h-.2l.1.2-.1-.1-.1.2h-.2l-.1.3-.1.2-.1.1-.1.1.1.2-.1.2-.2.2h-.1l-.1.1-.1-.1.1.1-.2.2-.1.2-.1-.1.1-.1-.2.2-.1-.2-.1.2v.2l-.1.1v.1l-.1.1v-.2c-.1-.1-.1-.1 0-.2l-.2.1.1.2v-.2l.1.2-.1.1-.1.1-.1-.2.1-.1c-.1-.1-.1-.1-.2 0l-.1.2h-.1c0 .1.1 0 .1 0l.1.1.1-.1.1.2h-.1l-.3.3-.4.2-.7.5h.1c.1 0 .1 0 0-.1-.2 0-.3.1-.5.3l-.2.1h-.1v-.1l-.1.1-.1.1H81v.1l.1.1-.1.1-.1.1v-.2h-.6l.1.1-.6.1-.5.1h-.2l-.2-.1c-.3 0-.5-.1-.5-.2l-1-.5-.8-.9-.5-.9-.5-1v-.2l-.1-.2-.2-.7v-.2l-.2-1v-1l-.1-.3.1-.4-.1-.5V34l-.1.1c0 .1 0 0-.1 0 .2-.4.2-.2.2-.1v1l.1 1.1.4 2 .7 1.8c-.5-.9-.9-2-1.2-3.2a9.7 9.7 0 01-.2-3.8 33 33 0 011.5-6.2 15.2 15.2 0 013.2-5.5l.5-.5.9-.9a2 2 0 011.1-.6l.2-.2.2-.1.1-.3.2-.1.3-.1.2-.2.4-.1.3-.1c.2.1.5.2.7.1.2-.1.4 0 .6.1.4-.1.8.1.9.4l.5.9h.1l.1.5zM75.1 33l-.1.1.1.1v-.1c.1.1.1.1.1 0l.1-.1-.2-.3v.3c.1 0 .1.1 0 .1V33zm0 1.9l.1.2-.1-.2zm0 .8c0 .2 0 .2 0 0zm.3-3.3l-.1-.2.1.2c-.1 0-.1 0 0 0zm0 2.6v-.2l-.2.1.2.1zm.9 5.1l-.1-.2.1.2zm0 0s0 .1 0 0c0 .1 0 .1 0 0zm0 .1c.1 0 .1 0 0 0 .1 0 0 0 0 0zm.1.2c.1 0 .1 0 0 0zm.1.1l.8.7.9.6a2 2 0 01-.9-.5l-.8-.8zm1.6 1.3l.1.1v.1l-.1-.2zm.1.1c.1-.1.1-.1 0 0zm1.1-9.3c0-.1 0-.1 0 0zm1.6 6.8c0-.1 0-.1-.1 0 .1.1.1.1.1 0zm.2 2.6zm2.7-19l-.6.9-.3.6a2 2 0 01-.4.6l-.3.8-.1.4-.2.3-.2.6-.3.5c.1 0 .2 0 .3-.2l.3-.3c.1-.3.3-.7.6-.9l1.2-2c.4-.7.7-1.4.9-2.3h-.2l-.7 1zm-2.3-1c.1.1.1.1 0 0 .1-.1.1-.1 0 0zm.4 1.8c0-.1-.1-.1 0 0-.1.1 0 .1 0 0zm0-.1l.1-.1v-.1.1l-.1.1zm.2-.4c.1.1.1.1 0 0 .1-.1.1-.1 0 0zm.3 18.1c.1 0 .1 0 0 0s0-.1 0 0zm.1-19c.1-.1.1-.1 0 0zm.2-.3c.1 0 .1 0 0 0 0-.1 0 0 0 0zm0 18.9s0 .1 0 0h.2l-.1-.1-.1.1zm.4-21.3c0 .1 0 .1 0 0 .1-.1.1-.1 0 0zm.2 21.1l.1-.2-.3.2c.1.1.1.1.2 0zm0-19.6c0 .1 0 0 0 0 .1-.1 0-.2 0-.2v.2c-.1 0-.1 0 0 0zm.2-1.7l-.1.1-.1.1.1.1v-.1l.1-.2c0 .1.1 0 0 0 0-.1 0-.1 0 0 0-.1 0-.1 0 0-.1 0-.1 0 0 0zm.8 1.7c.1-.1.1-.1 0 0zm.2 4.5c0 .1.1.1 0 0 .1-.1 0-.1 0 0zm.1-.2s.1 0 0 0c.1-.1 0-.1 0 0zm.2-.3l-.1.1-.1.1.1.1v-.1l.1-.2.1-.1-.1.1c0-.1 0-.1 0 0zm-.1 14.5c.1 0 .1 0 0 0 0 .1 0 .1 0 0zm0 .3zm.3-15.3v.1l-.1.1v.1l-.1.1.1-.1v-.1l.1-.1v-.1s.1 0 0 0c0-.1 0-.1 0 0zm-.1 15.2c0-.1 0-.1 0 0s0 .1 0 0zm0-.2c.1 0 .1 0 0 0l.1.1-.1-.1.1.1-.1-.1zm.2 0H85h.1zm.1-15.6v.2l-.1.1v.2c-.1 0-.1 0 0 .1.1 0 .1 0 0-.1l.1-.2.1-.1v-.1l-.1-.1c.1-.1.1-.1 0 0 0-.1 0-.1 0 0zm-.1 4.2l.1.3v-.2l.1-.2-.2.1zm.1 10.8c-.1 0-.1 0 0 0l-.1.1.1-.1c.1 0 .1 0 0 0 0-.1 0-.1 0 0zm.4-.6h-.1v.2l.1-.2zm-.1-12.8c0 .1 0 .1 0 0s0-.1 0 0zm.1 2l-.1-.2.1.4v-.2zm.1 11.1l-.1.2.1-.2zm0-.4l-.1-.1.1.1zm0 .3c0-.1-.1-.1 0 0-.1.1 0 .1 0 0zm0-17c0 .1 0 .1 0 0zm0 16.7l.1-.1-.1-.1v.2zm.1.1c-.1.1-.1.1 0 0zm0-17.1c.1.1.1.1.1 0s-.1-.1-.1 0zm0 2.7c0 .1 0 .1 0 0zm0 3.6c0-.1 0-.1 0 0 0-.1 0 0 0 0zm.1-.8s0-.1 0 0l-.1-.1.1.1zm0-3.1c0 .1 0 .1 0 0s0-.1 0 0zm0 .8c0 .1 0 .1 0 0zm0 1.3c0 .1 0 .1 0 0 .1 0 0 0 0 0zm0 12.3c.1 0 .1 0 0 0l.2-.2.1.1V38l.1-.2.1-.2.1.1-.2-.2-.2.3-.2.4zm.1-12.4c-.1.1-.1.1 0 0 0-.1 0-.1 0 0zm0-2.5c0 .1 0 .1 0 0zm0 1.1c0 .1 0 .2 0 0zm0 .2c0 .1 0 .1 0 0s0-.1 0 0zm.1 1l-.1.1h.1c-.1 0-.1-.1 0-.1l.1-.2c.1-.1 0-.1 0-.2l-.1.2c-.1 0-.1.1 0 .2zM86 38.7c0 .1 0 .1 0 0s0-.1 0 0zm0-.1c.1 0 .1 0 0 0 0 .1 0 .1 0 0zm0-15.4c0 .1.1.1 0 0l.1-.1-.1.1zm0 .9c.1 0 .1 0 0 0zm.1-2.8c0-.1 0-.1 0 0zm0 5l-.1.1.1-.1zm0-4.3c0 .1 0 .1 0 0zm0 .4c.1.1.1 0 0 0l.1-.2-.1.2zm.1-.2c0-.1 0-.1 0 0zm0 .5l-.1-.1.1.1zm-.1 1.4c.1-.1.1-.1 0 0zm0 2.2l.1-.1-.1.1zm.1 12c0-.1 0-.1 0 0zm0-14.8l-.1.2.1.1.1-.1-.1-.2zm.1 1.6c0-.1 0-.1 0 0l-.1.1.1.1v-.2zm0 .7l-.1.2v-.1l.1-.1zm.1-1.2l-.1.3.1-.1v-.2l.1-.2.1-.2.1.1c-.1-.1-.1-.1-.2 0l-.1.3zm-.1 1.2c-.1-.1 0-.1 0 0 .1-.1 0 0 0 0zm0-4.5l.1.1-.1-.1zm.1 16.7c.1.1.1.1 0 .1l-.1.1c-.1-.1-.1-.1 0-.2.1.1.1 0 .1 0zm-.1-15.8s.1 0 0 0c0-.1 0-.1 0 0zm0 .6c0 .1 0 .1 0 0zm0 .1c0 .1 0 .1 0 0zm.1.3l-.1-.1.1.1zm-.1 14.3zm.1-14.6c-.1.1-.1.1 0 0 0-.1 0-.1 0 0zm0-.4zm0 .3zm0 14.4c0 .1 0 .1 0 0zm.1-17.2c0-.1 0-.1 0 0zm.2 1.2v-.1.1l-.1-.1-.1.1.1.1.1.1v-.2zm-.2 1.2c0-.1 0-.1 0 0zm0 15.5c0 .1 0 .1 0 0zm0-.7c.1.1.1 0 0 0l.1-.1.1-.1c-.1 0-.2 0-.2.2zm0-14.1c0 .1 0 .2 0 0zm.1.5l-.1.5c.1-.1.2-.3.1-.5l.1-.6h.1l.1-.6-.1-.5.1.5-.1.5-.2.7zm-.1-.6c.1.1.1.1 0 0 .1-.1.1-.1 0 0zm0 .2v.1-.1zm.1 1.6v.2l-.1-.1h.1v-.1zm0 12.1s-.1 0 0 0c-.1.1 0 .1 0 0 .1 0 .1 0 0 0 0-.1 0 0 0 0zm0 .8l-.1.2v-.1l.1-.1zm0-17.5c.1-.1.1-.1-.1-.2l.1.2zm0 4.3c0 .1 0 .1 0 0s0-.1 0 0zm0 12.8c0 .1 0 .1 0 0s0-.1 0 0zm.1-.6c0 .1 0 .1 0 0l.1-.1-.1.1c-.1 0-.1 0 0 0zm0 .9c0 .1 0 .1 0 0-.1.1 0 0 0 0zm0-13s0 .1 0 0zm0 13zm0-.5zm0-.1l.1-.1v-.1l-.1.2c.1-.1 0-.1 0 0zm.1.1c.1 0 .1 0 0 0 0 .1 0 .1 0 0zm.1-15.2c0 .1 0 .1 0 0 .1.1.1 0 0 0s-.1 0 0 0zm0-1.2c0-.1 0-.1 0 0s0 .1 0 0zm0 1.1s0-.1 0 0c-.1 0 0 0 0 0zm-.1 14.7zm0 .3c.1 0 .1 0 0 0 .1-.1.1-.1 0 0zm.2-13.6c0 .1 0 .1 0 0-.1 0-.1 0 0 0zm0-3v.1c-.1 0-.1-.1 0-.1zm-.1 2.6l.1.2-.1-.1v-.1zm.1.4c-.1-.1-.1-.1 0 0zm0-.5c-.1 0-.1 0 0 0 0-.1 0 0 0 0zm.1-1.3l-.1-.1.1.1zm-.1 1.3c0 .1 0 .1 0 0zm0-.3l.1.2v-.1l-.1-.1zm0 13.8c.1.1.1.1 0 0v.2c.1.1.2 0 .1-.1l-.1-.1zm0 .8c0-.1.1-.1 0 0 .1 0 0 0 0 0zm.1-.2c0-.1 0-.1 0 0-.1.1-.1.1 0 0zm0-.6c.1.1.1.1 0 0l.1-.1-.1-.1v.2zm.1.7s0 .1 0 0c-.1 0-.1 0 0 0zm0-1c0 .1 0 .1 0 0l.1-.2-.1.2zm0 1l.1-.2-.1.2zm0-16.9c0-.1.1-.1 0 0 .1 0 .1 0 0 0zm0 16.6c.1 0 .1 0 0 0zm.1-1.9c-.1 0-.1 0 0 0 0 .1 0 .1 0 0zm0-14.7h.2l.1.2-.1-.1-.2-.1zm.1 14.5c0 .1 0 .1 0 0zm-.1 1.5zm0 .1c.1-.1.1-.1 0 0 .1.1.1.1 0 0zm.1-.6c-.1.1-.1.1 0 0zm0 .7zm.1-.8c0-.1 0-.1 0 0s0 .1 0 0zm0-1.1c0 .1 0 0 0 0s-.1 0 0 0zm0 1.4zm.1-.7s0-.1 0 0c-.1 0-.1 0 0 0zm-.1.3c.1 0 .1 0 0 0 .1-.1.1-.1 0 0zm0 .4c.1 0 .1 0 0 0 .1.1.1.1 0 0zm.1-.1c.1.1.1.1 0 0-.1 0 0 0 0 0zm.1-.6c-.1.1-.1.1 0 0zm-.1.6l.1-.2-.1.2zm.1-.3s.1 0 0 0l.1.2-.1-.2c0 .1 0 0 0 0zm0 .5c0-.1 0-.1 0 0zm0-.2c.1 0 .1 0 0 0 0 .1 0 .1 0 0zm.1-1.1l.1-.1-.1.1c-.1 0-.1 0 0 0zm0 .2c0-.1-.1-.1 0 0 0 .1 0 .1 0 0zm0 .5c.1-.1.1-.1 0 0zm.1-.7s-.1 0 0 0c0 .1 0 .1 0 0zm0 .8c-.1.1-.1.1 0 0 0-.1 0-.1 0 0zm0-.1c-.1-.1-.1-.1 0-.1.1-.1.1-.1 0 .1zm.1-.3l-.1.1.1-.1zm.1-1l-.1.1.1-.1zm-.1.9v-.1.1zm0-1.6c.1 0 .1 0 0 0 .1-.1.1-.1 0 0zm.3.7c.1 0 .1.1 0 .2l-.2.2.2-.4v.1-.1zm0 0c-.1 0-.1-.1 0 0 0-.1 0-.1 0 0zm0 .3c0 .1 0 .1 0 0s0-.1 0 0zm.2-.6c0 .1 0 .1 0 0-.1-.1 0-.1 0 0zm0-.4c0-.1 0-.1.1 0v.1l-.1-.1zm.1.1c0 .1-.1.1 0 0zm0-.5l.1-.1-.1.1zm.2-.6v.1l-.1.1-.1-.1.2-.1zm-.1.6zm.1-.1c.1-.1.1-.1 0 0 .1 0 .1 0 0 0zm.1-1.1c-.1.1-.1.1 0 0 0 0 0-.1 0 0zm0 .4s0-.1 0 0c.1 0 0 0 0 0zm0-.6c.1 0 .1 0 0 0 0-.1 0-.1 0 0zm0 .5c.1-.1.1-.1 0 0 .1 0 .1 0 0 0zm.1-1c0 .1 0 .1 0 0zm0 .4c0 .1 0 .1 0 0s0-.1 0 0zm0 .4c0 .1 0 .1 0 0zm0-.2c.1 0 .1 0 0 0 0 .1 0 .1 0 0zm.1-.3c-.1-.1 0-.1 0 0 .1-.1.1 0 0 0zm.6-1.9c0-.1 0-.1 0 0 .1 0 .1 0 0 0zm.1-.2s0-.1 0 0zm.1-.1c0-.1 0-.1 0 0zm21.2-1.7l-.2.4-.2.4.1-.5V27c0 .2-.1.3-.2.3l.1.1c0 .1 0 .1-.1 0l-.1.6.1.2v.1h-.2l.1.3v.3c-.1-.1-.1-.1-.1 0v.1l.1.1v.7l-.1.6-.1.4v.3l.1.2c0 .1 0 .1-.1 0v-.2l-.1.1.1.1-.1.2.1.2v.1l-.1-.1-.2 1.2-.2 1.1c.1.2 0 .5-.1.8V37l-.1.1-.1.1v.1l.1.1h-.1v.3c.1.1.1.1 0 .2l.1.2-.1.3.1-.1.1-.1c.1.2.1.3 0 .4l-.1.4.1-.4.1.4v.5l-.1.1.1.4c.1.2 0 .3 0 .4h-.1l-.1-.1-.2.3-.3.3-.1-.2-.1.2.1.2c-.1-.1-.1-.1-.2 0s-.1.1-.1 0l-.1.3v.4l-.1-.1-.1-.1-.1.2.1.2h-.1l-.1-.1v.4h-.2l.1-.1-.1.1-.1-.1-.1.3-.2-.1-.1.1h-.1l-.1-.1-.1.2c-.1-.1-.3 0-.5.1s-.3.3-.1.6c-.6-.2-1-.5-1.2-1.1l-.6-1.7v-.2l-.1-.1-.1-.1-.1-.5-.1-.6-.1-1.2-.1-1.2.1-.1.1-.1v-1.6l.1-1.6.2-1.8.2-1.8V29l.2-.5V27.6l.2-1.6.2-1.6-.4-.3-.1.1h-.4l-.3-.1-.3.1-.8-.1-.6-.3-.5-.5-.5-.5-.4-.2c-.2-.1-.3-.1-.3-.3.1-.2.2-.4.4-.4l.6-.1 1-.1h.9l.6-.1.4.1.7-.1.7.1.2-.3.2-.3.2.1.1-.4c0-.1-.1-.1-.1 0s0 .1-.1 0l.2-.2v-.4l.2-.3.1.2.1.2.1-.3-.1-.3.1-.7c0-.2.1-.4.3-.4l.1-.3-.1-.1h-.1l-.1-.3h-.1l-.1.1v-.2c.1 0 .1-.1 0-.2l-.2.3c-.1-.1-.1-.2 0-.2.1-.1.1-.1 0-.2l.1.2.1-.1.1-.2v.4l.1-.1v.1c.2-.4.3-.8.2-1.1h-.2v-.2l-.1.1-.1.2v.3l-.1.3-.1-.1v-.4l-.3.4-.2.5v-.3l-.1-.2.1-.8c0-.3 0-.5.2-.6-.1-.2-.1-.5 0-.8a1 1 0 00-.1-.8v-.1l.1-.1.1-.4.3-.3c.3 0 .6 0 .9-.2.2-.2.5-.2.8-.2h.2c1.4 0 2.4.6 3 1.6v.2c.3.7.5 1.5.4 2.5a9 9 0 01-.3 2.5l-.1.4v.2l-.2.5-.1.6.3.1h.3l1.4.3 1.4.2h.2l.6.1.5.2c-.4-.1-.8-.1-1.1.1l-.9.1-.6.1c-.2 0-.5 0-.6.2-.2-.1-.4 0-.6.1-.2.1-.4.2-.6.1l-.2.1c-.1.1-.1 0-.2-.1l-.3.5.3-.1h.4l-.1.1v.1l-.4.1h-.3l-.1.7-.2.6.1-.1c0-.1.1-.1.1 0l-.1.2-.2.1-.1.3v.3l.1-.2.1.1.1.1-.3.2v.3l-.1.2.1.1.1.1-.1.2-.1.2-.1-.1v.1c-.1 0-.1 0 0 0 .1-.1 0-.1 0-.1l-.1.4c.8-.4.7-.3.6-.2zm-5.4 8.6v-.1l-.1-.1.1.2c-.1 0 0 0 0 0zm.1-1.3v-.3l-.1.2.1.1zm.1 1l-.1-.2-.1.2.1.1.1-.1zm0-1.4c-.1-.1-.1-.1 0 0l.1-.1-.1-.3-.1.2c-.1.1 0 .1.1.2zm-.1-1.5l.1-.3c.1-.1 0-.2-.1-.3l-.1.3.1.3zm.1-1.7h.1l.1-.1c0-.2-.1-.3-.2-.3v.4zm0 8.6l.1-.1c0-.1 0-.1.1 0l-.1-.2v.1l-.1.2zm.1-6.7l.1.1.1.2c.1-.1.1-.2 0-.4h-.2v.1c0-.1 0-.1 0 0zm.1-1l.1-.1v-.1l-.2.1.1.1zm0 .4c0 .2.1.2 0 0 .1 0 .1 0 0 0zm.1-1.4l.3-.3-.2-.1-.1.2v.2zm0-4.1v.4h.1l.1-.1-.1-.3h-.1c.1 0 .1 0 0 0zm.1 14.4c.1-.1 0-.3-.2-.4l.2.4zm-.1-.5h.1c0-.1 0-.1-.1 0zm.3-8.3l.1-.2-.1-.2-.1.2c-.1.1-.1.2.1.2zm-.2 8.6l.1-.1-.1-.1v.2zm.1-15.2c.1 0 .1 0 0 0l.1-.2.1.1h.1l-.2-.7-.1.4v.4zm.2 16.1l.1.2-.1-.2zm.9-24.8l.1.2-.1.2v-.4zm0 1.4c.1-.1.1 0 0 0 0 .2 0 .2 0 0zm0 .2l.1.1v.2l-.1-.3zm.1-.7v.1c-.1 0-.1 0 0-.1zm0-1.5l-.1-.1v.3l.1-.2zm0 1.4l-.1.1.1-.1zm0 24c0 .1 0 .1 0 0s0-.1 0 0zm.3-25.2s0 .1 0 0v.2-.2zm.1 26c0 .1 0 0 0 0 0-.1 0-.1 0 0zm.1-26.4l-.1-.2.1.2zm.3 20.7l.1.3.1.2v-.4l-.1-.1h-.1l.1-.2c.1-.1 0-.1-.1-.2.1.4 0 .4 0 .4zm.1 1.6l.1-.6h-.1v.6zm0-1.7l.1-.3v-.3l-.1.3v.3zm0 5c0-.1 0-.1 0 0s0 .1 0 0zm.1-3.1v-.1l-.1-.1h-.1l.1.3.1-.1v.2c.1-.1.1-.2 0-.2zm0 0zm.1-1.3v-.2c0-.1 0-.1-.1 0l.1.2c-.1.1 0 .1 0 0zm.1 1.4c-.1.1-.1.1 0 .1s.1 0 0-.1zm0-.6l-.1-.1v.2l.1-.1zm-.1.3c0 .2 0 .2 0 0 .1 0 .1 0 0 0zm.1-1.7l.1-.1-.1-.1v.2zm.1 1.4l-.1-.3-.1.2.2.1zm0-2.2c0-.1 0-.1 0 0l-.1.2.1-.2zm0 2.6c.1-.1.1-.2-.1-.3l.1.3zm0-.9l.1-.1-.1-.1v.2c0-.1 0 0 0 0zm0-3.1zm0 2.2l.1-.1-.1-.1c.1.1.1.1 0 .2.1 0 0 0 0 0zm.2-.3l-.1-.3c-.1.1-.1.2.1.3zm-.1 1.6c0 .2 0 .2 0 0zm.1 2.3c.1-.1 0-.1 0-.1v.1zm.1-5.3l-.1 1.3.1 1.4.1-1.8.1-1.9-.1.6v.6-.2zm.1-.3v.1l-.1.1.1-.2zm0 3.3l-.1-.2.1.2zm0 .3v-.2.1c-.1.1-.1.1 0 .1zm.1-1.5l.1-.4-.1-.4v.8zm0 .1c.1-.1 0-.1 0 0zm0-2.8l.1-.1-.1-.1v.2zm.1-.4zm0 2l.1-.5c-.2.2-.2.4-.1.5zm0-1.4c0 .2 0 .2 0 0 .1 0 .1 0 0 0zm0 1.9l.1-.1-.1-.1v.2zm.1 2l-.1-.1.1.1-.1.1.1-.1zm0-4l.1-.5-.1.2v.3zm0 3.1c0 .1 0 .1 0 0s0-.1 0 0zm.1-3.7c-.1.1-.1.1 0 0 0-.1 0-.1 0 0zm0-.3zm0 2.9c0 .1 0 .1 0 0s0-.1 0 0zm0 3.5c0 .1.1.1 0 0 0-.1 0-.1 0 0zm.1-8c0 .2 0 .2 0 0 .1 0 .1 0 0 0zm.6-.9c-.1.1-.1.1 0 0 .1 0 .1 0 0 0zm0-.6l.1.1h-.1v-.1zm0 2.1c0-.1.1-.1 0 0 .1.1 0 .1 0 0zm.3-2.5h.1l.1.1c0 .4-.1.6-.4.8l.1-.4c-.1-.1 0-.3.1-.5zm0 1c.1 0 .1 0 0 0l-.1.2.1-.2zm.2-1.5l-.1.2.1-.2zm0-2.5h.1v-.1l-.1-.1-.1.1.1.1zm-.1 1.5c.1-.1.1-.1 0 0 .1.1.1.1 0 0zm.1.5l.1.1-.1.1V29zm.3-.2h-.2l-.1-.1v-.1l-.1-.2.1-.2.2.2.1.4zm-.2-2l-.1-.2.1.2zm0-.2v-.2.2zm.1-.4l.1-.3-.1-.3v.6zm0 1.7c-.1.1-.1.1 0 0zm0-2.4s0 .1 0 0c.1 0 .1 0 0 0l.1-.2h-.1v.2zm0 2.1l-.1.1.1-.1zm0-.3c.1 0 .1.1 0 0 0 .1 0 .1 0 0zm0 .4v.2-.2zm.1-3.1l-.1.1h.1v-.1zm0 .3c0-.1 0-.1 0 0s0 .1 0 0zm1.6-1.8l-.1-.1.1.1zm.1 0s0-.1 0 0c0 0 .1 0 0 0 .1 0 0 0 0 0zm4.3-1zm8.9 2l-.1-.1.1.1.1.6v-.1l-.1-.1-.1-.2-.1-.1-.1-.1c-.1 0-.1 0 0-.1l-.4-.2h.1c0-.1 0-.1-.1 0v-.1l.1-.1-.2-.1-.2-.1c-.1.1-.1.1 0 .2h.2v.2l.1.1v.1H125.1c0 .1.1.2.2.1.1.1.2.3.5.4-.1.1-.1.2.1.2l.1.2-.2-.2-.2-.2h-.1l-.1-.1-.1-.1v.2l.1.2.2.3.1.3h-.1c0-.1 0-.1-.1 0l.1.2v.2c.1-.1.1-.2-.1-.2V25l.2.3h-.1v.1l.1.1-.2.2v.1l.1.1v.4l.1.4-.1-.1-.1-.1-.1.2c.1.1 0 .1 0 .1l.1.2.1.2-.1.2v.5c0 .1-.1.1-.1 0l-.1-.1.1.3c.1.1.1.2 0 .4v.3c-.1.1 0 .2.1.3l-.1.3.1.2.1.1h-.1l-.1-.1v-.1l.2.2h.1l.1-.1v.7c-.1.3 0 .5.1.6l-.1.3h.1l-.1.4v.3l-.2.5-.2.4v.2l-.1.2a5 5 0 01-.5 1.3l-.6 1.2-.2.1-.2.1.1.1.1.1c-.1.4-.4.6-.8.6l-.1.2-.1.2-.2.1h-.2l-.3.3c-.1.2-.2.2-.4.1l-.2.3-.9.4-1 .3h-.4c-.6.1-1.2.1-1.7-.1a4 4 0 01-1.3-.7l-.3-.4-.3-.3-.5-.8-.4-.8a8.9 8.9 0 01-.3-3.7c.1-1.3.4-2.6.7-3.7v-.2l.1-.2.1-.2.3-1 .5-1.1.3-.8.3-.8.3-.5.2-.5-.1-.1-.1-.1.1-.2c.1 0 0-.1 0-.1l.1-.1.1-.1.7-.5c.3-.1.4-.3.5-.6l.1-.1.1-.2.2-.1h.2l.3-.3h.2l.2-.1.5.1.5.1c.5 0 .8.2 1.1.4l1 .6.3.3.2.4v.2l1.1.9c1.1 0 1.3.4 1.4.9zm-7 5.9h.1-.1zm0 .5c0-.1 0-.1 0 0zm.3-1.7c0-.1 0-.1 0 0zm.4-6.8v-.1h-.1l.1.1zm2.3 10.5l.7-1.5.5-1.5.4-1.8.1-2.1-.3-.8-.4-.5a.5.5 0 00-.5-.3l-.1.1-.5.8-.5.8-.1.4-.1.4a20 20 0 00-1.2 4.1c-.3 1.5-.3 3 .1 4.5.5-.2.8-.6 1.1-1 .2-.7.5-1.1.8-1.6zM119.9 22l-.1-.2.1.2zm.3.7c.1 0 .1 0 0 0 0-.1 0-.1 0 0zm1.3-.8c0 .1 0 .1 0 0s0-.1 0 0zm.4.9l.1-.1-.1.1zm.2.2h.1c0-.1-.1-.1-.1 0zm.1-.3c0-.1 0-.1 0 0l.1-.1h-.1v.1zm.1.1c0 .1 0 .1 0 0zm.1.5l-.1-.1v.1h.1zm.4.2l-.1-.1.1.1zm-.1.2h.1c0-.1-.1-.1-.1 0zm.1-.2c.1.1.1.1.1 0s0-.1-.1 0zm.3.1c.1 0 .1 0 0 0l-.1-.1.1.1zm.2-1.2s.1 0 0 0c.1-.1 0-.1 0 0zm0 1.1l.1.1-.1-.1zm.2.1c-.1 0-.1.1 0 0 0 .1.1.1.1 0h-.1zm.3.2c0-.1 0-.1 0 0l-.1-.1.1.1c-.1 0-.1 0 0 0zm0-.7c-.1 0-.1.1 0 0 0 .1 0 .1 0 0zm.2 2.4l-.1-.3v.2l.1.1zm-.1-1.7zm.3.1l-.1-.1c0 .2.1.2.3.1h-.2zm.1-.6v-.1h-.2l.1.1h.1zm-.1 2.6c0 .1 0 .1 0 0zm0-2.4c0-.1-.1-.1 0 0zm0 .8l.1-.1h.1l-.1-.1-.1-.1v.3c0-.1 0-.1 0 0zm.1-1.6c-.1 0 0 0 0 0s0-.1 0 0zm.1.3c0-.1 0-.1 0 0-.1 0-.1 0 0 0zm0 .3c-.1-.1-.1-.1-.1 0s.1.1.1 0zm-.1.8c.1 0 .1 0 0 0 .1-.1 0-.1 0 0zm0 .9c.1.1.1.1.1 0s0-.1-.1 0zm.1-.9c.1.1.1 0 0 0zm.1.3l-.1-.1.1.1c0-.1 0 0 0 0zm0 10.3l-.1-.1.1.1c-.1-.1-.1-.1-.1 0 .1.1.1.1.1 0zm0-9.2c0-.1 0-.1 0 0zm.2-2.5l-.1.1.1-.1zm0 1.2h-.1l.3.3.2.2.2.2h.1l.1.2.1.3.2.2.1.2-.1.1.1.3.1.1.1.1v-.3l-.1-.3-.2-.1.1-.2-.1-.1-.1-.1-.1.1v-.1h-.1V25c-.1-.1-.2-.1-.1-.2-.2 0-.3-.1-.3-.2l-.1-.3.2.1-.3-.3-.1.1.1.2c.1 0 .1.1 0 .1l-.1-.1-.1-.2zm0 .7l-.1-.2.1.2zm0-1.3c-.1 0-.1 0 0 0-.1.1 0 0 0 0zm0 .6zm.4.7c-.1.1-.1.2.1.2l-.1-.2-.2-.3-.2-.2c0 .2.1.3.2.3l.2.2zm-.4 0c0-.1 0-.1 0 0 .1 0 .1 0 0 0zm0-1.6l.1.1-.1-.1zm.1 2.2c0 .1 0 .1 0 0 0 .1 0 .1 0 0zm.1-.4l-.1-.1.1.1zm0 1.6l-.1-.2.1.2zm0-3zm.1.3l.1.2.1-.1V24h-.2c0-.1-.1-.1 0 0h-.1.1zm-.1 10.1c0 .1 0 .1 0 0 .1-.1 0-.1 0 0zm.1-10.9zm0 2l.1.2-.1-.2zm.1 8.4c.1.1.1.1 0 0 .1 0 .1 0 0 0zm.2-8.4c-.1 0-.1 0 0 0l-.1-.1.1.1zm0 .1l-.1.1.1-.1zm0 .6l-.1-.1-.1.1h.2zm0 7.5c-.1.1-.1.1 0 0-.1.1-.1 0 0 0zm.1-8.7h.1c0 .1 0 0 .1 0l-.2-.2-.2-.2.1.1c.1.1.2.2.1.3zm-.1.6c0 .1 0 .1 0 0zm0 7.9s0 .1 0 0c.1 0 .1-.1 0 0zm.1-9.7c-.1-.1-.1-.1-.1 0s.1.1.1 0zm0 2.7c0-.1 0-.1 0 0zm.1.5c.1 0 0-.1 0-.2l-.1-.1.1.1c-.1.2-.1.3 0 .2zm0 .3v-.1l-.1-.1.1.2c-.1 0-.1 0 0 0zm0-2.7c0 .1 0 .1 0 0-.1 0-.1 0 0 0zm.1-.5l.1.1-.1-.1-.1-.1-.1-.1c0 .2.1.2.2.2zm-.2 1.7l.1.1-.1-.1zm.1 1.7l-.1-.1.1.1zm-.1 5.8h.1-.1zm.1-8.6c.1 0 .1 0 0 0zm.1 1.5l-.1.1c.1.1.1.1.1-.1 0 .1 0 .1 0 0 0 .1 0 0 0 0v-.2l-.1.1.1.1zm-.1 6.6zm.1-7.2c.1 0 .1 0 0 0 0 .1 0 .1 0 0zm0-.8l.1.2-.1-.2zm.1 2.5c0-.1 0-.1 0 0s0 .1 0 0zm0 5.1l-.1-.2.1.2zm0-5.6c0 .1.1.1 0 0 .1 0 .1 0 0 0zm0 .3c.1.1.1.1 0 0 .1 0 .1 0 0 0zm0 .3c.1 0 .1 0 0 0 .1 0 0 0 0 0zm.1.6c0-.1 0-.1 0 0s0 .1 0 0zm.1-2.9s-.1 0 0 0c-.1 0-.1 0 0 0zm0 0c-.1 0-.1-.1 0 0 0-.1 0-.1 0 0zm0 .7zm.2-1.2l-.1-.1-.1-.1c-.1.1 0 .2.2.2zm-.2.6l.2.1c0 .1 0 .1-.1 0 0-.1-.1 0-.1 0l-.1-.1h.1zm.1-.1zm-.1 3c0-.1 0-.1 0 0zm.1 2.4v.2l.1.1.1-.1.1-.1-.1-.2-.1-.2-.1.3c-.1-.1-.1-.1 0 0zm.1-5.7l-.1.1v-.1h.1zm-.1.3zm0 6l.1.2-.1-.2zm0-.8l.2-.1.1-.2-.1-.1h-.1v.2l-.1.2zm.1-3.5v.3h-.1v-.1l.1-.2zm0-1.3l.1.2-.1-.1c-.1 0-.1-.1 0-.1-.1-.1 0-.1 0 0zm0 1.6l.1.1.1.2-.1.2-.1-.2v-.3zm-.1 3.4c0-.1.1-.1 0 0 .1.1 0 .1 0 0zm.1-4.5c.1.1.1.1 0 .1s-.1 0 0-.1zm0-.9l.1.3-.1-.1v-.2zm.1 1.3l-.1-.2.1-.1v.3zm-.1 3.3v.2c.1-.2.1-.2 0-.2zm0 2.1c0-.1 0-.1 0 0s.1.1 0 0zm0-.9c.1 0 .1 0 0 0 0-.1 0-.1 0 0zm.1-2.9l.1.4-.1-.1v-.3zm0-1.2c-.1 0-.1 0 0 0l-.1-.2.1.2zm0 2.5c0-.1 0-.1 0 0s0 .1 0 0zm.1.6c-.1.1-.1.2 0 0zm0 .7c0-.1 0-.1 0 0-.1.1-.1.1 0 0zm0-.9zm.1 2.2c-.1.1-.1.1 0 0-.1.1 0 .1 0 0l.1-.1-.1.1zm-.1-2.1l.1.2c.1-.1.1-.3-.1-.4v.2zm.1-.5l.1.3-.1-.3zm0 .7c0 .1 0 .1 0 0zm.1 1.4V31l-.1-.1.1.2c-.1 0-.1 0 0 0zm0 .2l-.1-.2.1.2zm8.7-4.3l-.2-.4v-.1l-.1.1.1.1.1.2.1.1.3.6.1.7-.1-.1-.1-.1v.2l-.2-.3-.3-.3-.1.2.1.2-.1-.1-.1-.1v.1l-.1-.2v-.2l-.1.1-.1-.1-.1-.1c0 .1 0 .1-.1 0l-.1-.1.1.1.1.2.1.2-.1.1-.1-.1-.1-.1-.1.1-.1-.2-.1-.2-.1.1-.1.1-.5-.4-.4-.5.3.4c-.1.1-.1.1-.2 0l-.2-.2-.2-.4-.2-.3-.1-.1h.1l.2.4.2.3.1.1.1.2-.1.1-.1-.1h-.1l-.3-.4-.3-.4v.1l-.1.1v-.2.1l-.3-.7-.2-.7h.1c-.1-.4-.2-.8-.1-1.1l.2-1.1-.1.3-.1.3v-.6l.1-.1.1-.1v-.2l.3-.7.1-.7.4-.4.2-.6h.1l.1.1-.1-.1.3-.4v-.3l.2-.3c0-.1 0-.1 0 0s-.1.1-.1 0l.8-1.4.1.1.1-.2-.1-.1.2-.3.2-.3h.1c0 .1 0 .1.1 0l.1-.1-.1-.1.2-.3.2-.2.3-.5.3-.5.1-.1.1-.1.1-.2.1-.2.1-.1.1-.1c.1-.3.4-.6.7-.9.6-.9 1.2-1.8 1.9-2.5l1.9-2.5.2-.1v.1l.8-1.1.8-1.1.8-1.5.7-1.7v-.3l-.2-.2-.6-.1-.7-.1-.2.2c-.1.1-.2.1-.4 0l-.1-.1v-.2c-.1 0-.2.1-.2.3l-.2.3c-.2.1-.3 0-.3-.2l-.1.2c.1.1 0 .2-.1.2l-.2-.1v-.2l-.3.3c-.1 0-.1-.1 0-.1s.1 0 0-.1l-.2.1-.1.2h-.2l-.2.1-.1.3c0 .1-.1.2-.3.2l-.2-.3-.4.4-.3.4h-.2l-1 .9-.9 1 .1.5-.2.2-.2.2c-.2 0-.4 0-.5.2l-.3.5v.4l-.4.4c.1.1.1.1 0 .2s0 .1 0 .2c0 .2-.1.3-.3.3-.2 0-.3.1-.3.2v.6l-.2.2-.1.2v.2l-.1.3-.2.3.1 1.5c.1.5.1.9-.2 1.3h-.4l-.1-.1-.1-.1-.7-.6-.8-.4a1 1 0 01-.6-.5c-.2-.2-.2-.6-.2-1l.1-.6.2-.7c.2-.7.5-1.3.9-1.9l1.3-1.8a25.9 25.9 0 013.5-3.4l.5-.4.6-.4c-.2.2-.4.5-.7.6-.2.2-.5.5-.8.6l-.7.7h-.1l.1-.1.1-.1.1.1.1-.1.1-.1c.2.1.3-.1.4-.4l.3-.2.3-.2.1.1.4-.5.5-.4h.3l.2-.2.1.1V2h-.1c.1-.2.2-.3.5-.3l.6-.3.1.1-.1-.1a3 3 0 011-.4l1.1-.3-.1-.1-.2.1.2-.1.2-.1-.1-.1h-.1c.6-.4.9-.4 1.3-.4l.8.2.1-.1.5-.1.4.1.2-.1a4 4 0 012.4 1.2c.5.7.8 1.6.8 2.7l-.1.4-.1.5-.1.5-.2.5V6l-.8 1.5-.8 1.5a3 3 0 01-.4 1l-.6.8v.2l-.9 1.5-.9 1.5-.4.7-.9 1.6-.6 1.3-.8 1.2c-.5 1-1 2-1.6 2.8s-1 1.9-1.4 3l-.3.8-.3.7-.1.5-.1.5-.2.2-.2.2h-.2l-.1.1-.1.2h-.1l-.2-.4-.2-.4zm-3.8-2.8c0-.1 0-.1 0 0s0 .1 0 0zm.1-1.4v.1c-.1-.1-.1-.1 0-.1zm-.1 1.2c.1 0 0 0 0 0 0 .1 0 .1 0 0zm0 1.1l.1.3-.1-.3v-.3l.1-.1-.1-.1v.5zm.1-2.3c-.1-.1-.1-.1 0 0 0-.1 0-.1 0 0zm3 14.1l.5-.5c.2-.1.3-.3.3-.6h-.1l-.1-.1-.3.2-.1-.2c-.1 0 0-.1 0-.2l-.1-.1-.1-.1-.2.1-.2-.1v-.1s.1 0 0-.1V35h-.1l.1.6v.7c-.1-.1-.1-.1 0-.2s.1-.1 0-.2l-.1.5-.1-.2-.1-.1.1-.4-.1-.4c0-.1-.1-.1-.1 0s0 .1-.1 0l.2-.3.1-.3c0 .1-.1.1-.2 0s-.2 0-.2.1v-.2c-.1 0-.1.1 0 .2l-.2.1-.3.1v.1h.2l.2-.1c-.1.2-.2.3-.5.3s-.5.1-.6.3l-.4-.1h-.3l-.1-.2-.1-.2h.2l.2.2.1-.1V35l-.2-.2-.2-.2c.2 0 .3-.1.2-.3l.2-.1.1-.1.8-.3.7-.3h.1l.1.1.2-.2.4-.1c.1.1.3.3.5.3l.4.4.7.5.6.6c.2.3.4.7.4 1.2.1.5 0 .9-.3 1.2a3 3 0 01-1 .4l-1.1.2-.6-.1-.5-.1c.3-.2.5-.5.6-.9l-.1-.1-.1-.1.2-.2.1-.1c.1 0 .1.1 0 .2s-.1.1 0 .2l.1-.2c.2.3.2.3.3.2zm-2.9-11.1l-.1-.2-.1-.2.2.4zm2 9.5l-.1.1-.1.1c.1.1.1.1.2 0l.2-.1-.4.4c0 .1 0 .1 0 0s0-.1.1 0l-.2.2-.3.1h.2l.2-.1-.2.2-.3.1.1.1.1-.2c.1.1.2.1.2 0l.3-.2-.7.5c-.3.1-.5.3-.6.6l-.1-.1.1-.1-.1-.1-.1.1v-.4h.1l.2.1v-.1l.1-.1h-.3c-.1.1-.2.1-.3-.1l.4-.1V36h-.5a.8.8 0 01-.4-.4h.3l.3.1c.1 0 .1-.1 0-.1s-.1-.1 0-.1c.1.1.3.1.4 0 .1-.1.3-.1.4 0l.2-.2h.6zm-2-9.4l.1.4-.1-.4zm.2-.4l.1.1-.1-.1c0-.1 0-.1 0 0-.1-.1-.1-.1 0 0zm0 .9l-.1-.1v.1h.1zm0-4.6c0 .1 0 .1 0 0-.1.1 0 0 0 0zm.2.6l-.1.6-.1.6v.5l.1.5v-1.1l.1-1.1.1-.2V22l-.1.1-.1.1c.1-.1.1 0 .1.2zm-.1-.9c-.1 0-.1.1 0 .1-.1 0-.1 0 0-.1-.1 0-.1 0 0 0zm-.1 3.2c.1 0 .1 0 0-.1v.1zm.1 1.8l-.1-.1.1.1zm-.1-.8c.1 0 .1 0 0 0zm.1-.3s.1 0 0 0c0-.1 0-.1 0 0zm0 1.3s.1 0 0 0c0 .1 0 0 0 0zm0 .1l.1.2-.1-.2zm.1 8.1c-.1 0-.1.1 0 0 0 .1 0 0 0 0zm0-14c0-.1 0-.1 0 0s0 .1 0 0zm0 5.2c0 .1 0 .2 0 0 .1 0 .1-.1 0 0zm1.4-7.3a1 1 0 00-.5.9 3 3 0 01-.4 1v-.2l-.3.6-.2.7.1-.3h.1c0-.3.1-.5.3-.8.2-.2.3-.5.2-.8l.1-.1h.1l.1-.2.1-.1c-.1.1-.1.1.1.1.1-.4.3-.8.6-1.1l.6-1.1v.2l.1-.4c0-.2.1-.3.3-.3l.1-.5.3-.2.1-.1.1-.1c0-.1-.1-.1-.1 0s-.1.1-.1 0l.4-.7.4-.6.1.1.2-.5c.1-.2.2-.3.4-.3v-.2l.1-.3-.5.8-.5.6-.6.9-.5.9-.6.9-.7 1.2zm-1.3 8.3l-.1-.2.1.2zm0 9.8c0-.1 0-.1 0 0zm0-9.8c.1 0 .1 0 0 0 0 .1 0 .1 0 0zm0-5.3l.1-.1-.1-.1c.1.1 0 .1 0 .2zm.1.8l.2-.2c.1-.1 0-.2 0-.2l-.1.2-.1.2zm0 14.2c0-.1 0-.1 0 0zm0-9.4l.3.2.2.3-.3-.2-.2-.3zm.1 8s-.1 0 0 0zm0-9.7c.1.1.1.1 0 0 .1 0 .1 0 0 0zm.2-3.8c-.1.1-.1.1 0 0-.1-.1 0-.1 0 0zm0 13.4c-.1.1-.1.1 0 .1s.1 0 0-.1zm0-14.6zm0 2.9c0 .1 0 .2 0 0 0 0 0-.1 0 0zm1.4 12.7l-.2.2c-.1 0-.2.1-.2.3-.2 0-.3.1-.5.3l-.5.4v-.2h.2v-.1h-.2l.1-.1.1-.1v-.2l.6-.4c.2.1.4 0 .6-.1zm-1.4.8c0-.1 0-.1 0 0zm.2-15.6l-.1-.3-.1.2-.1.2.3-.1zm-.1 5.6zm0 8.3h.1l-.1-.1c.1 0 .1 0 0 .1 0-.1 0-.1 0 0zm.1-7.9v.1c-.1 0-.1-.1 0-.1zm-.1 9l.1.1c.1-.1.1 0 .2 0l.1-.1-.1-.1-.3.1zm.1-9.1l.1.2-.1-.2zm.2-6.4c-.1.1-.1.1 0 0zm0 6.8l-.1-.1.1.1zm.1 8.4l-.2.1c.1.1.2.1.2-.1zm-.1-16.4c-.1 0-.1 0 0 0 .1-.1.1-.1 0 0zm0 7.8zm.2 7.6l-.2.1.2-.1zm-.2.8c.1 0 .1 0 0 0zm.2-8.4c0-.1 0-.1 0 0l-.2-.2c.2 0 .2.1.2.2zm-.1 9.7l.2-.2.2-.2c-.1.3-.2.4-.4.4zm.6-.1l-.2.3-.4.2.3-.3c.2 0 .3-.1.3-.2zm-.5-9.4s-.1 0 0 0c0-.1 0 0 0 0zm.1 8.1c0-.1 0 0 0 0l-.1.1.1-.1zm3.6-21.7l-.1.1-.3.3c-.1.1-.2.2-.1.4h-.1l-.3.3-.3.3v.2l-.4.6-.4.5-.3.6-.3.6-.7 1c-.2.4-.4.7-.4 1.1l.5-1.1.6-1.1 1-1.6 1.1-1.5.2-.3.2-.3.1-.1c.1 0 .1 0 0 0zm-3.7 13c.1.1.1.1 0 0 .1-.1.1-.1 0 0zm0 .4l.1.1-.1-.1zm.1.2c0 .1 0 .1 0 0-.1.1-.1.1 0 0zm.1 10.2h-.2l.1-.1.1.1zm-.1-19.3c0 .1 0 .1 0 0zm0 16.1c.1.1.1.1 0 0 .1 0 .1 0 0 0zm.1-7.1c0-.1 0-.1 0 0l.1.1-.1-.1zm0 10.3c.1 0 .1 0 0 0 .1 0 0 0 0 0zm.1-18c0-.1.1-.1 0 0l.1-.2c-.1 0-.2.1-.1.2zm0-1.1zm0 16l.2-.1-.1-.1-.1.2zm.2 2.8l-.1.1h.1l.2-.1c0 .2-.1.3-.4.3.1-.1 0-.2-.1-.1l.2-.2.2-.2-.1.2zm0-.8l-.2.1.1-.1h.1zm-.1-10.1c0 .1 0 .1 0 0zm.1-7.1l.2-.2h-.2v.2zm.1 15.6l-.1.1.1-.1zm0 1.5c0 .1 0 .1 0 0l-.1.1-.1-.1h.2zm-.1-8.9c.1-.1.1-.1 0 0 .1 0 .1 0 0 0zm.1 7c0 .1 0 .1 0 0zm-.1 1.8c.1-.1.1-.1 0 0 .1 0 .1 0 0 0zm.2.6v.2l-.1-.1.1-.1zm-.1-2c0-.1 0-.1 0 0 .1-.1.1 0 0 0zm.1 1.8c-.1 0-.1-.1 0 0zm0-9.3l.1.2-.1-.2zm0 6.9l.1-.1-.1-.1v.2zm0 2c0-.1 0-.1 0 0zm.3-2v-.1l-.1-.1.1.1c-.1.1-.1.1 0 .1zm-.1-8.1c0 .1 0 .1 0 0 .1 0 .1 0 0 0 0 0 0-.1 0 0-.1 0-.1 0 0 0zm.1-7.1v.4l.1-.1.1-.2h-.1l-.1-.1zm.1 16.5l.1-.2-.1-.1v.1c-.1.2-.1.2 0 .2zm.1-7.9c-.1 0-.1 0 0 0 0-.1 0-.1 0 0zm0 8.5c.1.1 0 .1 0 0-.1 0 0 0 0 0zm0-8.6c.1 0 .1 0 0 0 .1.1.1.1 0 0zm0 8.5c.1-.1.1-.1 0 0l.1.2h-.1v-.2zm.1-1c0-.1 0-.1 0 0s0 .1 0 0zm.1-.5l.1-.1.1-.1-.1.1-.1.1zm.1-28.2l.1-.2-.1-.1v.3zm.2 11.3l.1-.1-.1-.1v.1c-.1 0 0 0 0 .1zm0 17.4c.1-.1 0-.1 0-.1v.1zm0 .1c.1.1.1.1.2 0l.2-.2-.2.1-.2.1zm.1-17.8c0 .1 0 .1 0 0 .1 0 .1 0 0 0zm0 18zm.1-18.2s.1 0 0 0c.1-.1.1-.1 0-.1v.1zm.1.5l.2-.2h-.1l-.1.2zm0-.6l.2-.1-.1-.2-.1.1v.2zm.1-13.1c0-.1 0-.1 0 0zm.3-.4l-.2.2-.1.3c.2-.1.3-.3.3-.5zm-.2 13.2c.1 0 .1-.1 0 0 0-.1 0-.1 0 0zm.1 11.2s-.1 0 0 0c0-.1 0 0 0 0zm.1-2.1l.1.2-.1-.2zm0 .2zm.1.2l-.1-.1.1.1zm0-1.4c0-.1 0-.1 0 0zm.1-21c0 .1 0 0 0 0s-.1 0 0 0zm0 12.2c0 .1 0 .1 0 0zm0 9.6c0-.1 0-.1 0 0s0 .1 0 0zm.3-.9l-.2.4-.1.3.1-.3h.1v-.2l.1-.2.1-.3-.1.1v.2zm2-22.8v-.2l-.2.2v.1l.2-.1c-.1 0-.1 0 0 0l-.1.1-.8.6-.8.7-.4.4-.1.1-.1.1.1-.1.1-.1.4-.4.8-.6.8-.6.5-.3.3-.3-.4.3c-.1-.1-.2 0-.3.1zm-2.1 13.8v.1l-.1.1.1-.1v-.1l.2-.2v-.2l-.1.1-.1.3zm.2-12.6c0 .1.1.1 0 0 .1 0 .1 0 0 0zm0 21.2c0-.1 0-.1 0 0zm.1-.2c-.1 0-.1.1 0 0 0 .1 0 .1 0 0zm0-1.5c-.1.1-.1.1 0 0 .1 0 .1 0 0 0zm0-7.1l.1.1-.1-.2s-.1 0 0 .1c0-.1 0-.1 0 0zm.1 7c0-.1 0-.1-.1 0 .1.1.1.1.1 0zm.1-16.9c.2.1.2 0 .2-.1-.1.1-.1.1-.1-.1l-.1-.1-.2.2.2.1zm0-1.6c.2-.1.3-.2.2-.3-.2 0-.2.1-.2.3zm.1.9l-.1.1.1-.1zm0 16.9s.1 0 0 0c.1-.1 0-.1 0 0zm.2-17l.1-.1-.1.1zm3-2.5a12.8 12.8 0 00-2.4 1.9l-.3.2-.1.1h-.1v.1l.1-.1.1-.1.1-.1.2-.1.1-.1.1-.1.1-.1 1.1-.9 1-.7.1-.1-.1.1zm-2.8 11.1l.2-.4.2-.4c0 .2-.1.3-.3.4-.2.1-.2.2-.1.4zm.5-.5l-.3.3-.2.4.3-.3.2-.4.6-.8-.3.4-.3.4zm2-10.2c-.3.1-.5.2-.7.5v-.1l-.3.3c0 .2-.1.3-.3.3V4c-.2 0-.2.1-.2.3-.3.1-.5.4-.8.8l-.1.1-.2.2.2-.2.1-.1 1.3-1.1 1.4-1-.4.2-.3.1.1-.1c.1.1.2.1.2 0 0 .1.1.1 0 0zm-2.1.3l-.2.1-.1.3h.2l.2-.1-.1-.1v-.2c.1 0 .1 0 0 0 0-.1 0-.1 0 0zm-.2-.8c.1 0 .1 0 0 0zm.1 11.7c-.1.1-.1.1 0 .1v-.1c.1 0 .1-.1 0 0 .1-.1 0-.1 0 0zm0-10.1c0 .1 0 .1 0 0 .1-.1.1-.1 0 0zm2.5-2c-.3.2-.6.5-1 .6l-.8.7-.2.1-.2.2-.1.1-.1.1-.2.1.2-.1v-.2l.1-.1.4-.3c.4-.1.7-.3.9-.6.2-.3.6-.5.9-.7l.1.1c0 .1 0 .1 0 0 0 0 .1-.1 0 0 0-.1 0-.1 0 0zm-2.4 11.1l.2-.1-.1-.2-.1.3zm.1.7s0 .1 0 0c0 .1 0 .1 0 0 .1 0 .1 0 0 0 0-.1 0 0 0 0zm.1-.1l.3-.3.1-.3-.2.3-.2.3zm.2-10l.1-.1-.1-.1V4zm.1 8.5l.1-.1-.1-.1v.2zm.2-9.4c.2 0 .3-.2.4-.4l.3-.2.1-.2-.4.3c-.3.2-.4.3-.4.5zm0 10.2c.2-.1.3-.3.3-.5l-.2.2-.1.3zm.1-11.4c-.1-.1-.1-.1 0 0zm0 10.7l.1-.1c.1 0 0-.1 0-.1l-.1.1c-.1 0-.1 0 0 .1zm.1-10.9c0 .1 0 .1 0 0s0-.1 0 0zm.1 10.6c0-.1 0-.1 0 0zm.2.3l-.1.1-.1.1.2-.2zm.2-8.8zm0-1.4c.1.1.1.1 0 0 .1-.1.1-.1 0 0zm.2-1.2h-.1.1zm-.1.7zm.2.1l-.2.1.2-.1zm.1.2l-.2.2.2-.2c.1.1.2.1.2-.1l-.2.1zm-.2-.3l.1-.1.1-.1-.1.1-.1.1zm.3-.9l-.1.1c-.1 0-.1 0 0 0l-.3.1.4-.2zm0 1l-.2.1.2-.1c-.1 0-.1 0 0 0l.7-.4-.7.4zm-.1-.3c.2 0 .3-.1.3-.2l-.1.1-.2.1zm.3-.1l.1-.1c.1 0 .1 0 0-.1l-.1.2c-.1-.1-.1-.1 0 0zm.1.4h-.1.1zm.2-.6c-.1 0-.1 0 0 0 0 .1 0 .1 0 0 0 0 .1 0 0 0zm0 .5h.1v-.1l-.1.1zm-.1 9.3c0-.1 0-.1 0 0zm.1-.2c.1.1.1 0 0 0zm.7-8.4l-.1-.1-.1-.1-.1.2-.3.1v.2l.3-.1.3-.2.1.1v.1l.2-.1-.1-.1.2-.2.2-.2-.2.1c-.1.1-.1.1-.2 0l.2-.2.2-.2-.8.3h.2v.4zm1.2-1.3v-.1h-.2v.1h-.3l-.3.2.3-.1.2-.1-.1.1-.1.1c0-.1-.1-.1-.1 0l-.1.1c-.1.2-.3.3-.6.4-.3.1-.5.2-.6.4l.1.1h.2l.1-.2.2-.1c0-.1.1 0 .2 0l.1-.1h.1l.5-.3.5-.2.2-.1-.3-.2.1-.1-.1-.1v.2c.1-.1.1 0 0 0zm-1.6.2s-.1 0 0 0l-.2.1.2-.1h.1c.1 0 0 0 0-.1l-.1.1c0-.1 0-.1 0 0zm-.2 1.3l.2-.1.1-.2-.2.1-.1.2zm.2 7.9s-.1 0 0 0l-.2.2.2-.2c0 .1 0 0 0 0 .1 0 .1 0 0 0 0-.1 0-.1 0 0zm.1-9.5zm0 .5c.1 0 .1 0 0 0 .1-.1.1-.1 0 0zm.1-.5c0 .1.1.1 0 0 .1-.1.1-.1 0 0zm.1.4l.2-.1-.2.1zm0 1.2c0 .1 0 .1 0 0 .1 0 .1 0 0 0zm.2-1.5l-.2.1.2-.1zm.4 10l-.1.2-.3.3c-.1.1-.2.3-.1.4l.2-.3.2-.3.1-.3.1-.1v-.1.1l-.1.1zm-.4-8.9c-.1 0-.1 0 0 0zm0-.8h.1v-.1l-.1.1zm.1-.6c0 .1.1.1 0 0 .1-.1 0-.1 0 0zm0 .2s.1.1 0 0l.1.1.1-.1.1-.1-.3.1zm.1.3l-.1.1.1-.1zm-.1 1.2h.1c.1 0 .1 0 0-.1l-.1.1zm.3-1.8l-.2.1.2-.1c.1 0 .1 0 0 0 0-.1 0-.1 0 0zm0 1.7l.1-.1-.1.1zm.1-.1c0 .1 0 .1 0 0 .1-.1.1-.1 0 0zm.4 5.6l-.1.2-.1.1c-.1 0-.1 0 0 .1l-.2.2c-.1.1-.1.1 0 .2l.1-.2.1-.2.1-.2.1-.1c0-.1.1-.1 0-.1zM141 .9l.1-.1-.1.1zm.4 1.1v.1h-.2l-.1.2h.2l.1-.1c.1 0 .1 0 0-.1l.1-.1.1-.1c-.2 0-.5.1-.6.3l.2-.1.2-.1zm-.3-1.7l.1.1-.1-.1zm0 10.8c0 .1 0 .1 0 0zm.2-10.3c0-.1-.1-.1 0 0zm.7 10.3l-.1.2-.1.2-.2.3h-.1l-.1.2v.1l.1-.3.1-.1.1-.2c.3-.2.3-.3.3-.4zm-.4-3.1c-.1 0-.1 0 0 0 0 0 0-.1 0 0 0-.1 0-.1 0 0zm0-7.3c0 .1 0 .1 0 0-.1 0-.1 0 0 0zm.1 9.6c-.1 0-.1 0 0 0l-.1.1v.1-.1l.1-.1c.1-.1 0-.1 0-.1v.1zm.1-.3l-.1.1c.1.1.1 0 .1-.1l.1-.1-.1.1zm.2-9.7l-.1.1.1-.1zm-.1 1.1c0-.1 0-.1 0 0zm.2 8.1l-.2.2c-.1.1-.1.1 0 .2l.1-.2.1-.2c.1 0 .1 0 0 0zm0-.7c.1.1.1.1 0 0zm.2.5c.1 0 0 0 0 0zm.3-1.3l-.2.2v.2l.1-.2.1-.2zm0 2c.1.1.1.1 0 0 .1 0 .1 0 0 0zm.5-3.8c-.1.1-.1.1 0 0l-.1.1v.2l.1-.2c-.1 0 0 0 0-.1l.1-.1-.1.1zm-.1 4.6zm.1-.1c-.1 0-.1 0 0 0-.1.1 0 .1 0 0l.1-.1-.1.1zm0 .7c-.1 0-.1.1 0 0 0 .1 0 .1 0 0zm.1-.8l.1-.3-.1.3zm.1-4.8s.1 0 0 0c0-.1-.1-.1 0 0zm0 3.5l.3-.3.1-.3-.2.2-.2.4zm0 1.9c.1 0 .1 0 0 0 .1-.1.1-.1 0 0zm.1-.9l.1-.1c.1 0 0 0 0-.1l-.1.1c-.1 0 0 .1 0 .1zm.2-5.3l.1-.3-.1.3c-.1 0-.2.1-.2.3l.2-.3zm-.2 6l.1-.1c.1-.1.1-.1 0-.1l-.1.1v.1zm.2-1.1l.1-.1-.1.1zm.1.8s0-.1 0 0c0-.1 0-.1 0 0-.1 0-.1 0 0 0zm0-.1l.1-.1-.1.1zm.1-.9c0 .1 0 0 0 0zm0 .7c.1.1.1.1 0 0 .1-.1.1-.1 0 0zm1-3.1l-.1.2.1-.2c0 .1 0 .1 0 0zm.3 1.2c0 .1 0 .1 0 0zm.1-.2c.1.1.1 0 0 0zm.5-.7l-.1.2.1-.2zm0 0c0 .1.1.1 0 0 .1-.1 0-.1 0 0zm.1-.3c-.1.1-.1.1 0 .2v-.2l.1-.2c.1 0 .1 0 0-.1-.1 0-.1 0 0 .1l-.1.2zm.3-.4c.1-.1 0-.1 0 0-.1 0-.1 0 0 0zm0-2c.1.1.1.1 0 0zm.2 1.6s0 .1 0 0l-.1.2.1-.1v-.1c.1 0 .1 0 0 0 .1-.1 0-.1 0-.1v.1zm.1-.3l-.1.1.1-.1c.1 0 .1 0 0 0z"/>
	</g>
  </svg>
  