<svg xmlns="http://www.w3.org/2000/svg" viewBox="0 0 314.64 41.057">
  <g transform="translate(1410.37 -919.608)" fill="#006938">
    <path d="M-1398.721,992.165a.54.54,0,0,0,.848.029C-1398.159,992.227-1398.424,991.836-1398.721,992.165Z" transform="translate(-6.994 -43.482)"/>
    <path d="M-1396.71,989.669c.289-.122.549.344.848.028C-1396.141,989.608-1396.4,989.208-1396.71,989.669Z" transform="translate(-8.201 -41.933)"/>
    <path d="M-1390.92,992.452c-.19.162-.1.3-.308.467.3.19.316-.106.766-.231C-1390.607,992.473-1390.768,992.534-1390.92,992.452Z" transform="translate(-11.493 -43.734)"/>
    <path d="M-1370.406,1010.976l.36.333c.206-.336.383-.129.587-.392C-1369.756,1010.6-1370.074,1010.618-1370.406,1010.976Z" transform="translate(-23.994 -54.686)"/>
    <path d="M-1392.532,989.452c-.032.137-.071.273-.2.193-.155.275.469.516.649.223C-1392.067,989.53-1392.3,989.776-1392.532,989.452Z" transform="translate(-10.575 -41.933)"/>
    <path d="M-1367.112,1011.072c.364-.029.362.275.542.5a.731.731,0,0,0-.144-.881C-1366.844,1010.816-1366.979,1010.945-1367.112,1011.072Z" transform="translate(-25.971 -54.685)"/>
    <path d="M-1378.791,994.54c-.13.327.537.4.758-.049C-1378.266,994.1-1378.554,994.853-1378.791,994.54Z" transform="translate(-18.95 -44.889)"/>
    <path d="M-1356.163,1010.59c-.017.491-.177.3-.6.568a.509.509,0,0,0-.172-.346.525.525,0,0,1-.758.044c-.256.223-.492.444-.506.653.141.024.416-.14.28.074.181.2.394-.3.587-.392.135.329.442.448.821.575.026-.719.67-.7,1.183-.956C-1355.608,1010.8-1355.9,1010.935-1356.163,1010.59Z" transform="translate(-31.324 -54.624)"/>
    <path d="M-1375.719,994.915c.121.112.241.221.361.332.018-.133.13-.39.3-.286C-1374.9,994.7-1375.53,994.522-1375.719,994.915Z" transform="translate(-20.804 -45.075)"/>
    <path d="M-1372.554,988.283a.87.87,0,0,0,.868-.322C-1371.979,987.913-1372.52,987.834-1372.554,988.283Z" transform="translate(-22.704 -41.015)"/>
    <path d="M-1337.763,1016.143c-.253.043-.5-.012-.768.22A.442.442,0,0,0-1337.763,1016.143Z" transform="translate(-43.131 -57.958)"/>
    <path d="M-1364.514,988.525a.918.918,0,0,0-.948.057C-1365.15,988.61-1364.855,989.043-1364.514,988.525Z" transform="translate(-26.962 -41.314)"/>
    <path d="M-1340.471,1000.447a.563.563,0,0,1-.37-.16c-.168.6-.627.149-.507.652C-1340.943,1001.074-1340.978,1000.673-1340.471,1000.447Z" transform="translate(-41.427 -48.438)"/>
    <path d="M-1359.151,983.54c-.3.418.452.521.721.67C-1358.3,983.911-1358.974,983.949-1359.151,983.54Z" transform="translate(-30.709 -38.384)"/>
    <path d="M-1349.387,985.517c.318-.052.624.086.956-.231a4.629,4.629,0,0,1-1.118-.293C-1349.885,985.187-1349.052,985.32-1349.387,985.517Z" transform="translate(-36.467 -39.255)"/>
    <path d="M-1323.31,1009.775c-.143.558.554.069.749.142C-1322.425,1009.464-1323.116,1009.833-1323.31,1009.775Z" transform="translate(-52.258 -54.082)"/>
    <path d="M-1323.228,1004.547a.566.566,0,0,0-.035.713c.285-.456.672-.033.685-.477C-1322.782,1004.453-1323.03,1005-1323.228,1004.547Z" transform="translate(-52.231 -50.996)"/>
    <path d="M-1308.3,1017.367c.336.194.676.344,1.039.042A1.948,1.948,0,0,0-1308.3,1017.367Z" transform="translate(-61.282 -58.654)"/>
    <path d="M-1353.744,973.663c.352-.258.124-.481-.153-.7-.131.127-.263.254-.4.38C-1354.122,973.653-1353.92,973.421-1353.744,973.663Z" transform="translate(-33.667 -32.031)"/>
    <path d="M-1348.18,978.872c.234.365.492.249.74.314C-1347.313,978.908-1347.959,978.446-1348.18,978.872Z" transform="translate(-37.338 -35.477)"/>
    <path d="M-1349.349,973.08c.059.087.123.044.189-.01.735.408,1.516-.078,2.256.231.434-.32.179-.605.424-.913-.415-.243-.351.324-.677.3-.344-.213-.092-.437-.45-.419-.036.488-.574.387-.884.671-.205-.324-.43-.209-.641-.41C-1349.565,972.736-1348.916,972.877-1349.349,973.08Z" transform="translate(-36.636 -31.618)"/>
    <path d="M-1310.038,1005.308c.22-.476-.365.091-.46-.245-.4.225-.166.422-.318.637a2.809,2.809,0,0,0,.74.324c.271-.3-.2-.444-.451-.427C-1310.718,1005.5-1310.148,1005.257-1310.038,1005.308Z" transform="translate(-59.771 -51.306)"/>
    <path d="M-1363.971,955.147c-.313-.078-.611-.352-.939-.119C-1364.6,955.207-1364.31,955.6-1363.971,955.147Z" transform="translate(-27.293 -21.21)"/>
    <path d="M-1365.1,953.388c-.159.324.478.3.658.05C-1364.642,952.959-1364.89,953.511-1365.1,953.388Z" transform="translate(-27.162 -20.191)"/>
    <path d="M-1362.312,953.44a.615.615,0,0,0,.153.7c.261-.223.167-.424.317-.642C-1362,953.425-1362.16,953.538-1362.312,953.44Z" transform="translate(-28.817 -20.312)"/>
    <path d="M-1307.227,1005.739c-.055.555.745.135,1.019.4C-1305.923,1005.536-1306.9,1005.669-1307.227,1005.739Z" transform="translate(-61.924 -51.674)"/>
    <path d="M-1368.6,939.462c-.42.213-.826.189-1.263.7C-1369.582,940.25-1369.14,939.967-1368.6,939.462Z" transform="translate(-24.32 -11.92)"/>
    <path d="M-1299.394,1006.111c.014-.29-.448-.649-.739-.326C-1300.15,1006.059-1299.693,1006.537-1299.394,1006.111Z" transform="translate(-66.184 -51.663)"/>
    <path d="M-1346.834,959.6c-.31.5-.582.279-.876.494C-1347.415,960.43-1346.33,960.078-1346.834,959.6Z" transform="translate(-37.62 -24.014)"/>
    <path d="M-1331.852,973.479c.045.478.92.433,1.327-.065-.189-.112-.092-.235.02-.358C-1330.928,972.655-1331.424,973.727-1331.852,973.479Z" transform="translate(-47.141 -32.035)"/>
    <path d="M-1357.43,947.418a.762.762,0,0,0,1.128.113C-1356.687,947.653-1357.033,947.066-1357.43,947.418Z" transform="translate(-31.784 -16.628)"/>
    <path d="M-1291.818,1006.352c-.892.091-1.278-.927-2,.166.141.018.282.04.181.171C-1293.012,1006.258-1292.44,1006.8-1291.818,1006.352Z" transform="translate(-69.978 -51.873)"/>
    <path d="M-1336.647,960.175a.563.563,0,0,1-.37-.159.794.794,0,0,1-.307.462C-1337.122,960.858-1336.875,960.314-1336.647,960.175Z" transform="translate(-43.856 -24.26)"/>
    <path d="M-1287.394,1006.318c-.2-.465-.462.4-.657-.068-.134.143-.268.28-.389.2-.239.332.287.095.361.342C-1288.235,1006.249-1287.747,1006.736-1287.394,1006.318Z" transform="translate(-73.167 -51.974)"/>
    <path d="M-1284.65,1006c-.043.628-.563.141-.874.477.6.118.7.814,1.21.4C-1284.888,1006.6-1284.125,1006.275-1284.65,1006Z" transform="translate(-74.955 -51.867)"/>
    <path d="M-1335.424,949.886c-.373.3-.515.23-.7.659C-1335.682,950.619-1335.047,950.314-1335.424,949.886Z" transform="translate(-44.579 -18.178)"/>
    <path d="M-1277.462,1006.415c.357.393.754.036,1.128.14.182.2-.057.417-.317.632.652.217.655-.672,1.544-.585-.173-.375-.2-.2-.541-.515-.432.349.141.1.261.436C-1276.082,1006.582-1276.751,1006.042-1277.462,1006.415Z" transform="translate(-79.796 -51.921)"/>
    <path d="M-1300.059,976.276c.4.239.892-.169,1.066-.489C-1299.4,975.755-1299.875,975.78-1300.059,976.276Z" transform="translate(-66.229 -33.723)"/>
    <path d="M-1314.654,961.382c.345.014.1.117.361.339.175-.215.082-.417.126-.627C-1314.32,961.006-1314.49,961.256-1314.654,961.382Z" transform="translate(-57.466 -24.896)"/>
    <path d="M-1291.734,962.809c-.4.179-1.128-.15-1.246.316A1.3,1.3,0,0,0-1291.734,962.809Z" transform="translate(-70.479 -25.937)"/>
    <path d="M-1306.084,937.353c-.156-.089-.323.161-.489.287.209.226.436.118.649.239C-1305.589,937.685-1306.418,937.542-1306.084,937.353Z" transform="translate(-62.318 -10.642)"/>
    <path d="M-1317.121,925.572c-.372.1-1.067.022-1.155.41C-1317.909,926.185-1317.52,925.962-1317.121,925.572Z" transform="translate(-55.292 -3.581)"/>
    <path d="M-1268.1,969.338c.186-.28-.4-.484-.557-.162.119.115.241.231.359.344C-1268.269,969.387-1268.234,969.25-1268.1,969.338Z" transform="translate(-85.079 -29.661)"/>
    <path d="M-1299.419,932.47c.179-.216-.042-.413-.062-.621.27-.176.665.126.677-.294-.214-.127-.456.3-.66-.063-.2.64-.711.154-1.164.581C-1300.232,932.35-1299.8,931.987-1299.419,932.47Z" transform="translate(-65.887 -7.135)"/>
    <path d="M-1263.894,963.339c.158-.01.306.184.468.078a.349.349,0,0,0-.251-.618C-1264.109,962.99-1263.461,963.148-1263.894,963.339Z" transform="translate(-87.942 -25.931)"/>
    <path d="M-1285.5,931.4c-.445.084-.9.357-1.328.047C-1286.817,931.89-1285.576,931.967-1285.5,931.4Z" transform="translate(-74.171 -7.078)"/>
    <path d="M-1287.6,923.253c-.32.091-.629-.055-.958.214C-1288.258,923.727-1287.937,923.634-1287.6,923.253Z" transform="translate(-73.133 -2.188)"/>
    <path d="M-1274.21,934.415a.925.925,0,0,0-.948.03C-1274.845,934.507-1274.541,934.732-1274.21,934.415Z" transform="translate(-81.179 -8.819)"/>
    <path d="M-1266.054,935.694c.107-.15-.142-.29-.261-.437-.132.124-.265.245-.4.368C-1266.5,935.774-1266.265,935.544-1266.054,935.694Z" transform="translate(-86.25 -9.395)"/>
    <path d="M-1263.12,935.1c.236.312.506-.02.748.156C-1262.246,935.06-1262.9,934.665-1263.12,935.1Z" transform="translate(-88.407 -9.184)"/>
    <path d="M-1229.6,963.278c-.3.056-1.2.412-.705.815.1-.061.057-.12.01-.179.133-.092.246.083.37.171.231-.108.148-.632.5-.454C-1229.091,963.3-1229.942,963.535-1229.6,963.278Z" transform="translate(-108.019 -26.219)"/>
    <path d="M-1226.362,963.225c-.151-.145-.3-.292-.45-.436-.208.329-.385.113-.587.367.118.181.248.092.38-.007.136.114.271.232.17.352C-1226.7,963.593-1226.525,963.346-1226.362,963.225Z" transform="translate(-109.853 -25.925)"/>
    <path d="M-1221.4,967.138c-.236-.314-.5-.086-.768.191A.8.8,0,0,0-1221.4,967.138Z" transform="translate(-112.996 -28.445)"/>
    <path d="M-1250.058,936.143c-.478.012-.144.455-.226.718C-1249.879,936.96-1249.888,936.326-1250.058,936.143Z" transform="translate(-96.09 -9.927)"/>
    <path d="M-1250.552,934.505c-.483.2-.93-.35-1.435.306C-1251.5,934.944-1250.8,935.181-1250.552,934.505Z" transform="translate(-95.09 -8.927)"/>
    <path d="M-1247.608,936.935c-.312-.084-.631.016-.938-.154-.087.122.112.234-.019.356C-1248.245,937.05-1247.938,937.2-1247.608,936.935Z" transform="translate(-97.143 -10.31)"/>
    <path d="M-1244.205,939.33c-.411.276-.377.544-.516.814C-1243.883,939.948-1243.7,940.24-1244.205,939.33Z" transform="translate(-99.453 -11.841)"/>
    <path d="M-1215.027,967.043a.67.67,0,0,0,.948-.014C-1214.392,966.964-1214.7,966.726-1215.027,967.043Z" transform="translate(-117.281 -28.383)"/>
    <path d="M-1203.517,967.007c-.629-.307-.683.407-.326.805.915-.518,1.675-.115,2.221-.826a6.19,6.19,0,0,0-2.1.38C-1203.816,967.246-1203.622,967.127-1203.517,967.007Z" transform="translate(-123.863 -28.413)"/>
    <path d="M-1230.412,937.835c.488.232.206-.694.5-.455C-1229.861,936.8-1230.562,937.636-1230.412,937.835Z" transform="translate(-108.031 -10.548)"/>
    <path d="M-1228.292,937.365a.837.837,0,0,0-.866.283A.692.692,0,0,0-1228.292,937.365Z" transform="translate(-108.797 -10.639)"/>
    <path d="M-1191.844,966.975c-.225.074-.434-.147-.668.1.12.118.242.233.36.351C-1191.961,967.271-1192.052,967.126-1191.844,966.975Z" transform="translate(-130.798 -28.425)"/>
    <path d="M-1214.042,942.477c.151-.211-.079-.415.317-.629C-1214.169,941.754-1214.731,942.434-1214.042,942.477Z" transform="translate(-117.678 -13.347)"/>
    <path d="M-1178.923,921.944a1.945,1.945,0,0,0-.878.448C-1179.361,922.918-1178.976,922.295-1178.923,921.944Z" transform="translate(-138.43 -1.402)"/>
    <path d="M-1155.881,922.248c.394.332.378-.454.857-.087.179.335-.374.232-.5.443.373.207.7-.052.876-.441-.249-.031-.342-.122-.36-.357.434-.45.81.234,1.246-.263-.222-.007-.449.091-.65-.27a.949.949,0,0,1-1.328,0C-1155.758,921.594-1155.339,921.922-1155.881,922.248Z" transform="translate(-152.791 -0.997)"/>
    <path d="M-1145.891,922.53c-.327-.309-.893.463-.559-.181-.239-.209-.363.272-.4.354.12.119.239.241.36.358C-1146.108,922.74-1146.1,922.908-1145.891,922.53Z" transform="translate(-158.215 -1.614)"/>
    <path d="M-1143.738,922.981c0-.236.34-.472.6-.708-.09-.088-.181-.176-.27-.268-.1.117-.2.135-.29.086-.023.339.087.233-.306.442C-1143.827,922.683-1143.933,922.831-1143.738,922.981Z" transform="translate(-159.924 -1.439)"/>
    <path d="M-1140.07,924.426c.334-.338.634-.053.967-.347-.4-.208-.833.206-1.219-.277C-1140.516,924.195-1140.186,924.032-1140.07,924.426Z" transform="translate(-162.096 -2.518)"/>
    <path d="M-1136.238,923.8a.687.687,0,0,0,.389-.176.668.668,0,0,0-.261-.446C-1136.4,923.377-1136.505,923.586-1136.238,923.8Z" transform="translate(-164.492 -2.141)"/>
    <path d="M-1134.753,923.9c.19-.133.105-.38.3-.263.109-.146-.142-.3-.261-.448l-.3.265C-1134.841,923.6-1134.946,923.75-1134.753,923.9Z" transform="translate(-165.318 -2.148)"/>
    <path d="M-1132.575,922.418c-.307-.17-.608-.46-.927-.366C-1133.568,922.239-1132.851,922.8-1132.575,922.418Z" transform="translate(-166.224 -1.457)"/>
    <path d="M-1120.165,923.4c.238-.333.454-.229.687-.436-.207-.342-.448.067-.651-.276C-1120.327,922.92-1120.536,923.157-1120.165,923.4Z" transform="translate(-174.111 -1.848)"/>
    <path d="M-1111.716,923.4l-.36-.362c-.131.114-.264.235-.4.35A.527.527,0,0,0-1111.716,923.4Z" transform="translate(-178.852 -2.058)"/>
    <path d="M-1107.1,923.1c-.232-.1-.2.149-.3.261-.195.1-.37-.208-.578.167a11.377,11.377,0,0,0,1.128.2C-1106.533,923.528-1107.42,923.3-1107.1,923.1Z" transform="translate(-181.551 -2.084)"/>
    <path d="M-1104.8,921.016c.214.161.456-.24.669-.077-.033-.336-.283-.385-.641-.457C-1104.948,920.657-1104.541,920.842-1104.8,921.016Z" transform="translate(-183.449 -0.525)"/>
    <path d="M-1100.444,923.681c.6-.5,1.14.01,1.706.036.4-.542-.673-.626-.89-1.087-.111.5.033.549-.608.7-.39-.392-.32-.669-.819-.641C-1101.159,923.2-1100.939,923.3-1100.444,923.681Z" transform="translate(-185.692 -1.814)"/>
    <path d="M-1097.872,922.1a.774.774,0,0,0-1.227-.114C-1098.694,922.12-1098.272,921.9-1097.872,922.1Z" transform="translate(-186.882 -1.276)"/>
    <path d="M-1093.6,920.827c.275-.261-.212-.539.136-.8a.63.63,0,0,0-.577.165c.384.295.4.079-.018.356C-1093.911,920.725-1093.749,920.634-1093.6,920.827Z" transform="translate(-189.907 -0.239)"/>
    <path d="M-1086.713,921.057c-.067-.21.18-.412-.063-.627-.047.324-.135.1-.4.348C-1087.027,921-1086.865,920.962-1086.713,921.057Z" transform="translate(-194.042 -0.494)"/>
    <path d="M-1003.911,927.491a6.55,6.55,0,0,0-1.21-.505,3.2,3.2,0,0,0-.226.7C-1004.889,927.995-1004.4,927.789-1003.911,927.491Z" transform="translate(-243.169 -4.43)"/>
    <path d="M-981.468,925.57c.157-.245-.47-.5-.659-.126C-981.926,925.821-981.681,925.424-981.468,925.57Z" transform="translate(-257.11 -3.392)"/>
    <path d="M-956.843,928.113a3.362,3.362,0,0,0-1.137-.073C-957.994,928.392-957.181,928.443-956.843,928.113Z" transform="translate(-271.607 -5.054)"/>
    <path d="M-944.92,927.706c-.445-.044-1.283.012-1.454.526C-945.913,928.011-945.081,928.05-944.92,927.706Z" transform="translate(-278.575 -4.855)"/>
    <path d="M-921.981,928.34c.038-.277-.726-.547-1.038-.165C-922.679,928.4-922.323,928.222-921.981,928.34Z" transform="translate(-292.597 -5.03)"/>
    <path d="M-898.566,931.5a.61.61,0,0,0-.579.131c.175.163.069.3.26.465C-898.844,931.892-898.6,931.7-898.566,931.5Z" transform="translate(-306.931 -7.121)"/>
    <path d="M-818.793,1020.6c.745.308,1.547-.424,2.292-.113C-816.847,1019.786-818.082,1020.384-818.793,1020.6Z" transform="translate(-355.173 -60.368)"/>
    <path d="M-812.784,1020.151c.3.307.623.259.956-.074A1.291,1.291,0,0,0-812.784,1020.151Z" transform="translate(-358.781 -60.285)"/>
    <path d="M-854.544,930.73a.337.337,0,0,0-.072-.452,3.875,3.875,0,0,0,1.524-.031,2.822,2.822,0,0,0-1.894-.181C-854.638,930.307-854.759,930.5-854.544,930.73Z" transform="translate(-333.443 -6.226)"/>
    <path d="M-846.735,934.507c0-.269.446-.491.135-.789C-846.984,933.692-847.021,934.2-846.735,934.507Z" transform="translate(-338.284 -8.471)"/>
    <path d="M-847.741,931.156c-.212-.177-.46.328-.668.023-.106.138.144.311.261.472A.769.769,0,0,0-847.741,931.156Z" transform="translate(-337.376 -6.91)"/>
    <path d="M-790.944,930.5a.585.585,0,0,0-.577.111c.084.1-.053.171-.109.255C-791.281,931.068-791.117,930.681-790.944,930.5Z" transform="translate(-371.481 -6.518)"/>
    <path d="M-787.33,927.826c-.407-.057-.589.141-.6.466C-787.684,928.479-787.328,927.959-787.33,927.826Z" transform="translate(-373.705 -4.928)"/>
    <path d="M-781.255,930.282c-.165-.44.348-.3.7-.54-1.143-.088-1.912.365-3.17.427A6.412,6.412,0,0,0-781.255,930.282Z" transform="translate(-376.225 -6.077)"/>
    <path d="M-776.565,930.34c.336.275.7-.076,1.056-.144A.762.762,0,0,0-776.565,930.34Z" transform="translate(-380.526 -6.267)"/>
    <path d="M-771.839,930.35c-.055-.305-.749-.545-1.138-.137C-772.6,930.258-772.228,930.5-771.839,930.35Z" transform="translate(-382.68 -6.237)"/>
    <path d="M-769.518,932.28c.277-.348.467-.343.235-.862-.1.588-.783.117-1.164.394A1.934,1.934,0,0,1-769.518,932.28Z" transform="translate(-384.199 -7.09)"/>
    <path d="M-767.649,919.93c-.147-.242-.308-.214-.461-.322-.188.11-.1.37-.3.229C-768.541,920.223-767.858,920.1-767.649,919.93Z" transform="translate(-385.414 0)"/>
    <path d="M-757.586,929.087c.277-.388,1.245.09,1.835-.393-.121-.1-.137-.2-.081-.278-.454.181-.9.094-1.354.365-.457-.5.234-.289.226-.683-.205-.313-.472.5-.677.182-.151.086.393.681-.119.432-.1.046-.057.109-.008.175Z" transform="translate(-391.782 -5.052)"/>
    <path d="M-762.267,919.677a4.6,4.6,0,0,0-1.823.22A2.731,2.731,0,0,0-762.267,919.677Z" transform="translate(-388.016 -0.028)"/>
    <path d="M-750.721,930.017c-.151-.37-.059-.574.417-.661-.369-.247-.761-.076-1.147.032C-751.141,929.389-751.169,929.994-750.721,930.017Z" transform="translate(-395.604 -5.776)"/>
    <path d="M-748.365,927.709c-.647-.219-.771.063-1.346.184C-749.281,928.148-748.819,927.876-748.365,927.709Z" transform="translate(-396.649 -4.815)"/>
    <path d="M-744,928.4c-.03.978,1.384-.052,1.987.347.123-.133-.235-.33-.072-.456C-742.717,928.182-743.393,928.994-744,928.4Z" transform="translate(-400.078 -5.207)"/>
    <path d="M-742.4,926.528c-.647-.388-1.344.184-2.022.36C-743.773,927.234-743.08,926.747-742.4,926.528Z" transform="translate(-399.823 -4.075)"/>
    <path d="M-739.5,924.323c-.3-.28-.649.263-.957.053C-740.534,924.842-739.766,924.418-739.5,924.323Z" transform="translate(-402.202 -2.781)"/>
    <path d="M-739.566,925.856c.531.185,1.055.53,1.624-.054C-738.5,926.145-739.006,925.491-739.566,925.856Z" transform="translate(-402.739 -3.682)"/>
    <path d="M-736.163,926.284c.43.323.89.03,1.355-.354-.542-.487.143-.794.505-.557.24.377-.245.43-.505.557.231.458.513-.127.748.276.207-.769,1.5-1.489,2.1-1.768,0-.633-1.306.335-1.372.706-.042-.531-.713-.195-.442-.681C-734.515,924.931-735.137,925.533-736.163,926.284Z" transform="translate(-404.782 -2.774)"/>
    <path d="M-726.022,926.7c.255-.039.527-.342.776-.25.042-.143-.1-.312.117-.432-.183-.106-.372-.143-.559-.252-.27.205-.086.779-.6.455C-726.391,926.355-726.14,926.536-726.022,926.7Z" transform="translate(-410.698 -3.698)"/>
    <path d="M-722.984,927.669c-.369.159-.271.379-.507.554C-723.2,928.216-722.526,928.068-722.984,927.669Z" transform="translate(-412.391 -4.84)"/>
    <path d="M-721.435,926.778c.1-.327-.006-.356.407-.478-.3-.316-.642.113-.956.047C-722.178,926.747-721.558,926.437-721.435,926.778Z" transform="translate(-413.273 -3.947)"/>
    <path d="M-1406.6,988.5c-.258-.481-.56-.126-.847-.028-.583-.764-1.547-.238-1.86-.575-.44.415.453.629.632.577-.4.444-.745-.219-1.146.262-.134-.2.314-.438-.062-.619-.165.184-.32.1-.488.3.766-.008-.393,1.622.452.411a5.376,5.376,0,0,1,2.444.175c.387-.419.506-.287.66.041.085-.125-.112-.229.018-.357.367-.21.1.332.449.412.1-.432.3-.4.812-1.125C-1405.872,987.843-1406.242,988.274-1406.6,988.5Z" transform="translate(0 -40.998)"/>
    <path d="M-1387.628,995.26c-.207.765-.719.292-1.165.611a2.226,2.226,0,0,0,1.516-.1C-1387.615,995.616-1387.371,995.42-1387.628,995.26Z" transform="translate(-12.954 -45.42)"/>
    <path d="M-1358.309,944.326a.349.349,0,0,0-.132-.021A.13.13,0,0,0-1358.309,944.326Z" transform="translate(-31.177 -14.827)"/>
    <path d="M-1080.5,931.392c-.8-.518-2.092-.56-2.3-1.714-.392.442-1.084.15-1.184.7.123.111.257-.044.389-.115.177.368-.048.224-.306.4-.235-.377-.484-.5-.739-.476-.268-.249-.159-.44.125-.6-.243-.1-.473-.046-.487.187-.575-.717-1.929-.322-2.861-.1-1.033-.946-2.165.057-3.276.55-.061-.068-.119-.138-.182-.208.466-.891,1.526-.8,2.079-1.362-.179-.281-.378-.092-.551-.444-1.648.781-2.64.3-4.24.761-.055-.1.009-.178-.082-.281a2.783,2.783,0,0,0,1.761-.794c-.241-.3-.509-.02-.749-.293.1.389-.152.445-.488.189a.99.99,0,0,1-.036.708c-.549-.28-1.8-.1-1.563.647-.24.252-.085-.568-.459-.337-.053-.187.381-.135.217-.5-.382-.11-.737.534-.615.8-.259.1-.2-.5-.443-.691-.513.188-.2.506-.514.722-.252.171-.318-.323-.171-.383-.392-.218-.315.357-.406.474a1.08,1.08,0,0,1-.541-.615c.239-.3.454-.164.688-.342-.555-.385-.825.222-.8.592-.673.007-1.281-.037-1.752.625-.483-.308.072-.462-.153-.734.388-.094.771-.111,1.155-.183-.352-.408-.332-.76.056-1.059a.277.277,0,0,0-.487.193c-.037-.432-.451-.087-.541-.616a2.157,2.157,0,0,1-1.733.277c-.129-.275.519-.394.668.01.1-.046.057-.108.01-.176l.2-.148c-.362-.37-.758-.1-1.146.006-.174-.381.046-.706-.133-1.087-.212.35-.219.176-.6.445-.346-.259-.227-.45-.442-.688-.245.114-.2.267-.306.4-.26-.214-.014-.359-.352-.586a4.652,4.652,0,0,1-1.714-.073c-.237-.426.231-.2.5-.547-.273-.276-.585.227-.848-.213,0,.145-.217.264-.117.428-1.374-.509-2.81.168-4.187-.248-.1.1.08.251.171.38-.231.2-.465.377-.687.348-.324-1.446-1.868.154-2.661-.2.28-1.236,1.29-.766,2.068-1.222-.4-.331-.9.243-1.029-.412-.2.149-.4.3-.6.449-.231-.18-.169-.323-.262-.481.253.045.526-.321.769-.07-.126-.411.245-.194.315-.58-.406-.746-.931.782-1.336-.007-.443.441-.905.881-1.309,1.329-.371-.288-.163-.5.037-.706-.295-.488-.625-.2-.939-.308.055.246-.041.469-.416.655.184.125.391-.15.56.255a.783.783,0,0,1-.948-.131l-.894.679c-.135-.54.193-.4-.451-.508-.442-.3.231-.442-.152-.732-.162.847-.68.521-1.3,1.159a11.7,11.7,0,0,1-1.688-.585c-.464.793-1.021.89-1.688,1.289-.42-.291.337-.433.227-.682-.869-.026-1.774,1.083-2.186,1.669.884.3,1.184-.845,1.769-1.013a.335.335,0,0,1,.072.454c.241.192.632-.319.407-.48.778.788,2.378-1.16,3.438-.071-.686.964-2.142.86-3.086.652-.635,1.164-1.975.921-3.2.913a3.109,3.109,0,0,0,.651-1.517c-.274.344-.516.142-.787.43-.821-1.05-1.186.4-1.975-.523a6.645,6.645,0,0,1-1.452.434c.253.182-.061.287.072.455-.261.1-.51-.033-.777.257-.42-.383.117-.53.406-.482-.077-.412-1.182-.017-1.163.386-.378-.076-.776.237-1.129-.323-.533-.106-1.119.754-1.642.418-.333-.547.254-.979.552-1.445-.689-.006-1,.7-1.932.472-.327-.38-.143-.439-.551-.424-.323.3.585.181.262.478a1.289,1.289,0,0,0,.856.017c.126.471.043.416.552.426.091.127-.106.224-.209.329-.262.128-.481-.53-.739-.448,0,.148-.219.269-.117.43-.324.109-.632-.108-.947-.117-.133-.251-.036-.331.207-.329.185-.072.075.158.269.3.058-.259.2-.508-.052-.808-1.338,1.274-2.6,1.113-3.9,1.659-.138-.135-.273-.271-.173-.377a2.665,2.665,0,0,1-1.75.682c-.072-.466.964-.6.9-.871.255.417.5.227.1-.076a7.7,7.7,0,0,1-2.88.368c-.3-.631,1.008-.3,1-.951-.369-.01-.483-.211-.677.187-1.237-.581-3.508.6-4.8.691-.272-.269.758-.388.227-.687-.186.49-.665.589-1.086.678a1.193,1.193,0,0,0,.85.187c.053.093-.01.176.079.276-.585.266-1.122-.43-1.724.159-.173-.167-.068-.3-.26-.475-.466.373-.892.045-1.346.205a.335.335,0,0,1-.072-.453c-.214-.16-.455.222-.659-.164-.2.1-.117.226-.017.355a22.606,22.606,0,0,0-4.667-.065c-.135-.2-.036-.361.217-.511-.282-.07-.577.114-.859,0-.465.188.183.5-.225.688-.424-.4-.873-.286-1.334.037-.26-.207-.018-.359-.354-.572-.174.19.05.42-.127.609-.513-.55-.437.012-1.146.058-.259-.206-.015-.357-.352-.571a.34.34,0,0,0,.072.454c-.6.212-1.884-.483-1.849-1.084-.9.265.7.586.135,1.083-.326-.038-.221-.27-.64-.511-.452.31-.971-.068-1.174.592-.416-.027-.89,0-1.021-.55-.166.132-.331.265-.5.4.334.5.134-.366.468.137-.275.639-1.658.062-2.5.46.146-.345.069-.653.515-.751-.644-.54-.788.623-1.462.657-.414-.6-.881-.134-1.335.049-.511-.539-1.061-.347-1.606-.245-.124-.4.5-.1.685-.38-.181-.283.281-.5.138-.787-.535.493-1.289.526-1.77,1.075-.148-.181-.383-.045-.748-.248-.192-.536,1.137-.016.415-.673.3-.335.562.15.867-.184-.269-.442-1.083.229-1.028-.365-.318.295-.655.13-1.167.423.044-.722-.547-.05-1.02-.54-.6.48-1.157.286-1.741.549a.487.487,0,0,0,.74.425c-.068.611-.9.2-1.246.152a.552.552,0,0,1,.317-.594c-.06-.293-.333-.323-.343-.743-.052.8-.563.176-1.084.7.2.483.446-.034.65.326-.318.018-.651.318-.948-.086-.09-.179.164-.064.3-.24-.132-.185-.4-.117-.27-.292-.345-.3-.144.571-.478.046.089.3.268.617-.046.885-.456-.033-.019-.3-.352-.565-.264.185-.172.4-.127.612-.159.018-.311-.141-.478.046-.484-.431.314-.744-.036-1.161-.111.229-.283.45-.226.692-.336.372-.611-.436-.957.093-.346-.241-.227-.435-.441-.661-.432.332-.83.073-1.238-.02-.249.6-.948.378-1.444.318-.256-.2.5-.31.027-.532-.438.522-.9.213-1.534.225-.4.175.161.429-.126.613-.555.061-.084-.535-.533-.759-.251.007-.354.093-.4.324-.9-1.05-1.925.395-2.844-.237-.342.577-.547.468-1.182.795-.171.005-.279-.366-.651-.319-.09-.456.573-.2.786-.47-.577-.314-1.025.023-1.445.327-.469-.183-.245-.38-.532-.755-.381.1-.594-.169-.777.294-.119-.127-.24-.254-.36-.382.152.49-.861.623-1.236-.007-.315.63-.575.338-1.057.184-.4.293.04.106.173.369-.234.222-.444-.018-.669.037-.354-.443-.1-.432.037-.707a1.45,1.45,0,0,1-1.2-.716.213.213,0,0,1,.289-.066c-.051-.34-.937-.219-1.318-.277.99.318.8.887,1.751,1.111-.914.7-1.005-.593-1.689-.483.014.386.713.826.605,1.2-.247-.356-.9-.328-1.1-.794-.276.363-.291.748-.534,1.118.126-.629-.35-.617-.713-.944-.179-.252.417-.444.036-.71-.175.278-.263.274-.226.7-.252,0-.595-.345-.389.15a1.889,1.889,0,0,1-.828-.506c-.006-.275.866.021.7-.573-.517.289-2.819.935-2.374-.082-.283-.048-.589.36-.857.028-.426.822-1.417.106-2.143.918-.152-.6-.745-.25-.53-.749-.319-.154-.259.447-.694.576-.726-.086-1.44-.374-2.2.12a.387.387,0,0,0-.758-.051c-.259-.486-.561-.2-.83-.5.078.294.223.308.343.734a1.159,1.159,0,0,1-.922-.594c-.5-.113-.272.512-.946-.06-.044.143.1.3-.119.436a1.5,1.5,0,0,1,1.218.345c-.694-.047-1.387-.144-2.084-.133-.055-.091.01-.175-.082-.271.326-.151.911.248.966-.3-.488-.3-.944.39-1.6-.191-.134.125-.268.25-.389.154a.33.33,0,0,0,.072.449c-.427.286-.823-.062-1.246.189-.337-.2-.094-.362-.353-.554-.373.208.189.453-.308.424-.35-.252.233-.428-.26-.46-.271.128.03.3-.118.437-1.442-1.131-3.25-.144-4.431-.707-.152-.184.281-.337.217-.522-.527-.2-1.107.583-1.607-.18a.337.337,0,0,0,.072.45c-.207.312-.384.083-.586.321-.239-.162-.03-.3.118-.438-.271-.247-.571.014-.85-.135-.1.114.081.243.171.365-.2.3-.379-.019-.578.145-.025-.149.136-.287-.072-.448-.131.11-.265.224-.4.334-.259-.191-.014-.356-.352-.553a13.863,13.863,0,0,1-2.76.12l.268.281c-.251-.024-.526.371-.766.138-.24-.163-.031-.3.117-.439a2.629,2.629,0,0,0-1.824.352c-.136-.376-.359-.473-.748-.216.474.366.04.354-.219.523.873-.142,1.228.385,2.175.2.106-.161-.089-.073-.179-.187.211-.388.367.239.579-.148.285.453.293.338.72.749-1.095-.42-2.623.273-3.4-.352-.063.085-.009.181-.109.262-.37.17.1-.335-.26-.457-.607.7-1.153.241-1.717.093-.176.485-.573.434-.965.311.149-.35.5-.691.245-1.057.284-.1.758.057.777-.319-.366.046-.376-.035-.55-.382-.167.395-.418.3-.507.6-.324.125-.622-.225-.958.132-.357-.661-1.214-.339-1.894-.087,0-.541-.341-.506-.85-.127a.337.337,0,0,1,.12-.44c-.62-.275-1.284.306-1.906.095-.177.169.229.365-.027.531-.2.242-.355-.469-.568-.023a.327.327,0,0,1-.072-.45c-.3-.09,0,.493-.488.247-.233-.189-.314-.369-.162-.54-.488.244-1.335-.261-1.535.291-.257-.187-.013-.358-.352-.547-.023.552-.5.067-.478.069-.67.053-.907.757-1.625.2-.144.52-.923.246-1.345.3-.026-.151.135-.291-.072-.449-.314.572-.755,0-1.264.575-.163.368.47.489.65.293.168.082-.451.4-.587.335-.194.419.425.114.559.2.091.151-.172.292-.307.434-.154.044-.52-.572-.946-.034-.238-.217-.458-.432-.253-.633-.331-.327-.7.134-1.029-.3-.1.233,0,.541-.406.52a3.1,3.1,0,0,1,1.688-1.453,8.327,8.327,0,0,1-.928-.389c-.147.172-.2.534-.487.249-.1.143,0,.3-.118.441-.433.228-.235-.218-.64-.468.05.746-1.629.809-1.806.028-.017.442-.4-.012-.686.42.3.329.638-.119.937.211-.022.332-.816-.006-1.136-.039a.836.836,0,0,1-.407.521c-.234.2-.211-.285.019-.356-.328-.145-.368.454-.128.619.229-.123.438.109.676-.245.085.181.083.36.163.54-.456.247-.87-.311-1.326-.043-.087-.344.692-.979.055-1.067.1.484-.141.243-.5.429-.037-.529.33-.228-.352-.545-.051.343-.089.461-.505.607-.134-.681-.718.221-1.119-.388,1.147-.07,2.059-.607,3.331-.163-.451-.613.88-.248.713-.955-.149-.177-.311-.091-.458-.283-.2.577-.981.133-1.129-.215.255.519-.459.457-.144.973-.253-.035-.519.249-.76-.023-.181-.291.762.051.119-.442.211-.388.368.233.578-.159-.176-.156-.068-.3-.261-.453-.572.579-.716.113-.84-.295-.039.745-1.229.227-1.823.388-.211.332.024.237.262.453-.654.585-1.681.008-2.022.563-.377-.219.07-.411-.063-.624a4.417,4.417,0,0,1,1.516.044.558.558,0,0,0,.037-.711c-.135.18-.258.091-.378-.012a.357.357,0,0,0-.02.357c-.511-.55-1.95-.036-2.3.469.267-.9-.671-.449-.892-1.094a.386.386,0,0,1-.48.077c-.195.477.425.1.551.371.151.374-.406.607-.912,1.131-.42-.5.42-.5.425-.878-.463-.35-.375.035-.867.245.153.211.043.418.063.625-.228.129-.428-.286-.668.072.393.369.84-.37,1.218.3a2.106,2.106,0,0,1,1.455-.583c.161.223-.436.135-.578.162-.159.263.284.316.372.137-.081,1.525-2.75.12-4.209.655.136.122.271.244.17.36.207.266.46-.265.66.107.043.253-.718.567-.958.153.182.424-.643.973-.974.512-.11-.1.579-.375.766-.161-.112-.527.221-.516.335-.971-.407-.212-.276-.34-.732-.552.685-.188,1.071.18,1.924-.487-.387-.427.049-.421-.533-.726,0,.3.351.6-.234.886a7.418,7.418,0,0,0-1.9-.045c.234.182.315.361.162.538a2.792,2.792,0,0,0,.848.108c-.028.252-.4.4-.6.521-.189-.125-.092-.243.019-.356-.538-.246-.159.507-.777.339-.026-.265.217-.529.138-.8-.693.659-1.954-.024-2.692.654-.129-.211.121-.415-.251-.629-.359.2-.694-.044-1.067.424a.784.784,0,0,1,.354.541c-.454.2-.887.03-1.346.328-.2-.356.356-1.021.785-.519-.2-.273.164-.531-.053-.8-.412.622-.837.368-1.652.769.2.37.453-.162.659.1-.034.437-.562.063-.876.429-.175-.15-.068-.3-.262-.45-.247.96-1.108-.04-1.633.416-.245-.663.745-.466.8-.876-.091-.083-.193.037-.289.085-.414-.187.251-.352-.163-.537-.346.268-.85-.033-.686.434-.337.388-.624-.187-.947-.016-.067-.236.117-.573.4-.349-.051-.617-1.24.487-1.308-.376l-.6.524c.233.151.17.3.262.45-.374.212-.371-.128-.551-.365-.61.707-1.153.026-2.166-.3-.575.5-1.788-.237-2.662.148-.031.421.4.1.65.273-.153.469-1.092.36-1.534.341-.144-.444.6,0,.5-.441-.288-.2-.516-.336-.54-.538-.234.18-.671.718-1,1.058-.437.129-.314-.468-.631-.63-.227-.061-.962.475-.847-.1a2.94,2.94,0,0,1-2.194.25c-.426-.271.372-.531-.054-.8-.557.264.138.533-.325.8-.435.261-.443-.452-.722-.717-.261.177-.5-.079-.758,0,.082-.237.006-.476-.341-.714-.019.13-.134.382-.3.265-.233.251.291.033.36.357-.268.318-.506.028-.757,0-.211.235.345.325.46.269a2.148,2.148,0,0,1-.127.623c-.365.02-.361-.307-.578.174-.4-.4.112-.314.126-.622-.382-.243-.358.208-.5.444-.45.146-.882-.077-1.328,0-.017-.267.3-.533.327-.8-.416-.133-.783-.839-1.3-.536-.352-.543-.427-.835-1.281-.893.243.18.566.193.542.536-.3.253-.577.127-.858.087-.2.179.118.354-.216.533.367-.04,1.043.444,1.136,0,.046.208.138.416-.128.623-.328.048-.206-.5-.667.087-.415-.177.252-.354-.161-.533.052.539-.466.519-.868.266-.25.338.107.422.36.355-.167.173-.318.081-.488.269-.1-.206-.65-.416-.441-.624-.166-.048-.833.5-.659-.088-.305-.164-.512.794-.975.535-.091-.149.174-.3.307-.446-.471-.055-1.316-.541-1.516,0-.141.074-.806-.076-.36-.352a2.664,2.664,0,0,0-2.267,1.7c-.222.032-.438-.064-.668.091-.362-.294.36-.6-.142-.889.463-.356.455-.114.756,0,.458-.3.561-.595.236-.89-.1.088.036.177.083.268-.3.165-.591.384-.858.092-.208-.249.3-.033.4-.358-.233-.37-.521.252-.749-.174-.205.867-1.227.269-1.886-.167-.322.324-.6.94.043.979-.136-.458.25-.3.579-.182.092.156-.166.164-.288.091.139.4,1.129.1,1.6.257-1.552.631-3.858.185-5.713.577-.088-.12.105-.238.207-.358a.511.511,0,0,0-.766.185c-.129-.569-.381-.072-.74-.349-.271-.2.641-.422.127-.623-.368.587-.55.25-1.237.1-.3.455-.675.758-1.145.192-.338.414-.638.13-.975.545-.954-1.213-2.8-.255-4.5-.823.026.391-.422.73-.579.189-.393.214-.3.42-.317.629a.422.422,0,0,1-.378.005c.057-.267-.046-.534.326-.807-.533-.338-.171.745-.768.193-.176.638-.334.416-.875.461-.183-.2.055-.417.315-.629-.925.5-2.3.116-3,1.214-.458.21-.444-.085-.749-.161-.249-.263.266-.541-.054-.8a.539.539,0,0,0-.225.717c-.461-.086-.352.2-.778.373-.258-.467.376-1.088.815-1.085-.19-.131-.092-.264.008-.178a1.72,1.72,0,0,0-2.555-.032c-.333-.23.46-.485.037-.712-.357.511-1.268-.036-1.9.045-.191.154-.1.3-.308.452-.026-.147.136-.3-.07-.443-.349.038-.12.124-.4.366-.073-.117.137-.243.018-.357a.447.447,0,0,0-.776.377.2.2,0,0,0-.28-.082c-.088-.115.106-.243.207-.362-.884.007-2.236-.61-2.841.078-.838-.461-.643.182-1.128-.147-.516.715-.812.61-1.473,1.023.208.227.434.122.651.247-.3.323-.561-.14-.857.115-.09-.115.1-.241.207-.362-.6-.021-1.179-.364-1.778-.39-.089-.116.1-.241.21-.365-.282-.028-.561-.146-.859.118-.346.985-2.182-.3-3.141.37,1.1.106,2.2.142,3.295.336-.39.241-.759.064-1.138.037-.165.428.488.082.649.247-.2.183-.4.367-.6.552-.174-.141-.069-.293-.26-.436-.8.258-.8,1.085-1.742.771-.069-.309.643-.4.884-.653-.02-.209-.24-.406-.062-.621-.195.137-.717,1.25-1.463.851-.133-.174-.034-.354.218-.542-.379-.3-.777.792-1.354.582-.383-.225.288-.488-.153-.707-.1.063-.059.118-.008.177.009.24-.51.061-.408.549-.164-.068-.8-.165-.676.292-.217-.065-.449.164-.658-.065-.007-.326.667-.677.524-1a6.286,6.286,0,0,0-.876.478c-.259-.171-.014-.354-.352-.521a8.12,8.12,0,0,1-1.706.065c-.186-.205.368-.125.5-.466-.716-.244-.929.992-1.624.331-.195.09-.409.583-.588.38-.233.26.291.018.36.342-.1.09-.2.187-.3.279-.55-.315-1.137.062-1.686-.287,0-.456.78-.545,1.046-.131a1.245,1.245,0,0,1,.777-.388c-.309.044-1.021-.585-1.518.061-.373-.253.131-.539-.242-.79-.391.65-1.514.651-2.4.724-.2-.316.3-.118.4-.373-.4.027-.206-.289-.54-.51-.518.289-1.01.07-1.534.424-.672-.519-.692.151-1.742.791.415-.07.834-.307,1.236-.145.2-.126.119-.243.02-.357a.768.768,0,0,1,.757-.033c.214.144-.307.252-.388.195.116.28,1.015,1.051,1.489.469.284.514,1.344.431,1.976.183.213.247.09.474.468.07a3.517,3.517,0,0,0,2.914.327c.006.611,1.032.091.72.684.161-.19.477-.181.869-.3-.151-.164-.313-.065-.461-.249.194-.091.383-.1.577-.2a.351.351,0,0,1-.116.449c.237.274.5.056.738.329.187-.126.086-.239.209-.364.208.249.417.459.658.066.151.128.3.371.461.249.254.169-.5.374-.028.535.4-.707,2.025-.457,2.365.006.334.2.125-.278.4-.37.1-.058.187-.005.288-.1.348.2.094.413.442.609.645-.589,1.845-.139,2.744,0,.239-.346.452-.249.687-.465-.46-.376-.388.334-.858.114.243-.289.172-.208-.061-.62.636-.6,1.164-.306,1.317.137-.269.335-.485-.393-.759.024a.432.432,0,0,1,.243.793c.6-.022,1.188.215,1.786.213-.194.5-.1.294.352.523a.823.823,0,0,1-.93-.327c-.178.181.229.348-.027.535.355-.141.688.117,1.038.058.245-.243-.105-.473-.341-.7.542-.141,1.063.117,1.624-.315.084-.24-.1-.472.037-.713.571-.152-.012.465.44.611.092.166-.162.084-.3.275.527.6,1.8.162,2.419.821.788-.591,1.524-.227,2.282-.235.239.451-.537.408-.615.906.563.339.74-.617.841.245a.841.841,0,0,0,.046-.891,3.123,3.123,0,0,1,1.984.042c.233-.7.878-.45,1.346-.388.089.117-.105.24-.207.362-.164.1-.311-.14-.461-.257-.132.092-.157.182-.109.27-.067.059-.134.122-.2.182.336.217.71-.315,1.028.244-.232.246-.442.026-.667.1-.139.484.547.215.74.34-.652.766.726.117,1.209.418-.026-.279.118-.791.513-.811-.278.462.225.448.235.973.1-.119.2-.14.29-.094-.156-.49.48-.444.615-.9.253.063,1.035.557,1.606.057.33.233,0,.476-.037.714.522.214,1.018.238,1.3.509.131-.118.264-.242.4-.362l-.36-.35c-.374.51-.693-.066-1.039-.07.462-.393.876.161,1.335-.2-.06,1.085,1.012.443,1.75.948-.276-.113-.573.148-.848-.075-.046.448.738.269,1.029.252a3.53,3.53,0,0,1,.226-.717c.519-.143.238.459.442.617.136-.187.257-.1.379-.007.038-.556.486-.565.947-.014-.262-.584.151-.2.6-.721.519.485-.695.443-.045.891.19-.658.543-.488.8-.9.447.413-.559.429-.417.717.461,0,.559-.01.877-.456.413.375-.324.215-.217.538.8.618,1.088-.132,1.914-.38.213.2.1.414.442.617.433-.419.823-.031,1.245-.279.112.235-.1.472-.037.711-.137.171-.256.071-.388.182-.309-.175.031-.358.027-.534-.575.1-.765.418-1.436.284.4.14.8.448,1.22.252.311.248-.517.038-.209.36a7.482,7.482,0,0,0-1.317-.164c-.087.12.111.236-.018.356-.368.192-.1-.336-.452-.439a.39.39,0,0,1-.479.1c-.084,1.112-.913-.239-1.443.464-.332-.229.1-.541-.353-.528-.289.361.059.709-.243,1.073.239.257.508-.067.749.165.1-.12-.08-.236-.173-.353.332-.316.635-.077.948-.013.046.323-.307.156-.406.539-.382.069-.752-.073-1.145.194-.333-.229.1-.543-.352-.529-.665,1.315-2.693.414-3.907.509-.053-.236.395-.482.226-.717a17.72,17.72,0,0,0,3.393.3c.188-.321-.411-.314-.568.01-.278-.3-.668-.209-.253-.619a6.625,6.625,0,0,1-.957.191c-.07-.233.287-.477-.153-.707-.321.517-.411.352-.867.28-.352-.2.1-.416-.251-.618a2.554,2.554,0,0,0-1.923.569c.012-.151-.189-.293-.072-.445.279-.253.009.454.379-.006-.55-.337-1.135-.015-1.688-.324-.232.213-.463.426-.7.638-.179-.233-.18-.472-.531-.7-.412.611.22.58.334.883-.366.325-.664-.6-1.039-.067-.428-.349.412-.72-.133-1.065-.1.09.032.179.08.265a3.748,3.748,0,0,1-2.175-.04c-.4.394.193.771.533.7-.357.174-.75,1.034-1.076.646-.154-.333.4-.116.307-.452-.169-.394-.389.231-.559-.163-.229.348.016.463-.507.635-.213-.173-.205-.352.028-.535-.508-.348-.5.729-.968.379-.131-.264.542-.548.138-.8-.369.217-.269.425-.506.635a.417.417,0,0,1-.379.009c-.007-.288.521-.305.415-.722-.483.053-.36-.232-.821-.6-.875-.3-1.83.183-2.471.243.565-.662-1.507-.321-2.149-.563.063-.475.878.041,1.256-.482-.751-.415-1.466.534-1.987-.031-.1.122.082.235.172.35-.275.437-.507.048-.777.38-.671-.857-1.647,0-2.048-.649-.885.44-1.384-.03-2.111.6.343.019.1.118.359.344-1.071.615-1.326-.376-1.361-1.111-.254.364-.073.715-.245,1.077a4.682,4.682,0,0,1-1.217-.227c-.123-.216.408-.228.632-.42-.262.033-1.408-.3-1.643-.166-.219-.073-.2-.557.019-.357.007-.427-.379.006-.569.02-.1.121.08.235.17.35-.777.064-1.929-.963-3-.422-.15-.143-.3-.287-.451-.428-.2.184-.374-.114-.578.2-.772-.914-1.642.065-2.418-.793a2.326,2.326,0,0,1-2.535-.339c.533-.307.571-.506.984-.754-.944.066-1.932.73-2.373.191-.008.756-.7,1.144-.481,1.979-.468-.077-.931-.29-1.4-.381.009.792,1.72.208,1.641,1.172-.2.217-.363-.258-.55-.331-.1.563-.774.071-1.164.585a.657.657,0,0,0-.333-.874c.021.431-.282.54-.7.833-.281-.327-.8-.749-.84-.227-.332-.223-.136-.536-.54-.508-.176-.328.046-.235.308-.46a1.681,1.681,0,0,0-1.238.148c-.312-.283.374-.611.046-.893-.175.146-.338.871-.686.479-.066.21-.311.428.063.621-.545.227-.456.145-.7.656-.205.314-.355-.467-.56-.15-.45.364.223.34.351.516-.255.089-.5-.157-.758.036-.182-.226.417-.5.037-.712-.134.39-.679.2-.47-.065-.6.724-1.556.446-2.354-.147-.038.211-.279.429-.317.639.394.159.213.182.54.506.254-.16.06-.3-.071-.441.8-.176,1.558.315,2.337.5-.681.353-1.308-.329-1.986.012a3.306,3.306,0,0,1,1.019.392c-.389.23-.745-.219-1.155.417-.182-.228.177-.482-.153-.7-.166.177-.32.1-.488.291-.239-.135-.029-.294.117-.45-.179-.168-.385.15-.557-.149-.118.516-.723.242-.8.753-.5-.269.041-.6-.333-.872-.4.3-1.256.012-1.308-.285-.6.358-.573-.2-1.137.062-.205-.314.3-.12.4-.378-.517-.351-1.074.072-1.6-.178a1.314,1.314,0,0,0-.325.819c-.314-.072-.924.133-.976.589-.414-.153.252-.37-.161-.524-.28-.09-.58.256-.849-.041-.37.252-.138.451-.5.474-.3-.279.469-.621.426-.915.235-.28.411.559.657.05-.07-.411-.82-.309-1.227-.018-.336-.157-.094-.352-.352-.511-.491.342-1.483.76-1.623.362-.161-.082-.183.161-.109.274-.352.086-.7.223-1.027-.205-.24.351-.449.136-.687.487.424-.323.789.563,1.227.014.259.43-.147.63.522.859-.573.639-.707,0-.848-.038-.4.461.362.3.343.69.2-.295.394-.308.568-.032.265-.354.477-.139.5-.476-.305-.183-.578.073-.451-.417.228-.174.423.349.657.049.151.334-.278.482.253.608-.169-.6.419-.01.756-.044.043.079-.026.425-.174.482.3.094.78.468,1.176.26.32.745.93.207,1.181.91.494-.189.449-.57.974-.588.093.142-.174.306-.306.462.381.546.808.175,1.208.377.156-.241.068-.331-.172-.347.284-.459.672-.038.686-.484.026.081.1.558.361.337.175.328-.048.237-.308.462.489.292,1.016-.167,1.488.454.218-.949.682.393,1.155-.417-.121.563.392.2.442.6-.351.086-.7.219-1.028-.211-.344.764-1.21.209-1.787-.172a1.075,1.075,0,0,1-.514.831c.952-.9,2.66,1.109,3.618-.551a4.844,4.844,0,0,1,1.786.174c.157-.244.07-.333-.17-.347.2-.188.4-.375.6-.566a.573.573,0,0,1,.559.15c-.3.3-.567,0-.876.49.27.225.558.179.83.4.132-.126.264-.252.4-.376a.949.949,0,0,1,.468.066c.183.2-.057.418-.317.639.7.124.417-.883,1.165-.592a.321.321,0,0,0-.072-.443.674.674,0,0,1,.579-.206c-.41.8,1.05.941,1.542,1.26-.566.245-1.936-.225-1.913.45-.571.04-1.122-.237-1.7-.094-.081.51.683.115.929.31-.46.266-.453.065-.787.573-.2-.763-.551-.058-.712-.853-.489.352-.287.666-.145.985-.371.178-.354-.384-.541-.505-.232.223-.447.132-.686.48-.338-.16-.094-.35-.351-.516-.442.462-.245.032-.659-.055-.456.3-.886.1-1.345.428-.377-.183.071-.419-.062-.62.469-.176,1.3.2,1.254-.512-.25-.043-.521.311-.777.4a.5.5,0,0,0-.17-.349c-.43.417-.519.452-.857.135-.556.359.032.648-.524,1.008-.1.061-.189.011-.29.105-.331-.219,0-.476.037-.714-.231-.417-.5,0-.74-.315-.2.13-.115.244-.018.356-.58.249-1.1-.555-1.715.273-1.015-.247-1.817.189-2.624-.384-.34.471-.638.15-.958.236-.132.44,0,.527-.325.82.427.367.436.249.722.67.229-.45.05-.324.415-.736.418-.145.81.147,1.246-.341.227.315-.437.678-.524,1.01.217.218.943-.135.83.4.623.1,1.29-.579,1.885.071-.392.3-.763.156-1.155.421.248.065.507-.05.74.316.12-.381.207-.387.378-.022.76-.681,1.437.243,2.175-.032.372.159-.063.361-.215.547.233.308.5-.033.748.137-.15-.313-.14-.638-.613-.947a.9.9,0,0,1,.117-.451,2.272,2.272,0,0,1,.659.054c.1.172-.233.367.163.523.245-.161.2-.307.308-.459.129-.082.246.1.378-.022.213.37-.212.22-.218.547-.3.248-.551-.284-.856.134,2.916.231,5.854.051,8.76.533.227-.746,1.159-.408,1.317.117.214-.4-.07-.769.155-1.163.552-.211.472.514,1.03.218.089.115-.105.242-.208.366.469.083.965-.357,1.426-.153-.611.991,1.1.484,1.831,1.165.389-.193-.026-.355-.161-.526.765,0,.421.115,1.118.307.122-.155-.235-.286-.071-.442a.567.567,0,0,1,.559.154.922.922,0,0,1,.406-.551c.433-.3.27.456.759-.032.135.171.033.354-.218.543,1.126.218.932.492,2.355.172a.351.351,0,0,1-.117.45c.91-.557,1.769-.084,2.669-.46a.354.354,0,0,1-.018.359,1.768,1.768,0,0,0,1.075-.664q.441.25-.027.536c1.149-.253,2.235.7,3.422-.3.35.194-.1.42.25.615-.2.182-.372-.119-.578.2.9-.178,2.033-.746,3.14-.371.162-.4-.731-.25-.151-.707.481.354.87.646,1.3.494.312-.575-.394-.032-.65-.247.368-.406.7-.189,1.058-.3a2.4,2.4,0,0,1-.238.9c.963-.163,1.689-.843,2.771-.529.075.117-.135.242-.016.358.147.166.312.069.458.254.363-.352.183-.36.6-.552a.736.736,0,0,0,.352.524,3.935,3.935,0,0,1,1.426-.127c.21.222-.309.322-.389.189.336.536,1.166-.13,1.455-.662.481.224.032.473-.227.719.665-.019,1.365-.775,2.013-.5.215.131-.321.544-.388.187.1.381.455.51.919.511-.147.034-.575.135-.207.361-.194.1-.368-.193-.577.193.3.321.632-.023.937.155-.112-.235.166-.691.5-.457.109-.173-.155-.074-.27-.261a2.335,2.335,0,0,0,1.175-.74c.44.229-.232.48.151.709.293-.294.776-.308.8-.73a6.6,6.6,0,0,0,2.266.13c.018-.209-.078-.413.316-.629.282.507-.271.783.523.879-.27.366-.511.118-.768.193.014.458.884-.094,1.227.065.042-.151-.105-.3.118-.449.3.181.51.046.73.521.368-.218.137-.42.507-.633.283-.062.516.775,1.036.071.259.17.014.356.352.528-.232.241-.449.151-.668.1,1.375.86,3.663-.039,5.388.18a1.093,1.093,0,0,1-.415.719c.342.108.7-.189,1.038.074.263-.21.172-.418.125-.623.835-.028,2.344.8,3.24-.395.261.4-.34.321-.315.626a5.734,5.734,0,0,1,1.227.076c.1-.149,0-.3.118-.447.629-.179,1.632.832,1.985.07.213.206.1.416.441.619.29-.109.6-.531.858-.094.479-.937,1.615.2,2.392-.461-.084.177.334.354.161.534.485-.2.976-.53,1.418.081a.939.939,0,0,1,.587-.358.541.541,0,0,0,.17.354c.1-.283.616-.285.38,0a1.353,1.353,0,0,1,1.326,0c-.1-.383.151-.416.5-.446.09.117-.106.239-.207.355.467.139.949-.051,1.416.088-.39.433-.488-.085-.687.445a1.115,1.115,0,0,0,.85.088c.09.149-.175.3-.308.445-.346,0-.666-.585-1.037-.086.422-.117.212.6.64.443.1.4-.265.442-.6.536-.158-.209.083-.417.127-.624-.357-.24-.5.209-.686.446-.316,0-.64.155-.939-.173.7.082.549-.569,1.066-.448.192-.326-.6-.151.027-.535.378-.291-.106.554.269.267.515-.382.072-.211-.161-.535a.427.427,0,0,1,.38,0c-.4-.326-1.652.2-2.365-.083.174.515-.365.108-.407.536a2.757,2.757,0,0,0,1.346-.36c.172,1.185-1.366.822-1.861,1.163-.681-.442.008-.892-.406-1.333-.056.587-.62-.156-.964.362.3-.092,1.123.105.82.618-.5-.583-.509.317-1.228-.082-.372-.265.13-.536-.242-.8l-.5.448c.137.118.272.237.173.355a14.462,14.462,0,0,1-2.682.553c.262.421.563.094.84.26-.547.307-1.508.552-1.7-.164.249.064.5-.022.775-.361.123-.339-.45-.1-.261-.444-.6.1-1.137.817-1.517.014-.24.366-.449.148-.669.1,0,.148-.218.3-.117.447-.681-.3-1.912.355-2.257-.331-.412.045-.831.206-1.246.282a.883.883,0,0,1,.118-.446c-.348-.179-.265.343-.5.452-.369-.29-.13-.593.045-.892-.424-.151-.971.056-1.109-.518-.143.358.205.708-.243,1.072.582.259.256-.784.963-.37.107.349-.049.568-.415.718-.736.177-1.417-.677-2.157-.412-.248-.489.326-.3.6-.544-.3-.25-.633.046-.958.192a.532.532,0,0,0,.173.353c-.255.1-.339-.2-.389.184-.517-.354-1.1.593-1.6-.241-.081.406-.88.485-.948.018a1.3,1.3,0,0,1-1.822.48c-.187.123-.086.239-.209.359-.479-.288-1.045-.006-1.01-.6l-.7.638c-.632-.287.223-.6-.142-.889a1.01,1.01,0,0,1-1.237.115c-.073.3-.481.6-.615.9-.245-.351.491-.723.056-1.07-.045.87-1.259.85-1.825.488-.494.184-.458.721-.974.557.035-.316.414-.694-.163-.53-.086-.265.188-.539.515-.813-.057-.092-.123-.044-.189,0l-.18-.175c-.312.243-.1.476-.416.723-.5.275-.4-.442-.911-.69-.365.362-.687-.137-1.047.117.353.492.738.359,1.129.149-.008.207.206.41.441.613-.406-.081-.374.318-.848-.069-.433.19.214.351-.217.539-.391-.425-1.283-.293-1.968-.392-.127.234.546.271.75.157.1.691-.833.626-1.255.48-.262-.42.665-.049.4-.366-.459-.445-.39.329-.858.113.6-.873-1.457.168-2.048-.653-.237.374-.956.6-1.472,1.023.088-.79-1.48-.045-1.714.233-.137-.114-.274-.23-.171-.351-.166.28-.547-.02-.967.388-.274-.642-.657.014-1.336.223-.128-.2.119-.419-.251-.613-1.2.515-1.817.12-3.05.462-.129-.225.122-.445-.262-.436-.052.717-.67.324-.937-.142.172.536-.465.95-.985.749-.143-.438.6-.026.5-.464-.15-.161-.313-.066-.461-.25-.153.239.076.44-.306.457-.107-.143.263-.3.117-.449-.592-.208-.8.067-.777.387-.478.174.03-.563-.45-.429.043.436-.379.6-.795.743-.143-.524-.294,0-.64-.418-.019.386-.5.366-.768.207-.024-.213.2-.117.118-.448-.175.565-1.625.014-1.463.861-.335-.236-.723.572-1.055.311-.252-.384.325-.288.605-.737-.34-.128-.7.082-1.039-.044-.207,1.132-1.474.655-1.842.881.046-.339.514-.495.7-.653.189.11.092.233-.019.356.406.186.308-.276.776-.39-.626-.084-.787.045-1.291-.654-.4.224.028.414-.127.627-.536-.625-2.775.169-3.592-.013-.125.065-.8.388-.505.645-.511.421-.918-.329-.966.4-.271-.223.054-.478.037-.715.164-.1.309.135.461.247.315-.368-.2-.558.415-.733-.485.013-.562.275-1.164.589a.527.527,0,0,0-.172-.347c-.327.32.189.213.063.621-.292.183-.562-.128-.867.31a17.259,17.259,0,0,0,4.332.326c.413.157-.254.37.162.526.358-.015.259-.223.5-.466.364.34-.267.724-.624,1.1-.8.012-1.675-.75-2.734-.138-.285.031-.552-.32-.84-.228.249.387.173.335-.388.2-.337.2-.02.358-.217.545-.68-.647-.87-.114-1.506-.1-.259-.166-.015-.355-.351-.517a.462.462,0,0,1-.686.48c-.255-.165.5-.382.028-.536-.136.191-.258.111-.379.021a.805.805,0,0,1-.308.459,4.716,4.716,0,0,1-1.858-.613c-.2.77-.618-.151-1.054.323-.182-.325.365-.13.5-.472a1.68,1.68,0,0,1-1.037-.033c-.194.092-.409.589-.587.387.1.46-.014.418-.515.83.73-.142,1.006.409,1.607,0,.333.384-.246.332.063.621.4-.288.435-.56.324-.818.229-.144.444-.057.678-.3,0,.585.616.26.938.127.225.373-.42.36-.516.83.362.054.382-.1.588-.387a1.162,1.162,0,0,0,.92.486c0-.237.342-.49.6-.743.106.292-.051.6.333.874.266-.279.5,0,.759-.039-.114.214.107.412.062.62a8.344,8.344,0,0,1,3.022.031c.6-.6,1.127.168,1.715-.26.956.878,2.458-.661,3.094.483.205-.338.386-.123.587-.382.236.33.486.335.731.5-.4.235-.695-.115-.876.484.184-.486-.222-.216-.549-.331-.251.386.114.273.36.338-.464.449-.893.224-1.334.239-.165-.168.443-.312.576-.2-.137-.458-1.135.077-1.606-.017.2.328.446-.091.65.238-.869-.071-1.215.386-2.014.537-.27-.2.643-.444.129-.629-.133.124-.267.251-.4.375a2.9,2.9,0,0,0-2.384.381c.57-.526-.344-.334-.829-.4-.067.235-.315.457.072.442-.688.71-.743-.318-1.334.244-.259-.253-.109-.528-.055-.8-.255-.121-.7.5-.7.659-.4.24-1.11-.521-1.234.153-.169,0-.8-.2-.641-.412a2.322,2.322,0,0,1-2.284.3,1.517,1.517,0,0,0,.885-.671c-.3-.186-.615-.3-.92-.485-.282.121.259.617-.118.452-.195.476.43-.036.57-.032.054.58-1.074,1.039-1.535.441-.629,0-1.32,1.2-1.924.642-.13.125-.264.252-.4.377-.311-.158.032-.356.027-.534-.371-.124-.786.6-1.146.244-.181-.324.373-.256.5-.474-1.075.3-2.086.722-2.744.071a1.125,1.125,0,0,0-.965.415c.215.135.262.28.072.439-.36-.414-1.413.233-2.065-.23.231-.248.464-.474.676-.307-.176-.293-1.182-.241-1.687-.253-.459.472.329-.019.452.416-.333.318-.634.055-.966.418a.355.355,0,0,1-.119.451c.238.237.347.009.36.334a.76.76,0,0,0-.388.2c-.451-.646-.6-.456-1.19-.725.336-.458.618.219.956-.24-.205-.322-.436-.08-.64-.4.179.346-.706.69-1.075.691-.09-.112.106-.244.207-.368-.231-.412-.5,0-.739-.309-.17.188.245.34.161.523-.679.361-1.318-.05-1.993.219-.026.473.484-.106.748.13.054.084-.008.18.081.262-.475-.142-.62.213-1.155.433,0,.5.47.311.667-.135.426.207-.445.572.162.525-.3.295-.966.434-.515.834.275-.022.385-.239.119-.452.131-.1.247.073.37.154.368-.233.268-.435.506-.657a2.938,2.938,0,0,0,1.714-.288c.649.862,1.385.014,2.066.224-.074.717-1.073.325-1.182.964,1.065-.352,1.669.24,2.859-.535.266.376.438.7.939.121a.668.668,0,0,1-.334,1c.145.237.319-.064.468.06-.172-.288.45-.622.047-.892.637.422,1.337-.282,1.993-.209-.885.43-1.455.854-1.652.9.254.631,1.4-.354,2.012-.565.024.46.684.29,1.028.208.086-.125-.112-.231.018-.357.1-.061.192-.012.29-.106.028.148-.135.3.073.44a21.906,21.906,0,0,0,2.39-.578c.055.082-.008.174.082.259-.853.236-1.143.565-1.932.822.642.365,1.324-.03,1.976.156.24-.338-.288-.088-.361-.335.17-.234.325-.2.488-.3.425.234.093.71.533.684.189-.16.1-.3.306-.462-.09-.079-.191.049-.287.1-.208-.193-.127-.905-.363-.336-.536-.452.14-.7.507-.65-.486.3.528.284.153.7.245.151.528-.5.776-.4.263.325-.426.6-.7.661-.245.249.209.461-.037.713.337.206.706-.223,1.038.033-.036.391-.392.3-.606.744.321.494.7-.217,1.029.211.186-.334-.42-.13-.54-.505a1.79,1.79,0,0,1,.847.044c-.407-.339-.171-.56-.044-.977.1-.06.19-.009.288-.1.414.157-.253.367.161.526.441-.607,2.639-.295,2.437.406.268-.34.583-.185.6-.566.487.242.142.527.433.779-.469-.065-.962.322-1.426.163.266.379,1.368.365,1.976.167.177.167-.158.364.161.525.415-.3.846-.625,1.426-.16.074-.462.472-.419.236-.9.263.373.646-.228,1.127.123-.247-.636.79-.307.794-.75.673.233-.423.553.053.8a.708.708,0,0,1,.866-.309,2.056,2.056,0,0,1-.125.629c-.987.282-1.915-.011-2.672.484.2.329.453-.221.651.235,1.284-1.078,2.434.445,3.708-.44,1.158.842,3.406-.213,3.933.717a11,11,0,0,1,1.129.129c.232-.687.862-.227,1.344-.411.028.149-.136.3.072.442.057-.469.735-.514.668-.115,1.069-.584,2.072.156,3.131-.211-.288-.243.246-.42.406-.55.163.2-.414.432-.316.635.863.4,1.776-.2,2.661-.275-.053.672,1.009.668,1.22.223.172.318.372.092.549.337.518-1,2.4.321,3.529-.561.791.963,2.4-.715,3.014.264a1.749,1.749,0,0,0-.856.115c.191.484,1.169-.241,1.9-.054.3.072,1.351.586,1.415.048.2-.212.365.263.55.34.683-.372,1.33-.078,2.012-.5a13.445,13.445,0,0,0,3.682.179c31.864,1.279,63.934-.221,96.007-.6.269.221.025.416-.128.618-2.373-.659-4.834.392-7.213-.169-.189.363-.312.314-.686.414-.09-.174.163-.071.3-.254-.369-.224-.783.429-1.138-.051-.3.225.037.476-.227.7-1-.882-2.624-.627-3.979-.169a5.588,5.588,0,0,0-3.231.048c-.122-.09-.14-.182-.082-.269-1.7.5-4.039-.172-5.153.526-.256-.244-.016-.328-.36-.368-.1.116.08.24.17.361-2.124-.594-3.865.527-6.065-.193-.214.585-1.281.035-1.806.036-.878,0-1.517.6-1.9.125a2.187,2.187,0,0,1-2.275-.057c-.432.169.214.359-.218.528-.1.208-.586-.289-.358-.365-.532.464-1.015.044-1.537.32-.189-.125-.092-.241.018-.356-.687.469-1.333.149-2.013.4-.046-.668-.048-.072-.551-.368a.5.5,0,0,1-.5.435.681.681,0,0,0-.262-.451c-.471.673-1.369-.241-2.3.487a.323.323,0,0,1-.073-.445c-1.118.213-3.715.039-4.008.464-.574.1-1.112-.488-1.715.152-.51-.421-1.447-.66-1.7-.2-3.557-.287-6.834.25-10.523-.009-.186.116-.086.237-.207.354-.281-.255-.386-.16-.83-.449-1.995.6-4.718-.392-7.041.521-.173-.147-.07-.3-.261-.443a8.192,8.192,0,0,1-2.664.182c.029.258.217,1.02-.632,1.25-.239-.352-.016-.566-.532-.71-.129-.275.528-.638.677-.271.365-.436-.612-.608-.559-.176-1.167-.655-2.417.346-3.583-.337-.29.622-1.088.44-1.606-.079-.2.122-.117.239-.02.357-1.057-.278-2.146-.026-3.2-.326-.1.15,0,.3-.118.446-1.531-.269-3.683.414-4.809-.385-.095.087.034.175.079.264-1.7-.125-3.419.228-5.1-.274-1.228.432-3.219.112-4.739.094-.372.218.058.412-.314.629a.418.418,0,0,1-.38.008c.406-.993-1.153-.423-1.668-.675-.2.488.423.08.549.346.153.374-.442.285-.586.368-.583-1.135-1.886-.381-2.8-.822-.372.217.056.414-.316.63-.129.078-.244-.107-.378.012-.094-.146.172-.3.305-.454-.271-.227-.556-.209-.857.111-.021.177.3.346-.028.534.182.173.387-.139.559.164-.334.372-.625-.11-.965.382-.286-.515-.619-.255-.93-.332-.062-.44.62.074.866-.288-.586-.575.272-.237.5-.46-.888-.611-.832.115-1.687-.31-.169.185.245.348.161.529-.1.088-.187-.035-.279-.081-.157.239-.07.33.173.35-.5.518-.965.342-1.463.843-.284-.171-.448-.18-.352-.522-.412.018-.861.77-1.256.481-.211-.17.311-.366.406-.545-.3-.235-.585.224-.5.458-.3.281-.551-.345-.848-.063-.1-.174.235-.362-.163-.529-.462.7-1.92.913-1.9.238-.414.07-.809-.235-1.245.309-.485-.7-1.286.174-1.489-.485-.546,1.087-1.727-.5-2.572.358-.777-.2-1.583.105-2.355-.181-.252-.239.485-.048.018-.354-1.307.887-2.51-.217-3.8.327.147.164.312.066.46.248.073.115-.137.246-.019.358-.565-.057-1.111-.463-1.678-.466-.11.227.15.17.269.256.156.315-.424-.053-.586.381-.019-.235-.111-.323-.36-.341-.539,1.038-1.489-.282-2.293.456-.33-.223-.316-.46.035-.714-.234-.311-.5.027-.748-.143-.106.153.145.29.263.432-.273.39-.522.3-.778.392-.133-.171-.034-.355.217-.545-.679.373-1.327.1-1.994.18-.1-.173.236-.368-.161-.526-.418.944-2.41.408-3.07.86-.2-.429-.956-.271-.342-.7-.4-.074-.448.17-.5.471-.4.08-.459-.83-1.02-.394.175.3.38-.019.559.147-.13.1-.157.185-.107.274-.946.016-1.867-.448-2.851.323.048-.494-.033-.43-.334-.872-.3.282.07.53.242.788-.541.756-.988-.379-1.524.26-.564-.295.27-.669-.044-.975-.361.343-.189.661-.335.995-.378.342-.359-.324-.559-.148-.09-.144.174-.3.308-.462-.326-.108-.855.184-.685.483-.639-.563-.649-.02-1.1-.651-.638.389-.691.255-1.328.075-.094.243.24.461-.227.724.151.138.3.283.452.421.344-.007.187-.479.568-.032.2-.13.117-.245.019-.357.584-.007,2.423-.31,2.047.6.177.2.394-.3.585-.387.309.343.036.658-.324.817.192.1,1.161,0,.777-.4.417-.163.806.212,1.244-.333.163.2-.41.437-.316.639.312.341,1.315-.4,1.019.392.233.2.348-.294.208-.368a1.37,1.37,0,0,1,1.028.215c.1-.155,0-.3.118-.451.229-.168.438.044.668-.122a.909.909,0,0,1-.118.451,4.116,4.116,0,0,1,2.474-.3c.208.241-.3.046-.4.376.271.239.575-.172.838.226.632-.529.588.739,1.218.209-.185-.077-.375-.073-.559-.15.276-.483.5.085.776-.394.238.138.03.3-.118.45.157.026.321-.128.469.067.185-.619,1.8-.343,2.562-.207a.285.285,0,0,1,.024.118,11.158,11.158,0,0,1,3.279.006c.092.146-.172.3-.306.457.385.43.714-.2.686-.474.569-.13-.024.526.531.689.537-.229-.356-.4-.062-.621.788-.005,1.606-.582,2.363-.006.315-.641.657-.365,1.166-.58.337.163.093.352.351.521a2.949,2.949,0,0,1,1.815-.336c.127.33-.506.244-.678.291.38.349,1.107.068,1.624-.327.353.2-.1.418.254.614-.275.306-.675.087-.688.471a6.379,6.379,0,0,0,3.07-.822c.519.248-.363.547.052.8a5.434,5.434,0,0,1,3.016.253c.53-.6.858-.125,1.136-.034.2-.187-.118-.354.217-.542.709.564,2.466-.455,2.535.367,1.181-.136,2.812.347,3.7-.191.574.485,1.2-.071,1.769.577.437-.519.824-.079,1.264-.655.337.169.093.357.352.527a25.975,25.975,0,0,1,6.614.213c.054-.189.22-.362.081-.421a14.382,14.382,0,0,0,5.335.064c.453-.233.863.413,1.308.337.085-.119-.113-.236.018-.356a2.584,2.584,0,0,0,2.084-.026c.181.174.362.351.541.527a15.278,15.278,0,0,1,5.776.034c.062-.088.01-.179.109-.268,3.329.354,6.7-.074,10.036.143.534-.561,2.815-.064,4.27-.078.789-.008,1.417-.35,1.984.1.134-.118.265-.234.4-.355.359.652,1.24-.241,1.876.368,1.615-.633,3.889.129,5.8-.391.122.118.242.24.362.359,2.464-.621,4.861.144,7.329-.515,1.045.562,2.168-.314,3.213.236.659-.516,1.258.123,1.913-.317a15.176,15.176,0,0,0,5.317-.054c3.913.213,7.869-.421,11.78-.184.133-.112.265-.228.4-.342.173-.088.166.156.081.269,2.092-.271,3.6-.2,5.724-.5.12.122.241.247.359.369.4-.046.175-.65.776-.325.091.174-.161.072-.3.254.256.117.671.038.677-.239,15.43.115,30.413,1.765,45.792,1.717.1-.08.2-.164.3-.244,2.074.339,4.21-.466,6.273.131.372-.094.7-.676.766-.116a1.726,1.726,0,0,1,1.717-.038c.13-.11.263-.217.4-.324a4.249,4.249,0,0,0,2.194-.086c3.49.594,7.066-.413,10.533.662l.4-.319a1.573,1.573,0,0,0,1.9,0c.174.167.069.3.262.471.268-.652.581-.218.857-.009.922-.5,2.029-.3,3.248-.222a.334.334,0,0,1,.073.453c.287.1.342-.609.867-.182.094-.08-.035-.182-.081-.276.292-.139.561.21.867-.181.19.137.091.246-.02.354a2.662,2.662,0,0,1,1.544-.38c.251.471-.325.215-.6.474,1.161-.35,2.312-.472,3.466-.72l.452.492c-.1.4.274-.2-.171-.374.536-.411,1.015-.269,1.742-.533.12.393.8.293.353.571.318.161.33-.5.948.1.452-.331-.226-.3-.361-.392.689-.413,1.331.065,2.022-.411.088.128-.107.227-.208.334.184.123.39-.162.559.237-.161-.506.34-.17.694-.549,1.632.793,3.522-.927,4.946.18.327-.778,1.342-.556,1.943-.675-.036.566-.826.086-1.165.406.15.186.311.113.46.318a17.765,17.765,0,0,1-1.662.794c.071-.92-1.419-.111-1.714-.01a4.408,4.408,0,0,0,3.926-.368c.092.16-.173.275-.307.411.591-.07,1.81.023,1.851-.772.368-.145.231.367.452.5,1.1-.48,1.786-.428,3-.992,1.454.124,14.97-1.818,16.477-2.594-.654-.152-5.076-1.216-4.584-1.682,1.841.519,7.761-1.223,10.143.272-.57-1.178,1.418-.51,1.319-1.516-.275-.026-2.922-.479-4.568-.6,3.74-.167,13.082,1.167,14.71,1.976a.393.393,0,0,0,.5-.156,1.19,1.19,0,0,0,.092-.121c.191-.293.4-.459.6-.33a1.325,1.325,0,0,1,.179.139.367.367,0,0,0,.439.049.525.525,0,0,1,.323-.02.458.458,0,0,0,.453-.221c.142-.183.326-.217.48-.53-.177-.258-.385.105-.568-.075.989-.388-3.766-1.3-5.192-1.19a1.07,1.07,0,0,1,1.153-.146,8.231,8.231,0,0,1,4.308-2.063c.182.2.359.409.542.614-.149-.591.851-.34,1.271-.618.036.127.076.248-.018.353a8.014,8.014,0,0,0,3.764-.785c1.441-.035,3.374-.105,4.541-1.013.973.2,2.793-.646,3.584-.967a13.162,13.162,0,0,0,3.53-1.766c-.363-.049-.36-.354-.542-.618.269-.245.511.006.777-.235-.463-.232-.671.08-.939-.325-.476.558-1.268-.4-1.444.222-.23.15-.425-.405-.639-.545a9.488,9.488,0,0,1-1.815-.012,9.78,9.78,0,0,0,1.581-1c-2.26-.03-5.336-.224-7.962.667a.827.827,0,0,1-.748-.288.87.87,0,0,0,.071.455,2.688,2.688,0,0,0-.867.14c-.4-.857-1.518.33-2.049.856-.266-.334.148-.572.426-.826a.564.564,0,0,1-.64-.539c.481-.329.561.016.883-.494-.207-.294-.472.513-.667-.008-.356.124-.133.338-.406.475a.432.432,0,0,1-.381-.055c.012-.3.429-.533.426-.829.1-.042.189.028.288-.046-.232.516.588.19.946.137.175.174.071.307.263.483.841-.175,1.019-1.073,1.778-1.163.066.339-.658.554-.9.846.343.054,1.067-.051.884-.492.9.409,1.859-.239,2.8-.564-.553-.347-1.16.281-1.741.452a1.378,1.378,0,0,1,2.12-.4,2.247,2.247,0,0,1,2.212-.289c2.307-.926,4.537-.3,6.833-1-.485-.494-1.005-.248-1.479-.941a1.642,1.642,0,0,1-1.6-.516c-.185.089-.085.224-.207.325-.38-.648-.82-.139-1.216-.454-.183-.237.056-.406.315-.575-.488-.425-1.016-.061-1.516-.232-.377-.266.2-.384-.06-.632-.733-.356-1.152.265-2.023.314-.231-.519.759-.77,1.1-.988a.91.91,0,0,1-.461-.338c-.1.074.035.181.083.279-.387.176-.594-.229-.777.239-.175-.174-.068-.308-.261-.484a3.162,3.162,0,0,1-1.9-.107.447.447,0,0,0-.036.7.8.8,0,0,1-.588.27,4.477,4.477,0,0,1-.323-1.117,2.6,2.6,0,0,0,2.167-1.278,8.29,8.29,0,0,1,3.52.266c-.277-.746.591-.4,1.065-.282.125.393-.5-.086-.677.163.484.452,1.031-.252,1.542-.3.352.286-.234.405.261.485.131-.589,1.435-.444,2.114-.206.578-.485,1.233-.146,2.019-.306.086-.594-.681-.218-.937-.326a4.008,4.008,0,0,1,3.439.01c.812-.635,3.53.448,3.782-1.082.692.3.973-.451,1.535-.106,0,.308-.379.158-.316.572,1.534-.415,3.051-1.129,3.177-2.325C-1080.049,932.18-1080.677,931.818-1080.5,931.392Zm-272.878-8.144c-.422-.075-.344.169-.947.042a.891.891,0,0,1,.6-.561c-.193.4.38.153.289-.1C-1353.2,922.822-1353.311,923.039-1353.377,923.248Zm5.388.044c.349.018,1.2-.22,1.217.22A1.641,1.641,0,0,1-1347.989,923.292Zm2.616.611c-.191-.13-.863-.146-.73-.508C-1345.9,923.239-1345.242,923.585-1345.373,923.9Zm5.72.954c.363-.317.736-.8,1.067-.479C-1338.951,924.7-1339.312,924.972-1339.653,924.858Zm1.752-.945c-.135-.444-.371-.234-.731-.511.653-.113,1.2-1.1,1.534-.4C-1337.648,923.157-1337.623,923.529-1337.9,923.913Zm1-1.1c.392.225.2.468.533.694-.265.226-.513.165-.768.2C-1336.939,923.407-1337.152,923.116-1336.9,922.813Zm-.011,2.048c.149-.186.748-.216.6-.554-.18-.36-.879.154-.739-.333.349-.02.7-.156,1.028.236-.188.153-.142.3.072.444A1.049,1.049,0,0,1-1336.909,924.862Zm1.472-1.025a1.075,1.075,0,0,1-.84-.242C-1336.022,923.111-1335.346,923.683-1335.437,923.837Zm3.365.793c-.4-.069-.4-.592-.939-.151-.056.307.553.2.253.616a.663.663,0,0,1-.732-.515c.534-.52,1.551-.77,1.716-.225C-1331.967,924.247-1331.882,924.492-1332.072,924.63Zm1.507.139a.8.8,0,0,1-.55-.342.53.53,0,0,1,.759-.02A.642.642,0,0,0-1330.565,924.769Zm-.079-2.135a1.275,1.275,0,0,1,1.417.053A3.435,3.435,0,0,1-1330.644,922.634Zm.809,2.649c.268-.307.5.1.75.16C-1329.363,925.913-1329.594,925.51-1329.835,925.283Zm2.816.466c.008-.105.26-.635.5-.456C-1326.569,925.529-1326.624,925.98-1327.019,925.749Zm-.956-1.667c.144-.392.652-.235.894-.824.514.2-.4.426-.127.627.243.178.524-.38.758-.018C-1326.976,924.3-1327.474,924.127-1327.975,924.081Zm3.167.994a.553.553,0,0,1,.146-.98A.742.742,0,0,1-1324.808,925.076Zm1.523,1.66c-.12-.1-.25,0-.37-.17.168-.151.334-.305.5-.456C-1322.89,926.313-1323.132,926.523-1323.285,926.735Zm-.177-2.044c-.123-.557-.462-.094-.83-.427.428-.343.815.077,1.245-.294a.7.7,0,0,0,.461.257C-1323.057,924.455-1323.137,924.092-1323.462,924.692Zm2.237.668c-.154-.088-.314-.038-.46-.258.424-.14.268-.435.676-.28C-1321.2,925-1320.889,925.174-1321.225,925.36Zm.785-.548c-.57-.6-1.715.237-1.968-.408C-1321.853,924.433-1320.32,923.847-1320.439,924.811Zm2.644.132c.121-.152.02-.3.119-.446.2.337.446-.079.651.255A.794.794,0,0,1-1317.8,924.943Zm4.143.474c.2-.181.4-.362.595-.541.26.506.577-.161.84.256A2.531,2.531,0,0,1-1313.653,925.417Zm-58.651,3.863c.106-.154.063-.3.308-.464.148.181.311.08.461.242C-1371.8,929.345-1372.068,929.588-1372.3,929.28Zm2.454.038c-.123-.611-.387.069-.748-.135C-1370.633,928.605-1369.207,928.773-1369.85,929.318Zm2.418.757c-.291-.229.06-.635-.442-.6.684-.673.739.416,1.3.463C-1366.881,930.359-1367.123,929.56-1367.432,930.075Zm3.148,1.258c.007-.459-.371-.147-.579.209-.314-.489.665-1.175,1.085-.859A.735.735,0,0,1-1364.284,931.332Zm-4.758,2.48c.142.5.291.1.649.231-.162.157.2.285.072.442-.459-.024-.32-.36-.756.041-.09-.086-.181-.167-.273-.253C-1369.243,934.12-1369.288,933.973-1369.042,933.813Zm-1.227-.02c.254.072.851-.214.55.324C-1369.846,933.859-1370.465,934.287-1370.269,933.793Zm.467,1.93c.629.023,1.275-.291,1.895-.1A1.636,1.636,0,0,1-1369.8,935.723Zm1.553-.8c.339-.458.649-.356.947-.052C-1367.621,934.94-1367.953,935.287-1368.249,934.926Zm3.5-.1c-.089-.082-.178-.164-.269-.252.24-.376.45-.166.668-.125C-1364.483,934.573-1364.615,934.7-1364.749,934.827Zm2.635.223c.286-.045.6-.629.867-.31C-1361.544,935.027-1361.848,935.408-1362.114,935.05Zm1.518-.076c-.092-.087-.182-.172-.272-.254l.3-.281c.178-.187-.229-.347.028-.536.168.391.39-.242.559.151C-1360.284,934.364-1360.216,934.658-1360.6,934.974Zm9.716-6.937c.19-.014.555.353.251.613C-1350.867,928.452-1351.085,928.254-1350.881,928.036Zm-2.851-1.569c-.178.183.229.346-.027.535C-1354.214,927.135-1354.174,926.341-1353.731,926.467Zm-1.188,6.55c-.168.458-.347.714-.876.484C-1355.16,933.487-1355.551,932.975-1354.92,933.018Zm-.646-3.977c.473-.028-.017.379.441.6-.166.154-.329.31-.5.467-.1-.207-.665-.079-.45-.424.227-.107.436.1.659.06C-1355.277,929.5-1356.011,929.3-1355.566,929.04Zm-.462,1.624c.414.159-.252.368.162.526a.524.524,0,0,1-.758.035A.724.724,0,0,1-1356.028,930.664Zm-.929-.315c.133-.122.264-.25.4-.374.192.14.087.292.26.433C-1356.532,930.681-1356.748,930.6-1356.957,930.35Zm-4.882,1.214c-.092-.116-.273-.221-.172-.347.187.115.229-.435.569-.03C-1361.574,931.316-1361.708,931.436-1361.839,931.564Zm1.723-.442c-.369-.243-1.273.389-1.308-.291.061.054.119.113.181.167a1.189,1.189,0,0,0,.136-.806c.182.167.387-.15.559.15C-1361.342,931.013-1359.878,930.617-1360.116,931.122Zm.47.068c.1-.127-.035-.236-.17-.348.484-.238.929.3,1.417.02C-1358.813,931.265-1359.077,931.191-1359.647,931.19Zm1.192-1.125c.215.118.44.01.651.236C-1358.087,930.635-1358.755,930.474-1358.454,930.065Zm.087,3.822a4.541,4.541,0,0,1-.831-.405,9.938,9.938,0,0,0,1.254-.505c-.189.157-.141.3.072.443Zm.6-2.432c-.276-.182-.57.026-.841-.225C-1358.364,930.9-1357.665,931.053-1357.769,931.455Zm-.179-2.037a.323.323,0,0,1,.072.442c-.568.029-.724-.118-.452-.424-.441.124-1.81.51-2.156-.342.452.224.345-.1.758-.036-.051-.2.189-.426.315-.639a1.284,1.284,0,0,1,.759-.037c.089.263-.07.539-.135.808.474-.659.906-.484,1.354-.6.372.606.751.492,1.38.737C-1356.36,929.807-1357.362,929.5-1357.948,929.417Zm1.646,4.729c-.124-.635-.626,0-1.029-.219C-1357.048,933.111-1356,933.445-1356.3,934.146Zm1.478.647c-.231.244-.464.467-.676.3.112-.123.209-.247.019-.356-.356.194-.132.36-.408.553-.419-.306.227-.663.336-.994.343.064.083.558.36.34.177-.219-.05-.412.126-.629.12.113.241.227.363.34C-1354.852,934.5-1355.062,934.654-1354.823,934.793Zm-.185-3.729c.131-.125-.068-.233.019-.359.487.318,1.017-.191,1.507.114C-1353.984,930.761-1354.524,931.44-1355.008,931.064Zm.761,5.394a1.055,1.055,0,0,1,1.227.035A.771.771,0,0,1-1354.247,936.458Zm2.078-3.649c-.2-.331-.444.091-.648-.239.134-.124.263-.25.4-.374C-1352.314,932.4-1352.1,932.6-1352.168,932.808Zm.41-4.289c-.406.552-.754-.054-1.146.226a.838.838,0,0,0-.919-.494c-.163.159.194.289.072.441-.817-.451-.32-.844.083-1.6.205.138.045.294.072.442.165-.151.307.18.468.068a.608.608,0,0,1-.261-.434c.358-.3.6,0,.5-.466.223,0,.448-.115.651.237-.137.2-.388.113-.3.281a2.586,2.586,0,0,1,.938.138c-.4.345.038.1.172.349-.24.375-.433-.152-.668.117.291.48.616.267.92.5.072.157.4.742-.127.63C-1351.093,928.6-1351.663,928.851-1351.758,928.519Zm.439,4.342c.368-.444.7-.2,1.046-.133A2.058,2.058,0,0,1-1351.319,932.861Zm1.882,3.838c.336-.421.625.055.965-.394a.628.628,0,0,1,.262.433C-1348.627,936.851-1349.049,937.1-1349.436,936.7Zm.886-2.528c.309-.355,1.068-.071,1.029.226C-1347.863,934.293-1348.219,934.483-1348.551,934.172Zm.58-2.07c-.12-.106-.251,0-.37-.164-.072-.393.73-.806,1.164-.581Zm.074-1.428c-.762.553-.607,1.568-1.391,1.3.562-.341,1.258-1.439.371-1.707.007-.322.331-.236.588-.378.141.523.7.13,1.118.313-.458.55.41-.014.542.512C-1347.091,930.927-1347.48,930.549-1347.9,930.675Zm5.643,6.111c.237-.346.447-.126.687-.47C-1341.073,936.713-1341.971,937.016-1342.255,936.785Zm1.831-7.985c.45.432.959-.252,1.407.221C-1339.064,929.42-1340.741,929.38-1340.424,928.8Zm2.608.806c-.178-.245-.378-.018-.55-.339a2.2,2.2,0,0,0,.695-.646c.293.439.619.229.919.506C-1337.114,929.465-1337.437,928.968-1337.816,929.606Zm1.455,6.63c.235-.269.45-.184.659.068C-1335.938,936.574-1336.152,936.486-1336.361,936.236Zm1.784-7.084c.362-.274.7-.142,1.047-.12C-1333.891,929.319-1334.246,929.493-1334.577,929.152Zm.634,7.9c.173-.256-.261-.024-.171-.351.433-.385,1.334-.283,1.406.229C-1333.091,936.439-1333.53,937.03-1333.943,937.053Zm4-7.762c-.244-.176-.517.159-.75-.159C-1330.483,928.838-1329.817,929.025-1329.945,929.291Zm-1.011-.6c.408.149.23.753-.128.627C-1330.8,929.1-1331.355,928.914-1330.956,928.7Zm-.563,3.575c.234-.267.451-.179.659.072C-1331.1,932.612-1331.312,932.523-1331.52,932.27Zm.253-1.254c-.105.131-.062.325-.288.1a.89.89,0,0,1,.406-.543c.487.342,1.018-.166,1.516-.04C-1329.977,931.185-1330.555,930.938-1331.266,931.016Zm3.195.455c-.151-.341-.272-.476-.66-.074a.64.64,0,0,1-.259-.439c.267-.332.516-.233.775-.374.234.374.491.265.741.339C-1327.891,931.112-1327.709,931.119-1328.072,931.471Zm1.889-1.737a.8.8,0,0,1,.548.344C-1325.913,930.5-1326.472,930.018-1326.183,929.734Zm6.911-.05c-.486.422-.336-.077-.74-.342C-1319.713,928.925-1319.256,929.415-1319.272,929.684Zm-2.922-.211c-.122-.091-.38-.037-.272-.261.584-.216.831.125,1.21.421-.107.15-.061.3-.307.45-.373-.2-.123-.41-.252-.617-.511.387-.72.416-.8.906-.345.014-.219-.294-.351-.527C-1322.7,929.514-1322.456,929.612-1322.194,929.473Zm-.8.728c-.271.366-.511.117-.766.191A.416.416,0,0,1-1322.99,930.2Zm-2.175-.045a.838.838,0,0,1,.867-.286C-1324.584,929.907-1324.9,930.483-1325.165,930.157Zm.4,6.934a1.676,1.676,0,0,1,1.435-.3A1.747,1.747,0,0,1-1324.765,937.091Zm2.451-5.3a.65.65,0,0,1-.263-.441c-.346.519-1.141.3-1.126-.154.359.366.776-.371,1.126.154.336-.342.65-.35.95-.018C-1322.019,931.77-1322.117,931.256-1322.314,931.789Zm-.036-1.157c.127-.843,1.27-.488,1.906-.214A2.693,2.693,0,0,1-1322.35,930.632Zm2.266.136c-.092-.118-.275-.233-.173-.353.208.259.474-.591.668-.1C-1319.752,930.466-1319.92,930.616-1320.083,930.768Zm.342.706c.645-.565,1.27.245,1,.784C-1319.015,931.908-1318.947,931.729-1319.742,931.474Zm.8,6.571c-.234-.171-.314-.351-.161-.53.4.119.844-.412,1.227.068C-1318.244,937.941-1318.586,937.8-1318.946,938.045Zm18.68,1.416c.429.242-.129.793-.406.535C-1300.4,939.817-1300.621,939.639-1300.266,939.461Zm-56.719,2.461c-.162-.228.458-.6.586-.384C-1356.4,941.669-1356.754,942.315-1356.985,941.922Zm-23.369,7.963c-.256-.552-.585.344-.838-.213.345-.5,1.146-.382,1.137-.073C-1380.25,949.5-1380.166,949.741-1380.354,949.885Zm12.783,1.2c.43-.489.707-.071.759-.04C-1367.066,951.088-1367.335,951.393-1367.571,951.086Zm11.337-3.593c.273-.275,1.026-.5.948-.043C-1355.6,947.445-1355.933,947.76-1356.234,947.493Zm1.4,5.812c.334-.376.639-.178.946-.043C-1353.929,953.611-1354.531,953.638-1354.831,953.3Zm7.781-11.539c-.287-.04-1.073.122-1.029-.228C-1347.79,941.517-1347,941.317-1347.05,941.766Zm-8.511,0c.121.113.24.227.36.339-.2.237-.4.331-.578.2C-1355.344,942.114-1355.992,941.964-1355.561,941.768Zm-.3,2.148c-.144-.41.553-.448.227-.721a.656.656,0,0,1,.576-.2C-1355.494,943.3-1355.252,944.14-1355.86,943.916Zm2.854-.3c-.485.157-1.478.593-1.616.161.081.056.6-.052.389-.2a.951.951,0,0,1-.94-.137c.27-.333.51-.118.75.144.307-.283.847-.172.884-.661.6.354,1.377-.535,1.686.285.076-.54.729-.554,1.057-.311-.917.159-.785.785-1.671,1.226C-1352.8,943.413-1352.812,944.22-1353.007,943.612Zm.747,9.313c.366.219.765-.156,1.12.309C-1351.473,953.471-1352.275,953.353-1352.26,952.925Zm3.943-8.618c-.249-.018-.343-.106-.361-.339-.686.459-1.316-.15-2,.347-.294-.2.065-.788-.461-.249-.316-.246-.3-.964.226-.721-.111.122-.207.247-.018.356.119-1.015,1.211-.751,1.853-1.054.149.143.3.286.449.428.382-.062.785-.6,1.146-.223-.2.569-1.076.709-1.544.6.088.124-.054.152-.2.185.314.017.612.38.929.318.5-.529.994-.933,1.445-.5-.763.02-.582.411-.885.656C-1347.731,943.648-1348.108,943.955-1348.316,944.307Zm.839,9.4c.368-.385.7-.018,1.037.048C-1346.8,954.057-1347.141,953.908-1347.478,953.71Zm1.76-10.3c-.231-.368-.484-.357-.758.028-.088-.085-.18-.17-.269-.255.49-.336.954-.165,1.427-.143C-1345.451,943.162-1345.585,943.281-1345.718,943.407Zm1.048-.129c.327-.22.626.06.938.146C-1344.062,943.707-1344.373,943.634-1344.67,943.278Zm.133,10.231c.03-.367.581-.485.867-.3C-1343.7,953.658-1344.242,953.562-1344.536,953.508Zm2.791-10.068c-.361-.331-.752-.124-1.136.04a.657.657,0,0,1-.237.9,2.037,2.037,0,0,1-.829-.416c.3-.307.572-.082.875-.477-.142-.353-.874-.134-.919-.5a.4.4,0,0,0,.479-.105c.149.145.3.286.45.427.659-.454.8-.077,1.534-.408C-1341.726,943.086-1341.41,943.25-1341.746,943.441Zm1.236-.131c-.4-.187-.376.382-.858.12C-1341.119,943.053-1340.4,942.816-1340.51,943.309Zm1.84,10.174c.281.08.583-.273.848.062C-1338.073,954.162-1339.053,953.405-1338.67,953.483Zm.245-10.243a3.785,3.785,0,0,1,1.316.137C-1337.524,943.772-1338.66,943.923-1338.425,943.241Zm1.406.224a2.809,2.809,0,0,1,.867-.293A.583.583,0,0,1-1337.018,943.465Zm1.067-2.347c.275-.31,1.027-.486.948-.027C-1335.3,940.792-1335.651,941.431-1335.951,941.118Zm.81,2.646c-.179-.17-.385.143-.559-.161.1-.091.2-.186.3-.277C-1335.165,943.532-1334.929,943.42-1335.141,943.764Zm-.152-.708c.164-.123.333-.369.487-.281-.056.061-.1.121-.01.18a.4.4,0,0,1,.48-.1A.778.778,0,0,1-1335.293,943.056Zm.665,10.928c.2-.59,1.052-.233,1.516-.044C-1333.629,954.2-1334.114,953.814-1334.628,953.983Zm3.886-12.923a2.271,2.271,0,0,1,1.985.038A8.932,8.932,0,0,1-1330.742,941.06Zm2.675,3.138c.28-.242.05-.33.4-.367C-1327.244,944.094-1327.8,944.6-1328.067,944.2Zm3.551-2.751c-.291-.062-.365-.528-.831-.428.275-.432.509-.044.778-.374C-1324.22,940.9-1324.086,941.169-1324.516,941.447Zm6.949-.753a1.062,1.062,0,0,1,1.139-.02A1.066,1.066,0,0,1-1317.568,940.695Zm2.372,3.611c-.062-.058-.122-.119-.181-.175-.065.05-.132.094-.19,0a.783.783,0,0,1,1.066-.46C-1314.784,944.071-1315.184,943.911-1315.2,944.305Zm23.081-14.01c-.272.1-.959.273-.651-.269C-1292.617,930.45-1291.944,929.787-1292.115,930.3Zm-.04-6.586a.869.869,0,0,1-.406.534c-.232-.43-.5-.036-.74-.36l.2-.176C-1292.835,924.055-1292.623,923.621-1292.155,923.709Zm-2.21-1.251c.5.108,1.027-.288,1.507.182-.5.084-.366.665-.794.71-.505-.189.051-.82-.343-.714-.151.208.077.415-.315.622C-1294.568,922.993-1294.419,922.725-1294.365,922.458Zm.884,1.248a.736.736,0,0,1-.956.176C-1294.117,923.787-1293.786,923.5-1293.48,923.706Zm-.295,5.7a1.442,1.442,0,0,1-.867.266c.181-.14-.766-.061-.352-.535A9.035,9.035,0,0,0-1293.775,929.4Zm-.809-2.671c-.386.132-.763.074-1.147.177C-1295.688,926.658-1294.591,926.29-1294.584,926.73Zm-.683-3.293c-.163.148.2.294.072.444-.244-.184-.512.145-.748-.179C-1295.709,923.469-1295.48,923.255-1295.268,923.437Zm-2.175-.09c.461.236.947.03,1.409.267a5.088,5.088,0,0,1-1.707,0Zm.39,7.12a.7.7,0,0,0,.461.266c-.067.059-.135.12-.2.18.048.058.094.118-.01.177-.505-.406-.149.384-.406.534-.214-.133-.447.091-.649-.265C-1297.394,931.06-1297.377,930.764-1297.053,930.466Zm-.868-7.031a.615.615,0,0,0-.207.358c-.219-.174-.934-.077-.829-.444C-1298.625,923.607-1298.249,923.053-1297.921,923.435Zm-.435,1.07c0,.236-.436.689-.685.446C-1298.815,924.846-1298.566,924.319-1298.356,924.505Zm-3.338-1.415c.481.368.881-.49,1.165-.539.384.456-.2.4-.425.891-.171-.357-.382.041-.579.181C-1301.766,923.445-1301.845,923.269-1301.694,923.09Zm-1.99,5.527c.279.1.577-.169.848.086C-1303.069,928.777-1303.795,929.107-1303.684,928.617Zm-.809-2.666c-.236.262-.461.354-.668.094C-1304.927,925.786-1304.7,925.693-1304.493,925.951Zm-1.745,2.594c.277.142.572-.062.848.082C-1305.631,928.878-1306.347,929.015-1306.238,928.545Zm-.939-.171c-.183-.1-.388.207-.559-.173C-1307.572,927.734-1306.994,928.14-1307.177,928.374Zm-4.68-2.889c.324-.146.665-.645.965-.368C-1311.222,925.411-1311.558,925.793-1311.857,925.484Zm.957-.189a2.547,2.547,0,0,1,1.417.074C-1309.939,925.552-1310.783,925.794-1310.9,925.295Zm1.548,3.011c-.132.118-.264.239-.4.359-.091-.088-.181-.178-.272-.265C-1309.781,928.036-1309.571,928.255-1309.353,928.306Zm-.513.806c-.093.238.133.474.151.709-.233.264-.444.05-.658-.082C-1310.111,929.574-1310.113,928.981-1309.866,929.112Zm-.616.9c.268.375,1.073-.127,1.029.255C-1309.785,930.308-1310.771,930.727-1310.481,930.008Zm.777-.364c.018-.207-.079-.415.318-.626C-1308.917,929.26-1309.371,929.9-1309.7,929.643Zm.31-4.186a.612.612,0,0,1,.768-.186A.459.459,0,0,1-1309.394,925.457Zm1.722,3.366c.416.491.881.07,1.308.346-.265.363.053.658-.516.8-.44-.232-.082-.472-.152-.71-.29.109-.568,0-.867.274C-1308.228,929.3-1307.975,929.062-1307.673,928.823Zm-.064,1.247c.511-.456.407.293.929.348C-1307.135,930.569-1307.727,930.412-1307.737,930.07Zm.81.8c.241.2.363-.278.4-.36l.36.353C-1306.383,931.182-1307.063,931.3-1306.927,930.865Zm2.372,1.762-.271-.266c.234-.258.46-.35.669-.093C-1304.289,932.388-1304.422,932.505-1304.555,932.627Zm3.35-2.507a.37.37,0,0,1,.47.086c-.705.469-1.016-.651-1.38-.8-.164.147-.329.3-.5.447a2.391,2.391,0,0,0-2.167-.255,1.406,1.406,0,0,1-.615.894c-.016-.689-.365.243-.748-.172a5.543,5.543,0,0,0,1.49-1.347c.575.785,1.7-.1,2.473-.191-.1.179-.619.358-.407.536.36-.258.7-.159,1.067-.449-.121-.091-.382-.041-.272-.266.338.3,1.208-.293,1.217.262-.455-.238-1.2.448-.8.894.079-.647,1.307-.294,1.326,0C-1300.4,929.74-1301.409,929.481-1301.2,930.12Zm.425-.892c0-.2.426-.442.687-.447-.186.284.425.071.549.354C-1299.969,929.454-1300.37,929.289-1300.779,929.228Zm1.523-5.612c-.284-.114-1.071.074-1.02-.442.415-.263.852-.745,1.444-.447-.238.337-.446.106-.687.446C-1299.28,923.384-1299.048,923.281-1299.256,923.615Zm.227,6.585c.178-.177-.23-.351.029-.531.25.036.505-.04.757,0C-1298.567,929.976-1298.588,930.316-1299.029,930.2Zm-.133-1.066c.5-.281.754.112,1.057-.267.116.146.367.292.261.444C-1298.278,929.146-1298.747,929.666-1299.163,929.134Zm4.114,10.233c.239.212.471.112.261.446-.419.006-.225-.377-.631-.624-.433.45-.81-.231-1.246.267.249.078.507-.024.741.355-.2.254-.382.031-.588.357-.338-.132.112-.7-.352-.536-.287.207.273.416-.126.624a.591.591,0,0,1-.56-.178c.035-.268.437-.535.326-.8-.225.057-.434-.159-.65-.267a10.287,10.287,0,0,1,3.971.181C-1294.315,939.844-1294.644,938.877-1295.049,939.367Zm1.118-8.808c-.653-.1-.685-.363-.956.175-.362.009-.433-.3-.352-.535a1.609,1.609,0,0,1-2.157-.444,2.46,2.46,0,0,0,2.283-.179c-.134.239-.023.475.153.714.054-.386.087-.413.5-.444.205.147.046.3.07.444.219-.482.215-.153.58-.177-.256-.368.334-.449.578-.176C-1293.241,930.245-1293.646,930.156-1293.93,930.559Zm.552,9.523c-.461-.251.232-.886.506-.621C-1292.966,939.861-1293.444,939.526-1293.379,940.082Zm.756,0c-.089-.091-.18-.178-.269-.269.364-.289.731-.713,1.064-.441C-1291.845,939.768-1292.322,939.648-1292.623,940.084Zm1.617-9.249c-.082-.753-.393-.187-.92-.537.366-.347.647-.354.525-.979.581.985,1.736.168,2.625.549a9.27,9.27,0,0,1-2.292.344C-1290.939,930.42-1290.716,930.626-1291.006,930.835Zm4.009-.51a.749.749,0,0,0-.309.44l-.179-.178c.2-.433-.063-.586-.532-.715C-1287.457,929.462-1287.374,929.9-1287,930.324Zm-1.174.7c.485.389,1.006.055,1.5.366a1.642,1.642,0,0,1-1.8-.1C-1288.3,931.41-1288.191,931.161-1288.171,931.027Zm-.453,1.42c.371.223,1.273-.259,1.308.365C-1287.7,932.777-1288.582,932.944-1288.624,932.448Zm1.13,7.484c.3-.361.508-.655-.053-.8a.738.738,0,0,1,.938.185C-1286.917,939.638-1286.97,940.313-1287.494,939.931Zm1.173-9.87c.488.386,1.033-.414,1.518.012C-1285.248,930.056-1286.521,930.893-1286.321,930.062Zm3.536-6.021c.241.226.52-.282.748.187C-1282.248,924.5-1282.918,924.407-1282.786,924.041Zm-.015,7.654c.011-.264.5-.463.766-.169A.778.778,0,0,1-1282.8,931.7Zm-1.055-1.612c.576.463,1.707-.064,1.966.464C-1282.462,930.346-1283.937,931.016-1283.856,930.083Zm1.033-5.33c.321-.091.651-.384.957-.168C-1282.206,925.057-1282.509,924.779-1282.823,924.754Zm3.749,6.363c.533.483.644-.664,1.246-.251-.53.3-.275.216-.507.617C-1278.613,931.5-1279.381,931.614-1279.074,931.117Zm-2.71-6.264c.739-.424.245-1.925,1.121-1.5-.049.141-.433.436-.327.8.231-.178.442.038.651.274C-1280.827,924.662-1281.328,925.193-1281.784,924.853Zm1.281.906c-.235.253-.462.345-.668.079.311-.153.011-.758.505-.616C-1280.836,925.4-1280.423,925.582-1280.5,925.759Zm-.926,14.228c.577-.369.548-.4.614-.882.177.286.364.289.57.006C-1279.9,939.658-1280.911,940.292-1281.429,939.987Zm1.45-15.2c.233-.254.461-.344.668-.08C-1279.545,924.96-1279.772,925.05-1279.979,924.786Zm.524,8.195c.011-.281.5-.358.768-.168A.6.6,0,0,1-1279.455,932.98Zm-.234-.982c.277-.175.051-.354.406-.528.5.761,1.069.149,1.59.466C-1278.034,932.486-1279.069,932.018-1279.689,932Zm2.96-.4c.03-.325.6-.712.868-.253A.679.679,0,0,1-1276.729,931.595Zm3.638,1.216c.213.139.456-.266.659.1C-1272.621,933.3-1273.252,933.15-1273.091,932.811Zm1.958-1.208c-.532-.233-.815-.245-.965.337-.4-.184-.063-.358-.161-.538-.166.147-.333.29-.5.436-.446-.518.036-.776-.712-.9.45-.075,1.291-.193,1.409.294.356-.291.985.209,1.064-.426.121.121.241.24.36.362C-1270.9,931.5-1271.113,931.267-1271.132,931.6Zm.072.445c.119-.147.019-.3.118-.444.62-.048.406.649.857-.07C-1269.583,932.074-1270.755,932.435-1271.06,932.049Zm1.715-.143c-.151-.135-.323.151-.47-.1.37-.585.547-.222.806-.874C-1268.559,931.271-1269.051,931.585-1269.345,931.905Zm1.742,1.195a.554.554,0,0,1,.857-.07C-1267.039,933.19-1267.336,933.4-1267.6,933.1Zm8.484-9.931a2.264,2.264,0,0,1-1.435.227C-1260.068,923.147-1259.578,922.86-1259.119,923.169Zm-2.348,1.36a.771.771,0,0,1-.948-.026C-1262.078,924.108-1261.773,924.324-1261.467,924.529Zm-.965,7.626c.4.24.376-.369.876-.42C-1261.03,932.275-1262.514,932.9-1262.432,932.156Zm4.585-7.882c-.527-.322-2.6,1.278-2.086-.061-.382-.016-1.279.362-1.317-.213.238-.34,1.318-.415,1.515.041.28-.687.454-.007.758.021-.223-.474.26-.8.434-1.057.445.4-.6.755-.155,1.154.107-.142.062-.3.308-.437C-1258.249,923.721-1257.666,924.044-1257.847,924.274Zm.714-.957c-.459-.289-.665-.205-.867.241-.273-.511.254-.537.6-.694C-1257.277,923.014-1257.027,923.172-1257.133,923.316Zm.831-1.4c.234.183.315.367.161.539-.121-.094-.239-.275-.369-.189-.1.048-.2.169-.289.08C-1256.633,922.2-1256.468,922.063-1256.3,921.917Zm.657,1.98c.2.346.453-.186.649.286C-1255.271,924.37-1255.944,924.251-1255.644,923.9Zm4.242.583a6.227,6.227,0,0,1-1.507-.227c.375-.184.516-.426.686-.423-.07.174.409.211.459.283.121-.144.02-.3.118-.442C-1251.143,923.61-1251,924.106-1251.4,924.48Zm1.616-.031c.054-.059.1-.116.009-.179a.63.63,0,0,1,.848.119A.636.636,0,0,1-1249.786,924.449Zm3.448-.586c.147.194.309.109.46.286-.271.151-.686.249-.695.6a3.611,3.611,0,0,1-.316-1.258c.4.191,1.332-.121,1.409.321C-1245.757,923.669-1246.055,923.874-1246.339,923.863Zm2.2-.358c-.057.086-.039.177.082.271.131-.093.261-.175.379.016a2.318,2.318,0,0,1-1.517-.062C-1244.648,923.653-1244.533,923.493-1244.137,923.505Zm-.56,1.668a.659.659,0,0,0-.369-.192c.225-.319-.348-.669.144-.974A.9.9,0,0,1-1244.7,925.173Zm.216-.525c.315-.225.1-.47.417-.7.371.163.758.031,1.128.224-.117.144.085.3.07.447A1.571,1.571,0,0,1-1244.481,924.648Zm2.5-.61c-.122-.1-.239-.277-.37-.193.088.121-.059.236-.207.348-.09-.1-.179-.185-.271-.278.526-.37.435-.256.6-.687.192.156.088.3.262.456.1-.083.046-.177.108-.264C-1241.451,923.646-1241.694,923.842-1241.98,924.038Zm1.021.487c.326-.208.629.045.948.042C-1240.351,924.995-1240.961,925.054-1240.959,924.525Zm2.211-.526c.048.09.175.186.081.271a.58.58,0,0,1-.17-.364c.287-.058.583-.258.857-.052C-1238.253,924.27-1238.492,923.933-1238.748,924Zm1.119.406c.272-.227,1.015-.207.938.221C-1237,924.426-1237.33,924.747-1237.629,924.4Zm1.191.856c-.152-.113-.316-.02-.469-.112.128-.111-.068-.239.018-.354.091.053.188.038.288-.076C-1236.367,924.906-1236.284,925.09-1236.438,925.26Zm.2-.169c.523-.374,1.009.044,1.525-.108A1.331,1.331,0,0,1-1236.239,925.091Zm.6-.685c.433-.377.858-.641,1.256-.386C-1234.594,924.631-1235.189,924.524-1235.635,924.406Zm2.589,1.37c.494-.017.954-.249.976-.488.091.155.03.3.261.458C-1232.236,926.057-1232.656,926.218-1233.046,925.776ZM-1344.162,959.1a.654.654,0,0,1,1.047-.129C-1343.182,959.375-1343.837,959.394-1344.162,959.1Zm9.908.476c.227-.135.476-.672.677-.286C-1333.448,959.564-1334.105,959.946-1334.254,959.58Zm4.326-3.143a.615.615,0,0,1,.767-.2C-1329.426,956.463-1329.69,956.694-1329.928,956.436Zm4.151.257c.009-.342.427-.491.667-.1C-1325.337,956.727-1325.569,956.949-1325.777,956.693Zm3.746.811a2.549,2.549,0,0,0-1.472-.861,2.383,2.383,0,0,1,1.645-.655c.069.2-.508.426-.128.625.526-.279.29-.538.514-.811.147.185.312.09.461.258C-1321.331,956.739-1321.715,956.9-1322.031,957.5Zm2.878-.764a1.981,1.981,0,0,1-1.606-.061c.279-.373.327-.137.606-.722.151.115.3.356.459.259.129-.122-.065-.238.019-.356.34.153.712-.327,1.03.248C-1318.957,956.515-1319.6,956.19-1319.153,956.74Zm2.952-.314c.269-.323.52-.329.758-.012C-1315.712,956.737-1315.952,956.448-1316.2,956.426Zm4.339.3c.4-.237,1.158-.411,1.228.075A1.218,1.218,0,0,1-1311.862,956.723Zm9.026-.521c.241.132.476-.092.461.265C-1302.646,956.837-1303.108,956.479-1302.836,956.2Zm31.464.227a.613.613,0,0,0-.37-.185.665.665,0,0,1,.6-.524C-1270.818,955.965-1271.071,956.2-1271.372,956.429Zm5.443-.685c.266-.135,1.023-.4.948.022C-1265.291,955.619-1265.635,956.15-1265.93,955.744Zm26.33-.633c-.241-.227-.583,3.177-.587,3.411a25.864,25.864,0,0,1-.26-3.536C-1240.21,954.813-1239.49,954.66-1239.6,955.11Zm1.768,3.782c-.341-.34-.192-3.744-.233-4.071-.318.418-.87.554-.858.053.518-.153,1.54-.434,1.7.251C-1237.9,954.833-1237.536,958.646-1237.832,958.892Zm1.852-3.975c-.248-.088-.515.156-.759-.036C-1236.772,954.325-1235.613,954.5-1235.98,954.917Zm6.328-1.115c.4.248,1.352-.5,1.417.161C-1228.676,953.89-1229.542,954.483-1229.652,953.8Zm2.952-29.482c.2.154.114-.193.29-.075-.236.239.292.046.36.375C-1226.232,924.895-1226.855,924.574-1226.7,924.32Zm1.489,29.982c-.2-.37-.436-.157-.65-.3.33-.249.656-.431.957-.126C-1225.01,954.017-1224.967,954.169-1225.211,954.3Zm1.975.377q-.18-.186-.36-.375C-1223.283,953.907-1222.781,954.43-1223.235,954.679Zm4.587-.446c.205-.22-.011-.448-.271-.286a.6.6,0,0,1-.027.535c-.181-.187-.385.105-.559-.211.486-.24.029-.535.515-.771.215.143.442.058.65.3C-1218.488,953.9-1218.274,954.439-1218.649,954.233Zm1.236-.016c-.211-.262-.126-.894.318-.6C-1217.247,953.812-1217.152,954.023-1217.413,954.217Zm.478-.06c.235-.244.461-.321.668-.049C-1216.5,954.352-1216.726,954.433-1216.934,954.158Zm2.553.246c-.271-.251-.571.012-.846-.141.563-.545-.256-.361.037-.71.424.364.893-.1,1.326.084C-1214.223,953.88-1214.489,954.13-1214.381,954.4Zm-.079-29.642c.248.094.52-.213.751.226C-1213.923,925.249-1214.593,925.122-1214.46,924.762Zm22.564,1.433c-.152-.32-.795-.283-.631-.673C-1192.281,925.942-1191.585,925.664-1191.9,926.194Zm4.171.34-.27-.289c.544-.157.457-.087.694-.567.247.157.5.078.74.418A1.727,1.727,0,0,1-1187.725,926.535Zm3.53-.146c-.392-.465-.977.241-.83-.518C-1184.806,926.1-1184.085,925.922-1184.195,926.389Zm9.5.492c-.318-.206.016-.355-.163-.55.3-.227.575-.073.858-.008C-1174.013,926.63-1174.417,926.5-1174.7,926.881Zm1.812-.1c-.456-.212-.362.39-.766.106C-1173.737,926.681-1172.737,926.2-1172.887,926.784Zm9.813-.016a.763.763,0,0,1,1.048.018C-1162.392,927.069-1162.72,926.638-1163.075,926.769Zm13.989,32.8c-.122-.107-.239-.3-.371-.221-.143.172.027.824-.415.667-.065-.214.179-.4-.063-.631.51-.03.484-.783.993-.778C-1148.844,958.938-1148.665,959.283-1149.086,959.564Zm.947.108c-.305-.417-.212-.441-.641-.518.089-.239.267-.857.7-.544C-1148.989,959.146-1147.161,958.884-1148.139,959.672Zm.866-.168c.286-.425.343-.36.616-.82.255.324.073.6.141.906C-1146.758,959.382-1147.038,959.9-1147.273,959.5Zm1.065-.324c.1-.108-.034-.241-.17-.375.2-.188.39-.166.568.063C-1145.922,959.075-1146.017,959.22-1146.208,959.18Zm.184-32.253c.313-.438,1.093-.421,1.045.034C-1145.31,926.64-1145.688,927.171-1146.024,926.927Zm1.155-.223a1,1,0,0,1,1.416.255C-1143.925,926.874-1144.41,927.04-1144.869,926.7Zm1.705.2c-.091-.1-.178-.2-.27-.3.24-.337.45-.089.668-.012Zm16.579.269c.4-.424.781-.325,1.166-.383A.913.913,0,0,1-1126.585,927.174Zm7.7-1.291c.618.095.816-.488.244-1.037a.707.707,0,0,1,.488-.2c.468.479-.35.782.314,1.288C-1118.19,925.965-1118.558,926.333-1118.884,925.884Zm5.874,19.144a14.648,14.648,0,0,0-1.832.367c-.092-.13-.273-.276-.172-.38a6.888,6.888,0,0,1,2.24-.842C-1112.48,944.509-1112.71,944.773-1113.01,945.027Zm2.961-.026a8.064,8.064,0,0,1-1.913.084c.584-.276,1.164-.366,1.751-.641C-1110.058,944.646-1109.975,944.832-1110.049,945Zm9.727.176c.271.278-.056.466-.035.707-.215-.164-.447.027-.651-.364C-1100.776,945.344-1100.561,945.477-1100.322,945.178Zm-8.97-.069c-.12-.133-.24-.269-.36-.406.574-.118,1.27-1.206,2.329-.734C-1108.157,944.331-1108.874,944.418-1109.292,945.109Zm2.011-16.619c-.207-.29-.456.208-.659-.183C-1107.75,927.941-1107.12,928.169-1107.281,928.489Zm1.219.444c.474.034.975-.423,1.434-.058C-1105.117,929.09-1105.6,929.282-1106.062,928.933Zm3.222-1.4c.237.32.335.333.379.056.416.352-.442.6-.586.271A.535.535,0,0,0-1102.84,927.537Zm.1,1.8c-.261.138-.524.282-.759-.114A.539.539,0,0,1-1102.743,929.332Zm-.739,8.7c-.232-.028-.384-.355-.352-.585.263.146.467-.458.605-.623.4.235.063.366.161.557.1-.036.189,0,.279.131C-1103.262,937.543-1103.669,937.408-1103.481,938.033Zm1.235.094a.375.375,0,0,1-.676.167C-1102.582,938.069-1102.656,937.7-1102.247,938.127Zm1.7-8.735c-.63-.743-1.356.365-2-.032-.325-.425.374-.155.219-.5-.308.168-.856.131-.85-.213a1.858,1.858,0,0,0,1.183-.716c.2.417.434.233.668.01a2.684,2.684,0,0,1,.523.968c.508-.282.179-.687.055-1.059A.882.882,0,0,1-1100.549,929.391Zm13.722,4.264c.011-.239.52-.707.786-.407C-1086.057,933.569-1086.55,933.712-1086.827,933.655Z" transform="translate(-16.033 -0.856)"/>
    <path d="M-1329.3,1015.853c-.322.766-1.3-.053-1.913.45,1.245.165,2.368-.1,3.4.011.237-.337-.288-.09-.361-.339A.832.832,0,0,1-1329.3,1015.853Z" transform="translate(-47.523 -57.784)"/>
    <path d="M-1278.967,938.137a.365.365,0,0,1-.052.048C-1278.976,938.18-1278.954,938.165-1278.967,938.137Z" transform="translate(-78.861 -11.124)"/>
    <path d="M-729.135,1003.321s0,0,0,.008C-729.1,1003.332-729.1,1003.33-729.135,1003.321Z" transform="translate(-409.002 -50.26)"/>
    <path d="M-746.344,1010.661h0C-746.243,1010.685-746.23,1010.687-746.344,1010.661Z" transform="translate(-398.669 -54.667)"/>
    <path d="M-1312.878,1016.39l-.143.018C-1312.942,1016.434-1312.885,1016.445-1312.878,1016.39Z" transform="translate(-58.447 -58.106)"/>
    <path d="M-1314.165,1016.406q.229-.037.457-.068C-1313.855,1016.29-1314.075,1016.194-1314.165,1016.406Z" transform="translate(-57.76 -58.037)"/>
    <path d="M-1196.8,924.71c-.123.173.246.078.08.268,1.087-.87,2.1-.221,3.16-.65a5.857,5.857,0,0,0-2.644-.155c-.1.118.08.237.17.354C-1196.289,924.559-1196.552,924.785-1196.8,924.71Z" transform="translate(-128.208 -2.696)"/>
    <path d="M-1360.517,1011.724c.3.21.64-.221.957-.235C-1359.874,1011.469-1360.184,1011.331-1360.517,1011.724Z" transform="translate(-29.931 -55.14)"/>
    <path d="M-1317.844,1004.683a.515.515,0,0,0,.17.348c.248-.354-.11-.35-.35-.519-.246.161-.2.306-.307.459C-1318.177,1005.06-1318.007,1004.808-1317.844,1004.683Z" transform="translate(-55.259 -50.975)"/>
    <path d="M-1351.811,973.254c-.393.134.594.025.539.5.176-.216.085-.421.127-.631C-1351.548,972.878-1351.407,973.5-1351.811,973.254Z" transform="translate(-35.102 -32.096)"/>
    <path d="M-1336.53,986.328c.21-.247-.357-.118-.461-.243-.233.189-.243.368-.026.534C-1337,986.385-1336.775,986.284-1336.53,986.328Z" transform="translate(-43.947 -39.912)"/>
    <path d="M-1340.075,979.77a.934.934,0,0,0-.406.555c.181.148.39-.254.569-.031.094-.122-.035-.137-.091-.084C-1340.032,980.064-1339.868,979.907-1340.075,979.77Z" transform="translate(-41.96 -36.12)"/>
    <path d="M-1306.529,1009.472c.322.391.246-.236.4-.374.278-.221.02.275.36.342a1.222,1.222,0,0,1,1.527-.243c.1-.181.115-.362.216-.543a2.435,2.435,0,0,1-1.993.173C-1306.254,1009.242-1306.51,1009.167-1306.529,1009.472Z" transform="translate(-62.344 -53.462)"/>
    <path d="M-1341.377,973.977a8.182,8.182,0,0,0,3.058-.694c-.133-.163-.4-.059-.271-.253-.41-.143-.253.152-.677.3.095-.456-1.423-.011-1.019-.391C-1340.51,972.614-1341.174,973.526-1341.377,973.977Z" transform="translate(-41.422 -31.978)"/>
    <path d="M-1294.344,1017.542c.271.334,1.374.239,1.986.012C-1293.02,1017.572-1293.678,1017.521-1294.344,1017.542Z" transform="translate(-69.66 -58.795)"/>
    <path d="M-1372.091,940.451c.108-.175-.155-.069-.271-.25-.008.326-.325.174-.6.572C-1372.355,940.915-1372.367,940.6-1372.091,940.451Z" transform="translate(-22.462 -12.364)"/>
    <path d="M-1335.214,974.636c.352-.119.688.091,1.055-.322C-1334.485,973.921-1334.863,974.531-1335.214,974.636Z" transform="translate(-45.122 -32.766)"/>
    <path d="M-1296.44,1006.175c.185-.273-.434.144-.55-.334-.271.159.031.294-.118.45C-1296.895,1006.44-1296.663,1006.216-1296.44,1006.175Z" transform="translate(-68 -51.773)"/>
    <path d="M-1348.111,948.8c-.373-.108-.741-.258-1.145.242.356.177.5-.065.639.409.094-.094-.033-.175-.081-.262C-1348.493,948.927-1348.319,949.139-1348.111,948.8Z" transform="translate(-36.692 -17.463)"/>
    <path d="M-1320.83,961.409a4.984,4.984,0,0,1,.416-.73c-.431.26-1.219.259-1.354.6C-1321.27,961.01-1321.355,961.448-1320.83,961.409Z" transform="translate(-53.195 -24.658)"/>
    <path d="M-1271.188,1007.752a.809.809,0,0,1,.768-.2c.21-.24-.354-.126-.46-.252-.156-.319.508-.17.406-.547-.207-.253-.457.291-.657-.068C-1271.062,1007.046-1271.585,1007.242-1271.188,1007.752Z" transform="translate(-83.472 -52.276)"/>
    <path d="M-1264.651,1008.663c.321-.347-.252-.225-.071-.444a4.954,4.954,0,0,0-1.245.3C-1265.541,1008.8-1265.064,1008.113-1264.651,1008.663Z" transform="translate(-86.697 -53.201)"/>
    <path d="M-1263.342,1006.632a.39.39,0,0,0-.4.368c-.173-.143-.067-.294-.26-.436a1.875,1.875,0,0,1-1.606-.042c.06.745,1,.117,1.38.76.341-.47.642-.187.938.151.566-.157.574-.369,1.076-.654-.186-.081-.375-.081-.559-.161-.271.156.03.3-.118.448-.1.058-.191.006-.289.1C-1263.278,1006.986-1262.943,1006.8-1263.342,1006.632Z" transform="translate(-86.914 -52.182)"/>
    <path d="M-1322.888,925.122c.136.11.272.223.171.347.152.086.324-.164.488-.29a3.315,3.315,0,0,0-.748-.143C-1323.074,925.159-1322.943,925.176-1322.888,925.122Z" transform="translate(-52.448 -3.259)"/>
    <path d="M-1300.261,929.913c-.168.236,1.2.633,1.7.112-.135-.073-.751.276-.559-.157C-1299.491,929.672-1299.906,930.362-1300.261,929.913Z" transform="translate(-66.099 -6.138)"/>
    <path d="M-1288.322,932.1c.387.148.538.8,1.118.315-.078-.7-1.04-.069-.9-.857C-1288.538,931.747-1287.887,931.9-1288.322,932.1Z" transform="translate(-73.276 -7.172)"/>
    <path d="M-1243.4,964.159c-.217.365.356.128.461.256.189-.137.1-.383.3-.274.1-.06.058-.121.009-.179s-.12-.114-.181-.173c.1.129-.49.669-.3.274C-1243.284,963.961-1243.2,964.3-1243.4,964.159Z" transform="translate(-100.22 -26.525)"/>
    <path d="M-1261.24,933.542c-.045.229-.147.317-.389.189-.012.328.8.208,1.118.325-.133.534.624.884.894,1.042a5.43,5.43,0,0,0-.4-1.5C-1260.125,934.5-1260.609,933.478-1261.24,933.542Z" transform="translate(-89.301 -8.364)"/>
    <path d="M-1254.022,937.727c.112.362,1.062.173,1.5.316.3-.334-.655-.137-.351-.525C-1253.05,937.636-1253.605,937.992-1254.022,937.727Z" transform="translate(-93.869 -10.753)"/>
    <path d="M-1255.7,934.483a.525.525,0,0,1-.758.02c-.391.241.027.314.18.173a.321.321,0,0,1,.072.444c.153.08.316-.024.469.078-.167-.147-.271-.735.3-.276C-1255.325,934.77-1255.578,934.628-1255.7,934.483Z" transform="translate(-92.311 -8.931)"/>
    <path d="M-1246.14,935.774c.308-.04.325-.262.786-.554-.154-.079-.317.024-.47-.078C-1246.2,935.362-1245.767,935.555-1246.14,935.774Z" transform="translate(-98.601 -9.327)"/>
    <path d="M-1233.976,926.275c.1-.091.2-.181.3-.272-.17-.231-.321-.484.207-.362.233-.257-.292-.026-.36-.348-.048.328-.136.108-.4.364C-1233.876,925.858-1234.462,926.08-1233.976,926.275Z" transform="translate(-105.752 -3.414)"/>
    <path d="M-1216.394,940.347c-.1.119-.2.142-.288.093-.243-.1-.056.235.089.088.056.179-.043.356-.216.538C-1216.5,941.167-1216.072,940.53-1216.394,940.347Z" transform="translate(-116.211 -12.451)"/>
    <path d="M-1189.461,967.08c-.292-.444-.627-.106-.937-.172-.087.121.111.237-.02.357.123.085.15-.04.1-.089C-1190.02,966.881-1189.773,967.631-1189.461,967.08Z" transform="translate(-132.053 -28.361)"/>
    <path d="M-1207.96,922.859c-.1.033-1.39-.488-1.516.018a.91.91,0,0,0-1.129-.162c.418.49.866.333,1.29.7C-1209.084,922.778-1208.448,923.111-1207.96,922.859Z" transform="translate(-119.936 -1.791)"/>
    <path d="M-1204.175,922.867c-.107.151.144.295.263.441-.3.172-.561-.149-.869.279.5.059,1.032-.39,1.517-.018.138-1,1.484.2,2.194-.289.013-.147-.188-.3-.072-.445-.415.089-.849.543-1.228-.075C-1202.988,923.113-1203.574,922.866-1204.175,922.867Z" transform="translate(-123.432 -1.892)"/>
    <path d="M-1204.4,920.148c-.881-.051-2.187.386-2.725-.414C-1207.033,920.672-1204.868,920.57-1204.4,920.148Z" transform="translate(-122.025 -0.076)"/>
    <path d="M-1189.462,921.875a4.957,4.957,0,0,0,1.126.17C-1188.322,921.68-1189.137,921.777-1189.462,921.875Z" transform="translate(-132.63 -1.307)"/>
    <path d="M-1176.106,921.491c.151.467-.121.571-.6.534a5.871,5.871,0,0,0,2.923.262c-.372-.5-.8.069-.921-.533-.1.647-.766-.1-1.155.359C-1176.2,921.868-1175.553,921.482-1176.106,921.491Z" transform="translate(-140.29 -1.13)"/>
    <path d="M-1175.936,920.377c.214-.336-.357-.106-.451-.444-.345.376-.258.471-.677.269C-1177.083,920.69-1176.252,920.277-1175.936,920.377Z" transform="translate(-140.072 -0.195)"/>
    <path d="M-1166.938,923.212c-.256-1.1-1.347-.451-1.976-.267A3.82,3.82,0,0,0-1166.938,923.212Z" transform="translate(-144.966 -1.789)"/>
    <path d="M-1143.393,924.811a2.957,2.957,0,0,0,1.046-.081c-.09-.086-.18-.18-.27-.269C-1142.892,924.886-1143.124,924.491-1143.393,924.811Z" transform="translate(-160.289 -2.914)"/>
    <path d="M-1130.14,922.39c.211-.232-.354-.14-.459-.273-.2.175-.4.354-.6.529C-1130.717,922.786-1130.683,922.069-1130.14,922.39Z" transform="translate(-167.611 -1.506)"/>
    <path d="M-1114.978,923.518a.615.615,0,0,1,.209-.354c-.39-.406-.82-.04-1.229-.106C-1115.872,923.9-1115.414,922.618-1114.978,923.518Z" transform="translate(-176.736 -2.018)"/>
    <path d="M-1093.517,922.383c.159.215-.085.414-.127.621.315.043.653-.369.948.021.427-.868.913-.3,1.445-.411.433-.167-.215-.361.217-.529-.549.23-1.067-.156-1.625.23-.175-.153-.069-.3-.263-.452,0,.285-.423.447-.684.43C-1093.847,922.179-1093.665,922.528-1093.517,922.383Z" transform="translate(-190.109 -1.354)"/>
    <path d="M-1053.294,924.135c.108-.145-.143-.3-.26-.454-.442.53-.817-.13-1.256.4C-1054.324,924.5-1053.773,923.625-1053.294,924.135Z" transform="translate(-213.472 -2.445)"/>
    <path d="M-1028.6,924.208c-.407-.073-.829.108-1.227-.14C-1029.839,924.406-1028.635,924.479-1028.6,924.208Z" transform="translate(-228.471 -2.678)"/>
    <path d="M-1007.128,927.91c.166.189-.616.163-.026.533a3.275,3.275,0,0,0,.225-.7.767.767,0,0,0-.768.139C-1007.524,928.191-1007.316,927.889-1007.128,927.91Z" transform="translate(-241.758 -4.849)"/>
    <path d="M-913.785,929.288c.1-.051.06-.113.009-.177s-.117-.128-.179-.191c-.266.244-.5-.066-.758-.059C-914.793,929.336-914.032,929.033-913.785,929.288Z" transform="translate(-297.58 -5.555)"/>
    <path d="M-833.835,1021.266a8.748,8.748,0,0,1,1.606.253c.245-.5.94-.186,1.435-.12.063-.082.01-.177.108-.255-.094-.069-.046-.122.009-.176C-831.739,1021.241-832.77,1020.948-833.835,1021.266Z" transform="translate(-346.142 -60.855)"/>
    <path d="M-776.225,927.884c.511-.176-.094-.486.418-.663-.093-.065-.19-.021-.279-.123-.066.054-.133.1-.2.154C-775.8,927.517-776.712,927.62-776.225,927.884Z" transform="translate(-380.641 -4.497)"/>
    <path d="M-765.493,930.489c.509.569-.03-.689.5-.384.187-.3-.413-.371-.568-.07C-765.351,930.209-765.3,930.364-765.493,930.489Z" transform="translate(-387.13 -6.144)"/>
  </g>
</svg>
