<svg xmlns="http://www.w3.org/2000/svg" viewBox="0 0 1024 95">
    <defs>
      <clipPath id="a">
        <path fill="none" d="M0 0h1024v95H0z"/>
      </clipPath>
      <style>
        .c{fill:#006938}
      </style>
    </defs>
    <g clip-path="url(#a)">
      <path d="M450.5 89.1a4.9 4.9 0 00-1 .2 4.8 4.8 0 01-.9 0 1.6 1.6 0 01-.6 0 .3.3 0 000 .3c0 .4 1 .7 2 .7h-.1a2.5 2.5 0 001.8-.6 1.6 1.6 0 00-1.2-.6M394.8 87.7a7.9 7.9 0 00-3.6.7 11.6 11.6 0 002.8.3H397.6a.4.4 0 00-.1-.4 4.3 4.3 0 00-2.7-.6M509 84.5a1.4 1.4 0 00-1-.4 4 4 0 00-1 .1 4 4 0 01-1 .2h-.1l-.2-.1c0-.2.4-.3.7-.4.4-.1.9-.2.9-.4s-.4-.5-1.3-.8a2.8 2.8 0 00-.8 1.4 3.4 3.4 0 01-.5.9 4.7 4.7 0 001.4.2 8.9 8.9 0 003-.7M610.6 89a11 11 0 01-2.5.4 3.7 3.7 0 01-2-.6.3.3 0 000 .3c0 .3.4.5.9.8a6.4 6.4 0 01.6.4 4 4 0 012.4-.7H611.2l1 .1a4 4 0 002.5-.7 3.8 3.8 0 00-1.8-.4 11 11 0 00-2.3.4M501 81.3a16.7 16.7 0 00-5.3 1.1l2.4.7c1.5.4 3 2.8 4.4 3a2.9 2.9 0 00.9-1.4 3.6 3.6 0 01.4-.9c-.9-.3-1.8-2.5-2.8-2.5M712.1 91.8h-1.3l-1.3.1a8.7 8.7 0 01-2.4-.3c0 .5 2 1.2 3.9 1.2a5 5 0 003-.8 10 10 0 00-1.9-.2M685.5 92.7a5.3 5.3 0 01-.9-.2.8.8 0 010 .7c-.3.4-.4.8.4 1.3.1-.6.4-.7.8-.7a3.7 3.7 0 001.4-.5 3.1 3.1 0 00-1.7-.6zM726.2 93l.5-.3a1.6 1.6 0 00-.7-.1 4.4 4.4 0 00-1.2.2 4.4 4.4 0 01-1.3.3 1.6 1.6 0 01-.6-.2c.2 1.1 1.6 1.3 3.6 1.5a.5.5 0 00.3-.3l-.3-.5c-.1-.2-.4-.4-.3-.5M715.6 88.6l-.8-.3a7.2 7.2 0 01-3.2.7 18 18 0 01-3.3-.4 19.6 19.6 0 00-3-.4c-.4.3-.6.5-.5.8 0 .5 1.3.9 2.5 1.3a7 7 0 013 1.4 6.9 6.9 0 00.2-.8c.2-1 .3-1.1 3.2-1.5a9.2 9.2 0 011.5 1.1 3.3 3.3 0 002.7 1h.3c.6-1.5-.4-2-2.6-2.9M701.2 93.7a12 12 0 001.4-.4 3 3 0 00-1.2-.5 2.9 2.9 0 01-1.3-.4.9.9 0 00-.5.5 1 1 0 00.2.7 1 1 0 01.2.8c0 .2-.3.4-.7.5a3.8 3.8 0 00.8.1 6.4 6.4 0 002.5-.6 10.4 10.4 0 00-1.4-.5l-.3-.1h.3zM701.2 91.3a1.8 1.8 0 00.5 0h.2V91a1 1 0 00-.7-.2.9.9 0 00-.5 0 .7.7 0 01-.3-.4c0-.3.3-.6.6-.9a2.2 2.2 0 00.4-.6 2.5 2.5 0 00-.2 0 8 8 0 00-1.7.2 8.1 8.1 0 01-1.7.2 2.6 2.6 0 01-1.7-.5 4.2 4.2 0 01-3.4 1.6 15 15 0 01-1.8-.2h-.1a15.8 15.8 0 00-2-.1 7 7 0 00-.8 0l-.9.4c0 .2.2.3.3.5s.3.3.3.4-.3.3-.8.4a10.3 10.3 0 012.3-.2h3.2a9.3 9.3 0 003.5-.5 1.3 1.3 0 01.7.7 1.3 1.3 0 00.8.7c0-.8 2.1-1.3 3.6-1.3zM300.6 87.7zM21.4 85a7 7 0 01-.6.5 4 4 0 001 0 6.2 6.2 0 002.3-.4l-.2-.2.4-.4a2.2 2.2 0 00.4-.2 3.4 3.4 0 00-1-.2 3.6 3.6 0 00-2.3 1M148.7 84.7zM148.6 80.6c.1-.6-.3-1.3-1-1.7 0 .3-.4.6-.7.9s-.7.6-.7 1c0 .2.2.4.6.6h.2c.8 0 1.4-.3 1.6-.8M13.3 88.5a.9.9 0 00-.3.5h.8c1.6 0 2.5-.5 2.6-1.5a1.6 1.6 0 00-.7-.2 3.9 3.9 0 00-2.4 1.2M730 89.2h-.1l-2.4-.2c-.2 0-.4.2-.4.3 0 .2.6.5 1.1.7.6.2 1.1.5 1.1.7 0 .1-.1.2-.4.3a2.2 2.2 0 00.5 0 .8.8 0 00.8-.4 1.2 1.2 0 01.4-.4 1.8 1.8 0 01.5-.1 4.3 4.3 0 01.7 0 4.3 4.3 0 00.7.1 1.8 1.8 0 001.3-.6l-3.8-.4zM300.5 87.2c-.3-.5-1.3-.5-2.5-.5a6.5 6.5 0 01-2.6-.4l-.4.2.3.4.3.1h.1l.2.2.4.3a2.6 2.6 0 011.3-.3 6.2 6.2 0 011.4.2 6 6 0 001.5.3.5.5 0 000-.5M151 83.5a6.6 6.6 0 01-.6-.5c-1.3.5-2 1-2.3 1.6a1.3 1.3 0 00.6.1 3.6 3.6 0 001.1-.2 3.7 3.7 0 011.2-.3 1.3 1.3 0 01.9.3.3.3 0 00.1-.2c0-.3-.5-.6-1-.8M316.5 87.8H315.2a9.6 9.6 0 01-1.8-.2.3.3 0 000 .3c.4.5 1.9.9 3.3.9a4.5 4.5 0 002.5-.6 7.5 7.5 0 00-2.7-.4M368 88c-2.1.2-4 .4-4.6 1.1h1.4c1.7 0 5.9-.1 6.8-1.7a25.6 25.6 0 01-3.7.6zM165 84.7a2.3 2.3 0 00-.8-.9.8.8 0 00-.3.7c0 .2.3.5.7.8l-1.2-.1h-.2l-2.9-.1a37.3 37.3 0 00-4.2.2 26.7 26.7 0 006.7 1v-.1a28.2 28.2 0 003.9-.3 2.7 2.7 0 01-1.6-1.2M265 83a1.4 1.4 0 00-.8-.7 2.7 2.7 0 01-.8 1 2.6 2.6 0 00-1 .9 4 4 0 001 0 6.4 6.4 0 002.3-.4 1.3 1.3 0 01-.7-.8M944.5 87l3 .1a.3.3 0 00.1-.2c0-.3-.5-.5-1-.8a6.6 6.6 0 01-.6-.4 3.8 3.8 0 011.2-.2h1.4a3.4 3.4 0 002.3-.7h-.6a18.5 18.5 0 00-2.7.3 18.6 18.6 0 01-2.8.3 6.1 6.1 0 01-2.4-.5c-.3.9-1 1.3-2.5 1.3a23.3 23.3 0 01-3.3-.4h-.2a25.7 25.7 0 00-3.9-.4 6.7 6.7 0 00-2.5.4l.3.6c.1.2.4.4.3.6a.4.4 0 01-.2.2 15 15 0 001.8-.3 10.6 10.6 0 012.5-.4 3.6 3.6 0 012.6 1 13.4 13.4 0 014.3-.6l2.9.1M910.2 87.9a.4.4 0 00.1.3c.4.4 1.7.5 2.7.5a23 23 0 003.5-.3 47.2 47.2 0 00-6.3-.5M948 89c-3 0-6 .4-7.2 1h4.6l4-.2c2.2 0 5 .2 6.7 1.6-.3-1.8-4.4-2.4-8-2.4M929 84.6l-.4-.2a10.6 10.6 0 001.7-.3 8.7 8.7 0 012-.4 3.3 3.3 0 01.6 0l.1-.1-.4-.2-.4-.2s0-.2.2-.3a20.5 20.5 0 01-8.9 1.6h-3a25.5 25.5 0 00-5.8.5 38.6 38.6 0 008.1.8c2.3 0 4.6-.2 6.7-.3a.3.3 0 00.2-.2c0-.2-.3-.5-.7-.7M890 88.5a11.6 11.6 0 004-1l.2-.1.1-.1.6-.2a3.4 3.4 0 00-2-.7 3.3 3.3 0 00-3 2.1M887.1 89.5l-2 .1-2 .1a4 4 0 01-.7 0l-.3.4c.1.2.5.2 1 .3.7 0 1.6.2 1.8.7l1-.6a1.9 1.9 0 011.2-.6 7 7 0 011.6.4.6.6 0 00-.1-.5 2 2 0 00-1.5-.3M883.7 87.6c.1.3 0 .5-.2.8-.2.2-.3.3-.2.5 0 .1.4.2 1.2.2a1 1 0 010-1c.2-.5 1-.7 2.5-.7h1a40 40 0 00-10.5-1l-6 .1a4 4 0 002.6.8h.8c.7 0 1.5 0 1.8 1 .1-.7.6-1 1.5-1a11.4 11.4 0 011.3.2 12.5 12.5 0 001.7.1 3.4 3.4 0 002-.5c.3.1.5.3.5.5M890 88.5zM960 86h-.1a11.5 11.5 0 01-3.2-1c-.8 1.3-2.5 1.4-4.4 1.5a13.2 13.2 0 00-3.2.3 13.3 13.3 0 011.4.2l1 .2a28.2 28.2 0 003.7.3c1.4 0 2.2-.2 2.4-.7a6.9 6.9 0 003.5.9 11.2 11.2 0 002.8-.4 9.7 9.7 0 00-4-1.3M554.4 88.8c-1.5 0-2.6.2-2.6.5a12.8 12.8 0 001.3.1h2.5a9 9 0 013 .4.3.3 0 000-.2c-.5-.5-2.5-.8-4.2-.8M1013.2 83.6c0-.1 0-.3.2-.5s.2-.3.2-.5c-.1-.2-.5-.4-1.1-.5l-1.7.8c.5.4 1 .8.9 1 0 .2-.3.3-.8.3a10.1 10.1 0 01-1.3 0c-.2 0-.3.2-.3.2 0 .1.3.2.7.2.6 0 1.4.1 1.6.6.2-.6.4-.6.8-.7a3.7 3.7 0 001.5-.5c-.4 0-.6-.2-.7-.4M855.8 89.7h-.1.1zM814 86a1.3 1.3 0 00-.9-.7c0 .6-1.3 1.3-2.5 1.9h-.1l-.8.4 1.6.9a2 2 0 011-.4 1.9 1.9 0 01.6 0 3.2 3.2 0 000-.5c0-.3 0-.3 1-.6h.2v-.1h.1l.4-.1a1.2 1.2 0 01-.7-.7M787.3 90.8a2.4 2.4 0 00-1.5.4l1.3.4a9.6 9.6 0 003.2.8 4.2 4.2 0 00.8 0 .2.2 0 000-.2c-.4-.6-2.2-1.4-3.8-1.4M796.7 89a5.6 5.6 0 00-2.2.5c0 .5.5 1 1.5 1.5 1-.5 1.5-.9 1.5-1.2 0-.3-.2-.6-.8-.8M785.2 90.6a3.9 3.9 0 00-2 .5 3.7 3.7 0 01-1.8.6 4.5 4.5 0 01-1.4-.3l-.3.3c0 .2.7.3 1.4.3a4 4 0 011.5.3l3.3-1.7a4.1 4.1 0 00-.7 0M793.8 89.4a1.3 1.3 0 00-.8-.7 1.5 1.5 0 00-.8.6c-.1.2-.2.3-.4.3a1.5 1.5 0 01-.5 0 .3.3 0 00-.1.2c0 .2.5.5 1 .8a6.7 6.7 0 01.6.3l.7-.3h.1l.2-.2.7-.3a1.2 1.2 0 01-.7-.7M760.5 89.3a4.7 4.7 0 01-2.3 1 5.8 5.8 0 00-1.6.4 1.7 1.7 0 001.3.5h1.1a1.7 1.7 0 011.3.4c.7-.5 1.4-1 1.3-1.4 0-.3-.4-.6-1.1-1M750.9 90a3.7 3.7 0 00-1.1.2h-.1a4.8 4.8 0 01-1.5.3 2.7 2.7 0 01-2-1 2.1 2.1 0 01-1.3 1 4.7 4.7 0 002.5.7 15.6 15.6 0 002-.1 16.3 16.3 0 011.8-.2h.6c-.1-.6-.4-1-1-1M806 89a2 2 0 01-1.3-.9 5.5 5.5 0 01-2.8.7 5.8 5.8 0 00-2.6.5 5.5 5.5 0 001.6.2l1.2-.1H803.3a4.6 4.6 0 012.9.7l.3-.6c0-.2-.3-.3-.6-.4M817.2 86.3a3 3 0 00-1.6 1 2.2 2.2 0 001.1.3 5.8 5.8 0 001.5-.3h.3v-.1h.1a2.9 2.9 0 01.6-.1h.1l-.5.8a1.5 1.5 0 00.6.2c.8 0 1.3-.8 1.5-1.2a1.3 1.3 0 010-.1l-2-1.2a11.5 11.5 0 01-1.7.7M841.2 86.2a2.3 2.3 0 00-1-.2 2.1 2.1 0 00-1.1.4 2.4 2.4 0 01-1.4.4 3.3 3.3 0 01-1.3-.3l-.2-.4c.1-.3.8-.4 1.4-.5a3.4 3.4 0 001.6-.5 4.9 4.9 0 00-1.5-.2 4.3 4.3 0 00-3.4 1.6c1.4.1 2 .4 2 1.2a3.7 3.7 0 01-2 .5 9.7 9.7 0 01-1.4-.2 10 10 0 00-1.5-.1 3.7 3.7 0 00-2 .6h1.2a3 3 0 012.4.9 9 9 0 013.8-.9 7.9 7.9 0 013.6.9 1.7 1.7 0 00-.4-1 1.4 1.4 0 01-.3-1.1c.1-.4.6-.7 1.5-1M739.7 90l2 1.1 2.2-1.1a4.6 4.6 0 00-2-.5 5.1 5.1 0 00-2.2.5M811.2 84.6h.4a2.7 2.7 0 001.7-.4 7.3 7.3 0 00-1.3-.1l-2.4.1h-.1c-.2 0-.4.5-.6 1v.1a2.6 2.6 0 012-.7h.3M807.6 88.3a.4.4 0 01-.2.1h.2M807.6 88.3a11.1 11.1 0 001.3-3c-.5-.2-.9 2.4-1.3 3M859.4 85.7c.5 1.3 1.8 2 3.9 2a26.5 26.5 0 005.2-.8l2-.3a34.2 34.2 0 00-8.3-1h-2.8" class="c"/>
      <path d="M0 0v82.3l1.7.1a83.7 83.7 0 0013-1.5 82 82 0 019.3-1.2c.2 0 .3.2.3.3 0 .2-.6.4-1.2.6s-1.2.5-1.2.7c0 .2.3.4.9.6 1-1.6 3.6-2 6-2.2l-.6-.2H28a11.9 11.9 0 00-3-.5 5.2 5.2 0 00-1 0 .5.5 0 01-.2-.3.5.5 0 00-.3-.5 6.7 6.7 0 011.7-.2 16.7 16.7 0 012.4.2 16.6 16.6 0 002.5.3 6.1 6.1 0 003.1-.8 1.3 1.3 0 01.7.7 1.4 1.4 0 00.8.8 7.2 7.2 0 013-.6H39.3l1.4.1a8.5 8.5 0 001.7-.2c.5.3.7.6.7.9a.8.8 0 01-.3.6 1.8 1.8 0 00.7.1 5.1 5.1 0 00.9 0 5.3 5.3 0 01.8-.1 1.7 1.7 0 011.3.5c.4 0 .7-.2.7-.4s-.3-.5-.6-.7a169.6 169.6 0 0025.5.2h.7c.2.2.4.4.3.6 0 .4-.6.7-1.5 1a5.6 5.6 0 00.8 0H75a5.2 5.2 0 011.2 0c.6 0 .9-.2 1-.4s-.1-.5-.3-.7-.3-.4-.2-.6.3-.3.7-.5a6.7 6.7 0 003.3.9 11.3 11.3 0 004.2-1c.7.3.8.6.9.9 0 .3.1.6 1.1 1a.8.8 0 00.4-1 .8.8 0 01.3-1 4 4 0 002 .8 3.4 3.4 0 001.3-.3 9 9 0 013.2-.7c.6.3.7.6.8.9 0 .3.1.6 1.1 1a.8.8 0 00.3-.7c0-.3-.2-.5-.7-.8a7.4 7.4 0 011.5-.1c3 0 7.3 1.3 8.5 2.7a1.2 1.2 0 01.4.9c1-.2 1.6-.4 1.6-.6 0-.3-.6-.6-1.3-.9-.8-.4-1.7-.8-1.8-1.3 0-.2.3-.5.7-.7a2.4 2.4 0 011.7.6 5.4 5.4 0 002 1 9.2 9.2 0 013-.4c1.5-.1 2.8-.2 3.5-1.5h.6c2.2.1 4.5.2 5.1 1.8l2.8-1.2a1.7 1.7 0 00-1-.5l-.3.3c-.1.1-.2.3-.4.3a1.7 1.7 0 01-1-.5c.7-1 2.7-1 4.7-1h4.3a20.7 20.7 0 005-.5 4.2 4.2 0 00-.4.9c-.3.7-.6 1.3-2.4 1.5a4 4 0 001.8.5 4.8 4.8 0 002.7-1.1 6.6 6.6 0 013.7-1.5 4 4 0 002.7 1 11.5 11.5 0 003.2-.7l1.6-.4a8.6 8.6 0 004.6 1.1 29.2 29.2 0 003.4-.2h.2l.8-.1a.4.4 0 010 .4c0 .3-.8.3-1.5.3a4 4 0 00-2.3.5.6.6 0 01.2.4c0 .3-.3.6-.6.9-.4.4-.8.8-.4 1.2a21.2 21.2 0 014.7-1.6 17.4 17.4 0 005.2-1.8 3.2 3.2 0 001.7.3 10 10 0 012.5.5.4.4 0 01.1.4c-.2.4-1.2.4-2.1.5-.8 0-1.5 0-1.5.3 0 .2.4.5 1.2 1a2.5 2.5 0 01-1.4.3 6.8 6.8 0 01-1 0 6.7 6.7 0 00-1-.2 2.5 2.5 0 00-1.4.4 2.6 2.6 0 001.8.5h1.5l1.3-.1a1.3 1.3 0 011 .2.7.7 0 01.1.6 7.7 7.7 0 013-.7 15.4 15.4 0 003.6-.7 1 1 0 00.1.9 1.5 1.5 0 001.1.3h1.8a5.2 5.2 0 012.7.6 16.2 16.2 0 015.8-1.2 22.5 22.5 0 004-.6 1 1 0 00-.3-.7 3.7 3.7 0 00-2.6-1 3.2 3.2 0 00-1.3.3c.1-.7.9-1 2.2-1a21 21 0 013.1.3h.1l1.6.3a.8.8 0 010 .7 2.9 2.9 0 01-1.8 1.2 2 2 0 00.9.9 1.9 1.9 0 011 1.5c.2-1.5 1.2-1.5 2.5-1.5a7 7 0 003.6-.8 1.5 1.5 0 00-1.3-.7 4.8 4.8 0 00-.6 0 4.6 4.6 0 01-.6 0 1.4 1.4 0 01-1.1-.4 11.5 11.5 0 001.5-.2 10 10 0 011.7-.2 3.2 3.2 0 012.1.7l.1.2-.6.2a2.5 2.5 0 00-1.2.4 2.8 2.8 0 001.2.4c.3 0 .5.1.5.3l-.2.2a1.6 1.6 0 00.7.2.7.7 0 00.7-.4v-.1c0-.2.2-.4.4-.4s.5.2 1 .6l-.3-.5a2 2 0 01-.5-1.5 1.7 1.7 0 011-.9c.7 0 1 .1 1.2.3a.5.5 0 010 .4c0 .3-.1.7.8 1.1a1.6 1.6 0 001-.7 1.3 1.3 0 00-.2-1l-.1-.2h.1a5 5 0 01.8 0 4.9 4.9 0 00.7.1 1.8 1.8 0 001-.3c.6.3.9.6 1 .9 0 .4-.3.8-.7 1.1s-.6.7-.6 1a1 1 0 00.6.8c0-.2.2-.4.4-.5.5-.6 1-1.2.8-1.8a2 2 0 011.1-.3 4.4 4.4 0 011.4.3 4.5 4.5 0 001.4.3 2.2 2.2 0 001.5-.6 2.7 2.7 0 011.6 1.3 2.3 2.3 0 00.9.8 6.3 6.3 0 012.6-.5 16 16 0 012.8.4l1.5.2c.7-.9 1.9-1.3 3.9-1.3 1 0 2 0 2.9.2h1.3l.3.4c0 .1-.3.3-.7.4l-.7.5c0 .2.4.3 1 .5a5.9 5.9 0 013.5-1l2.1.1h.2l2.6.2h.2c.5-.2.7-.3.8-.5s-.1-.4-.3-.6-.4-.4-.3-.5c0-.2.2-.3.5-.4h.4c1.2 0 1.2.4 1.3 1s0 1.1 1.2 1.4c1.4 0 2-.3 2.3-1a7.6 7.6 0 004.4 1.3 23.5 23.5 0 004.2-.6 23.7 23.7 0 014.3-.5 8.1 8.1 0 013 .6 6.8 6.8 0 014-2c.8 0 1.6-.3 2.7-.6a2.2 2.2 0 011 .4l.3.1a3.9 3.9 0 002 .5h.3a.6.6 0 010 .5c-.3.4-1.1.5-2 .6a5 5 0 00-2.4.4 8.5 8.5 0 002.6.4 13.8 13.8 0 005.4-1.4h.1c1.6.3 1.8.7 2 1.2a2.8 2.8 0 001 1.2 7.5 7.5 0 011.1 0h1.4a2 2 0 001.9-1l2 1.3a.6.6 0 010-.6c.2-.4 1.3-.7 2.6-.7a6.6 6.6 0 014.3 1.3 3 3 0 012.4-1.2 9.3 9.3 0 012 .3h.1l1.4.3 1-.5-.5-.1a2.4 2.4 0 01-1.4-.6 2.5 2.5 0 011.2-.3 6.8 6.8 0 011 .1 6.6 6.6 0 001.1.1 2.8 2.8 0 00.4 0c.7.5 1 .9 1 1.1 0 .3-.2.4-.5.6a3.4 3.4 0 00-.7.6 10.5 10.5 0 016.7 2.3 1.9 1.9 0 01-1 .3 2 2 0 01-.6-.1c.2.8 2.8.8 5.1.8h2.3a12.1 12.1 0 01-5-1.8 10.4 10.4 0 00-4.8-1.7 6.8 6.8 0 012.7-.6 5.6 5.6 0 013.1 1 5.7 5.7 0 003.2 1.2h.5c0-.6-1-1.2-1.8-1.8-1-.7-2-1.4-1.6-2a7.5 7.5 0 002.8 1c1.3.3 2.7.7 3.4 1.5a6.5 6.5 0 001.6-2 7 7 0 011.3-1.6 1.4 1.4 0 000 1c.3.7 1.2 1 2.2 1.3a12.2 12.2 0 011.8.7.4.4 0 01.2.3c0 .3-.2.5-.5.7s-.6.5-.6.7c0 .2.3.4.7.6l.6-.5a1.5 1.5 0 00.7-1.7 5.9 5.9 0 011.3.1h.1a4.2 4.2 0 00.9.2h.2c0-.2 0-.4-.3-.8a10.8 10.8 0 013.9 1.2l.1.1.6.3c0 .4-.7.4-1.6.5-1 0-2 .1-2.3.6a.7.7 0 000 .7 45.9 45.9 0 0110.5-1.5c1.8 0 2.9.3 3.1.8.1.3 0 .6-.2 1a2.2 2.2 0 00.2 0 6.7 6.7 0 001.6-.2 6.6 6.6 0 011.6-.3 2.3 2.3 0 011.4.4c1.2-1.3 3.2-1.4 5.4-1.5 2.1 0 4.6-.1 6.6-1.4a2.7 2.7 0 002.2 1.3c.5 0 1 .2 1 .4s0 .4-.2.7a2 2 0 00.5 0 1.6 1.6 0 001.2-.6 3.5 3.5 0 012.1-1.3c1 0 1.8.2 2.5.3l4.4.2a15 15 0 005.4-.9c.2.7 1 1.1 2 1.1a4 4 0 001.5-.2 1.3 1.3 0 00.8-.7 3.6 3.6 0 002.6 1 4.3 4.3 0 012 .6 2.7 2.7 0 00-.7-1 4.1 4.1 0 01-1.2-1.3h.3a7.8 7.8 0 015 1.9 5.2 5.2 0 00.5 0 2.5 2.5 0 001.3-.3h.1a1.7 1.7 0 011-.3 6.2 6.2 0 012.3.8.6.6 0 000-.5c0-.3-.1-.7.7-1a10.6 10.6 0 01-1.4.1 14.2 14.2 0 01-5.4-1.2l3.5.2h.1l7.4.3h.6a.5.5 0 01.2.4.5.5 0 00.3.5 4.5 4.5 0 01-1.1 0h-2.5c-.8 0-1.7 0-1.8 1a4.7 4.7 0 001.6.2 13 13 0 001.9-.2 14.2 14.2 0 012.2-.3 7 7 0 013.3.8 3.8 3.8 0 011.6-.6 1.2 1.2 0 01.6.1.8.8 0 00.3-.6c0-.3-.3-.6-.7-.8a6.3 6.3 0 012.3-.4h2.5a6.5 6.5 0 002.1-.2c1 .3 1.1.6 1.2 1 0 .2.1.5.8.8.5-.2.7-.3.8-.5a.5.5 0 00-.2-.5v-.3l.8-.1h.4c.4.1.6.3.6.5l-.2.5-.2.3 1.2.2c.4-.1.6-.3.7-.4s0-.3-.1-.4a.5.5 0 01-.2-.4.4.4 0 01.3-.2c3.4 1.3 7.1 0 10.8-.2h4.3l3.8-.2a22.1 22.1 0 016 .6.3.3 0 01.1.3c0 .2-.3.4-.7.6-.3.2-.7.4-.7.6a.2.2 0 000 .2 5 5 0 001.1.1 13.3 13.3 0 002.5-.3 13.4 13.4 0 012.4-.3 4.3 4.3 0 013 1.1.8.8 0 00.3-.7c0-.2-.2-.5-.7-.8a2.6 2.6 0 011.8-.6 2.8 2.8 0 001.5-.4c.4.2.6.3.6.5 0 .3-.4.5-1 .8l-.2.1a3.5 3.5 0 001.7.4h.9l1-.1a4 4 0 011.1.2c.2-.1.2-.2.2-.3 0-.2-.3-.4-.7-.6a4.4 4.4 0 01-.4-.3 1.7 1.7 0 011.1-.4 4.7 4.7 0 01.7 0 4.5 4.5 0 00.7 0 1.7 1.7 0 00.7 0 .7.7 0 010 .4.7.7 0 00-.2.5 1 1 0 00.6.5l1.4-.7.4-.2.5-.2c.6.3.7.5.8.8 0 .3.1.6 1.1 1a177 177 0 0115.5-.4l-1.5-1h.1a5.5 5.5 0 001.6-.3 5.6 5.6 0 011.7-.3 2 2 0 011 .2c.3.2.5.3.5.5 0 .3-.4.5-1 .8l-.2.1a9.4 9.4 0 002.2.3c2.7-.1 5.4-4.6 8-5.4a2.3 2.3 0 002 1.2 6 6 0 002.2-.5c-.9-.4-1.2-.6-1.2-.8 0-.3.6-.4 1.2-.6a9.9 9.9 0 001.2-.3h-1.7a23.7 23.7 0 01-4-.3c-.6-.1-1 .3-1.5.9.6-1.1 1.3-2.3 2-2.3a14.1 14.1 0 015.8.9.6.6 0 00.2-.4.6.6 0 01.4-.4 2.8 2.8 0 01.6-.2l.3.1-.1.4a.9.9 0 000 .7 1 1 0 00.7.4c1.2-.8 2.6.8 4 .8a17 17 0 013.6.5l2 .4a3.2 3.2 0 013-1.2 13.8 13.8 0 012.4.2 8.2 8.2 0 01-.7.8c-.6.6-1.2 1.2-1.1 1.8a1.2 1.2 0 00.5.8 10.8 10.8 0 01-1.8.2c-1.3 0-2.5 0-2.6.8h.9a2.1 2.1 0 012 1v.1l.1.1a3.2 3.2 0 011.7-1 2 2 0 001.2-.8 4 4 0 011-.1 10.5 10.5 0 011.2 0 10.4 10.4 0 001.2.2 3.7 3.7 0 002-.6 5.2 5.2 0 004 1.3 34 34 0 006.5-1h.1c0 .9.5 1.3 1.5 1.3a9.3 9.3 0 003.3-.9.8.8 0 01.2.7c0 .2-.4.5-.9.7a8.4 8.4 0 002.1.3 23.3 23.3 0 003.5-.4 23.3 23.3 0 013.4-.3 8.7 8.7 0 011.7.1c.2 0 .3-.2.3-.3l-.3-.5c-.1-.2-.4-.3-.3-.5 0-.2.2-.3.5-.4a.9.9 0 01.5-.2 2 2 0 01.9.4 1.9 1.9 0 001 .4 1.1 1.1 0 00.7-.5c.5.2.7.5.8.8a.8.8 0 01-.3.6 2 2 0 00.3 0c.4 0 .5-.2.6-.4a.6.6 0 01.7-.6 4.2 4.2 0 011 .2c1 .5 1.4.8 1.4 1.2 0 .2-.1.4-.4.6a7.4 7.4 0 012-.2h2.1l1.8.1c1.5 0 2.3-.3 2.7-.9.7.3.7.6.8.9 0 .3.2.6 1.2.9a.7.7 0 010-.1.8.8 0 01.9-.7 3.3 3.3 0 011.2.3 2.3 2.3 0 01.6.3 12 12 0 003.4-.8 8.7 8.7 0 012.8-.5 7 7 0 012.9.6c.4-.9 2-1 3.3-1h1.9a35.9 35.9 0 002.3 0 .7.7 0 010 .5.6.6 0 00-.1.5 1 1 0 00.5.5c1-1 2-1 3.2-1a6.6 6.6 0 004-.9.5.5 0 000-.5c-.2-.5-1.3-.7-2.2-.7a3.1 3.1 0 00-1.5.3l-.2-.1c0-.4 2.3-1 3.2-1a1 1 0 01.3 0l.2-.5-.8-.2H587.8l-1 .1a1.3 1.3 0 01-.4 0 .3.3 0 010-.3c0-.2.5-.5 1-.8h.1l.6-.3a.7.7 0 01.1 0 3 3 0 011 .3h.3a5 5 0 001.9.5 3.5 3.5 0 002-.7c1 .5 2 1 2 1.5 0 .2-.2.4-.5.5a3.5 3.5 0 001.8.4h1.8a3.4 3.4 0 012.1.6 2.1 2.1 0 00.3-.6c.2-.6.4-1 1.8-1h.2c-1.3 2.1-5.8 3.6-9.4 4.6a22.2 22.2 0 013 .7l2.2.5a3.5 3.5 0 00.5-.4 1.6 1.6 0 011.1-.7 2.2 2.2 0 011 .3.8.8 0 00.4-.6.8.8 0 01.4-.8 3.9 3.9 0 011-.2 1 1 0 011 .6 3 3 0 001.5 1.1 1 1 0 01.3-.7c.6-.7 2.4-1.2 4.6-1.2 2.3 0 4.8.6 5.3 1.8 0-.6.5-.6 1-.6h.7a3 3 0 002.1-.7 2.8 2.8 0 00-1.6-.4 9.5 9.5 0 00-1 0 9.7 9.7 0 01-1 .1 2.8 2.8 0 01-1.6-.4c0-.3.4-.5 1.2-.5a24.2 24.2 0 013.2.4l2 .2c.2-.6 1-1.2 2.2-1.6a1.3 1.3 0 01.6-.2.3.3 0 01.3.3 1.1 1.1 0 01-1 1 2.2 2.2 0 00.5 0 1 1 0 001-.7 1.2 1.2 0 00-.8-1.3 3.4 3.4 0 01-1 .1h-.8a2.7 2.7 0 00-2 .7 3 3 0 01-.4-.9 3.1 3.1 0 00-.5-.8 4.8 4.8 0 011.5-.2 11.6 11.6 0 012.2.3 11.6 11.6 0 002.2.2 4.7 4.7 0 001.6-.2c.2.4-.4 1-1 1.6-.4.5-.9 1-.7 1.3 0 .3.5.5 1.4.5-.2-.4-.2-.6 0-.8 0-.2.4-.2 1-.3a7.8 7.8 0 001.8-.3 1.1 1.1 0 01-.3 1l-.1.2.5.1h.1l1.7.5c.3-1.1.5-1.5 2.9-2a1.2 1.2 0 001.3 1 7.7 7.7 0 001.2-.2h.1a9 9 0 011.6-.2 3 3 0 012 .7c-2 0-4 .3-6 .5a56.7 56.7 0 01-7 .6 28.9 28.9 0 01-5.6-.6c.4.3.5.6.5.8-.1.3-1 .5-2 .6-1 .2-2.2.4-2.5 1a.8.8 0 000 .7 3 3 0 001.2.4 3 3 0 011.3.5 2.3 2.3 0 012.1-1 6.8 6.8 0 014.2 1.6.9.9 0 01-.2-.7c0-.3.4-.5.8-.8s.7-.4.7-.7c0-.3-.1-.5-.4-.9a2.2 2.2 0 00.2 0 7.4 7.4 0 001.3-.1 7.7 7.7 0 011.3-.2 2.4 2.4 0 011.4.4c.1.1.2.2.1.3l-1 .2c-.5 0-1 0-1 .2s.4.4 1.2.7a1.2 1.2 0 01-.8.5 2.2 2.2 0 01-.8-.2 2.2 2.2 0 00-.7-.2 1.2 1.2 0 00-.9.5 1.2 1.2 0 01.7.7 1.3 1.3 0 00.8.7 5.3 5.3 0 012.5-.9c1.2 0 1.7 1 2.2 1.9 0-.7.5-1.4 3.3-1.4l2.5.1h.2l2.5.1a11.3 11.3 0 001.7-.1c.4-.3.5-.5.5-.7l-.7-.3a6 6 0 01-1.3-.5 13.2 13.2 0 016-.9h1c1.9 0 3.5 0 4.4-.9.5.2.8.4.9.6s-.2.4-.3.6c-.2.2-.4.4-.4.6a.4.4 0 00.2.2l-2.3.1H649a18.4 18.4 0 01-3.5-.2 1.7 1.7 0 00-.9 1.2 1.5 1.5 0 00.7 1 1.5 1.5 0 01.9-.3 2.8 2.8 0 011.2.4c.3-.4.5-.7 0-1.1a7.4 7.4 0 003.8.7 23 23 0 005.4-.7 10.8 10.8 0 003.8-1.5 1.4 1.4 0 00-.2 1.2c.3.6 1.2.7 2.2 1 1.2.1 2.5.4 3 1.3a3.4 3.4 0 011.6-.4 3.7 3.7 0 011 .1c.3-.2.3-.4.3-.6-.1-.2-.5-.2-1-.2h-.8c-.6 0-1.2 0-1.5-.4a.6.6 0 01-.1-.5c.1-.6 1.2-1.1 2.6-1.7l2.6-1.4c.5.3.7.6.7.8 0 .4-.7.7-1.5 1-.7.2-1.5.5-1.5 1a4.3 4.3 0 001.6.5 2.3 2.3 0 001.2-.4 7.2 7.2 0 012-.9 1.2 1.2 0 01-.4-1.3 1.8 1.8 0 000-.7 1.8 1.8 0 01.6 0 4 4 0 011 .1 4 4 0 001 .2 1.8 1.8 0 001.2-.5 3.1 3.1 0 00-1.5-.4 9.5 9.5 0 00-1.5.2 9.5 9.5 0 01-1.5.2 3 3 0 01-2.3-1 19.3 19.3 0 01-7.3 2h-.9l-.1-.3c0-.3 1-.3 1.8-.3h1.6c.1-.2.2-.3.1-.4 0-.3-.6-.4-1-.4a1.8 1.8 0 00-1.2.3c.2-1.6 2-2.3 5.6-2.3l6 .3h.3c2 .2 4.6.3 6.8.3a23.9 23.9 0 004.9-.4c-.6-.3-1.1-.5-1.2-.8a.4.4 0 01.2-.3 1.3 1.3 0 00-.7-.3 3.8 3.8 0 00-1 .2 3.7 3.7 0 01-1 .2 1.3 1.3 0 01-1-.5.3.3 0 01.1-.2 5 5 0 013.1-1 3.2 3.2 0 012.2.7.7.7 0 010-.7c.3-.8 2-1.5 3.5-1.5a3 3 0 012 .6c0 .3-1.7.8-3 .8a2.5 2.5 0 01-1.3-.3c.4 1-.2 1.4-.8 1.9a3.2 3.2 0 00-1.1 1.2 6.1 6.1 0 011.9.9 6.3 6.3 0 002.2.9 18.9 18.9 0 01-3 .2h-1.2a14.4 14.4 0 00-6.6 1.4c1 .6 1 1 1 1.2.1.3.2.6 2 1.1a1.8 1.8 0 00-.3-.8 1.2 1.2 0 01-.2-1c.1-.4.7-.7 1.8-1l3.8.1 3.8.2a21.4 21.4 0 003-.2c-.8-.4-1.3-.8-1.3-1.1 0-.2.1-.4.4-.6a26.4 26.4 0 00-4.7-.4c.1-.6 1.5-1.1 2.7-1.5.2 0 .4 0 .6-.2.4.2.6.3.6.5s-.3.5-.7.7a4.1 4.1 0 001 .2 1 1 0 001-.6v-.1a1.4 1.4 0 011.5-.7 5.9 5.9 0 01.9.1 1.8 1.8 0 01-.4 1.2c-.3.4-.6.9-.4 1.4 1.7-1 4.2-1 6.5-1h1.8c2.4 0 5-.1 6.8-1.1a.8.8 0 01.2.7c0 .4 0 .9 1.2 1.3a8.7 8.7 0 012.3-.3 6.2 6.2 0 003.7-1c-1.2-.6-1.8-1.2-2-1.8a16.1 16.1 0 013.3-.4 13.3 13.3 0 004.3-.7.8.8 0 01.1 1 3 3 0 01-2.6 1.3 3.4 3.4 0 01-2-.6c.6.4.4.9.2 1.3s-.4.8.2 1.3c1.4-1.2 2.8-1.4 4.7-1.7a28 28 0 004.5-.8 1.3 1.3 0 00-1-.4 3.7 3.7 0 00-1 .1 3.7 3.7 0 01-.9.2 1.3 1.3 0 01-.8-.2c.1-.8 1-.8 2-.8a5.4 5.4 0 003-.6 1.2 1.2 0 01.6.7 1.3 1.3 0 00.8.7 2.4 2.4 0 012.5-1.4 15.3 15.3 0 012.2.3h.1a16.4 16.4 0 002.4.2 4.5 4.5 0 002-.4.9.9 0 01.1.8c-.2.6-1.3.8-2.4 1-1 .3-2 .5-2.2 1a.8.8 0 00.4.1 2.4 2.4 0 00.8-.2l.4-.2c.5.2.7.3.8.5s-.2.3-.4.4l-.3.4.8.5a7.2 7.2 0 012.5-.5c.8 0 1.3 0 1.5-.3 0-.1 0-.4-.2-.6a2.5 2.5 0 011.5-.5 5.7 5.7 0 011.6.3 5.7 5.7 0 001.5.3 2.5 2.5 0 00.8 0 .8.8 0 01-.1.7 1.4 1.4 0 01-1.2.6 2.4 2.4 0 01-1-.3c.1.5.5.7 1.2.7a13.2 13.2 0 002-.3h.1a14.6 14.6 0 012.3-.3c1.1 0 1.7.4 1.8 1.2l1.2-.7.5-.2.2-.1.5-.2 1-.5c-1-.4-1-.7-1.2-1a1.4 1.4 0 00-.3-.5 3.7 3.7 0 011-.2 1.6 1.6 0 011.4.8 4 4 0 00.6.6 5.6 5.6 0 013.3-1 17.6 17.6 0 014.5.9l4.4 1a7.5 7.5 0 013.3-.5c1.2 0 2.4 0 3.8.2h.1l4.2.2a14.4 14.4 0 003.5-.3.6.6 0 00-.1-.5 1.3 1.3 0 00-1-.3H782.2a3.4 3.4 0 01-1.2-.1c.4-.8 2.1-1.2 5.2-1.2h3.4v.5c0 .3-.6.3-1.2.3h-.3c-.6 0-1.1 0-1.3.3a.4.4 0 000 .4l.4.2h.2c1.3.6 2.3 1 2.4 1.5a30.4 30.4 0 003.4-2l2.3-1.4a3.9 3.9 0 01.6 0 1.7 1.7 0 011.5 1 2.3 2.3 0 001.4 1 1.7 1.7 0 00.2 0 10.3 10.3 0 001.8-.2 10.8 10.8 0 012-.3c.4 0 .6 0 .7.2a.7.7 0 010 .7c2.3-.8 4.6-5.2 7-5.2l4.6.3h.8c.4.2.6.4.7.6 0 .2-.3.5-.6.7-.3.3-.6.5-.6.8 0 .2.3.3.8.5.7-.2 1.1-.4 1.2-.7.1-.2 0-.4-.2-.6s-.2-.4-.1-.7.3-.4.9-.6a3 3 0 011-.1c.8 0 1.3.6 1.8 1.2a4 4 0 001.2 1.2 3.1 3.1 0 011.2-.2 8.2 8.2 0 011.2.2 8 8 0 001.3 0 3.5 3.5 0 00.6 0 1 1 0 00-.1.9c.1.5.8 1 2 1.4a1.3 1.3 0 011.2-1 1.3 1.3 0 01.5.2l.3-.3c0-.1-.3-.2-.7-.2-.6 0-1.5-.1-1.7-.7a2.6 2.6 0 011.6-.4 6 6 0 011.4.2 7.2 7.2 0 001.3.2c.2 0 .3-.2.3-.3-.1-.4-1.4-.6-2.3-.6a2.6 2.6 0 00-.6 0 2 2 0 01.4-1.2 4.7 4.7 0 00.3-.7h.2a4.8 4.8 0 011.2.1h.2a2 2 0 00.5.2c.4 0 .7-.2 1.2-.9.5.4.8.6.8.8s-.3.3-.6.5c-.4.1-1 .3-1 .7a3.1 3.1 0 001.1.2c.7 0 1-.4 1.2-.9a3 3 0 01.5-.7 10.6 10.6 0 012-.2l2.1.1 2.3.2h1c.1.4-.4.8-.8 1.3a2.7 2.7 0 00-1 1.2 9.8 9.8 0 012.4.9 8 8 0 003.5 1 4.4 4.4 0 001.4-.2l.7.6c1.5 1.3 2.3 2.1 6.4 2.3a10.5 10.5 0 00-1.1-.4c-1-.3-2-.5-1.8-1.3a5 5 0 012.3-.5 14.8 14.8 0 011.6.1l.9.1c.5-.2.4-.5.3-.7 0-.4-.2-.7.9-1h-.3a14.8 14.8 0 01-2.4-.3 14.4 14.4 0 00-2.4-.3c-.7 0-1.1.2-1.3.6v-.2c-.3-.6-.6-1.2.7-1.8a2 2 0 01.3 0 1.7 1.7 0 011 .3 1.1 1.1 0 00.7.3 3.6 3.6 0 001.8-.9c.5.1.7.3.8.4s-.2.3-.4.5-.3.3-.3.4.3.3.8.4a1 1 0 01.2-.8 2.3 2.3 0 011.8-.6 9 9 0 012.9.6c.3-.3.5-.6.4-.8-.1-.3-.9-.4-1.5-.4a6.3 6.3 0 00-1 0 3.5 3.5 0 011.4-.4 3.4 3.4 0 001.4-.4 4.5 4.5 0 001.3.7c.7.3 1.4.6 1.4 1 0 0 0 .2-.3.3a.9.9 0 00.2 0 7 7 0 001.4-.3 7.5 7.5 0 011.7-.3c.3 0 .5 0 .6.2l-.2.7a1.4 1.4 0 00.4 0 3.2 3.2 0 001.8-.8l.1-.1a4 4 0 012.3-1 2.9 2.9 0 011 .1.3.3 0 010 .3c0 .3-.6.5-1.1.8l-.7.4 2.5.3a23 23 0 003.7.5c1.2 0 2-.3 2.3-.8a2.4 2.4 0 01.6 0c1 0 2.2.1 2.3.5 0 .2-.3.4-.9.6a25 25 0 007.4-1.6c1.9-.7 4.3-2 5.3-3.9a7.5 7.5 0 011.3 0h.6a5 5 0 001.9-.3l.6.6-.4.8c-.2.3-.5.5-.4.8 0 .3.4.5 1 .7a5.6 5.6 0 01-2.1.6 2.8 2.8 0 01-1-.3h-.1a6.4 6.4 0 00-1-.3c-1.6.6-2.4 1.2-2.5 1.7 0 .4.4.8 1.1 1.2l.2-.2c0-.2-.2-.3-.4-.4a2.1 2.1 0 01-.3-.3l.5-.1a8.9 8.9 0 012.7-.6 3 3 0 011.7.4l.2.3c0 .1-.3.2-.7.2-.6 0-1.5.1-1.8.7a1.5 1.5 0 001 .4 4.4 4.4 0 001-.2 4.2 4.2 0 011-.2 1.5 1.5 0 011.2.5c.4-1 1.4-1.4 2.9-1.4 2.3 0 5.3 1 7.7 2 1-.6 2.1-1.6 2-2.3-.2-.5-1-.8-2.2-.9.1.4.2.6 0 .8s-.3.2-.7.2a13.3 13.3 0 01-2.5-.4c-.2 0-.2-.2-.2-.2 0-.1.3-.2.8-.2a3.3 3.3 0 011 .1c-.4-.6-2-.7-3.4-.7H904a13 13 0 01-2.4-.1c4.9-1.2 11-1.2 17.5-1.2a132.8 132.8 0 0014.5-.7.3.3 0 01.2.3c0 .2-.5.4-.8.6a4.9 4.9 0 00-.5.3 6.5 6.5 0 001.8.3 3.8 3.8 0 002.5-1 1.2 1.2 0 001.2 1h.7a7.7 7.7 0 01.8 0 3.5 3.5 0 011.4.2l.3.3c0 .2-.5.4-1 .6s-1 .5-.9.7c0 .1.3.3 1 .4a3.3 3.3 0 012.3-1 9.9 9.9 0 012 .2l2.5.5a5.5 5.5 0 013.6-1.6 5 5 0 012.9 1 5.4 5.4 0 012.7-.9 5.4 5.4 0 002.7-.9c2.6 1.9 6.3 2.1 10 2.1h7.1a42.7 42.7 0 018.2.6 1.1 1.1 0 01.3-.9 2 2 0 011.5-.6c.5 0-1-1.9-1.5-2.2 1.7-.5 1.7-1 1.7-1.6a2.2 2.2 0 010-.4 6.7 6.7 0 011.3-.1 2.4 2.4 0 01.8.1 2.6 2.6 0 000 .7c-.2.6-.2 1.3-1.8 2a3 3 0 001 .1 1 1 0 001-.6c.2-.4.3-.7.8-.7a3.5 3.5 0 011.5.5 2.1 2.1 0 012.4-1.5c.2 0 .5 4 .6 4h.1a31 31 0 001.8 0c.3.2.4.4.4.5 0 .5-1 1-2.1 1.5a32.8 32.8 0 016.5-1c3.9-.3 7.8-.7 10.3-2.9a6.2 6.2 0 011.5-.2 3 3 0 011.3.3l10.3-.1V0zm2.7 80.3a5 5 0 01-1.4-.3l-.8-.2 2-.9h.2l.5.2.1.1h.1l.2.2.5.3h.1a2.3 2.3 0 01-1.5.6m6.2-.2a8.2 8.2 0 01-4.6-1.5 26.1 26.1 0 002.7.1 13.3 13.3 0 015.3.8 10 10 0 01-3.4.6m6.3-.3a3 3 0 01-2.2-.6.6.6 0 01-.1-.6 2.8 2.8 0 001.4.4 8.5 8.5 0 001.7-.2 8.5 8.5 0 011.6-.3 3 3 0 011.1.3 6.1 6.1 0 01-3.5 1m96.4.1a8 8 0 01-3-.7 3.7 3.7 0 011.5-.3 9.3 9.3 0 011.7.2 9.3 9.3 0 001.8.2 3.8 3.8 0 00.8 0 6.2 6.2 0 01-2.8.6m62.1-.9c-.2.5-2.1 1.1-3.3 1.1-.5 0-.8-.1-1-.3a.6.6 0 010-.6 3.8 3.8 0 001 .2 2.1 2.1 0 001.2-.4 1.8 1.8 0 011-.4 3 3 0 011.1.3.2.2 0 010 .1m4.9 2a12 12 0 01-2-.2l-.9-.1c0-.5.7-.7 1.5-.8a6.1 6.1 0 002.4-1c.5.2.7.3.8.5a.6.6 0 010 .5.5.5 0 00-.2.1.5.5 0 00.3.7 4.7 4.7 0 01-1.9.3m59 1.2a6.4 6.4 0 00-2.3-.5c-1.1-.1-2.1-.2-2.4-.7a.6.6 0 010-.5 3.6 3.6 0 002.1.5h1.8c.4 0 .7 0 .8.2v1m16.1-1.2H253.4c-2 .4-2 .4-2.7 1.3l-.1.1v.1l-.3.3a8.3 8.3 0 00-1.5-.4 5 5 0 01-2.6-1 14.2 14.2 0 016.2-1.4h.3l1.5 1zm26 2.3a4.8 4.8 0 00-2.6-1c-.8 0-1.4-.1-1.4-.4-.1-.2 0-.5.4-.8a4.2 4.2 0 002 .9c.8.2 1.5.4 1.6.8a.5.5 0 010 .5m123 2.4a3 3 0 00-.7 0 8.1 8.1 0 00-.8 0 8.3 8.3 0 01-.9 0 2.3 2.3 0 01-1.9-.7 3.7 3.7 0 012-.5c1 0 2 .3 2.3.7a.5.5 0 010 .5m68.6-.6a1.2 1.2 0 00-.5-.1.5.5 0 00-.4.2.5.5 0 01-.4.2 1 1 0 01-.3 0l.3-.3-.6-.2c-.7-.1-1.5-.2-1.7-.7a2 2 0 011.2-.4c1.1 0 2.3.5 2.5 1a.3.3 0 010 .3m15-.7a19.7 19.7 0 00-2.2 0l-.2.3.4.2a1.7 1.7 0 01.8.2 1.2 1.2 0 01-.9.4 2.2 2.2 0 01-.7-.2 2.2 2.2 0 00-.8-.2 1.2 1.2 0 00-.9.5 6.8 6.8 0 00-2.2-1.5l-1.8-1a24.6 24.6 0 005.3.5h4.2a.9.9 0 00.5-.3c-.5.6-1 1-1.5 1m15-6.3a1.5 1.5 0 01-.3-.5c-.1-.3-.3-.6-1.1-1 1.2-.6 2.6 1.1 4 1a5.3 5.3 0 013 1c-2.8 0-5.4-1.3-5.6-.5m14.9 6.4a5.4 5.4 0 01-1.9-.3c.6-1 2-1.5 3.9-1.5a21.4 21.4 0 013.1.2 12.1 12.1 0 01-5.1 1.6m5.7-3.2l-2.1-.2a21.1 21.1 0 00-2.2-.1 8.5 8.5 0 00-1.4 0 10.8 10.8 0 014.5-.9 15.5 15.5 0 014 .6 7.3 7.3 0 01-2.8.6m3.5-.5c0-.2.1-.4.4-.6a3.6 3.6 0 001.4.2 4 4 0 011.3.2.4.4 0 00-.3.2l.2.4c0 .1.2.3 0 .5a1.8 1.8 0 00-.6-.1 2 2 0 00-1 .3c-1-.4-1.4-.7-1.4-1m4.4 2.5a3.4 3.4 0 01-2.5-.6.5.5 0 010-.6 4 4 0 001.5.3h1.6a3.7 3.7 0 012.1.5 6.8 6.8 0 01-2.6.4m8.2 1.4a11 11 0 01-2 .2 3.8 3.8 0 01-1.6-.3 2.5 2.5 0 011.8-.7 6.2 6.2 0 011 .2 6.3 6.3 0 001.1.1 2.7 2.7 0 00.4 0 2.1 2.1 0 00-.2-.3l-.4-.4.2-.2a1.7 1.7 0 011 1.2c-.5 0-1 0-1.3.2m11.5-2a11.6 11.6 0 01-1.8-.2 11.5 11.5 0 00-1.9-.2 6.2 6.2 0 013.4-1 2.3 2.3 0 011.6.4 1 1 0 01.3.8 4.5 4.5 0 01-1.6.2m11.2 2.1h-.1c-1.6.7-1.6.7-2.1 1.4v.1l-.3.3a1.3 1.3 0 01-.8-.7 1.3 1.3 0 00-.7-.7.6.6 0 00-.4.5.6.6 0 01-.2.3c-.7-.2-1.1-.5-1.2-.8 0-.4 1-.8 2-1.2l.4.3a2.5 2.5 0 001.2.4 1.1 1.1 0 00.4 0 .3.3 0 01-.1-.3c0-.3.6-.6 1.3-.9l.8.5h.1l.3.3.3.1-1 .4m11.5-4.4a5 5 0 002 .6c-.5.4-.2.9 0 1.4.3.3.5.6.4 1-.1.2-.5.5-1.1.7-1.2-.6-1.8-1.2-2-1.8a2.3 2.3 0 01.7-2m-6.6 3.7a13 13 0 01-3.3-.4.4.4 0 00.2-.3l-.3-.6-.3-.6a12.1 12.1 0 014.3-.7 19 19 0 014.8.7 1.7 1.7 0 00-1.2 1 1.7 1.7 0 01-1.2 1.2 14.3 14.3 0 00-3-.3m6.3 1.5a12.5 12.5 0 01-2.6.2h-.2a.4.4 0 00.1-.3c0-.2-.2-.3-.6-.5a3.3 3.3 0 01-1.2.3 1.3 1.3 0 01-1-.4h1a40 40 0 013.7-.3 12.8 12.8 0 013.9.5 25.6 25.6 0 00-3.1.5m9.9 0H580c-1.5 0-3 0-3.3-.7a4.3 4.3 0 001.2.1 12.2 12.2 0 001.7-.1 12.3 12.3 0 011.8-.2h.1a2.9 2.9 0 00-1.3-.5 3.1 3.1 0 01-1.3-.4l1-.3c1.4-.4 2.9-.8 3-1.6a8 8 0 011.7 4 11.7 11.7 0 00-2.7-.2m18.9-2.3a8.6 8.6 0 01-2.3.3 4.3 4.3 0 01-2.5-.7 4.8 4.8 0 012.4-.6 7.7 7.7 0 012.4.4c-.2.1-.3.2-.3.4l.3.2m15.3 1a3.8 3.8 0 01-1.6.4.2.2 0 000-.2c0-.2-1-.4-1.6-.5a3.2 3.2 0 01-1-.2.8.8 0 00-.4.7.8.8 0 01-.2.7 7 7 0 01-.5 0c-1.2 0-2-.3-2.2-1-.1-.5.4-1 1.3-1.6l3.2.2a24 24 0 015.2.5 14.3 14.3 0 00-2.2 1m17.6.2a1.4 1.4 0 00-1-.4 4.4 4.4 0 00-.7 0 4.4 4.4 0 01-.7.1 1.4 1.4 0 01-1.3-.6 5.6 5.6 0 012-.3c1.3 0 2 .3 2.1.6 0 .2 0 .4-.4.6m4.2 6.1h-.1l-.4.3c-.9-.4-1.4-.8-1.4-1.2 0-.2.2-.4.5-.6l.5.3a2.6 2.6 0 001.1.4 1 1 0 00.4 0l.5-.2a2.3 2.3 0 01.8-.2.8.8 0 01.4 0l-2.3 1.2m9.4-4c-.2.5-1.3.7-2.5 1l-1.3.2-.6-.4c-.5-.3-1-.5-1-.8a.3.3 0 01.1-.3 7.5 7.5 0 002.5.6 2.9 2.9 0 002.4-1.3c.4.4.5.7.4 1m13.8-.5l-.3.1a18.7 18.7 0 01-5.2 1 6.6 6.6 0 01-2.4-.4 15.8 15.8 0 015.4-.8h2.1l.4.1h.1zm1 2a1 1 0 000 .3.3.3 0 010-.4 1.1 1.1 0 010 .1m-1.4-3c-2 0-3.6-.4-4-1-.6.6-1 .9-1.5.9a2.7 2.7 0 01-1.3-.5 3.6 3.6 0 00-1.5-.5 1.2 1.2 0 01.3.9c-.1.7-1 1.3-1.9 1.8a8.3 8.3 0 00-.9.6c-.4-.2-.6-.4-.6-.6 0-.4.5-.8 1-1.2.6-.4 1.2-.8 1.1-1.2 0-.2-.2-.5-.6-.7a1.7 1.7 0 00-.4.5 2 2 0 01-1.3 1c-.7 0-3-.8-3.2-1.4a.3.3 0 01.1-.4 3.3 3.3 0 001 .1 27.3 27.3 0 005.2-.8h.2a25.3 25.3 0 014.6-.9c.6 0 1 .1 1.1.4.2.3 0 .7-.4 1.4h.2l2-.2H660.3l2.5-.2c1.6 0 2.3.4 2.4 1-.6.6-2.5 1-4.4 1m8.7-1.9a8.6 8.6 0 01-3-.7 7.6 7.6 0 012.5-.5 7 7 0 012.7.5 3.9 3.9 0 01-2.2.7m103.7-4.7a4.3 4.3 0 012.3-.8 2.5 2.5 0 011.5.5 1.3 1.3 0 00-1 1.2c-.1.4-.2.9-1.1.9a4.5 4.5 0 01-.8 0l.3-.4c0-.2-.3-.4-.6-.6-.3-.2-.6-.4-.6-.6a.2.2 0 010-.2m-5.2 3.9a2.5 2.5 0 01-1.5-.5 4.3 4.3 0 012.3-.8 2.5 2.5 0 011.5.5 4.3 4.3 0 01-2.3.8m9.7 2c-.4 1.2-.7 2-2.1 2a5.6 5.6 0 01-1.5-.2 2.6 2.6 0 01.6-.5c.7-.5 1.7-1.2 1.3-2a2.4 2.4 0 01-1 .2 5.2 5.2 0 01-2.7-1.1l2-.7a13 13 0 014.3-1 4.5 4.5 0 011.8.3 4.1 4.1 0 00-2.7 3.1m8.3-.5a1.7 1.7 0 00-.8-.2 5 5 0 00-1 .2 5 5 0 01-1 0 1.7 1.7 0 01-1.4-.6 3.9 3.9 0 012.2-.5c.8 0 1.8.2 2 .6a.5.5 0 010 .5m-1.3-2a10 10 0 01-2.5.5 3.5 3.5 0 01-1.3-.2 3.8 3.8 0 012.4-.9 9.8 9.8 0 011.6.2 11 11 0 001.3.1l-1.5.4m64.4-1.9a8.6 8.6 0 012.3.3l-1.5.4a10 10 0 01-2.6.4 3.6 3.6 0 01-1.3-.2 5.8 5.8 0 013.1-.9m-6.5.5a5.8 5.8 0 00-1.2.2h-.2a8.3 8.3 0 01-2 .2 6.6 6.6 0 01-.6 0c.2-.7 1-1.2 2.3-1.7a2.3 2.3 0 001.8.7h.7a2.4 2.4 0 011.6.4l-1.1.6a2 2 0 00-1.3-.4m8.6 4a5 5 0 00-.2.4 9.1 9.1 0 00-1.1 0h-2.1l-2 .2a6.4 6.4 0 01-3.3-.8 3.2 3.2 0 002.4-1.2 2.5 2.5 0 012-1 1.7 1.7 0 011.2.6 1.3 1.3 0 010 1v.6h.4a2.7 2.7 0 00.4 0 .9.9 0 00.3-.7c0-.4.1-.8 1.5-1.3 1.1.7.8 1.5.5 2.1m2.7-12.6c-.8 0-1.7 0-1.7-.6a23 23 0 013.5-.3 27.3 27.3 0 003-.3c-.2.5-3 1.2-4.8 1.2m3.1 10.2a2.1 2.1 0 01-1-.2l.3-.3-.4-.5-.4-.4a.3.3 0 01.1-.2 2.6 2.6 0 001 .1H858.3a2.3 2.3 0 011.5.4 6.2 6.2 0 01-2.8 1.1m11.2 0a15 15 0 00-4-.4 14.9 14.9 0 01-3.9-.4 15.1 15.1 0 013.1-.3c1 0 2 0 3 .2h.1l3 .1h.4zm6.1-4.7a4 4 0 012-.6 1.9 1.9 0 01.9.2 5.7 5.7 0 00-1.5.8 4 4 0 01-1.8.8 1.2 1.2 0 01-.5-.2c0-.2.3-.7 1-1m1.2 4.5a8.4 8.4 0 00-1.6.2 8.2 8.2 0 01-1.5.2 2.7 2.7 0 01-1.6-.4 2 2 0 001.2-1.2 8.4 8.4 0 002.1.4c1.1.1 2.3.3 2.5.7a.4.4 0 010 .4 2.8 2.8 0 00-1.1-.3m7.2 1.3a12 12 0 01-4.7 1.3 7.4 7.4 0 01-2-.3 3.5 3.5 0 011.9-.8 3.5 3.5 0 001.9-.7 5.9 5.9 0 00-1.2-.4l-.7-.3c0-.2 0-.4.4-.7a12.3 12.3 0 002 .2c1.5 0 3.1 0 3.6.6a.7.7 0 01.1.6l-1.3.5m9.3-.2a3.4 3.4 0 00-1.4-.3 6.8 6.8 0 00-3.3 1.2 5.3 5.3 0 01-1.9.8c-.5-.3-.7-.6-.7-.8 0-.3.5-.5 1.1-.8a4.9 4.9 0 002-1.2 1.1 1.1 0 001 .4 3.3 3.3 0 001.4-.6 7 7 0 01.9-.4c.8.4 1.3.7 1.3 1 0 .3-.1.5-.4.7m17.2-8.7a2.5 2.5 0 01-1.5-.5 4.3 4.3 0 012.2-.8 2.5 2.5 0 011.5.5 4.3 4.3 0 01-2.2.8m23.4 1.9a11 11 0 01-1.7-.2c0-.6 1.2-1 2.5-1a3.5 3.5 0 011.8.4 4.3 4.3 0 01-2.6.8m8-.1a28 28 0 01-4.9-.5 25.9 25.9 0 015.2-.7c1.6 0 2.5.3 2.8 1a20.8 20.8 0 01-3.1.2m6.7-.2a6.8 6.8 0 01-2.6.8 2.3 2.3 0 01-1-.2l.3-.3h.2a8 8 0 013.5-1.3 2.6 2.6 0 011.3.4 11.4 11.4 0 00-1.7.6m8.5 1.3a1.8 1.8 0 00-1.4-.6 5.1 5.1 0 00-1 .1 5.2 5.2 0 01-1.1.2 1.7 1.7 0 01-1.2-.5 21.3 21.3 0 017.3-1h.7zm26.2.6a.8.8 0 01-.3.6 1.6 1.6 0 00-1.2-.4 4.7 4.7 0 00-.6 0 5.6 5.6 0 01-.7 0 1.6 1.6 0 01-1.2-.4 9 9 0 013.2-.7 4.6 4.6 0 011.1.1.8.8 0 00-.3.8m23 2c-.8 0-2 0-3 .2h-.4a45 45 0 01-4 .2c-1.7 0-2.8-.2-3.2-.8a1.1 1.1 0 01-.2-1 6.7 6.7 0 003.5.8l2.6-.2H1002.7c1.4 0 2.2.2 2.6.7zm8.3.9h-2a5.5 5.5 0 00-2.5.4 5.2 5.2 0 00-2.6-.8 7.8 7.8 0 012.3-.3 3 3 0 002.6-1.2c.3.8.9 1 1.7 1h.9a4.2 4.2 0 012 .4z" class="c"/>
    </g>
  </svg>
  