<svg xmlns="http://www.w3.org/2000/svg" viewBox="0 0 314.6 41.1">
  <g fill="#AC1154">
    <path d="M4.7 29a.5.5 0 00.8.1c-.3 0-.5-.4-.8 0zM5.5 28.1c.2 0 .5.4.8 0-.3 0-.5-.4-.8 0zM8 29.1c-.2.2-.1.3-.4.5.3.2.4-.1.8-.3-.1-.2-.3-.1-.4-.2zM16 36.7l.3.3c.2-.3.4-.1.6-.4-.3-.3-.6-.3-1 0zM7.3 28s-.1.2-.2.1c-.2.3.4.5.6.2 0-.3-.2 0-.4-.4zM17.3 36.8c.4 0 .3.3.5.5a.7.7 0 00-.1-.9l-.4.4zM12.6 30c-.1.4.6.4.8 0-.2-.4-.5.4-.8 0zM22.9 36.4c0 .4-.2.3-.6.5a.5.5 0 00-.2-.3.5.5 0 01-.7 0l-.6.7c.2 0 .5-.2.3 0 .2.3.4-.2.6-.3.1.3.5.4.8.5 0-.7.7-.7 1.2-1-.3 0-.6.2-.8-.1zM13.8 30.2l.4.4c0-.2.1-.4.3-.3.2-.3-.5-.5-.7 0zM15.1 27.7a.9.9 0 00.9-.4c-.3 0-.9 0-.9.4zM29.5 38.6c-.3 0-.5 0-.8.2a.4.4 0 00.8-.2zM18.9 27.6a1 1 0 00-1 0c.4 0 .7.5 1 0zM28.5 32.4a.6.6 0 01-.4-.2c-.2.6-.6.2-.5.7.4.1.4-.3.9-.5zM20.5 25.5c-.3.5.5.6.7.7.2-.3-.5-.2-.7-.7zM24.5 26.7c.3-.1.6 0 1-.3a4.6 4.6 0 01-1.1-.3c-.4.2.5.4.1.6zM34.8 36c-.1.6.6.2.8.2 0-.4-.6 0-.8-.1zM35 34a.6.6 0 00-.1.7c.3-.5.6 0 .7-.5-.2-.4-.5.2-.7-.3zM40.8 39.1c.3.2.7.3 1 0a2 2 0 00-1 0zM23 22c.3-.2 0-.5-.2-.7l-.4.4c.2.3.4 0 .6.3zM24.9 23.8c.2.4.4.2.7.3.1-.3-.5-.7-.7-.3zM24.4 21.9h.2c.7.4 1.5-.1 2.2.2.5-.3.2-.6.5-1-.5-.2-.4.4-.7.4-.4-.3-.1-.5-.5-.5 0 .5-.5.4-.9.7-.2-.3-.4-.2-.6-.4-.4.2.2.4-.2.6zM40.6 34.4c.2-.5-.4 0-.5-.3-.4.3-.2.5-.3.7a2.8 2.8 0 00.7.3c.3-.3-.2-.4-.4-.4-.2-.1.4-.4.5-.3zM19.1 14.3c-.3 0-.6-.3-1 0 .4 0 .7.5 1 0zM18.1 13.6c-.2.3.5.3.7 0-.2-.4-.5.1-.7 0zM19.2 13.5a.6.6 0 00.2.7c.3-.2.2-.4.3-.6h-.5zM41.2 34.5c0 .5.8 0 1 .4.3-.6-.7-.5-1-.4zM17.5 8c-.5.1-.9.1-1.3.6.3.1.7-.2 1.2-.7zM44.8 34.8c0-.2-.5-.6-.7-.3 0 .3.4.8.7.3zM26 16c-.4.5-.7.3-1 .5.3.3 1.4 0 1-.5zM31.4 21.8c0 .5.9.5 1.3 0-.2-.1 0-.3 0-.4-.4-.4-.9.7-1.3.4zM21.2 11.2a.8.8 0 001 .1c-.3.1-.6-.5-1-.1zM48.6 34.9c-1 0-1.3-1-2 .1.1 0 .3 0 .2.2.6-.4 1.2.1 1.8-.3zM29.9 16.3a.6.6 0 01-.4-.2.8.8 0 01-.3.5c.2.4.4-.2.7-.3zM49.8 34.7c-.2-.4-.5.4-.6 0l-.4.2c-.3.3.2 0 .3.3-.1-.5.4 0 .7-.5zM50.8 34.5c0 .7-.6.2-1 .5.7.1.8.8 1.3.4-.6-.3.2-.6-.3-.9zM30.4 12.1c-.4.3-.5.2-.7.7.4 0 1-.3.7-.7zM53.1 34.9c.4.4.8 0 1.1.1.2.2 0 .4-.3.7.7.2.7-.7 1.6-.6-.2-.4-.2-.2-.6-.5-.4.3.2 0 .3.4-.7 0-1.4-.5-2-.1zM44 23c.5.2 1-.2 1.1-.5-.4 0-.8 0-1 .4zM38.3 16.9c.3 0 0 .1.3.3.2-.2 0-.4.1-.6-.1-.1-.3.2-.5.3zM48.2 17.3c-.4.1-1.2-.2-1.3.3a1.3 1.3 0 001.3-.3zM42 7.1c-.2 0-.4.2-.5.3.2.2.4.1.6.2.4-.2-.5-.3-.1-.5zM38 2.4c-.4 0-1.1 0-1.2.4.4.2.8 0 1.2-.4zM57.2 20c.2-.2-.4-.4-.6 0 .2 0 .3.1.4.3 0-.2 0-.3.2-.2zM45 5.7c.2-.2 0-.4 0-.6.3-.2.7.1.7-.3-.2-.1-.5.3-.7 0-.2.6-.7.1-1.1.5.4.3.8 0 1.2.4zM58.5 17.8c.2 0 .3.2.5 0a.3.3 0 00-.2-.5c-.5.2.2.3-.3.5zM50.7 4.7c-.4.1-.9.4-1.3 0 0 .5 1.2.6 1.3 0zM49.6 1.5c-.3 0-.6-.1-1 .2.4.2.7.1 1-.2zM55 6a1 1 0 00-1 0c.3 0 .6.3 1 0zM58 6.7c.2-.2 0-.3-.2-.4l-.4.3c.2.2.5 0 .7 0zM58.8 6.3c.3.3.5 0 .8.2.1-.2-.5-.6-.8-.2zM72.8 17.5c-.3 0-1.2.4-.8.8.1 0 .1-.2 0-.2.2-.1.3 0 .4.2.3-.1.2-.7.5-.5.4-.3-.5 0-.1-.3zM74.2 17.7l-.5-.4c-.2.3-.4 0-.6.3.1.2.3.1.4 0 .1.1.3.2.2.4l.5-.3zM76 19c-.3-.2-.5 0-.8.3a.8.8 0 00.8-.2zM64.2 6.6c-.5 0-.1.5-.2.7.4.1.4-.5.2-.7zM64.7 6c-.5.2-.9-.4-1.4.3.5.1 1.2.3 1.4-.3zM65.6 7l-1-.1s.2.2 0 .3c.4 0 .7 0 1-.2zM66.7 7.9c-.4.3-.4.5-.5.8.8-.2 1 0 .5-.8zM78 19a.7.7 0 001 0c-.3 0-.6-.3-1 0zM83 19c-.6-.3-.7.4-.3.8.9-.5 1.6-.1 2.2-.8a6.2 6.2 0 00-2.1.3c-.1 0 0-.2.2-.3zM72 7.7c.4.2.1-.7.4-.5 0-.6-.6.3-.5.5zM73.3 7.1a.8.8 0 00-.9.3.7.7 0 00.9-.3zM87.7 19c-.2 0-.4-.2-.6 0 0 .2.2.3.3.4l.3-.5zM78.7 9.5c.1-.2-.1-.4.3-.6-.5-.1-1 .6-.3.6zM93 1a2 2 0 00-.9.4c.5.5.9-.1 1-.5zM101.7 1.6c.4.4.4-.4.9 0 .1.3-.4.2-.5.4.3.2.7 0 .8-.4-.2 0-.3-.2-.3-.4.4-.4.8.2 1.2-.3-.2 0-.4.1-.6-.2a1 1 0 01-1.4 0c0 .3.4.6-.1 1zM106.3 1.3c-.4-.3-1 .5-.6-.2-.2-.2-.4.3-.4.4l.4.3c.3-.3.4-.1.6-.5zM106.7 2c0-.3.3-.5.6-.8L107 1h-.3c0 .4.1.3-.3.5.2.1.1.3.3.4zM108.2 2.3c.3-.3.6 0 1-.3-.4-.3-.9.2-1.2-.3-.2.4 0 .2.2.6zM109.6 2a.7.7 0 00.4-.1.7.7 0 00-.2-.5c-.3.2-.4.4-.2.7zM110.3 2.1c.2 0 .1-.3.3-.2.1-.2-.1-.3-.3-.5l-.3.3c.2.1.1.3.3.4zM111.6 1.4c-.3-.2-.6-.5-1-.4 0 .2.7.7 1 .4zM116 2c.3-.4.5-.3.8-.5-.2-.3-.5 0-.7-.3-.2.3-.4.5 0 .7zM119.8 1.7l-.4-.3-.4.3a.5.5 0 00.8 0zM121.7 1.4c-.2 0-.2.2-.3.3-.2 0-.4-.2-.6.1a11.4 11.4 0 001.2.2c.3-.2-.6-.4-.3-.6zM122.1.9c.2.1.5-.3.7 0 0-.4-.3-.5-.7-.6-.1.2.3.4 0 .6zM124.2 2.3c.6-.5 1.2 0 1.7 0 .4-.5-.6-.6-.9-1 0 .4 0 .5-.6.6-.3-.4-.3-.7-.8-.6 0 .5.1.6.6 1zM125.6 1.2a.8.8 0 00-1.2-.1l1.2.1zM126.9 1c.2-.3-.2-.6.1-.8a.6.6 0 00-.6.1c.4.3.4.1 0 .4.2.2.3 0 .5.3zM129.6 1c0-.3.2-.5 0-.7 0 .4-.2.1-.4.4.1.2.3.2.4.3zM163.3 3.5a6.5 6.5 0 00-1.2-.6 3.2 3.2 0 00-.2.7c.4.4.9.2 1.4-.1zM171.8 2.6c.1-.3-.5-.5-.7-.2.2.4.5 0 .7.2zM182 3.5a3.4 3.4 0 00-1.2-.1c0 .3.8.4 1.1 0zM186.9 3.2c-.5 0-1.3 0-1.5.6.5-.3 1.3-.2 1.5-.6zM195.8 3.7c0-.3-.7-.5-1-.2.3.3.6 0 1 .2zM204.9 4.8a.6.6 0 00-.6.1c.2.2 0 .3.3.5l.3-.6zM236.4 40.6c.7.3 1.6-.4 2.3 0-.4-.8-1.6-.2-2.3 0zM238.8 40.3c.3.3.6.2 1-.1a1.3 1.3 0 00-1 0zM222.4 4.9a.3.3 0 000-.5 3.9 3.9 0 001.4 0 2.8 2.8 0 00-1.9-.2c.4.3.3.5.5.7zM225.4 6.4c0-.2.4-.5 0-.8-.3 0-.3.5 0 .8zM225.3 4.6c-.3-.1-.5.4-.7 0-.1.2.1.4.2.5a.8.8 0 00.5-.5zM248 4.4a.6.6 0 00-.6 0l-.1.3c.3.2.5-.1.6-.3zM249.3 3.3c-.4 0-.6.1-.6.5.3.1.6-.4.6-.5zM252.9 4.6c-.2-.4.3-.3.7-.5-1.2-.1-2 .3-3.2.4a6.4 6.4 0 002.5.1zM253.3 4.5c.3.2.7-.1 1-.2a.8.8 0 00-1 .2zM255.9 4.5c-.1-.3-.8-.5-1.2-.1.4 0 .8.3 1.2.1zM256.7 5.6c.2-.4.4-.4.2-.9-.1.6-.8.1-1.2.4a2 2 0 011 .5zM257.3.3c-.1-.2-.3-.2-.5-.3-.1.1 0 .4-.3.2 0 .4.6.3.8.1zM261 4.4c.3-.4 1.2.1 1.8-.4 0 0-.1-.2 0-.2-.5.1-1 0-1.4.3-.5-.5.2-.3.2-.7-.2-.3-.4.5-.6.2-.2.1.3.7-.2.5v.1zM260 0a4.6 4.6 0 00-1.7.3A2.7 2.7 0 00260 0zM264 4.6c-.1-.3 0-.5.5-.6-.4-.3-.8-.1-1.2 0 .3 0 .3.6.7.6zM265.4 3.3c-.7-.2-.8 0-1.4.2.4.2.9 0 1.4-.2zM266.3 3.6c0 1 1.4 0 2 .3.1-.1-.3-.3 0-.4-.7-.1-1.4.7-2 0zM268.1 2.8c-.6-.3-1.3.2-2 .4.7.4 1.4-.1 2-.4zM268.7 2c-.3-.3-.7.2-1 0 0 .5.7 0 1 0zM268 2.6c.6.2 1.1.5 1.7 0-.6.3-1-.4-1.6 0zM269.4 3.9c.5.3 1 0 1.4-.4-.6-.4.1-.7.5-.5.2.4-.3.4-.5.5.2.5.5 0 .7.3.2-.7 1.5-1.5 2.1-1.7 0-.7-1.3.3-1.3.7 0-.6-.8-.2-.5-.7l-2.4 1.8zM273.6 3.4c.3 0 .6-.3.8-.3l.1-.4-.5-.2c-.3.2-.1.7-.6.4-.1.1.1.3.2.5zM275 3.2c-.4.2-.3.4-.5.6.3 0 1-.2.5-.6zM275.7 3.2c0-.3 0-.3.4-.5-.3-.3-.7.2-1 0-.2.5.4.2.6.5zM3.8 27.9c-.3-.5-.6-.1-.9 0-.6-.8-1.5-.3-1.8-.6-.5.4.4.6.6.6-.4.4-.8-.3-1.2.2 0-.2.4-.4 0-.6l-.5.3c.8 0-.4 1.6.5.4a5.4 5.4 0 012.4.2c.4-.4.5-.3.7 0 0 0-.2-.2 0-.3.3-.2 0 .3.4.4.1-.4.3-.4.8-1.1-.3-.2-.7.3-1 .5zM9.8 30.2c-.2.8-.7.3-1.2.6a2.2 2.2 0 001.5 0c-.3-.2 0-.4-.3-.6zM20.9 9.9a.3.3 0 00-.1 0z"/>
    <path d="M313.8 11c-.8-.6-2-.6-2.3-1.8-.4.5-1 .2-1.1.7l.3-.1c.2.4 0 .2-.3.4-.2-.4-.4-.5-.7-.5-.3-.2-.2-.4.1-.6-.2 0-.5 0-.5.2-.5-.7-1.9-.3-2.8 0-1-1-2.2 0-3.3.5l-.2-.2c.5-1 1.5-.8 2-1.4 0-.3-.3-.1-.5-.5-1.6.8-2.6.3-4.2.8v-.3a2.8 2.8 0 001.7-.8c-.3-.3-.5 0-.8-.3.1.4-.1.5-.5.2a1 1 0 010 .7c-.5-.2-1.8 0-1.6.7-.2.2 0-.6-.4-.4 0-.1.4 0 .2-.5-.4 0-.7.6-.6.8-.3.1-.2-.5-.5-.6-.5.1-.2.5-.5.7-.2.1-.3-.3-.1-.4-.4-.2-.4.4-.4.5a1 1 0 01-.6-.6c.3-.3.5-.2.7-.4-.6-.4-.8.2-.8.6-.7 0-1.3 0-1.7.6-.5-.3 0-.4-.2-.7l1.2-.2c-.4-.4-.4-.7 0-1a.3.3 0 00-.5.1c0-.4-.4 0-.5-.6a2.2 2.2 0 01-1.8.3c0-.3.6-.4.7 0 .1 0 0 0 0-.2l.2-.1c-.3-.4-.7-.1-1.1 0-.2-.4 0-.7-.2-1-.2.3-.2 0-.6.4-.3-.3-.2-.5-.4-.7-.2 0-.2.2-.3.4-.3-.2 0-.4-.4-.6a4.7 4.7 0 01-1.7 0c-.2-.5.3-.3.5-.6-.2-.3-.6.2-.8-.3 0 .2-.2.3-.1.5-1.4-.5-2.8.1-4.2-.3-.1.1 0 .3.2.4l-.7.4c-.4-1.5-1.9.1-2.7-.2.3-1.3 1.3-.8 2-1.3-.3-.3-.8.3-1-.4l-.6.5c-.2-.2-.1-.4-.2-.5.2 0 .5-.3.7 0 0-.5.3-.3.4-.7-.4-.7-1 .8-1.4 0L279.6 4c-.4-.3-.1-.5 0-.7-.2-.5-.6-.2-.9-.4 0 .3 0 .5-.4.7.2.1.4-.1.6.3a.8.8 0 01-1-.2l-.9.7c-.1-.5.2-.4-.4-.5-.5-.3.2-.4-.2-.7-.1.8-.7.5-1.3 1.1a11.7 11.7 0 01-1.7-.6c-.4.8-1 1-1.7 1.3-.4-.3.4-.4.3-.7-.9 0-1.8 1.1-2.2 1.7.9.3 1.2-.8 1.8-1a.3.3 0 010 .5c.3.2.7-.4.4-.5.8.8 2.4-1.2 3.5 0-.7.9-2.2.8-3.1.6-.7 1.1-2 .9-3.2.9a3.1 3.1 0 00.6-1.5c-.2.3-.5.1-.8.4-.8-1-1.1.4-2-.5a6.6 6.6 0 01-1.4.4c.3.2 0 .3 0 .5-.2 0-.4 0-.7.2-.4-.4.1-.5.4-.5 0-.4-1.2 0-1.1.4-.4 0-.8.2-1.2-.3-.5-.1-1 .7-1.6.4-.3-.5.2-1 .5-1.4-.7 0-1 .7-1.9.4-.3-.3-.1-.4-.5-.4-.4.3.5.2.2.5a1.3 1.3 0 00.9 0c.1.5 0 .4.5.4.1.2 0 .3-.2.4-.2 0-.5-.6-.7-.5 0 .2-.2.3-.1.4-.4.2-.7 0-1 0-.1-.3 0-.4.2-.4s0 .2.3.3c0-.3.2-.5 0-.8-1.4 1.3-2.7 1.1-4 1.6-.1 0-.2-.2-.1-.3a2.7 2.7 0 01-1.8.7c0-.5 1-.6 1-1 .2.5.4.3 0 0a7.7 7.7 0 01-2.9.4c-.3-.7 1-.3 1-1-.3 0-.4-.2-.6.2-1.3-.6-3.6.6-4.8.7-.3-.3.7-.4.2-.7-.2.5-.7.6-1.1.7a1.2 1.2 0 00.8.2l.1.3c-.6.2-1.1-.5-1.7.1-.2-.2 0-.3-.3-.5-.4.4-.8 0-1.3.2a.3.3 0 010-.4c-.3-.2-.5.2-.7-.2-.2.1-.2.3 0 .4a22.6 22.6 0 00-4.7 0c-.2-.3 0-.4.2-.6h-.9c-.4.2.2.5-.2.7-.4-.4-.9-.3-1.3 0-.3-.2 0-.3-.4-.5l-.1.6c-.5-.6-.4 0-1.1 0-.3-.2 0-.3-.4-.5a.3.3 0 000 .4c-.5.2-1.8-.5-1.8-1-.9.2.7.5.2 1-.4 0-.3-.3-.7-.5-.4.3-1 0-1.2.6-.4 0-.8 0-1-.6l-.5.4c.4.5.2-.3.5.2-.3.6-1.7 0-2.5.4.1-.3 0-.6.5-.7-.6-.6-.8.6-1.5.6-.4-.6-.8 0-1.3 0-.5-.4-1-.3-1.6-.2-.1-.4.5 0 .7-.3-.2-.3.3-.5.1-.8-.5.5-1.3.5-1.7 1l-.8-.2c-.2-.5 1.1 0 .4-.7.3-.3.6.2.9-.2-.3-.4-1 .3-1-.3-.4.3-.7.1-1.2.4 0-.7-.6 0-1-.5-.6.4-1.2.3-1.8.5a.5.5 0 00.8.4c0 .7-1 .2-1.3.2a.6.6 0 01.3-.6c0-.3-.3-.3-.3-.7 0 .8-.6.1-1 .7.1.4.4 0 .6.3-.3 0-.7.3-1-.1 0-.2.2 0 .3-.2-.1-.2-.4-.2-.2-.3-.4-.3-.2.5-.5 0 0 .3.2.6 0 .9-.5 0 0-.3-.4-.6-.3.2-.2.4-.2.6-.1 0-.3-.1-.4 0-.5-.3.3-.7 0-1l-.3.6c-.3.4-.6-.4-1 .1-.3-.2-.2-.4-.4-.6-.4.3-.8 0-1.2 0-.3.5-1 .3-1.5.2-.2-.2.5-.3 0-.5-.4.5-.8.2-1.5.2-.4.2.2.5-.1.7-.6 0 0-.6-.5-.8-.3 0-.4 0-.4.3-1-1-2 .4-2.9-.2-.3.6-.5.5-1.2.8-.1 0-.2-.4-.6-.3-.1-.5.6-.2.8-.5-.6-.3-1 0-1.5.3-.4-.2-.2-.4-.5-.7-.4 0-.6-.2-.8.3l-.3-.4c.1.5-.9.6-1.3 0-.3.6-.6.3-1 .1-.4.3 0 .2.1.4-.2.2-.4 0-.6 0-.4-.4-.1-.4 0-.7a1.4 1.4 0 01-1.2-.7.2.2 0 01.3 0c0-.4-1-.3-1.3-.3 1 .3.8.9 1.7 1.1-.9.7-1-.6-1.7-.5 0 .4.8.8.6 1.2-.2-.3-.9-.3-1-.8-.3.4-.3.8-.6 1.1.1-.6-.3-.6-.7-.9-.2-.3.4-.4 0-.7-.1.3-.2.3-.2.7-.2 0-.6-.4-.4.1a1.9 1.9 0 01-.8-.5c0-.2.9 0 .7-.5-.5.2-2.8.9-2.4-.1-.3 0-.6.3-.8 0-.5.8-1.5.1-2.2 1-.1-.7-.7-.3-.5-.8-.3-.2-.3.4-.7.5-.7 0-1.4-.3-2.2.2a.4.4 0 00-.8 0c-.2-.6-.5-.3-.8-.6 0 .3.2.3.3.8a1.2 1.2 0 01-.9-.6c-.5-.2-.2.5-1-.1 0 .1.2.3 0 .4a1.5 1.5 0 011.2.4l-2.1-.2v-.2c.2-.2.8.2.9-.3-.5-.3-1 .4-1.6-.2-.2.1-.3.2-.4.1a.3.3 0 000 .5c-.4.3-.8 0-1.2.2-.3-.2 0-.4-.3-.6-.4.2.2.5-.3.4-.4-.2.2-.4-.3-.4-.3.1 0 .3-.1.4-1.5-1.1-3.3-.1-4.5-.7-.1-.2.3-.3.3-.5-.6-.2-1.1.6-1.6-.2a.3.3 0 000 .5c-.2.3-.4 0-.6.3-.2-.2 0-.3.2-.5-.3-.2-.6 0-.9 0 0 0 0 .2.2.3-.2.3-.4 0-.6.1 0-.1.1-.3 0-.4-.2 0-.3.2-.5.3-.2-.2 0-.3-.3-.5a13.9 13.9 0 01-2.8 0l.3.4c-.3 0-.5.3-.8 0-.2 0 0-.2.1-.3a2.6 2.6 0 00-1.8.3c-.1-.4-.3-.5-.7-.2.4.4 0 .3-.3.5 1-.1 1.3.4 2.2.2.1-.1 0 0-.2-.2.3-.4.4.3.6-.1l.7.7c-1-.4-2.6.3-3.4-.3v.2c-.4.2 0-.3-.3-.4-.6.7-1.2.2-1.7 0-.2.6-.6.5-1 .4.1-.4.5-.7.2-1 .3-.2.8 0 .8-.4-.4 0-.4 0-.5-.4-.2.4-.5.3-.5.6-.4.2-.7-.2-1 .2-.4-.7-1.2-.4-1.9-.1 0-.6-.3-.5-.8-.2a.3.3 0 010-.4c-.5-.3-1.2.3-1.8.1-.2.2.2.4 0 .5-.3.3-.4-.4-.6 0a.3.3 0 01-.1-.4c-.3-.1 0 .5-.5.2-.2-.2-.3-.4-.2-.5-.4.2-1.3-.3-1.5.3-.2-.2 0-.4-.3-.6 0 .6-.5 0-.5 0-.7.1-1 .8-1.6.3-.2.5-1 .2-1.4.3v-.5c-.4.6-.8 0-1.3.6-.2.4.4.5.6.3.2 0-.4.4-.6.3-.2.5.5.1.6.2 0 .2-.2.3-.3.5-.2 0-.5-.6-1 0-.2-.3-.4-.5-.2-.7-.3-.3-.7.1-1-.3-.1.2 0 .5-.4.5a3.1 3.1 0 011.6-1.4 8.3 8.3 0 01-.9-.4c-.1.1-.2.5-.5.2v.5c-.5.2-.3-.3-.7-.5 0 .7-1.7.8-1.8 0 0 .5-.4 0-.7.4.3.4.6 0 1 .3-.1.3-.9 0-1.2 0a.8.8 0 01-.4.4c-.3.2-.2-.2 0-.3-.3-.2-.4.4-.1.6.2-.1.4.1.6-.2l.2.5c-.4.2-.9-.3-1.3 0-.1-.4.7-1 0-1.1.1.5-.1.2-.5.4 0-.5.4-.2-.3-.5 0 .3-.1.4-.5.6-.2-.7-.7.2-1.1-.4 1.1 0 2-.6 3.3-.2-.5-.6.9-.2.7-1-.1-.1-.3 0-.5-.2-.2.6-1 .1-1-.2.2.5-.5.4-.2 1-.3 0-.5.2-.8 0-.2-.4.8 0 .1-.5.2-.4.4.2.6-.2-.2-.1 0-.3-.3-.4-.5.6-.7 0-.8-.3 0 .7-1.2.2-1.8.4-.2.3 0 .2.2.4-.6.6-1.6 0-2 .6-.4-.2.1-.4 0-.6a4.4 4.4 0 011.5 0 .6.6 0 000-.7c-.1.2-.2 0-.4 0a.4.4 0 000 .3c-.5-.5-2 0-2.3.5.3-.9-.7-.4-.9-1a.4.4 0 01-.5 0c-.1.5.5 0 .6.4.1.3-.4.6-1 1-.3-.4.5-.4.5-.8-.5-.3-.4 0-.9.3.2.2 0 .4.1.6-.2.1-.4-.3-.7 0 .4.4.9-.3 1.3.4a2.1 2.1 0 011.4-.6c.2.2-.4.1-.6.1-.1.3.3.3.4.2 0 1.5-2.7 0-4.2.6.1.1.3.3.2.4.2.2.4-.3.6 0 0 .3-.7.7-1 .2.2.5-.6 1-1 .6 0-.1.7-.4.9-.2-.2-.5.2-.5.3-1l-.7-.5c.6-.2 1 .2 1.9-.5-.4-.4 0-.4-.5-.7 0 .3.3.6-.3.8a7.4 7.4 0 00-1.9 0c.3.2.3.4.2.5a2.8 2.8 0 00.8.1c0 .3-.4.4-.6.6-.2-.2 0-.3 0-.4-.5-.2-.1.5-.7.3 0-.2.2-.5.1-.8-.7.7-2 0-2.7.7-.1-.2.1-.4-.2-.6-.4.2-.7 0-1.1.4a.8.8 0 01.4.5c-.5.2-1 0-1.4.4-.2-.4.4-1 .8-.6-.2-.2.2-.5 0-.8-.5.7-.9.4-1.7.8.2.4.4-.1.6.1 0 .5-.5 0-.8.4-.2-.1-.1-.3-.3-.4-.2 1-1.1 0-1.6.4-.3-.7.7-.5.8-.9l-.3.1c-.4-.2.2-.3-.2-.5-.3.3-.8 0-.7.4-.3.4-.6-.2-1 0 0-.2.2-.6.5-.3 0-.7-1.2.4-1.3-.4l-.6.5c.2.2.2.3.2.5-.3.2-.3-.2-.5-.4-.6.7-1.2 0-2.2-.3-.5.5-1.8-.3-2.6.1 0 .5.4.1.6.3-.1.5-1 .4-1.5.3-.2-.4.6 0 .5-.4l-.6-.5-1 1c-.4.2-.3-.4-.6-.6-.2 0-1 .5-.8-.1a3 3 0 01-2.2.2c-.5-.2.3-.5 0-.8-.6.3 0 .6-.4.8-.4.3-.5-.4-.7-.7-.3.2-.5 0-.8 0 0-.2 0-.4-.3-.7 0 .1-.2.4-.3.3-.3.2.3 0 .3.3-.2.4-.5 0-.7 0-.2.3.3.4.4.3a2.1 2.1 0 010 .6c-.5 0-.5-.3-.7.2-.4-.4.1-.3.2-.6-.4-.3-.4.2-.5.4-.5.2-1 0-1.4 0l.4-.8c-.5-.1-.8-.8-1.3-.5-.4-.6-.5-.8-1.3-.9.2.2.5.2.5.5-.3.3-.6.2-.8.1-.2.2 0 .4-.3.6.4 0 1 .4 1.2 0 0 .2.1.4-.2.6-.3 0-.2-.5-.6 0-.4-.1.2-.3-.2-.5 0 .6-.4.5-.8.3-.3.3 0 .4.3.4-.2.1-.3 0-.5.2 0-.2-.6-.4-.4-.6-.2 0-.9.5-.7 0-.3-.3-.5.7-1 .4l.4-.4c-.5 0-1.4-.5-1.6 0-.1 0-.8 0-.3-.4a2.7 2.7 0 00-2.3 1.7l-.7.1c-.3-.3.4-.6-.1-.9.5-.3.5 0 .8 0 .4-.3.5-.5.2-.8-.1 0 0 .1 0 .2-.2.2-.5.4-.8.1-.2-.2.3 0 .4-.3-.2-.4-.5.2-.7-.2-.2.9-1.3.3-2-.2-.2.3-.5 1 .1 1-.1-.5.3-.3.6-.2.1.2-.2.2-.3.1.2.4 1.1.1 1.6.3-1.5.6-3.8.1-5.7.5l.2-.3a.5.5 0 00-.8.2c0-.6-.3-.1-.7-.4-.3-.2.6-.4.1-.6-.3.6-.5.2-1.2.1-.3.5-.7.8-1.1.2-.4.4-.7.1-1 .5-1-1.2-2.8-.2-4.5-.8 0 .4-.4.7-.6.2-.4.2-.3.4-.3.6a.4.4 0 01-.4 0c0-.2 0-.5.3-.8-.5-.3-.1.8-.7.2-.2.7-.4.4-1 .5-.1-.2.1-.4.4-.6-1 .5-2.3 0-3 1.2-.5.2-.4-.1-.7-.2-.3-.3.2-.5-.1-.8a.5.5 0 00-.2.7c-.5 0-.4.2-.8.4-.3-.5.4-1 .8-1-.2-.2 0-.4 0-.3a1.7 1.7 0 00-2.5 0c-.4-.2.4-.5 0-.7-.4.5-1.3 0-1.9 0l-.3.5v-.5c-.4 0-.2.2-.5.4 0-.1.2-.2 0-.4a.4.4 0 00-.7.4.2.2 0 00-.3 0c-.1-.2 0-.3.2-.4-.9 0-2.2-.6-2.9 0-.8-.4-.6.2-1 0-.6.6-.9.5-1.6 1 .3.2.5 0 .7.2-.3.3-.6-.2-.9.1l.2-.4c-.6 0-1.1-.3-1.7-.4-.1 0 0-.2.2-.3-.3 0-.6-.2-.9.1-.3 1-2.2-.3-3.1.4l3.3.3c-.4.2-.8 0-1.2 0-.1.5.5.1.7.3l-.6.5c-.2-.1 0-.3-.3-.4-.8.3-.8 1-1.7.8 0-.3.6-.4.9-.7 0-.2-.3-.4 0-.6-.3.1-.8 1.3-1.6.9 0-.2 0-.4.3-.6-.4-.3-.8.8-1.4.6-.4-.2.3-.5-.1-.7-.1 0-.1.1 0 .2 0 .2-.6 0-.5.5-.1 0-.8-.2-.6.3-.3 0-.5.2-.7 0 0-.4.7-.7.5-1a6.3 6.3 0 00-.8.4c-.3-.2 0-.3-.4-.5a8.1 8.1 0 01-1.7 0c-.2-.1.4 0 .5-.4-.7-.2-1 1-1.6.3-.2.1-.4.6-.6.4-.2.3.3 0 .3.3l-.3.3c-.5-.3-1 0-1.6-.3 0-.4.7-.5 1 0a1.2 1.2 0 01.8-.5c-.3 0-1-.6-1.5 0-.4-.2 0-.5-.3-.7-.4.6-1.5.6-2.4.7-.2-.3.3-.1.4-.4-.4 0-.2-.2-.5-.5-.5.3-1 .1-1.6.5-.6-.6-.6.1-1.7.7.4 0 .8-.3 1.2-.1.2-.1.2-.2 0-.4a.8.8 0 01.8 0c.2.2-.3.3-.4.2.1.3 1 1 1.5.5.3.5 1.4.4 2 .2.2.2 0 .4.5 0a3.5 3.5 0 002.9.4c0 .6 1 0 .7.6L48 4c-.2-.1-.3 0-.5-.2l.6-.2a.4.4 0 01-.1.4c.2.3.5.1.7.4.2-.2 0-.3.2-.4.2.3.4.5.7 0 .1.2.3.4.4.3.3.2-.5.4 0 .6.4-.8 2-.5 2.4 0 .3.2 0-.3.4-.4l.3-.1c.3.2 0 .4.4.6.6-.6 1.8-.1 2.7 0 .3-.3.5-.2.7-.5-.4-.3-.4.4-.8.2.2-.3.1-.3 0-.7.5-.6 1-.3 1.2.2-.2.3-.5-.4-.7 0a.4.4 0 01.2.8l1.8.2c-.2.5-.1.3.3.5a.8.8 0 01-.9-.3c-.2.2.2.3 0 .5h1c.3-.2 0-.4-.3-.6.5-.2 1 .1 1.6-.3v-.7c.6-.2 0 .4.5.6 0 .1-.2 0-.3.2.5.6 1.8.2 2.4.9.8-.6 1.5-.3 2.3-.3.2.5-.5.4-.6 1 .5.3.7-.7.8.2a.8.8 0 000-1 3.1 3.1 0 012 .1c.3-.7 1-.4 1.4-.4l-.2.4c-.2.1-.3-.1-.5-.3V6c-.2 0-.2.1-.3.2.4.2.7-.3 1 .2-.2.3-.4 0-.6.1-.2.5.5.3.7.4-.6.8.7.1 1.2.4 0-.3.1-.8.5-.8-.2.5.3.4.3 1 0-.2.2-.2.3-.1-.2-.5.4-.5.6-1 .2.1 1 .6 1.6.1.3.3 0 .5 0 .7.5.3 1 .3 1.2.6l.4-.4-.3-.4c-.4.5-.7 0-1 0 .4-.4.8.1 1.3-.2 0 1 1 .4 1.7 1-.2-.2-.5 0-.8-.2 0 .5.7.3 1 .3a3.5 3.5 0 01.2-.7c.6-.2.3.4.5.6.1-.2.2-.1.4 0 0-.6.4-.6 1 0-.4-.6 0-.2.5-.7.5.4-.7.4 0 .8.2-.6.5-.4.8-.9.4.5-.6.5-.5.8.5 0 .6 0 1-.5.3.4-.4.2-.3.5.8.7 1.1 0 2-.3.1.2 0 .4.4.6.4-.4.8 0 1.2-.3v.7c-.2.2-.3 0-.4.2-.3-.2 0-.4 0-.5-.6 0-.8.4-1.4.2.4.2.8.5 1.2.3.3.2-.5 0-.2.4a7.5 7.5 0 00-1.3-.2v.3c-.4.2-.1-.3-.5-.4a.4.4 0 01-.5.1c0 1.1-.9-.2-1.4.5-.4-.3 0-.6-.4-.6-.3.4 0 .8-.2 1.1.2.3.5 0 .7.2.1-.1 0-.3-.1-.4.3-.3.6 0 .9 0 0 .3-.3.2-.4.6-.4 0-.8-.1-1.1.1-.4-.2 0-.5-.4-.5-.7 1.3-2.7.4-4 .5 0-.2.5-.5.3-.7a17.7 17.7 0 003.4.3c.2-.3-.4-.3-.6 0-.2-.3-.6-.2-.2-.6a6.6 6.6 0 01-1 .2c0-.2.3-.5-.1-.7-.3.5-.4.3-.9.3-.3-.2.1-.4-.2-.7a2.6 2.6 0 00-2 .6c0-.1-.1-.3 0-.4.2-.3 0 .4.3 0-.5-.4-1 0-1.6-.4l-.7.7c-.2-.3-.2-.5-.6-.7-.4.6.2.6.4.9-.4.3-.7-.6-1-.1-.5-.4.3-.7-.2-1-.1 0 0 .1 0 .2a3.7 3.7 0 01-2.1 0c-.4.4.2.7.5.7-.3.1-.7 1-1 .6-.2-.3.4-.1.3-.4-.2-.4-.4.2-.6-.2-.2.3 0 .5-.5.6-.2-.1-.2-.3 0-.5-.5-.4-.5.7-1 .4 0-.3.6-.6.2-.8-.4.2-.3.4-.5.6a.4.4 0 01-.4 0c0-.3.5-.3.4-.7-.5 0-.3-.2-.8-.6-.9-.3-1.8.2-2.5.2.6-.6-1.5-.3-2.1-.5 0-.5.9 0 1.2-.5-.7-.4-1.4.5-2 0l.2.3c-.3.4-.5 0-.8.4-.6-.9-1.6 0-2-.7-.9.5-1.4 0-2.1.6.3 0 0 .2.3.4-1 .6-1.3-.4-1.3-1.1-.3.3 0 .7-.3 1a4.7 4.7 0 01-1.2-.2c-.1-.2.4-.2.7-.4-.3 0-1.5-.3-1.7-.2-.2 0-.2-.5 0-.3 0-.4-.3 0-.5 0-.1.1 0 .2.1.3-.7.1-1.9-1-3-.4l-.4-.4c-.2.2-.4-.1-.6.2-.8-1-1.6 0-2.4-.8a2.3 2.3 0 01-2.6-.3c.6-.3.6-.5 1-.8-1 0-1.9.7-2.3.2 0 .8-.7 1.1-.5 2l-1.4-.4c0 .8 1.7.2 1.6 1.2-.2.2-.3-.3-.5-.4-.1.6-.8.1-1.2.6a.7.7 0 00-.3-.8c0 .4-.3.5-.7.8-.3-.3-.8-.8-.9-.2-.3-.3-.1-.6-.5-.5-.2-.4 0-.3.3-.5a1.7 1.7 0 00-1.2.1c-.3-.2.3-.6 0-.9-.2.2-.3 1-.7.5 0 .2-.3.5 0 .6-.5.3-.4.2-.6.7-.2.3-.4-.5-.6-.1-.4.3.2.3.4.5-.3 0-.5-.2-.8 0-.2-.2.4-.5 0-.7 0 .4-.6.2-.4 0-.6.7-1.6.4-2.4-.2l-.3.6c.4.2.2.2.6.5.2-.1 0-.3-.1-.4.8-.2 1.5.3 2.3.5-.7.3-1.3-.3-2 0a3.3 3.3 0 011 .4c-.3.2-.7-.2-1.1.4-.2-.2.2-.5-.2-.7-.1.2-.3.1-.4.3-.3-.1 0-.3 0-.5-.1-.1-.3.2-.5-.1-.1.5-.7.2-.8.7-.5-.2 0-.6-.3-.8-.4.3-1.3 0-1.3-.3-.6.4-.6-.2-1.2 0-.2-.3.3 0 .4-.3-.5-.4-1 0-1.6-.2a1.3 1.3 0 00-.3.8c-.3 0-1 .2-1 .6-.4-.1.3-.4-.1-.5-.3-.1-.6.2-.9 0-.3.2-.1.4-.5.4-.3-.3.5-.6.5-.9.2-.3.4.6.6 0 0-.4-.8-.3-1.2 0-.4-.1-.1-.3-.4-.5-.5.4-1.4.8-1.6.4-.2-.1-.2.1-.1.3-.4 0-.7.2-1-.2-.3.3-.5 0-.7.4.4-.3.8.6 1.2 0 .3.5-.1.7.5 1-.5.6-.7 0-.8-.1-.4.4.4.3.3.7.2-.3.4-.3.6 0 .3-.4.5-.2.5-.5-.3-.2-.6 0-.5-.5.3-.1.5.4.7 0 .2.4-.3.6.3.7-.2-.6.4 0 .7 0 0 0 0 .4-.2.4.3.1.8.5 1.2.3.3.7 1 .2 1.2.9.5-.2.4-.6 1-.6 0 .2-.2.3-.3.5.3.5.8.2 1.2.4.1-.3 0-.4-.2-.4.3-.5.7 0 .7-.5 0 .1 0 .6.3.4.2.3 0 .2-.3.4.5.3 1-.1 1.5.5.2-1 .7.4 1.2-.4-.1.5.4.2.4.6-.3 0-.7.2-1-.3-.3.8-1.2.3-1.8-.1a1 1 0 01-.5.8c1-.9 2.7 1.1 3.6-.5a4.8 4.8 0 011.8.1c.2-.2 0-.3-.2-.3l.6-.6a.6.6 0 01.6.2c-.3.3-.6 0-.9.5.3.2.6.1.8.4l.4-.4a1 1 0 01.5 0c.2.2 0 .5-.3.7.7.1.4-.9 1.2-.6a.3.3 0 00-.1-.4.7.7 0 01.6-.3c-.4.8 1 1 1.5 1.3-.6.3-2-.2-1.9.5-.6 0-1.1-.3-1.7-.1 0 .5.7 0 1 .3-.5.2-.5 0-.9.5-.2-.7-.5 0-.7-.8-.5.3-.3.7-.1 1-.4.2-.4-.4-.6-.5-.2.2-.4.1-.6.5-.4-.2-.1-.4-.4-.6-.4.5-.2 0-.7 0-.4.3-.8 0-1.3.4-.4-.2 0-.4 0-.6.4-.2 1.2.2 1.2-.5-.3 0-.5.3-.8.4a.5.5 0 00-.2-.4c-.4.4-.5.5-.8.2-.6.3 0 .6-.5 1h-.3c-.4-.1 0-.4 0-.6-.2-.5-.5 0-.7-.4-.2.2-.1.3 0 .4-.6.3-1.1-.6-1.8.3-1-.3-1.8.2-2.6-.4-.3.5-.6.1-1 .2 0 .5 0 .6-.3.8.5.4.5.3.8.7.2-.4 0-.3.4-.7.4-.2.8.1 1.2-.4.2.4-.4.7-.5 1 .2.3 1 0 .8.5.6 0 1.3-.6 1.9 0-.4.3-.8.2-1.2.4.3.1.6 0 .8.4.1-.4.2-.4.4 0 .7-.7 1.4.2 2.1 0 .4 0 0 .3-.2.5.3.3.5 0 .8 0-.2-.2-.2-.5-.6-.9a.9.9 0 010-.4 2.3 2.3 0 01.7 0c.1.2-.2.4.2.6l.3-.5c.1 0 .3.1.4 0 .2.4-.2.2-.2.5-.3.3-.6-.2-.9.2 3 .2 5.9 0 8.8.5.2-.7 1.1-.4 1.3.1.2-.4 0-.8.1-1.1.6-.3.5.5 1 .2.2 0 0 .2-.1.3.4.1 1-.3 1.4-.1-.6 1 1 .5 1.8 1.2.4-.2 0-.4-.1-.6.7 0 .4.1 1 .3.2-.1-.2-.3 0-.4a.6.6 0 01.6.1 1 1 0 01.4-.5c.4-.3.2.4.7 0 .2.1 0 .3-.2.5 1.1.2 1 .5 2.4.2a.4.4 0 01-.1.4c.9-.5 1.7 0 2.6-.4a.4.4 0 010 .3 1.8 1.8 0 001-.6q.5.2 0 .5c1.2-.3 2.3.7 3.5-.3.3.2-.1.4.2.6-.2.2-.3-.1-.6.2 1-.2 2-.7 3.2-.4.1-.4-.7-.2-.2-.7.5.4 1 .7 1.3.5.3-.5-.4 0-.6-.2.4-.4.7-.2 1-.3a2.4 2.4 0 01-.2.9c1-.2 1.7-.9 2.8-.5 0 0-.2.2 0 .3.1.2.3 0 .4.3.4-.4.2-.4.6-.6a.7.7 0 00.4.5 4 4 0 011.4 0c.2.1-.3.2-.4.1.3.5 1.2-.1 1.5-.7.4.3 0 .5-.3.8.7 0 1.4-.8 2-.5.3 0-.3.5-.3.1 0 .4.4.6.9.6-.2 0-.6 0-.2.3-.2.1-.4-.2-.6.2.3.3.6 0 1 .2-.2-.3.1-.7.4-.5.1-.2-.1 0-.2-.3a2.3 2.3 0 001.1-.7c.5.2-.2.5.2.7.3-.3.8-.3.8-.7a6.6 6.6 0 002.3.1c0-.2-.1-.4.3-.6.3.5-.3.8.5.9-.3.3-.5 0-.8.2 0 .4 1-.1 1.3 0 0-.1-.2-.3 0-.4.4.2.6 0 .8.5.4-.2.1-.4.5-.6.3-.1.5.7 1 0 .3.2 0 .4.4.6-.2.2-.5.1-.7 0 1.4 1 3.7 0 5.4.2a1 1 0 01-.4.8c.3 0 .7-.2 1 0 .3-.2.2-.4.2-.6.8 0 2.3.8 3.2-.4.3.4-.3.3-.3.6a5.7 5.7 0 011.2.1l.1-.4c.7-.2 1.7.8 2 0 .2.2.1.5.5.7.2-.2.6-.6.8-.1.5-1 1.6.2 2.4-.5 0 .2.3.4.2.5.5-.2 1-.5 1.4.1a1 1 0 01.6-.3.5.5 0 00.1.3c.1-.3.7-.3.4 0a1.4 1.4 0 011.4 0c-.1-.4.1-.4.5-.4l-.3.3c.5.2 1 0 1.5.1-.4.4-.5 0-.7.5a1.1 1.1 0 00.8 0c.1.2-.2.3-.3.5-.3 0-.7-.6-1-.1.4-.1.2.6.6.4.1.4-.2.5-.6.6-.1-.2.1-.4.1-.6-.3-.3-.5.2-.6.4-.4 0-.7.2-1-.2.7.1.6-.5 1-.4.3-.3-.5-.2.1-.6.4-.2 0 .6.3.3.5-.4 0-.2-.2-.5a.4.4 0 01.4 0c-.4-.3-1.7.2-2.4-.1.2.5-.3.1-.4.5a2.8 2.8 0 001.4-.3c.1 1.2-1.4.8-1.9 1.1-.7-.4 0-.9-.4-1.3 0 .6-.6-.2-1 .4.3-.1 1.2 0 .9.6-.5-.6-.5.3-1.3-.1-.3-.3.2-.5-.2-.8l-.5.4c.1.2.3.3.2.4a14.5 14.5 0 01-2.7.6c.2.4.5 0 .8.2-.5.3-1.5.6-1.7-.1.3 0 .5 0 .8-.4.1-.3-.4-.1-.3-.5-.6.1-1.1.9-1.5 0-.2.4-.4.2-.6.2 0 .1-.3.3-.2.4-.6-.3-1.9.4-2.2-.3l-1.3.3a.9.9 0 01.2-.5c-.4-.2-.3.4-.5.5-.4-.3-.2-.6 0-1-.4 0-1 .1-1.1-.4-.2.3.2.7-.3 1 .6.3.3-.8 1-.3.1.3 0 .5-.4.7-.7.2-1.4-.7-2.2-.4-.2-.5.4-.3.6-.6-.3-.2-.6 0-1 .2a.5.5 0 00.3.4c-.3 0-.4-.2-.4.1-.6-.3-1.1.6-1.6-.2-.1.4-1 .5-1 0a1.3 1.3 0 01-1.8.5c-.2.1 0 .2-.2.4-.5-.3-1 0-1-.6l-.7.6c-.7-.3.2-.6-.2-.9a1 1 0 01-1.2.1c0 .3-.5.6-.6 1-.3-.4.5-.8 0-1.1 0 .8-1.2.8-1.8.4-.5.2-.4.8-1 .6 0-.3.4-.7-.1-.5-.1-.3.2-.6.5-.8 0-.1-.1 0-.2 0l-.2-.2c-.3.2 0 .5-.4.7-.5.3-.4-.4-1-.7-.3.4-.6-.1-1 .1.4.5.8.4 1.2.2 0 .2.2.4.4.6-.4 0-.4.3-.8 0-.5.1.2.3-.3.5-.3-.5-1.2-.3-2-.4 0 .2.6.2.8.1.1.7-.8.7-1.2.5-.3-.4.6 0 .4-.4-.5-.4-.4.4-.9.2.6-1-1.4.1-2-.7-.3.4-1 .6-1.5 1 0-.8-1.5 0-1.7.3-.2-.2-.3-.3-.2-.4-.2.3-.5 0-1 .4-.2-.6-.6 0-1.3.2-.1-.2.1-.4-.2-.6-1.2.5-1.9.1-3 .5-.2-.3 0-.5-.4-.5 0 .8-.6.4-.9-.1.2.5-.5 1-1 .7-.1-.4.6 0 .5-.4-.1-.2-.3 0-.4-.3-.2.3 0 .5-.3.5-.1-.2.2-.3 0-.5-.5-.2-.7.1-.7.4-.5.2 0-.5-.5-.4 0 .4-.3.6-.7.7-.2-.5-.3 0-.7-.4 0 .4-.5.4-.8.2 0-.2.2 0 .2-.4-.2.5-1.7 0-1.5.8-.3-.2-.7.6-1 .4-.3-.4.3-.3.6-.8h-1c-.3 1.1-1.6.6-2 .9.1-.4.6-.5.8-.7.2.1 0 .2 0 .4.4.1.3-.3.7-.4-.6-.1-.8 0-1.3-.7-.4.2 0 .4 0 .6-.6-.6-2.9.2-3.7 0-.1 0-.8.4-.5.7-.5.4-1-.4-1 .4-.2-.3.1-.5 0-.7.2-.1.4 0 .5.2.4-.4-.2-.6.5-.7-.5 0-.6.2-1.2.6a.5.5 0 00-.2-.4c-.3.3.2.2 0 .6-.2.2-.5-.1-.8.3a17.3 17.3 0 004.4.4c.4.1-.3.3.1.5.4 0 .3-.2.5-.5.4.4-.3.8-.6 1.1-.8 0-1.7-.7-2.7-.1-.3 0-.6-.3-.9-.2.3.3.2.3-.4.2-.3.2 0 .3-.2.5-.7-.6-.9-.1-1.5 0-.3-.3 0-.4-.3-.6a.5.5 0 01-.7.5c-.3-.2.5-.4 0-.6-.1.2-.3.1-.4 0a.8.8 0 01-.3.5 4.7 4.7 0 01-1.9-.6c-.2.8-.6-.2-1 .3-.2-.3.4-.1.5-.4a1.7 1.7 0 01-1 0c-.2 0-.5.5-.6.3 0 .5 0 .4-.5.8.7-.1 1 .4 1.6 0 .3.4-.3.4 0 .7.4-.3.5-.6.4-.9.2-.1.4 0 .6-.3 0 .6.6.3 1 .2.2.3-.5.3-.5.8.3 0 .3-.1.5-.4a1.2 1.2 0 001 .5c0-.2.3-.5.6-.7 0 .2 0 .6.3.8.3-.3.5 0 .8 0-.2.2 0 .4 0 .6a8.3 8.3 0 013 0c.6-.6 1.2.2 1.7-.2 1 .9 2.5-.7 3.1.5.2-.4.4-.2.6-.4l.8.5c-.4.2-.7-.1-1 .5.3-.5-.1-.3-.5-.4-.2.4.2.3.4.4-.5.4-.9.2-1.3.2-.2-.2.4-.3.5-.2-.1-.4-1.1 0-1.6 0 .2.3.5-.1.7.2-.9 0-1.2.4-2 .6-.3-.2.6-.5.1-.7l-.4.4a2.9 2.9 0 00-2.4.4c.6-.5-.3-.3-.8-.4 0 .2-.3.5 0 .4-.6.7-.7-.3-1.3.3-.2-.3 0-.5 0-.8-.3-.1-.7.5-.7.6-.4.3-1.1-.5-1.3.2-.1 0-.8-.2-.6-.4a2.3 2.3 0 01-2.3.3 1.5 1.5 0 00.9-.7l-1-.5c-.2.1.3.6 0 .5-.2.5.4 0 .5 0 0 .5-1 1-1.5.4-.6 0-1.3 1.2-2 .6 0 .2-.2.3-.3.4-.3-.2 0-.4 0-.5-.4-.2-.8.6-1.2.2-.1-.3.4-.2.5-.5-1 .3-2 .8-2.7.1a1.1 1.1 0 00-1 .4c.3.2.3.3.1.5-.3-.4-1.4.2-2-.3.2-.2.4-.4.6-.3-.2-.3-1.2-.2-1.7-.2-.4.4.4 0 .5.4-.3.3-.6 0-1 .4a.4.4 0 01-.1.5c.2.2.3 0 .4.3a.8.8 0 00-.4.2c-.5-.7-.6-.5-1.2-.7.3-.5.6.2 1-.3-.3-.3-.5 0-.7-.4.2.4-.7.7-1 .7-.2 0 0-.2.1-.3-.2-.5-.5 0-.7-.4-.2.2.2.4.2.6-.7.3-1.4 0-2 .2 0 .5.4-.1.7.1v.3c-.4-.2-.5.2-1 .4 0 .5.4.3.6-.1.4.2-.4.5.2.5-.3.3-1 .4-.6.8.3 0 .4-.2.2-.4.1-.1.2 0 .3.1.4-.2.3-.4.5-.6a3 3 0 001.8-.3c.6.9 1.3 0 2 .2 0 .7-1 .3-1.2 1 1.1-.4 1.7.2 2.9-.6.3.4.4.7 1 .2a.7.7 0 01-.4 1c.2.2.3-.1.5 0-.2-.3.4-.6 0-.9.7.5 1.4-.2 2-.2l-1.6 1c.2.6 1.4-.4 2-.6 0 .4.7.2 1 .2 0-.2-.1-.3 0-.4l.3-.1c0 .2-.1.3 0 .4a22 22 0 002.5-.5v.2c-.8.3-1 .6-1.9.8.7.4 1.3 0 2 .2.2-.3-.3 0-.4-.3.2-.3.4-.2.5-.3.5.2.1.7.6.7.1-.2 0-.3.3-.5h-.3c-.2-.1-.1-.8-.4-.2-.5-.5.2-.7.5-.7-.5.3.5.3.2.7.2.2.5-.5.8-.4.2.3-.5.6-.7.7-.3.2.2.4 0 .7.3.2.6-.2 1 0 0 .4-.4.3-.7.8.4.4.7-.3 1 .2.3-.4-.3-.2-.5-.5a1.8 1.8 0 01.9 0c-.4-.3-.2-.6 0-1h.2c.4 0-.2.3.2.5.4-.7 2.6-.3 2.4.4.3-.4.6-.2.6-.6.5.2.2.5.5.8-.5 0-1 .3-1.5.1.3.4 1.4.4 2 .2.2.2-.2.4.2.5.4-.3.8-.6 1.4-.1 0-.5.5-.5.2-1 .3.4.7-.2 1.2.2-.3-.6.7-.3.8-.8.6.3-.5.6 0 .8a.7.7 0 01.9-.3 2 2 0 01-.2.7c-1 .2-1.9 0-2.6.4.2.4.4-.2.6.3 1.3-1.1 2.5.4 3.7-.5 1.2.9 3.4-.2 4 .8a11 11 0 011 0c.3-.6 1-.1 1.4-.3 0 .1-.1.3.1.4 0-.5.7-.5.7-.1 1-.6 2 .2 3.1-.2-.3-.3.3-.4.4-.6.2.2-.4.5-.3.7.9.4 1.8-.2 2.7-.3 0 .7 1 .7 1.2.2.2.3.4.1.5.4.5-1 2.4.3 3.6-.6.7 1 2.4-.7 3 .3a1.7 1.7 0 00-.9 0c.2.6 1.2-.2 2 0 .2.1 1.3.6 1.3 0 .2-.1.4.3.6.4.7-.4 1.3 0 2-.5a13.4 13.4 0 003.7.2c31.8 1.3 64-.2 96-.6.3.2 0 .4-.1.6-2.4-.6-4.9.4-7.3-.2-.1.4-.3.4-.6.5-.1-.2.1-.1.3-.3-.4-.2-.8.4-1.2 0-.3.2 0 .4-.2.6-1-.8-2.6-.6-4-.1a5.6 5.6 0 00-3.2 0l-.1-.2c-1.7.5-4-.2-5.2.5-.2-.3 0-.3-.3-.4-.1.1 0 .3.2.4-2.2-.6-4 .5-6.1-.2-.2.6-1.3 0-1.8 0-.9 0-1.5.6-2 .1a2.2 2.2 0 01-2.2 0c-.4.2.2.3-.2.5-.1.2-.6-.3-.4-.3-.5.4-1 0-1.5.3-.2-.2-.1-.3 0-.4-.7.5-1.3.2-2 .4 0-.7 0 0-.6-.4a.5.5 0 01-.5.5.7.7 0 00-.2-.5c-.5.7-1.4-.2-2.3.5a.3.3 0 010-.4c-1.2.2-3.8 0-4 .4-.7.1-1.2-.4-1.8.2-.5-.4-1.5-.7-1.7-.2-3.6-.3-6.8.2-10.5 0-.2.1-.1.2-.2.3l-.9-.4c-2 .6-4.7-.4-7 .5-.2-.1 0-.3-.3-.4a8.2 8.2 0 01-2.6.1c0 .3.2 1-.7 1.3-.2-.4 0-.6-.5-.7-.1-.3.5-.7.7-.3.3-.4-.6-.6-.6-.2-1.1-.6-2.4.4-3.6-.3-.3.6-1 .4-1.6 0-.2 0 0 .2 0 .3-1-.3-2.1 0-3.2-.3l-.1.4c-1.5-.3-3.7.4-4.8-.4v.3c-1.6-.1-3.4.2-5-.3-1.3.4-3.3.1-4.8.1-.3.2 0 .4-.3.6a.4.4 0 01-.4 0c.4-1-1.1-.4-1.6-.6-.2.4.4 0 .5.3.2.4-.4.3-.6.4-.6-1.2-1.9-.4-2.8-.8-.3.2 0 .4-.3.6-.1 0-.2-.1-.4 0 0-.2.2-.3.3-.5-.2-.2-.5-.2-.8.2 0 .1.3.3 0 .5.1.2.3-.2.5.2-.3.3-.6-.2-1 .3-.2-.5-.6-.2-.9-.3 0-.4.6 0 .9-.3-.6-.6.3-.2.5-.4-1-.7-.9 0-1.7-.4-.2.2.2.4.2.6l-.3-.1c-.2.2 0 .3.1.3-.5.6-1 .4-1.4.9-.3-.2-.5-.2-.4-.5-.4 0-.8.7-1.2.4-.2-.1.3-.3.4-.5-.3-.2-.6.2-.5.5-.3.2-.6-.4-.9-.1 0-.2.3-.4-.1-.5-.5.7-2 .9-2 .2-.3 0-.7-.2-1.2.3-.5-.7-1.3.2-1.5-.5-.5 1.1-1.7-.5-2.5.4-.8-.2-1.6 0-2.4-.2-.2-.2.5 0 0-.4-1.3 1-2.5-.2-3.8.4.2.1.3 0 .5.2 0 .1-.1.3 0 .4-.6 0-1.1-.5-1.7-.5-.1.2.1.2.3.3.1.3-.5 0-.6.4 0-.3-.1-.4-.4-.4-.5 1-1.5-.3-2.3.5-.3-.3-.3-.5 0-.7-.2-.4-.4 0-.7-.2-.1.2.2.3.3.4-.3.4-.5.3-.8.4-.1-.1 0-.3.2-.5-.7.4-1.3 0-2 .2 0-.2.3-.4-.1-.6-.5 1-2.5.5-3.1.9-.2-.4-1-.3-.4-.7-.4 0-.4.2-.5.5-.4 0-.4-.9-1-.4.2.3.4 0 .6.1-.1.1-.2.2-.1.3-1 0-1.9-.4-2.9.3 0-.5 0-.4-.3-.8-.3.2 0 .5.2.7-.5.8-1-.3-1.5.3-.6-.3.3-.7 0-1-.4.4-.2.7-.4 1-.3.4-.3-.3-.5-.1-.1-.2.1-.3.3-.5-.3-.1-.9.2-.7.5-.6-.6-.7 0-1.1-.7-.6.4-.7.3-1.3.1-.1.3.2.5-.3.7l.5.5c.3 0 .2-.5.6 0 .2-.2 0-.3 0-.4.6 0 2.4-.3 2 .6.2.2.4-.3.6-.4.3.3 0 .6-.3.8.2.1 1.1 0 .8-.4.4-.2.8.2 1.2-.3.2.2-.4.4-.3.6.3.4 1.3-.4 1 .4.2.2.4-.3.2-.4a1.4 1.4 0 011 .2c.1-.1 0-.3.2-.4.2-.2.4 0 .6-.1a1 1 0 010 .4 4.1 4.1 0 012.4-.3c.2.3-.3 0-.4.4.3.2.6-.2.8.2.7-.5.6.8 1.2.2l-.5-.1c.3-.5.5 0 .8-.4.2.1 0 .3-.2.4l.5.1c.2-.6 1.8-.3 2.6-.2a.3.3 0 010 .1 11.2 11.2 0 013.3 0c0 .2-.2.3-.3.5.4.4.7-.2.7-.5.5-.1 0 .5.5.7.5-.2-.4-.4 0-.6.7 0 1.5-.6 2.3 0 .3-.7.6-.4 1.2-.6.3.2 0 .3.3.5a3 3 0 011.8-.3c.1.3-.5.2-.7.3.4.3 1.2 0 1.7-.4.3.2-.1.5.2.7-.3.3-.7 0-.7.4a6.4 6.4 0 003.1-.8c.5.3-.4.6 0 .8a5.4 5.4 0 013 .3c.6-.6 1-.2 1.2 0 .2-.3-.1-.4.2-.6.7.5 2.5-.5 2.6.3 1.1 0 2.8.4 3.7-.1.5.4 1.2-.1 1.7.5.5-.5.9 0 1.3-.6.3.1 0 .3.3.5a26 26 0 016.7.2c0-.2.2-.3 0-.4a14.4 14.4 0 005.4 0c.4-.2.8.5 1.3.4 0-.1-.1-.2 0-.4a2.6 2.6 0 002 0l.6.5a15.3 15.3 0 015.8 0l.1-.2c3.3.4 6.7 0 10 .2.6-.6 2.9-.1 4.3-.1.8 0 1.4-.4 2 0l.4-.3c.4.7 1.2-.2 1.9.4 1.6-.6 3.9.1 5.8-.4l.3.4c2.5-.7 4.9.1 7.4-.6 1 .6 2.1-.3 3.2.3.6-.5 1.2.1 1.9-.3a15.2 15.2 0 005.3 0c4 .1 7.9-.5 11.8-.3l.4-.3c.2-.1.2.1 0 .2 2.2-.2 3.7-.2 5.8-.5l.4.4c.4 0 .1-.6.7-.3.1.2-.1 0-.3.2.3.2.7 0 .7-.2 15.4.1 30.4 1.8 45.8 1.7l.3-.2c2 .3 4.2-.5 6.3.1.3 0 .7-.7.7-.1a1.7 1.7 0 011.8 0c0-.2.2-.3.4-.4a4.2 4.2 0 002.1 0c3.5.5 7.1-.5 10.6.6l.4-.3a1.6 1.6 0 001.9 0c.2.2 0 .3.2.5.3-.7.6-.3.9 0 1-.5 2-.3 3.2-.3a.3.3 0 01.1.5c.3 0 .4-.6.9-.2v-.3c.2-.1.5.2.8-.2.2.2 0 .3 0 .4a2.7 2.7 0 011.5-.4c.3.5-.3.2-.6.5 1.2-.4 2.3-.5 3.5-.7l.4.5c0 .4.3-.2-.2-.4.6-.4 1-.3 1.8-.5.1.4.8.3.3.5.4.2.4-.5 1 .1.4-.3-.2-.3-.4-.4.7-.4 1.4.1 2-.4.1.2 0 .3-.2.4.2 0 .4-.2.6.2-.2-.5.3-.2.7-.6 1.6.8 3.5-.9 5 .2.3-.7 1.3-.5 1.9-.6 0 .5-.8 0-1.2.4.2.1.3 0 .5.3a17.8 17.8 0 01-1.7.8c0-1-1.4-.1-1.7 0a4.4 4.4 0 004-.4c0 .2-.2.3-.4.4.6 0 1.8 0 1.9-.8.3-.1.2.4.4.5 1.1-.4 1.8-.4 3-1 1.5.2 15-1.8 16.5-2.6-.7-.1-5-1.2-4.6-1.6 1.9.5 7.8-1.3 10.2.2-.6-1.1 1.4-.5 1.3-1.5-.3 0-3-.5-4.6-.6 3.8-.1 13 1.2 14.7 2a.4.4 0 00.5-.2 1.2 1.2 0 00.1 0c.2-.4.4-.5.6-.4a1.3 1.3 0 01.2.1.4.4 0 00.4 0 .5.5 0 01.4 0 .5.5 0 00.4-.2l.5-.5c-.2-.3-.4.1-.6 0 1-.5-3.7-1.4-5.2-1.3a1 1 0 011.2-.1 8.2 8.2 0 014.3-2l.5.5c-.1-.5.9-.3 1.3-.6v.4a8 8 0 003.7-.8c1.5 0 3.4-.1 4.6-1 1 .2 2.8-.7 3.6-1a13.2 13.2 0 003.5-1.7c-.4-.1-.4-.4-.5-.7.2-.2.5 0 .7-.2-.4-.2-.6 0-.9-.3-.5.5-1.3-.4-1.4.2-.3.1-.5-.4-.7-.6a9.5 9.5 0 01-1.8 0 9.8 9.8 0 001.6-1c-2.3 0-5.4-.2-8 .7a.8.8 0 01-.7-.3.9.9 0 000 .5 2.7 2.7 0 00-.8.1c-.4-.8-1.5.3-2 .9-.3-.4 0-.6.4-.9a.6.6 0 01-.7-.5c.5-.3.6 0 .9-.5-.2-.3-.5.5-.7 0-.3.1-.1.3-.4.5a.4.4 0 01-.4 0c0-.4.5-.6.5-1h.3c-.3.6.5.2.9.2.2.2 0 .3.3.5.8-.2 1-1.1 1.7-1.2.1.3-.6.6-.9.8.4.1 1.1 0 1-.4.8.4 1.8-.3 2.7-.6-.5-.4-1.1.3-1.7.4a1.4 1.4 0 012.1-.4 2.2 2.2 0 012.2-.2c2.3-1 4.6-.3 6.9-1-.5-.5-1-.3-1.5-1a1.6 1.6 0 01-1.6-.5c-.2 0-.1.2-.2.3-.4-.6-.9-.1-1.2-.4-.2-.3 0-.4.3-.6-.5-.4-1 0-1.6-.2-.3-.3.2-.4 0-.7-.7-.3-1.2.3-2 .3-.3-.5.7-.7 1-1a1 1 0 01-.4-.3v.3c-.3.2-.5-.2-.7.2-.2-.1 0-.3-.2-.4a3.2 3.2 0 01-2-.2.4.4 0 000 .7.8.8 0 01-.6.3 4.5 4.5 0 01-.3-1.1 2.6 2.6 0 002.2-1.3 8.3 8.3 0 013.5.3c-.3-.8.6-.4 1-.3.2.4-.4 0-.6.2.5.4 1-.3 1.5-.3.4.3-.2.4.3.5.1-.6 1.4-.5 2-.3.7-.4 1.3-.1 2.1-.3.1-.6-.7-.2-1-.3a4 4 0 013.5 0c.8-.6 3.5.5 3.8-1 .7.2 1-.5 1.5-.2 0 .3-.3.2-.3.6 1.6-.4 3-1.1 3.2-2.3-.3-.4-1-.7-.8-1.2zM41 2.7c-.5 0-.4.2-1 0a.9.9 0 01.6-.5c-.2.4.4.1.3-.1.2.2.1.4 0 .6zm5.3 0c.4 0 1.2-.2 1.3.2a1.6 1.6 0 01-1.3-.2zm2.7.6c-.2 0-.9-.1-.8-.5.2-.1.9.2.8.5zm5.7 1c.3-.3.7-.8 1-.5-.3.3-.7.6-1 .5zm1.7-1c-.1-.4-.3-.2-.7-.5.7 0 1.2-1 1.5-.4-.5.2-.5.6-.8 1zm1-1c.4.2.2.4.6.6-.3.3-.5.2-.8.2.2-.3 0-.5.2-.9zm0 2c.2-.2.8-.2.6-.6-.2-.3-.9.2-.7-.3.3 0 .7-.1 1 .2-.2.2-.1.3 0 .5a1 1 0 01-.9.2zm1.5-1a1 1 0 01-.8-.3c.2-.5.9.1.8.3zm3.4.8c-.4-.1-.4-.6-1-.2 0 .3.6.2.3.6a.7.7 0 01-.8-.5c.6-.5 1.6-.8 1.8-.2-.2-.1-.1.1-.3.3zm1.5.1a.8.8 0 01-.6-.3.5.5 0 01.8 0 .6.6 0 00-.2.3zm-.1-2.1a1.3 1.3 0 011.4 0 3.4 3.4 0 01-1.4 0zm.8 2.6c.3-.3.5.1.7.2-.2.4-.5 0-.7-.2zm2.8.5c0-.1.3-.7.5-.5 0 .3 0 .7-.5.5zm-1-1.7c.2-.4.7-.2 1-.8.5.2-.4.4-.2.6.3.2.5-.4.8 0-.5.4-1 .3-1.5.2zm3.2 1a.6.6 0 01.2-1 .7.7 0 01-.2 1zM71 6.3c0-.1-.2 0-.3-.2l.5-.5c.2.2 0 .5-.1.7zm-.1-2c-.2-.6-.5-.2-.9-.5.5-.3.9 0 1.3-.3a.7.7 0 00.4.3c-.4.2-.5-.2-.8.4zm2.2.6c-.1 0-.3 0-.5-.3.5-.1.3-.4.7-.2-.2.1.1.3-.2.5zm.8-.6c-.6-.6-1.7.3-2-.4.6 0 2.1-.5 2 .4zm2.6.2c.2-.2 0-.3.2-.5.2.4.4 0 .6.3a.8.8 0 01-.8.2zm4.2.5l.6-.6c.2.5.6-.1.8.3a2.5 2.5 0 01-1.4.3zM22 8.8c.1-.1 0-.3.3-.4.2.1.3 0 .5.2-.3.3-.5.5-.8.2zm2.5 0c-.1-.6-.4.1-.8 0 0-.7 1.4-.5.8 0zm2.4.8c-.3-.2 0-.6-.4-.6.6-.7.7.4 1.3.5-.3.4-.6-.4-.9.1zM30 11c0-.5-.3-.2-.5.2-.3-.5.6-1.2 1-.9a.7.7 0 01-.4.7zm-4.7 2.4c.1.5.3.1.6.3-.1.1.2.3.1.4-.4 0-.3-.3-.7 0l-.3-.2c0-.1 0-.3.3-.5zm-1.2 0c.2.1.8-.2.5.4-.1-.3-.7.1-.5-.4zm.4 2c.7 0 1.3-.3 2-.1a1.6 1.6 0 01-2 0zm1.6-.8c.3-.5.6-.4 1 0-.4 0-.7.3-1 0zm3.5-.1l-.3-.3c.3-.4.5-.2.7-.1l-.4.4zm2.6.2c.3 0 .6-.6.9-.3-.3.3-.6.6-.9.3zm1.5 0c0-.2-.1-.3-.2-.3l.3-.3c.1-.2-.3-.4 0-.6.2.4.4-.2.6.2l-.7 1zm9.8-7c.1 0 .5.3.2.6-.2-.2-.4-.4-.2-.6zM40.6 6c-.2.2.2.3 0 .5-.5.2-.4-.6 0-.5zm-1.2 6.5c-.2.5-.3.8-.9.5.7 0 .3-.5 1-.4zm-.6-4c.4 0 0 .5.4.7l-.5.4c0-.2-.7 0-.4-.4h.6c.2-.2-.6-.4-.1-.6zm-.5 1.7c.4.2-.2.4.2.5a.5.5 0 01-.8 0 .7.7 0 01.6-.5zm-1-.3l.5-.4c.2.1 0 .3.2.4-.2.3-.4.2-.6 0zM32.6 11c-.1-.1-.3-.2-.2-.4.2.2.3-.4.6 0l-.4.4zm1.7-.4c-.4-.3-1.3.3-1.3-.3l.2.1a1.2 1.2 0 00.1-.8c.2.2.4-.1.6.2-.8.6.7.3.4.8zm.5 0c0-.1 0-.2-.2-.3.5-.3 1 .3 1.4 0-.4.4-.6.3-1.2.3zm1.2-1.1c.2.1.4 0 .6.2-.2.4-1 .2-.6-.2zm0 3.8a4.5 4.5 0 01-.8-.4 10 10 0 001.3-.5c-.2.2-.2.3 0 .5zm.7-2.4c-.3-.2-.6 0-.9-.2.3-.4 1-.2.9.2zm-.2-2a.3.3 0 010 .4c-.5 0-.7-.1-.4-.4-.4 0-1.8.5-2.1-.4.4.2.3 0 .7 0L35 8a1.3 1.3 0 01.8 0c0 .2 0 .5-.2.7.5-.6 1-.5 1.4-.6.4.6.8.5 1.4.8-.3.4-1.3.1-2 0zm1.6 4.7c0-.7-.6 0-1-.2.3-.9 1.3-.5 1 .2zm1.5.6c-.2.3-.5.5-.7.3.1-.1.2-.2 0-.3-.3.2 0 .3-.4.5-.4-.3.3-.6.4-1 .3 0 0 .6.3.4.2-.3 0-.4.2-.7 0 .2.2.3.3.4-.1.1-.3.3 0 .4zm-.2-3.7c.2-.1 0-.2 0-.4.5.4 1-.2 1.6.2-.5-.1-1 .6-1.6.2zm.8 5.4a1 1 0 011.2 0 .8.8 0 01-1.2 0zm2-3.7c-.1-.3-.4.1-.6-.2l.4-.4.3.6zm.5-4.2c-.4.5-.8-.1-1.2.2a.8.8 0 00-.9-.5c-.2.1.2.3 0 .4-.7-.4-.2-.8.2-1.6.2.2 0 .3 0 .5.2-.2.3.1.5 0a.6.6 0 01-.3-.4c.4-.3.6 0 .5-.5.3 0 .5 0 .7.3-.1.2-.4 0-.3.3a2.6 2.6 0 011 0c-.5.4 0 .2.1.4-.2.4-.4-.1-.7.2.3.4.7.2 1 .5 0 .1.4.7-.2.6.2-.4-.3-.1-.4-.4zm.4 4.3c.4-.4.7-.2 1-.1a2 2 0 01-1 .1zm1.9 3.8c.3-.4.6 0 1-.4a.6.6 0 01.2.5c-.4 0-.8.3-1.2 0zm.9-2.5c.3-.4 1 0 1 .2-.3 0-.7.1-1-.2zm.6-2c-.2-.2-.3 0-.4-.2 0-.4.7-.8 1.2-.6zm0-1.5c-.7.6-.6 1.6-1.4 1.3.6-.3 1.3-1.4.4-1.7 0-.3.3-.2.6-.4.1.5.7.2 1.1.3-.4.6.4 0 .6.5-.5.3-.8-.1-1.3 0zm5.7 6.1c.2-.3.4-.1.7-.5.5.4-.4.8-.7.5zm1.8-8c.5.5 1-.2 1.4.3 0 .4-1.7.3-1.4-.3zm2.6.8c-.2-.2-.4 0-.5-.3a2.2 2.2 0 00.7-.6c.3.4.6.2.9.5-.4.3-.7-.2-1 .4zm1.5 6.7c.2-.3.4-.2.6 0-.2.3-.4.2-.6 0zm1.8-7.1c.3-.3.7-.2 1-.1-.4.3-.7.4-1 0zm.6 7.9c.2-.3-.3 0-.2-.4.5-.4 1.4-.2 1.4.3-.4-.5-.8 0-1.2 0zm4-7.8c-.3-.2-.5.2-.8-.1.3-.3 1-.1.8.1zm-1-.6c.4.2.2.8-.1.6.2-.2-.3-.3 0-.6zm-.6 3.6c.3-.3.5-.2.7 0-.3.3-.5.3-.7 0zm.3-1.3c-.1.2 0 .4-.3.1a.9.9 0 01.4-.5c.5.3 1-.2 1.5 0-.3.6-1 .4-1.6.5zm3.2.5c-.2-.3-.3-.5-.7 0a.6.6 0 01-.3-.5c.3-.3.6-.2.8-.4.3.4.5.3.8.4-.5.1-.3.2-.6.5zm1.9-1.7a.8.8 0 01.5.3c-.3.4-.8 0-.5-.3zm6.9 0c-.5.3-.4-.2-.8-.4.3-.4.8 0 .8.3zM72 9s-.3 0-.2-.3c.6-.2.8.2 1.2.5-.1.1 0 .3-.3.4-.4-.2-.1-.4-.3-.6-.5.4-.7.4-.8.9-.3 0-.2-.3-.3-.5.2-.3.5-.3.7-.4zm-.8.7c-.2.4-.5.1-.7.2a.4.4 0 01.7-.2zm-2.1 0a.8.8 0 01.8-.3c-.2 0-.6.6-.8.3zm.4 7a1.7 1.7 0 011.4-.4 1.7 1.7 0 01-1.4.3zm2.4-5.4a.7.7 0 01-.2-.4c-.4.5-1.2.3-1.2-.2.4.4.8-.3 1.2.2.3-.4.6-.4 1 0-.5.4-.6-.1-.8.4zm0-1.1c.1-.9 1.3-.5 1.9-.3a2.7 2.7 0 01-2 .3zm2.2.1c0-.1-.2-.2-.1-.4.2.3.5-.5.6 0l-.4.4zm.4.7c.6-.6 1.3.2 1 .8-.3-.4-.2-.5-1-.8zm.8 6.6c-.2-.2-.3-.4-.2-.6.4.2.9-.4 1.3.1-.4.4-.7.2-1.1.5zM94 19c.4.2-.2.8-.4.5.2-.1 0-.3.4-.5zm-56.7 2.5c-.2-.3.4-.6.5-.4 0 .1-.3.8-.5.4zm-23.4 8c-.3-.6-.6.3-.9-.3.4-.5 1.2-.4 1.2 0-.2-.2-.1 0-.3.2zm12.8 1.1c.4-.5.7 0 .7 0-.2 0-.5.3-.7 0zM38 27c.3-.3 1-.5 1 0-.4 0-.7.3-1 0zm1.4 5.8c.3-.3.6-.1 1 0 0 .3-.7.4-1 0zm7.8-11.5c-.3 0-1 .1-1-.2.2 0 1-.2 1 .2zm-8.5 0l.3.3c-.2.3-.4.4-.5.2.4-.2-.3-.3.2-.5zm-.3 2.1c-.2-.4.5-.4.2-.7a.7.7 0 01.6-.2c-.5.3-.2 1.2-.8 1zm2.8-.3c-.5.2-1.5.6-1.6.2 0 0 .6 0 .4-.2a1 1 0 01-1-.1c.3-.4.6-.2.8.1.3-.3.9-.2.9-.7.6.4 1.4-.5 1.7.3 0-.5.7-.5 1-.3-.9.2-.7.8-1.6 1.2-.4-.7-.4.2-.6-.5zm.8 9.4c.3.2.7-.2 1 .3-.2.2-1 0-1-.3zm4-8.7c-.3 0-.4 0-.4-.3-.7.5-1.4-.2-2 .3-.3-.2 0-.7-.5-.2-.3-.3-.3-1 .2-.7 0 .1-.2.2 0 .3.1-1 1.2-.7 1.9-1l.4.4c.4 0 .8-.6 1.2-.2-.2.6-1.1.7-1.6.6.1.1 0 .1-.2.2.3 0 .6.3 1 .3.4-.5 1-1 1.4-.5-.8 0-.6.4-.9.6 0-.4-.4-.1-.6.2zm.8 9.4c.3-.3.7 0 1 0-.4.4-.7.2-1 0zM48.6 23c-.2-.3-.5-.3-.7 0l-.3-.2c.5-.3 1-.2 1.4-.1l-.4.3zm1 0c.4-.3.7 0 1 0-.3.3-.6.3-1 0zm.2 10.1c0-.3.6-.4.9-.3 0 .5-.6.4-.9.3zm2.8-10c-.4-.4-.8-.2-1.1 0a.7.7 0 01-.3 1 2 2 0 01-.8-.5c.3-.3.6 0 .9-.5-.2-.3-1-.1-1-.5a.4.4 0 00.5 0c.2 0 .3.2.5.3.6-.4.8 0 1.5-.4-.2.2.1.4-.2.6zm1.2-.2c-.4-.1-.4.4-.8.2.2-.4 1-.6.8-.2zM55.7 33c.2 0 .5-.3.8 0-.2.7-1.2 0-.8 0zm.2-10.2a3.8 3.8 0 011.3.1c-.4.4-1.5.6-1.3-.1zm1.4.2a2.8 2.8 0 01.9-.3.6.6 0 01-.9.3zm1-2.4c.4-.3 1.1-.4 1 0-.3-.3-.6.4-1 0zm.9 2.7c-.2-.2-.4.1-.6-.2l.3-.2c.3.2.5 0 .3.4zm-.2-.7c.2-.1.4-.4.5-.3v.2a.4.4 0 01.5-.1.8.8 0 01-1 .2zm.7 11c.2-.7 1-.3 1.5-.1-.5.2-1-.2-1.5 0zm3.9-13a2.3 2.3 0 012 0 9 9 0 01-2 0zm2.7 3.1c.2-.2 0-.3.4-.3.4.2-.2.7-.4.3zm3.5-2.7c-.3 0-.3-.6-.8-.5.3-.4.5 0 .8-.3.3.2.5.5 0 .8zm7-.8a1 1 0 011.1 0 1 1 0 01-1.1 0zm2.3 3.6l-.1-.1h-.2a.8.8 0 011-.5c-.2.4-.6.2-.7.6zm23.1-14c-.3.1-1 .3-.6-.2.1.4.8-.3.6.2zm0-6.6a.9.9 0 01-.4.6c-.3-.5-.5 0-.8-.4l.2-.2c.3.4.5 0 1 0zM100 2c.5.1 1-.3 1.5.2-.5 0-.4.6-.8.7-.5-.2 0-.8-.4-.7-.1.2.1.4-.3.6-.2-.3 0-.5 0-.8zm.9 1.2a.7.7 0 01-1 .2c.3 0 .7-.4 1-.2zm-.3 5.7a1.4 1.4 0 01-1 .3c.3-.1-.7 0-.3-.5a9 9 0 001.3.2zm-.9-2.6l-1.1.1c0-.2 1.1-.6 1.2-.1zM99.1 3c-.2.1.2.3 0 .4-.2-.2-.5.2-.7-.2.2-.2.5-.4.7-.2zm-2.2-.1c.5.2 1 0 1.4.2a5 5 0 01-1.7 0zm.4 7.1a.7.7 0 00.4.3l-.2.1c0 .1.1.2 0 .2-.5-.4-.1.4-.4.6-.2-.2-.4 0-.6-.3l.8-.9zm-.9-7a.6.6 0 00-.2.3c-.2-.1-1 0-.8-.4.3.2.7-.3 1 0zM96 4c0 .3-.5.7-.7.5.2-.1.5-.6.7-.5zm-3.4-1.4c.5.4 1-.5 1.2-.5.4.4-.2.4-.4.9-.2-.4-.4 0-.6.2-.2-.2-.3-.4-.2-.6zm-2 5.6c.3 0 .6-.2.9 0-.2.1-1 .4-.8 0zm-.8-2.7c-.2.2-.4.3-.6 0 .2-.2.4-.3.6 0zM88.1 8c.3.1.6 0 .8 0-.2.3-1 .5-.8 0zm-1-.2c-.1 0-.3.2-.5-.2.2-.4.7 0 .6.2zM82.6 5c.3-.1.6-.6 1-.3-.4.2-.7.6-1 .3zm1-.2a2.5 2.5 0 011.4.1c-.5.2-1.3.4-1.5 0zm1.5 3l-.4.4-.3-.3c.3-.3.5-.1.7 0zm-.5.8c-.1.3.1.5.1.8-.2.2-.4 0-.6-.1.2-.2.2-.8.5-.7zm-.6 1c.2.3 1-.2 1 .2-.3 0-1.3.5-1-.3zm.7-.4c0-.2 0-.4.3-.6.5.2 0 .8-.3.6zM85 5a.6.6 0 01.8-.2.5.5 0 01-.8.2zm1.8 3.4c.4.5.8 0 1.3.3-.3.4 0 .7-.5.8-.5-.2-.1-.5-.2-.7-.3.1-.6 0-.9.3-.3-.3 0-.5.3-.7zm-.1 1.2c.5-.4.4.3 1 .4-.4.1-1 0-1-.4zm.8.8c.2.2.4-.3.4-.3l.4.3c-.2.3-1 .4-.8 0zm2.4 1.8l-.3-.3c.2-.2.5-.3.7 0-.2 0-.3.1-.4.3zM93 9.7a.4.4 0 01.5 0c-.7.5-1-.6-1.4-.7l-.5.4a2.4 2.4 0 00-2.1-.3 1.4 1.4 0 01-.7 1c0-.7-.3.2-.7-.2a5.5 5.5 0 001.5-1.4c.6.8 1.7 0 2.5-.2-.1.2-.7.4-.5.6.4-.3.7-.2 1.1-.5-.1 0-.4 0-.3-.2.4.3 1.2-.3 1.3.2-.5-.2-1.2.5-.8 1 0-.7 1.3-.4 1.3 0-.4-.1-1.4-.4-1.2.3zm.5-1c0-.1.4-.4.6-.4-.1.3.5.1.6.4-.4.3-.8.1-1.2 0zM95 3.3c-.3-.2-1 0-1-.5.4-.2.8-.7 1.4-.4-.2.3-.4 0-.7.4.3.2.5.1.3.5zm.2 6.5c.2-.1-.2-.3 0-.5h.8c-.3.3-.4.7-.8.5zm-.1-1c.5-.3.7 0 1-.3.1.2.4.3.3.5-.4-.2-1 .3-1.3-.2zm4 10.2c.3.2.6.1.3.5-.4 0-.2-.4-.6-.7-.4.5-.8-.2-1.2.3.2 0 .5 0 .7.4-.2.2-.4 0-.6.3-.3-.1.1-.7-.3-.5-.3.2.2.4-.2.6a.6.6 0 01-.5-.2c0-.2.4-.5.3-.8l-.6-.2a10.3 10.3 0 014 .1c-.5.7-.8-.3-1.2.2zm1.2-8.8c-.6 0-.7-.4-1 .2-.3 0-.4-.3-.3-.6a1.6 1.6 0 01-2.2-.4 2.5 2.5 0 002.3-.2c-.1.3 0 .5.2.7 0-.3 0-.4.5-.4.2.1 0 .3 0 .4.3-.4.3-.1.6-.1-.2-.4.4-.5.6-.2 0 .3-.4.2-.7.6zm.6 9.5c-.5-.2.2-.9.5-.6-.1.4-.6 0-.5.6zm.7 0l-.3-.2c.4-.3.8-.8 1.1-.5 0 .4-.5.3-.8.7zm1.6-9.2c0-.8-.4-.2-.9-.6.4-.3.7-.3.5-1 .6 1 1.8.2 2.7.6a9.3 9.3 0 01-2.3.4c.1.2.3.4 0 .6zm4-.5a.7.7 0 00-.3.4l-.1-.2c.2-.4-.1-.6-.6-.7.6-.4.7 0 1 .5zm-1.1.7c.4.4 1 0 1.5.3a1.6 1.6 0 01-1.8 0l.3-.3zm-.5 1.4c.4.2 1.3-.3 1.3.4-.4 0-1.2 0-1.3-.4zm1.1 7.5c.3-.4.5-.7 0-.8a.7.7 0 011 .2c-.4.3-.4 1-1 .6zm1.2-9.9c.5.4 1-.4 1.5 0-.4 0-1.7.8-1.5 0zm3.6-6c.2.2.5-.3.7.2-.2.2-.9.1-.7-.2zm0 7.6c0-.2.4-.4.7-.1a.8.8 0 01-.8.1zm-1.1-1.6c.6.5 1.7 0 2 .5-.6-.2-2.1.5-2-.5zm1-5.3c.3 0 .7-.4 1-.2-.4.5-.7.2-1 .2zm3.8 6.4c.5.4.6-.7 1.2-.3-.5.3-.3.2-.5.6-.3 0-1 .1-.7-.3zm-2.7-6.3c.7-.4.2-2 1-1.5 0 .1-.4.4-.3.8.3-.2.5 0 .7.3-.5.2-1 .7-1.4.4zm1.2.9c-.2.3-.4.3-.6 0 .3 0 0-.7.5-.5-.2.1.2.3.1.5zm-.9 14.2c.6-.3.6-.4.6-.9.2.3.4.3.6 0 .3.6-.7 1.2-1.2 1zm1.5-15.2c.2-.2.4-.3.6 0-.2.2-.4.3-.6 0zm.5 8.2c0-.3.5-.3.7-.1a.6.6 0 01-.7.1zm-.3-1c.3-.1.1-.3.5-.5.5.8 1 .2 1.5.5-.3.5-1.3 0-2 0zm3-.4c0-.3.6-.7.9-.2a.7.7 0 01-.9.2zm3.6 1.3c.3.1.5-.3.7 0-.2.4-.8.3-.7 0zm2-1.2c-.5-.3-.8-.3-1 .3-.4-.2 0-.4-.1-.6l-.5.5c-.5-.5 0-.8-.7-1 .4 0 1.3-.1 1.4.4.3-.3 1 .2 1-.4.2 0 .3.2.4.3-.3.3-.5.1-.5.4zm0 .4c.2-.2 0-.3.2-.4.6-.1.4.6.9-.1.5.5-.7.9-1 .5zm1.8-.1c-.2-.2-.3.1-.5-.1.4-.6.6-.3.8-1 .5.4 0 .7-.3 1zm1.7 1.1a.6.6 0 01.9 0c-.3.1-.6.3-.9 0zm8.5-9.9a2.3 2.3 0 01-1.4.2c.5-.2 1-.5 1.4-.2zM133 4.1a.8.8 0 01-1 0c.4-.5.7-.2 1 0zm-1 7.6c.4.2.4-.4.9-.4.5.5-1 1.1-.9.4zm4.6-7.9c-.5-.3-2.6 1.3-2.1 0-.4 0-1.3.3-1.3-.3.2-.3 1.3-.4 1.5 0 .3-.6.5 0 .8.1-.3-.5.2-.8.4-1 .4.4-.6.7-.2 1.1l.3-.4c.2 0 .8.3.6.5zm.7-1c-.5-.2-.7-.1-.9.3-.2-.5.3-.5.6-.7.2.1.4.3.3.5zm.8-1.3c.3.1.3.3.2.5-.1 0-.2-.3-.4-.2 0 0-.2.2-.3 0 .2 0 .4-.2.5-.3zm.7 2c.2.3.4-.2.6.2-.2.2-1 0-.6-.3zm4.2.5a6.2 6.2 0 01-1.5-.2l.7-.4c0 .2.4.2.5.3v-.5c.6 0 .7.4.3.8zm1.6 0c.1 0 .1-.1 0-.2a.6.6 0 011 .1.6.6 0 01-1 0zm3.5-.6c.1.2.3.1.5.3-.3.1-.7.2-.7.6a3.6 3.6 0 01-.4-1.3c.4.2 1.4 0 1.5.4-.3-.2-.6 0-.9 0zm2.2-.3v.2c.2 0 .3-.2.5 0a2.3 2.3 0 01-1.6 0c.6-.1.7-.3 1.1-.3zm-.6 1.6a.7.7 0 00-.3-.2c.2-.3-.4-.6.1-1a.9.9 0 01.2 1.2zm.3-.5c.3-.2 0-.5.4-.7.3.2.7 0 1.1.2v.5a1.6 1.6 0 01-1.5 0zm2.5-.6c-.2-.1-.3-.3-.4-.2 0 .1 0 .2-.2.3l-.3-.2c.5-.4.4-.3.6-.7.2.1 0 .3.3.4V3c.5.2.2.4 0 .6zm1 .5c.3-.2.6 0 1 0-.4.4-1 .5-1 0zm2.2-.6c0 .1.2.2 0 .3a.6.6 0 01-.1-.3c.3-.1.6-.3.9-.1-.3.4-.6 0-.8.1zm1.1.5c.3-.3 1-.3 1 .2-.4-.2-.7 0-1-.3zm1.2.8l-.5-.1c.2-.1 0-.2 0-.4h.3c.3.1.4.3.2.5zm.2-.2c.5-.3 1 0 1.5 0a1.3 1.3 0 01-1.5 0zm.6-.6c.4-.4.9-.7 1.3-.4-.3.6-.9.5-1.3.3zm2.6 1.3c.5 0 1-.2 1-.5 0 .2 0 .3.2.5-.4.3-.8.5-1.2 0zM50.2 38.6a.7.7 0 011 0c0 .3-.7.3-1 0zm9.9.5c.2-.1.5-.7.7-.3 0 .3-.6.7-.7.3zm4.3-3.1a.6.6 0 01.8-.2c-.3.2-.6.4-.8.2zm4.2.2c0-.3.4-.5.6 0-.2 0-.4.3-.6 0zm3.7.8a2.5 2.5 0 00-1.5-.8 2.4 2.4 0 011.7-.7c0 .2-.5.4-.1.6.5-.2.2-.5.5-.8.1.2.3.1.4.3-.3.7-.7.8-1 1.4zm2.9-.7a2 2 0 01-1.6 0c.3-.5.3-.2.6-.8.1.1.3.3.4.2.2 0 0-.2 0-.3.4.1.8-.3 1 .2-.2.5-.9.1-.4.7zm3-.3c.2-.4.5-.4.7 0-.3.3-.5 0-.8 0zm4.3.3c.4-.3 1.1-.5 1.2 0a1.2 1.2 0 01-1.2 0zm9-.6c.2.2.5 0 .5.3-.3.4-.8 0-.5-.3zm31.5.3a.6.6 0 00-.4-.2.7.7 0 01.6-.5c.3.2 0 .4-.2.7zm5.4-.7c.3-.2 1-.4 1 0-.4-.1-.7.4-1 0zm26.3-.7c-.2-.2-.5 3.2-.5 3.5a25.9 25.9 0 01-.3-3.6c.2-.2 1-.3.8.1zm1.8 3.8c-.3-.3-.2-3.7-.2-4-.3.4-.9.5-.9 0 .5-.1 1.6-.4 1.7.3-.7-.3-.3 3.5-.6 3.7zm1.9-4c-.3 0-.6.2-.8 0 0-.5 1.1-.4.8 0zm6.3-1c.4.2 1.3-.6 1.4.1-.4 0-1.3.5-1.4-.2zm3-29.5c.1.1 0-.2.2-.1-.2.2.3 0 .4.4-.2.2-.8 0-.7-.3zm1.4 30c-.2-.4-.4-.2-.6-.4.3-.2.6-.4 1 0-.2 0-.1.2-.4.3zm2 .3l-.4-.4c.4-.4.9.2.4.4zm4.6-.4c.2-.3 0-.5-.3-.3a.6.6 0 010 .5c-.2-.2-.4.1-.6-.2.5-.2 0-.5.5-.8.3.2.5 0 .7.3-.2.1 0 .7-.3.5zm1.2 0c-.2-.3-.1-1 .3-.6-.1.1 0 .4-.3.6zm.5-.1c.2-.3.5-.3.7 0-.3.2-.5.3-.7 0zm2.6.2c-.3-.2-.6 0-.9-.1.6-.5-.2-.4 0-.7.5.4 1-.1 1.4 0-.4.3-.7.6-.5.8zm-.1-29.6c.2 0 .5-.2.7.2-.2.3-.9.2-.7-.2zm22.5 1.4c-.1-.3-.8-.3-.6-.6.3.4 1 .1.6.6zm4.2.4l-.3-.3c.6-.2.5-.1.7-.6.3.2.5 0 .8.4a1.7 1.7 0 01-1.2.5zm3.5-.2c-.3-.4-1 .3-.8-.5.2.2 1 0 .8.5zm9.5.5c-.3-.2 0-.3-.1-.5.3-.3.6-.1.8 0 0 .3-.4.1-.7.5zm1.9 0c-.5-.3-.4.3-.8 0-.1-.2.9-.7.8 0zm9.8-.1a.8.8 0 011 0c-.4.3-.7-.1-1 0zm14 32.8c-.2-.1-.3-.3-.4-.2-.2.2 0 .8-.4.6V39c.4 0 .4-.8.9-.8 0 .4.3.7-.1 1zm.9.1c-.3-.4-.2-.4-.6-.5 0-.2.2-.9.7-.6-1 .6.9.3-.1 1.1zm.9-.2l.6-.8c.2.3 0 .6.1 1-.2-.3-.5.2-.7-.2zm1-.3l-.1-.4c.2-.1.4-.1.5.1 0 .2-.2.4-.4.3zm.2-32.2c.3-.5 1.1-.5 1 0-.3-.3-.7.2-1 0zm1.2-.3a1 1 0 011.4.3c-.5 0-1 0-1.4-.3zm1.7.2l-.3-.3c.2-.3.5 0 .7 0zm16.6.3c.4-.4.7-.3 1.1-.4a1 1 0 01-1.1.4zm7.7-1.3c.6.1.8-.5.2-1a.7.7 0 01.5-.2c.5.5-.4.8.3 1.3-.4 0-.7.4-1 0zm5.8 19.2a14.6 14.6 0 00-1.8.3c0-.1-.3-.2-.2-.4a6.9 6.9 0 012.3-.8c.3.3 0 .6-.3.9zm3 0a8 8 0 01-2 0l1.8-.6c.2.2.3.4.2.5zm9.7.1c.3.3 0 .5 0 .7-.2-.1-.5 0-.7-.3.3-.2.5 0 .7-.4zm-9 0a37 37 0 01-.3-.5c.6 0 1.3-1.2 2.3-.7-.8.4-1.5.5-2 1.1zM287 8c-.1-.3-.4.2-.6-.2.2-.3.8-.1.7.2zm1.3.5c.5 0 1-.5 1.4 0-.5.1-1 .3-1.4 0zm3.2-1.4c.2.3.3.3.4 0 .4.4-.5.6-.6.3a.5.5 0 00.2-.3zm.1 1.8c-.3.1-.5.3-.8-.1a.5.5 0 01.8 0zm-.7 8.7c-.3 0-.4-.4-.4-.6.3.1.5-.5.6-.6.4.2 0 .3.2.5l.3.1c-.5 0-1 0-.7.6zm1.2 0a.4.4 0 01-.7.2c.4-.2.3-.6.7-.1zm1.7-8.7c-.6-.7-1.4.4-2 0-.3-.4.4-.2.2-.5-.3.2-.8.1-.8-.2a1.9 1.9 0 001.1-.7c.2.4.5.2.7 0a2.7 2.7 0 01.5 1c.5-.3.2-.7.1-1.1a.9.9 0 01.2 1.5zm13.7 4.3c0-.2.5-.7.8-.4 0 .3-.5.4-.8.4z"/>
    <path d="M33.5 38.5c-.3.7-1.3 0-1.9.4 1.3.2 2.4 0 3.4 0 .3-.3-.3 0-.3-.3a.8.8 0 01-1.2-.1zM52.5 7.4zM272.2 33.5zM265.4 36.4zM39 38.7H39h.1zM38.4 38.8l.5-.1c-.1 0-.4-.2-.5 0zM85.4 2.4c-.2.2.2 0 0 .3 1.1-.9 2.1-.2 3.2-.7A5.9 5.9 0 0086 2l.1.3c-.2 0-.5.3-.7.2zM20 37c.2.2.6-.2.9-.3-.3 0-.6-.1-1 .3zM37.3 34.1a.5.5 0 00.1.3c.3-.3 0-.3-.3-.5-.3.2-.2.3-.3.5l.5-.3zM23.5 21.6c-.4 0 .6 0 .5.5.2-.3 0-.5.1-.7-.4-.2-.2.4-.6.2zM29.9 26.8c.2-.2-.4-.1-.5-.2-.2.2-.2.3 0 .5 0-.2.2-.3.5-.3zM28.3 24a1 1 0 00-.4.6c.2.1.4-.3.6 0v-.1c-.1-.2 0-.3-.2-.5zM41.5 36.4c.3.4.2-.2.4-.4.3-.2 0 .3.4.4a1.2 1.2 0 011.5-.3l.2-.5a2.4 2.4 0 01-2 .2c-.2.4-.5.3-.5.6zM27.6 22.4a8.2 8.2 0 003-.7c-.1-.2-.4 0-.2-.3-.5-.1-.3.2-.7.3 0-.4-1.4 0-1-.3-.3-.4-1 .5-1.1 1zM46.4 39.1c.2.4 1.3.3 2 0h-2zM15.8 8.5c.1-.2-.1 0-.3-.3 0 .4-.3.2-.6.6.7.1.6-.2 1-.3zM30 22.3c.4-.2.7 0 1-.4-.2-.4-.6.3-1 .4zM46 34.8c.1-.3-.5.1-.6-.3-.3.1 0 .3-.1.4.2.2.4 0 .6-.1zM25.6 11.7c-.4 0-.8-.2-1.2.3.4.1.5 0 .7.4L25 12c.2-.2.4 0 .6-.4zM36.3 17.1a5 5 0 01.5-.7c-.5.3-1.3.3-1.4.6.5-.3.4.2 1 .1zM55.7 35.9a.8.8 0 01.8-.2c.2-.3-.4-.2-.5-.3-.1-.3.5-.2.4-.5-.2-.3-.4.3-.6-.1 0 .4-.5.6 0 1zM59 35.9c.3-.4-.2-.3 0-.5a5 5 0 00-1.3.3c.4.3 1-.4 1.3.2z"/>
    <path d="M60.1 34.8a.4.4 0 00-.4.4c-.2-.1 0-.3-.2-.4a1.9 1.9 0 01-1.7 0c.1.7 1 0 1.4.7.4-.5.7-.2 1 .1.5-.1.5-.3 1-.6-.1 0-.3 0-.5-.2-.3.2 0 .3-.1.5h-.3c-.1-.1.2-.3-.2-.5zM35 2.3c.2 0 .3.2.2.3.2 0 .3-.2.5-.3a3.3 3.3 0 00-.8-.1s0 .1.1 0zM44 4.2c-.2.2 1.2.6 1.7 0-.1 0-.7.4-.5 0-.4-.3-.8.4-1.2 0zM48.8 5.3c.4.2.5.8 1 .3 0-.7-1 0-.8-.8-.4.2.2.3-.2.5zM66.7 18c-.2.4.4.2.5.3.2-.2.1-.4.3-.3.1 0 0-.1 0-.2l-.2-.1c.1 0-.5.6-.3.2-.1 0 0 .3-.3.1zM59.8 5.6c0 .2-.1.3-.4.2 0 .3.8.2 1.2.3-.2.5.6.9.9 1a5.4 5.4 0 00-.4-1.5c-.2 1-.6 0-1.3 0zM62.5 7.4c0 .3 1 .1 1.5.3.3-.4-.7-.2-.4-.5-.1 0-.7.4-1.1.2zM62.4 6a.5.5 0 01-.8 0c-.4.2 0 .3.2.1a.3.3 0 010 .5h.5c-.1 0-.2-.7.3-.2.1-.2-.1-.3-.2-.5zM65.6 6.8c.3 0 .4-.2.8-.5H66c-.3.1.1.3-.3.5zM70.6 3.3L71 3c-.1-.2-.3-.5.2-.4.3-.2-.2 0-.3-.3 0 .3-.1 0-.4.3.3.2-.2.5.2.7zM77.8 8.3h-.3c-.3 0 0 .3 0 .2.1.1 0 .3-.2.5.4.1.8-.5.5-.7zM88.9 19.1c-.3-.4-.7 0-1-.2 0 .2.1.3 0 .4h.1c.3-.4.5.4.9-.2zM82.5 1.5c-.1 0-1.4-.5-1.5 0a1 1 0 00-1.2-.2c.4.5.9.3 1.3.7.2-.6.9-.3 1.4-.5zM82.8 1.4c-.1.1.1.3.2.4-.3.2-.5-.1-.8.3.5 0 1-.4 1.5 0 .1-1 1.5.2 2.2-.3 0-.2-.2-.3-.1-.5-.4.1-.9.6-1.2 0-.7.3-1.2 0-1.8 0zM84 .5c-1 0-2.2.4-2.8-.4.1.9 2.3.8 2.7.4zM88.3 1a5 5 0 001.1.1c0-.3-.8-.2-1.1-.1zM94 .8c.1.4-.1.5-.6.5a5.9 5.9 0 002.9.2c-.4-.5-.8.1-1-.5 0 .7-.7 0-1 .4-.4-.3.2-.7-.3-.6zM94.4.6c.2-.4-.4-.1-.5-.5-.3.4-.2.5-.7.3 0 .5.8 0 1.2.2zM98.5 1.8c-.3-1-1.4-.4-2-.3a3.8 3.8 0 002 .3zM106.7 2.3a3 3 0 001 0l-.2-.4c-.3.5-.5 0-.8.4zM112.6 1.3c.2-.3-.3-.2-.4-.3l-.6.5c.4.2.5-.5 1-.2zM118.7 1.9a.6.6 0 01.2-.4c-.4-.4-.9 0-1.3 0 .2.8.6-.5 1 .4zM126.7 1.4c.2.2 0 .4 0 .6.2 0 .6-.3.9 0 .4-.8.9-.2 1.4-.3.4-.2-.2-.4.2-.6-.5.3-1-.1-1.6.3-.2-.2 0-.3-.3-.5 0 .3-.4.4-.6.4-.3 0-.1.3 0 .1zM143.6 2l-.3-.4c-.4.6-.8-.1-1.2.4.5.4 1-.4 1.5 0zM153.3 2c-.4-.2-.8 0-1.2-.2 0 .3 1.2.4 1.2.1zM161.5 3.5c.1.1-.6.1 0 .5a3.3 3.3 0 00.2-.7.8.8 0 00-.8.1c.2.3.4 0 .6 0zM199 4.1c.1 0 0 0 0-.2s-.1 0-.2-.1c-.2.2-.5-.1-.7-.1-.1.5.7.2.9.4zM230.4 40.8a8.7 8.7 0 011.6.3c.2-.5 1-.2 1.4-.2l.1-.2v-.2c-1 .3-2 0-3.1.3zM253.5 3.8c.5-.2 0-.5.4-.7l-.3-.1-.2.1c.5.3-.4.4.1.7zM257.7 4.7c.6.6 0-.7.5-.3.2-.3-.4-.4-.5-.1.2.2.2.3 0 .4z"/>
  </g>
</svg>
