<?xml version="1.0" encoding="UTF-8"?>
<svg viewBox="0 0 338 102" xmlns="http://www.w3.org/2000/svg" xmlns:xlink="http://www.w3.org/1999/xlink" preserveAspectRatio="none">
    <g id="iPad-1" transform="translate(-343.000000, -488.000000)" fill="#D41568">
        <path d="M344.312303,494.383022 C373.5739,494.778927 363.546844,494.78254 394.171043,493.444489 C402.854588,493.065083 516.934262,487.518391 638.046798,488.410378 C647.031002,488.476546 659.833469,487.472105 668.629191,488.152071 C671.422922,488.368045 668.342197,489.995024 668.363604,491.098744 C668.468201,496.491422 672.037333,501.808309 672.480785,507.198401 C673.11127,514.861842 670.531208,522.541204 671.580347,530.197755 C672.827347,539.298274 677.476768,548.28707 679.35573,557.371282 C681.113753,565.870796 681.74999,574.400811 682.485898,582.922806 C682.510214,583.204387 682.356073,583.69046 681.629331,583.700141 C651.411384,584.102675 621.084552,583.288915 590.929108,584.142434 C572.0972,584.675452 553.889102,587.138574 535.095904,587.84762 C521.808286,588.348946 508.382257,587.528803 495.045132,587.760025 C474.618603,588.114154 454.327866,589.382221 433.888784,589.602219 C406.007781,589.902318 383.280143,594.040464 356.952387,590.47262 C348.161188,589.281268 352.077115,582.126561 352.097319,578.518131 C352.111842,575.924422 350.386627,573.361085 350.320574,570.767495 C349.717081,547.07132 342.227899,523.45281 341.710978,499.849732 L344.312303,494.383022 Z" id="Path-7-Copy-3" transform="translate(512.099624, 539.914801) scale(-1, 1) rotate(2.000000) translate(-512.099624, -539.914801) "></path>
    </g>
</svg>