<svg id="assets" viewBox="0 0 0 0" xmlns="http://www.w3.org/2000/svg" xmlns:xlink="http://www.w3.org/1999/xlink">
<defs>
<symbol id="placeholder" viewBox="0 0 100 100" preserveAspectRatio="none" stroke="rgba(255,255,255,0.3)">
<line x1="0" y1="0" x2="100" y2="100" stroke-width="1"></line>
<line x1="0" y1="100" x2="100" y2="0" stroke-width="1"></line>
</symbol>
<symbol id="logo" viewBox="0 0 662.1 165.4">
<title>University of Stirling</title>
<a xlink:href="https://www.stir.ac.uk/">
<rect x="0" y="0" width="662.1" height="165.4" fill="transparent" />
<g>
<!-- University -->
<path d="M7.7,11.5c3.9,0,4.2,0.2,4.2,1.8v28.3c0,3.7,0.4,5.9,2.1,7.2c1.5,1.2,3.8,1.8,7,1.8c3.1,0,5.2-0.6,6.6-1.8    c1.8-1.5,2.3-3.7,2.3-7.2V13.3c0-1.6,0.2-1.8,4.1-1.8s4.1,0.2,4.1,1.8v28.9c0,4.4-0.9,7.8-3.7,10.5c-3,2.8-7.3,4.1-13.3,4.1    c-6.2,0-10.8-1.3-13.7-4c-3-2.8-4-6.4-4-10.6v-24c0-4.8-2.5-4.1-2.5-5.6c0-1,1.1-1.2,5.1-1.2L7.7,11.5L7.7,11.5z" />
<path d="M81.2,41.5V18.2c0-4.8-2.5-4.1-2.5-5.6c0-1,1.1-1.2,5.1-1.2H85c4,0,5.1,0.2,5.1,1.2c0,1.5-2.5,0.8-2.5,5.6    v36.9c0,1-0.4,1.3-2.6,1.3h-0.4c-1.9,0-2.2-0.2-3-1.2l-21-26.7c-1-1.3-2.3-2.9-3-4h-0.1v25.2c0,4.8,2.5,4.1,2.5,5.6    c0,1-1.1,1.2-5.1,1.2h-1.2c-4,0-5.1-0.2-5.1-1.2c0-1.5,2.5-0.8,2.5-5.6V18.2c0-4.8-2.5-4.1-2.5-5.6c0-1,1.1-1.2,5.1-1.2h0.4    c3.5,0,4,0.7,6.1,3.3l17.9,22.8C79.1,38.8,80.4,40.4,81.2,41.5L81.2,41.5z" />
<path d="M110.4,49.7c0,4.8,2.5,4.1,2.5,5.6c0,1-1.1,1.2-5.1,1.2h-3.2c-4,0-5.1-0.2-5.1-1.2c0-1.5,2.5-0.8,2.5-5.6    V18.2c0-4.8-2.5-4.1-2.5-5.6c0-1,1.1-1.2,5.1-1.2h3.2c4,0,5.1,0.2,5.1,1.2c0,1.5-2.5,0.8-2.5,5.6L110.4,49.7L110.4,49.7z" />
<path d="M153.1,19c0.4-1,0.7-1.9,0.7-2.6c0-0.9-0.4-1.6-1.2-2.4c-0.6-0.5-0.8-0.8-0.8-1.2c0-1.1,1-1.2,6.3-1.2    c5.2,0,6.3,0.1,6.3,1.2c0,0.4-0.2,0.7-0.7,1.1c-1.9,1.5-2.9,2.9-3.7,5.1l-13.6,35.7c-0.6,1.6-1.3,1.8-2.4,1.8h-1.2    c-1.1,0-1.8-0.2-2.4-1.8l-14.9-36.8c-1-2.3-2.2-3.3-4-4.2c-0.6-0.3-0.7-0.7-0.7-1c0-1.1,2.3-1.2,5.9-1.2c4.8,0,5.9,0.6,7.4,4.5    l6.1,15.5c1.1,2.7,3.1,7.9,4.4,11.2h0.1c1.4-4.1,2.4-7,4-11.2L153.1,19z" />
<path d="M183,50.9c1.3-0.1,3.4-0.2,7-0.2h11.6c0.9,0,1.2,0.2,1.2,1.1v3.6c0,0.8-0.3,1.1-1.2,1.1h-24.5    c-4,0-5.1-0.2-5.1-1.2c0-1.5,2.5-0.8,2.5-5.6V18.2c0-4.8-2.5-4.1-2.5-5.6c0-1,1.1-1.2,5.1-1.2h23.8c0.9,0,1.2,0.2,1.2,1.1v3.6    c0,0.8-0.3,1.1-1.2,1.1H190c-3.6,0-5.7-0.1-7-0.2v13.3h14.7c0.9,0,1.2,0.2,1.2,1.1v3.4c0,0.8-0.3,1.1-1.2,1.1H183V50.9z" />
<path d="M234.9,37.4l9.7,12.8c1.4,1.9,2.6,2.9,4.6,4.2c0.4,0.3,0.6,0.5,0.6,0.9c0,1-2.3,1.1-6,1.1    c-4.2,0-5.1-0.6-7-3.2l-10.6-14.1H222v10.6c0,4.8,2.5,4.1,2.5,5.6c0,1-1.1,1.2-5.1,1.2h-3.2c-4,0-5.1-0.2-5.1-1.2    c0-1.5,2.5-0.8,2.5-5.6V18.2c0-4.8-2.5-4.1-2.5-5.6c0-1,1.1-1.2,5.1-1.2h5.9c6.8,0,11.5,0.7,14.5,2c4.2,1.9,7.6,5.3,7.6,11.4    C244.1,31.8,240.7,35.2,234.9,37.4z M224.4,16.8H222V34c10.1,0,13.3-3.3,13.3-8.9C235.3,18.5,230.8,16.8,224.4,16.8z" />
<path d="M256.3,22.2c0-6.3,5.9-11.1,15-11.1c4.4,0,9,1.2,11.7,3.6c1.1,1,1.5,2,1.5,3.6c0,2.1-1.2,4.2-2.9,4.2    c-1.1,0-2-0.9-3.1-1.9c-2.6-2.4-5.6-3.5-8.1-3.5c-3.2,0-5.6,1.5-5.6,4.2c0,8.8,21.5,7.9,21.5,22.4c0,3.7-1.3,6.8-3.7,9.1    c-2.9,2.9-7.7,4.2-12.4,4.2c-4.7,0-9.4-1.2-12.7-3.8c-1.3-1-1.7-2.2-1.7-3.7c0-2,1.2-4.2,3-4.2c2.6,0,4.6,5.7,11.9,5.7    c3.8,0,7.1-2,7.1-6.4C277.8,34.8,256.3,36.1,256.3,22.2z" />
<path d="M305,49.7c0,4.8,2.5,4.1,2.5,5.6c0,1-1.1,1.2-5.1,1.2h-3.2c-4,0-5.1-0.2-5.1-1.2c0-1.5,2.5-0.8,2.5-5.6V18.2    c0-4.8-2.5-4.1-2.5-5.6c0-1,1.1-1.2,5.1-1.2h3.2c4,0,5.1,0.2,5.1,1.2c0,1.5-2.5,0.8-2.5,5.6V49.7z" />
<path d="M350,11.5c0.9,0,1.2,0.2,1.2,1.1v3.6c0,0.8-0.3,1.1-1.2,1.1h-5.5c-3.6,0-5.7-0.1-7-0.2v32.6    c0,4.8,2.5,4.1,2.5,5.6c0,1-1.1,1.2-5.1,1.2h-3.2c-4,0-5.1-0.2-5.1-1.2c0-1.5,2.5-0.8,2.5-5.6V17.1c-1.3,0.1-3.4,0.2-7,0.2h-5.5    c-0.9,0-1.2-0.3-1.2-1.1v-3.6c0-0.9,0.3-1.1,1.2-1.1C316.6,11.5,350,11.5,350,11.5z" />
<path d="M399.6,12.7c0,0.4-0.2,0.7-0.7,1.1c-1.8,1.5-2.9,2.9-4,5.1l-11.8,23v7.8c0,4.8,2.5,4.1,2.5,5.6    c0,1-1.1,1.2-5.1,1.2h-3.2c-4,0-5.1-0.2-5.1-1.2c0-1.5,2.5-0.8,2.5-5.6v-7.9l-12.2-23.9c-1.1-2.2-2.3-3.3-4-4.2    c-0.6-0.3-0.7-0.7-0.7-1c0-1.1,2.2-1.2,5.9-1.2c4.8,0,5.9,0.8,7.7,4.5l3.5,7c1.8,3.5,3.7,7.5,5.4,11.1h0.1c1.5-3.2,3.4-7,5.6-11.1    l2.1-4.1c0.5-1,0.8-1.9,0.8-2.6c0-0.9-0.4-1.6-1.2-2.4c-0.6-0.5-0.8-0.8-0.8-1.2c0-1.1,1-1.2,6.4-1.2    C398.4,11.5,399.6,11.7,399.6,12.7z" />
</g>
<g>
<!-- of -->
<path d="M424.5,56.8c-2.1,0-4.2-0.3-6.1-1.2c-3.2-1.5-5.3-4-6.2-7.5c-0.7-2.5-0.7-5-0.3-7.6c0.4-3.1,1.5-6,3.3-8.6    c2.6-3.8,6.2-6.1,10.8-7c2.8-0.6,5.6-0.5,8.3,0.5c3.8,1.4,6.2,4.1,7.3,8c0.6,2.1,0.6,4.2,0.4,6.3c-0.3,2.9-1.1,5.7-2.5,8.3    c-3,5.1-7.4,8.1-13.3,8.7C425.6,56.8,425,56.8,424.5,56.8z M419.1,44.6c0.1,0.6,0.1,1.6,0.3,2.6c0.3,1.6,1,2.9,2.4,3.8    c2.1,1.4,5.4,1.1,7.4-0.5c1.6-1.3,2.7-2.8,3.5-4.6c1-2.1,1.5-4.3,1.7-6.6c0.2-1.7,0.2-3.4-0.2-5.1c-0.3-1.3-0.8-2.4-1.8-3.3    c-2.1-1.6-4.4-1.6-6.6-0.6c-1.9,0.9-3.2,2.4-4.2,4.3C419.8,37.5,419.2,40.7,419.1,44.6z M458,29.7c0.2,0,6.6,0,7.6,0    c0.8,0,1-0.2,1.2-1s0.3-1.6,0.4-2.3c0.2-1.1,0.1-1.3-1.1-1.3c-2.4,0-4.2,0-6.6,0c-0.1,0-0.7,0.1-0.9-0.3c-0.2-0.3-0.1-1,0-1.5    c0.9-5.3,1.2-6.7,3.2-7.4c2.7-0.8,5.8,1,6.6,1.2c0.6,0.2,1,0,1.2-0.6c0.3-0.7,0.5-1.6,0.7-2.3c0.2-0.8-0.1-1.3-0.8-1.8    c-0.4-0.2-0.8-0.4-1.2-0.5c-2.8-0.9-5.4-1.2-8.6-0.4c-1.2,0.3-2.8,1-4.4,2.5c-2.6,2.4-2.9,4.6-3.6,9.2c-0.1,1-0.3,1.9-0.3,1.9    s-2.4,0-3.6,0c-0.2,0-0.4,0-0.7,0c-0.4,0.1-0.7,0.3-0.8,0.7c-0.2,1.1-0.4,2.1-0.6,3.2c-0.1,0.5,0.1,0.7,0.6,0.7    c0.3,0,0.5,0.1,0.8,0.1h3.7h1.1" />
<path d="M458,29.5c-0.9,12.3-2.2,21.5-2.8,24.8c-0.3,1.6-0.6,3.3-1.7,5.6c-0.7,1.4-1,2-1.8,3    c-1.9,2.4-7.1,4.1-9.9,3.7c-0.5-0.1-1.3-0.1-1.6-0.9c-0.2-0.4-0.1-1.1,0.1-1.4c0.8-1.2,2.6-0.4,4-0.7c3.3-0.8,4.2-8.3,4.4-10.2    c0.9-8,1.7-16.2,2.4-24.6L458,29.5z" />
</g>
<g>
<!-- Stirling -->
<path d="M0.7,98.7c0-10.1,9.5-17.8,24.1-17.8c7,0,14.4,1.9,18.8,5.8c1.8,1.5,2.5,3.3,2.5,5.8c0,3.4-1.9,6.7-4.7,6.7    c-1.8,0-3.3-1.4-5-3.1c-4.1-3.9-8.9-5.6-12.9-5.6c-5.2,0-9,2.5-9,6.7c0,14.1,34.5,12.7,34.5,35.9c0,5.9-2.1,10.9-6,14.6    c-4.7,4.6-12.3,6.8-20,6.8c-7.5,0-15-2-20.3-6.1c-2.1-1.6-2.7-3.5-2.7-5.9c0-3.3,1.9-6.7,4.8-6.7c4.1,0,7.4,9.2,19.1,9.2    c6.1,0,11.4-3.2,11.4-10.2C35.2,118.9,0.7,121,0.7,98.7" />
<path d="M111.9,81.6c1.4,0,1.9,0.4,1.9,1.8v5.8c0,1.3-0.5,1.8-1.9,1.8h-8.8c-5.8,0-9.2-0.1-11.3-0.4V143    c0,7.6,4,6.6,4,8.9c0,1.5-1.8,1.9-8.2,1.9h-5.2c-6.5,0-8.2-0.4-8.2-1.9c0-2.3,4-1.3,4-8.9V90.6c-2.1,0.2-5.5,0.4-11.3,0.4h-8.8    c-1.4,0-1.9-0.5-1.9-1.8v-5.8c0-1.4,0.5-1.8,1.9-1.8C58.1,81.6,111.9,81.6,111.9,81.6z" />
<path d="M141.9,142.9c0,7.6,4,6.6,4,8.9c0,1.5-1.8,1.9-8.2,1.9h-5.2c-6.5,0-8.2-0.4-8.2-1.9c0-2.3,4-1.3,4-8.9V92.4    c0-7.6-4-6.6-4-8.9c0-1.5,1.8-1.9,8.2-1.9h5.2c6.5,0,8.2,0.4,8.2,1.9c0,2.3-4,1.3-4,8.9V142.9z" />
<path d="M181.8,90h-3.9v27.6c16.2,0,21.4-5.3,21.4-14.2C199.3,92.9,192.1,90,181.8,90 M198.7,123.2l15.6,20.5    c2.2,3.1,4.1,4.7,7.4,6.8c0.7,0.5,0.9,0.8,0.9,1.4c0,1.6-3.6,1.8-9.6,1.8c-6.7,0-8.1-0.9-11.3-5.2l-17-22.5h-6.8v16.9    c0,7.6,4,6.6,4,8.9c0,1.5-1.8,1.9-8.2,1.9h-5.2c-6.5,0-8.2-0.4-8.2-1.9c0-2.3,4-1.3,4-8.9V92.4c0-7.6-4-6.6-4-8.9    c0-1.5,1.8-1.9,8.2-1.9h9.4c10.9,0,18.4,1.1,23.2,3.2c6.8,3.1,12.2,8.5,12.2,18.3C213.4,114.1,208,119.6,198.7,123.2" />
<path d="M277.5,144.4c1.4,0,1.9,0.4,1.9,1.8v5.8c0,1.3-0.5,1.8-1.9,1.8h-36.6c-6.5,0-8.2-0.4-8.2-1.9    c0-2.3,4-1.3,4-8.9V92.5c0-7.6-4-6.6-4-8.9c0-1.5,1.8-1.9,8.2-1.9h5.2c6.5,0,8.2,0.4,8.2,1.9c0,2.3-4,1.3-4,8.9v52.4    c2.1-0.2,5.5-0.4,11.3-0.4h15.9V144.4z" />
<path d="M308.9,142.9c0,7.6,4,6.6,4,8.9c0,1.5-1.8,1.9-8.2,1.9h-5.2c-6.5,0-8.2-0.4-8.2-1.9c0-2.3,4-1.3,4-8.9V92.4    c0-7.6-4-6.6-4-8.9c0-1.5,1.8-1.9,8.2-1.9h5.2c6.5,0,8.2,0.4,8.2,1.9c0,2.3-4,1.3-4,8.9V142.9z" />
<path d="M379.8,129.7V92.4c0-7.6-4-6.6-4-8.9c0-1.5,1.8-1.9,8.2-1.9h2c6.5,0,8.2,0.4,8.2,1.9c0,2.3-4,1.3-4,8.9v59.2    c0,1.5-0.7,2.1-4.1,2.1h-0.7c-3.1,0-3.5-0.4-4.8-2l-33.8-42.9c-1.6-2.1-3.6-4.7-4.8-6.3h-0.2v40.4c0,7.6,4,6.6,4,8.9    c0,1.5-1.8,1.9-8.2,1.9h-2c-6.5,0-8.2-0.4-8.2-1.9c0-2.3,4-1.3,4-8.9V92.4c0-7.6-4-6.6-4-8.9c0-1.5,1.8-1.9,8.2-1.9h0.7    c5.6,0,6.3,1.1,9.7,5.3l28.8,36.5c1.6,2.1,3.6,4.7,4.8,6.3L379.8,129.7L379.8,129.7z" />
<path d="M441.3,90.6c-10.1,0-19.7,8.3-19.7,26.3c0,19.7,8.5,28.1,22.3,28.1c3.6,0,7-0.7,10.2-2v-13.6    c0-4.2-0.8-5.5-2.8-7c-0.9-0.7-1.2-1.1-1.2-1.8c0-1.6,2.3-2,8.5-2h1.9c6.2,0,6.8,0.4,6.8,2.9v22.7c0,2.3-0.7,3.9-3.1,5.2    c-6,3.3-13.9,5-21.8,5c-23.1,0-34.9-13.9-34.9-36.5c0-22,12.4-37,34.1-37c9,0,16.6,2.3,20.5,5.9c1.9,1.6,2.7,3.5,2.7,6.2    c0,3.6-2,6.8-5,6.8C454.5,99.8,452.6,90.6,441.3,90.6" />
</g>
<g id="sheild">
<!-- sheild -->
<path d="M662,90.6L662,90.6V83V0H518.9v83v7.6l0,0c0,0-0.1,0.6,0,1.8c0.1,1.3,0.3,3.2,0.8,5.7c0.7,3,1.9,6.9,4.2,11.3   c0.4,0.8,0.9,1.7,1.4,2.6c1.9,3.4,4.3,7.1,7.4,11c0.5,0.6,0.9,1.2,1.4,1.8c2.4,2.8,5.1,5.7,8.2,8.7c0.9,0.8,1.8,1.6,2.7,2.5   c10.4,9.4,25,19.4,45.4,29.4c20.4-10,35-20,45.4-29.4c0.9-0.8,1.8-1.7,2.7-2.5c3.1-3,5.8-5.9,8.2-8.7c0.5-0.6,1-1.2,1.4-1.8   c3.1-3.9,5.6-7.6,7.4-10.9c0.5-0.9,0.9-1.7,1.4-2.6c2.2-4.5,3.5-8.3,4.2-11.3c0.6-2.5,0.8-4.4,0.8-5.7   C662.1,91.2,662.1,90.6,662,90.6z M550.3,135.9c-5.1-4.3-9.6-8.8-13.4-13.3c1.5-1.1,3.2-2,6-2c3.6,0,5.3,1.4,7.2,3   c2,1.6,4.3,3.5,8.7,3.5s6.7-1.8,8.7-3.5c1.6-1.3,3-2.5,5.5-2.8v12.7c-3.3,0.4-5.2,2-6.9,3.4c-2,1.6-3.7,3-7.2,3   c-3.6,0-5.3-1.4-7.2-3C551.1,136.5,550.7,136.2,550.3,135.9z M590.5,161.4c-12.3-6.1-23.2-12.6-32.4-19.4c0.2,0,0.4,0,0.6,0   c4.4,0,6.7-1.8,8.7-3.5c1.6-1.3,3-2.5,5.5-2.8v6.3l0.5,0.3c3.1,2,6.1,1.6,9,1.3c2.6-0.3,5.1-0.5,7.5,1l0.6,0.4l0.6-0.4   c2.4-1.5,4.9-1.3,7.5-1c2.9,0.3,5.9,0.6,9-1.3l0.5-0.3v-6.3c2.4,0.4,3.9,1.5,5.5,2.8c2,1.6,4.3,3.5,8.7,3.5c0.2,0,0.4,0,0.6,0   C613.6,148.8,602.8,155.3,590.5,161.4z M575.1,140.8V136v-0.4v-2.3v-12.7v-2.3l0,0l0,0c1.2,0.5,2.4,0.6,3.7,0.7   c1.2,0,2.4-0.1,3.6-0.2c2.4-0.3,4.8-0.5,7,0.7v5.2v2.3v9v3.7v2.2c-1.1-0.4-2.2-0.6-3.4-0.7c-0.2,0-0.4,0-0.6,0   c-1.1,0-2.2,0.1-3.3,0.2C579.7,141.7,577.4,142,575.1,140.8z M591.6,141.9v-2.2V136v-9v-2.3v-5.2c2.3-1.2,4.6-0.9,7-0.7   c1.2,0.1,2.4,0.3,3.6,0.2c1.2,0,2.4-0.2,3.6-0.7l0,0l0,0v2.3v12.7v2.3v0.4v4.8c-2.3,1.2-4.6,0.9-7,0.7c-1.3-0.1-2.6-0.3-3.9-0.2   C593.9,141.3,592.8,141.5,591.6,141.9z M630.7,135.9c-0.4,0.3-0.8,0.6-1.2,0.9c-2,1.6-3.7,3-7.2,3c-3.6,0-5.3-1.4-7.2-3   c-1.7-1.4-3.6-2.9-6.9-3.4v-12.7c2.4,0.4,3.9,1.5,5.5,2.8c2,1.6,4.3,3.5,8.7,3.5s6.7-1.8,8.7-3.5c2-1.6,3.7-3,7.2-3   c2.8,0,4.4,0.8,6,2C640.3,127.1,635.8,131.5,630.7,135.9z M651.1,113.1c-1.6,2.6-3.5,5.2-5.5,7.8c-1.7-1.3-3.9-2.5-7.4-2.5   c-4.4,0-6.7,1.8-8.7,3.5c-2,1.6-3.7,3-7.2,3c-3.6,0-5.3-1.4-7.2-3c-1.7-1.4-3.6-2.9-6.9-3.4v-4l-1.1,0.7l-0.7,0.4   c-2.4,1.5-4.9,1.3-7.5,1c-2.7-0.3-5.5-0.6-8.4,1c-2.9-1.6-5.7-1.3-8.4-1c-2.6,0.3-5.1,0.5-7.5-1l-0.7-0.4l-1.1-0.7v4   c-3.3,0.4-5.2,2-6.9,3.4c-2,1.6-3.7,3-7.2,3c-3.6,0-5.3-1.4-7.2-3c-2-1.6-4.3-3.5-8.7-3.5c-3.5,0-5.7,1.2-7.4,2.5   c-2.1-2.6-3.9-5.2-5.5-7.8c-0.2-0.4-0.5-0.8-0.7-1.1c3-0.5,4.8-2,6.4-3.3c2-1.6,3.7-3,7.2-3c3.6,0,5.3,1.4,7.2,3   c2,1.6,4.3,3.5,8.7,3.5s6.7-1.8,8.7-3.5c2-1.6,3.7-3,7.2-3c3.6,0,5.3,1.4,7.2,3c2,1.6,4.3,3.5,8.7,3.5s6.7-1.8,8.7-3.5   c2-1.6,3.7-3,7.2-3c3.6,0,5.3,1.4,7.2,3c2,1.6,4.3,3.5,8.7,3.5s6.7-1.8,8.7-3.5c2-1.6,3.7-3,7.2-3c3.6,0,5.3,1.4,7.2,3   c1.6,1.3,3.4,2.8,6.4,3.3C651.6,112.3,651.3,112.7,651.1,113.1z M658.6,90.6v0.2v1.5c-0.1,1-0.2,2.6-0.7,4.7c-0.7,3-2,7.4-5,12.8   c-2.9-0.2-4.4-1.5-6.2-2.9c-2-1.6-4.3-3.5-8.7-3.5s-6.7,1.8-8.7,3.5c-2,1.6-3.7,3-7.2,3c-3.6,0-5.3-1.4-7.2-3   c-2-1.6-4.3-3.5-8.7-3.5s-6.7,1.8-8.7,3.5c-2,1.6-3.7,3-7.2,3c-3.6,0-5.3-1.4-7.2-3c-2-1.6-4.3-3.5-8.7-3.5s-6.7,1.8-8.7,3.5   c-2,1.6-3.7,3-7.2,3c-3.6,0-5.3-1.4-7.2-3c-2-1.6-4.3-3.5-8.7-3.5s-6.7,1.8-8.7,3.5c-1.8,1.4-3.3,2.7-6.2,2.9   c-2.9-5.4-4.3-9.8-5-12.8c-0.5-2.1-0.6-3.7-0.7-4.7v-1.5v-0.2V83c0-2.4,1.9-4.3,4.3-4.3s4.3,1.9,4.3,4.3v14h12.7V80.2   c0-2.4,1.9-4.3,4.3-4.3c2.4,0,4.3,1.9,4.3,4.3V97h13V77.4c0-2.4,1.9-4.3,4.3-4.3c2.4,0,4.3,1.9,4.3,4.3V97h12.7V74.5   c0-2.4,1.9-4.3,4.3-4.3c2.4,0,4.3,1.9,4.3,4.3V97h12.7V77.4c0-2.4,1.9-4.3,4.3-4.3s4.3,1.9,4.3,4.3V97h12.7V80.2   c0-2.4,1.9-4.3,4.3-4.3c2.4,0,4.3,1.9,4.3,4.3V97h12.7V83c0-2.4,1.9-4.3,4.3-4.3c2.4,0,4.3,1.9,4.3,4.3L658.6,90.6L658.6,90.6z    M658.6,76.6c-1.2-0.8-2.7-1.3-4.3-1.3c-4.3,0-7.7,3.5-7.7,7.7v10.6h-5.9V80.2c0-4.3-3.5-7.7-7.7-7.7c-4.3,0-7.7,3.5-7.7,7.7v13.4   h-5.9V77.4c0-4.3-3.5-7.7-7.7-7.7c-4.3,0-7.7,3.5-7.7,7.7v16.2h-5.9V74.5c0-4.3-3.5-7.7-7.7-7.7c-4.3,0-7.7,3.5-7.7,7.7v19.1h-5.8   V77.4c0-4.3-3.5-7.7-7.7-7.7c-4.3,0-7.7,3.5-7.7,7.7v16.2h-5.9V80.2c0-4.3-3.5-7.7-7.7-7.7c-4.3,0-7.7,3.5-7.7,7.7v13.4h-5.9V83   c0-4.3-3.5-7.7-7.7-7.7c-1.6,0-3.1,0.5-4.3,1.3v-3.5c20.5-11.9,44-18.1,68.2-18.1s47.7,6.3,68.2,18.1L658.6,76.6L658.6,76.6z    M584.1,17.5c0.8-0.1,1.7-0.1,2.6-0.2l1.6-0.1V14c1.5,0,2.9,0,4.4,0v3.2l1.6,0.1c0.9,0,1.8,0.1,2.6,0.2l1.8,0.2v-3.4   c1.5,0.1,3.1,0.2,4.7,0.4v9.5c-4.3-0.3-8.6-0.5-12.9-0.5c-4.3,0-8.6,0.2-12.9,0.5v-9.5c1.6-0.1,3.1-0.3,4.7-0.4v3.4L584.1,17.5z    M578.6,27.5c4-0.3,7.9-0.4,11.9-0.4c3.9,0,7.9,0.1,11.8,0.4l-1.7,3.4l2.6,20.9c-4.2-0.4-8.5-0.6-12.7-0.6l0,0   c-4.2,0-8.5,0.2-12.7,0.6l2.6-20.9L578.6,27.5z M658.6,69.8c-15.9-9-33.6-14.7-51.9-16.8l-2.6-21.5l2.7-5.3V11.6l-1.5-0.2   c-2.7-0.3-5.5-0.5-8.2-0.6l-1.8-0.1l0,0h-0.9c-1.4,0-2.7-0.1-3.9-0.1c-1.3,0-2.6,0-4,0.1h-0.9l0,0l-1.8,0.1   c-2.7,0.1-5.4,0.3-8.2,0.6l-1.5,0.2v14.6l2.7,5.3L574.2,53c-18.3,2.1-36,7.8-51.9,16.8V3.4h136.3L658.6,69.8L658.6,69.8z" />
<path d="M625.3,41.9c2.6-0.3,5.1-0.5,7.5,1l0.6,0.4l0.6-0.4c2.4-1.5,4.9-1.3,7.5-1c2.9,0.3,5.9,0.6,9-1.3l0.5-0.3V12.6   l-1.7,1.1c-2.4,1.5-4.9,1.3-7.5,1c-2.7-0.3-5.5-0.6-8.4,1c-2.9-1.6-5.7-1.3-8.4-1c-2.6,0.3-5.1,0.5-7.5-1l-1.7-1.1v27.6l0.5,0.3   C619.4,42.5,622.4,42.2,625.3,41.9z M634.5,17.7c2.3-1.2,4.6-0.9,7-0.7c2.4,0.3,4.8,0.5,7.2-0.4V39c-2.3,1.2-4.6,0.9-7,0.7   c-2.4-0.3-4.8-0.5-7.2,0.4V17.7z M618,16.5c2.5,1,4.9,0.7,7.2,0.4c2.4-0.3,4.8-0.5,7,0.7V40c-1.3-0.5-2.7-0.7-4-0.7   c-1.1,0-2.2,0.1-3.3,0.2c-2.4,0.3-4.8,0.5-7-0.7L618,16.5L618,16.5z" />
<path d="M620.1,22c1.8,1.1,3.5,0.9,5.1,0.8c1.5-0.2,2.8-0.3,4.2,0.5c0.1,0.1,0.2,0.1,0.4,0.1s0.5-0.1,0.6-0.3   c0.2-0.3,0.1-0.8-0.2-1c-1.8-1.1-3.5-0.9-5.1-0.8c-1.5,0.2-2.8,0.3-4.2-0.5c-0.3-0.2-0.8-0.1-1,0.2C619.6,21.4,619.7,21.8,620.1,22   z" />
<path d="M620.1,28.2c1.8,1.1,3.5,0.9,5.1,0.8c1.5-0.2,2.8-0.3,4.2,0.5c0.1,0.1,0.2,0.1,0.4,0.1s0.5-0.1,0.6-0.3   c0.2-0.3,0.1-0.8-0.2-1c-1.8-1.1-3.5-0.9-5.1-0.8c-1.5,0.2-2.8,0.3-4.2-0.5c-0.3-0.2-0.8-0.1-1,0.2C619.6,27.6,619.7,28,620.1,28.2   z" />
<path d="M625.2,35.2c1.5-0.2,2.8-0.3,4.2,0.5c0.1,0.1,0.2,0.1,0.4,0.1s0.5-0.1,0.6-0.3c0.2-0.3,0.1-0.8-0.2-1   c-1.8-1.1-3.5-0.9-5.1-0.8c-1.5,0.2-2.8,0.3-4.2-0.5c-0.3-0.2-0.8-0.1-1,0.2s-0.1,0.8,0.2,1C621.8,35.6,623.6,35.4,625.2,35.2z" />
<path d="M641.7,35.2c1.6,0.2,3.3,0.4,5.1-0.8c0.3-0.2,0.4-0.6,0.2-1c-0.2-0.3-0.6-0.4-1-0.2c-1.3,0.8-2.7,0.7-4.2,0.5   c-1.6-0.2-3.3-0.4-5.1,0.8c-0.3,0.2-0.4,0.6-0.2,1c0.1,0.2,0.4,0.3,0.6,0.3c0.1,0,0.3,0,0.4-0.1C638.8,34.9,640.2,35.1,641.7,35.2z   " />
<path d="M637.1,29.7c0.1,0,0.3,0,0.4-0.1c1.3-0.8,2.7-0.7,4.2-0.5c1.6,0.2,3.3,0.4,5.1-0.8c0.3-0.2,0.4-0.6,0.2-1   c-0.2-0.3-0.6-0.4-1-0.2c-1.3,0.8-2.7,0.7-4.2,0.5c-1.6-0.2-3.3-0.4-5.1,0.8c-0.3,0.2-0.4,0.6-0.2,1   C636.6,29.5,636.9,29.7,637.1,29.7z" />
<path d="M637.1,23.4c0.1,0,0.3,0,0.4-0.1c1.3-0.8,2.7-0.7,4.2-0.5c1.6,0.2,3.3,0.4,5.1-0.8c0.3-0.2,0.4-0.6,0.2-1   c-0.2-0.3-0.6-0.4-1-0.2c-1.3,0.8-2.7,0.7-4.2,0.5c-1.6-0.2-3.3-0.4-5.1,0.8c-0.3,0.2-0.4,0.6-0.2,1   C636.6,23.3,636.9,23.4,637.1,23.4z" />
<path d="M540,41.9c2.6-0.3,5.1-0.5,7.5,1l0.6,0.4l0.6-0.4c2.4-1.5,4.9-1.3,7.5-1c2.9,0.3,5.9,0.6,9-1.3l0.5-0.3V12.6   l-1.7,1.1c-2.4,1.5-4.9,1.3-7.5,1c-2.7-0.3-5.5-0.6-8.4,1c-2.9-1.6-5.7-1.3-8.4-1c-2.6,0.3-5.1,0.5-7.5-1l-1.7-1.1v27.6l0.5,0.3   C534.1,42.5,537.1,42.2,540,41.9z M549.2,17.7c2.3-1.2,4.6-0.9,7-0.7c2.4,0.3,4.8,0.5,7.2-0.4V39c-2.3,1.2-4.6,0.9-7,0.7   c-2.4-0.3-4.8-0.5-7.2,0.4V17.7z M532.7,16.5c2.5,1,4.9,0.7,7.2,0.4c2.4-0.3,4.8-0.5,7,0.7V40c-1.3-0.5-2.7-0.7-4-0.7   c-1.1,0-2.2,0.1-3.3,0.2c-2.4,0.3-4.8,0.5-7-0.7L532.7,16.5L532.7,16.5z" />
<path d="M534.8,22c1.8,1.1,3.5,0.9,5.1,0.8c1.5-0.2,2.8-0.3,4.2,0.5c0.1,0.1,0.2,0.1,0.4,0.1s0.5-0.1,0.6-0.3   c0.2-0.3,0.1-0.8-0.2-1c-1.8-1.1-3.5-0.9-5.1-0.8c-1.5,0.2-2.8,0.3-4.2-0.5c-0.3-0.2-0.8-0.1-1,0.2C534.3,21.4,534.4,21.8,534.8,22   z" />
<path d="M534.8,28.2c1.8,1.1,3.5,0.9,5.1,0.8c1.5-0.2,2.8-0.3,4.2,0.5c0.1,0.1,0.2,0.1,0.4,0.1s0.5-0.1,0.6-0.3   c0.2-0.3,0.1-0.8-0.2-1c-1.8-1.1-3.5-0.9-5.1-0.8c-1.5,0.2-2.8,0.3-4.2-0.5c-0.3-0.2-0.8-0.1-1,0.2C534.3,27.6,534.4,28,534.8,28.2   z" />
<path d="M539.9,35.2c1.5-0.2,2.8-0.3,4.2,0.5c0.1,0.1,0.2,0.1,0.4,0.1s0.5-0.1,0.6-0.3c0.2-0.3,0.1-0.8-0.2-1   c-1.8-1.1-3.5-0.9-5.1-0.8c-1.5,0.2-2.8,0.3-4.2-0.5c-0.3-0.2-0.8-0.1-1,0.2s-0.1,0.8,0.2,1C536.5,35.6,538.3,35.4,539.9,35.2z" />
<path d="M556.4,35.2c1.6,0.2,3.3,0.4,5.1-0.8c0.3-0.2,0.4-0.6,0.2-1c-0.2-0.3-0.6-0.4-1-0.2c-1.3,0.8-2.7,0.7-4.2,0.5   c-1.6-0.2-3.3-0.4-5.1,0.8c-0.3,0.2-0.4,0.6-0.2,1c0.1,0.2,0.4,0.3,0.6,0.3c0.1,0,0.3,0,0.4-0.1C553.5,34.9,554.9,35.1,556.4,35.2z   " />
<path d="M551.8,29.7c0.1,0,0.3,0,0.4-0.1c1.3-0.8,2.7-0.7,4.2-0.5c1.6,0.2,3.3,0.4,5.1-0.8c0.3-0.2,0.4-0.6,0.2-1   c-0.2-0.3-0.6-0.4-1-0.2c-1.3,0.8-2.7,0.7-4.2,0.5c-1.6-0.2-3.3-0.4-5.1,0.8c-0.3,0.2-0.4,0.6-0.2,1   C551.3,29.5,551.6,29.7,551.8,29.7z" />
<path d="M551.8,23.4c0.1,0,0.3,0,0.4-0.1c1.3-0.8,2.7-0.7,4.2-0.5c1.6,0.2,3.3,0.4,5.1-0.8c0.3-0.2,0.4-0.6,0.2-1   c-0.2-0.3-0.6-0.4-1-0.2c-1.3,0.8-2.7,0.7-4.2,0.5c-1.6-0.2-3.3-0.4-5.1,0.8c-0.3,0.2-0.4,0.6-0.2,1   C551.3,23.3,551.6,23.4,551.8,23.4z" />
<path d="M593.9,42.5l-1.3-10.4c-0.7,0-1.4,0-2.1,0c-0.7,0-1.4,0-2.1,0l-1.3,10.4c1,0,2,0,3,0   C591.4,42.5,592.6,42.5,593.9,42.5z" />
<path d="M577.2,123.9c1.8,1.1,3.5,0.9,5.1,0.8c0.3,0,0.5-0.1,0.8-0.1c1.2-0.1,2.3-0.1,3.4,0.6c0.1,0.1,0.2,0.1,0.4,0.1   s0.5-0.1,0.6-0.3s0.1-0.4,0.1-0.6c0-0.2-0.1-0.3-0.3-0.4c-0.7-0.5-1.5-0.7-2.2-0.8c-1-0.2-2,0-2.9,0.1c-0.2,0-0.4,0-0.7,0.1   c-1.2,0.1-2.4,0.1-3.5-0.6c-0.3-0.2-0.8-0.1-1,0.2C576.7,123.2,576.8,123.7,577.2,123.9z" />
<path d="M577.2,130.1c1.8,1.1,3.5,0.9,5.1,0.8c1.5-0.2,2.8-0.3,4.2,0.5c0.1,0.1,0.2,0.1,0.4,0.1s0.5-0.1,0.6-0.3   c0.2-0.3,0.1-0.8-0.2-1c-1.8-1.1-3.5-0.9-5.1-0.8c-1.5,0.2-2.8,0.3-4.2-0.5c-0.3-0.2-0.8-0.1-1,0.2   C576.7,129.4,576.8,129.9,577.2,130.1z" />
<path d="M583.4,137c1-0.1,2,0,3,0.6c0.1,0.1,0.2,0.1,0.4,0.1s0.5-0.1,0.6-0.3c0.2-0.3,0.1-0.8-0.2-1s-0.5-0.3-0.8-0.4   c-1.5-0.7-3-0.5-4.3-0.4c-0.1,0-0.2,0-0.3,0c-1.4,0.1-2.6,0.2-3.9-0.6c-0.3-0.2-0.8-0.1-1,0.2c-0.1,0.2-0.1,0.3-0.1,0.5   c0,0.1,0,0.1,0.1,0.2c0.1,0.1,0.1,0.2,0.3,0.3c1,0.6,1.9,0.8,2.8,0.9c0.8,0,1.5,0,2.2-0.1C582.6,137,583,137,583.4,137z" />
<path d="M597.5,137c0.4,0,0.8,0.1,1.2,0.1c0.7,0.1,1.5,0.2,2.3,0.1c0.9,0,1.9-0.3,2.8-0.9c0.1-0.1,0.2-0.2,0.3-0.3   c0-0.1,0-0.1,0.1-0.2c0-0.2,0-0.3-0.1-0.5c-0.2-0.3-0.6-0.4-1-0.2c-1.2,0.8-2.5,0.7-3.9,0.6c-0.1,0-0.2,0-0.3,0   c-1.3-0.1-2.8-0.3-4.3,0.4c-0.3,0.1-0.5,0.2-0.8,0.4s-0.4,0.6-0.2,1c0.1,0.2,0.4,0.3,0.6,0.3c0.1,0,0.3,0,0.4-0.1   C595.5,137,596.5,136.9,597.5,137z" />
<path d="M594.2,131.5c0.1,0,0.3,0,0.4-0.1c1.3-0.8,2.7-0.7,4.2-0.5c1.6,0.2,3.3,0.4,5.1-0.8c0.3-0.2,0.4-0.6,0.2-1   c-0.2-0.3-0.6-0.4-1-0.2c-1.3,0.8-2.7,0.7-4.2,0.5c-1.6-0.2-3.3-0.4-5.1,0.8c-0.3,0.2-0.4,0.6-0.2,1   C593.7,131.4,593.9,131.5,594.2,131.5z" />
<path d="M594.2,125.3c0.1,0,0.3,0,0.4-0.1c1.1-0.7,2.2-0.7,3.4-0.6c0.3,0,0.5,0,0.8,0.1c1.6,0.2,3.3,0.4,5.1-0.8   c0.3-0.2,0.4-0.6,0.2-1c-0.2-0.3-0.6-0.4-1-0.2c-1.1,0.7-2.3,0.7-3.5,0.6c-0.2,0-0.4,0-0.7-0.1c-0.9-0.1-1.9-0.2-2.9-0.1   c-0.7,0.1-1.5,0.3-2.2,0.8c-0.2,0.1-0.3,0.3-0.3,0.4c0,0.2,0,0.4,0.1,0.6C593.7,125.2,593.9,125.3,594.2,125.3z" />
</g>
</a>
</symbol>
<symbol id="icon-close" viewBox="0 0 64 64">
<title>close</title>
<path fill="currentColor" d="M34.816 32l26.112-26.112c0.768-0.768 0.768-2.048 0-2.816s-2.048-0.768-2.816 0l-26.112 26.112-26.112-26.112c-0.768-0.64-2.048-0.64-2.816 0-0.64 0.768-0.64 2.048 0 2.816l26.112 26.112-26.112 26.112c-0.768 0.768-0.768 2.048 0 2.816 0.384 0.384 0.896 0.512 1.408 0.512s1.024-0.128 1.408-0.512l26.112-26.112 26.112 26.112c0.384 0.384 0.896 0.512 1.408 0.512s1.024-0.128 1.408-0.512c0.768-0.768 0.768-2.048 0-2.816l-26.112-26.112z"></path>
</symbol>
<symbol id="icon-arrowRight" viewBox="0 0 512 512">
<title>right arrow</title>
<g>
<path d="M383,266.5c-2.6,0-5.3-1-7.3-3l-254-245.5c-4.2-4-4.3-10.7-0.3-14.9c4-4.2,10.7-4.3,14.9-0.3l254,245.5   c4.2,4,4.3,10.7,0.3,14.9C388.5,265.5,385.8,266.5,383,266.5z" />
<path d="M129,512c-2.8,0-5.5-1.1-7.6-3.2c-4-4.2-3.9-10.9,0.3-14.9l254-245.5c4.2-4,10.9-3.9,14.9,0.3   c4,4.2,3.9,10.9-0.3,14.9L136.3,509C134.3,511,131.6,512,129,512z" />
</g>
</symbol>
<symbol id="icon-location" viewBox="0 0 64 64">
<title>location marker</title>
<circle class="ink2" cx="32" cy="32" r="32"/>
<path class="paper" d="M42.5,12.9c-2.7-2.8-6.5-4.4-10.5-4.4c-4.1,0-7.8,1.6-10.5,4.4c-2.7,2.7-4.3,6.3-4.3,10.4c0,4.2,2.7,9.2,5,13.5
c0.7,1.3,1.3,2.7,1.9,3.8l6.9,14.2c0.1,0.2,0.3,0.4,0.5,0.5c0.6,0.3,1.3,0,1.6-0.5l6.9-14.2c0.5-1.1,1.2-2.5,1.9-3.8
c2.4-4.4,5-9.4,5-13.5C46.8,19.2,45.2,15.6,42.5,12.9z M37.1,28.5c-1.3,1.3-3.1,2.2-5.1,2.2c-1.9,0-3.8-0.8-5.1-2.2
c-1.3-1.3-2.2-3.1-2.2-5.1c0-1.9,0.8-3.8,2.2-5.1c1.3-1.3,3.1-2.2,5.1-2.2c2,0,3.9,0.8,5.1,2.2c1.3,1.2,2.2,3.1,2.2,5.1
C39.2,25.3,38.4,27.1,37.1,28.5z"/>
</symbol>
<symbol id="chevron" viewBox="0 0 18 29">
<title>chevron</title>
<g transform="translate(-209, -7)">
<path stroke="currentColor" fill="none" stroke-width="2" d="M211,34 C229.357508,17.5028961 229.42548,25.851936 212.592272,9"></path>
</g>
</symbol>
<symbol id="scribble" viewBox="0 0 1457.72 315.26">
<title>scribble</title>
<g id="scribble-bits">
<path class="ink" d="M74.41,162.84S65,176.06,45.15,218.53c-11.63,24.93-16.51,43.88-19.34,45.3s-11.33,2.36-16.52-1.42-13.21-12.27-7.08-32.56,35.87-73.14,61.35-115.61,51-79.75,59.46-85.41,14.62-7.07,23.59-3.78,16.52,9,12.27,20.77S139.53,92.53,123,135.48s-26.43,76-26.43,76,34.92-54.27,58.51-93,56.16-89.66,61.82-96.27,19.35-8,27.37-3.77,16,12.73,12.27,19.35S241.45,68,219.75,115.65s-38.23,86.83-38.23,86.83,34.93-55.68,59.94-94.38S290.53,31.66,291,30.24s4.23-11.32,9.43-12.74,12.27,0,20.77,2.83S334.41,29.3,333,35s-4.72,9.44-9,16.52-21.72,42.46-34.93,72.67-31.6,74.09-31.6,74.09,40.1-67,58-95.32,41.53-59,45.77-65.12,16.53-8.5,26-3.31,14.16,11.33,8.49,22.19-26,50-48.61,100S308.93,245,308.93,245a865.86,865.86,0,0,0,59-88.72c30.2-51.91,75-119.39,87.3-133.07s22.17-15.11,33.5-9.91,13.21,9.91,9.44,18.87-20.77,42.94-46.24,95.32S417,204.37,417,204.37s25.47-40.11,47.66-74.56S509,60.92,524.11,41.57s20.3-25.47,24.54-25.94,15.1.46,23.12,6.13,5.67,15.56,2.37,22.64S551,83.09,529.3,140.67s-33,88.7-28.31,91.06,19.82-22.64,33-40.57S594,106.69,616.59,77s42.95-51.91,47.2-53.79,15.1,0,22.65,3.77,12.27,11.8,7.07,26.42S672.27,97.73,653.41,135a622,622,0,0,0-29.73,68.43s17-20.3,41.05-51.92,57.58-80.68,84-108.52S792.61-.9,803.46,0s27.38,10.38,23.13,22.65-25.57,59-42.47,93.91c-13.69,28.31-33.5,68.41-30.68,67.48s34-41.06,57.1-68.43,55.21-65.12,63.7-70.31,17.47-1.88,24.55,2.36,9,16,5.66,21.71-17,25-41.53,69.84S828,208.61,828,208.61l62.29-79.27c31.14-39.63,51.43-62.3,58-68.9S963,52,971.45,55.73s22.18,9.9,13.69,25.48-16,25-32.56,59S929,198.71,929,198.71s28.48-34,58.84-72.2,72.35-84.47,79.42-90.13,18.89-6.61,28.32,0,11.32,17,5.18,27.37-17,23.6-36.32,60.88-27.38,59-27.38,59,43.42-54.74,73.15-88.25,52.85-59.92,59-65.12,15.1-7.07,21.7-3.77,21.71,12.74,14.63,26.43-17.45,28.09-40.57,79.64-31.74,77.63-28.32,80.32c2.53,2,12.12-6.72,18.41-12.74,12.37-11.86,56.09-55,71.83-69.9s62-56.09,76.33-64.34,25.24-9,30.2-6.85,15.33,9.91,17.45,11.8,1.89,5.19,0,9.2-9.43,24.78-17.7,46-12,31.6-9.9,32.79,16-13,24.07-20.05,35.14-36.1,48.13-45.31,25.71-17.22,37.51-17.46,20.76,4,23.36,9,1.42,9.67-1.89,12-17.7,5.43-26.42,11.57-27.6,24.3-39.64,37-29.73,33.27-43.65,44.12-30.67,19.34-39.63,13.92-22.9-17.22-24.07-28.31,3.3-27.84,7.55-40.11,7.07-19.35,3.07-17.22-37.52,33.74-55.21,51.2-55.21,55.67-70.07,67.23-31.62,22.9-44.6,16.76-24.54-20.29-25.24-30.44,2.35-26.9,7.55-39.88,16.75-42.46,17.93-45.3,1.17-6.37-2.6-2.36-21.7,29.27-42,54.28-43.42,52.85-51.68,59.92-19.11,9.44-24.77,6.84-19.11-16-19.35-20-1.18-16.29,3.77-27.84,16.29-37.51,17.94-41.29.94-5.89-2.36-2.13S962,214.74,951.39,227.73,922.61,262.65,910.58,261s-30.91-15.35-30.2-27.37,5-28.31,9.9-41.3,6.84-19.58,6.84-19.58-18.4,25.24-32.79,44.12-14.17,16.28-19.57,21.91c-3.53,7.08-19.12,16.05-25.49,20.53s-17,9-25.71,4.95-22.65-15.09-19.35-28.07,5.41-9.41,13.67-25.68,19.59-39.18,19.59-39.18-35.57,45.89-46.72,59.46c-13,15.81-23.58,26.44-36.1,24.54s-20.52-9.44-24.77-14.39-4.49-15.34-1.18-24.07,26.9-61.11,35.87-79.75,24.29-48.36,25.95-51.9,5.66-10.62,3.3-9-24.53,27.14-37.75,45.54-42.71,58-56.39,76.92-31.38,46-40.58,55-19.58,14.16-24.78,13.92-32.32-14.39-29-28.31,10.85-37,21.7-61.82,21.47-49.08,21.47-49.08-18.64,24.31-34.92,47.19-46.95,66.78-55.92,80.22-17.22,22.41-25.24,27.37-15.1,5.66-22.65,2.12-21-12.74-21-25,3.31-29,9.67-47.9,17.22-51.91,18.88-56.15,1.19-5.19-4,2.83-39.16,61.35-47.89,76.44-29.51,52.38-35.4,59.93-22.41,13-27.13,11.33S347.39,295,351.16,282s21.23-56.4,27.61-71,22.17-46.24,20.52-45.54-9.43,11.09-28.78,42.71-42.7,71.49-51.44,83.76-18.4,23.6-28.08,23.36-28.54-11.09-30.2-21.24,4.49-26.42,8.51-37.51,13.21-31.38,16-36.57-.7-4.95-5.66,2.59-24.54,41.3-31.85,52.39-18.4,27.12-25.24,32.31-19.11,4.73-25.25.24-15.57-12.5-13.69-19.81,10.62-29.26,18.41-46.25,15.57-38.22,15.57-38.22-16,21.46-26,37.75-29.49,49.07-34,54.5-15.34,14.4-23.37,13.21-26.18-10.38-25.71-20.29,5.19-21.94,11.32-35.62,22.18-49.55,22.18-49.55-20.32,32-31.62,48.36c-9.9,14.4-21,27.38-30.19,30.68s-20.53-.23-26.9-6.14-12-13-9-23.59,13.44-44.12,18.63-57.58,10.38-28.07,11.33-32.08"/>
</g>
</symbol>
<symbol id="sockpuppet" viewBox="0 0 876.91 597.13">
<g id="sockpuppet-bits">
<path d="M709.84,88c-67.75,28-140.54,40.89-213.81,34.66-32.26-2.74-75.73-7.16-93.95-38.24-21.27-36.3,17.18-64.73,49-44,29.81,19.37,19.08,64.16.32,86.69-21.84,26.2-56.17,37.65-88.46,44.37C293,186,220.16,178.39,150.67,195.87,101.6,208.21,52.48,233.8,22.58,275.78-3.47,312.37-18,376.26,42,385.06c24.92,3.66,51-4.16,74.88-10.6,35.69-9.63,70.42-22.42,105.43-34.2,70.29-23.66,148.16-46.17,221.84-24.16,62.84,18.76,134.56,91,97.28,161-26.28,49.37-108.47,14.67-122.93,73.3a17,17,0,0,0,7.64,18.76c72.21,42.6,166.81,35.92,233-15.56,33.84-26.33,50.44-64.25,77.34-96.42,16.16-19.34,38.65-35.78,65.11-27.84a59,59,0,0,1,41.94,60.36c-1.45,21.34,31.78,21.25,33.22,0,2.92-43.25-28.06-82.72-69.81-93.24-44.78-11.29-80.87,18.31-105.63,52.29-31,42.54-54.43,83.78-106.45,103.51-49.94,19-105.84,15.4-151.92-11.78q3.82,9.38,7.64,18.76c5.29-21.46,55-17.74,72.58-24,27-9.58,45.56-32.6,54.71-59.19,20.4-59.26-11.82-121.64-58.61-157.94-59.58-46.22-136.67-50.28-208.34-36.91-83.75,15.63-161.75,61.34-246.44,70.88-6.66.75-18,2.53-24-1.39-10.23-6.76-7.41-22.95-3-33.64,6.94-16.9,18.06-31.5,31.57-43.74,26.23-23.78,60.17-38.26,94.31-46.33,80.41-19,166.61-5,245.17-33.7C464.2,172.93,515.58,122,500.07,57.74c-11.73-48.59-73-75.88-114.75-44C360.55,32.66,356.91,67,369.74,94.08c15.85,33.45,50.28,49.82,85.07,56.52,87.87,16.92,181.75,3.44,263.86-30.55,19.48-8.06,10.94-40.21-8.83-32"/>
</g>
</symbol>
<symbol id="sinusoidal-lines" viewBox="0 0 929.53 110.92">
<title>wavy lines</title>
<g id="sinusoidal-lines-bits" class="ink">
<path d="M0,3.19Q1.07,54.3,2.14,105.4c.09,4.25,6.69,4.26,6.61,0Q7.67,54.29,6.61,3.19C6.52-1.06-.09-1.07,0,3.19"/>
<path d="M23,4.37a684.38,684.38,0,0,1,5,102.19c-.11,4.25,6.49,4.25,6.6,0a683,683,0,0,0-5-102.19C29.08.21,22.47.16,23,4.37"/>
<path d="M45.28,6.65Q48,57.16,46.73,107.73c-.11,4.25,6.5,4.25,6.61,0Q54.63,57.16,51.89,6.65c-.23-4.23-6.84-4.25-6.61,0"/>
<path d="M71.58,11.29c2.45,29.88-1.15,59.79,1.23,89.54.34,4.21,7,4.25,6.61,0C77,71.07,80.64,41.17,78.18,11.29c-.34-4.21-7-4.25-6.6,0"/>
<path d="M96.29,11.26a657.52,657.52,0,0,1,4.36,82.52c-.05,4.26,6.56,4.26,6.6,0a655.63,655.63,0,0,0-4.35-82.52c-.49-4.18-7.1-4.23-6.61,0"/>
<path d="M128.25,6.67V93.79c0,4.26,6.61,4.26,6.61,0V6.67c0-4.26-6.61-4.26-6.61,0"/>
<path d="M152,11.31Q150.6,47.9,151.2,84.5c.07,4.25,6.68,4.26,6.61,0q-.62-36.61.76-73.19c.16-4.25-6.45-4.25-6.61,0"/>
<path d="M180.89,13.64Q180.2,52,179.52,90.3c-.08,4.25,6.53,4.25,6.6,0q.69-38.34,1.37-76.66c.08-4.26-6.53-4.26-6.6,0"/>
<path d="M203.84,17.14a559.6,559.6,0,0,0,.27,74.39c.29,4.22,6.9,4.25,6.6,0a559.6,559.6,0,0,1-.26-74.39c.26-4.25-6.34-4.23-6.61,0"/>
<path d="M221.84,18.26l2.73,77.88c.15,4.24,6.75,4.26,6.6,0l-2.73-77.88c-.14-4.24-6.75-4.26-6.6,0"/>
<path d="M243.05,17.1q-.65,40.71,1,81.37c.17,4.24,6.78,4.26,6.61,0q-1.63-40.66-1-81.37c.07-4.25-6.54-4.25-6.61,0"/>
<path d="M267.51,17.12q.12,37.21,2.22,74.36c.24,4.23,6.85,4.26,6.61,0q-2.11-37.14-2.22-74.36c0-4.25-6.62-4.26-6.61,0"/>
<path d="M290.81,24.07Q289.15,56,289.32,88c0,4.25,6.64,4.26,6.61,0q-.18-32,1.48-63.92c.22-4.25-6.39-4.24-6.6,0"/>
<path d="M312.77,17.11q.27,34.28.55,68.55c0,4.25,6.65,4.26,6.61,0q-.27-34.27-.55-68.55c0-4.25-6.64-4.26-6.61,0"/>
<path d="M331,19.43q2.72,33.66,2.37,67.39c0,4.26,6.57,4.26,6.61,0q.33-33.76-2.37-67.39c-.34-4.21-6.95-4.25-6.61,0"/>
<path d="M351.12,19.46a455.52,455.52,0,0,1,1.56,66.18c-.21,4.25,6.39,4.24,6.6,0a454.11,454.11,0,0,0-1.55-66.18c-.4-4.19-7-4.23-6.61,0"/>
<path d="M372,24.07l2.28,68.56c.14,4.24,6.74,4.26,6.6,0q-1.14-34.29-2.27-68.56c-.14-4.24-6.75-4.26-6.61,0"/>
<path d="M388.7,24.06q2.93,33.12,5.86,66.23c.37,4.21,7,4.25,6.61,0q-2.94-33.11-5.86-66.23c-.38-4.2-7-4.24-6.61,0"/>
<path d="M406.62,26.38q1.65,24.51,4.39,48.91c.47,4.18,7.09,4.23,6.61,0q-2.76-24.4-4.39-48.91c-.28-4.22-6.89-4.25-6.61,0"/>
<path d="M427.36,19.45,428.87,81c.1,4.25,6.71,4.26,6.61,0q-.76-30.78-1.51-61.58c-.1-4.24-6.71-4.26-6.61,0"/>
<path d="M450.54,17.12q.56,32.53,1.09,65.07c.07,4.25,6.68,4.26,6.61,0q-.54-32.53-1.09-65.07c-.07-4.25-6.68-4.26-6.61,0"/>
<path d="M471.29,3.19q1.06,51.11,2.14,102.21c.09,4.25,6.7,4.26,6.61,0Q479,54.29,477.9,3.19c-.09-4.25-6.7-4.26-6.61,0"/>
<path d="M494.29,4.37a684.37,684.37,0,0,1,5,102.19c-.1,4.25,6.5,4.25,6.61,0a683,683,0,0,0-5-102.19c-.52-4.16-7.13-4.21-6.6,0"/>
<path d="M516.57,6.65q2.74,50.51,1.45,101.08c-.11,4.25,6.5,4.25,6.61,0q1.29-50.57-1.45-101.08c-.23-4.23-6.84-4.25-6.61,0"/>
<path d="M542.87,11.29c2.45,29.88-1.15,59.79,1.23,89.54.34,4.21,6.95,4.25,6.61,0-2.38-29.76,1.22-59.66-1.24-89.54-.34-4.21-7-4.25-6.6,0"/>
<path d="M567.58,11.26a657.52,657.52,0,0,1,4.36,82.52c-.05,4.26,6.56,4.26,6.6,0a655.63,655.63,0,0,0-4.35-82.52c-.49-4.18-7.1-4.23-6.61,0"/>
<path d="M599.54,6.67V93.79c0,4.26,6.61,4.26,6.61,0V6.67c0-4.26-6.61-4.26-6.61,0"/>
<path d="M623.25,11.31q-1.37,36.59-.76,73.19c.07,4.25,6.68,4.26,6.61,0q-.61-36.61.76-73.19c.16-4.25-6.45-4.25-6.61,0"/>
<path d="M652.18,13.64Q651.49,52,650.81,90.3c-.08,4.25,6.53,4.25,6.6,0q.69-38.34,1.37-76.66c.08-4.26-6.53-4.26-6.6,0"/>
<path d="M675.13,17.14a559.6,559.6,0,0,0,.27,74.39c.29,4.22,6.9,4.25,6.6,0a561.3,561.3,0,0,1-.26-74.39c.27-4.25-6.34-4.23-6.61,0"/>
<path d="M693.13,18.26l2.73,77.88c.15,4.24,6.75,4.26,6.6,0l-2.73-77.88c-.14-4.24-6.75-4.26-6.6,0"/>
<path d="M714.34,17.1q-.65,40.71,1,81.37c.17,4.24,6.78,4.26,6.61,0q-1.63-40.66-1-81.37c.07-4.25-6.54-4.25-6.61,0"/>
<path d="M738.8,17.12q.12,37.21,2.22,74.36c.24,4.23,6.85,4.26,6.61,0q-2.11-37.14-2.22-74.36c0-4.25-6.62-4.26-6.61,0"/>
<path d="M762.1,24.07Q760.44,56,760.61,88c0,4.25,6.64,4.26,6.61,0Q767,56,768.7,24.07c.22-4.25-6.38-4.24-6.6,0"/>
<path d="M784.06,17.11q.27,34.28.55,68.55c0,4.25,6.65,4.26,6.61,0l-.55-68.55c0-4.25-6.64-4.26-6.61,0"/>
<path d="M802.27,19.43q2.72,33.66,2.38,67.39c0,4.26,6.56,4.26,6.6,0q.33-33.76-2.37-67.39c-.34-4.21-7-4.25-6.61,0"/>
<path d="M822.41,19.46A455.52,455.52,0,0,1,824,85.64c-.21,4.25,6.39,4.24,6.6,0A454.11,454.11,0,0,0,829,19.46c-.4-4.19-7-4.23-6.61,0"/>
<path d="M843.25,24.07l2.28,68.56c.14,4.24,6.74,4.26,6.6,0Q851,58.34,849.86,24.07c-.14-4.24-6.75-4.26-6.61,0"/>
<path d="M860,24.06q2.93,33.12,5.86,66.23c.37,4.21,7,4.25,6.61,0q-2.94-33.11-5.86-66.23c-.38-4.2-7-4.24-6.61,0"/>
<path d="M877.91,26.38q1.65,24.51,4.39,48.91c.47,4.18,7.09,4.23,6.61,0q-2.76-24.4-4.39-48.91c-.28-4.22-6.89-4.25-6.61,0"/>
<path d="M898.65,19.45q.76,30.79,1.51,61.58c.1,4.25,6.71,4.26,6.6,0l-1.5-61.58c-.1-4.24-6.71-4.26-6.61,0"/>
<path d="M921.83,17.12q.55,32.53,1.09,65.07c.08,4.25,6.68,4.26,6.61,0q-.54-32.53-1.09-65.07c-.07-4.25-6.68-4.26-6.61,0"/>
</g>    
</symbol>
<symbol id="tictacs" viewBox="0 0 467.82 253.14">
<title>elongated dots</title>
<g fill="currentColour">
<path d="M246.45,145.52c-3.84,4.53-5.45,10.78-8.65,15.8-5.43,8.53,8.45,16.65,13.52,7.91.13-.21.25-.43.37-.64a.3.3,0,0,0,0-.08c3.09-5.4,6.34-11.75,7.14-17.84.82-6.26-8.55-9.72-12.42-5.15"/>
<path d="M295.41,123c-4,0-6.65,2.6-7.73,6-.07.1-.17.24-.33.51a11.24,11.24,0,0,0-.93,1.91,20.1,20.1,0,0,0-1.64,3.35c.41-1-.81,1.52-1,1.88-1.36,2.69-3.52,5.86-3.37,8.93.26,5.69,6.8,10.6,12.14,7,3.16-2.14,4.38-5.53,6-8.82.31-.63.65-1.21.93-1.86s.54-1.29.79-1.95l.57-.77q1.23-3.28.66-1.34a12.31,12.31,0,0,0,.66-1.1,13.42,13.42,0,0,0,1.42-5.49c.51-4.46-4.12-8.22-8.21-8.22"/>
<path d="M293.57,175.34c-5.95,7.69-10.92,15.85-14.05,25.12l.19-.11a7.39,7.39,0,0,0,1.88,8c4.67,4.66,11.29,1.88,13.48-3.56a99.22,99.22,0,0,1,11-19.76c5.17-7.37-7-16.77-12.49-9.64"/>
<path d="M342.84,139.08l-.13,0a7,7,0,0,0-6.82,1.81,22.69,22.69,0,0,0-3.27,5.3c-.4.82-.83,1.62-1.3,2.4a1.19,1.19,0,0,1-.09.15c-.18.16-.26.22,0,0l-.36.53c-2.2,2.44-3.07,5.71-1.19,8.91A7.61,7.61,0,0,0,340,160.89c2.44-1.46,3.92-3.88,5.06-6.4a31.64,31.64,0,0,0,2.57-6.83l0,0a6.92,6.92,0,0,0-4.74-8.61"/>
<path d="M377.39,121.14a47.69,47.69,0,0,0-3.25,6.07c-1.22,2.28-2.79,4.85-3.38,7.36-1.71,7.4,7.21,13,12.83,7.47,2-1.91,3-4.42,4.2-6.85a36,36,0,0,0,3.18-8.33c1.56-8.52-8.55-12.54-13.58-5.72"/>
<path d="M368.43,164.67c-2.26,1.38-3.48,4-4.7,6.22a34.52,34.52,0,0,0-3.18,7.17c-1.26,4.76,5.62,6.5,7.26,2,.68-1.86,1.4-3.68,2.24-5.47,1-2.11,2.44-4.07,3.1-6.3a3.24,3.24,0,0,0-4.72-3.62"/>
<path d="M341.32,196.08c-5,3.46-7.75,10.19-10.33,15.5l.16,0a5.57,5.57,0,0,0,.74,7.05c3.37,3.37,8.05,1.31,9.66-2.55,2.17-5.18,6.13-10.43,6.42-16.15.16-3.2-3.94-5.71-6.65-3.81"/>
<path d="M225.52,123.35a4.08,4.08,0,0,0-4.94.64c-2.45,2.72-3.27,6.65-5.05,9.82-2.88,5.12,5.23,9.75,7.81,4.56a55,55,0,0,0,2.22-5.25A31.21,31.21,0,0,0,227.4,128a4.21,4.21,0,0,0-1.88-4.6"/>
<path d="M268.43,179.41l-.13,0a4.51,4.51,0,0,0-4.44,1.17,8,8,0,0,0-1.19,1.85c-3.19,4.18-8,11.39-3.87,15.69a4.42,4.42,0,0,0,6.14,0c1.71-1.48,1.95-4.32,3-6.28.61-1.12,1.31-2.19,2-3.27a11.79,11.79,0,0,0,.81-1.42c.16-.38.32-.75.47-1.13a4.07,4.07,0,0,0,.07-.42,4.64,4.64,0,0,0-2.9-6.16"/>
<path d="M312.34,220.29c-.88-1.12-2.65-.83-3.57,0a7.72,7.72,0,0,0-1.65,2.86,13.09,13.09,0,0,1-2.64,3.67c-2,2.06-2.13,5.56-4.43,7.46-3.37,2.79,1.45,7.55,4.78,4.79,2.77-2.28,3-6.1,5.13-8.73s4.9-6.83,2.38-10.05"/>
<path d="M365.45,231c-3.76,4.71-7.82,10.2-9.41,16.14-1,3.82,3.38,7.69,6.93,5.33,2.55-1.7,4.14-4.89,5.51-7.55,1.88-3.62,4.49-6.41,4.93-10.63.41-3.9-5.49-6.39-8-3.29"/>
<path d="M398.45,206.59c-2.31,4.52-5.41,8.92-7.16,13.69-.9,2.45,2.78,4.64,4.44,2.59,3.2-3.91,5.36-8.93,7.59-13.44,1.59-3.24-3.2-6.09-4.87-2.84"/>
<path d="M385.13,193.85a4.61,4.61,0,0,0-4.26-3.24c-3.58-.3-5.59,2.79-6.81,5.69.22-.56.17-.55-.13,0s-.59.87-.89,1.3a17.58,17.58,0,0,0-1.81,3.5c-1.16,2.78,1.23,6.07,3.85,6.79,3.07.84,5.76-1,6.78-3.86-.4,1.13.45-.69.6-.92a20.73,20.73,0,0,0,1.27-2.24c.25-.6.41-1,.49-1.17.24-.54.47-1.09.68-1.65-.29.66-.16.33.41-1a5.39,5.39,0,0,0-.18-3.25"/>
<path d="M384.22,199.73a.87.87,0,0,1-.07.17c.18-.41.19-.44.07-.17"/>
<path d="M418.52,148.64l-.38.09a4,4,0,0,0-2.1,1.36c-4.79,3.73-6.53,10-10,14.88-4,5.52,4.89,12.24,9.37,7.23l.39-.42a5.46,5.46,0,0,0,.53-.82l0,0c3.22-4.58,5.17-10.16,7.74-15.14a5,5,0,0,0-5.54-7.21"/>
<path d="M265.1,105.37c-.82-1.82-3.58-1.56-4.47,0s-1.23,3.75-2.09,5.53c-1,1.95-2.17,3.76-2.94,5.79-1.27,3.38,3.76,5.08,5.57,2.34a39,39,0,0,0,3.19-6.48c1-2.36,1.85-4.73.74-7.18"/>
<path d="M439.9,183.74a40.18,40.18,0,0,0-6.7,12.16c-2.39,6.7,6.84,11.34,11.5,6.7l.16-.16a6.76,6.76,0,0,0,1.87-3.59l.11-.23c.41-.86.87-1.69,1.34-2.52a51.93,51.93,0,0,0,3.05-5.76c2.59-6.25-7.11-11.64-11.33-6.6"/>
<path d="M262.6,27.83c-3.83,4.52-5.44,10.78-8.64,15.8-5.43,8.53,8.45,16.65,13.52,7.91.13-.21.25-.43.37-.64l0-.08C271,45.42,274.23,39.07,275,33c.82-6.26-8.55-9.72-12.43-5.15"/>
<path d="M311.57,5.29c-4,0-6.65,2.6-7.73,6a3.77,3.77,0,0,0-.33.52,11.14,11.14,0,0,0-.93,1.9,20.61,20.61,0,0,0-1.64,3.36c.41-1.05-.81,1.52-1,1.88-1.35,2.69-3.51,5.86-3.36,8.93.26,5.69,6.79,10.6,12.13,7,3.16-2.15,4.38-5.53,6-8.82.31-.63.64-1.21.92-1.86s.55-1.3.8-2l.57-.76q1.23-3.28.66-1.34c.24-.36.46-.73.66-1.1a13.63,13.63,0,0,0,1.42-5.5c.51-4.45-4.12-8.21-8.21-8.21"/>
<path d="M309.73,57.65c-6,7.69-10.92,15.85-14.05,25.12l.18-.11a7.42,7.42,0,0,0,1.89,8c4.67,4.66,11.28,1.88,13.47-3.56a99.34,99.34,0,0,1,11-19.77c5.17-7.36-7-16.77-12.49-9.63"/>
<path d="M359,21.39l-.14,0a6.92,6.92,0,0,0-6.81,1.81,22.48,22.48,0,0,0-3.27,5.3c-.41.81-.83,1.62-1.3,2.4l-.09.15c-.18.16-.27.22,0,0-.13.2-.29.42-.37.53-2.2,2.44-3.06,5.71-1.18,8.91a7.61,7.61,0,0,0,10.32,2.71c2.44-1.46,3.92-3.88,5.06-6.4A31.84,31.84,0,0,0,363.76,30l0,0A6.93,6.93,0,0,0,359,21.39"/>
<path d="M393.55,3.45a47,47,0,0,0-3.25,6.06c-1.22,2.29-2.8,4.86-3.38,7.36-1.72,7.41,7.21,13,12.83,7.47,1.95-1.91,3-4.41,4.2-6.84a36.9,36.9,0,0,0,3.18-8.33c1.56-8.52-8.55-12.54-13.58-5.72"/>
<path d="M384.59,47c-2.26,1.38-3.48,4-4.7,6.22a34.44,34.44,0,0,0-3.18,7.16c-1.26,4.77,5.62,6.51,7.26,2,.68-1.85,1.4-3.67,2.24-5.47,1-2.1,2.44-4.06,3.1-6.29A3.24,3.24,0,0,0,384.59,47"/>
<path d="M357.48,78.38c-5,3.47-7.75,10.2-10.34,15.51l.17,0a5.54,5.54,0,0,0,.74,7c3.37,3.38,8,1.32,9.66-2.54,2.17-5.19,6.13-10.43,6.42-16.15.16-3.2-3.94-5.71-6.65-3.82"/>
<path d="M241.68,5.66a4.08,4.08,0,0,0-4.94.63c-2.45,2.73-3.27,6.66-5.05,9.82-2.88,5.13,5.23,9.76,7.81,4.57a56.32,56.32,0,0,0,2.22-5.26,31.43,31.43,0,0,0,1.84-5.16,4.21,4.21,0,0,0-1.88-4.6"/>
<path d="M284.59,61.72l-.13,0A4.51,4.51,0,0,0,280,62.86a8,8,0,0,0-1.19,1.85c-3.19,4.17-8,11.39-3.87,15.69a4.4,4.4,0,0,0,6.13,0c1.72-1.48,2-4.32,3.05-6.29.61-1.11,1.31-2.18,2-3.26a10.65,10.65,0,0,0,.82-1.42c.16-.38.32-.75.47-1.13,0-.19.05-.27.07-.42a4.64,4.64,0,0,0-2.9-6.16"/>
<path d="M328.49,102.6c-.87-1.13-2.64-.84-3.56,0a7.88,7.88,0,0,0-1.66,2.86,12.87,12.87,0,0,1-2.63,3.66c-2,2.07-2.13,5.56-4.44,7.47-3.37,2.78,1.45,7.55,4.79,4.79,2.76-2.28,3-6.11,5.13-8.73s4.9-6.83,2.37-10.05"/>
<path d="M381.61,113.25c-3.76,4.72-7.82,10.2-9.41,16.15-1,3.81,3.38,7.69,6.93,5.33,2.55-1.7,4.14-4.89,5.51-7.55,1.88-3.62,4.49-6.41,4.93-10.63.41-3.9-5.49-6.39-8-3.3"/>
<path d="M414.61,88.9c-2.31,4.52-5.41,8.92-7.16,13.69-.9,2.45,2.77,4.64,4.44,2.59,3.2-3.91,5.36-8.94,7.59-13.44,1.59-3.24-3.21-6.09-4.87-2.84"/>
<path d="M401.29,76.16A4.61,4.61,0,0,0,397,72.92c-3.59-.3-5.6,2.79-6.81,5.69.21-.56.17-.55-.13,0s-.59.88-.89,1.31a17.32,17.32,0,0,0-1.81,3.5c-1.17,2.78,1.23,6.06,3.84,6.79,3.08.84,5.77-1,6.79-3.86-.41,1.13.45-.69.6-.92a21.63,21.63,0,0,0,1.27-2.25l.49-1.16c.24-.54.47-1.1.68-1.66-.3.67-.16.34.4-1a5.31,5.31,0,0,0-.17-3.25"/>
<path d="M400.38,82c0,.06,0,.11-.07.17.17-.42.19-.44.07-.17"/>
<path d="M434.67,31l-.37.09a4,4,0,0,0-2.1,1.36c-4.79,3.73-6.54,10-10,14.88-4,5.52,4.9,12.24,9.38,7.23l.39-.43a4.64,4.64,0,0,0,.52-.81l0,0c3.22-4.58,5.16-10.16,7.73-15.14A5,5,0,0,0,434.67,31"/>
<path d="M292.17,9.49c-.82-1.82-3.58-1.56-4.48,0s-1.22,3.75-2.09,5.53c-.94,1.95-2.17,3.76-2.93,5.79-1.27,3.39,3.76,5.09,5.56,2.34a39.31,39.31,0,0,0,3.2-6.47c1-2.37,1.85-4.74.74-7.19"/>
<path d="M456.06,66.05a40.3,40.3,0,0,0-6.71,12.16c-2.38,6.7,6.84,11.34,11.51,6.7l.16-.16a6.91,6.91,0,0,0,1.87-3.59l.11-.23c.4-.87.87-1.7,1.34-2.53a51.79,51.79,0,0,0,3.05-5.75c2.59-6.25-7.11-11.65-11.33-6.6"/>
<path d="M31.53,41.3c-3.83,4.53-5.45,10.78-8.65,15.8C17.45,65.63,31.33,73.75,36.41,65c.12-.21.24-.43.37-.64l0-.08c3.09-5.4,6.35-11.75,7.14-17.84.82-6.26-8.55-9.72-12.42-5.15"/>
<path d="M80.49,18.76c-4,0-6.65,2.6-7.72,6a6,6,0,0,0-.34.52,10.88,10.88,0,0,0-.93,1.91,20.9,20.9,0,0,0-1.64,3.35c.41-1.05-.81,1.52-1,1.88-1.35,2.69-3.52,5.86-3.37,8.93.26,5.69,6.8,10.6,12.14,7,3.16-2.15,4.38-5.53,6-8.82.32-.63.65-1.21.93-1.86s.54-1.3.79-2l.57-.77q1.23-3.28.66-1.34a12.31,12.31,0,0,0,.66-1.1A13.27,13.27,0,0,0,88.7,27c.51-4.46-4.12-8.22-8.21-8.22"/>
<path d="M78.65,71.12C72.7,78.81,67.73,87,64.6,96.24l.19-.11a7.4,7.4,0,0,0,1.89,8c4.66,4.66,11.28,1.88,13.47-3.56a99.3,99.3,0,0,1,11-19.77c5.17-7.36-7-16.76-12.49-9.63"/>
<path d="M127.92,34.86l-.13,0A7,7,0,0,0,121,36.63a22.69,22.69,0,0,0-3.27,5.3c-.4.82-.83,1.62-1.3,2.4a1.19,1.19,0,0,1-.09.15c-.18.16-.26.22,0,0l-.36.53c-2.2,2.44-3.07,5.71-1.19,8.91a7.62,7.62,0,0,0,10.33,2.71c2.44-1.46,3.91-3.88,5.05-6.4a31.64,31.64,0,0,0,2.57-6.83l0,0a6.92,6.92,0,0,0-4.74-8.61"/>
<path d="M162.47,16.92A49,49,0,0,0,159.22,23c-1.22,2.28-2.79,4.85-3.38,7.35-1.71,7.41,7.21,13,12.84,7.48,1.95-1.91,3-4.42,4.19-6.85a36.46,36.46,0,0,0,3.19-8.33c1.56-8.52-8.56-12.54-13.59-5.72"/>
<path d="M153.51,60.45c-2.25,1.38-3.47,4-4.7,6.22a34.44,34.44,0,0,0-3.18,7.16c-1.26,4.77,5.62,6.51,7.26,2,.68-1.86,1.4-3.68,2.24-5.48,1-2.1,2.44-4.06,3.1-6.29a3.24,3.24,0,0,0-4.72-3.62"/>
<path d="M126.4,91.86c-5,3.46-7.75,10.19-10.33,15.5l.16,0a5.57,5.57,0,0,0,.74,7.05c3.37,3.37,8,1.31,9.66-2.55,2.17-5.19,6.13-10.43,6.42-16.15.17-3.2-3.93-5.71-6.65-3.81"/>
<path d="M10.6,19.13a4.08,4.08,0,0,0-4.93.63C3.21,22.49,2.39,26.42.61,29.58c-2.88,5.13,5.23,9.76,7.82,4.57.84-1.7,1.54-3.47,2.21-5.25a30.64,30.64,0,0,0,1.84-5.17,4.19,4.19,0,0,0-1.88-4.6"/>
<path d="M53.51,75.19l-.13,0a4.51,4.51,0,0,0-4.44,1.18,8,8,0,0,0-1.19,1.85c-3.19,4.17-8,11.39-3.86,15.69a4.4,4.4,0,0,0,6.13,0c1.71-1.48,1.95-4.32,3-6.29.61-1.11,1.31-2.18,2-3.26a11.79,11.79,0,0,0,.81-1.42l.48-1.13c0-.19,0-.27.06-.42a4.64,4.64,0,0,0-2.9-6.16"/>
<path d="M97.42,116.07c-.88-1.13-2.65-.83-3.57,0a7.72,7.72,0,0,0-1.65,2.86,12.91,12.91,0,0,1-2.64,3.66c-2,2.07-2.12,5.56-4.43,7.47-3.37,2.78,1.45,7.55,4.78,4.79,2.77-2.28,3-6.11,5.13-8.73s4.9-6.83,2.38-10.05"/>
<path d="M150.53,126.73c-3.76,4.71-7.82,10.2-9.41,16.14-1,3.81,3.38,7.69,6.94,5.33,2.54-1.7,4.13-4.89,5.51-7.55,1.87-3.62,4.49-6.41,4.92-10.63.41-3.9-5.49-6.39-8-3.29"/>
<path d="M183.53,102.37c-2.31,4.52-5.41,8.92-7.16,13.69-.9,2.45,2.78,4.64,4.45,2.59,3.19-3.91,5.35-8.94,7.58-13.44,1.6-3.24-3.2-6.09-4.87-2.84"/>
<path d="M170.21,89.63A4.61,4.61,0,0,0,166,86.39c-3.58-.3-5.59,2.79-6.81,5.69.22-.56.17-.55-.13,0s-.58.87-.89,1.3a17.84,17.84,0,0,0-1.81,3.5c-1.16,2.78,1.23,6.07,3.85,6.79,3.07.84,5.76-1,6.79-3.86-.41,1.13.44-.69.59-.92a22.66,22.66,0,0,0,1.28-2.24c.24-.6.4-1,.48-1.17.25-.54.47-1.09.68-1.65-.29.66-.16.33.41-1a5.31,5.31,0,0,0-.18-3.25"/>
<path d="M169.3,95.51a1.22,1.22,0,0,1-.07.17c.18-.41.19-.44.07-.17"/>
<path d="M203.6,44.42l-.38.09a4,4,0,0,0-2.1,1.36c-4.79,3.73-6.53,10-10,14.88C187.1,66.27,196,73,200.46,68c.14-.14.26-.29.39-.43a5.37,5.37,0,0,0,.53-.81l0,0c3.23-4.58,5.17-10.16,7.74-15.14a5,5,0,0,0-5.54-7.21"/>
<path d="M61.09,23c-.82-1.81-3.58-1.56-4.48,0s-1.22,3.75-2.08,5.53c-1,2-2.17,3.76-2.94,5.79-1.27,3.39,3.76,5.09,5.56,2.35a39,39,0,0,0,3.2-6.48c1-2.37,1.85-4.73.74-7.19"/>
<path d="M225,79.52a40.06,40.06,0,0,0-6.7,12.16c-2.39,6.7,6.84,11.34,11.5,6.7l.16-.16a6.76,6.76,0,0,0,1.87-3.59l.11-.23c.41-.87.88-1.69,1.34-2.52a51.15,51.15,0,0,0,3.05-5.76c2.59-6.25-7.11-11.64-11.33-6.6"/>
</g>
</symbol>
<symbol id="hail-of-arrows" viewBox="0 0 253.65 452.43">
<title>five arrows</title>
<g id="hail-of-arrows-bits">
<path d="M15.85,147.41q94.35-10.23,189.2-14.66l-11.21-17a128.25,128.25,0,0,1-27,25.55l11.21,17c5.14-7,12.65-14.52,16.23-22.44,2.69-6-.44-11.13-3.89-16.11-4.21-6.1-8.74-9.22-15.09-12.86L145.89,90c-2.19-1.25,1.62,7.07,1.78,7.35,2,3.46,4.55,7.61,8.11,9.65L173.09,117l6.92,4c1,.56,8.63,3.65,9.26,4.45l-5.68-11.25c.78,8.58-11.72,20.36-16.73,27.2-2.13,2.91,9,18.58,11.21,17a128.25,128.25,0,0,0,27-25.55c2.39-3-7.73-17.15-11.21-17Q99,120.18,4.64,130.41c-.1,0,5.9,17.57,11.21,17"/>
<path d="M11.21,243q94.37-10.22,189.2-14.65-5.59-8.5-11.21-17a128.7,128.7,0,0,1-27,25.55l11.2,17c5.14-7,12.65-14.52,16.23-22.44,2.69-6-.44-11.14-3.88-16.12-4.21-6.09-8.75-9.22-15.1-12.85l-29.42-16.85c-2.2-1.26,1.61,7.06,1.77,7.34,2,3.47,4.55,7.62,8.11,9.66l17.31,9.91,6.93,4c1,.56,8.62,3.65,9.25,4.45L179,209.68c.79,8.58-11.72,20.35-16.72,27.2-2.13,2.91,9,18.58,11.2,17a128.51,128.51,0,0,0,27-25.55c2.39-3-7.73-17.16-11.21-17Q94.4,215.76,0,226c-.1,0,5.9,17.57,11.21,17"/>
<path d="M64.09,342.2q94.36-10.23,189.2-14.66l-11.21-17a128.44,128.44,0,0,1-27,25.55q5.59,8.5,11.2,17c5.14-7,12.65-14.52,16.23-22.44,2.69-6-.44-11.13-3.88-16.11-4.21-6.1-8.75-9.23-15.1-12.86l-29.42-16.85c-2.2-1.25,1.61,7.07,1.77,7.35,2,3.46,4.55,7.61,8.11,9.65l17.31,9.91,6.93,4c1,.56,8.62,3.65,9.25,4.45l-5.68-11.25c.79,8.58-11.72,20.36-16.72,27.2-2.14,2.91,8.95,18.58,11.2,17a128.25,128.25,0,0,0,27-25.55c2.39-3-7.73-17.15-11.21-17Q147.28,315,52.88,325.2c-.1,0,5.9,17.57,11.21,17"/>
<path d="M32.08,441.42q94.37-10.23,189.21-14.66l-11.21-17a128.49,128.49,0,0,1-27,25.55q5.6,8.51,11.21,17c5.13-7,12.64-14.53,16.22-22.45,2.7-5.95-.44-11.13-3.88-16.11-4.21-6.1-8.74-9.22-15.09-12.86l-29.43-16.85c-2.2-1.25,1.62,7.07,1.78,7.35,2,3.46,4.55,7.61,8.11,9.65L189.33,411l6.92,4c1,.56,8.62,3.65,9.25,4.46q-2.83-5.62-5.68-11.26c.79,8.58-11.71,20.36-16.72,27.2-2.13,2.92,9,18.59,11.21,17a128.8,128.8,0,0,0,27-25.56c2.38-3-7.74-17.15-11.21-17q-94.82,4.43-189.21,14.66c-.09,0,5.91,17.56,11.21,17"/>
<path d="M15.85,57.49q94.35-10.22,189.2-14.65l-11.21-17a128.55,128.55,0,0,1-27,25.56l11.21,17c5.14-7,12.65-14.52,16.23-22.45,2.69-5.95-.44-11.13-3.89-16.11-4.21-6.09-8.74-9.22-15.09-12.85L145.89.13c-2.19-1.26,1.62,7.06,1.78,7.34,2,3.46,4.55,7.62,8.11,9.65L173.09,27,180,31c1,.56,8.63,3.65,9.26,4.45L183.59,24.2c.78,8.58-11.72,20.35-16.73,27.2-2.13,2.91,9,18.58,11.21,17a128.51,128.51,0,0,0,27-25.55c2.39-3-7.73-17.16-11.21-17Q99,30.28,4.64,40.5c-.1,0,5.9,17.57,11.21,17"/>
</g>
</symbol>
<symbol id="dots" viewBox="0 0 1617.7 113.84">
<title>polka dots</title>
<path d="M576.78,98.83c9.33-5.58-.73-21.88-8.35-10.36-4.51,6.78.46,15,8.35,10.36"/>
<path d="M581.09,55.13c14.16-.68,7.56-20.39-3.24-16.13-9,3.55-6.54,16.6,3.24,16.13"/>
<path d="M561,19.31c7.57-7.25-6.44-22.81-11.16-10.49-2.53,6.65,4.54,16.84,11.16,10.49"/>
<path d="M608.05,22.26c10.24-3.84,2-19.43-5.7-13.7-5.34,4-2.49,16.81,5.7,13.7"/>
<path d="M547,70c8-8.21-6.92-19.85-11.82-9.22-3.7,8,5.18,16,11.82,9.22"/>
<path d="M517.81,99.44c9.34-5.58-.73-21.88-8.34-10.36-4.5,6.78.46,15,8.34,10.36"/>
<path d="M608.06,89.33c-3.6,7.85,8.62,15.59,15,10.69,12.3-9.51-10.48-20.48-15-10.69"/>
<path d="M649.83,83.41c-3.69,8,5.16,16,11.83,9.2,8-8.19-6.93-19.85-11.83-9.2"/>
<path d="M628.52,60.71c9.32-5.57-.74-21.87-8.36-10.35-4.5,6.79.47,15,8.36,10.35"/>
<path d="M651.35,22.18C660.69,16.6,650.63.3,643,11.82c-4.5,6.79.46,15.05,8.34,10.36"/>
<path d="M386.92,62.07c13.47-5.53,0-23.25-10-15.59-9,6.9.18,19.61,10,15.59"/>
<path d="M384.08,21.21c10.25-4.45,3.34-18.72-5.34-13.8-7.05,4-4.12,17.91,5.34,13.8"/>
<path d="M1359.09,38.65c7.57-7.26-6.43-22.82-11.16-10.5-2.53,6.65,4.54,16.84,11.16,10.5"/>
<path d="M386.14,89c-9,3.56-6.55,16.61,3.21,16.15,14.18-.69,7.58-20.41-3.21-16.15"/>
<path d="M496.79,72.31c10.26-4.46,3.34-18.73-5.34-13.8-7.05,4-4.12,17.91,5.34,13.8"/>
<path d="M434.14,21.14c13-3.62,3-18.08-5.29-14-8.49,4.11-4.34,16.7,5.29,14.05"/>
<path d="M486.29,18.91c10.24-3.84,2-19.43-5.69-13.7-5.33,4-2.49,16.8,5.69,13.7"/>
<path d="M462.67,49.09c8.38-8.57-6.62-22.82-12.13-8.78-3.49,8.93,4.95,16.07,12.13,8.78"/>
<path d="M463.55,99.79c4.4,3.83,9.52,2.52,11.8-2.83,8.2-19.23-24.88-8.51-11.8,2.83"/>
<path d="M749.62,98.71c6.68-11.34-15.91-15.87-16.5-3.42-.48,9.58,12.19,10.76,16.5,3.42"/>
<path d="M708,50.12c-.46,9.55,12.2,10.74,16.52,3.41,6.67-11.35-15.91-15.86-16.52-3.41"/>
<path d="M747.28,16.51c8.2-19.24-24.87-8.51-11.79,2.83,4.4,3.85,9.51,2.53,11.79-2.83"/>
<path d="M693.64,82.66c-4.5,6.79.46,15.07,8.34,10.36,9.34-5.57-.72-21.87-8.34-10.36"/>
<path d="M325,100.28c8-8.21-6.93-19.87-11.84-9.23-3.68,8,5.18,16,11.84,9.23"/>
<path d="M196.33,17.44c8.38-8.56-6.61-22.83-12.11-8.76-3.51,8.93,4.94,16,12.11,8.76"/>
<path d="M188.37,84.79c13.45-5.52-.05-23.25-10-15.58-9,6.9.17,19.6,10,15.58"/>
<path d="M280.18,32.56c9.33-5.58-.73-21.89-8.35-10.37-4.49,6.79.47,15.06,8.35,10.37"/>
<path d="M272.77,60.68c5.15-12.71-19-15.1-16.22-1.83,1.52,7.2,13.43,8.76,16.22,1.83"/>
<path d="M239.1,82.24c8.19-19.23-24.88-8.51-11.82,2.85,4.42,3.83,9.53,2.49,11.82-2.85"/>
<path d="M346.58,79.8c-6,6.91,2.81,18.13,10.65,12.33,9.47-7.06-3.47-20.62-10.65-12.33"/>
<path d="M353,46.09c5.19-12.52-20.53-17.4-18-3,1.37,7.92,14.77,10.9,18,3"/>
<path d="M268,97.68c4.4,3.84,9.52,2.53,11.79-2.83C288,75.62,254.9,86.34,268,97.68"/>
<path d="M308.12,61.72c9.85-11.9-9.36-19.07-12.78-5.55-2.43,9.59,6.79,12.77,12.78,5.55"/>
<path d="M1003,45.28c5.19-12.53-20.53-17.41-18-3,1.37,7.93,14.77,10.9,18,3"/>
<path d="M990.22,108.67c9.47-7.08-3.47-20.63-10.65-12.34-6,6.9,2.81,18.13,10.65,12.34"/>
<path d="M966.11,72.54c8.21-19.23-24.86-8.51-11.79,2.84,4.4,3.83,9.52,2.52,11.79-2.84"/>
<path d="M1012.19,84.47c10.25-4.45,3.35-18.73-5.34-13.8-7.05,4-4.12,17.91,5.34,13.8"/>
<path d="M1046.88,106.56c8-8.22-6.93-19.85-11.84-9.22-3.69,8,5.18,16,11.84,9.22"/>
<path d="M1113,49.48c10.24-3.84,2-19.43-5.7-13.7-5.33,4-2.48,16.8,5.7,13.7"/>
<path d="M1122.48,68.16c-7,4-4.13,17.92,5.34,13.8,10.25-4.45,3.34-18.73-5.34-13.8"/>
<path d="M1091.06,111.64c4.41,3.83,9.53,2.51,11.81-2.83,8.2-19.24-24.89-8.52-11.81,2.83"/>
<path d="M1269.47,22.92c13-3.63,3-18.09-5.3-14.05-8.49,4.11-4.34,16.69,5.3,14.05"/>
<path d="M1093,70.71c8.38-8.56-6.61-22.81-12.12-8.77-3.5,8.93,4.95,16.07,12.12,8.77"/>
<path d="M421.35,79.5c-3.7,8,5.18,16,11.84,9.22,8-8.22-6.93-19.85-11.84-9.22"/>
<path d="M860.92,105.13c4.42,3.84,9.52,2.5,11.81-2.84,8.2-19.23-24.88-8.52-11.81,2.84"/>
<path d="M924.74,19.88c5.15-12.7-19-15.1-16.22-1.83,1.51,7.2,13.42,8.76,16.22,1.83"/>
<path d="M869.16,22.86C877.54,14.29,862.54,0,857,14.09c-3.5,8.93,4.94,16.05,12.12,8.77"/>
<path d="M918.58,55.2c-2.44,9.58,6.78,12.76,12.78,5.54,9.85-11.9-9.37-19.07-12.78-5.54"/>
<path d="M824.43,41.33a7.79,7.79,0,0,0,6.19-2.74c5.9-6.48-2.57-16.74-10.16-13.62-8.41,3.45-4.44,16,4,16.36"/>
<path d="M927.61,109.8c8-8.2-6.93-19.86-11.84-9.22-3.69,8,5.17,16,11.84,9.22"/>
<path d="M788.48,93.93c-3.61,7.84,8.61,15.58,15,10.7,12.32-9.53-10.48-20.49-15-10.7"/>
<path d="M792.48,69c9.32-5.57-.74-21.88-8.35-10.37-4.51,6.78.46,15.07,8.35,10.37"/>
<path d="M796.8,19.84c7.56-7.26-6.44-22.82-11.17-10.49-2.54,6.64,4.53,16.83,11.17,10.49"/>
<path d="M42.78,85.57c9.34-5.58-.73-21.87-8.34-10.36-4.5,6.78.46,15.07,8.34,10.36"/>
<path d="M50.87,41.66c12.32-9.53-10.48-20.49-15-10.7-3.63,7.86,8.61,15.59,15,10.7"/>
<path d="M76.37,49.59c-7.05,4-4.12,17.9,5.34,13.79C92,58.93,85.05,44.65,76.37,49.59"/>
<path d="M16.38,20c10.23-3.86,2-19.44-5.7-13.71-5.34,4-2.49,16.8,5.7,13.71"/>
<path d="M13.53,47.75C5.41,41.38-4.42,54.37,2.57,61s20.57-5.68,11-13.24"/>
<path d="M14.1,103.81C20.65,97.11,11,86.45,3.46,91.29-.65,93.93-.76,99.47,1.35,102.8c2.66,4.21,9.53,4.29,12.75,1"/>
<path d="M119.55,46.85C126.23,35.5,103.65,31,103,43.44c-.47,9.55,12.19,10.74,16.51,3.41"/>
<path d="M155.26,56.75A7.78,7.78,0,0,0,161.45,54c5.9-6.48-2.56-16.74-10.15-13.62-8.41,3.45-4.44,16,4,16.36"/>
<path d="M141.05,95.19c12.32-9.54-10.48-20.49-15-10.71-3.61,7.85,8.61,15.58,15,10.71"/>
<path d="M77.94,89.11c-.48,9.58,12.2,10.75,16.5,3.43,6.68-11.35-15.91-15.88-16.5-3.43"/>
<path d="M1160.84,106.44c5.2.31,8.86-7.48,2.57-12.84-11.15-9.5-15.85,12-2.57,12.84"/>
<path d="M1539.47,63c13.46-5.53,0-23.25-10-15.59-9,6.9.17,19.61,10,15.59"/>
<path d="M1536.62,22.12c10.26-4.45,3.34-18.72-5.34-13.8-7,4-4.12,17.91,5.34,13.8"/>
<path d="M1538.68,89.9c-9,3.56-6.55,16.61,3.22,16.15,14.17-.69,7.57-20.41-3.22-16.15"/>
<path d="M1586.68,22.05c13-3.62,3-18.08-5.29-14-8.49,4.11-4.34,16.7,5.29,14.05"/>
<path d="M1615.21,50c8.38-8.57-6.62-22.82-12.13-8.78-3.49,8.93,5,16.07,12.13,8.78"/>
<path d="M1477.51,101.19c8-8.21-6.92-19.87-11.84-9.22-3.68,8,5.18,16,11.84,9.22"/>
<path d="M1340.91,85.7c13.45-5.52-.05-23.25-10-15.58-9,6.9.17,19.6,10,15.58"/>
<path d="M1432.72,33.47c9.33-5.58-.73-21.89-8.35-10.37-4.49,6.79.47,15.06,8.35,10.37"/>
<path d="M1425.31,61.59c5.15-12.71-19-15.1-16.22-1.83,1.52,7.2,13.43,8.76,16.22,1.83"/>
<path d="M1391.64,83.15c8.19-19.23-24.88-8.51-11.82,2.85,4.43,3.83,9.53,2.49,11.82-2.85"/>
<path d="M1049.1,57.14c10.25-4.45,3.35-18.72-5.34-13.79-9.2,5.21-6,18.72,5.34,13.79"/>
<path d="M1499.12,80.71c-6,6.91,2.81,18.13,10.65,12.33,9.47-7.06-3.47-20.62-10.65-12.33"/>
<path d="M1501,35.17c5.19-12.53-20.53-17.41-18-3,1.37,7.92,14.77,10.91,18,3"/>
<path d="M1420.52,98.59c4.4,3.84,9.52,2.53,11.79-2.83,8.21-19.23-24.87-8.51-11.79,2.83"/>
<path d="M1460.67,62.63c9.84-11.9-9.37-19.07-12.78-5.55-2.44,9.59,6.78,12.77,12.78,5.55"/>
<path d="M1573.89,80.41c-3.7,8,5.18,16,11.84,9.22,8-8.22-6.93-19.85-11.84-9.22"/>
<path d="M1195.32,86.48c9.34-5.58-.73-21.87-8.34-10.36-4.5,6.78.46,15.07,8.34,10.36"/>
<path d="M1215.06,41.72c12.32-9.54-10.48-20.49-15-10.71-3.63,7.87,8.61,15.6,15,10.71"/>
<path d="M1228.92,50.5c-7.05,4-4.13,17.9,5.34,13.79,10.25-4.45,3.33-18.73-5.34-13.79"/>
<path d="M1168.92,38.25c10.23-3.86,2-19.44-5.7-13.71-5.34,4-2.49,16.8,5.7,13.71"/>
<path d="M1166.07,64.14c-8.12-6.37-18,6.62-11,13.23s20.57-5.68,11-13.23"/>
<path d="M1166.64,104.72c6.55-6.7-3.11-17.36-10.64-12.52-4.11,2.64-4.21,8.18-2.11,11.51,2.66,4.21,9.53,4.29,12.75,1"/>
<path d="M1272.09,47.76c6.68-11.35-15.9-15.86-16.51-3.41-.47,9.55,12.19,10.74,16.51,3.41"/>
<path d="M1040.5,13.47c8-8.19-6.94-19.85-11.84-9.21-3.69,8,5.17,16,11.84,9.21"/>
<path d="M1307.8,57.66a7.81,7.81,0,0,0,6.2-2.74c5.89-6.48-2.57-16.74-10.16-13.62-8.41,3.45-4.44,16,4,16.36"/>
<path d="M1293.59,96.1c12.32-9.54-10.47-20.49-15-10.71-3.61,7.85,8.61,15.58,15,10.71"/>
<path d="M1230.48,90c-.47,9.58,12.2,10.75,16.5,3.43,6.68-11.35-15.9-15.88-16.5-3.43"/>
</symbol>     
<symbol id="tadpole" viewBox="0 0 1437.22 219.81">
<title>squiggle</title>
<path class="ink" d="M52.24,181.94c-7.93,11.82-15.43,34.12-24,37S8.8,217.21,6,213.79-2.62,199,1.37,193.3s11.44-25,18.3-31.27,32.57-31.3,49.73-51.21,55.45-62.61,86.87-85.93S209.43-3,222.58,1.58s30.29,26.16,25.15,53.48-20,103-17.15,104.67,52-26.72,68-35.83,43.43-21.61,62.87-12.52,34.3,39.82,45.73,41,61.74-25,80-34.69S572.39,71.56,605,75s59.44,28.45,68.59,48.36,20,52.35,32.58,55.76,48.59-10.81,72-22.76S886.77,92.6,926.21,81.23s66.3-9.67,91.45,16.49,45.15,53.48,89.74,40.4,93.74-42.68,127.47-39.83,47.44,24.47,61.73,36.42,29.72,15.36,54.87,9.11,56-19.36,69.16-21.64,21.72,1.72,13.15,17.07-56,34.16-78.31,40.4-40.58,11.95-64.59-5.69S1248,125,1216,137s-110.31,44.95-133.75,42.66-52-18.21-67.45-36.41-32-41.53-75.45-26.17-140,72.26-161.76,81.93-42.3,26.17-77.16,14.79-44-42.68-52.59-62.59S625,96,579.82,114.8s-100.6,48.93-121.17,60.31-50.3,16.49-70.88,5.11-26.29-38.68-46.3-35.28-94.32,51.79-108.61,51.79-38.86-22.19-40-36.42,10.27-51.78,16-78.53S219.71,33.42,212.28,30c-3.27-1.5-19.41,5.87-37.72,19.34-23.21,17.07-50.58,43-66.87,62-29.16,34.14-48.58,60.31-55.45,70.56"/>
</symbol>
<symbol id="arrow" viewBox="0 0 48 104">
<title>Scroll down</title>
<g class="ink">
<path d="M7.02490234,4.63574219 L44.4946289,8.44042969 C38.6013997,40.5458984 35.6547852,58.7517904 35.6547852,63.0581055 C35.6547852,67.3644206 36.6756185,67.5738932 38.7172852,63.6865234 L45.5629883,61.3706055 L25.5610352,97.2041016 L9.26025391,60.3681641 L21.0454102,65.7397461 L0.915039062,5.39111328 L7.02490234,4.63574219 Z"></path>
<path d="M23.8037425,96.5026413 C23.8060677,96.6108294 23.8331956,96.7252441 23.8905517,96.8458855 C23.9083786,96.8824671 23.9254304,96.919827 23.9432573,96.9564086 C23.5316886,97.532374 23.1270955,98.1130093 22.7116514,98.6866397 C22.7015753,98.7006497 22.6953746,98.7162163 22.6860736,98.7302263 C20.4770888,92.1260828 18.2820553,85.5180477 16.0908974,78.9076776 C18.6517697,84.7778544 21.221943,90.6425828 23.8037425,96.5026413 M11.9806353,2.98454545 C12.7967971,3.01723538 13.6129589,3.05537363 14.4283456,3.08728522 C15.8436461,3.33012468 17.262822,3.55817583 18.6850982,3.7644337 C18.0332539,3.79712362 17.3814096,3.82436523 16.7295653,3.85472016 C15.1437466,3.58541743 13.5602533,3.29509975 11.9806353,2.98454545 M20.2197614,65.8542787 C20.3460998,65.9149886 20.470113,65.9811468 20.5972265,66.0410783 C20.6189288,66.0511966 20.6398561,66.0511966 20.6615584,66.0574232 C20.6615584,66.0589799 20.6623335,66.0597582 20.6631085,66.0613149 C20.7057381,66.1733947 20.7460424,66.2878094 20.7886719,66.3998891 C21.0180963,66.9968695 21.880763,66.6217136 21.692418,66.028625 C21.635837,65.8488304 21.6001832,65.7313023 21.5691799,65.6402375 C21.3312296,64.8907042 21.0925042,64.1403926 20.8545539,63.3908593 C20.9243113,63.2351929 20.9506641,63.052285 20.8902077,62.8499188 C18.0363542,53.1814839 14.4647744,43.7948051 11.7581866,34.067217 C10.3909412,29.1543881 8.96168927,24.2625741 7.24643188,19.4587116 C6.46127339,17.2599249 5.82105531,14.870447 4.81422325,12.7066852 C3.90350141,10.1156194 2.97107726,7.55724348 1.61700828,5.1521989 C1.61468303,5.14597225 1.61313287,5.1397456 1.61080762,5.13429727 L1.60770729,5.13585394 C1.5720535,5.07203075 1.54027512,5.00742923 1.50384624,4.94438437 C0.991516766,4.05475138 -0.233113455,4.92259109 0.0389404741,5.78031248 C0.404779375,6.93846987 0.767517947,8.09662726 1.13258177,9.25478465 C1.03724663,9.40033266 0.993842013,9.58946723 1.03647155,9.82063171 C2.16576663,15.9881311 4.49643946,21.7415582 6.88369331,27.4840886 C10.7536798,39.5801396 14.8050356,51.6139241 19.5353636,63.4072042 C19.5981453,63.5644272 19.6934804,63.662497 19.7988916,63.7348818 C19.9143789,64.0508844 20.0329665,64.3653304 20.150004,64.6797764 C19.6128719,64.2828273 19.0695391,63.8936615 18.5145801,63.516949 C15.9730848,61.0566429 13.0440484,59.1310505 9.66158869,57.9238583 C9.03764735,57.6996988 8.62452842,58.181486 8.65243139,58.6710566 C8.04941726,58.4951536 7.51383531,59.1528438 7.61304586,59.7140209 C7.5277868,59.9047121 7.49833366,60.1280933 7.56421567,60.3709327 C11.535738,75.0066797 16.7528177,89.2330243 21.9846241,103.450807 C22.1954465,104.023659 23.1418221,104.234587 23.4875089,103.660957 C28.501517,95.3522672 33.4178648,86.9867594 38.2613548,78.5784434 C39.1945541,77.0225585 40.1122516,75.4573337 41.0128974,73.8827689 C43.2575361,70.0588259 45.4347426,66.1944096 47.5235897,62.2770668 C47.6445026,62.0490156 47.6452777,61.8443144 47.5848212,61.6668548 C47.6879072,61.4613753 47.7964187,61.2597874 47.8995047,61.0543079 C48.2661187,60.3203412 47.5584684,59.812869 46.9236759,59.9163871 C46.7283552,59.7241392 46.4400245,59.6299611 46.0912374,59.7692824 C45.7416753,59.9078254 45.3928882,60.0510385 45.043326,60.1911381 C44.8526557,59.8440023 44.4542634,59.6213994 43.9961896,59.819874 C41.5500295,60.8791833 39.1503744,62.0326707 36.7708713,63.2297446 C37.5265767,57.0521269 38.2768565,50.8737308 39.0271363,44.6945564 C40.9981709,31.5975709 43.5915966,18.5939853 46.322212,5.63165115 C46.4787786,4.88912283 45.7912805,4.56455856 45.22237,4.73112152 C45.1805156,4.65017503 45.1448618,4.57234188 45.0913811,4.4867254 C44.8751331,4.14503784 44.4310109,4.10534293 44.0853241,4.20963936 C43.5474169,4.37153233 43.3745735,4.56922855 43.2118062,5.10160735 C43.0645406,5.5833946 43.2335085,5.95699375 43.6621291,6.20605986 C43.7303364,6.24575477 43.7985436,6.28622801 43.8667509,6.32592292 C43.8737266,6.32981458 43.8807024,6.32825792 43.8876781,6.33137124 C43.7892426,6.62791557 43.6900321,6.95714983 43.5915966,7.29961573 C37.2994776,6.59055566 31.0011578,5.92508216 24.7346165,5.07125242 C26.6172917,4.95216769 28.5007419,4.83775294 30.3826421,4.6960966 C33.2023919,4.68986994 36.0159411,4.48283374 38.8108883,3.98781486 C39.0139599,3.95201161 39.1557999,3.85549849 39.2674118,3.73719209 C39.3945253,3.73874875 39.5216388,3.74186208 39.6495274,3.74264041 C41.5198013,3.75742871 43.3838745,3.99014985 45.1479621,4.12713621 C45.2626743,4.13569786 45.6874195,4.47115877 45.8959167,4.50307036 C46.1400676,4.54120861 46.435374,4.3388424 46.444675,4.07732299 C46.4477753,3.99559818 46.4501006,3.91465169 46.4532009,3.83214854 C46.4617268,3.59242242 46.3144612,3.29042977 46.0331062,3.28575978 L45.8556124,3.28342478 C45.7874051,3.28186812 45.7277238,3.29665642 45.6711428,3.31689304 C45.5866588,3.13320679 45.4967492,2.97598381 45.4424934,2.9191656 C44.7883239,2.23034216 42.1917978,2.6257346 41.2973527,2.59537967 C40.5943529,2.57125139 39.8913532,2.5494581 39.1883534,2.52688649 C39.0395376,2.40624509 38.8426666,2.33308192 38.5946403,2.35643187 C38.159044,2.39612678 37.7234476,2.42570338 37.2886264,2.46461996 C34.3851677,2.37277683 31.482484,2.28249037 28.5798004,2.1797506 C24.5974269,2.03809426 20.6166036,1.87230963 16.6365554,1.68784505 C13.2525455,1.1445696 9.87396128,0.525795998 6.49692718,0.00742716721 C5.94661866,-0.0766326433 5.36453177,0.569382567 5.65596276,1.10798802 C4.82042391,1.05973146 3.98410998,1.02392821 3.14934622,0.974114988 C2.29598048,0.921966772 1.85883399,2.31206697 2.80210929,2.57592138 C2.87264179,2.59537967 3.08423929,2.67165616 3.08733962,2.66309451 L3.08656454,2.66387284 L3.01835729,2.63273958 C5.10410408,3.21026161 7.16659839,3.70372383 9.27637273,4.16605279 C8.55089559,4.18940274 7.80681647,4.20107771 7.08133932,4.220536 C5.83965729,4.21664434 4.58867427,4.2353243 3.3485424,4.32249744 C2.2773785,4.3979956 2.52617995,5.97567371 3.56091498,5.95699375 C4.89870723,5.93286547 6.23339916,5.88071726 7.57041633,5.84491401 C13.0006438,5.87993893 18.4735007,6.63492056 23.8479222,7.11203782 C30.2927325,7.68488986 36.7375428,8.24528859 43.1800279,8.83526393 C42.7855109,10.3950404 42.4723776,11.8567471 42.4367238,12.0178618 C41.8763392,14.5093011 41.3159546,17.0007405 40.7555701,19.4929582 C39.6348009,24.475837 38.5140317,29.4587158 37.3932625,34.4423729 C37.2777752,34.9584067 37.585483,35.2681827 37.9737993,35.3592475 C36.2259884,44.9934357 34.9316008,54.7186888 34.3588149,64.4517252 C34.2239505,64.5233317 34.0859858,64.5871549 33.9511215,64.6587614 C33.0179223,65.1553369 33.541878,66.6045903 34.5432845,66.2558978 C34.4983297,66.7392417 34.8974971,67.2490489 35.4625322,66.9828595 C38.4528002,65.5795277 41.3857121,64.0431011 44.3209492,62.5206846 C40.1432549,67.6047464 37.2273949,73.6321462 34.0999373,79.4065882 C31.660753,83.908458 29.2238938,88.4118845 26.7862596,92.915311 C26.2375013,93.7084309 25.6856426,94.5007725 25.1291334,95.2900007 C20.3220723,84.1427358 15.4654058,73.0157076 10.6095145,61.8894576 C13.3502059,63.5558656 16.172281,65.0681638 19.0889161,66.4247958 C19.5663669,66.6481769 20.0755961,66.2979277 20.2197614,65.8542787"></path>
</g>
</symbol>
<symbol id="crossed-arrows" viewBox="0 0 115 134">
<title>Crossed arrows</title>
<defs>
<path id="crossed-arrow" d="M132.8412,17.8579487 C132.8412,17.8579487 122.403239,13.8504619 113.863611,10.9568351 C105.324556,8.06378179 100.879247,7.30495754 99.6048983,5.99035046 C98.3299759,4.67574338 98.1688184,1.81194183 98.9115194,0.781248577 C99.6519264,-0.252312488 101.711416,-0.250018235 103.62466,0.726760064 C105.537904,1.70181767 114.138898,4.17616975 119.03671,5.85326883 C123.933375,7.52922079 131.423472,10.5593557 137.225143,13.071563 C143.028534,15.5831966 145.228535,16.5995508 147.367744,17.0383267 C149.508673,17.480544 150.927547,18.812358 151.564721,20.4630732 C152.201322,22.1143619 152.259247,24.6799106 150.920091,25.7714015 C149.580362,26.863466 147.090736,26.8003741 143.857263,27.7719903 C140.623215,28.7436065 133.4973,31.1594552 126.412678,34.2928315 C119.327482,37.4256342 112.447604,41.1566635 110.265382,40.9949186 C108.085454,40.8337473 106.544421,37.3539388 109.655163,35.2283132 C112.765905,33.1038347 120.592081,29.9320297 125.762886,27.8115662 C130.931971,25.689382 136.820816,23.6681449 136.820816,23.6681449 C136.820816,23.6681449 96.1821648,26.9621189 79.5479557,28.0576248 C62.9131731,29.1508365 8.72811429,32.5497726 5.49750817,32.5262565 C2.2651815,32.5027404 0.435097328,30.9707528 0.0869741397,29.3578928 C-0.260575534,27.7484742 0.359393438,25.5614774 3.30209538,25.5454176 C6.24766489,25.5293578 59.8328277,23.1829104 77.4959215,22.0891251 C95.1601623,20.9959135 132.8412,17.8579487 132.8412,17.8579487"></path>
</defs>
<g transform="translate(127 40) scale(-1 1)">
<g transform="rotate(49 57 20)" fill="#592C82">
<use xlink:href="#crossed-arrow"></use>
</g>
<g transform="rotate(-40 57 30)" fill="#592C82">
<use xlink:href="#crossed-arrow"></use>
</g>
</g>
</symbol>
<!-- <symbol id="lozenge" viewBox="0 0 600 100">
<path d="M50,100H550A50,50,0,0,0,550,0H50Z"/>
</symbol> -->
<symbol id="play" viewBox="0 0 100 100" width="42" height="42">
<title>play</title>
<circle class="ink2" cx="50" cy="50" r="50"/>
<polygon class="paper" points="36.75 28.85 36.75 72.15 74.25 50.5 36.75 28.85"/>
</symbol>
<symbol id="icon-vodfilm" viewBox="0 0 61 61">
<circle class="ink2" cx="29.5" cy="29.5" r="29.5"></circle>
<g transform="translate(15.000000, 19.000000)" fill="#FEFEFE">
<path d="M17.6506667,0.855969231 L2.88066667,0.855969231 C1.26233333,0.855969231 0.000666666667,2.13535385 0.000666666667,3.76673846 L0.000666666667,17.3999692 C0.000666666667,19.1125846 1.184,20.3073538 2.88066667,20.3073538 L17.6506667,20.3073538 C19.344,20.3073538 20.5273333,19.1125846 20.5273333,17.3999692 L20.5273333,3.76673846 C20.5273333,2.13535385 19.264,0.855969231 17.6506667,0.855969231"></path>
<path d="M7.54333333,0.231338462 L7.225,0.231338462 L0.425,2.99995385 L0.37,3.03718462 C0.201666667,3.2098 0.01,3.40610769 0.01,3.78856923 L0.01,10.6051846 C0.01,10.9944154 0.205,11.1873385 0.373333333,11.3633385 L7.16666667,14.1556462 L7.54333333,14.1658 C7.95,14.1658 8.335,13.7765692 8.335,13.3636462 L8.335,1.03010769 C8.335,0.620569231 7.95,0.231338462 7.54333333,0.231338462" transform="translate(22.666667, 4.220615)"></path>
</g>
</symbol>
<symbol id="icon-vodskate" viewBox="0 0 61 61">
<title>ice skate</title>
<circle class="ink2" cx="29.5" cy="29.5" r="29.5"></circle>
<g class="paper" transform="translate(33.000000, 29.000000) rotate(11.000000) translate(-33.000000, -29.000000) ">
<path d="M24.410987,41.8404734 L34.9382551,41.8404734 L34.9382551,39.0123573 L24.410987,39.0123573 L24.410987,41.8404734 Z M20.1369957,36.8525427 L20.1369957,21.8726263 L29.307129,21.8726263 L29.307129,26.5061067 C29.307129,27.1025679 29.7855311,27.58587 30.3756269,27.58587 L32.101607,27.58587 L35.1240312,27.585726 L36.868532,27.585726 C36.868532,27.585726 38.5590381,27.6276208 39.4305049,28.0507441 C39.5302314,28.0864483 39.6273934,28.1506582 39.7231308,28.2066619 C41.1376795,29.0339046 42.0164121,30.5713436 42.0164121,32.2190624 C42.0164121,33.8667812 41.137537,35.4043642 39.7228459,36.2314629 C39.0281798,36.6377418 38.2356394,36.8525427 37.4312742,36.8525427 L20.1369957,36.8525427 Z M20.1369957,19.7132437 L29.307129,19.7132437 L29.307129,16.1595266 L20.1369957,16.1595266 L20.1369957,19.7132437 Z M43.606052,38.3588845 C43.606052,38.9553458 44.0844541,39.4386478 44.6745498,39.4386478 C45.3298951,39.4386478 45.8630043,39.9773778 45.8630043,40.6397766 C45.8630043,41.3018874 45.3298951,41.8404734 44.6745498,41.8404734 L37.0751083,41.8404734 L37.0751083,39.0123573 L37.4312742,39.0123573 C38.6110383,39.0123573 39.7737064,38.6972104 40.7931958,38.1008931 C42.8657967,36.8891107 44.1534078,34.6354287 44.1534078,32.2192063 C44.1534078,29.8032719 42.8657967,27.5495899 40.7933383,26.3376636 C39.7738489,25.7413463 38.6113232,25.4261994 37.4312742,25.4261994 L31.4441247,25.4261994 L31.4441247,15.0797633 C31.4441247,14.483446 30.9657226,14 30.3756269,14 L19.0684978,14 C18.4784021,14 18,14.483446 18,15.0797633 L18,37.932594 C18,38.5290552 18.4784021,39.0123573 19.0684978,39.0123573 L22.2739913,39.0123573 L22.2739913,41.8404734 L19.0684978,41.8404734 C18.4784021,41.8404734 18,42.3237754 18,42.9202367 C18,43.5166979 18.4784021,44 19.0684978,44 L44.6745498,44 C46.5082346,44 48,42.4926504 48,40.6397766 C48,38.7867587 46.5082346,37.2791212 44.6745498,37.2791212 C44.0844541,37.2791212 43.606052,37.7624233 43.606052,38.3588845 Z"></path>
</g>
</symbol>
<symbol id="coil" viewBox="0 0 1366.58 138.66">
<title>coil</title>
<g id="coil-bits">
<path d="M171.48,21c5.54,8.23,5.57,19.29,4.37,28.68a75.49,75.49,0,0,1-9,27.22,103.24,103.24,0,0,1-11-16.87,70.8,70.8,0,0,1-8.19-32.4C147.55,14.64,164.57,10.75,171.48,21ZM275.77,41c-2.3-8.21-2.23-17.88,3.22-24.89,13.87-17.84,21.79,13.25,22.59,19.53a81.44,81.44,0,0,1-5.35,40.38C286.84,65.81,279.41,54,275.77,41Zm142.59,23.4A86.06,86.06,0,0,1,412.85,51c-.37-2.25-.73-4.49-1.1-6.74-.27-13.87,17.68-23.18,23.34-5.66,1.42,11.34-3.46,24-9.7,35.66A47.12,47.12,0,0,1,418.36,64.44ZM553,76c-9.42-5.43-18.52-12.81-24.28-22.12-6-9.66.74-27.54,14.18-21.84,4.79,2,8,6,10.65,10.23,6.19,10,4.58,22.75.56,34.34C553.71,76.36,553.33,76.17,553,76Zm60.82-27.24c-4.46-7.83-9.74-23-6-31.83s19.81,3,23.07,5.85c13.91,12.38,10.21,33.58.95,48A85.19,85.19,0,0,1,613.79,48.72Zm138.79-2.25c-1.75-6-1.31-13.14-.5-19.21,2-14.7,17.23-15.39,20.86-1,4.37,17.32,1.46,34.17-7.43,47.05A85.22,85.22,0,0,1,752.58,46.47Zm155-6.1c-.4-20.94,14.1-34.6,34.3-25,19.25,9.12,17.48,30.43,12.6,47.75-3.69,13.14-10.11,25.53-16.85,37.39C920.47,83.92,908,62,907.59,40.37ZM1046.85,34c1.12-22.91,27.9-17.75,36.7-2.39,8.3,14.52,1.25,36-4.46,50.18-1,2.38-2,4.67-3.19,6.87C1058.14,76.1,1045.68,57.74,1046.85,34Zm132.88,8c-1.43-10.57,14.78-42,24.35-17.25,5.11,13.25,5.42,25.93,2.56,39.77a71.34,71.34,0,0,1-5.57,16.47C1190.09,70.48,1181.84,57.6,1179.73,41.94ZM16.49,39.33C15.27,32.45,14,1.66,26.37,18.77c6.77,9.38,6.91,23.67,7,34.69A168.1,168.1,0,0,1,32,74.59C24.18,63.69,18.64,51.54,16.49,39.33ZM148.7,59.11A122.44,122.44,0,0,0,163.4,82.5c-17,25.24-48.05,39.56-79,30.87-17.77-5-34.87-17.12-47.6-32.47,3.91-18.64,4.29-39.41-1.43-57.17C32.45,14.6,17.61-1.67,10.71,13.38,3.48,29.13,12.34,55.22,20.89,68.77a132.76,132.76,0,0,0,9.85,13.59c-3.23,17.69-10.14,35.7-24.42,35.4-3.91-.08-3.8,6,.09,6,17.18.36,24.46-20.52,28.25-34,.21-.74.36-1.52.56-2.26,16.19,17.83,38,32.53,61.14,34.49,30.23,2.57,54.08-11.47,70.42-35.36A158.74,158.74,0,0,0,215.24,125c27.41,13.86,54.74-.24,72.78-22.24a86.79,86.79,0,0,0,10.42-16.18c16.69,16.07,38.05,28.23,60.36,33.67,19.58,4.76,42.32,1.46,54.72-15.83,3.22-4.49,8.22-11.69,13.17-20,16.11,15.18,38.76,25.15,58.06,32.22,26.75,9.79,50.66,6,66.36-19a85.84,85.84,0,0,0,6.3-12.2l.79.42c15.68,8.3,33,11.78,50.38,8.19a43.78,43.78,0,0,0,24.36-14.47c18.59,14.25,42.94,20.78,65.8,23.13,20.92,2.15,46.45-.32,63-14.71a49.92,49.92,0,0,0,4.31-4.43c19,21.21,48.06,33.48,74.78,41,27.82,7.79,63.18,19.21,87.95-3a73.1,73.1,0,0,0,10.41-12,128.81,128.81,0,0,0,19.2,13.8c27.48,16.06,63.9,15.52,91.87,1.17,11.75-6,20.85-15.54,27.63-26.66,28.45,17.8,67.51,23.58,96.48,15.84,12.65-3.37,22-12,28.45-22.92,19.12,15.81,42.93,24.76,67.56,26.8,25.48,2.11,51.31-5.54,70.69-22.27a72.41,72.41,0,0,0,21.56-30.66c2-5.18-2.05-8.16-6.6.74-8.34,16.32-27.87,34.26-44.66,40.72-30.41,11.68-66.5,5.14-93.44-11.94a113,113,0,0,1-12.16-8.89,95.53,95.53,0,0,0,9-38.78c.35-18.49-11.06-49-32.43-30.37C1160,35.52,1181.7,71.26,1198,86.59c-6.51,10.56-16.12,18.71-28.94,22.13-18,4.8-38.42.67-56-3.6A112.51,112.51,0,0,1,1081.11,92a114.36,114.36,0,0,0,11-34.1c3.28-20.45-4.71-43.84-28.36-45.87-21.26-1.81-25.27,19.91-22.06,36.8C1045.29,67.82,1057,83,1072.6,94.21c-19.1,29.83-56.55,41-91.64,31.89-13.27-3.44-26.84-11.1-38.65-21.32,22.58-35.23,38.54-99.37-15.9-99.46-21.39,0-27.3,29.24-24,45.35,4.23,20.64,16.61,39.78,32.33,54.72-12.94,20.33-35.93,25-58.7,21.87-15.94-2.17-32.3-7.84-47.54-13A158.75,158.75,0,0,1,778.66,87.2a77.68,77.68,0,0,1-8.84-8.5c10.18-14.47,12.63-33.4,9.49-51-1.49-8.35-4.35-17-13.82-18.22-7.72-1-13.85.41-17,8.53-8.13,20.73.25,43.51,13.13,60.31A53.54,53.54,0,0,1,736.67,93.9c-25.44,7.61-55.49,2.3-79.56-7.58a91.15,91.15,0,0,1-20.43-11.67,52,52,0,0,0,7.14-42.16c-3.24-11.72-25.28-33.23-38.34-22-7.25,6.24-4.57,16.31-3.11,24.53,2.87,16.15,13.79,30,25.77,40.6-.31.36-.59.74-.91,1.08-17.76,19.89-46.38,13.37-67.64,2.77,5.58-16.79,5.69-35.72-7.36-48.51-7.82-7.64-17.86-7.45-26.46-1.31C517,36,519.9,48.81,523.5,57c4.79,10.85,17.4,19.19,28.36,25.33a123.9,123.9,0,0,1-6,12.25c-22.71,40.63-75.51,13.22-103.75-6.2a110,110,0,0,1-12.18-9.63c10.23-18.62,18.34-41,6.69-52.85-6.45-6.55-15-8.19-22-1.24C403.94,35.09,404.43,46.78,409.64,60a64.48,64.48,0,0,0,12.61,19.82c-3.31,5.64-6.76,10.9-9.72,15.45-18.79,28.84-52,22.68-78.84,9A136.17,136.17,0,0,1,301,80.91a91.28,91.28,0,0,0,5-55.13c-4.71-20.88-29.07-25.9-36.62-3.9-7,20.36,10.35,44.42,23,58.35.48.53,1,1,1.51,1.54-1.1,2.35-2.26,4.68-3.53,7-9.57,17.22-27.45,33-47.44,36-20.48,3.07-40.76-14-54.92-26.37a181,181,0,0,1-17.53-17.24c.19-.32.39-.61.58-.93,7.65-13,12-28,11.5-43.1C182.08,27,175.49,7.64,164.32,4.45,134-4.19,142.21,45.26,148.7,59.11Z"/>
</g>
</symbol>
<symbol id="icon-twitter" viewBox="0 0 64 64">
<title>twitter</title>
<path d="M61.44 13.312c-2.176 1.024-4.48 1.664-6.912 1.92 2.56-1.536 4.352-3.84 5.376-6.656-2.304 1.408-4.864 2.432-7.68 2.944-2.176-2.304-5.376-3.84-8.832-3.84-7.808 0-13.568 7.296-11.776 14.848-9.984-0.512-18.944-5.376-24.832-12.672-3.328 5.504-1.792 12.544 3.584 16.128-1.92-0.128-3.84-0.64-5.504-1.536-0.128 5.632 3.84 10.88 9.728 12.032-1.664 0.512-3.584 0.512-5.504 0.256 1.536 4.864 6.016 8.32 11.264 8.448-5.12 3.968-11.52 5.76-17.92 4.992 5.376 3.456 11.648 5.376 18.56 5.376 22.4 0 35.072-18.944 34.304-35.968 2.432-1.664 4.48-3.84 6.144-6.272z"/>
</symbol>
<symbol id="icon-x" viewBox="0 0 1200 1227">
<title>x</title>
<path d="M714.163 519.284L1160.89 0H1055.03L667.137 450.887L357.328 0H0L468.492 681.821L0 1226.37H105.866L515.491 750.218L842.672 1226.37H1200L714.137 519.284H714.163ZM569.165 687.828L521.697 619.934L144.011 79.6944H306.615L611.412 515.685L658.88 583.579L1055.08 1150.3H892.476L569.165 687.854V687.828Z" fill="currentColor"/>
</symbol>
<symbol id="icon-facebook" viewBox="0 0 64 64">
<title>facebook</title>
<path d="M34.048 61.44h-28.16c-1.92 0-3.328-1.408-3.328-3.2v-52.48c0-1.792 1.408-3.2 3.2-3.2h52.352c1.92 0 3.328 1.408 3.328 3.2v52.352c0 1.792-1.408 3.2-3.2 3.2h-15.104v-22.656h7.68l1.152-8.832h-8.832v-5.632c0-2.56 0.768-4.352 4.352-4.352h4.736v-8.064c-0.768-0.128-3.584-0.384-6.912-0.384-6.784 0-11.392 4.096-11.392 11.776v6.528h-7.68v8.832h7.68v22.912z"></path>
</symbol>
<symbol id="icon-linkedin" viewBox="0 0 64 64">
<title>linkedin</title>
<path d="M9.728 2.56c-3.968 0-7.168 3.2-7.168 7.296 0 3.968 3.2 7.296 7.168 7.296s7.168-3.2 7.168-7.296c0-4.096-3.2-7.296-7.168-7.296zM3.712 61.44h12.16v-39.296h-12.16v39.296zM47.104 20.992c-8.32 0-11.776 6.528-11.776 6.528v-5.248h-11.648v39.168h11.648v-20.608c0-5.504 2.56-8.832 7.424-8.832 4.48 0 6.656 3.2 6.656 8.832v20.608h12.032v-24.832c0-10.496-6.016-15.616-14.336-15.616z"></path>
</symbol>
<symbol id="icon-instagram" viewBox="0 0 64 64">
<title>instagram</title>
<path d="M61.312 19.84c-0.128-3.072-0.64-5.248-1.408-7.168s-1.792-3.584-3.456-5.248c-1.664-1.664-3.328-2.688-5.248-3.456s-3.968-1.28-7.168-1.408c-3.072 0-4.096 0-12.032 0s-8.96 0-12.16 0.128c-3.072 0.128-5.248 0.64-7.168 1.408s-3.584 1.792-5.12 3.456c-1.664 1.536-2.688 3.2-3.456 5.12s-1.28 3.968-1.408 7.168c-0.128 3.2-0.128 4.224-0.128 12.16s0 8.96 0.128 12.16c0.128 3.072 0.64 5.248 1.408 7.168s1.792 3.584 3.456 5.248c1.664 1.664 3.328 2.688 5.248 3.456s3.968 1.28 7.168 1.408c3.072 0 4.096 0 12.032 0s8.96 0 12.16-0.128c3.072-0.128 5.248-0.64 7.168-1.408s3.584-1.792 5.248-3.456c1.664-1.664 2.688-3.328 3.456-5.248s1.28-3.968 1.408-7.168c0-3.072 0-4.096 0-12.032s0-8.96-0.128-12.16zM55.936 43.904c-0.128 2.816-0.64 4.48-1.024 5.504-0.512 1.408-1.152 2.304-2.176 3.328s-2.048 1.664-3.328 2.176c-1.024 0.384-2.56 0.896-5.504 1.024-3.072 0.128-4.096 0.128-11.904 0.128s-8.832 0-11.904-0.128c-2.816-0.128-4.48-0.64-5.504-1.024-1.408-0.512-2.304-1.152-3.328-2.176s-1.664-2.048-2.176-3.328c-0.384-1.024-0.896-2.56-1.024-5.504-0.128-3.072-0.128-4.096-0.128-11.904s0-8.832 0.128-11.904c0.128-2.816 0.64-4.48 1.024-5.504 0.512-1.28 1.152-2.304 2.176-3.328s2.048-1.664 3.328-2.176c1.024-0.384 2.56-0.896 5.504-1.024 3.072-0.128 4.096-0.128 11.904-0.128s8.832 0 11.904 0.128c2.816 0.128 4.48 0.64 5.504 1.024 1.408 0.512 2.304 1.152 3.328 2.176s1.664 2.048 2.176 3.328c0.384 1.024 0.896 2.56 1.024 5.504 0.128 3.072 0.128 4.096 0.128 11.904 0.128 7.808 0 8.832-0.128 11.904zM32 16.896c-8.32 0-15.104 6.784-15.104 15.104s6.784 15.104 15.104 15.104c8.32 0 15.104-6.784 15.104-15.104s-6.784-15.104-15.104-15.104zM32 41.856c-5.376 0-9.856-4.352-9.856-9.856 0-5.376 4.352-9.856 9.856-9.856 5.376 0 9.856 4.352 9.856 9.856 0 5.376-4.48 9.856-9.856 9.856zM47.744 12.8c-1.92 0-3.584 1.536-3.584 3.584 0 1.92 1.536 3.584 3.584 3.584 1.92 0 3.584-1.536 3.584-3.584-0.128-2.048-1.664-3.584-3.584-3.584z"></path>
</symbol>
<symbol id="icon-wechat" viewBox="0 0 2500 2500">
<title>WeChat</title>
<path d="M1673.4,932.3c-201.8,10.5-377.2,71.7-519.7,209.9C1009.7,1281.8,944,1452.9,962,1665
c-78.9-9.8-150.7-20.5-222.9-26.6c-25-2.1-54.6,0.9-75.7,12.8c-70.1,39.6-137.4,84.3-217.1,134.1c14.6-66.2,24.1-124.1,40.9-179.8
c12.3-41,6.6-63.7-31.1-90.4c-242.2-171-344.3-426.9-267.9-690.4C258.8,581,432.4,433.1,668.3,356.1
c322-105.2,683.8,2.1,879.6,257.7C1618.5,706.1,1661.9,809.8,1673.4,932.3L1673.4,932.3z M744.7,850.2
c1.9-48.2-39.9-91.6-89.5-93.1c-50.8-1.5-92.5,37.3-94,87.4c-1.5,50.7,37.3,91.4,88.4,92.7C700.3,938.5,742.8,899.6,744.7,850.2
L744.7,850.2z M1229.2,757.1c-49.8,0.9-91.8,43.3-91,91.7c0.9,50.2,42.2,89.4,93.4,88.8c51.3-0.6,90.3-40.3,89.8-91.5
C1321,795.9,1279.9,756.2,1229.2,757.1z"/>
<path d="M2126.7,2190.2c-63.9-28.4-122.5-71.1-184.9-77.6c-62.2-6.5-127.5,29.4-192.5,36
c-198.1,20.3-375.6-34.9-521.9-170.3c-278.3-257.4-238.5-652.1,83.4-863.1c286.2-187.5,705.9-125,907.6,135.2
c176.1,227,155.4,528.3-59.6,719c-62.2,55.2-84.6,100.6-44.7,173.4C2121.6,2156.3,2122.4,2173.3,2126.7,2190.2L2126.7,2190.2z
M1399.4,1486.1c40.7,0,74.2-31.8,75.7-72c1.6-42.5-32.6-78.2-75.2-78.4c-42.2-0.2-77.5,36-76,77.9
C1325.3,1453.7,1359,1486,1399.4,1486.1L1399.4,1486.1z M1868.2,1335.9c-39.5-0.3-73,32-74.6,71.9c-1.7,42.6,31.4,77.7,73.6,77.8
c40.8,0.1,73.1-30.7,74.5-71.3C1943.4,1371.5,1910.2,1336.2,1868.2,1335.9z"/>
</symbol>
<symbol id="icon-weibo" viewBox="0 0 2800 2312">
<title>weibo</title>
<g transform="translate(150, 150)">
<path class="st0" d="M2497.3,600.5c10.7,139.3-12.8,306.2-104.8,314.4c-150.1,13.4-71.8-152-69.8-251.5
c5.5-288.5-240.8-489-482.1-489c-68.4,0-227.1,46.3-202.6-97.8c11-63.6,64.8-62.7,118.7-69.8C2162.5-47.4,2468.8,231.8,2497.3,600.5
L2497.3,600.5z"/>
<path class="st0" d="M1833.7,935.9c174.4,95.4,384,143,349.3,426.2c-8.3,67.9-49.4,158.5-90.8,216.5
C1797.3,1991.3,907.9,2164.8,352.6,1851c-186.3-105.3-379-259.2-349.3-566c25.6-264,203.1-468.5,377.3-642.6
C546.8,476.2,722,346.1,960.4,286.1c258.7-65,335.2,150.6,265.5,363.3c149.8-10,467.4-177.3,607.8-14
C1895.5,707.4,1871.8,836.3,1833.7,935.9L1833.7,935.9z M1645,1606.5c55.9-63.4,112.1-159.9,111.7-272.4
C1756,986.9,1318.6,858.6,974.4,887c-188.3,15.4-315,55.2-447.1,132.8C419.4,1083,293.2,1186,261.8,1341
c-70.6,348.5,308.4,512.3,586.8,530.9C1170.2,1893.6,1492.2,1780,1645,1606.5z"/>
<path class="st0" d="M2154.9,600.5c14.7,106.4-15.8,198.5-76.8,202.6c-101.8,6.8-63.7-69.7-69.9-160.7
c-3.9-56-50.3-120.7-90.8-139.7c-79.5-37.2-202.6,27.1-202.6-83.8c0-82.4,71.4-73.8,111.8-76.9
C2003.5,328.6,2134.3,450.5,2154.9,600.5z"/>
<path class="st0" d="M1337.6,1299.1c148.8,449.8-626.6,659-768.5,272.4c-94.9-258.5,133-464.1,370.2-489
C1142,1061.3,1293,1164.6,1337.6,1299.1z M981.3,1376c31.6,54.6,104.2,15.4,97.8-27.9C1071.5,1297.9,980.7,1305.4,981.3,1376z
M855.6,1613.5c130.4-31,147.9-276.6-48.9-230.6C641.3,1421.6,673.3,1656.9,855.6,1613.5z"/>
</g>
</symbol>
<symbol id="microscope" viewBox="0 0 64 64">
<title>microscope</title>
<path d="M56.704 50.816h-20.992v-1.152c6.272-0.768 11.264-6.144 11.264-12.672 0-6.272-4.48-11.392-10.368-12.544l5.248-8.832c0.384-0.768 0.256-1.664-0.512-2.048l-1.152-0.768 2.944-4.736c0.384-0.768 0.256-1.664-0.512-2.048l-5.12-3.2c-0.768-0.384-1.664-0.256-2.048 0.512l-2.944 4.736-0.512-0.256c-0.384-0.256-0.896-0.256-1.28-0.256-0.384 0.128-0.768 0.384-0.896 0.64l-15.36 25.216c-0.256 0.384-0.256 0.768-0.128 1.152s0.384 0.768 0.64 0.896l9.6 5.76 0.768 0.256c0.512 0 1.024-0.256 1.28-0.768l8.064-13.44c4.992 0.256 9.088 4.48 9.088 9.728 0 5.376-4.352 9.728-9.728 9.728-0.896 0-1.536 0.64-1.536 1.536v2.56h-11.776v-0.64h5.888c0.896 0 1.536-0.768 1.536-1.536 0-0.896-0.64-1.536-1.536-1.536h-16.768c-0.896 0-1.536 0.768-1.536 1.536 0 0.896 0.64 1.536 1.536 1.536h7.808v0.64h-9.728c-0.896 0-1.536 0.64-1.536 1.536v7.424c0 1.024 0.64 1.664 1.536 1.664h48.768c0.896 0 1.536-0.64 1.536-1.536v-7.424c0-1.024-0.64-1.664-1.536-1.664zM36.992 6.272l2.432 1.408-1.92 3.2-2.432-1.408 1.92-3.2zM24.832 37.888l-6.784-4.224 13.44-22.528 6.784 4.096-13.44 22.656zM55.168 58.24h-45.568v-4.352h45.568v4.352z"></path>
</symbol>
<symbol id="recycle" viewBox="0 0 64 64">
<path d="M16.384 48.256c-4.096-4.096-6.4-9.728-6.4-15.488l2.432 2.432 2.048-2.048-5.888-5.76-6.016 6.016 2.048 2.048 2.432-2.432c0.128 6.528 2.688 12.672 7.296 17.28 4.864 4.864 11.264 7.296 17.664 7.296s12.8-2.432 17.664-7.296l-2.048-2.048c-8.576 8.576-22.528 8.576-31.232 0zM59.392 28.288l-2.432 2.432c-0.384-5.888-2.944-11.52-7.296-15.744-9.728-9.728-25.6-9.728-35.328 0l2.048 2.048c8.576-8.576 22.528-8.576 31.104 0 3.712 3.712 6.016 8.704 6.4 13.824l-2.304-2.304-2.048 2.048 5.888 5.888 6.016-6.016-2.048-2.176z"></path>
</symbol>
<symbol id="tick" viewBox="0 0 64 64">
<title>tick</title>
<path d="M60.928 12.032c-0.64-0.64-1.664-0.64-2.304 0l-38.528 38.528-14.72-14.72c-0.64-0.64-1.664-0.64-2.304 0s-0.64 1.664 0 2.304l15.872 15.872c0.384 0.384 0.768 0.512 1.152 0.512s0.896-0.128 1.152-0.512l39.68-39.68c0.64-0.64 0.64-1.664 0-2.304z"></path>
</symbol>
<symbol id="tv-camera" viewBox="0 0 64 64">
<title>tv-camera</title>
<path d="M37.12 12.8h-28.928c-3.2 0-5.632 2.432-5.632 5.632v26.368c0 3.328 2.304 5.632 5.632 5.632h29.056c3.328 0 5.632-2.304 5.632-5.632v-26.368c0-3.2-2.56-5.632-5.76-5.632zM39.808 44.928c0 1.408-1.152 2.432-2.432 2.432h-29.184c-1.408 0-2.432-1.152-2.432-2.432v-26.496c0-1.408 1.152-2.432 2.432-2.432h29.056c1.408 0 2.432 1.152 2.432 2.432 0.128 0 0.128 26.496 0.128 26.496zM59.904 18.176h-0.64l-13.312 5.376-0.128 0.128c-0.384 0.384-0.64 0.64-0.64 1.408v13.312c0 0.768 0.384 1.152 0.64 1.408l13.312 5.376h0.768c0.768 0 1.536-0.768 1.536-1.536v-23.936c0-0.768-0.64-1.536-1.536-1.536zM58.368 41.216l-9.984-4.096v-10.88l10.112-4.096v19.072z"></path>
</symbol>
<symbol id="i" viewBox="0 0 22.4 22.4">
<title>Information</title>
<circle class="stroke" stroke-width="1.2" cx="11.2" cy="11.2" r="10"></circle>
<text x="8.915625" y="16.2" stroke="none" fill="currentColor">i</text>
</symbol>
<symbol id="vr360" viewBox="0 0 22.4 22.4">
<title>360 virtual tour</title>
<circle class="stroke" stroke-width="0.9" cx="11.2" cy="11.2" r="10"></circle>
<text x="3" y="15" stroke="none" fill="currentColor" font-size="8px">360</text>
</symbol>
<symbol viewBox="0 0 62 62" id="icon--help">
<title>Click any of the location markers for videos and more information!</title>
<circle stroke="#FFFFFF" stroke-width="2" fill-opacity="0.5" fill="#000000" cx="30" cy="30" r="29"></circle>
<text font-family="OpenSans-SemiBold, Open Sans" font-size="32" font-weight="500" fill="#FFFFFF">
<tspan x="22.75" y="42">?</tspan>
</text>
</symbol>
<symbol id="hamburger" viewBox="0 0 50 42.6">
<title>menu</title>
<path class="ink" d="M44.3,33H5.6c-1.8,0-3.2,1.4-3.2,3.2s1.4,3.2,3.2,3.2l0,0h38.8c1.8,0,3.2-1.4,3.2-3.2S46.1,33,44.3,33z
M44.3,2.8H5.6C3.8,2.8,2.4,4.2,2.4,6c0,1.8,1.4,3.2,3.2,3.2h38.8c1.8,0,3.2-1.4,3.2-3.2C47.5,4.2,46.1,2.8,44.3,2.8z
M44.3,17.8H5.6c-1.8,0-3.2,1.4-3.2,3.2c0,1.8,1.4,3.2,3.2,3.2h38.8c1.8,0,3.2-1.4,3.2-3.2C47.5,19.2,46.1,17.8,44.3,17.8z"/>
</symbol>
<symbol id="icon-share" viewBox="0 0 50 50">
<title>share</title>
<path d="M2.3,38.2c0,0,3.5-11.5,23-11.5v11.5l23-15.4l-23-15.4v11.5C10,18.9,2.3,28.5,2.3,38.2z"/>
</symbol>
</defs>
</svg>