<?xml version="1.0" encoding="utf-8"?>
<!-- Generator: Adobe Illustrator 23.0.0, SVG Export Plug-In . SVG Version: 6.00 Build 0)  -->
<svg version="1.1" id="Layer_1" xmlns="http://www.w3.org/2000/svg" xmlns:xlink="http://www.w3.org/1999/xlink" x="0px" y="0px"
	 viewBox="0 0 256.3 89.6" style="enable-background:new 0 0 256.3 89.6;" xml:space="preserve">
<style type="text/css">
	.st0{fill:#D41969;}
</style>
<path class="st0" d="M238.5,34.5c-2.6,0.1-5.2,0.3-7.8,0.4c-4.3-4.8-9-7.9-15.2-11.4c-12.2-7-24.4-14-36.6-20.9
	c-2.7-1.6,2,8.8,2.2,9.1c2.5,4.3,5.6,9.5,10.1,12c7.1,4,14.1,8.1,21.2,12.1C142.7,39.5,73,45.2,3.5,52.7c-0.1,0,7.3,21.8,13.9,21.1
	C82.1,66.8,147,61.5,212,57.7c-2.7,3.2-5.2,6.1-7,8.5c-2.6,3.6,11.1,23.1,13.9,21.1c12.8-9,23.8-19.5,33.5-31.7
	C255.4,51.8,242.8,34.3,238.5,34.5z"/>
</svg>
