<svg xmlns="http://www.w3.org/2000/svg" viewBox="0 0 583.67 1246.59"><title>arrows_1</title><g id="Layer_2" data-name="Layer 2"><g id="Layer_1-2" data-name="Layer 1"><path d="M159.09,441.55c-5.44-9.54-12.53-21-22.34-26.59L89.7,388q232.22-12.42,463.49-37.47c.27,0-16.25-48.4-30.88-46.82Q307,327.07,90.71,339.43c6-7.06,11.57-13.54,15.5-18.91,5.87-8-24.68-51.2-30.88-46.82A354.74,354.74,0,0,0,1,344.11c-6.57,8.32,21.32,47.26,30.89,46.82,5.81-.27,11.62-.57,17.42-.85,9.48,10.56,20,17.51,33.61,25.29L164,461.78C170,465.25,159.53,442.32,159.09,441.55Z" style="fill:#d31668"/><path d="M224.94,141.57l-47.05-26.94q203.24-10.87,405.78-31.42v-50Q381.7,54.44,178.9,66c6-7.06,11.57-13.54,15.5-18.91,5.87-8-24.68-51.2-30.88-46.82A354.5,354.5,0,0,0,89.18,70.72C82.6,79,110.49,118,120.07,117.54c5.81-.27,11.61-.57,17.42-.85,9.47,10.56,20,17.51,33.61,25.29l81.08,46.41c6.05,3.47-4.46-19.46-4.9-20.23C241.83,158.62,234.75,147.18,224.94,141.57Z" style="fill:#d31668"/><path d="M282.45,688.34l-47-26.93q174.39-9.33,348.27-25.78v-49.8q-173.34,17-347.26,27c6-7.06,11.57-13.54,15.5-18.91,5.88-8-24.68-51.2-30.88-46.82a354.48,354.48,0,0,0-74.34,70.41c-6.57,8.32,21.32,47.26,30.89,46.82,5.81-.27,11.62-.57,17.42-.85,9.48,10.56,20,17.51,33.61,25.28l81.08,46.42c6.06,3.46-4.45-19.46-4.9-20.23C299.35,705.4,292.26,694,282.45,688.34Z" style="fill:#d31668"/><path d="M269.67,951.66l-47.05-26.93q180.81-9.68,361-27V847.87q-179.7,17.94-360,28.27c6-7.06,11.57-13.54,15.5-18.91,5.87-8-24.68-51.2-30.88-46.82a354.23,354.23,0,0,0-74.34,70.41c-6.57,8.32,21.32,47.26,30.89,46.81q8.72-.4,17.42-.84c9.48,10.56,20,17.51,33.61,25.28l81.08,46.42c6,3.46-4.46-19.46-4.9-20.24C286.57,968.72,279.48,957.28,269.67,951.66Z" style="fill:#d31668"/><path d="M269.67,1199.4l-47.05-26.93q180.81-9.67,361-27v-49.84q-179.7,17.93-360,28.26c6-7.06,11.57-13.54,15.5-18.91,5.87-8-24.68-51.2-30.88-46.82a354.48,354.48,0,0,0-74.34,70.41c-6.57,8.32,21.32,47.26,30.89,46.82l17.42-.85c9.48,10.56,20,17.51,33.61,25.28l81.08,46.42c6,3.46-4.46-19.46-4.9-20.23C286.57,1216.46,279.48,1205,269.67,1199.4Z" style="fill:#d31668"/></g></g></svg>