<?xml version="1.0" encoding="UTF-8"?>
<svg width="1435px" height="101px" viewBox="0 0 1435 101" version="1.1" xmlns="http://www.w3.org/2000/svg" xmlns:xlink="http://www.w3.org/1999/xlink">
    <!-- Generator: sketchtool 52.3 (67297) - http://www.bohemiancoding.com/sketch -->
    <title>96DC4AF5-FF5C-4AB6-89F8-3414A4BE480A</title>
    <desc>Created with sketchtool.</desc>
    <defs>
        <polygon id="path-1" points="0.859173486 0.356936707 15.283096 0.356936707 15.283096 14.6666667 0.859173486 14.6666667"></polygon>
        <polygon id="path-3" points="0 0.199024018 14.353646 0.199024018 14.353646 14.3739917 0 14.3739917"></polygon>
        <polygon id="path-5" points="0.251066502 0.415203428 14.7178125 0.415203428 14.7178125 16.2571529 0.251066502 16.2571529"></polygon>
        <polygon id="path-7" points="0.74290607 0.142058824 14.8286942 0.142058824 14.8286942 14.2945791 0.74290607 14.2945791"></polygon>
    </defs>
    <g id="External" stroke="none" stroke-width="1" fill="none" fill-rule="evenodd">
        <g id="desktop" transform="translate(0.000000, -2531.000000)">
            <g id="dots" transform="translate(0.000000, 2531.000000)">
                <path d="M510.739983,87.6891869 C518.837493,82.3836337 510.099997,66.8676267 503.483051,77.8308505 C499.570195,84.2907779 503.887709,92.15632 510.739983,87.6891869" id="Fill-1" fill="#77B72A"></path>
                <path d="M514.813287,47.9890572 C527.392076,47.3782632 521.529909,29.7207649 511.943489,33.5404662 C503.991371,36.7162366 506.129285,48.4072988 514.813287,47.9890572" id="Fill-3" fill="#77B72A"></path>
                <path d="M498.098865,15.2444725 C504.638375,8.87513334 492.534925,-4.78247808 488.454644,6.03495401 C486.267607,11.868907 492.377659,20.8124878 498.098865,15.2444725" id="Fill-5" fill="#77B72A"></path>
                <path d="M538.646847,19.5954283 C547.946855,16.3628016 540.498494,3.23183482 533.468775,8.0512955 C528.620348,11.4271079 531.209384,22.2098299 538.646847,19.5954283" id="Fill-7" fill="#77B72A"></path>
                <path d="M484.988926,61.6006542 C491.935046,53.9271242 478.995906,43.0428104 474.754133,52.977166 C471.551162,60.4665014 479.233099,67.9698617 484.988926,61.6006542" id="Fill-9" fill="#77B72A"></path>
                <path d="M458.730762,88.689076 C466.845296,83.3827884 458.099882,67.8665372 451.480863,78.8322304 C447.573929,85.2892447 451.884069,93.1568274 458.730762,88.689076" id="Fill-11" fill="#77B72A"></path>
                <path d="M539.57558,78.5762237 C536.392197,85.9148484 547.195895,93.1441505 552.815657,88.5703578 C563.690077,79.6778583 543.545747,69.4323758 539.57558,78.5762237" id="Fill-13" fill="#77B72A"></path>
                <path d="M575.752809,73.987499 C572.555716,81.4768192 580.221297,88.9680098 585.989739,82.5981597 C592.934373,74.9330163 579.99454,64.0319779 575.752809,73.987499" id="Fill-15" fill="#77B72A"></path>
                <path d="M557.738817,54.6875146 C565.838792,49.3810883 557.099506,33.8672146 550.480545,44.8321792 C546.573448,51.2910592 550.885327,59.158388 557.738817,54.6875146" id="Fill-17" fill="#77B72A"></path>
                <path d="M576.731039,19.6896205 C584.844961,14.3821341 576.100139,-1.13213009 569.48091,9.83109297 C565.573852,16.2898986 569.884129,24.1559778 576.731039,19.6896205" id="Fill-19" fill="#77B72A"></path>
                <path d="M343.021402,55.3267098 C354.862686,50.4813599 342.989741,34.9424009 334.226627,41.6576859 C326.318366,47.707579 334.379656,58.8474128 343.021402,55.3267098" id="Fill-21" fill="#77B72A"></path>
                <path d="M341.36776,17.3715629 C350.648388,13.6564428 344.388581,1.73699465 336.531913,5.85293691 C330.154423,9.18644097 332.799565,20.8077776 341.36776,17.3715629" id="Fill-23" fill="#77B72A"></path>
                <path d="M1205.09814,33.2455463 C1211.63926,26.8791835 1199.53516,13.2161651 1195.45409,24.0347691 C1193.26882,29.8710405 1199.37704,38.8106284 1205.09814,33.2455463" id="Fill-25" fill="#77B72A"></path>
                <path d="M342.943573,78.5396382 C334.990859,81.7251427 337.132487,93.4002536 345.802926,92.9894229 C358.397759,92.3718342 352.528934,74.7240144 342.943573,78.5396382" id="Fill-27" fill="#77B72A"></path>
                <path d="M440.36714,62.3715562 C449.64869,58.6535919 443.388577,46.739244 435.532659,50.8520438 C429.15397,54.1893634 431.799764,65.807376 440.36714,62.3715562" id="Fill-29" fill="#77B72A"></path>
                <path d="M385.190365,17.68758 C397.239821,14.5739075 388.015748,2.13384348 380.271726,5.60628958 C372.380907,9.13896146 376.238517,19.9675558 385.190365,17.68758" id="Fill-31" fill="#77B72A"></path>
                <path d="M431.64284,15.5960556 C440.949738,12.358987 433.498585,-0.777175575 426.465474,4.05652108 C421.622543,7.4208144 424.209862,18.2087963 431.64284,15.5960556" id="Fill-33" fill="#77B72A"></path>
                <path d="M409.900981,43.2792872 C416.961471,35.5348922 404.32824,22.6567855 399.685553,35.3478338 C396.743752,43.4121258 403.854789,49.8697042 409.900981,43.2792872" id="Fill-35" fill="#77B72A"></path>
                <path d="M410.863954,88.1685002 C414.939515,91.3586345 419.666758,90.261115 421.776178,85.8110818 C429.354187,69.7946261 398.773155,78.7180086 410.863954,88.1685002" id="Fill-37" fill="#77B72A"></path>
                <path d="M665.888222,86.0505712 C671.907841,76.6090242 651.546435,72.8470473 651.011819,83.200387 C650.581781,91.1735817 662.006167,92.1494329 665.888222,86.0505712" id="Fill-39" fill="#77B72A"></path>
                <path d="M628.011148,43.21309 C627.594033,51.1650714 638.997578,52.1526159 642.88855,46.0524886 C648.904736,36.6025371 628.562496,32.8455382 628.011148,43.21309" id="Fill-41" fill="#77B72A"></path>
                <path d="M662.772894,13.8078661 C670.363415,-2.20397332 639.768203,6.71951245 651.865856,16.1631604 C655.936337,19.3607012 660.667345,18.2629509 662.772894,13.8078661" id="Fill-43" fill="#77B72A"></path>
                <path d="M614.480947,72.8264792 C610.57379,79.2844061 614.884177,87.1657982 621.731261,82.6832148 C629.845391,77.3794747 621.098608,61.8735993 614.480947,72.8264792" id="Fill-45" fill="#77B72A"></path>
                <path d="M287.991617,89.6006099 C294.930935,81.9310119 281.998765,71.0369302 277.749179,80.9823594 C274.561124,88.4678347 282.225433,95.9691988 287.991617,89.6006099" id="Fill-47" fill="#77B72A"></path>
                <path d="M173.900053,16.2797401 C180.963916,8.53937429 168.322965,-4.35551125 163.690703,8.36132056 C160.735698,16.4297753 167.85013,22.8614011 173.900053,16.2797401" id="Fill-49" fill="#77B72A"></path>
                <path d="M167.032709,75.3267337 C178.853476,70.4832195 166.99052,54.9399581 158.228439,61.658975 C150.318044,67.7089836 158.375221,78.8471373 167.032709,75.3267337" id="Fill-51" fill="#77B72A"></path>
                <path d="M248.731178,29.689963 C256.844829,24.3817892 248.100232,8.86917469 241.480515,19.8298876 C237.574039,26.2872143 241.884634,34.156249 248.731178,29.689963" id="Fill-53" fill="#77B72A"></path>
                <path d="M242.368011,53.184663 C246.868949,42.2997243 225.7696,40.2467541 228.194863,51.6156011 C229.519799,57.7796504 239.927891,59.1140382 242.368011,53.184663" id="Fill-55" fill="#77B72A"></path>
                <path d="M212.778177,72.806751 C220.347706,56.7957933 189.783108,65.7182414 201.858684,75.1743049 C205.945177,78.3618449 210.660076,77.2521581 212.778177,72.806751" id="Fill-57" fill="#77B72A"></path>
                <path d="M307.850605,69.3555474 C302.239553,75.623045 310.494969,85.8004747 317.857654,80.540383 C326.763355,74.1350584 314.597775,61.8448872 307.850605,69.3555474" id="Fill-59" fill="#77B72A"></path>
                <path d="M313.377158,40.7708012 C318.040938,29.3497653 294.909993,24.8989808 297.153751,38.0306644 C298.387593,45.2544126 310.438239,47.9735766 313.377158,40.7708012" id="Fill-61" fill="#77B72A"></path>
                <path d="M236.865629,85.1637032 C240.936811,88.3605846 245.66756,87.262775 247.772994,82.8074492 C255.363098,66.7972403 224.768639,75.7178797 236.865629,85.1637032" id="Fill-63" fill="#77B72A"></path>
                <path d="M273.387296,53.4826103 C282.64273,42.8682606 264.582041,36.477361 261.376285,48.5342994 C259.088742,57.0864072 267.748324,59.9180892 273.387296,53.4826103" id="Fill-65" fill="#77B72A"></path>
                <path d="M889.377192,39.7696006 C894.04057,28.3528518 870.912517,23.8977576 873.153385,37.0287056 C874.38802,44.2593435 886.438527,46.9710607 889.377192,39.7696006" id="Fill-67" fill="#77B72A"></path>
                <path d="M877.858022,95.5421888 C886.763475,89.1300726 874.596354,76.845321 867.850311,84.3563463 C862.239415,90.6179519 870.496482,100.799181 877.858022,95.5421888" id="Fill-69" fill="#77B72A"></path>
                <path d="M857.77327,62.8055864 C865.362273,46.7963079 834.769451,55.7203174 846.865234,65.1654004 C850.935397,68.3592652 855.667886,67.2638453 857.77327,62.8055864" id="Fill-71" fill="#77B72A"></path>
                <path d="M897.365066,73.3716679 C906.645377,69.6571482 900.39696,57.7362869 892.532136,61.8532337 C886.150678,65.1878688 888.806074,76.8073272 897.365066,73.3716679" id="Fill-73" fill="#77B72A"></path>
                <path d="M927.994396,94.5985234 C934.926505,86.9187796 922.001794,76.0437387 917.751519,85.9801961 C914.555811,93.48045 922.231912,100.966681 927.994396,94.5985234" id="Fill-75" fill="#77B72A"></path>
                <path d="M986.64266,43.5955243 C995.949988,40.3591194 988.49831,27.2256499 981.465561,32.0549861 C976.62288,35.4211168 979.209157,46.2102565 986.64266,43.5955243" id="Fill-77" fill="#77B72A"></path>
                <path d="M996.532798,60.8531688 C990.154658,64.1897263 992.798789,75.8079917 1001.36574,72.3712624 C1010.64871,68.6540519 1004.39006,56.7369404 996.532798,60.8531688" id="Fill-79" fill="#77B72A"></path>
                <g id="Group-83" transform="translate(965.000000, 86.000000)">
                    <mask id="mask-2" fill="white">
                        <use xlink:href="#path-1"></use>
                    </mask>
                    <g id="Clip-82"></g>
                    <path d="M3.61306667,12.6514667 C7.53217778,16.1623 12.0788444,14.9541333 14.1055111,10.0554667 C21.3952889,-7.5757 -8.0136,2.25005 3.61306667,12.6514667" id="Fill-81" fill="#77B72A" mask="url(#mask-2)"></path>
                </g>
                <path d="M1126.18983,19.6887411 C1138.24024,16.5714014 1129.01543,4.12956859 1121.27266,7.60818943 C1113.38121,11.1375617 1117.23727,21.9639518 1126.18983,19.6887411" id="Fill-84" fill="#77B72A"></path>
                <path d="M968.90099,62.2788224 C975.961451,54.5343563 963.328272,41.6588425 958.685604,54.3454889 C955.743816,62.4143732 962.85398,68.8692998 968.90099,62.2788224" id="Fill-86" fill="#77B72A"></path>
                <path d="M372.752125,69.9805919 C369.554643,77.4809238 377.232579,84.9663019 382.994275,78.5987303 C389.926477,70.9180166 377.002457,60.0437035 372.752125,69.9805919" id="Fill-88" fill="#77B72A"></path>
                <path d="M762.859966,92.1730546 C766.945869,95.3618862 771.661155,94.2531617 773.777581,89.8066103 C781.349579,73.796695 750.780628,82.717266 762.859966,92.1730546" id="Fill-90" fill="#77B72A"></path>
                <path d="M819.367952,17.183375 C823.869144,6.30036341 802.769482,4.24711046 805.194881,15.614097 C806.519018,21.7824218 816.927695,23.1127104 819.367952,17.183375" id="Fill-92" fill="#77B72A"></path>
                <path d="M769.899451,20.2804407 C776.964794,12.540592 764.322524,-0.354937665 759.690397,12.3598178 C756.736319,20.4304833 763.849703,26.8606227 769.899451,20.2804407" id="Fill-94" fill="#77B72A"></path>
                <path d="M815.376804,48.5371356 C813.087283,57.0841623 821.749114,59.919204 827.386447,53.4824112 C836.644155,42.8670522 818.580816,36.4766186 815.376804,48.5371356" id="Fill-96" fill="#77B72A"></path>
                <path d="M730.706411,35.9928922 C732.590024,36.0796063 734.540621,35.3788151 736.233997,33.5648984 C741.50347,27.8338067 733.943117,18.750951 727.160681,21.5089891 C719.653916,24.5625629 723.198753,35.6531147 730.706411,35.9928922" id="Fill-98" fill="#77B72A"></path>
                <path d="M821.991471,97.6020491 C828.931293,89.9301536 815.998184,79.0363986 811.748289,88.9833176 C808.562598,96.4720148 816.225734,103.96632 821.991471,97.6020491" id="Fill-100" fill="#77B72A"></path>
                <path d="M698.578812,82.5776735 C695.38515,89.9080328 706.192494,97.1365556 711.809695,92.5782045 C722.698383,83.674518 702.542595,73.4320085 698.578812,82.5776735" id="Fill-102" fill="#77B72A"></path>
                <path d="M702.744262,60.6888727 C710.8362,55.3861715 702.094405,39.87294 695.48289,50.8246877 C691.569847,57.2787021 695.888617,65.1599641 702.744262,60.6888727" id="Fill-104" fill="#77B72A"></path>
                <path d="M707.102988,17.2458186 C713.631189,10.8735639 701.541927,-2.7820199 697.457484,8.03501408 C695.263283,13.8701035 701.369223,22.8105699 707.102988,17.2458186" id="Fill-106" fill="#77B72A"></path>
                <path d="M37.7307619,75.6841549 C45.845296,70.3788735 37.0998825,54.8740554 30.4808628,65.8261885 C26.5739292,72.2846264 30.8840694,80.1645297 37.7307619,75.6841549" id="Fill-108" fill="#77B72A"></path>
                <path d="M45.8093215,37.5707967 C56.6977679,28.6695058 36.5464518,18.4365698 32.5819541,27.5750542 C29.37765,34.9177787 40.1936128,42.1428404 45.8093215,37.5707967" id="Fill-110" fill="#77B72A"></path>
                <path d="M68.5345494,43.8555206 C62.1537139,47.1907679 64.7983666,58.8035762 73.367693,55.3731077 C82.6475096,51.6569756 76.3897653,39.731775 68.5345494,43.8555206" id="Fill-112" fill="#77B72A"></path>
                <path d="M14.650305,16.5992236 C23.9423749,13.3466251 16.5025418,0.226772634 9.47058233,5.05557215 C4.61879372,8.42604895 7.20956345,19.1992817 14.650305,16.5992236" id="Fill-114" fill="#77B72A"></path>
                <path d="M12.0137968,41.5252953 C4.69929547,35.8452448 -4.15031472,47.4310489 2.14768338,53.3350184 C8.38445719,59.1836772 20.6653284,48.2678461 12.0137968,41.5252953" id="Fill-116" fill="#77B72A"></path>
                <g id="Group-120" transform="translate(0.000000, 79.000000)">
                    <mask id="mask-4" fill="white">
                        <use xlink:href="#path-3"></use>
                    </mask>
                    <g id="Clip-119"></g>
                    <path d="M12.4375588,12.3235588 C18.2196176,6.41708824 9.69255882,-2.99497059 3.0555,1.2765 C-0.570088235,3.61120588 -0.667147059,8.49414706 1.19108824,11.4394412 C3.5355,15.1541471 9.59814706,15.2212059 12.4375588,12.3235588" id="Fill-118" fill="#77B72A" mask="url(#mask-4)"></path>
                </g>
                <path d="M105.888283,41.0497598 C111.905587,31.6021164 91.5608082,27.8478709 91.0112415,38.2097217 C90.5923095,46.1661578 101.998071,47.1536351 105.888283,41.0497598" id="Fill-121" fill="#77B72A"></path>
                <path d="M137.705232,48.9921819 C139.588812,49.0833641 141.541162,48.3831196 143.234509,46.5674413 C148.502997,40.8326952 140.942775,31.7525331 134.16135,34.5083627 C126.653821,37.5607561 130.198597,48.6566665 137.705232,48.9921819" id="Fill-123" fill="#77B72A"></path>
                <path d="M124.809211,84.5789324 C135.69863,75.671868 115.54401,65.4344429 111.578514,74.576002 C108.385782,81.9098027 119.192973,89.1352313 124.809211,84.5789324" id="Fill-125" fill="#77B72A"></path>
                <path d="M69.0117208,78.2019838 C68.5834932,86.1729012 80.007704,87.1480489 83.8878968,81.0542077 C89.908326,71.6114164 69.5481322,67.8439515 69.0117208,78.2019838" id="Fill-127" fill="#77B72A"></path>
                <path d="M1029.93454,93.9922614 C1034.41005,94.2579763 1037.54754,87.6227694 1032.14565,83.0579242 C1022.56645,74.9629889 1018.52836,93.3151995 1029.93454,93.9922614" id="Fill-129" fill="#77B72A"></path>
                <path d="M1365.02102,55.3267098 C1376.86312,50.4813599 1364.98936,34.9424009 1356.22717,41.6576859 C1348.31807,47.707579 1356.37932,58.8474128 1365.02102,55.3267098" id="Fill-131" fill="#77B72A"></path>
                <path d="M1362.36736,19.3715629 C1371.64845,15.6564428 1365.38894,3.73699465 1357.53174,7.85293691 C1351.15456,11.186441 1353.79957,22.8077776 1362.36736,19.3715629" id="Fill-133" fill="#77B72A"></path>
                <path d="M1363.94328,78.5396382 C1355.99077,81.7251427 1358.13258,93.4002536 1366.80377,92.9894229 C1379.39703,92.3718342 1373.52947,74.7240144 1363.94328,78.5396382" id="Fill-135" fill="#77B72A"></path>
                <path d="M1407.19036,19.68758 C1419.23982,16.5739075 1410.01575,4.13384348 1402.27173,7.60628958 C1394.38091,11.1389615 1398.23852,21.9675558 1407.19036,19.68758" id="Fill-137" fill="#77B72A"></path>
                <g id="Group-141" transform="translate(1420.000000, 31.000000)">
                    <mask id="mask-6" fill="white">
                        <use xlink:href="#path-5"></use>
                    </mask>
                    <g id="Clip-140"></g>
                    <path d="M12.3818438,13.5633158 C20.2399688,5.89542105 6.18121875,-6.85547368 1.01371875,5.71021053 C-2.25909375,13.6948421 5.65246875,20.0886316 12.3818438,13.5633158" id="Fill-139" fill="#77B72A" mask="url(#mask-6)"></path>
                </g>
                <path d="M1309.99177,89.6010944 C1316.93087,81.9303664 1303.99825,71.0369418 1299.7488,80.9826244 C1296.56171,88.4673557 1304.22577,95.9689109 1309.99177,89.6010944" id="Fill-142" fill="#77B72A"></path>
                <path d="M1189.0331,75.3267337 C1200.85299,70.4832195 1188.99091,54.9399581 1180.22882,61.658975 C1172.31755,67.7089836 1180.37561,78.8471373 1189.0331,75.3267337" id="Fill-144" fill="#77B72A"></path>
                <path d="M1269.73065,29.6897873 C1277.84548,24.3822699 1269.09968,8.86879341 1262.48059,19.8301153 C1258.57396,26.2878009 1262.88472,34.1563215 1269.73065,29.6897873" id="Fill-146" fill="#77B72A"></path>
                <path d="M1263.36804,54.184663 C1267.86876,43.2997243 1246.77045,41.2467541 1249.19472,52.6156011 C1250.51959,58.7796504 1260.92804,60.1140382 1263.36804,54.184663" id="Fill-148" fill="#77B72A"></path>
                <path d="M1234.77823,72.807113 C1242.34761,56.7953191 1211.78269,65.7186018 1223.85895,75.1746675 C1227.94444,78.3613757 1232.6611,77.2525211 1234.77823,72.807113" id="Fill-150" fill="#77B72A"></path>
                <path d="M931.142366,50.9949849 C940.868094,46.7934169 934.321037,33.3062608 926.076032,37.9660614 C917.352947,42.8885191 920.410201,55.6519511 931.142366,50.9949849" id="Fill-152" fill="#77B72A"></path>
                <path d="M1328.85038,71.3555474 C1323.23963,77.623045 1331.49554,87.8004747 1338.85784,82.540383 C1347.76306,76.1350584 1335.59813,63.8448872 1328.85038,71.3555474" id="Fill-154" fill="#77B72A"></path>
                <path d="M1331.37719,30.7704069 C1336.04075,19.3492033 1312.91087,14.8992654 1315.15362,28.0311418 C1316.38741,35.254996 1328.4375,37.973288 1331.37719,30.7704069" id="Fill-156" fill="#77B72A"></path>
                <path d="M1259.86586,87.1637032 C1263.93634,90.3605846 1268.66827,89.262775 1270.77289,84.8074492 C1278.36341,68.7972403 1247.7682,77.7178797 1259.86586,87.1637032" id="Fill-158" fill="#77B72A"></path>
                <path d="M1296.38734,55.4826103 C1305.64262,44.8682606 1287.58223,38.477361 1284.37653,50.5342994 C1282.08808,59.0864072 1290.74846,61.9180892 1296.38734,55.4826103" id="Fill-160" fill="#77B72A"></path>
                <path d="M1395.75218,70.9805919 C1392.55469,78.4809238 1400.23178,85.9663019 1405.99436,79.5987303 C1412.92657,71.9180166 1400.00166,61.0437035 1395.75218,70.9805919" id="Fill-162" fill="#77B72A"></path>
                <path d="M1059.73087,76.6841196 C1067.84551,71.3786962 1059.09912,55.8744144 1052.48088,66.8258893 C1048.5739,73.2845002 1052.88409,81.1646144 1059.73087,76.6841196" id="Fill-164" fill="#77B72A"></path>
                <path d="M1077.80932,37.5707032 C1088.69777,28.6694736 1068.54645,18.4366082 1064.58195,27.5750295 C1061.37765,34.9186373 1072.19361,42.1427153 1077.80932,37.5707032" id="Fill-166" fill="#77B72A"></path>
                <path d="M1090.53484,44.8555206 C1084.15329,48.1907679 1086.79877,59.8035762 1095.36783,56.3731077 C1104.64737,52.6569756 1098.38981,40.731775 1090.53484,44.8555206" id="Fill-168" fill="#77B72A"></path>
                <path d="M1037.64997,32.5991983 C1046.94269,29.3464026 1039.50233,16.2265967 1032.47079,21.055689 C1027.61867,24.4255281 1030.20962,35.199414 1037.64997,32.5991983" id="Fill-170" fill="#77B72A"></path>
                <path d="M1035.0138,55.5252953 C1027.6993,49.8452448 1018.84969,61.4310489 1025.14768,67.3350184 C1031.38446,73.1836772 1043.66533,62.2678461 1035.0138,55.5252953" id="Fill-172" fill="#77B72A"></path>
                <path d="M1033.99787,93.8302249 C1040.03995,87.5799772 1031.12851,77.6201038 1024.19299,82.1401888 C1020.40436,84.6107827 1020.30294,89.7788617 1022.24474,92.8946485 C1024.69458,96.8255632 1031.02985,96.896525 1033.99787,93.8302249" id="Fill-174" fill="#77B72A"></path>
                <path d="M1127.888,41.0497598 C1133.90609,31.6021164 1113.5617,27.8478709 1113.01124,38.2097217 C1112.59232,46.1661578 1123.99876,47.1536351 1127.888,41.0497598" id="Fill-176" fill="#77B72A"></path>
                <g id="Group-180" transform="translate(910.000000, 0.000000)">
                    <mask id="mask-8" fill="white">
                        <use xlink:href="#path-7"></use>
                    </mask>
                    <g id="Clip-179"></g>
                    <path d="M12.657375,12.0270882 C20.16675,4.79973529 6.153,-5.48585294 1.5583125,3.89797059 C-1.9048125,10.9717941 6.398625,18.0394412 12.657375,12.0270882" id="Fill-178" fill="#77B72A" mask="url(#mask-8)"></path>
                </g>
                <path d="M1160.70554,50.9921819 C1162.58915,51.0833641 1164.54063,50.3831196 1166.234,48.5674413 C1171.50346,42.8326952 1163.94313,33.7525331 1157.16072,36.5083627 C1149.65398,39.5607561 1153.1988,50.6566665 1160.70554,50.9921819" id="Fill-181" fill="#77B72A"></path>
                <path d="M1146.80904,84.5789324 C1157.69902,75.671868 1137.54336,65.4344429 1133.57855,74.576002 C1130.38565,81.9098027 1141.1934,89.1352313 1146.80904,84.5789324" id="Fill-183" fill="#77B72A"></path>
                <path d="M1092.01172,79.2019838 C1091.58352,87.1729012 1103.00711,88.1480489 1106.888,82.0542077 C1112.9081,72.6114164 1092.5481,68.8439515 1092.01172,79.2019838" id="Fill-185" fill="#77B72A"></path>
            </g>
        </g>
    </g>
</svg>