<?xml version="1.0" encoding="utf-8"?>
<!-- Generator: Adobe Illustrator 23.0.0, SVG Export Plug-In . SVG Version: 6.00 Build 0)  -->
<svg version="1.1" id="Layer_1" xmlns="http://www.w3.org/2000/svg" xmlns:xlink="http://www.w3.org/1999/xlink" x="0px" y="0px"
	 viewBox="0 0 841.9 62.7" style="enable-background:new 0 0 841.9 62.7;" xml:space="preserve">
<style type="text/css">
	.st0{fill:#76BA27;}
</style>
<path class="st0" d="M301.1,53.4c4.8-2.9-0.4-11.3-4.3-5.4C294.5,51.6,297,55.8,301.1,53.4"/>
<path class="st0" d="M303.3,30.8c7.3-0.4,3.9-10.5-1.7-8.3C297,24.3,298.3,31.1,303.3,30.8"/>
<path class="st0" d="M293,12.3c3.9-3.7-3.3-11.8-5.8-5.4C285.9,10.3,289.6,15.6,293,12.3"/>
<path class="st0" d="M317.3,13.8c5.3-2,1.1-10-2.9-7.1C311.6,8.8,313,15.5,317.3,13.8"/>
<path class="st0" d="M285.8,38.5c4.1-4.2-3.6-10.3-6.1-4.8C277.7,37.9,282.3,42,285.8,38.5"/>
<path class="st0" d="M270.7,53.7c4.8-2.9-0.4-11.3-4.3-5.4C264,51.9,266.6,56.1,270.7,53.7"/>
<path class="st0" d="M317.3,48.5c-1.9,4.1,4.5,8.1,7.7,5.5C331.4,49.1,319.6,43.4,317.3,48.5"/>
<path class="st0" d="M338.9,45.4c-1.9,4.1,2.7,8.3,6.1,4.8C349.1,46,341.4,39.9,338.9,45.4"/>
<path class="st0" d="M327.8,33.7c4.8-2.9-0.4-11.3-4.3-5.3C321.2,31.9,323.8,36.1,327.8,33.7"/>
<path class="st0" d="M339.6,13.8c4.8-2.9-0.4-11.3-4.3-5.4C333,12,335.6,16.2,339.6,13.8"/>
<path class="st0" d="M203,34.4c7-2.9,0-12-5.2-8.1C193.2,29.9,198,36.5,203,34.4"/>
<path class="st0" d="M201.6,13.3c5.3-2.3,1.7-9.7-2.8-7.1C195.2,8.2,196.7,15.4,201.6,13.3"/>
<path class="st0" d="M705.2,22.3c3.9-3.7-3.3-11.8-5.8-5.4C698.2,20.3,701.8,25.6,705.2,22.3"/>
<path class="st0" d="M202.6,48.3c-4.6,1.8-3.4,8.6,1.7,8.3C211.6,56.3,208.2,46.1,202.6,48.3"/>
<path class="st0" d="M259.8,39.7c5.3-2.3,1.7-9.7-2.8-7.1C253.4,34.6,254.9,41.8,259.8,39.7"/>
<path class="st0" d="M227.4,13.3c6.7-1.9,1.6-9.3-2.7-7.3C220.3,8.1,222.5,14.6,227.4,13.3"/>
<path class="st0" d="M254.4,12.1c5.3-2,1.1-10-2.9-7.1C248.7,7.1,250.1,13.7,254.4,12.1"/>
<path class="st0" d="M242.2,27.7c4.3-4.4-3.4-11.8-6.3-4.5C234.1,27.8,238.5,31.5,242.2,27.7"/>
<path class="st0" d="M242.6,53.9c2.3,2,4.9,1.3,6.1-1.5C253,42.5,235.9,48,242.6,53.9"/>
<path class="st0" d="M390.4,53.3c3.4-5.9-8.2-8.2-8.5-1.8C381.6,56.5,388.2,57.1,390.4,53.3"/>
<path class="st0" d="M368.9,28.2c-0.2,4.9,6.3,5.5,8.5,1.8C380.9,24.1,369.2,21.8,368.9,28.2"/>
<path class="st0" d="M389.2,10.9c4.2-9.9-12.8-4.4-6.1,1.5C385.4,14.3,388,13.6,389.2,10.9"/>
<path class="st0" d="M361.5,45c-2.3,3.5,0.2,7.8,4.3,5.4C370.6,47.5,365.4,39.1,361.5,45"/>
<path class="st0" d="M171,54.1c4.1-4.2-3.6-10.3-6.1-4.8C163,53.5,167.6,57.7,171,54.1"/>
<path class="st0" d="M104.6,11.4c4.3-4.4-3.4-11.8-6.3-4.5C96.5,11.4,100.9,15.1,104.6,11.4"/>
<path class="st0" d="M100.5,46.2c6.9-2.9,0-12-5.2-8.1C90.7,41.7,95.4,48.2,100.5,46.2"/>
<path class="st0" d="M147.9,19.2c4.8-2.9-0.4-11.3-4.3-5.4C141.3,17.3,143.8,21.6,147.9,19.2"/>
<path class="st0" d="M144.1,33.7c2.7-6.6-9.8-7.8-8.4-0.9C136.5,36.5,142.6,37.3,144.1,33.7"/>
<path class="st0" d="M126.7,44.8c4.2-9.9-12.9-4.4-6.1,1.5C122.9,48.3,125.5,47.6,126.7,44.8"/>
<path class="st0" d="M182.2,43.6c-3.1,3.6,1.5,9.4,5.5,6.4C192.6,46.3,185.9,39.3,182.2,43.6"/>
<path class="st0" d="M185.5,26.2c2.7-6.5-10.6-9-9.3-1.6C176.9,28.7,183.8,30.2,185.5,26.2"/>
<path class="st0" d="M141.6,52.8c2.3,2,4.9,1.3,6.1-1.5C151.9,41.4,134.8,46.9,141.6,52.8"/>
<path class="st0" d="M162.3,34.2c5.1-6.1-4.8-9.9-6.6-2.9C154.5,36.3,159.2,38,162.3,34.2"/>
<path class="st0" d="M521.3,25.7c2.7-6.5-10.6-9-9.3-1.6C512.7,28.3,519.6,29.8,521.3,25.7"/>
<path class="st0" d="M514.7,58.5c4.9-3.7-1.8-10.7-5.5-6.4C506.1,55.7,510.6,61.5,514.7,58.5"/>
<path class="st0" d="M502.2,39.8c4.2-9.9-12.8-4.4-6.1,1.5C498.4,43.3,501.1,42.6,502.2,39.8"/>
<path class="st0" d="M526,46c5.3-2.3,1.7-9.7-2.8-7.1C519.6,40.9,521.1,48.1,526,46"/>
<path class="st0" d="M544,57.4c4.1-4.2-3.6-10.3-6.1-4.8C535.9,56.8,540.5,60.9,544,57.4"/>
<path class="st0" d="M578.1,27.9c5.3-2,1.1-10-2.9-7.1C572.4,22.9,573.9,29.5,578.1,27.9"/>
<path class="st0" d="M583,37.6c-3.6,2.1-2.1,9.3,2.8,7.1C591.1,42.4,587.5,35,583,37.6"/>
<path class="st0" d="M566.8,60c2.3,2,4.9,1.3,6.1-1.5C577.1,48.6,560,54.2,566.8,60"/>
<path class="st0" d="M658.9,14.2c6.7-1.9,1.6-9.3-2.7-7.3C651.8,9.1,654,15.6,658.9,14.2"/>
<path class="st0" d="M567.8,38.9c4.3-4.4-3.4-11.8-6.3-4.5C559.7,39,564.1,42.6,567.8,38.9"/>
<path class="st0" d="M220.8,43.4c-1.9,4.1,2.7,8.3,6.1,4.8C231.1,43.9,223.4,37.9,220.8,43.4"/>
<path class="st0" d="M447.9,56.7c2.3,2,4.9,1.3,6.1-1.5C458.2,45.3,441.1,50.8,447.9,56.7"/>
<path class="st0" d="M480.9,12.6c2.7-6.6-9.8-7.8-8.4-0.9C473.3,15.4,479.4,16.2,480.9,12.6"/>
<path class="st0" d="M452.1,14.2c4.3-4.4-3.4-11.8-6.3-4.5C444.1,14.2,448.4,17.9,452.1,14.2"/>
<path class="st0" d="M477.7,30.9c-1.3,5,3.5,6.6,6.6,2.9C489.4,27.6,479.4,23.9,477.7,30.9"/>
<path class="st0" d="M429,23.7c1.1,0.1,2.2-0.4,3.2-1.4c3-3.3-1.3-8.6-5.2-7C422.7,17,424.7,23.5,429,23.7"/>
<path class="st0" d="M482.3,59.1c4.1-4.2-3.6-10.3-6.1-4.8C474.3,58.4,478.9,62.6,482.3,59.1"/>
<path class="st0" d="M410.5,50.9c-1.9,4.1,4.4,8,7.7,5.5C424.6,51.5,412.8,45.8,410.5,50.9"/>
<path class="st0" d="M412.5,38c4.8-2.9-0.4-11.3-4.3-5.4C405.9,36.1,408.5,40.4,412.5,38"/>
<path class="st0" d="M414.8,12.6c3.9-3.8-3.3-11.8-5.8-5.4C407.7,10.6,411.3,15.9,414.8,12.6"/>
<path class="st0" d="M25.3,46.5c4.8-2.9-0.4-11.3-4.3-5.4C18.6,44.7,21.2,49,25.3,46.5"/>
<path class="st0" d="M29.4,23.9c6.4-4.9-5.4-10.6-7.7-5.5C19.8,22.4,26.2,26.4,29.4,23.9"/>
<path class="st0" d="M42.6,28c-3.6,2.1-2.1,9.2,2.8,7.1C50.7,32.8,47.1,25.4,42.6,28"/>
<path class="st0" d="M11.6,12.7c5.3-2,1.1-10-2.9-7.1C5.9,7.7,7.4,14.3,11.6,12.7"/>
<path class="st0" d="M10.2,27c-4.2-3.3-9.3,3.4-5.7,6.8C8.1,37.2,15.1,30.9,10.2,27"/>
<path class="st0" d="M10.5,56c3.4-3.5-1.6-9-5.5-6.5c-2.1,1.4-2.2,4.2-1.1,5.9C5.2,57.6,8.8,57.7,10.5,56"/>
<path class="st0" d="M64.9,26.5c3.5-5.9-8.2-8.2-8.5-1.8C56.2,29.7,62.7,30.3,64.9,26.5"/>
<path class="st0" d="M83.4,31.7c1.1,0.1,2.2-0.4,3.2-1.4c3-3.3-1.3-8.6-5.2-7C77,25,79,31.5,83.4,31.7"/>
<path class="st0" d="M76,51.5c6.4-4.9-5.4-10.6-7.7-5.5C66.4,50,72.8,54,76,51.5"/>
<path class="st0" d="M43.4,48.4c-0.2,4.9,6.3,5.6,8.5,1.8C55.4,44.3,43.7,41.9,43.4,48.4"/>
<path class="st0" d="M602.8,57.3c2.7,0.2,4.6-3.9,1.3-6.6C598.4,45.8,596,56.9,602.8,57.3"/>
<path class="st0" d="M798.4,34.9c7-2.9,0-12-5.2-8.1C788.6,30.4,793.3,37,798.4,34.9"/>
<path class="st0" d="M796.9,13.8c5.3-2.3,1.7-9.7-2.8-7.1C790.5,8.7,792.1,15.9,796.9,13.8"/>
<path class="st0" d="M798,48.8c-4.6,1.8-3.4,8.6,1.7,8.3C807,56.8,803.6,46.6,798,48.8"/>
<path class="st0" d="M822.8,13.7c6.7-1.9,1.6-9.3-2.7-7.3C815.7,8.6,817.8,15.1,822.8,13.7"/>
<path class="st0" d="M837.5,28.2c4.3-4.4-3.4-11.8-6.3-4.5C829.5,28.3,833.8,31.9,837.5,28.2"/>
<path class="st0" d="M766.4,54.6c4.1-4.2-3.6-10.3-6.1-4.8C758.4,54,763,58.1,766.4,54.6"/>
<path class="st0" d="M695.8,46.6c6.9-2.9,0-12-5.2-8.1C686,42.1,690.8,48.7,695.8,46.6"/>
<path class="st0" d="M743.3,19.6c4.8-2.9-0.4-11.3-4.3-5.4C736.6,17.8,739.2,22.1,743.3,19.6"/>
<path class="st0" d="M739.4,34.2c2.7-6.6-9.8-7.8-8.4-0.9C731.8,36.9,738,37.7,739.4,34.2"/>
<path class="st0" d="M722,45.3c4.2-9.9-12.9-4.4-6.1,1.5C718.2,48.7,720.9,48.1,722,45.3"/>
<path class="st0" d="M545.1,31.9c5.3-2.3,1.7-9.7-2.8-7.1C537.6,27.4,539.3,34.4,545.1,31.9"/>
<path class="st0" d="M777.6,44c-3.1,3.6,1.5,9.4,5.5,6.4C788,46.8,781.3,39.8,777.6,44"/>
<path class="st0" d="M778.5,20.5c2.7-6.5-10.6-9-9.3-1.6C769.9,23.1,776.8,24.6,778.5,20.5"/>
<path class="st0" d="M737,53.3c2.3,2,4.9,1.3,6.1-1.5C747.3,41.9,730.2,47.4,737,53.3"/>
<path class="st0" d="M757.7,34.7c5.1-6.1-4.8-9.9-6.6-2.9C749.8,36.8,754.6,38.4,757.7,34.7"/>
<path class="st0" d="M816.2,43.9c-1.9,4.1,2.7,8.3,6.1,4.8C826.4,44.4,818.7,38.4,816.2,43.9"/>
<path class="st0" d="M620.6,47c4.8-2.9-0.4-11.3-4.3-5.4C614,45.2,616.6,49.5,620.6,47"/>
<path class="st0" d="M630.8,23.9c6.4-4.9-5.4-10.6-7.7-5.5C621.2,22.4,627.5,26.4,630.8,23.9"/>
<path class="st0" d="M638,28.4c-3.6,2.1-2.1,9.2,2.8,7.1C646,33.3,642.5,25.9,638,28.4"/>
<path class="st0" d="M607,22.1c5.3-2,1.1-10-2.9-7.1C601.3,17.1,602.8,23.7,607,22.1"/>
<path class="st0" d="M605.5,35.5c-4.2-3.3-9.3,3.4-5.7,6.8C603.4,45.7,610.5,39.4,605.5,35.5"/>
<path class="st0" d="M605.8,56.4c3.4-3.5-1.6-9-5.5-6.5c-2.1,1.4-2.2,4.2-1.1,5.9C600.6,58.1,604.2,58.1,605.8,56.4"/>
<path class="st0" d="M660.3,27c3.5-5.9-8.2-8.2-8.5-1.8C651.5,30.2,658.1,30.8,660.3,27"/>
<path class="st0" d="M540.7,9.3c4.1-4.2-3.6-10.3-6.1-4.8C532.6,8.7,537.2,12.8,540.7,9.3"/>
<path class="st0" d="M678.7,32.1c1.1,0.1,2.2-0.4,3.2-1.4c3-3.3-1.3-8.6-5.2-7C672.3,25.5,674.4,31.9,678.7,32.1"/>
<path class="st0" d="M671.4,52c6.4-4.9-5.4-10.6-7.7-5.5C661.8,50.5,668.1,54.5,671.4,52"/>
<path class="st0" d="M638.8,48.9c-0.2,4.9,6.3,5.6,8.5,1.8C650.8,44.8,639.1,42.4,638.8,48.9"/>
</svg>
