<svg xmlns="http://www.w3.org/2000/svg" viewBox="0 0 929.47 78.45"><title>lines</title><g id="Layer_2" data-name="Layer 2"><g id="Layer_1-2" data-name="Layer 1"><path d="M884.52,26.38c-.28-4.22-6.89-4.25-6.61,0q1.65,24.51,4.39,48.91c.47,4.18,7.09,4.23,6.61,0Q886.15,50.89,884.52,26.38Z" style="fill:#77b82a"/><path d="M0,3.19Q.8,40.81,1.57,78.45H8.18Q7.4,40.82,6.61,3.19C6.52-1.06-.09-1.07,0,3.19Z" style="fill:#77b82a"/><path d="M23,4.37a683,683,0,0,1,5.15,74.08h6.6A680.47,680.47,0,0,0,29.6,4.37C29.08.21,22.47.16,23,4.37Z" style="fill:#77b82a"/><path d="M45.28,6.65q1.95,35.88,1.85,71.8h6.61q.09-35.93-1.85-71.8C51.66,2.42,45.05,2.4,45.28,6.65Z" style="fill:#77b82a"/><path d="M78.18,11.29c-.34-4.21-7-4.25-6.6,0,1.84,22.39.28,44.8.38,67.16h6.61C78.46,56.09,80,33.69,78.18,11.29Z" style="fill:#77b82a"/><path d="M96.29,11.26a653.54,653.54,0,0,1,4.31,67.19h6.61a659.22,659.22,0,0,0-4.31-67.19C102.41,7.08,95.8,7,96.29,11.26Z" style="fill:#77b82a"/><path d="M128.25,6.67V78.45h6.61V6.67C134.86,2.41,128.25,2.41,128.25,6.67Z" style="fill:#77b82a"/><path d="M152,11.31q-1.26,33.55-.84,67.14h6.61q-.4-33.58.84-67.14C158.73,7.06,152.12,7.06,152,11.31Z" style="fill:#77b82a"/><path d="M180.89,13.64q-.58,32.4-1.16,64.81h6.61q.57-32.41,1.15-64.81C187.57,9.38,181,9.38,180.89,13.64Z" style="fill:#77b82a"/><path d="M203.84,17.14a559.83,559.83,0,0,0-.48,61.31H210a557.35,557.35,0,0,1,.48-61.31C210.72,12.89,204.11,12.91,203.84,17.14Z" style="fill:#77b82a"/><path d="M221.84,18.26q1,30.09,2.11,60.19h6.6q-1.05-30.11-2.11-60.19C228.3,14,221.69,14,221.84,18.26Z" style="fill:#77b82a"/><path d="M249.66,17.1c.07-4.25-6.54-4.25-6.61,0q-.48,30.69.32,61.35H250Q249.18,47.78,249.66,17.1Z" style="fill:#77b82a"/><path d="M267.51,17.12q.09,30.69,1.55,61.33h6.61q-1.46-30.64-1.55-61.33C274.11,12.87,267.5,12.86,267.51,17.12Z" style="fill:#77b82a"/><path d="M290.81,24.07q-1.41,27.18-1.49,54.38h6.6q.09-27.21,1.49-54.38C297.63,19.82,291,19.83,290.81,24.07Z" style="fill:#77b82a"/><path d="M312.77,17.11q.24,30.68.5,61.34h6.6q-.24-30.68-.49-61.34C319.34,12.86,312.74,12.85,312.77,17.11Z" style="fill:#77b82a"/><path d="M331,19.43q2.37,29.48,2.41,59H340q0-29.56-2.41-59C337.25,15.22,330.64,15.18,331,19.43Z" style="fill:#77b82a"/><path d="M351.12,19.46a452.21,452.21,0,0,1,1.84,59h6.61a454,454,0,0,0-1.84-59C357.33,15.27,350.71,15.23,351.12,19.46Z" style="fill:#77b82a"/><path d="M372,24.07q.92,27.18,1.81,54.38h6.6l-1.8-54.38C378.43,19.83,371.82,19.81,372,24.07Z" style="fill:#77b82a"/><path d="M388.7,24.06q2.4,27.19,4.81,54.39h6.61q-2.42-27.2-4.81-54.39C394.93,19.86,388.32,19.82,388.7,24.06Z" style="fill:#77b82a"/><path d="M427.36,19.45q.72,29.51,1.45,59h6.6l-1.44-59C433.87,15.21,427.26,15.19,427.36,19.45Z" style="fill:#77b82a"/><path d="M413.23,26.38c-.28-4.22-6.89-4.25-6.61,0q1.65,24.51,4.39,48.91c.47,4.18,7.09,4.23,6.61,0Q414.86,50.89,413.23,26.38Z" style="fill:#77b82a"/><path d="M450.54,17.12q.51,30.66,1,61.33h6.61q-.53-30.68-1-61.33C457.08,12.87,450.47,12.86,450.54,17.12Z" style="fill:#77b82a"/><path d="M471.29,3.19q.79,37.62,1.57,75.26h6.61q-.78-37.64-1.57-75.26C477.81-1.06,471.2-1.07,471.29,3.19Z" style="fill:#77b82a"/><path d="M494.29,4.37a685.52,685.52,0,0,1,5.14,74.08H506a683,683,0,0,0-5.15-74.08C500.37.21,493.76.16,494.29,4.37Z" style="fill:#77b82a"/><path d="M516.57,6.65q1.95,35.88,1.85,71.8H525q.09-35.93-1.85-71.8C523,2.42,516.34,2.4,516.57,6.65Z" style="fill:#77b82a"/><path d="M549.47,11.29c-.34-4.21-7-4.25-6.6,0,1.84,22.39.28,44.8.38,67.16h6.61C549.75,56.09,551.32,33.69,549.47,11.29Z" style="fill:#77b82a"/><path d="M567.58,11.26a653.54,653.54,0,0,1,4.31,67.19h6.61a656.37,656.37,0,0,0-4.31-67.19C573.7,7.08,567.09,7,567.58,11.26Z" style="fill:#77b82a"/><path d="M599.54,6.67V78.45h6.61V6.67C606.15,2.41,599.54,2.41,599.54,6.67Z" style="fill:#77b82a"/><path d="M623.25,11.31q-1.25,33.55-.84,67.14H629q-.4-33.58.84-67.14C630,7.06,623.41,7.06,623.25,11.31Z" style="fill:#77b82a"/><path d="M652.18,13.64Q651.6,46,651,78.45h6.61q.57-32.41,1.15-64.81C658.86,9.38,652.25,9.38,652.18,13.64Z" style="fill:#77b82a"/><path d="M675.13,17.14a562.34,562.34,0,0,0-.48,61.31h6.61a557.35,557.35,0,0,1,.48-61.31C682,12.89,675.4,12.91,675.13,17.14Z" style="fill:#77b82a"/><path d="M693.13,18.26q1.05,30.09,2.11,60.19h6.6q-1.05-30.11-2.11-60.19C699.59,14,693,14,693.13,18.26Z" style="fill:#77b82a"/><path d="M721,17.1c.07-4.25-6.54-4.25-6.61,0q-.48,30.69.32,61.35h6.6Q720.47,47.78,721,17.1Z" style="fill:#77b82a"/><path d="M738.8,17.12q.09,30.69,1.55,61.33H747q-1.46-30.64-1.55-61.33C745.4,12.87,738.79,12.86,738.8,17.12Z" style="fill:#77b82a"/><path d="M762.1,24.07q-1.41,27.18-1.49,54.38h6.6q.09-27.21,1.49-54.38C768.92,19.82,762.32,19.83,762.1,24.07Z" style="fill:#77b82a"/><path d="M784.06,17.11q.26,30.68.5,61.34h6.6l-.49-61.34C790.63,12.86,784,12.85,784.06,17.11Z" style="fill:#77b82a"/><path d="M802.27,19.43q2.37,29.48,2.41,59h6.61q0-29.56-2.41-59C808.54,15.22,801.93,15.18,802.27,19.43Z" style="fill:#77b82a"/><path d="M822.41,19.46a454,454,0,0,1,1.85,59h6.6a454,454,0,0,0-1.84-59C828.62,15.27,822,15.23,822.41,19.46Z" style="fill:#77b82a"/><path d="M843.25,24.07q.91,27.18,1.81,54.38h6.6l-1.8-54.38C849.72,19.83,843.11,19.81,843.25,24.07Z" style="fill:#77b82a"/><path d="M860,24.06q2.4,27.19,4.81,54.39h6.61Q869,51.26,866.6,24.06C866.22,19.86,859.61,19.82,860,24.06Z" style="fill:#77b82a"/><path d="M898.65,19.45q.72,29.51,1.45,59h6.6l-1.44-59C905.16,15.21,898.55,15.19,898.65,19.45Z" style="fill:#77b82a"/><path d="M928.44,17.12c-.07-4.25-6.68-4.26-6.61,0q.51,30.66,1,61.33h6.61Q928.95,47.78,928.44,17.12Z" style="fill:#77b82a"/></g></g></svg>