<?xml version="1.0" encoding="UTF-8"?>
<svg width="444px" height="67px" viewBox="0 0 444 67" version="1.1" xmlns="http://www.w3.org/2000/svg" xmlns:xlink="http://www.w3.org/1999/xlink">
    <!-- Generator: sketchtool 52.3 (67297) - http://www.bohemiancoding.com/sketch -->
    <title>E577F3D3-674E-4653-9E4E-0770E7298AA3</title>
    <desc>Created with sketchtool.</desc>
    <defs>
        <polygon id="path-1" points="0 0 444 0 444 67 0 67"></polygon>
    </defs>
    <g id="External" stroke="none" stroke-width="1" fill="none" fill-rule="evenodd">
        <g id="desktop" transform="translate(-107.000000, -548.000000)">
            <g id="squiggle" transform="translate(107.000000, 548.000000)">
                <mask id="mask-2" fill="white">
                    <use xlink:href="#path-1"></use>
                </mask>
                <g id="Clip-2"></g>
                <path d="M16.1399117,55.4552859 C13.6888639,59.0605592 11.3725095,65.8580907 8.72436466,66.7267945 C6.07591089,67.5951935 2.71969932,66.2070962 1.83770521,65.1643468 C0.955402164,64.1261695 -0.810748567,60.6571455 0.424661049,58.9206522 C1.66007067,57.1884262 3.95634465,51.2934324 6.07591089,49.3871609 C8.19578605,47.4760124 16.1399117,39.8475734 21.4380549,33.7773147 C26.7343446,27.7043128 38.5688211,14.6947868 48.2760081,7.58757009 C57.9887559,0.480353373 64.6977808,-0.904086235 68.7605145,0.480353373 C72.8220124,1.86692664 78.118611,8.4547499 76.529477,16.7818097 C74.9418876,25.1024685 70.3499574,48.1688418 71.2341141,48.6882353 C72.1148725,49.2128105 87.3040159,40.541622 92.2465811,37.7657322 C97.1897643,34.9907568 105.662777,31.1779089 111.669914,33.9480074 C117.674271,36.7238972 122.264347,46.0879151 125.794795,46.4353966 C129.329259,46.7856214 144.868111,38.8084816 150.517816,35.8591559 C156.167521,32.9089157 176.827808,21.8129766 186.893663,22.8508491 C196.958899,23.8939034 205.256749,31.5217328 208.08222,37.5926011 C210.908308,43.660726 214.262666,53.5490143 218.147765,54.5868868 C222.035954,55.6308555 233.156803,51.2934324 240.396878,47.6503628 C247.638188,44.0057691 273.948799,28.2261447 286.133601,24.7586447 C298.316859,21.2896207 306.6144,21.8129766 314.384599,29.7849347 C322.153561,37.7657322 328.333699,46.0879151 342.107635,42.0994976 C355.880645,38.1107753 371.068862,29.090886 381.486278,29.9592851 C391.903077,30.8279889 396.144372,37.4167266 400.558049,41.0613203 C404.970182,44.6998178 409.739438,45.7425672 417.508092,43.8362957 C425.277054,41.9236232 434.811858,37.9364249 438.875519,37.2423762 C442.93609,36.5532045 445.583926,37.7657322 442.93609,42.4433214 C440.288563,47.1294453 425.63047,52.8561849 418.745973,54.7587987 C411.856842,56.6650703 406.208063,58.4018684 398.790354,53.0253535 C391.374189,47.6503628 385.549012,38.1107753 375.659247,41.7541497 C365.771337,45.3972193 341.580292,55.4552859 334.338673,54.7587987 C327.098598,54.0635308 318.270625,49.2079335 313.500751,43.660726 C308.73304,38.1107753 303.612531,31.0023393 290.192319,35.6848055 C276.772415,40.3672716 246.929813,57.7081245 240.221097,60.6571455 C233.512072,63.6064712 227.153991,68.6342853 216.382232,65.1643468 C205.612018,61.6953228 202.78871,52.1569545 200.137785,46.0879151 C197.490258,40.0173516 193.073182,29.2655412 179.1247,34.9907568 C165.175291,40.7162772 148.045143,49.9053351 141.688916,53.3743591 C135.331453,56.8397255 126.150064,58.4018684 119.794146,54.9319299 C113.436065,51.4632107 111.672077,43.142247 105.489777,44.1801195 C99.3093305,45.2231737 76.3518424,59.9634016 71.9375469,59.9634016 C67.5235602,59.9634016 59.9325412,53.2000087 59.5788167,48.8625857 C59.2244745,44.5242482 62.7539956,33.0796084 64.5226177,24.9281182 C66.2912399,16.7818097 67.8745043,10.1878903 65.579466,9.15001779 C64.5689572,8.69189081 59.5840686,10.9398525 53.9275669,15.0447068 C46.7570011,20.2468712 38.301597,28.1353118 33.2669707,33.9480074 C24.2613629,44.3547747 18.259169,52.3316097 16.1399117,55.4552859" id="Fill-1" fill="#77B72A" mask="url(#mask-2)"></path>
            </g>
        </g>
    </g>
</svg>