<?xml version="1.0" encoding="utf-8"?>
<!-- Generator: Adobe Illustrator 23.0.0, SVG Export Plug-In . SVG Version: 6.00 Build 0)  -->
<svg version="1.1" id="Layer_1" xmlns="http://www.w3.org/2000/svg" xmlns:xlink="http://www.w3.org/1999/xlink" x="0px" y="0px"
	 viewBox="0 0 841.9 89.6" style="enable-background:new 0 0 841.9 89.6;" xml:space="preserve">
<style type="text/css">
	.st0{fill:#76BA27;}
</style>
<g>
	<path class="st0" d="M617,87.4c-10.4,0-20.7-2.6-29.4-7.7c-3.6-2.1-7-4.5-10.3-7.2c-1.8,2.3-3.6,4.3-5.3,5.9
		c-15.3,13.7-36.4,7.7-53.4,3l-2.4-0.7c-20-5.6-35.2-13.7-45.2-24c-0.4,0.4-0.8,0.8-1.3,1.2c-12.2,10.6-30.4,10.5-40.2,9.5
		c-16-1.6-29.7-6.3-39.8-13.4c-4.1,4.2-9.2,7-14.8,8.1c-10,2.1-20.6,0.5-30.7-4.4c-0.9,2-2,3.9-3.1,5.7
		c-9.5,15.1-24.4,19.4-43.1,12.5c-9.8-3.6-23.8-9.3-34.3-18.4c-2,3.3-4.3,6.7-6.8,10.2c-5.7,7.9-18,14.8-35.7,10.5
		c-12.9-3.1-25.6-9.9-35.9-19.2c-1.6,2.8-3.4,5.5-5.3,7.8c-6.1,7.5-13.4,12.9-21,15.7c-8.8,3.2-17.8,2.7-26.1-1.5
		c-10.5-5.3-20.6-13-28.5-21.9C94.1,72.4,80.7,79.5,65.2,79.5c-1.5,0-3-0.1-4.5-0.2c-15.9-1.3-28.7-11.5-36.2-19.1
		c-2.1,7.1-7,20.1-18.4,20.1c-0.1,0-0.2,0-0.3,0c-1.4,0-2.7-0.8-3.4-2c-0.7-1.3-0.7-2.9,0.1-4.1c0.7-1.2,1.9-1.8,3.3-1.8
		c7.3,0.2,10.9-10,12.7-19c-2-2.5-3.9-5.1-5.6-7.8c-5.1-8.1-11.4-25-6.4-35.9c2.1-4.6,5.3-5.1,7-5c5.3,0.3,10.6,6.9,12.1,11.5
		c3.2,10,3.6,22.5,1.1,35.1c7.7,9,17.6,15.7,27.4,18.4c16.6,4.7,34.6-2.1,45.2-16.8c-3.4-4.5-6.2-9-8.3-13.5l0,0
		c-2.8-6-7.2-25.5-0.3-33.6c2-2.3,5.7-4.6,12.3-2.7c8.4,2.4,12.4,15.7,12.6,22c0.3,9-2.1,18.3-6.9,26.8c2.7,2.9,5.7,5.9,9.5,9.2
		c7.5,6.5,19.9,17.4,31.9,15.7c10.5-1.6,21.3-9.8,27.5-21c0.5-0.9,1-1.8,1.5-2.8c-7.4-8.2-19.2-24-14.4-37.8
		C167,8.5,171.9,4.7,177.8,5c6.4,0.3,11.8,5.5,13.4,12.8c2.5,11,1.6,22.9-2.6,33.7c5.4,5.1,11.8,9.5,18.5,13
		c11.9,6.1,33.6,13.5,45.5-4.8l0.4-0.6c1.5-2.3,3.1-4.8,4.7-7.5c-3.1-3.6-5.5-7.5-7.1-11.6c-2.5-6.3-4.8-15.7,3.5-23.9
		c2.5-2.5,5.5-3.6,8.6-3.3c2.8,0.3,5.5,1.7,7.9,4.1c6.4,6.5,5.4,17.7-3,33.4c1.8,1.6,3.8,3.1,6,4.6c10.7,7.4,31,19.2,46.4,15.6
		c6-1.4,10.7-5.1,14.1-11.1c1.1-1.9,2-3.8,2.8-5.6c-6.1-3.5-13.6-8.7-16.6-15.5c-3.7-8.5-2.9-15.7,2.1-19.3c6.4-4.5,13.6-4.2,18.9,1
		c9.5,9.3,7.9,22.2,5.6,30.1c8.5,3.9,25.6,9.8,36.5-1.1c-8.4-7.8-13.4-16.1-14.9-24.6c-0.1-0.4-0.2-0.9-0.2-1.3
		c-0.9-5.1-2.1-11.4,2.8-15.7c2.8-2.4,6.4-3.1,10.4-1.8c7.3,2.2,14.9,10.6,16.5,16.3c2.4,8.5,1,18-3.6,25.8
		c3.3,2.3,6.8,4.2,10.5,5.7c16.8,6.9,34,8.6,47.3,4.6c5.1-1.5,9.5-4.1,13.1-7.7c-3.9-5.4-6.7-11.2-8.1-16.9
		c-1.9-7.4-1.6-14.3,0.9-20.7c2.7-6.9,8.5-7.1,12.6-6.5c8.2,1,9.7,9.6,10.3,12.9c2.1,11.6,0.2,22.9-5.2,31.4
		c1.3,1.3,2.6,2.6,4.1,3.8c8.5,7,18.5,12.4,29.8,16.2l1.2,0.4c9,3,18.4,6.2,27.5,7.4c18.5,2.5,28-4.3,32.9-11
		c-10-9.9-16.7-21.7-19.1-33.4c-1.5-7.3-0.2-18.1,5.2-24.7c3-3.7,7-5.6,11.6-5.6c10.4,0,17.7,3.6,21.6,10.8
		c7,12.9,0.8,35.5-9.1,51.8c6.8,5.6,14.3,9.6,21.4,11.4c20.8,5.4,41.7-1.4,52.7-17c-9.8-7.5-16.1-17.1-18.1-27.9
		c-0.6-3.2-2.1-14.2,3.8-20.8c2.9-3.2,7-4.6,11.9-4.2c5.9,0.5,10.9,3.1,14.4,7.6c4.4,5.7,6.3,14.3,4.9,22.9c-1.1,7-3.2,13.8-6,19.7
		c5.2,3,11.2,5.3,17.3,6.8c10.5,2.6,22.7,5,33.3,2.2c6.3-1.7,11.6-5.5,15.6-11.2c-7.5-7.6-15.1-20-14.9-30.8
		c0.1-5.8,2.3-10.6,6.6-14.3c5.7-5,10.3-4.5,13.1-3.2c7.3,3.4,10.4,15.8,10.3,23.4c-0.1,8-1.9,16.1-5,23.1c1.9,1.5,3.9,3,6,4.3
		c17.2,10.9,38.4,13.6,55.3,7.1c9.8-3.8,21.3-14.3,26.2-23.9c2.7-5.3,5.4-4.8,6.4-4.4c1.8,0.8,2.4,3.1,1.5,5.6
		c-3.1,8.1-7.2,13.9-13.8,19.6c-12,10.4-28.3,15.5-44.8,14.1c-15.2-1.3-29.2-6.6-40.7-15.4c-4.5,6.7-10.5,11.1-17.4,13
		c-18.2,4.8-41.6,1.3-58.9-8.9c-4.5,6.8-10.1,12-16.6,15.3C636.8,85.1,626.8,87.4,617,87.4z M559.6,27.1
		c0.2,11.1,5.9,23.1,15.8,33.4c3.5-6.2,6.8-12.9,8.8-20c4-14,1.8-22.8-6.6-26.8c-4.7-2.2-8.9-2.3-12.2-0.1
		C561.6,16,559.5,21.1,559.6,27.1L559.6,27.1z M651.8,15.8c-0.7,0-1.4,0.1-2,0.2c-3.8,0.9-4.8,4.5-4.9,7.3v0
		c-0.7,14.5,7.3,24.2,14.9,30.2c0.3-0.6,0.5-1.2,0.8-1.8c2-4.9,8-19.8,2.9-28.9C661,18.7,656.1,15.8,651.8,15.8z M726.2,27.9
		c1,7.4,4.5,14.2,10.3,20.5c0.9-2.2,1.6-4.5,2-6.8c1.8-8.7,1.3-15.9-1.5-23.2c-0.7-1.8-2.1-4.7-3.8-4.3
		C730,14.9,725.7,24.1,726.2,27.9L726.2,27.9z M331.2,23.5c-1.2,0-2.2,0.5-3.1,1.5c-2.1,2.4-2.4,6.7-0.8,9.3
		c2.7,4.4,7,8.4,12.5,11.9c2-6.9,1.7-12.6-0.9-16.8c-1.8-2.9-3.5-4.6-5.5-5.4C332.6,23.7,331.9,23.5,331.2,23.5z M100.1,13.9
		c-0.7,0-1.3,0.1-1.9,0.3c-2.4,0.7-3.9,2.7-3.8,5.2c0,6.4,1.7,12.9,4.8,18.9c1.3,2.5,2.8,4.9,4.5,7.4c2-4.2,3.2-8.5,3.8-13
		c0.9-7.2,0.1-12.4-2.3-16.1l0,0C103.8,14.6,101.9,13.9,100.1,13.9z M172.7,27c1.7,6.1,5,12.2,9.7,17.9c2.2-6.8,2.8-13.6,2-20.4
		c-0.5-4.1-3.4-12.6-6.3-13.4c-1.3-0.4-2.9,1.4-3.8,2.5C170.8,18.2,172,24.5,172.7,27L172.7,27z M259.9,40.9c0.5,1,1.2,2.1,2,3.2
		c3.4-7,4.8-12.8,4.3-17.6c-0.6-1.8-2.1-4.6-4.9-4.2c-2.5,0.4-5.2,3.3-5.2,7c0.2,1.3,0.4,2.5,0.6,3.8
		C257.6,35.9,258.6,38.5,259.9,40.9L259.9,40.9z M464.6,30.3c1.5,5,3.4,9.3,5.8,13.2c3.9-7.1,4.8-15.7,2.6-24.4
		c-0.8-3-2.6-4.9-4.7-4.8c-2,0.1-3.6,2.1-4,5.2C463.8,24.1,463.8,27.6,464.6,30.3L464.6,30.3z M379.5,31.2c2.3,4.1,5.3,7.9,8.7,11.2
		c4.2-7.9,5.4-18.3-1.5-24.5c-2.3-2-7.8-5.5-10.1-5c-0.2,0.1-0.5,0.1-0.7,0.7C374,18.1,376.8,26.6,379.5,31.2L379.5,31.2L379.5,31.2
		z M14.5,13.1c-1,1.9-1.1,9.2-0.4,13.1v0c0.9,5.2,2.9,10.6,5.9,15.7c0.2-3.3,0.3-5.8,0.2-6.7c0-6.2-0.1-14.8-3.9-20
		C15.4,13.9,14.8,13.4,14.5,13.1z"/>
</g>
</svg>
