<?xml version="1.0" encoding="UTF-8"?><svg xmlns="http://www.w3.org/2000/svg" xmlns:xlink="http://www.w3.org/1999/xlink" viewBox="0 0 797 114"><defs><style>.f{fill:#fff;}.g{fill:#c11e64;}.h{fill:#d41568;}.i{fill:#76bd22;}.j{clip-path:url(#c);}.k{clip-path:url(#b);}</style><clipPath id="b"><rect class="h" x="-.04" y="-.11" width="797" height="114"/></clipPath><clipPath id="c"><rect class="h" x="816.96" y="-.11" width="797" height="114"/></clipPath></defs><g id="a"><g><rect class="h" x="-.04" y="-.11" width="797" height="114"/><g class="k"><path class="g" d="M-662.58,80.28s-10.57,14.75-32.76,62.1c-13.03,27.81-18.49,48.94-21.67,50.52-3.16,1.58-12.68,2.64-18.49-1.58-5.81-4.21-14.8-13.68-7.92-36.31,6.87-22.63,40.16-81.57,68.7-128.94,28.53-47.37,57.06-88.94,66.58-95.25,9.51-6.31,16.37-7.89,26.41-4.22,10.04,3.69,18.5,10,13.74,23.16-4.75,13.16-21.66,52.1-40.15,100-18.5,47.88-29.59,84.73-29.59,84.73,0,0,39.1-60.53,65.52-103.68,26.42-43.15,62.89-99.99,69.23-107.36,6.33-7.37,21.66-8.95,30.65-4.21,8.98,4.74,17.96,14.2,13.73,21.58-4.22,7.37-16.91,33.68-41.22,86.83-24.3,53.16-42.8,96.83-42.8,96.83,0,0,39.11-62.1,67.12-105.25,28-43.15,54.95-85.26,55.49-86.83,.52-1.58,4.74-12.63,10.56-14.21,5.82-1.57,13.74,0,23.25,3.15,9.51,3.17,14.79,10.01,13.21,16.32-1.58,6.31-5.28,10.53-10.04,18.42-4.75,7.89-24.32,47.35-39.11,81.04-14.79,33.68-35.39,82.63-35.39,82.63,0,0,44.91-74.74,64.99-106.31,20.08-31.58,46.5-65.79,51.25-72.62,4.76-6.85,18.5-9.48,29.06-3.69,10.56,5.79,15.86,12.64,9.51,24.74-6.34,12.1-29.07,55.78-54.43,111.56-25.36,55.79-42.8,98.42-42.8,98.42,0,0,32.24-41.06,66.05-98.94C-300.09,15.03-249.89-60.23-236.15-75.49c13.74-15.26,24.83-16.84,37.51-11.06,12.69,5.79,14.8,11.05,10.57,21.05-4.23,10-23.25,47.89-51.78,106.3-28.54,58.41-39.1,85.79-39.1,85.79,0,0,28.53-44.73,53.37-83.15,24.84-38.42,49.67-76.83,66.57-98.42,16.92-21.57,22.73-28.4,27.49-28.93,4.76-.53,16.9,.52,25.89,6.84,8.98,6.31,6.35,17.36,2.65,25.26-3.71,7.89-25.9,43.15-50.2,107.36-24.3,64.21-36.99,98.93-31.7,101.56,5.28,2.64,22.19-25.25,36.99-45.25C-133.11,91.86-80.81,17.66-55.45-15.5-30.08-48.65-7.36-73.38-2.6-75.49c4.75-2.11,16.9,0,25.36,4.21,8.46,4.21,13.74,13.16,7.92,29.47C24.88-25.49,6.9,7.66-14.22,49.24c-21.13,41.57-33.29,76.31-33.29,76.31,0,0,19.03-22.63,45.97-57.9C25.4,32.39,62.93-22.34,92.52-53.39c29.58-31.05,49.13-48.95,61.29-47.9,12.15,1.06,30.65,11.58,25.9,25.26-4.76,13.69-28.63,65.74-47.56,104.73-15.33,31.57-37.52,76.3-34.35,75.25,3.18-1.05,38.04-45.79,63.94-76.31,25.89-30.53,61.82-72.63,71.33-78.42,9.52-5.79,19.56-2.1,27.49,2.63,7.93,4.74,10.04,17.9,6.34,24.21-3.71,6.31-19.04,27.88-46.5,77.88-27.48,50-39.11,77.36-39.11,77.36,0,0,34.88-44.21,69.75-88.4C285.91-1.28,308.63-26.56,316.02-33.92c7.4-7.36,16.39-9.47,25.9-5.25,9.51,4.2,24.83,11.04,15.33,28.41-9.52,17.37-17.97,27.9-36.47,65.78-18.49,37.89-26.42,65.26-26.42,65.26,0,0,31.89-37.89,65.89-80.52,33.99-42.63,81.01-94.2,88.94-100.52,7.93-6.31,21.15-7.37,31.7,0,10.57,7.37,12.68,18.95,5.81,30.53-6.87,11.57-19.02,26.31-40.68,67.89-21.67,41.57-30.65,65.78-30.65,65.78,0,0,48.61-61.05,81.91-98.41,33.29-37.36,59.18-66.83,66.05-72.62,6.86-5.79,16.91-7.89,24.3-4.21,7.4,3.69,24.31,14.2,16.39,29.47-7.93,15.26-19.54,31.33-45.44,88.82-25.9,57.48-35.54,86.58-31.71,89.58,2.83,2.2,13.58-7.5,20.61-14.21,13.86-13.22,62.81-61.38,80.43-77.96,17.64-16.58,69.37-62.55,85.48-71.76,16.12-9.21,28.26-10.01,33.81-7.64,5.55,2.37,17.17,11.06,19.54,13.16,2.38,2.11,2.12,5.79,0,10.27-2.1,4.47-10.57,27.63-19.82,51.31-9.24,23.68-13.47,35.25-11.09,36.58,2.38,1.32,17.96-14.48,26.94-22.37,8.99-7.89,39.36-40.26,53.9-50.53,14.53-10.26,28.79-19.21,42-19.47,13.21-.26,23.25,4.48,26.16,10.01,2.9,5.52,1.58,10.79-2.12,13.41-3.69,2.64-19.82,6.05-29.59,12.9-9.77,6.84-30.91,27.1-44.38,41.31-13.48,14.21-33.29,37.11-48.88,49.21-15.58,12.1-34.34,21.56-44.38,15.52-10.05-6.04-25.64-19.2-26.95-31.58-1.32-12.36,3.69-31.04,8.45-44.73,4.76-13.69,7.92-21.58,3.44-19.21-4.49,2.36-42.01,37.63-61.82,57.1-19.81,19.47-61.82,62.09-78.47,74.99-16.65,12.9-35.4,25.53-49.94,18.68-14.54-6.84-27.47-22.63-28.26-33.94-.8-11.31,2.63-30,8.45-44.47,5.81-14.47,18.76-47.36,20.08-50.52,1.32-3.15,1.31-7.1-2.91-2.63-4.22,4.48-24.3,32.63-47.02,60.53-22.73,27.89-48.62,58.94-57.87,66.83-9.25,7.89-21.4,10.53-27.74,7.63-6.34-2.89-21.4-17.89-21.66-22.36-.27-4.47-1.33-18.17,4.22-31.05,5.55-12.89,18.24-41.83,20.08-46.05,1.85-4.2,1.05-6.57-2.64-2.37-3.7,4.21-43.59,55.51-55.48,70-11.89,14.47-32.23,38.95-45.7,37.1-13.47-1.85-34.61-17.11-33.82-30.53,.79-13.42,5.55-31.57,11.09-46.05,5.55-14.47,7.66-21.84,7.66-21.84,0,0-20.61,28.15-36.72,49.2-16.11,21.06-15.87,18.16-21.91,24.44-3.96,7.89-21.41,17.89-28.54,22.89-7.14,5-19.03,9.99-28.8,5.52-9.77-4.47-25.36-16.83-21.66-31.31,3.69-14.48,6.05-10.49,15.31-28.64,9.25-18.16,21.93-43.69,21.93-43.69,0,0-39.83,51.17-52.31,66.31-14.53,17.64-26.41,29.48-40.43,27.37-14-2.11-22.98-10.53-27.74-16.05-4.75-5.54-5.03-17.11-1.32-26.85,3.7-9.74,30.12-68.15,40.16-88.94C86.7,30.81,103.87-2.34,105.72-6.29c1.84-3.95,6.33-11.85,3.69-10-2.63,1.85-27.47,30.26-42.26,50.78C52.35,55.02,19.32,99.23,4,120.28c-15.32,21.05-35.14,51.3-45.45,61.31-10.3,10-21.92,15.79-27.74,15.53-5.81-.26-36.19-16.05-32.49-31.57,3.7-15.53,12.15-41.32,24.3-68.94,12.15-27.63,24.05-54.74,24.05-54.74,0,0-20.87,27.11-39.1,52.63-18.23,25.52-52.58,74.47-62.62,89.47-10.03,15-19.28,24.99-28.26,30.52-8.98,5.53-16.91,6.31-25.36,2.36-8.45-3.94-23.51-14.2-23.51-27.88s3.7-32.38,10.83-53.43c7.14-21.05,19.28-57.88,21.14-62.62,1.86-4.74,1.33-5.79-4.49,3.16-5.82,8.94-43.86,68.42-53.64,85.25-9.78,16.84-33.04,58.41-39.64,66.83-6.59,8.41-25.09,14.47-30.38,12.63-5.28-1.85-28.53-13.15-24.31-27.63,4.24-14.48,23.78-62.9,30.92-79.2,7.13-16.31,24.83-51.57,22.98-50.79-1.84,.8-10.56,12.37-32.23,47.63-21.67,35.27-47.81,79.73-57.6,93.41-9.77,13.69-20.61,26.32-31.44,26.05-10.83-.26-31.96-12.36-33.82-23.68-1.85-11.32,5.02-29.47,9.52-41.84,4.49-12.36,14.79-34.99,17.95-40.78,3.17-5.8-.79-5.52-6.34,2.89-5.55,8.42-27.48,46.05-35.67,58.42-8.18,12.36-20.61,30.25-28.27,36.04-7.66,5.8-21.39,5.27-28.26,.26-6.87-5.01-17.44-13.94-15.33-22.1,2.11-8.17,11.89-32.64,20.61-51.58,8.72-18.95,17.44-42.63,17.44-42.63,0,0-17.96,23.94-29.06,42.11-11.09,18.15-33.03,54.72-38.04,60.78-5.03,6.06-17.17,16.06-26.16,14.74-8.98-1.32-29.32-11.58-28.8-22.64,.52-11.04,5.82-24.46,12.68-39.72,6.87-15.27,24.84-55.26,24.84-55.26,0,0-22.76,35.64-35.41,53.94-11.09,16.05-23.51,30.53-33.81,34.21-10.31,3.69-22.99-.25-30.12-6.84-7.13-6.57-13.46-14.47-10.03-26.31,3.43-11.84,15.05-49.2,20.87-64.21,5.81-14.99,11.62-31.31,12.68-35.78"/></g></g><g><rect class="h" x="816.96" y="-.11" width="797" height="114"/><g class="j"><path class="g" d="M154.42,80.28s-10.57,14.75-32.76,62.1c-13.03,27.81-18.49,48.94-21.67,50.52-3.16,1.58-12.68,2.64-18.49-1.58-5.81-4.21-14.8-13.68-7.92-36.31,6.87-22.63,40.16-81.57,68.7-128.94,28.53-47.37,57.06-88.94,66.58-95.25,9.51-6.31,16.37-7.89,26.41-4.22,10.04,3.69,18.5,10,13.74,23.16-4.75,13.16-21.66,52.1-40.15,100-18.5,47.88-29.59,84.73-29.59,84.73,0,0,39.1-60.53,65.52-103.68,26.42-43.15,62.89-99.99,69.23-107.36,6.33-7.37,21.66-8.95,30.65-4.21,8.98,4.74,17.96,14.2,13.73,21.58-4.22,7.37-16.91,33.68-41.22,86.83-24.3,53.16-42.8,96.83-42.8,96.83,0,0,39.11-62.1,67.12-105.25,28-43.15,54.95-85.26,55.49-86.83,.52-1.58,4.74-12.63,10.56-14.21,5.82-1.57,13.74,0,23.25,3.15,9.51,3.17,14.79,10.01,13.21,16.32-1.58,6.31-5.28,10.53-10.04,18.42-4.75,7.89-24.32,47.35-39.11,81.04-14.79,33.68-35.39,82.63-35.39,82.63,0,0,44.91-74.74,64.99-106.31,20.08-31.58,46.5-65.79,51.25-72.62,4.76-6.85,18.5-9.48,29.06-3.69,10.56,5.79,15.86,12.64,9.51,24.74-6.34,12.1-29.07,55.78-54.43,111.56-25.36,55.79-42.8,98.42-42.8,98.42,0,0,32.24-41.06,66.05-98.94,33.82-57.89,84.02-133.15,97.75-148.41,13.74-15.26,24.83-16.84,37.51-11.06,12.69,5.79,14.8,11.05,10.57,21.05-4.23,10-23.25,47.89-51.78,106.3-28.54,58.41-39.1,85.79-39.1,85.79,0,0,28.53-44.73,53.37-83.15,24.84-38.42,49.67-76.83,66.57-98.42,16.92-21.57,22.73-28.4,27.49-28.93,4.76-.53,16.9,.52,25.89,6.84,8.98,6.31,6.35,17.36,2.65,25.26-3.71,7.89-25.9,43.15-50.2,107.36-24.3,64.21-36.99,98.93-31.7,101.56,5.28,2.64,22.19-25.25,36.99-45.25,14.8-20,67.1-94.2,92.46-127.36,25.36-33.15,48.09-57.88,52.85-59.99,4.75-2.11,16.9,0,25.36,4.21,8.46,4.21,13.74,13.16,7.92,29.47-5.81,16.32-23.78,49.48-44.91,91.05-21.13,41.57-33.29,76.31-33.29,76.31,0,0,19.03-22.63,45.97-57.9,26.95-35.26,64.47-89.99,94.06-121.04,29.58-31.05,49.13-48.95,61.29-47.9,12.15,1.06,30.65,11.58,25.9,25.26-4.76,13.69-28.63,65.74-47.56,104.73-15.33,31.57-37.52,76.3-34.35,75.25,3.18-1.05,38.04-45.79,63.94-76.31,25.89-30.53,61.82-72.63,71.33-78.42,9.52-5.79,19.56-2.1,27.49,2.63,7.93,4.74,10.04,17.9,6.34,24.21-3.71,6.31-19.04,27.88-46.5,77.88-27.48,50-39.11,77.36-39.11,77.36,0,0,34.88-44.21,69.75-88.4,34.87-44.2,57.6-69.48,64.99-76.85,7.4-7.36,16.39-9.47,25.9-5.25,9.51,4.2,24.83,11.04,15.33,28.41-9.52,17.37-17.97,27.9-36.47,65.78-18.49,37.89-26.42,65.26-26.42,65.26,0,0,31.89-37.89,65.89-80.52,33.99-42.63,81.01-94.2,88.94-100.52,7.93-6.31,21.15-7.37,31.7,0,10.57,7.37,12.68,18.95,5.81,30.53-6.87,11.57-19.02,26.31-40.68,67.89-21.67,41.57-30.65,65.78-30.65,65.78,0,0,48.61-61.05,81.91-98.41,33.29-37.36,59.18-66.83,66.05-72.62,6.86-5.79,16.91-7.89,24.3-4.21,7.4,3.69,24.31,14.2,16.39,29.47-7.93,15.26-19.54,31.33-45.44,88.82-25.9,57.48-35.54,86.58-31.71,89.58,2.83,2.2,13.58-7.5,20.61-14.21,13.86-13.22,62.81-61.38,80.43-77.96,17.64-16.58,69.37-62.55,85.48-71.76,16.12-9.21,28.26-10.01,33.81-7.64,5.55,2.37,17.17,11.06,19.54,13.16,2.38,2.11,2.12,5.79,0,10.27-2.1,4.47-10.57,27.63-19.82,51.31-9.24,23.68-13.47,35.25-11.09,36.58,2.38,1.32,17.96-14.48,26.94-22.37,8.99-7.89,39.36-40.26,53.9-50.53,14.53-10.26,28.79-19.21,42-19.47,13.21-.26,23.25,4.48,26.16,10.01,2.9,5.52,1.58,10.79-2.12,13.41-3.69,2.64-19.82,6.05-29.59,12.9-9.77,6.84-30.91,27.1-44.38,41.31-13.48,14.21-33.29,37.11-48.88,49.21-15.58,12.1-34.34,21.56-44.38,15.52-10.05-6.04-25.64-19.2-26.95-31.58-1.32-12.36,3.69-31.04,8.45-44.73,4.76-13.69,7.92-21.58,3.44-19.21-4.49,2.36-42.01,37.63-61.82,57.1-19.81,19.47-61.82,62.09-78.47,74.99-16.65,12.9-35.4,25.53-49.94,18.68-14.54-6.84-27.47-22.63-28.26-33.94-.8-11.31,2.63-30,8.45-44.47,5.81-14.47,18.76-47.36,20.08-50.52,1.32-3.15,1.31-7.1-2.91-2.63-4.22,4.48-24.3,32.63-47.02,60.53-22.73,27.89-48.62,58.94-57.87,66.83-9.25,7.89-21.4,10.53-27.74,7.63-6.34-2.89-21.4-17.89-21.66-22.36-.27-4.47-1.33-18.17,4.22-31.05,5.55-12.89,18.24-41.83,20.08-46.05,1.85-4.2,1.05-6.57-2.64-2.37-3.7,4.21-43.59,55.51-55.48,70-11.89,14.47-32.23,38.95-45.7,37.1-13.47-1.85-34.61-17.11-33.82-30.53,.79-13.42,5.55-31.57,11.09-46.05,5.55-14.47,7.66-21.84,7.66-21.84,0,0-20.61,28.15-36.72,49.2-16.11,21.06-15.87,18.16-21.91,24.44-3.96,7.89-21.41,17.89-28.54,22.89-7.14,5-19.03,9.99-28.8,5.52-9.77-4.47-25.36-16.83-21.66-31.31,3.69-14.48,6.05-10.49,15.31-28.64,9.25-18.16,21.93-43.69,21.93-43.69,0,0-39.83,51.17-52.31,66.31-14.53,17.64-26.41,29.48-40.43,27.37-14-2.11-22.98-10.53-27.74-16.05-4.75-5.54-5.03-17.11-1.32-26.85,3.7-9.74,30.12-68.15,40.16-88.94,10.04-20.78,27.21-53.94,29.07-57.88,1.84-3.95,6.33-11.85,3.69-10-2.63,1.85-27.47,30.26-42.26,50.78-14.8,20.52-47.83,64.73-63.15,85.79-15.32,21.05-35.14,51.3-45.45,61.31-10.3,10-21.92,15.79-27.74,15.53-5.81-.26-36.19-16.05-32.49-31.57,3.7-15.53,12.15-41.32,24.3-68.94,12.15-27.63,24.05-54.74,24.05-54.74,0,0-20.87,27.11-39.1,52.63-18.23,25.52-52.58,74.47-62.62,89.47-10.03,15-19.28,24.99-28.26,30.52-8.98,5.53-16.91,6.31-25.36,2.36-8.45-3.94-23.51-14.2-23.51-27.88s3.7-32.38,10.83-53.43c7.14-21.05,19.28-57.88,21.14-62.62,1.86-4.74,1.33-5.79-4.49,3.16-5.82,8.94-43.86,68.42-53.64,85.25-9.78,16.84-33.04,58.41-39.64,66.83-6.59,8.41-25.09,14.47-30.38,12.63-5.28-1.85-28.53-13.15-24.31-27.63,4.24-14.48,23.78-62.9,30.92-79.2,7.13-16.31,24.83-51.57,22.98-50.79-1.84,.8-10.56,12.37-32.23,47.63-21.67,35.27-47.81,79.73-57.6,93.41-9.77,13.69-20.61,26.32-31.44,26.05-10.83-.26-31.96-12.36-33.82-23.68-1.85-11.32,5.02-29.47,9.52-41.84,4.49-12.36,14.79-34.99,17.95-40.78,3.17-5.8-.79-5.52-6.34,2.89-5.55,8.42-27.48,46.05-35.67,58.42-8.18,12.36-20.61,30.25-28.27,36.04-7.66,5.8-21.39,5.27-28.26,.26-6.87-5.01-17.44-13.94-15.33-22.1,2.11-8.17,11.89-32.64,20.61-51.58,8.72-18.95,17.44-42.63,17.44-42.63,0,0-17.96,23.94-29.06,42.11-11.09,18.15-33.03,54.72-38.04,60.78-5.03,6.06-17.17,16.06-26.16,14.74-8.98-1.32-29.32-11.58-28.8-22.64,.52-11.04,5.82-24.46,12.68-39.72,6.87-15.27,24.84-55.26,24.84-55.26,0,0-22.76,35.64-35.41,53.94-11.09,16.05-23.51,30.53-33.81,34.21-10.31,3.69-22.99-.25-30.12-6.84-7.13-6.57-13.46-14.47-10.03-26.31,3.43-11.84,15.05-49.2,20.87-64.21,5.81-14.99,11.62-31.31,12.68-35.78"/></g></g></g><g id="d"><path class="i" d="M768.22,76.09c-59.29-6.41-118.75-11.01-178.32-13.79,3.52-5.33,7.04-10.66,10.57-15.98,7.35,9.28,15.74,17.21,25.43,24.04-3.52,5.33-7.04,10.66-10.56,15.98-4.84-6.6-11.92-13.66-15.29-21.11-2.54-5.6,.42-10.47,3.66-15.16,3.97-5.73,8.24-8.67,14.23-12.09,9.24-5.28,18.49-10.56,27.73-15.85,2.07-1.18-1.53,6.64-1.68,6.91-1.86,3.26-4.29,7.16-7.64,9.08-5.44,3.11-10.88,6.21-16.31,9.32-2.17,1.24-4.35,2.48-6.53,3.73-.92,.53-8.13,3.43-8.72,4.19,1.78-3.53,3.57-7.06,5.35-10.58-.74,8.07,11.04,19.15,15.76,25.58,2.01,2.74-8.44,17.48-10.56,15.98-9.68-6.82-18.08-14.76-25.43-24.04-2.25-2.84,7.29-16.14,10.57-15.98,59.57,2.78,119.03,7.37,178.32,13.79,.09,.01-5.56,16.52-10.56,15.98"/></g><g id="e"><g><path class="f" d="M31.31,47.51c0-8.2,4.03-12.3,12.08-12.3s12.08,4.1,12.08,12.3v3.08h-9.06v-4.31c0-2.05-1.01-3.08-3.02-3.08s-3.02,1.03-3.02,3.08v22.15c0,2.05,1.01,3.08,3.02,3.08s3.02-1.03,3.02-3.08v-4.31h9.06v3.08c0,8.2-4.03,12.3-12.08,12.3s-12.08-4.1-12.08-12.3v-19.69Z"/><path class="f" d="M58.49,35.82h9.06v35.07h9.06v8h-18.12V35.82Z"/><path class="f" d="M100.78,35.82v8h-12.08v9.54h9.06v8h-9.06v9.54h12.08v8h-21.14V35.82h21.14Z"/><path class="f" d="M111.41,74.27l-.66,4.61h-9.06l8.16-43.07h9.06l8.16,43.07h-9.06l-.63-4.61h-5.95Zm4.86-8l-1.84-13.54-1.9,13.54h3.75Z"/><path class="f" d="M137.03,61.35v17.53h-9.06V35.82h12.08c8.05,0,12.08,3.69,12.08,11.07v3.38c0,2.95-.64,5.31-1.93,7.08,1.29,1.76,1.93,4.12,1.93,7.08v9.84c0,1.64,.3,3.18,.91,4.61h-9.06c-.6-1.44-.91-2.97-.91-4.61v-9.84c0-2.05-1.01-3.08-3.02-3.08h-3.02Zm3.02-8c2.01,0,3.02-1.03,3.02-3.08v-3.38c0-2.05-1.01-3.08-3.02-3.08h-3.02v9.54h3.02Z"/><path class="f" d="M155.15,35.82h9.06v43.07h-9.06V35.82Z"/><path class="f" d="M176.29,78.88h-9.06V35.82h9.06l6.04,21.53v-21.53h9.06v43.07h-9.06l-6.04-21.53v21.53Z"/><path class="f" d="M218.58,47.51h-9.06v-1.23c0-2.05-1.01-3.08-3.02-3.08s-3.02,1.03-3.02,3.08v22.15c0,2.05,1.01,3.08,3.02,3.08s3.02-1.03,3.02-3.08v-7.08h-2.72v-8h11.78v13.84c0,8.2-4.03,12.3-12.08,12.3s-12.08-4.1-12.08-12.3v-19.69c0-8.2,4.03-12.3,12.08-12.3s12.08,4.1,12.08,12.3Z"/><path class="f" d="M251.81,35.82v8h-12.08v9.54h9.06v8h-9.06v17.53h-9.06V35.82h21.14Z"/><path class="f" d="M254.83,35.82h9.06v43.07h-9.06V35.82Z"/><path class="f" d="M275.97,78.88h-9.06V35.82h9.06l6.04,21.53v-21.53h9.06v43.07h-9.06l-6.04-21.53v21.53Z"/><path class="f" d="M306.18,35.82c8.05,0,12.08,4.1,12.08,12.3v18.46c0,8.2-4.03,12.3-12.08,12.3h-12.08V35.82h12.08Zm-3.02,35.07h3.02c2.01,0,3.02-1.03,3.02-3.08v-20.92c0-2.05-1.01-3.08-3.02-3.08h-3.02v27.07Z"/><path class="f" d="M337.89,61.78l-8.16-25.96h9.06l3.62,13.54,3.62-13.54h9.06l-8.16,25.96v17.1h-9.06v-17.1Z"/><path class="f" d="M357.53,47.51c0-8.2,4.03-12.3,12.08-12.3s12.08,4.1,12.08,12.3v19.69c0,8.2-4.03,12.3-12.08,12.3s-12.08-4.1-12.08-12.3v-19.69Zm9.06,20.92c0,2.05,1.01,3.08,3.02,3.08s3.02-1.03,3.02-3.08v-22.15c0-2.05-1.01-3.08-3.02-3.08s-3.02,1.03-3.02,3.08v22.15Z"/><path class="f" d="M384.71,35.82h9.06v32.61c0,2.05,1.01,3.08,3.02,3.08s3.02-1.03,3.02-3.08V35.82h9.06v31.38c0,8.2-4.03,12.3-12.08,12.3s-12.08-4.1-12.08-12.3v-31.38Z"/><path class="f" d="M420.96,61.35v17.53h-9.06V35.82h12.08c8.05,0,12.08,3.69,12.08,11.07v3.38c0,2.95-.65,5.31-1.93,7.08,1.29,1.76,1.93,4.12,1.93,7.08v9.84c0,1.64,.3,3.18,.9,4.61h-9.06c-.6-1.44-.91-2.97-.91-4.61v-9.84c0-2.05-1.01-3.08-3.02-3.08h-3.02Zm3.02-8c2.01,0,3.02-1.03,3.02-3.08v-3.38c0-2.05-1.01-3.08-3.02-3.08h-3.02v9.54h3.02Z"/><path class="f" d="M460.23,35.82c8.05,0,12.08,3.69,12.08,11.07v3.38c0,7.38-4.03,11.07-12.08,11.07h-3.02v17.53h-9.06V35.82h12.08Zm-3.02,17.53h3.02c2.01,0,3.02-1.03,3.02-3.08v-3.38c0-2.05-1.01-3.08-3.02-3.08h-3.02v9.54Z"/><path class="f" d="M475.33,35.82h9.06v35.07h9.06v8h-18.12V35.82Z"/><path class="f" d="M504.09,74.27l-.67,4.61h-9.06l8.16-43.07h9.06l8.16,43.07h-9.06l-.63-4.61h-5.95Zm4.86-8l-1.84-13.54-1.9,13.54h3.75Z"/><path class="f" d="M520.64,47.51c0-8.2,4.03-12.3,12.08-12.3s12.08,4.1,12.08,12.3v3.08h-9.06v-4.31c0-2.05-1.01-3.08-3.02-3.08s-3.02,1.03-3.02,3.08v22.15c0,2.05,1.01,3.08,3.02,3.08s3.02-1.03,3.02-3.08v-4.31h9.06v3.08c0,8.2-4.03,12.3-12.08,12.3s-12.08-4.1-12.08-12.3v-19.69Z"/><path class="f" d="M568.97,35.82v8h-12.08v9.54h9.06v8h-9.06v9.54h12.08v8h-21.14V35.82h21.14Z"/></g></g></svg>