<svg xmlns="http://www.w3.org/2000/svg" width="35" height="37" viewBox="0 0 35 37">
  <path fill="#3A3C39" fill-rule="evenodd" d="M13.6114892,3.89473684 C18.9724715,3.89473684 23.3339815,8.26268421 23.3339815,13.6315789 C23.3339815,19.0004737 18.9724715,23.3684211 13.6114892,23.3684211 C8.25050696,23.3684211 3.88899692,19.0004737 3.88899692,13.6315789 C3.88899692,8.26268421 8.25050696,3.89473684 13.6114892,3.89473684 M34.4312342,33.6758421 L23.6159338,22.8426316 C25.8462735,20.4142632 27.2229784,17.1855263 27.2229784,13.6315789 C27.2229784,6.11473684 21.1153088,0 13.6114892,0 C6.10572516,0 0,6.11473684 0,13.6315789 C0,21.1484211 6.10572516,27.2631579 13.6114892,27.2631579 C16.1626712,27.2631579 18.5427373,26.5445789 20.5844607,25.3157895 L31.6817134,36.4294211 C32.0472791,36.7974737 32.5372927,37 33.0564738,37 C33.5756549,37 34.0656685,36.7974737 34.4312342,36.4294211 C35.1895886,35.6699474 35.1895886,34.4353158 34.4312342,33.6758421"/>
</svg>
