<svg xmlns="http://www.w3.org/2000/svg" viewBox="0 0 320 110"><title>Christmas icons - tree, holly, reindeer</title><path d="M152.9 54h.1c.1 0 .3.1.5.2.4.1 1 .4 1.5.8.3.3.6.6.9 1.1.3.6.6 1.4.6 2.4v.2h1.4v-.2c0-1.1-.2-2-.6-2.7-.3-.8-.8-1.3-1.3-1.8-.3-.3-.7-.5-1-.7-.4-.3-.9-.4-1.2-.5-.4-.1-.7-.2-.8-.2l-.1 1.4zm-97 12.4L40.5 43.2h9.9l-15.9-23 4.8 3.4-2.2-7.7 6.2-4.9-7.8-.2-2.6-7.6-2.6 7.6-7.8.2 6.2 4.9-2.2 7.7 4.8-3.4-15.9 23h9.9L9.9 66.4h10.3L0 95.4h27.6v11.3h10.6V95.4h27.6l-20.2-29h10.3zm-27-46.1l1.4-4.9-3.9-3.1 4.9-.1 1.6-4.8 1.5 4.3.2.4 4.9.1-3.9 3.1 1.4 4.9-4.1-2.9-4 3zm7.7 84.8h-7.4v-9.7h7.4v9.7zm26.1-11.3H3.1l20.2-29H13l15.4-23.2h-9.8L33 20.8l14.4 20.8h-9.8L53 64.8H42.5l20.2 29zm90.2-40.1v.3-.3zm-18.5 17.6l-.3-.1.3.1zm138.3-1.6c-1.2 0-2.1 1-2.1 2.2 0 1.2.9 2.2 2.1 2.2 1.2 0 2.1-1 2.1-2.2 0-1.3-1-2.2-2.1-2.2zm8.3 28.7c-2.4 0-4.3-2.5-4.3 0 0 2.4 1.9 4.4 4.3 4.4s4.3-2 4.3-4.4c0-2.5-1.9 0-4.3 0zm37.8-91.6c-.7-2.1-1.6-3.5-2.5-4.3-.6-.6-1.2-.9-1.6-1.1-.5-.2-.9-.3-1-.3-.1 0-.1 0-.3-.1-.2 0-.5-.1-.8-.1-.2 0-.4 0-.6.1-.2.1-.4.2-.6.4-.1.1-.2.3-.3.5-.1.2-.2.5-.2.8 0 .4.1.7.2 1.2.2.7.6 1.5 1 2.4.5.7.9 1.7 1.3 2.7.6 1.5.9 3.2.9 4.9 0 2.3-.6 4.6-1.9 6.4-1 1.5-2.4 3.2-4 4.9-1.1 1.1-2.3 2.2-3.5 3.1.6-1.6 1.1-3.9 1.1-6.5 0-.7 0-1.4-.1-2.2-.4-3.6-1.7-6.2-2.5-7.8 0-.1-.1-.1-.2-.2 0 0-.1-.1-.3-.2-.1-.1-.4-.2-.6-.3-.2 0-.3-.1-.6-.1-.1 0-.3 0-.5.1s-.3.2-.5.3c-.1.1-.2.2-.2.3-.1.2-.2.3-.2.5-.1.2-.1.5-.1.8v.3c0 .1.1.2.1.4.1.3.2.8.3 1.3.3 1.1.6 2.6.8 4.1.1 1 .2 2.1.2 3.1 0 .8-.1 1.5-.2 2.2-.1.6-.3 1.2-.6 1.6-.2.3-.4.5-.6.7-.2.1-.3.2-.5.3-.2.1-.4.1-.6.1-.3 0-.6 0-.9-.2-.3-.1-.7-.3-1.1-.5-.7-.4-1.5-1-2.3-1.8-1.5-1.6-3-3.8-3.9-6.3-.6-1.7-1-3.5-1-5.4 0-.5 0-.9.1-1.4v-.3l-.2-.4c-.1-.2-.3-.6-.5-.8-.2-.2-.4-.4-.7-.5-.2-.1-.4-.1-.5-.1-.3 0-.6.1-.8.2-.3.1-.5.4-.8.6-.2.2-.4.5-.5.8-.1.3-.2.6-.3 1-.2.8-.3 1.7-.3 2.8 0 2.1.4 4.7 1.4 7.4 1 2.7 2.7 5.4 5.2 7.6 1.6 1.4 3.5 2.6 5.9 3.6h-.1c-.2.1-.4.2-.6.2l-.9.3c-.5.1-.9.3-1.4.4-.6.2-1.3.4-1.8.6-.3.1-.5.2-.8.3-.1 0-.5.1-1 .4-.6.3-1.3.9-1.9 1.9-.4.7-.7 1.5-1 2.5-.1.3-.1.6-.2 1.1-.1.5-.2 1.1-.3 1.7-.2 1.3-.5 2.8-.7 4.2-.4 2.3-.7 4.5-.9 5.3-1.7-.3-3.5-.5-5.5-.5-1.9 0-3.6.2-5.1.4-.1-.7-.4-2.3-.7-4.1-.4-2.5-.9-5.3-1.2-7-.1-.5-.2-.9-.2-1.1-.3-1.5-.9-2.6-1.6-3.4-.7-.7-1.4-1.1-1.8-1.3-.2-.1-.4-.1-.5-.1-.3-.1-.5-.2-.9-.3-.3-.1-.7-.2-1.1-.4-.8-.2-1.6-.5-2.4-.7-.5-.2-.9-.3-1.2-.5 3.6-1.4 6.2-3.6 8.1-6 2-2.5 3.1-5.3 3.8-7.8.4-1.7.6-3.3.6-4.7 0-.8-.1-1.5-.2-2.2-.1-.6-.2-1.2-.4-1.6-.1-.3-.3-.6-.5-.8-.3-.3-.5-.5-.8-.6-.3-.1-.6-.2-.8-.2-.3 0-.6.1-.8.2-.2.1-.4.3-.5.5-.3.3-.4.7-.5.9-.1.2-.1.3-.1.3v.2c0 .5.1.9.1 1.4 0 2.5-.6 4.9-1.6 7-1 2.1-2.3 3.9-3.6 5.2-.9.8-1.8 1.5-2.6 1.8-.5.2-.9.3-1.3.3-.2 0-.4 0-.6-.1-.2-.1-.4-.1-.5-.3-.2-.2-.4-.4-.6-.7-.2-.3-.3-.6-.4-1-.2-.8-.3-1.7-.3-2.8 0-2 .4-4.2.7-6 .4-1.7.7-3 .8-3.1V13c0-.3 0-.6-.1-.9-.1-.3-.2-.5-.4-.7-.1-.1-.3-.2-.4-.3-.2-.1-.4-.1-.6-.1-.2 0-.4 0-.6.1-.2.1-.3.1-.4.2-.2.1-.4.2-.4.3l-.2.2c-.9 1.5-2.1 4.2-2.5 7.8-.1.8-.1 1.5-.1 2.2 0 2.7.5 4.9 1.1 6.5-1.2-.9-2.4-2-3.5-3.1-1.6-1.6-3-3.4-4-4.9-1.3-1.9-1.9-4.1-1.9-6.4 0-1.7.3-3.4.9-4.9.4-1 .9-2 1.3-2.8.4-.9.8-1.6 1-2.4.1-.4.2-.8.2-1.2 0-.2 0-.5-.1-.7-.1-.2-.2-.4-.3-.5-.1-.1-.2-.2-.3-.2-.1-.1-.3-.1-.4-.2-.2 0-.4-.1-.6-.1-.3 0-.6 0-.8.1-.1 0-.2 0-.3.1-.2 0-.7.1-1.3.4-.8.4-1.7 1.1-2.6 2.5-.6.9-1.1 2.1-1.5 3.6-.6 2.1-.9 4.7-.9 8.3 0 1.4.2 2.7.7 4 .4 1.3 1 2.6 1.8 3.7 1.5 2.4 3.6 4.6 5.9 6.5 4.6 3.9 10 6.9 13.6 8.6 1.8.9 3.1 1.4 3.7 1.7l2.7 13.3c-2.1 1-3.7 2.3-5 3.8-.6-.8-1.2-1.5-1.9-2.1-.9-.7-2-1.3-3-1.7-2.1-.8-4.4-1-6.4-1-2.8 0-4.8.5-4.9.5-.3.1-.5.3-.5.7 0 0 0 1 .3 2.6.3 1.5.9 3.5 2 5.5.7 1.3 1.7 2.6 3 3.8 1.7 1.5 4 2.7 6.9 3.3.1 0 .3 0 .4-.1-.1 1.1-.1 2.1-.1 2.9v.4c0 7.3 1.4 14.6 4.2 21.4 1.6 4.7 3.5 7.8 5.3 9.7 1.8 2 3.4 2.9 4.5 3.3.4.1.7.2.9.3.9 1.4 2.4 2.2 4 2.2h1c1.6 0 3.1-.9 4-2.2.4-.1 1.2-.3 2.2-.8 1.4-.8 3.3-2.3 5.1-5.1 1.2-1.8 2.4-4.2 3.5-7.4 2.8-6.8 4.2-14 4.2-21.4v-.4c0-.8 0-1.8-.1-2.9.1.1.3.1.5.1 1.6-.3 3.1-.8 4.3-1.5 1.2-.7 2.3-1.5 3.2-2.4 1.8-1.8 2.9-3.9 3.5-5.8.5-1.3.7-2.4.9-3.4.2-1.2.2-2 .2-2.1 0-.3-.2-.6-.5-.7 0 0-2.1-.5-4.9-.5-1.5 0-3.1.1-4.7.5s-3.3 1.1-4.7 2.2c-.7.6-1.4 1.3-2 2.2-1.1-1.3-2.5-2.5-4.3-3.5-.1-.1-.2-.1-.4-.2l2.7-13.6c.8-.3 3.2-1.3 6.2-2.9 3.7-2 8.4-4.8 12.3-8.4 2.6-2.4 4.8-5 6.1-8 .7-1.7 1.2-3.5 1.2-5.3 0-3.8-.5-6.8-1.2-8.9zm-49.4 33.1c0-.2-.2-.4-.4-.5h-.1c-.1 0-.2-.1-.4-.1-.3-.1-.8-.3-1.3-.6-1.1-.5-2.7-1.3-4.6-2.2-3.7-1.9-8.3-4.8-12-8.2-2.5-2.3-4.6-4.8-5.7-7.5-.7-1.6-1-3.1-1-4.8 0-3.8.4-6.5 1-8.4.6-2 1.4-3.1 2.1-3.9.5-.5.9-.8 1.3-.9.5-.2.8-.2.8-.2h.4c.1 0 .3-.1.5-.1h.3c.1 0 .1 0 .1.1v.3c0 .2 0 .4-.1.8-.2.6-.5 1.3-1 2.2-.4.9-.9 1.8-1.3 2.9-.7 1.7-1 3.6-1 5.4 0 2.5.7 5.1 2.1 7.2 1.1 1.6 2.5 3.4 4.2 5.1 1.7 1.7 3.5 3.3 5.4 4.4.2.1.5.1.7-.1.2-.2.3-.5.1-.8-.6-1.4-1.8-4.2-1.8-8 0-.7 0-1.3.1-2 .4-3.2 1.5-5.7 2.3-7.1.1-.1.2-.1.3-.2h.2s0 .1.1.2v.4c-.2.6-.9 3.1-1.3 6-.1 1.1-.2 2.2-.2 3.3 0 .8.1 1.7.2 2.4.1.8.4 1.5.8 2.1.2.4.6.8.9 1 .3.2.6.4.9.5.3.1.7.1 1 .1.9 0 1.7-.3 2.6-.8.9-.5 1.8-1.2 2.6-2 1.7-1.7 3.2-4.1 4.2-6.8.6-1.8 1-3.8 1-5.9 0-.4 0-.9-.1-1.3 0 0 0-.1.1-.2.1-.2.2-.4.3-.5.1-.1.2-.1.2-.2h.1c.1 0 .1 0 .3.1.1.1.3.2.5.4l.2.4c.1.2.2.5.2.8.1.6.2 1.5.2 2.5 0 1.9-.4 4.4-1.3 6.9s-2.5 5-4.9 7.1c-1.6 1.4-3.5 2.6-5.9 3.5-.1 0-.2.1-.3.1-.1.1-.2.1-.3.2l-.2.2c-.1.1-.1.3-.1.4v.3c0 .1.1.1.1.2.1.1.1.2.2.3.2.1.3.3.5.4.1.1.3.1.4.2.2.1.4.2.7.3.3.1.6.2 1 .3.5.1.9.3 1.4.4l1.8.6c.3.1.5.2.8.3h.2c.1 0 .3.1.5.2.4.2 1 .7 1.5 1.4.3.5.6 1.2.8 2.1 0 .2.1.5.2.9s.2.9.2 1.4c.2 1.1.4 2.3.6 3.6.4 2.5.8 5.1 1 6.1l-2.6 1-2.3-13.7zm-7.6 28c-.1-.1-.2-.2-.3-.2-1.5-.3-2.8-.7-3.9-1.3-1.1-.6-2.1-1.3-2.9-2.1-1.6-1.6-2.6-3.5-3.2-5.3-.4-1.2-.7-2.3-.8-3.1-.1-.6-.2-1.1-.2-1.4.2 0 .5-.1.8-.1.8-.1 2-.2 3.3-.2 1.4 0 2.9.1 4.4.5 1.5.4 3 1 4.2 1.9.7.6 1.4 1.3 1.9 2.1-.7.9-1.2 1.9-1.7 2.9-.7 1.7-1.2 3.4-1.4 5-.1.4-.1.9-.2 1.3zM299 56.6c.8-.6 1.7-1.1 2.7-1.5 1.9-.7 4.1-.9 5.9-.9 1.8 0 3.3.2 4.1.3v.1c0 .4-.1 1-.3 1.7-.3 1.4-.8 3.3-1.8 5.1-.7 1.2-1.6 2.4-2.7 3.4-1.5 1.4-3.6 2.5-6.3 3-.1 0-.3.1-.3.2-.1-.7-.2-1.4-.3-2.2-.5-2.3-1.3-4.8-2.9-7 .5-.9 1.1-1.7 1.9-2.2zm-3.5 2.1c.9 1.1 1.5 2.2 2 3.4.7 1.6 1.1 3.2 1.3 4.7.3 2 .4 3.8.4 5v.4c0 7.2-1.4 14.3-4.1 20.9-1.4 4.2-3.1 7-4.6 8.9-1.5 1.8-3 2.7-3.9 3.2-.7.3-1.1.4-1.3.4h-.1c-.2 0-.4.1-.5.3-.6 1.2-1.8 1.9-3.1 1.9h-1.2c-1.3 0-2.4-.7-3.1-1.9-.1-.2-.3-.3-.5-.3h-.1c-.1 0-.2 0-.4-.1-.3-.1-.8-.3-1.5-.6-1.2-.7-2.9-2-4.6-4.6-1.1-1.7-2.3-4-3.3-7.1-2.7-6.6-4.1-13.7-4.1-20.9v-.4c0-1.4 0-3.5.5-5.8s1.3-4.8 2.9-6.9c1.1-1.4 2.5-2.7 4.4-3.8.5-.3 1.1-.5 1.7-.8l.7-.3c2.2-.8 4.8-1.2 8-1.2 3.8 0 6.8.6 9.1 1.6 2.4 1.1 4.1 2.5 5.4 4zm22.6-39.2c-.4 1.2-.9 2.3-1.6 3.4-1.4 2.2-3.3 4.3-5.5 6.2-4.4 3.8-9.7 6.7-13.3 8.5-2.4 1.2-4 1.8-4.1 1.9-.2.1-.4.3-.4.5l-2.7 13.4-2.6-1c0-.2.1-.5.1-.8.1-.8.3-1.9.5-3.2.4-2.5.9-5.3 1.2-7 .1-.5.2-.9.2-1.1.2-.9.5-1.5.8-2 .3-.5.6-.9 1-1.1.6-.5 1.2-.6 1.2-.6h.1c.2-.1.5-.2.9-.3.3-.1.7-.2 1.1-.3.8-.2 1.6-.5 2.4-.8.5-.2 1-.3 1.4-.5l.6-.3c.1-.1.2-.1.3-.2.1-.1.2-.2.2-.4 0-.1.1-.2.1-.3 0-.1 0-.2-.1-.3 0-.1-.1-.2-.1-.2-.1-.1-.2-.2-.4-.3-.1 0-.2-.1-.3-.1-3.6-1.4-6.2-3.4-8-5.8-1.8-2.3-2.9-4.9-3.5-7.3-.4-1.6-.5-3.1-.5-4.4 0-.7.1-1.4.1-2 .1-.6.2-1 .3-1.3.1-.2.2-.3.2-.4.2-.2.4-.3.5-.4.1-.1.2-.1.3-.1h.2c.1 0 .1.1.2.2s.3.4.3.5v.1c0 .4-.1.9-.1 1.3 0 2.7.7 5.3 1.7 7.5 1 2.3 2.4 4.2 3.9 5.6 1 .9 2 1.6 3.1 2 .6.2 1.2.4 1.7.4.3 0 .7 0 1-.1.3-.1.6-.2.9-.5.4-.3.7-.6.9-1 .2-.4.4-.8.6-1.3.3-1 .4-2 .4-3.2 0-1.1-.1-2.2-.2-3.3-.1-1.1-.3-2.1-.5-3-.3-1.6-.7-2.7-.7-3v-.4c0-.1.1-.2.1-.2h.3c.1 0 .1 0 .2.1.1 0 .1.1.2.1.8 1.4 1.9 3.9 2.3 7.1.1.7.1 1.4.1 2 0 3.7-1.1 6.6-1.8 8-.1.3-.1.6.1.8.2.2.5.2.7.1 1.9-1.1 3.7-2.7 5.4-4.4 1.7-1.7 3.1-3.5 4.2-5.1 1.4-2.1 2.1-4.6 2.1-7.2 0-1.8-.4-3.7-1-5.4-.4-1.1-.9-2-1.3-2.9-.4-.9-.8-1.6-1-2.2-.1-.3-.1-.6-.1-.8V2.4h.4c.2 0 .3 0 .5.1.1 0 .2.1.3.1h.4c.2 0 .4.1.7.2.6.3 1.3.8 2.1 2 .5.8 1 1.8 1.4 3.3.5 1.9.9 4.5.9 7.9-.4 1.1-.6 2.3-1 3.5zm-30.8 52.3c0 1.2.9 2.2 2.1 2.2 1.2 0 2.1-1 2.1-2.2 0-1.2-.9-2.2-2.1-2.2-1.2.1-2.1 1-2.1 2.2zm-124.7 6.6v.1c0 .1-.1.3-.2.5-.2.4-.4 1-.8 1.5-.3.3-.6.6-1 .9-.6.3-1.3.6-2.2.6h-.3l-.1 1.5h.4c.7 0 1.3-.1 1.8-.3.5-.2 1-.4 1.4-.7.8-.6 1.4-1.3 1.7-1.9.2-.4.4-.9.5-1.2.1-.4.2-.7.2-.8l-1.4-.2zm-25.7-11.8c-.5.2-1 .4-1.4.6-.8.5-1.3 1.2-1.7 1.8-.2.4-.4.8-.5 1.1-.2.4-.2.7-.2.7l1.4.3V71c0-.1.1-.3.2-.5.2-.4.4-.9.8-1.4.3-.3.6-.6 1-.8.5-.3 1.2-.5 2.1-.5h.6l.1-1.5h-.7c-.6.1-1.2.2-1.7.3zm69.3-30.3c-5.5 0-9.5-.8-12.3-1.8-2.8-1-4.4-2.3-5.3-3.1-.6-.6-.8-1-.9-1.1l-.9-1.6-.5 1.8c-.6 2.3-1.7 4.1-3.1 5.6-1.4 1.5-3.1 2.7-4.9 3.7-3.6 1.9-7.7 2.7-10.4 3.1-1.8.2-2.9.3-3 .3h-.7v.7c0 1.8-.3 3.5-.8 5s-1.1 2.8-1.7 3.9c-.6 1.1-1.3 2-1.7 2.6-.1-.3-.2-.7-.4-1-1.2-2.3-3.3-3.9-5.7-4.6-.8-.2-1.7-.4-2.5-.4-1.8 0-3.4.5-4.9 1.4v-.1c-.1-.1-.2-.2-.3-.4-.3-.3-.7-.8-1.1-1.5-.9-1.3-1.9-3.2-2.6-5.4-.5-1.5-.8-3.2-.8-5v-.7h-1.1c-.2 0-.6 0-1-.1-.8-.1-2-.2-3.4-.5-2.8-.5-6.3-1.5-9.5-3.3-2.1-1.2-4-2.8-5.4-4.8-.8-1.2-1.4-2.5-1.8-4l-.5-1.8-.9 1.6-.1.1c-.1.1-.1.2-.3.4-.3.3-.7.8-1.4 1.3-1.3 1.1-3.6 2.4-7.3 3.3-2.5.6-5.6 1-9.4 1-1 0-2 0-3-.1l-2-.1 1.5 1.4.1.1.5.5c.4.5 1 1.1 1.7 2 1.3 1.7 2.9 4 3.9 6.6.7 1.8 1.1 3.6 1.1 5.5 0 1.7-.4 3.4-1.2 5.2l-.6 1.1h1.3c.3 0 1.5 0 3 .2s3.4.6 5.4 1.3c1.3.5 2.6 1.1 3.8 1.9 1.6 1.1 3 2.4 3.9 4.3.5 1 1 2.2 1.2 3.6l.1.8.8-.2h.1c.1 0 .3-.1.5-.1.5-.1 1.2-.2 2.1-.4 1.8-.3 4.4-.5 7.5-.5 1.4 0 2.9.1 4.5.2-2.8 1.1-5 3.5-5.8 6.5-.7 2.5-.4 5.1.9 7.4 1.2 2.3 3.3 3.9 5.7 4.6.8.2 1.7.4 2.5.4 3.7 0 7.1-2.3 8.6-5.7.1 1.5.4 3 1.2 4.4 1.2 2.3 3.3 3.9 5.7 4.6.8.2 1.7.4 2.5.4 4.2 0 8-2.9 9.1-7.2.9-3.3 0-6.7-2.1-9.1 3.9-.8 7.6-1.1 10.6-1.1 6 0 9.8 1.1 9.8 1.1l.8.2.1-.8c.3-1.5.7-2.8 1.4-4 .7-1.1 1.5-2.1 2.4-2.9 1.9-1.6 4.2-2.6 6.3-3.3 1.5-.4 2.9-.7 4-.8 1.6-.2 2.7-.2 3-.2h1.3l-.6-1.1c-.9-1.7-1.2-3.5-1.2-5.2 0-1.9.4-3.8 1.1-5.5.7-1.8 1.6-3.4 2.5-4.7 1.9-2.8 3.7-4.5 3.7-4.6l1.5-1.4-2 .1h-2.6zM151.5 51c.7 0 1.4.1 2.1.3 4.3 1.2 6.8 5.8 5.6 10.1-1 3.7-4.2 6.1-7.7 6.1-.7 0-1.4-.1-2.1-.3-4.3-1.2-6.8-5.8-5.6-10.1 1-3.7 4.2-6.1 7.7-6.1zm-7.7 13.8l-.1-.1v-.1c.1.1.1.2.1.2zm-12.2-2.3c-4.9 0-8.5.6-9.9.9-.3-1.4-.8-2.6-1.4-3.7-.7-1.3-1.7-2.4-2.7-3.3-2.1-1.8-4.6-2.9-6.9-3.6-1.5-.5-3-.7-4.2-.9-.9-.1-1.7-.2-2.2-.2.6-1.6.9-3.2.9-4.8 0-2.2-.5-4.2-1.2-6.1-.7-1.9-1.7-3.6-2.7-5.1-1-1.4-1.9-2.6-2.7-3.4h1.3c6 0 10.2-.9 13.2-2.1 3-1.2 4.7-2.6 5.6-3.6.7 1.9 1.7 3.6 3 4.9 1.6 1.7 3.4 3 5.4 4 3.9 2 8.1 2.9 10.8 3.2 1 .1 1.9.2 2.4.2.1 1.7.4 3.3.9 4.8.5 1.6 1.2 3.1 1.9 4.2 1 1.8 2 3.1 2.5 3.5-1.4 1.2-2.5 2.9-3 4.8-.1.3-.1.6-.1.8-8.5-7.6-16.8-12.7-23.1-15.9-6.5-3.3-10.7-4.6-10.8-4.7-.4-.1-.8.1-.9.5-.1.4.1.8.5.9h.1c.1 0 .3.1.6.2.5.2 1.2.4 2.1.8 1.8.7 4.5 1.9 7.7 3.5 6.4 3.3 14.9 8.5 23.6 16.4 0 1.6.4 3.2 1.1 4.5-4.5-.3-8.5-.7-11.8-.7zm15.4 13c-1 3.7-4.2 6.1-7.7 6.1-.7 0-1.4-.1-2.1-.3-4.3-1.2-6.8-5.8-5.6-10.1 1-3.7 4.2-6.1 7.7-6.1.7 0 1.4.1 2.1.3 4.3 1.2 6.8 5.7 5.6 10.1zm1.7-2.6c-.1-1.9-.7-3.7-1.7-5.2.6.4 1.3.7 2 .9.8.2 1.7.4 2.5.4h.5c-1.4.9-2.6 2.3-3.3 3.9zm16.3 6.2c-1 3.7-4.2 6.1-7.7 6.1-.7 0-1.4-.1-2.1-.3-4.3-1.2-6.8-5.8-5.6-10.1 1-3.7 4.2-6.1 7.7-6.1.7 0 1.4.1 2.1.3 4.3 1.2 6.8 5.7 5.6 10.1zm41.3-39.9c-1.4 1.7-3 4.2-4.1 7-.7 1.9-1.2 4-1.2 6.1 0 1.6.3 3.2.9 4.8-.6 0-1.3.1-2.2.2-1.6.2-3.6.6-5.7 1.3-1.4.5-2.8 1.2-4.1 2-1.7 1.2-3.3 2.7-4.4 4.8-.5 1-.9 2.1-1.1 3.3-1.4-.3-4.8-1-9.5-1-3.4 0-7.5.3-11.9 1.4-.9-.7-2-1.3-3.2-1.6-.6-.2-1.3-.3-1.9-.3 7.9-7.8 17.6-13.6 25.4-17.5 8.2-4 14.4-6.1 14.7-6.2.4-.1.6-.5.5-.9-.1-.4-.5-.6-.9-.5 0 0-6.2 2-14.5 6.1-7 3.4-15.5 8.4-23 15 .2-.4.4-.9.5-1.4.4-1.6.4-3.2.1-4.8.3-.3.8-1 1.5-1.9.9-1.4 2.1-3.4 2.8-5.8.5-1.4.8-3 .9-4.8.8-.1 2.4-.2 4.3-.6 2.9-.5 6.6-1.5 9.9-3.5 2.2-1.3 4.3-3 5.8-5.3.6-.9 1.1-2 1.6-3.2.3.3.7.7 1.2 1.1 1.5 1.2 4 2.6 7.8 3.5 2.6.6 5.8 1 9.8 1h1.3c-.4.7-.8 1.1-1.3 1.7zm-43.7 39.2l.3.1-.3-.1z" fill="#FFF"/></svg>