<svg xmlns="http://www.w3.org/2000/svg" viewBox="0 0 1920 640" preserveAspectRatio="xMinYMid slice"><title>Purple blue and yellow tartan</title><path fill="#385dae" d="M187.8 324.7l47.2-47.2v-5.9l-47.2 47.2v5.9zm0 11.8l47.2-47.2v-5.9l-47.2 47.2v5.9zm0-23.5l47.2-47.2v-5.9l-47.2 47.2v5.9zm0-11.8L235 254v-5.9l-47.2 47.2v5.9zm0 47.2l47.2-47.2v-5.9l-47.2 47.2v5.9zM288 189.3l-47.2 47.2h5.9l47.2-47.2H288zm11.8 0l-47.2 47.2h5.9l47.2-47.2h-5.9zm-112 206.3l47.2-47.2v-5.9l-47.2 47.2v5.9zm47.2-29.5l-47.2 47.2v5.9L235 372v-5.9zm-47.2 5.9l47.2-47.2v-5.9l-47.2 47.2v5.9zm0-11.8L235 313v-5.9l-47.2 47.2v5.9zm0 23.6l47.2-47.2v-5.9L187.8 378v5.8zm0 23.6l47.2-47.2v-5.9l-47.2 47.2v5.9zm59.1 64.9l47.2-47.2h-5.9L241 472.3h5.9zm-118 0l47.2-47.2h-5.9L123 472.3h5.9zm-23.6 0l47.2-47.2h-5.9l-47.2 47.2h5.9zm-23.6 0l47.2-47.2H123l-47.2 47.2h5.9zM305.8-5.9l-6 6h5.9l.1-.2v-5.8zM93.5 472.3l47.2-47.2h-5.9l-47.2 47.2h5.9zm212.3-265.4l-29.6 29.6h5.9l23.8-23.8v-5.8zm0-11.8l-41.4 41.4h5.9l35.6-35.6v-5.8zm.1 230H300l-47.2 47.2h5.9l47.2-47.2zm-.1-194.6l-6 6h5.9l.1-.2v-5.8zm0-11.8L288 236.5h5.9l12-12v-5.8zM117.1 472.3l47.2-47.2h-5.9l-47.2 47.2h5.9zM-48.2 348.4L-1 301.2v-5.9l-47.2 47.2v5.9zm0 11.8L-1 313v-5.9l-47.2 47.2v5.9zm0 11.8L-1 324.8v-5.9l-47.2 47.2v5.9zm0-47.3L-1 277.5v-5.9l-47.2 47.2v5.9zm0-11.9L-1 265.6v-5.9l-47.2 47.2v5.9zm0 23.7L-1 289.3v-5.9l-47.2 47.2v5.9zm0 47.3L-1 336.6v-5.9L-48.2 378v5.8zm0 11.8L-1 348.4v-5.9l-47.2 47.2v5.9zm-6.1-206.3l-47.2 47.2h5.9l47.2-47.2h-5.9zm6.1 218.1L-1 360.2v-5.9l-47.2 47.2v5.9zM-1 366.1l-47.2 47.2v5.9L-1 372v-5.9zm64.7-176.8l-47.2 47.2h5.9l47.2-47.2h-5.9zm47.2 0l-47.2 47.2h5.9l47.2-47.2h-5.9zm35.5 0l-47.2 47.2h5.9l47.2-47.2h-5.9zM-48.2 301.2L-1 254v-5.9l-47.2 47.2v5.9zm182.7-111.9l-47.2 47.2h5.9l47.2-47.2h-5.9zm35.5 0l-47.2 47.2h5.9l47.2-47.2H170zm-11.8 0L111 236.5h5.9l47.2-47.2h-5.9zm-35.5 0l-47.2 47.2h5.9l47.2-47.2h-5.9zm-23.6 0l-47.2 47.2h5.9l47.2-47.2h-5.9zm-47.2 0L4.7 236.5h5.9l47.2-47.2h-5.9zm129.9 0l-47.2 47.2h5.9l47.2-47.2h-5.9zm-94.5 0l-47.2 47.2H46l47.2-47.2h-5.9zm-11.8 0l-47.2 47.2h5.9l47.2-47.2h-5.9zM-48.2 643.5L-1 596.3v-5.9l-47.2 47.2v5.9zm0-23.6L-1 572.7v-5.9L-48.2 614v5.9zM-1 602.2l-47.2 47.2v5.9L-1 608.1v-5.9zm-47.2 29.5L-1 584.5v-5.9l-47.2 47.2v5.9zm0-200.7l-41.3 41.3h5.9l35.4-35.4v6l-29.5 29.5h5.9l23.6-23.6v5.9l-17.7 17.7h5.9l11.8-11.8v5.9l-5.9 5.9h5.9v5.9l5.9-5.9h5.9l-11.8 11.8v5.9l17.7-17.7h5.9L-48.2 496v5.9l29.5-29.5h5.9l-35.4 35.4v5.9l41.3-41.3H-1l-47.2 47.2v5.9L-1 478.3v-5.9l47.2-47.2h-5.9L-1 466.5v-5.9l35.4-35.4h-5.9L-1 454.7v-5.9l23.6-23.6h-5.9L-1 442.9V437l11.8-11.8H5l-6 5.8v-5.9h-5.9l5.9-5.9v-5.9l-11.8 11.8h-5.9L-1 407.4v-5.9l-23.6 23.6h-5.9L-1 395.6v-5.9l-35.4 35.4h-5.9L-1 383.8v-5.9l-47.2 47.2H-54l-47.2 47.2h5.9l47.2-47.2-.1 5.9zm236 212.5l47.2-47.2v-5.9l-47.2 47.2v5.9zm0-212.5v.1l-41.2 41.2h5.9l35.3-35.3V442.9l-29.4 29.4h5.9l23.5-23.5V454.7l-17.6 17.6h5.9l11.7-11.7V466.5l-5.8 5.8h5.8v5.9l5.9-5.9h5.9l-11.8 11.8v5.9l17.7-17.7h5.9L187.8 496v5.9l29.5-29.5h5.9l-35.4 35.4v5.9l41.3-41.3h5.9l-47.2 47.2v5.9l47.2-47.2v-5.9h.1l47.2-47.2h-5.9L235 466.5v-5.9l35.5-35.5h-5.9L235 454.7v-5.9l23.7-23.7h-5.9L235 442.9V437l11.9-11.9H241l-6 6v-6h-5.9l5.9-5.9v-5.9l-11.8 11.8h-5.9l17.7-17.7v-5.9l-23.6 23.6h-5.9l29.5-29.5v-5.9l-35.4 35.4h-5.9l41.3-41.3v-5.9l-47.2 47.2H182l-47.2 47.2h5.9l47.1-47.1v5.8zM235 602.2l-47.2 47.2v5.9l47.2-47.2v-5.9zm-283.2-64.9L-1 490.1v-5.9l-47.2 47.2v5.9zm236 94.4l47.2-47.2v-5.9l-47.2 47.2v5.9zm-236-23.6L-1 560.9V555l-47.2 47.2v5.9zm236 11.8l47.2-47.2v-5.9L187.8 614v5.9zm-236-35.4L-1 537.3v-5.9l-47.2 47.2v5.9zm0 11.8L-1 549.1v-5.9l-47.2 47.2v5.9zm0-23.6L-1 525.5v-5.9l-47.2 47.2v5.9zm0-11.8L-1 513.7v-5.9L-48.2 555v5.9zm0-11.8L-1 501.9V496l-47.2 47.2v5.9zm236 59l47.2-47.2V555l-47.2 47.2v5.9zM235 47.4l-47.2 47.2v5.9L235 53.3v-5.9zm-236 59l-47.2 47.2v5.9L-1 112.3v-5.9zm0-11.8l-47.2 47.2v5.9L-1 100.5v-5.9zm0 35.5l-47.2 47.2v5.9L-1 135.9v-5.8zm0-11.8l-47.2 47.2v5.9L-1 124.1v-5.8zm70.9 354l47.2-47.2h-5.9L64 472.3h5.9zM-1 82.8L-48.2 130v5.9L-1 88.7v-5.9zm0 147.6v-5.9l35.2-35.2h-5.9L-1 218.6v-5.9l23.4-23.4h-5.9L-1 206.8v-5.9l11.6-11.6H4.7L-1 195v-5.8h-6.1l6.1-6.1v-5.9l-12 12h-5.9L-1 171.3v-5.9l-23.8 23.8h-5.9L-1 159.6v-5.9l-35.6 35.6h-5.9L-1 147.7v-5.9L-48.2 189v5.9l-41.5 41.5h5.9l35.6-35.6v5.9l-29.7 29.7h5.9l23.8-23.8v5.9l-17.9 17.9h5.9l12-12v5.9l-6.1 6.1h5.9l.2-.2v5.9l5.7-5.7-.1.1h5.9l-11.6 11.6v5.9l17.5-17.5-.1.1h5.9L-48.4 260v5.9l29.3-29.3-.1.1h5.9l-35.2 35.2v5.9l41.1-41.1-.1.1h5.9l-47 47v5.9L-1 242.2v-5.9l47-47h-5.9L-1 230.4zM187.8 65.1L235 17.9V12l-47.2 47.2v5.9zM235 23.8L187.8 71v5.9L235 29.7v-5.9zM-1 71l-47.2 47.2v5.9L-1 76.9V71zm236 0l-47.2 47.2v5.9L235 76.9V71zm0-11.8l-47.2 47.2v5.9L235 65.1v-5.9zm0 171.2v-5.9l35.2-35.2h-5.9L235 218.6v-5.9l23.4-23.4h-5.9L235 206.8v-5.9l11.6-11.6h-5.9L235 195v-5.8h-6.1l6.1-6.1v-5.9l-12 12h-5.9l17.9-17.9v-5.9l-23.8 23.8h-5.9l29.7-29.7v-5.9l-35.6 35.6h-5.9l41.5-41.5v-5.9L187.8 189v6l-41.5 41.4h5.9l35.6-35.6V206.7l-29.7 29.6h5.9l23.8-23.7V218.5l-17.8 18h5.9l11.9-11.9V230.5l-6 6h5.9l.1-.1v5.8l5.7-5.7h.1l-.1.1h5.8l-11.6 11.6v5.9l17.5-17.5h.1l-.1.1h5.8l-23.4 23.4v5.9l29.3-29.3h.1l-.1.1h5.8L187.5 272v5.9l41.1-41.1h.1l-.1.1h5.8l-47 47v5.9l47.2-47.2v-5.8l47-47h-5.9L235 230.4zm-47.2 354.1l47.2-47.2v-5.9l-47.2 47.2v5.9zm0-11.8l47.2-47.2v-5.9l-47.2 47.2v5.9zm0-23.6l47.2-47.2V496l-47.2 47.2v5.9zm0 11.8l47.2-47.2v-5.9L187.8 555v5.9zm0-23.6l47.2-47.2v-5.9l-47.2 47.2v5.9zM235 35.6l-47.2 47.2v5.9L235 41.5v-5.9zm-236 0l-47.2 47.2v5.9L-1 41.5v-5.9zm-47.2 29.5L-1 17.9V12l-47.2 47.2v5.9zM-1 23.8L-48.2 71v5.9L-1 29.7v-5.9zm0 23.6l-47.2 47.2v5.9L-1 53.3v-5.9zm0 11.8l-47.2 47.2v5.9L-1 65.1v-5.9zm236 70.9l-47.2 47.2v5.9L235 136v-5.9zm0-35.5l-47.2 47.2v5.9l47.2-47.2v-5.9zm0 11.8l-47.2 47.2v5.9l47.2-47.2v-5.9zm0 11.9l-47.2 47.2v5.9l47.2-47.2v-5.9zm-47.2 478l47.2-47.2v-5.9l-47.2 47.2v5.9zM235 82.8L187.8 130v5.9L235 88.7v-5.9zm-47.2 584.4l-41.5 41.4h5.9l35.6-35.6V678.9l-29.7 29.6h5.9l23.8-23.7V690.7L170 708.6h5.9l11.9-11.9V702.6l-6 6h5.9l.1-.1v5.8l5.7-5.7h.1l-.1.1h5.8l-11.6 11.6v5.9l17.5-17.5h.1l-.1.1h5.8L187.8 732v5.9l29.3-29.3h.1l-.1.1h5.8l-35.2 35.2v5.9l41.1-41.1h.1l-.1.1h5.8l-47 47v5.9l47.2-47.2v-5.8l47-47h-5.9L235 702.6v-5.9l35.2-35.2h-5.9L235 690.8v-5.9l23.4-23.4h-5.9L235 679v-5.9l11.6-11.6h-5.9l-5.8 5.7v-5.8h-6.1l6.1-6.1v-5.9l-12 12H217l17.9-17.9v-5.9l-23.8 23.8h-5.9l29.7-29.7v-5.9l-35.6 35.6h-5.9l41.5-41.5V614l-47.2 47.2.1 6zm-236-.1l-41.5 41.5h5.9l35.6-35.6v5.9l-29.7 29.7h5.9l23.8-23.8v5.9l-17.9 17.9h5.9l12-12v5.9l-6.1 6.1h5.9l.2-.2v5.9l5.7-5.7-.1.1h5.9l-11.6 11.6v5.9l17.5-17.5-.1.1h5.9L-48.2 732v5.9l29.3-29.3-.1.1h5.9l-35.2 35.2v5.9l41.1-41.1-.1.1h5.9l-47 47v5.9L-1 714.3v-5.9l47-47h-5.9L-1 702.5v-5.9l35.2-35.2h-5.9L-1 690.7v-5.9l23.4-23.4h-5.9L-1 678.9V673l11.6-11.6H4.7l-5.7 5.7v-5.8h-6.1l6.1-6.1v-5.9l-12 12h-5.9L-1 643.5v-5.9l-23.8 23.8h-5.9L-1 631.7v-5.9l-35.6 35.6h-5.9L-1 619.9V614l-47.2 47.2v5.9zM58.1 472.3l47.2-47.2h-5.9l-47.2 47.2h5.9zM187.8-52.9l47.2-47.2v-5.9l-47.2 47.2v5.9zM128.9.2L176.1-47h-5.9L123 .2h5.9zm106.2 0L282.3-47h-5.9L235-5.6v-5.9L270.5-47h-5.9L235-17.4v-5.9L258.7-47h-5.9L235-29.2v-5.9L246.9-47H241l-6 6v-6h-5.9l5.9-5.9v-5.9L223.2-47h-5.9L235-64.7v-5.9L211.4-47h-5.9L235-76.5v-5.9L199.6-47h-5.9L235-88.3v-5.9L187.8-47H182L134.8.2h5.9l47.1-47.1V-41L146.6.2h5.9l35.3-35.3V-29.2L158.4.2h5.9l23.5-23.5V-17.4L170.2.2h5.9l11.7-11.7V-5.6L182 .2h5.8v5.9l5.9-5.9h5.9L187.8 12v5.9L205.5.2h5.9l-23.6 23.6v5.9L217.3.2h5.9l-35.4 35.4v5.9L229.1.2h6l-47.3 47.2v5.9L235 6.1l.1-5.9zm11.8 0L294.1-47h-5.9L241 .2h5.9zm47.2 472.1l12-12v-5.9l-17.8 17.8h5.8zm11.7-.2v-5.9l-6 6h5.9l.1-.1zM117.1.2L164.3-47h-5.9L111.2.2h5.9zm141.6 0L305.9-47H300L252.8.2h5.9zm11.8 0l35.6-35.6v-5.9L264.6.2h5.9zm0 472.1l35.6-35.6v-5.9l-41.4 41.4h5.8zM282.3.2l23.8-23.7v-5.9L276.4.2h5.9zm11.8 0l12-12v-5.9L288.2.2h5.9zm-11.8 472.1l23.8-23.7v-5.9l-29.6 29.6h5.8zM105.3.2L152.5-47h-5.9L99.4.2h5.9zM46.2 472.3l47.2-47.2h-5.9l-47.2 47.2h5.9zm-11.8 0l47.2-47.2h-5.9l-47.2 47.2h5.9zm-23.6 0L58 425.1h-5.9L5 472.3h5.8zm11.9 0l47.2-47.2H64l-47.2 47.2h5.9zM58.1.2L105.3-47h-5.9L52.2.2h5.9zm11.8 0L117.1-47h-5.9L64 .2h5.9zM46.2.2L93.5-47h-5.9L40.4.2h5.8zM34.4.2L81.7-47h-5.9L28.6.2h5.8zm47.3 0L128.9-47H123L75.8.2h5.9zm11.8 0L140.7-47h-5.9L87.6.2h5.9zM-1 .2L46.3-47h-5.9L-1-5.7v-5.9L34.5-47h-5.9L-1-17.5v-5.9L22.7-47h-5.9L-1-29.3v-5.9L10.9-47H5l-6 5.9V-47h-5.9l5.9-5.9v-5.9L-12.8-47h-5.9L-1-64.7v-5.9L-24.6-47h-5.9L-1-76.5v-5.9L-36.4-47h-5.9L-1-88.3v-5.9L-48.2-47H-54L-101.2.2h5.9L-48.1-47v6L-89.5.2h5.9l35.4-35.4v6L-77.7.2h5.9l23.6-23.6v5.9L-65.9.2h5.9l11.8-11.8v5.9L-54.1.2h5.9v5.9l5.9-5.9h5.9L-48.2 12v5.9L-30.5.2h5.9l-23.6 23.6v5.9L-18.7.2h5.9l-35.4 35.4v5.9L-6.9.2H-1l-47.3 47.2v5.9L-1 6.1V.2zm-47.2-53.1L-1-100.1v-5.9l-47.2 47.2v5.9zM22.7.2L69.9-47H64L16.8.2h5.9zM10.8.2L58.1-47h-5.9L5 .2h5.8z"/><path fill="#592c82" d="M-42.3 236.2l-47.2 47.2h5.9l47.2-47.2h-5.9zm277.4 135.5l47.2-47.2v-5.9l-47.2 47.2v5.9zm0 11.8l47.2-47.2v-5.9l-47.2 47.2v5.9zm0-23.6l47.2-47.2v-5.9L235.1 354v5.9zm0-11.8l47.2-47.2V295l-47.2 47.2v5.9zm0 47.3l47.2-47.2v-5.9l-47.2 47.2v5.9zm100.2-159.2l-47.2 47.2h5.9l47.2-47.2h-5.9zm11.8 0l-47.2 47.2h5.9l47.2-47.2h-5.9zm-112 206.4l47.2-47.2v-5.9l-47.2 47.2v5.9zm47.3-29.5l-47.2 47.2v5.9l47.2-47.2v-5.9zm-47.3 5.9l47.2-47.2v-5.9l-47.2 47.2v5.9zm0-11.8l47.2-47.2v-5.9l-47.2 47.2v5.9zm0 23.6l47.2-47.2v-5.9l-47.2 47.2v5.9zm0 23.6l47.2-47.2v-5.9l-47.2 47.2v5.9zm59.2 64.9l47.2-47.2h-5.9l-47.2 47.2h5.9zm-118.1 0l47.2-47.2h-5.9l-47.2 47.2h5.9zm-23.6 0l47.2-47.2H194l-47.2 47.2h5.8zM-30.5 236.2l-47.2 47.2h5.9l47.2-47.2h-5.9zM129 519.3l47.2-47.2h-5.9l-47.2 47.2h5.9zM353.2 41.1l-6 6h5.9l.1-.2v-5.8zM140.8 519.3l47.2-47.2h-5.9l-47.2 47.2h5.9zm212.4-265.5l-29.6 29.6h5.9l23.8-23.8v-5.8zm0-11.8l-41.4 41.4h5.9l35.6-35.6V242zm.1 230.1h-5.9l-47.2 47.2h5.9l47.2-47.2zm-.1-194.7l-6 6h5.9l.1-.2v-5.8zm0-11.8l-17.8 17.8h5.9l12-12v-5.8zM164.4 519.3l47.2-47.2h-5.9l-47.2 47.2h5.9zM-.8 395.4l47.2-47.2v-5.9L-.8 389.5v5.9zm0 11.8L46.4 360v-5.9L-.8 401.3v5.9zm0 11.8l47.2-47.2v-5.9L-.8 413.1v5.9zm0-47.3l47.2-47.2v-5.9L-.8 365.8v5.9zm0-11.9l47.2-47.2v-5.9L-.8 353.9v5.9zm0 23.7l47.2-47.2v-5.9L-.8 377.6v5.9zm0 47.3l47.2-47.2v-5.9L-.8 424.9v5.9zm0 11.8l47.2-47.2v-5.9L-.8 436.7v5.9zm-17.9-206.4L-66 283.5h5.9l47.2-47.2h-5.8zm11.8 0l-47.2 47.2h5.9L-1 236.2h-5.9zm6.1 218.2l47.2-47.2v-5.9L-.8 448.5v5.9zm47.2-41.3L-.8 460.3v5.9L46.4 419v-5.9zm64.7-176.9l-47.2 47.2h5.9l47.2-47.2h-5.9zm47.2 0l-47.2 47.2h5.9l47.2-47.2h-5.9zm35.4 0l-47.2 47.2h5.9l47.2-47.2h-5.9zM-.8 348.1l47.2-47.2V295L-.8 342.2v5.9zm182.7-111.9l-47.2 47.2h5.9l47.2-47.2h-5.9zm35.4 0l-47.2 47.2h5.9l47.2-47.2h-5.9zm-11.8 0l-47.2 47.2h5.9l47.2-47.2h-5.9zm-35.4 0l-47.2 47.2h5.9l47.2-47.2h-5.9zm-23.6 0l-47.2 47.2h5.9l47.2-47.2h-5.9zm-47.2 0l-47.2 47.2H58l47.2-47.2h-5.9zm129.8 0l-47.2 47.2h5.9l47.2-47.2h-5.9zm-94.4 0l-47.2 47.2h5.9l47.2-47.2h-5.9zm-11.8 0l-47.2 47.2h5.9l47.2-47.2h-5.9zM-.8 690.5l47.2-47.2v-5.9L-.8 684.6v5.9zm0-23.7l47.2-47.2v-5.9L-.8 661v5.8zm47.2-17.7L-.8 696.3v5.9L46.4 655v-5.9zM-.8 678.6l47.2-47.2v-5.9L-.8 672.7v5.9zm0-200.6l-41.3 41.3h5.9l35.4-35.4v6l-29.5 29.5h5.9l23.6-23.6v5.9l-17.7 17.7h5.9l11.8-11.8v5.9l-5.9 5.9h5.9v5.9l5.9-5.9H11L-.8 531.2v5.9l17.7-17.7h5.9L-.8 543v5.9l29.5-29.5h5.9L-.8 554.8v5.9l41.3-41.3h5.9L-.8 566.6v5.9l47.2-47.2v-5.9l47.2-47.2h-5.9l-41.3 41.3v-5.9l35.4-35.4h-5.9l-29.5 29.5v-5.9L70 472.1h-5.9l-17.7 17.7v-5.9l11.8-11.8h-5.9l-5.9 5.9v-5.9h-5.9l5.9-5.9v-5.9l-11.8 11.8h-5.9l17.7-17.7v-5.9l-23.6 23.6h-5.9l29.5-29.5v-5.9L11 472.1H5.1l41.3-41.3v-5.9L-.8 472.1h-5.9l-47.2 47.2h5.9l47.2-47.2v5.9zm235.9 212.5l47.2-47.2v-5.9l-47.2 47.2v5.9zm.1-212.5v.1L194 519.3h5.9l35.3-35.3V489.9l-29.4 29.4h5.9l23.5-23.5V501.7l-17.6 17.6h5.9l11.7-11.7V513.5l-5.8 5.8h5.8v5.9l5.9-5.9h5.9l-11.8 11.8v5.9l17.7-17.7h5.9l-23.6 23.6v5.9l29.5-29.5h5.9l-35.4 35.4v5.9l41.3-41.3h5.9l-47.2 47.2v5.9l47.2-47.2v-5.9h.1l47.2-47.2h-5.9l-41.4 41.4v-5.9l35.5-35.5H312l-29.6 29.6v-5.9l23.7-23.7h-5.9l-17.8 17.8V484l11.9-11.9h-5.9l-6 6v-6h-5.9l5.9-5.9v-5.9l-11.8 11.8h-5.9l17.7-17.7v-5.9l-23.6 23.6h-5.9l29.5-29.5v-5.9L247 472.1h-5.9l41.3-41.3v-5.9l-47.2 47.2h-5.8l-47.2 47.2h5.9l47.1-47.1v5.8zm47.2 171.1l-47.2 47.2v5.9l47.2-47.2v-5.9zM-.8 584.2L46.4 537v-5.9L-.8 578.3v5.9zm235.9 94.4l47.2-47.2v-5.9l-47.2 47.2v5.9zM-.8 655l47.2-47.2v-5.9L-.8 649.1v5.9zm235.9 11.8l47.2-47.2v-5.9L235.1 661v5.8zM-.8 631.4l47.2-47.2v-5.9L-.8 625.5v5.9zm0 11.8L46.4 596v-5.9L-.8 637.3v5.9zm0-23.6l47.2-47.2v-5.9L-.8 613.7v5.9zm0-11.8l47.2-47.2v-5.9L-.8 601.9v5.9zm0-11.8l47.2-47.2v-5.9L-.8 590.1v5.9zm235.9 59l47.2-47.2v-5.9l-47.2 47.2v5.9zm47.3-560.6l-47.2 47.2v5.9l47.2-47.2v-5.9zm-236 59L-.8 200.6v5.9l47.2-47.2v-5.9zm0-11.8L-.8 188.8v5.9l47.2-47.2v-5.9zm0 35.4L-.8 224.2v5.9l47.2-47.2V177zm0-11.8L-.8 212.4v5.9l47.2-47.2v-5.9zm70.8 354.1l47.2-47.2h-5.9l-47.2 47.2h5.9zM46.4 129.8L-.8 177v5.9l47.2-47.2v-5.9zm0 147.5v-5.9l35.2-35.2h-5.9l-29.3 29.3v-5.9l23.4-23.4h-5.9l-17.5 17.5v-5.9L58 236.2h-5.9l-5.7 5.7v-5.8h-6.1l6.1-6.1v-5.9l-12 12h-5.9l17.9-17.9v-5.9l-23.8 23.8h-5.9l29.7-29.7v-5.9l-35.6 35.6H4.9l41.5-41.5v-5.9L-.8 236v5.9l-41.5 41.5h5.9l35.6-35.6v5.9l-29.7 29.7h5.9l23.8-23.8v5.9l-17.9 17.9h5.9l12-12v5.9l-6.1 6.1H-1l.2-.2v5.9l5.7-5.7-.1.1h5.9L-.8 295v5.9l17.5-17.5-.1.1h5.9L-.9 306.9v5.9l29.3-29.3-.1.1h5.9L-1 318.8v5.9l41.1-41.1-.1.1h5.9l-47 47v5.9l47.2-47.2v-5.9l47-47h-5.9l-40.8 40.8zm188.7-165.2l47.2-47.2V59l-47.2 47.2v5.9zm47.3-41.3L235.1 118v5.9l47.2-47.2v-5.9zM46.4 118L-.8 165.2v5.9l47.2-47.2V118zm236 0l-47.2 47.2v5.9l47.2-47.2V118zm0-11.8l-47.2 47.2v5.9l47.2-47.2v-5.9zm0 171.2v-5.9l35.2-35.2h-5.9l-29.3 29.3v-5.9l23.4-23.4h-5.9l-17.6 17.5v-5.9l11.6-11.6H288l-5.8 5.7v-5.8h-6.1l6.1-6.1v-5.9l-12 12h-5.9l17.9-17.9v-5.9l-23.8 23.8h-5.9l29.7-29.7v-5.9l-35.6 35.6h-5.9l41.5-41.5v-5.9L235.1 236v6l-41.5 41.4h5.9l35.6-35.6V253.7l-29.7 29.6h5.9l23.8-23.7V265.5l-17.8 17.8h5.9l11.9-11.9V277.3l-6 6h5.9l.1-.1v5.8l5.7-5.7h.1l-.1.1h5.8L235.1 295v5.9l17.5-17.5h.1l-.1.1h5.8L235 306.9v5.9l29.3-29.3h.1l-.1.1h5.8l-35.2 35.2v5.9l41.1-41.1h.1l-.1.1h5.8l-47 47v5.9l47.2-47.2v-5.8l47-47h-5.9l-40.7 40.8zm-47.3 354l47.2-47.2v-5.9l-47.2 47.2v5.9zm0-11.8l47.2-47.2v-5.9l-47.2 47.2v5.9zm0-23.6l47.2-47.2v-5.9l-47.2 47.2v5.9zm0 11.8l47.2-47.2v-5.9l-47.2 47.2v5.9zm0-23.6l47.2-47.2v-5.9l-47.2 47.2v5.9zm47.3-501.6l-47.2 47.2v5.9l47.2-47.2v-5.9zm-236 0L-.8 129.8v5.9l47.2-47.2v-5.9zM-.8 112.1l47.2-47.2V59L-.8 106.2v5.9zm47.2-41.3L-.8 118v5.9l47.2-47.2v-5.9zm0 23.6L-.8 141.6v5.9l47.2-47.2v-5.9zm0 11.8L-.8 153.4v5.9l47.2-47.2v-5.9zm236 70.8l-47.2 47.2v5.9l47.2-47.2V177zm0-35.4l-47.2 47.2v5.9l47.2-47.2v-5.9zm0 11.8l-47.2 47.2v5.9l47.2-47.2v-5.9zm0 11.8l-47.2 47.2v5.9l47.2-47.2v-5.9zm-47.3 478l47.2-47.2v-5.9l-47.2 47.2v5.9zm47.3-513.4L235.1 177v5.9l47.2-47.2v-5.9zM235.1-41.3l47.2-47.2v-5.9l-47.2 47.2v5.9zM105.4 519.3l47.2-47.2h-5.9l-47.2 47.2h5.9zM235.1-29.5l47.2-47.2v-5.9l-47.2 47.2v5.9zm0 23.6l47.2-47.2V-59l-47.2 47.2v5.9zm0-11.8L282.4-65v-5.9l-47.2 47.2v6zm-58.9 64.9L223.4 0h-5.9l-47.2 47.2h5.9zm106.2 0L329.6 0h-5.9l-41.4 41.4v-5.9L317.8 0H312l-29.6 29.6v-5.9L306.1 0h-5.9l-17.8 17.8v-5.9L294.3 0h-5.9l-6 6V0h-5.9l5.9-5.9v-5.9L270.6-.1h-5.9l17.7-17.7v-5.9L258.8-.1h-5.9l29.5-29.5v-5.9L247-.1h-5.9l41.3-41.3v-5.9L235.2-.1h-5.8l-47.2 47.2h5.9L235.2 0v6L194 47.2h5.9l35.3-35.3V17.8l-29.4 29.4h5.9l23.5-23.5V29.6l-17.6 17.6h5.9l11.7-11.7V41.4l-5.8 5.8h5.8v5.9l5.9-5.9h5.9L235.1 59v5.9l17.7-17.7h5.9l-23.6 23.6v5.9l29.5-29.5h5.9l-35.4 35.4v5.9l41.3-41.3h6l-47.3 47.2v5.9l47.2-47.2.1-5.9zm11.9 0L341.5 0h-5.9l-47.2 47.2h5.9zm47.2 472.1l12-12v-5.9l-17.8 17.8h5.8zm11.7-.2v-5.9l-6 6h5.9l.1-.1zM164.4 47.2L211.6 0h-5.9l-47.2 47.2h5.9zm141.7 0L353.3 0h-5.9l-47.2 47.2h5.9zm11.8 0l35.6-35.6V5.7L312 47.2h5.9zm0 472.1l35.6-35.6v-5.9L312 519.3h5.9zm11.8-472.1l23.8-23.7v-5.9l-29.6 29.6h5.8zm11.8 0l12-12v-5.9l-17.8 17.8h5.8zm-11.8 472.1l23.8-23.7v-5.9l-29.6 29.6h5.8zM152.6 47.2L199.8 0H194l-47.2 47.2h5.8zM-71.6 519.3l47.2-47.2h-5.9l-47.2 47.2h5.9zm-11.8 0l47.2-47.2h-5.9l-47.2 47.2h5.9zm177 0l47.2-47.2h-5.9l-47.2 47.2h5.9zm-153.4 0l47.2-47.2h-5.9l-47.2 47.2h5.9zm141.6 0l47.2-47.2h-5.9l-47.2 47.2h5.9zm-23.6 0l47.2-47.2h-5.9l-47.2 47.2h5.9zm11.8 0l47.2-47.2h-5.9l-47.2 47.2H70zM-59.8 47.2L-12.6 0h-5.9l-47.2 47.2h5.9zm59-88.5l47.2-47.2v-5.9L-.8-47.2v5.9zm-70.8 88.5L-24.4 0h-5.9l-47.2 47.2h5.9zm-11.8 0L-36.2 0h-5.9l-47.2 47.2h5.9zm188.8 0L152.6 0h-5.9L99.5 47.2h5.9zm11.8 0L164.4 0h-5.9l-47.2 47.2h5.9zm-23.6 0L140.8 0h-5.9L87.7 47.2h5.9zm-11.8 0L129-.1h-5.9L75.9 47.2h5.9zm47.2 0L176.2 0h-5.9l-47.2 47.2h5.9zm11.8 0L188-.1h-5.9l-47.2 47.2h5.9zm-94.4 0L93.6-.1h-5.9L46.4 41.3v-5.9L81.8-.1h-5.9L46.4 29.5v-5.9L70-.1h-5.9L46.4 17.7v-5.9L58.2-.1h-5.9l-5.9 5.9V-.1h-5.9L46.4-6v-5.9L34.6-.1h-5.9l17.7-17.7v-5.9L22.8-.1h-5.9l29.5-29.5v-5.9L11-.1H5.1l41.3-41.3v-5.9L-.8-.1h-5.9l-47.2 47.2h5.9L-.8 0v6l-41.3 41.3h5.9L-.8 11.9v6l-29.5 29.5h5.9L-.8 23.8v5.9l-17.7 17.7h5.9L-.8 35.6v5.9l-5.9 5.9h5.9v5.9L5 47.2h6L-.8 59v5.9l17.7-17.7h5.9L-.8 70.8v5.9l29.5-29.5h5.9L-.8 82.6v5.9l41.3-41.3h5.9L-.8 94.4v5.9l47.2-47.2v-5.9zM-.8-5.9l47.2-47.2V-59L-.8-11.8v5.9zm0-11.8L46.4-65v-5.9L-.8-23.6v5.9zM70 47.2L117.2 0h-5.9L64.1 47.2H70zM-.8-29.5l47.2-47.2v-5.9L-.8-35.4v5.9zm59 76.7L105.4 0h-5.9L52.3 47.2h5.9z"/><path fill="#ecaa00" d="M287.8 283.5l-23.6 23.6h5.9l23.6-23.6h-5.9zm-271.7 0l-23.6 23.6h5.9L22 283.5h-5.9zm11.8 0L4.3 307.1h5.9l23.6-23.6h-5.9zm-23.6 0l-23.6 23.6h5.9l23.6-23.6H4.3zm35.5 0l-23.6 23.6H22l23.6-23.6h-5.8zm11.8 0L28 307.1h5.9l23.6-23.6h-5.9zm-59.1 0l-23.6 23.6h5.9l23.6-23.6h-5.9zm-11.8 0l-23.6 23.6h5.9l23.6-23.6h-5.9zm82.7 0l-23.6 23.6h5.9l23.6-23.6h-5.9zm189 0l-23.6 23.6h5.9l23.6-23.6h-5.9zm-59.1 0l-23.6 23.6h5.9l23.6-23.6h-5.9zm70.9 0l-23.6 23.6h5.9l23.6-23.6h-5.9zm35.4 0L276 307.1h5.9l23.6-23.6h-5.9zm-224.4 0l-23.6 23.6h5.9l23.6-23.6h-5.9zm141.7 0l-23.6 23.6h5.9l23.6-23.6h-5.9zm-11.8 0l-23.6 23.6h5.9l23.6-23.6h-5.9zm23.7 0l-23.6 23.6h5.9l23.6-23.6h-5.9zm47.2 0l-23.6 23.6h5.9l23.6-23.6H276zm-35.4 0L217 307.1h5.9l23.6-23.6h-5.9zm-106.3 0l-23.6 23.6h5.9l23.6-23.6h-5.9zm-35.5 0l-23.6 23.6h5.9l23.6-23.6h-5.9zm-11.8 0l-23.6 23.6h5.9l23.6-23.6H87zm35.4 0l-23.6 23.6h5.9l23.6-23.6h-5.9zm-11.8 0L87 307.1h5.9l23.6-23.6h-5.9zm35.2 94h.5l23.1-23.1v-5.9l-23.6 23.6v5.4zm0-11.4h.5l23.1-23.1v-5.9l-23.6 23.6v5.4zm0-11.9h.5l23.1-23.1v-5.9l-23.6 23.6v5.4zm0-11.3l23.6-23.6v-5.9L145.8 337v5.9zm0-236.2L169.4 83v-5.9l-23.6 23.6v6zm165.6-35.6h.1V71l-.1.1zm-17.7 236l17.9-17.9v-5.8h-.1L287.9 307h5.8zm17.7 0h.1v-.1l-.1.1zm-5.9 0l6.1-6v-5.9l-11.9 11.9h5.8zm-11.8-236l17.9-17.8v-5.8h-.1l-23.6 23.6h5.8zm11.8 0l6.1-6v-5.9l-11.9 11.9h5.8zm-23.6 0l23.6-23.6h-5.9L276 71.1h5.9zm-47.2 0l23.6-23.6h-5.9l-23.6 23.6h5.9zm-59.1 0l23.6-23.6h-5.9l-23.6 23.6h5.9zm11.8 0L211 47.5h-5.9l-23.6 23.6h5.9zm-18-5.6l18-18h-5.9l-12.1 12.1v-5.9l6.2-6.2h-5.9l-.3.3v-6.1l-5.8 5.8h-5.9l11.7-11.7v-5.9l-17.6 17.6h-5.9L169.4 24v-5.9l-23.6 23.6v6L122.4 71h5.9l17.5-17.4v5.9L134.2 71h5.9l5.7-5.6v5.7h6.1l-6.1 6.1v5.9l11.9-12h5.9L145.8 89v5.9l23.6-23.6v-5.8zm-23.6-29.7l23.6-23.6V6.3l-23.6 23.6v5.9zm0-11.8L169.4.4v-5.9l-23.6 23.6V24zm53.4 47.1l23.6-23.6h-5.9l-23.6 23.6h5.9zm70.9 0l23.6-23.6h-5.9l-23.6 23.6h5.9zm-23.6 0l23.6-23.6h-5.9l-23.6 23.6h5.9zm11.8 0l23.6-23.6H276l-23.6 23.6h5.9zm-47.3 0l23.6-23.6h-5.9l-23.6 23.6h5.9zm11.8 0l23.6-23.6h-5.9l-23.6 23.6h5.9zm-53.4 29.7l-23.6 23.6v5.9l23.6-23.6v-5.9zm-23.6-88.6l23.6-23.6v-5.9L145.8 6.3v5.9zM169.4 89l-23.6 23.6v5.9l23.6-23.6V89zm0 206.6v-5.9l6.2-6.2h-5.9l-.3.3V278l-5.7 5.7h-.1l.1-.1H158l11.5-11.5v-5.9L152 283.6h-.1l.1-.1h-5.8l23.3-23.3v-5.9L145.8 278v5.8l-23.4 23.3h5.9l17.5-17.5v5.9L134.2 307h5.9l5.7-5.7v6l.3-.3h5.9l-6.2 6.2v5.9l12-12.1h5.9l-18 18v5.9l23.6-23.6v-6l18-18h-5.9l-12 12.3zm0-76.7l-23.6 23.6v5.9l23.6-23.6v-5.9zm0-23.6l-23.6 23.6v5.9l23.6-23.6v-5.9zm0-82.7l-23.6 23.6v5.9l23.6-23.6v-5.9zm0 70.9l-23.6 23.6v5.9l23.6-23.6v-5.9zm0 47.2l-23.6 23.6v5.9l23.6-23.6v-5.9zm0 11.8l-23.6 23.6v5.9l23.6-23.6v-5.9zm0-35.4l-23.6 23.6v5.9l23.6-23.6v-5.9zm0-82.7L145.8 148v5.9l23.6-23.6v-5.9zm0 11.8l-23.6 23.6v5.9l23.6-23.6v-5.9zm0 23.6l-23.6 23.6v5.9l23.6-23.6v-5.9zm0-11.8l-23.6 23.6v5.9l23.6-23.6V148zm0 23.7l-23.6 23.6v5.9l23.6-23.6v-5.9zM145.8.4l23.6-23.6v-5.9L145.8-5.5V.4zm-41.1 70.7l23.6-23.6h-5.9L98.8 71.1h5.9zm11.8 0l23.6-23.6h-5.9l-23.6 23.6h5.9zm29.3-82.5L169.4-35v-6l-23.6 23.6v6zM81.1 71.1l23.6-23.6h-5.9L75.2 71.1h5.9zm11.8 0l23.6-23.6h-5.9L87 71.1h5.9zm52.9-94.4l23.6-23.6v-5.9l-23.6 23.6v5.9zm0-11.8l23.6-23.6v-5.9L145.8-41v5.9zM-1.6 71.1L22 47.5h-5.9L-7.5 71.1h5.9zm-11.8 0l23.6-23.6H4.3l-23.6 23.6h5.9zm23.6 0l23.6-23.6h-5.9L4.3 71.1h5.9zm-47.2 0l23.6-23.6h-5.9l-23.6 23.6h5.9zm59 0l23.6-23.6h-5.9L16.1 71.1H22zm-47.2 0l23.6-23.6h-5.9l-23.6 23.6h5.9zm94.5 0l23.6-23.6H87L63.4 71.1h5.9zm-11.8 0l23.6-23.6h-5.9L51.6 71.1h5.9zm-23.7 0l23.6-23.6h-5.9L27.9 71.1h5.9zm11.8 0l23.6-23.6h-5.9L39.8 71.1h5.8zm100.2 519.6l23.6-23.6v-5.9l-23.6 23.6v5.9zm0 59.1l23.6-23.6v-5.9l-23.6 23.6v5.9zm0 11.8l23.6-23.6v-5.9l-23.6 23.6v5.9zm0-23.6l23.6-23.6v-5.9l-23.6 23.6v5.9zm0-23.6l23.6-23.6v-5.9l-23.6 23.6v5.9zm0 11.8l23.6-23.6v-5.9l-23.6 23.6v5.9zm0-23.6l23.6-23.6v-6l-23.6 23.6v6zm153.8-82.9L276 543.3h5.9l23.6-23.6h-5.9zm-29.5 23.6l23.6-23.6h-5.9l-23.6 23.6h5.9zm-124.3 35.6l23.6-23.6v-5.9L145.8 573v5.9zm112.5-35.6l23.6-23.6H276l-23.6 23.6h5.9zM145.8 673.4l23.6-23.6v-5.9l-23.6 23.6v5.9zm0-147.5v5.9l-11.6 11.5h5.9l5.7-5.6v5.7h6.1l-6.1 6.1v5.9l11.9-12h5.9l-17.9 17.9v5.9l23.6-23.6v-5.8l18-18h-5.9l-12.1 12.1V526l6.2-6.2h-5.9l-.3.3V514l-5.8 5.8h-5.9l11.7-11.7v-5.9l-17.6 17.6h-5.9l23.5-23.5v-5.9L145.8 514v6l-23.4 23.3h5.9l17.5-17.4zm65.2 17.4l23.6-23.6h-5.9l-23.6 23.6h5.9zm-212.6 0L22 519.7h-5.9l-23.6 23.6h5.9zm189 0l23.6-23.6h-5.9l-23.6 23.6h5.9zm47.3 0l23.6-23.6h-5.9l-23.6 23.6h5.9zm-59.1 0l23.6-23.6h-5.9l-23.6 23.6h5.9zm23.6 0l23.6-23.6h-5.9l-23.6 23.6h5.9zm-53.4-129.7l23.6-23.6v-6l-23.6 23.6v6zm0-11.9l23.6-23.6v-5.9l-23.6 23.6v5.9zm0-11.8l23.6-23.6v-5.9L145.8 384v5.9zm-29.3 153.4l23.6-23.6h-5.9l-23.6 23.6h5.9zm-70.9 0l23.6-23.6h-5.9l-23.6 23.6h5.9zm-11.8 0l23.6-23.6h-5.9l-23.6 23.6h5.9zm23.7 0l23.6-23.6h-5.9l-23.6 23.6h5.9zm-35.5 0l23.6-23.6h-5.9l-23.6 23.6H22zm-11.8 0l23.6-23.6h-5.9L4.3 543.3h5.9zm94.5 0l23.6-23.6h-5.9l-23.6 23.6h5.9zm-35.4 0l23.6-23.6H87l-23.6 23.6h5.9zm76.5-117.9l23.6-23.6v-5.9l-23.6 23.6v5.9zM92.9 543.3l23.6-23.6h-5.9L87 543.3h5.9zm-11.8 0l23.6-23.6h-5.9l-23.6 23.6h5.9zm141.7 0l23.6-23.6h-5.9l-23.6 23.6h5.9zm-77-106.1l23.6-23.6v-5.9l-23.6 23.6v5.9zm0 47.2l23.6-23.6v-5.9l-23.6 23.6v5.9zm0-11.8l23.6-23.6v-5.9l-23.6 23.6v5.9zm0-23.6l23.6-23.6v-5.9l-23.6 23.6v5.9zm0 11.8l23.6-23.6v-5.9l-23.6 23.6v5.9zm23.6 17.7l-23.6 23.6v5.9l23.6-23.6v-5.9zm-23.6 17.8l23.6-23.6v-5.9l-23.6 23.6v5.9zm100.7 47l23.6-23.6h-5.9l-23.6 23.6h5.9zm-259.9 0l23.6-23.6H4.3l-23.6 23.6h5.9zm307.1 0l17.9-17.8v-5.8h-.1l-23.6 23.6h5.8zm11.8 0l6.1-6v-5.9l-11.9 11.9h5.8zm5.9 0h.1v-.1l-.1.1zm-336.6 0l23.6-23.6h-5.9l-23.6 23.6h5.9zm-11.8 0l23.6-23.6h-5.9l-23.6 23.6h5.9z"/></svg>