<svg xmlns="http://www.w3.org/2000/svg" viewBox="0 0 2428.84 769.96"><title>Artboard 1 copy 3</title><g id="Layer_1" data-name="Layer 1"><path d="M170.88,365.15l-10.77-6.46c-8.27-5-15.8-7.18-24.05-7.18a39,39,0,0,0-19.09,5V323.91c0-32.48,11.4-42.84,42.84-42.84,29,0,41.46,10.35,41.46,42.84v45.52a26.71,26.71,0,0,1-10.64,2.18c-5.74,0-11.84-1.79-19.74-6.46M161.19,251.7c-60.8,0-82.92,29.71-82.92,69.1V434.13c0,22.45-11.75,19.35-11.75,26.26,0,4.5,5.18,5.53,24.19,5.53h6.21c18.32,0,20-1,20-8.64V382.77a27.25,27.25,0,0,1,15.85-5.05c5.74,0,11.84,1.79,19.75,6.47l10.77,6.46c8.26,5,15.8,7.18,24.06,7.18a39,39,0,0,0,13.87-2.57v62c0,7.6,1,8.64,20,8.64s20-1,20-8.64V320.81c0-39.39-22.11-69.1-80.17-69.1" style="fill:#383a35"/><path d="M621.76,451.06c-10.71-1-13.13-3.46-13.13-12.78V310.78c0-6.91-2.07-7.95-19-7.95s-19,1-19,7.95v113c-11.41,7.59-25.23,13.48-39.4,13.48-7.59,0-14.16-2.08-18.65-6.23-5.52-4.83-8.29-12.44-8.29-24.87v-94c0-7.26-1.73-9.34-19.69-9.34-27.3,0-30.06,1.74-30.06,5.2,0,2.07,1,2.75,3.78,4.48,6.57,4.14,8,7.6,8,24.88v77.75c0,16.23,4.49,29.7,13.12,38.7S500.48,468,516,468c18,0,37.66-6.21,56.32-21.08,2.77,13.48,12.44,19.7,28.33,19.7,13.12,0,25.22-5.53,25.22-11.74,0-2.08-1-3.46-4.14-3.8" style="fill:#383a35"/><path d="M384.4,426.52C373.68,435.16,362.27,439,351.56,439c-21.42,0-38-18-38-54.25,0-39.38,18.31-57.69,48-57.69,6.57,0,18.31,2.42,22.82,4.83Zm45.95,100.21c-6.57-4.16-7.94-7.6-7.94-24.88V329.78c0-10-2.43-14.51-9.34-18-13.82-6.91-32.13-11-51.13-11-44.93,0-87.77,22.11-87.77,85.69,0,51.14,24.88,81.54,66.35,81.54a73.32,73.32,0,0,0,43.88-14.51v48.38c0,17.28-1.4,20.73-8,24.88-2.77,1.72-3.8,2.41-3.8,4.49,0,3.45,2.75,5.19,30.74,5.19s30.76-1.74,30.76-5.19c0-2.07-1-2.77-3.8-4.49" style="fill:#383a35"/><path d="M756.16,424.8a51.53,51.53,0,0,1-34.56,13.82c-25.91,0-36.63-22.45-36.63-52.85,0-37,14.17-55.28,40.43-55.28a44.33,44.33,0,0,1,30.76,12.78Zm51.13,26.26c-10.35-1-13.12-3.46-13.12-12.78V310.43c0-6.56-1.73-7.6-18-7.6-15.2,0-16.23.7-18,8.64l-1,4.83a64.06,64.06,0,0,0-41.81-15.54c-39,0-69.8,31.44-69.8,86.38,0,45.61,20.39,80.84,66,80.84a66.93,66.93,0,0,0,47-18.65c3.46,11.74,13.48,17.27,28,17.27,12.78,0,24.88-5.53,24.88-11.74,0-2.08-1-3.46-4.16-3.8" style="fill:#383a35"/><path d="M1556,451.06c-10.71-1-13.14-3.46-13.14-12.78V310.78c0-6.91-2.07-7.95-19-7.95s-19,1-19,7.95v113c-11.39,7.59-25.22,13.48-39.38,13.48-7.6,0-14.17-2.08-18.66-6.23-5.53-4.83-8.3-12.44-8.3-24.87v-94c0-7.26-1.73-9.34-19.69-9.34-27.3,0-30.06,1.74-30.06,5.2,0,2.07,1,2.75,3.8,4.48,6.55,4.14,7.94,7.6,7.94,24.88v77.75c0,16.23,4.5,29.7,13.12,38.7S1434.73,468,1450.27,468c18,0,37.67-6.21,56.33-21.08,2.77,13.48,12.44,19.7,28.33,19.7,13.14,0,25.22-5.53,25.22-11.74,0-2.08-1-3.46-4.14-3.8" style="fill:#383a35"/><path d="M1672.09,300.76c-13.82,0-29.71,6.91-41.81,22.11-2.77-13.82-10.71-20.73-29-20.73-15.89,0-22.12,3.45-22.12,6.91,0,1.72.7,2.41,3.12,3.8,8.64,4.49,11,6.55,11,17.62V431.36c0,17.28-1.37,20.74-7.94,24.88-2.77,1.73-3.8,2.42-3.8,4.5,0,3.45,2.77,5.18,30.76,5.18s30.74-1.74,30.74-5.18c0-2.07-1-2.77-3.8-4.5-6.55-4.14-7.95-7.6-7.95-24.88V345.67c11.07-9,22.12-12.78,33.86-12.78a81.9,81.9,0,0,1,14.17,1.74c5.52,1,7.59-.35,8.29-7.26.34-3.11.69-9.32.69-11,0-12.09-4.84-15.55-16.25-15.55" style="fill:#383a35"/><path d="M1780.59,326.32c14.85,0,25.91,9.68,25.91,23.85s-9.68,27.63-37.66,27.63a170.34,170.34,0,0,1-30.06-3.11c2.41-31.1,22.11-48.38,41.81-48.38M1830,435.86c-12.44,3.11-25.58,5.18-37.67,5.18-26.61,0-48.38-10.72-53.21-43.19a149.87,149.87,0,0,0,37.67,4.83c44.91,0,65.64-24.19,65.64-50.44,0-33.51-30.06-51.48-62.53-51.48-49.06,0-80.85,35.59-80.85,85.69,0,62.55,43.19,81.54,90.53,81.54,12.44,0,23.15-1.73,30.75-4.14,11.75-3.46,14.16-7.6,14.16-20.73V441c0-5.52-1.74-5.88-4.49-5.18" style="fill:#383a35"/><path d="M959.66,435.16A110.6,110.6,0,0,1,925.12,441c-34.22,0-54.61-16.59-54.61-56.66,0-37.31,18-57.35,41.81-57.35,21.43,0,30.06,17.62,40.43,17.62,6.57,0,10.71-7.95,10.71-16.92,0-6.23-1.73-10.71-5.53-14.17-8.64-7.95-25.91-12.78-44.57-12.78-51.83,0-82.23,34.2-82.23,85.35,0,50.44,30.06,81.88,84.31,81.88,11,0,25.22-2.07,34.54-5.17,11.4-3.8,14.17-7.26,14.17-20.39V440c0-5.52-2.42-5.52-4.5-4.83" style="fill:#383a35"/><path d="M1152.8,451.06c-10.71-1-13.14-3.46-13.14-12.78V310.78c0-6.91-2.07-7.95-19-7.95s-19,1-19,7.95v113c-11.41,7.59-25.23,13.48-39.4,13.48-7.59,0-14.16-2.08-18.65-6.23-5.52-4.83-8.29-12.44-8.29-24.87v-94c0-7.26-1.73-9.34-19.69-9.34-27.3,0-30.06,1.74-30.06,5.2,0,2.07,1,2.75,3.8,4.48,6.55,4.14,7.94,7.6,7.94,24.88v77.75c0,16.23,4.49,29.7,13.12,38.7S1031.53,468,1047.08,468c18,0,37.66-6.21,56.32-21.08,2.77,13.48,12.44,19.7,28.33,19.7,13.12,0,25.22-5.53,25.22-11.74,0-2.08-1-3.46-4.14-3.8" style="fill:#383a35"/><path d="M1236.07,456.24c-6.57-4.14-7.94-7.6-7.94-24.88V249.62c0-12.78-7.26-19.34-30.06-19.34-15.89,0-22.11,3.45-22.11,6.91,0,1.71.69,2.4,3.11,3.8,8.64,4.48,11.07,6.55,11.07,17.62V431.36c0,17.28-1.4,20.74-8,24.88-2.77,1.73-3.8,2.42-3.8,4.5,0,3.45,2.77,5.18,30.74,5.18s30.76-1.74,30.76-5.18c0-2.07-1-2.77-3.8-4.5" style="fill:#383a35"/><path d="M1367,437.25a74.08,74.08,0,0,1-21.78,3.78c-21.76,0-24.19-11-24.19-30.74V327h36.63c5.53,0,6.56-1,6.56-5.53V308.37c0-4.5-1-5.54-6.56-5.54h-36.63V259.65c0-7.95-12.09-2.07-32.13,4.14-4.49,1.38-5.88,3.46-5.88,9.34v29.7h-20.73c-5.54,0-6.57,1-6.57,5.54v13.12c0,4.5,1,5.53,6.57,5.53H1283v90.53c0,36.29,14.51,50.44,49.76,50.44,10.35,0,19.69-1.73,24.87-3.45,11.4-3.46,13.82-7.26,13.82-20.39v-2.08c0-5.52-2.41-5.52-4.49-4.83" style="fill:#383a35"/><path d="M2340.2,346.14a366.45,366.45,0,0,0-138-44.58l-7-57.14,7.22-14.07V191.44l-4.06-.42c-7.27-.76-14.59-1.31-21.74-1.64l-4.73-.22v0l-2.38-.06c-3.71-.1-7.15-.15-10.48-.15s-6.82,0-10.54.15l-2.35.06v0l-4.74.22c-7.15.33-14.46.88-21.72,1.64l-4.05.42v38.9l7.18,14.05-7,57.17a366.33,366.33,0,0,0-138,44.58V169.71H2340.2Zm-212.68-112.4c10.52-.76,21.09-1.15,31.5-1.15s21,.39,31.47,1.15l-4.63,9,6.84,55.6c-11.23-1-22.54-1.51-33.69-1.51s-22.47.51-33.7,1.51l6.8-55.62ZM2142,207.21c2.17-.18,4.41-.33,6.85-.45l4.3-.21v-8.48c4-.07,7.68-.07,11.71,0v8.48l4.3.21c2.51.12,4.76.27,6.88.45l4.9.41v-8.95c4.11.24,8.27.56,12.43,1v25.24c-11.46-.88-23-1.33-34.33-1.33s-22.89.45-34.36,1.33V199.62c4.14-.39,8.29-.7,12.4-.95v8.95Zm198.22,157a20.48,20.48,0,0,0-31.93,17v28.06h-15.6V373.64a20.49,20.49,0,1,0-41,0v35.61H2236.1V366.09a20.49,20.49,0,0,0-41,0v43.15h-15.6v-50.7a20.49,20.49,0,1,0-41,0v50.7h-15.59V366.09a20.49,20.49,0,1,0-41,0v43.15h-15.6V373.64a20.49,20.49,0,1,0-41,0v35.61h-15.6V381.18a20.48,20.48,0,0,0-31.93-17v-9.35c54.38-31.54,117-48.22,181.18-48.22s126.79,16.67,181.18,48.22Zm0,37.29v4.36a77.11,77.11,0,0,1-1.8,12.56c-1.74,7.86-5.42,19.67-13.18,34-7.64-.65-11.76-4-16.44-7.76-5.34-4.32-11.39-9.23-23-9.23s-17.68,4.9-23,9.23-9.73,7.88-19.22,7.88-14-3.65-19.22-7.88-11.39-9.23-23-9.23-17.68,4.9-23,9.23-9.73,7.88-19.22,7.88-14-3.65-19.22-7.88-11.39-9.23-23-9.23-17.68,4.9-23,9.23-9.73,7.88-19.22,7.88-14-3.65-19.22-7.88-11.39-9.23-23-9.23-17.68,4.9-23,9.23c-4.68,3.8-8.8,7.12-16.45,7.76-7.75-14.31-11.44-26.12-13.18-34a77,77,0,0,1-1.79-12.56V381.18a11.44,11.44,0,1,1,22.87,0v37.12h33.71V373.64a11.44,11.44,0,1,1,22.87,0v44.67H2091V366.09a11.44,11.44,0,0,1,22.87,0v52.21h33.71V358.55a11.44,11.44,0,0,1,22.87,0v59.76h33.7V366.09a11.44,11.44,0,0,1,22.88,0v52.21h33.7V373.64a11.44,11.44,0,1,1,22.87,0v44.67h33.71V381.18a11.44,11.44,0,1,1,22.87,0Zm-20,59.64a207.16,207.16,0,0,1-14.73,20.69,30.64,30.64,0,0,0-19.66-6.59c-11.63,0-17.68,4.9-23,9.22s-9.73,7.88-19.22,7.88-14-3.66-19.22-7.88c-4.57-3.7-9.68-7.82-18.35-8.93V464.86l-2.87,1.82-1.77,1.12c-6.43,4.07-13,3.38-20,2.63-7.21-.77-14.64-1.57-22.28,2.58-7.64-4.14-15.08-3.35-22.27-2.58-7,.75-13.59,1.45-20-2.63l-1.77-1.12-2.87-1.82v10.66c-8.66,1.11-13.76,5.23-18.33,8.93-5.22,4.23-9.73,7.88-19.22,7.88s-14-3.66-19.22-7.88-11.39-9.22-23-9.22a30.65,30.65,0,0,0-19.68,6.6,208.77,208.77,0,0,1-14.74-20.71c-.63-1-1.24-2-1.84-3.05,7.88-1.34,12.7-5.23,17-8.74,5.22-4.23,9.73-7.88,19.22-7.88s14,3.66,19.22,7.88,11.39,9.22,23,9.22,17.68-4.9,23-9.22,9.73-7.88,19.22-7.88,14,3.66,19.22,7.88,11.39,9.22,23,9.22,17.68-4.9,23-9.22,9.73-7.88,19.22-7.88,14,3.66,19.22,7.88,11.39,9.22,23,9.22,17.68-4.9,23-9.22,9.73-7.88,19.22-7.88,14,3.66,19.22,7.88c4.33,3.51,9.14,7.4,17,8.74-.6,1-1.21,2-1.85,3.06m-54.31,60.7c-1.08.81-2.1,1.64-3.1,2.45-5.22,4.23-9.73,7.88-19.22,7.88s-14-3.66-19.22-7.88c-4.57-3.7-9.68-7.82-18.35-8.93V481.59c6.47,1,10.27,4.07,14.55,7.55,5.34,4.32,11.39,9.22,23,9.22s17.68-4.9,23-9.22,9.73-7.88,19.22-7.88a24.29,24.29,0,0,1,15.82,5.22,300.44,300.44,0,0,1-35.74,35.34m-103.81,16V478.25c6-3.17,12.13-2.52,18.62-1.82a74.4,74.4,0,0,0,9.53.61,28.22,28.22,0,0,0,9.69-1.78l0,0v59.57c-6,3.16-12.13,2.5-18.61,1.81A69,69,0,0,0,2171,536a27.55,27.55,0,0,0-8.91,1.77m-43.9-3V475.24l0,0a28.21,28.21,0,0,0,9.71,1.78,75,75,0,0,0,9.51-.61c6.48-.69,12.62-1.34,18.62,1.82v59.57a27.45,27.45,0,0,0-8.91-1.78c-.54,0-1.08,0-1.62,0a81.3,81.3,0,0,0-8.72.62c-6.48.69-12.63,1.35-18.62-1.81M2159,589.64c-32.73-16.2-61.56-33.46-86.07-51.5.52,0,1,0,1.59,0,11.63,0,17.68-4.9,23-9.23,4.28-3.46,8.08-6.54,14.54-7.54V538.2l1.4.89c8.21,5.21,16.18,4.36,23.89,3.53,7-.74,13.59-1.45,20,2.63l1.62,1,1.62-1c6.43-4.08,13-3.37,20-2.63,7.71.83,15.68,1.68,23.89-3.53l1.4-.89V521.42c6.47,1,10.27,4.07,14.55,7.54,5.34,4.33,11.39,9.23,23,9.23.54,0,1.06,0,1.57,0-24.51,18-53.35,35.29-86.07,51.5m-106.93-67.92a300.1,300.1,0,0,1-35.63-35.25,24.28,24.28,0,0,1,15.83-5.22c9.49,0,14,3.65,19.22,7.88s11.39,9.22,23,9.22,17.68-4.9,23-9.22c4.28-3.47,8.08-6.54,14.54-7.54v33.74c-8.66,1.11-13.76,5.23-18.33,8.93-5.22,4.23-9.73,7.88-19.22,7.88s-14-3.66-19.22-7.88c-1-.84-2.1-1.7-3.23-2.54m297.16-120.25h0V160.66H1968.79V401.48a37.61,37.61,0,0,0,0,4.67,86.83,86.83,0,0,0,2.23,15.17,136.4,136.4,0,0,0,11.08,30.1q1.67,3.35,3.62,6.87a208.78,208.78,0,0,0,19.76,29.12q1.85,2.31,3.84,4.66a287.64,287.64,0,0,0,21.77,23q3.43,3.26,7.12,6.57c27.76,24.89,66.56,51.62,120.81,78.08,54.24-26.45,93-53.18,120.81-78.08q3.69-3.31,7.13-6.57a286.89,286.89,0,0,0,21.78-23q2-2.35,3.84-4.66a209.44,209.44,0,0,0,19.75-29.1q1.95-3.51,3.62-6.87A136.46,136.46,0,0,0,2347,421.32a86.86,86.86,0,0,0,2.23-15.17,39,39,0,0,0,0-4.68" style="fill:#006938"/><path d="M2232.23,204.52c6.58,2.54,13,1.85,19.25,1.18,6.48-.69,12.63-1.34,18.62,1.82v59.57a28.69,28.69,0,0,0-10.53-1.82,82.66,82.66,0,0,0-8.72.62c-6.49.69-12.63,1.35-18.62-1.81Zm43.9,3c6-3.17,12.13-2.52,18.62-1.82,6.25.67,12.68,1.36,19.25-1.18v59.56c-6,3.17-12.13,2.51-18.61,1.81-6.25-.66-12.67-1.35-19.26,1.19Zm-24.65,64.37c7-.74,13.59-1.45,20,2.63l1.62,1,1.62-1c6.43-4.08,13-3.37,20-2.63,7.71.82,15.68,1.68,23.89-3.53l1.4-.89V194.13l-4.63,2.95c-6.43,4.07-13,3.37-20,2.62-7.21-.77-14.64-1.56-22.28,2.58-7.64-4.14-15.07-3.35-22.27-2.58-7,.75-13.59,1.45-20-2.62l-4.63-2.95v73.34l1.4.89c8.21,5.21,16.18,4.35,23.89,3.53" style="fill:#006938"/><path d="M2237.67,219.13c4.66,3,9.37,2.45,13.53,2,3.88-.41,7.56-.8,11.1,1.45a1.89,1.89,0,0,0,2-3.19c-4.66-3-9.37-2.46-13.53-2-3.88.41-7.55.8-11.1-1.45a1.89,1.89,0,0,0-2,3.19" style="fill:#006938"/><path d="M2237.67,235.66c4.66,3,9.37,2.45,13.53,2,3.88-.41,7.56-.81,11.1,1.44a1.89,1.89,0,0,0,2-3.19c-4.66-3-9.37-2.46-13.53-2-3.88.41-7.55.8-11.1-1.45a1.89,1.89,0,0,0-2,3.19" style="fill:#006938"/><path d="M2251.19,254.21c3.89-.41,7.56-.81,11.11,1.44a1.89,1.89,0,0,0,2-3.19c-4.66-3-9.37-2.45-13.53-2-3.88.41-7.55.8-11.1-1.44a1.89,1.89,0,0,0-2,3.19c4.66,3,9.37,2.45,13.53,2" style="fill:#006938"/><path d="M2295,254.21c4.15.44,8.86.95,13.53-2a1.89,1.89,0,0,0-2-3.19c-3.55,2.25-7.22,1.86-11.1,1.44-4.16-.44-8.87-.95-13.53,2a1.89,1.89,0,0,0,1,3.48,1.86,1.86,0,0,0,1-.29c3.55-2.25,7.22-1.86,11.11-1.44" style="fill:#006938"/><path d="M2282.92,239.41a1.86,1.86,0,0,0,1-.29c3.55-2.25,7.22-1.86,11.11-1.44,4.15.44,8.86.95,13.53-2a1.89,1.89,0,0,0-2-3.19c-3.55,2.25-7.22,1.86-11.11,1.44-4.16-.44-8.87-.95-13.52,2a1.89,1.89,0,0,0,1,3.48" style="fill:#006938"/><path d="M2282.92,222.88a1.86,1.86,0,0,0,1-.29c3.55-2.25,7.22-1.86,11.11-1.44,4.15.44,8.86.95,13.53-2a1.89,1.89,0,0,0-2-3.19c-3.55,2.25-7.22,1.86-11.11,1.44-4.16-.44-8.87-.95-13.52,2a1.89,1.89,0,0,0,1,3.48" style="fill:#006938"/><path d="M2005.48,204.52c6.58,2.54,13,1.85,19.25,1.18,6.48-.69,12.63-1.34,18.62,1.82v59.57a28.69,28.69,0,0,0-10.53-1.82,82.57,82.57,0,0,0-8.72.62c-6.49.69-12.63,1.35-18.62-1.81Zm43.9,3c6-3.17,12.13-2.52,18.62-1.82,6.25.67,12.67,1.36,19.25-1.18v59.56c-6,3.17-12.13,2.51-18.62,1.81-6.25-.66-12.67-1.35-19.25,1.19Zm-24.65,64.37c7-.74,13.59-1.45,20,2.63l1.62,1,1.62-1c6.43-4.08,13-3.37,20-2.63,7.71.82,15.68,1.68,23.89-3.53l1.4-.89V194.13l-4.63,2.95c-6.43,4.07-13,3.37-20,2.62-7.2-.77-14.64-1.56-22.27,2.58-7.64-4.14-15.07-3.35-22.27-2.58-7,.75-13.59,1.45-20-2.62l-4.63-2.95v73.34l1.4.89c8.2,5.21,16.18,4.36,23.89,3.53" style="fill:#006938"/><path d="M2010.91,219.13c4.66,3,9.37,2.45,13.53,2,3.88-.41,7.56-.8,11.1,1.45a1.89,1.89,0,1,0,2-3.19c-4.66-3-9.37-2.46-13.53-2-3.88.41-7.55.8-11.1-1.45a1.89,1.89,0,0,0-2,3.19" style="fill:#006938"/><path d="M2010.91,235.66c4.66,3,9.37,2.45,13.53,2,3.88-.41,7.56-.81,11.1,1.44a1.89,1.89,0,1,0,2-3.19c-4.66-3-9.37-2.46-13.53-2-3.88.41-7.55.8-11.1-1.45a1.89,1.89,0,0,0-2,3.19" style="fill:#006938"/><path d="M2024.44,254.21c3.88-.41,7.55-.81,11.1,1.44a1.89,1.89,0,1,0,2-3.19c-4.66-3-9.37-2.45-13.53-2-3.88.41-7.55.81-11.1-1.44a1.89,1.89,0,0,0-2,3.19c4.66,3,9.37,2.45,13.53,2" style="fill:#006938"/><path d="M2068.28,254.21c4.15.44,8.86.95,13.53-2a1.89,1.89,0,0,0-2-3.19c-3.56,2.25-7.22,1.86-11.11,1.44-4.15-.44-8.86-.95-13.53,2a1.89,1.89,0,0,0,1,3.48,1.86,1.86,0,0,0,1-.29c3.55-2.25,7.22-1.86,11.11-1.44" style="fill:#006938"/><path d="M2056.17,239.41a1.88,1.88,0,0,0,1-.29c3.55-2.25,7.22-1.86,11.11-1.44,4.15.44,8.86.95,13.52-2a1.89,1.89,0,1,0-2-3.19c-3.55,2.25-7.22,1.86-11.1,1.44-4.15-.44-8.86-.95-13.52,2a1.89,1.89,0,0,0,1,3.48" style="fill:#006938"/><path d="M2056.17,222.88a1.88,1.88,0,0,0,1-.29c3.55-2.25,7.22-1.86,11.11-1.44,4.15.44,8.86.95,13.52-2a1.89,1.89,0,1,0-2-3.19c-3.55,2.25-7.22,1.86-11.1,1.44-4.15-.44-8.86-.95-13.52,2a1.89,1.89,0,0,0,1,3.48" style="fill:#006938"/><path d="M2168,273.62,2164.64,246c-1.9,0-3.8,0-5.7,0s-3.71,0-5.56,0L2150,273.57c2.67,0,5.33-.08,8-.08,3.35,0,6.69,0,10,.13" style="fill:#006938"/><path d="M2123.58,489.85c4.66,3,9.37,2.45,13.53,2,.7-.07,1.41-.15,2.1-.2,3.11-.26,6.1-.19,9,1.65a1.91,1.91,0,0,0,1,.29,1.88,1.88,0,0,0,1.59-.87,1.84,1.84,0,0,0,.22-1.5,1.87,1.87,0,0,0-.8-1.1,14.69,14.69,0,0,0-5.8-2.15,30.1,30.1,0,0,0-7.72.13l-1.74.17c-3.25.3-6.35.29-9.36-1.62a1.89,1.89,0,0,0-2,3.19" style="fill:#006938"/><path d="M2123.58,506.39c4.66,3,9.37,2.45,13.53,2,3.88-.41,7.56-.8,11.1,1.45a1.91,1.91,0,0,0,1,.29,1.88,1.88,0,0,0,1-3.48c-4.66-3-9.37-2.46-13.53-2-3.88.41-7.56.81-11.1-1.44a1.89,1.89,0,0,0-2,3.19" style="fill:#006938"/><path d="M2140.28,524.65a12.7,12.7,0,0,1,7.92,1.73,1.91,1.91,0,0,0,1,.29,1.88,1.88,0,0,0,1-3.48,14.65,14.65,0,0,0-2-1.06c-4-1.75-8-1.33-11.52-1l-.75.08c-3.61.38-7,.58-10.36-1.52a1.88,1.88,0,0,0-2.86,1.91,2.09,2.09,0,0,0,.15.48,1.91,1.91,0,0,0,.69.79,15.11,15.11,0,0,0,7.55,2.32,38.21,38.21,0,0,0,6-.3c1.07-.12,2.14-.23,3.18-.28" style="fill:#006938"/><path d="M2177.78,524.65c1,.06,2.1.16,3.17.28a37.77,37.77,0,0,0,6,.31,15.17,15.17,0,0,0,7.53-2.32,1.9,1.9,0,0,0,.69-.79,2,2,0,0,0,.14-.47,1.86,1.86,0,0,0-.26-1.34,1.88,1.88,0,0,0-2.6-.58c-3.32,2.1-6.73,1.9-10.34,1.52l-.76-.08c-3.56-.38-7.53-.8-11.52.95a13.93,13.93,0,0,0-2,1.06,1.89,1.89,0,0,0,1,3.48,1.91,1.91,0,0,0,1-.29,12.75,12.75,0,0,1,7.94-1.73" style="fill:#006938"/><path d="M2168.83,510.14a1.88,1.88,0,0,0,1-.29c3.55-2.25,7.22-1.86,11.11-1.44,4.15.44,8.86.95,13.53-2a1.89,1.89,0,1,0-2-3.19c-3.55,2.25-7.22,1.86-11.1,1.44-4.15-.44-8.86-.95-13.52,2a1.89,1.89,0,0,0,1,3.48" style="fill:#006938"/><path d="M2168.83,493.6a1.88,1.88,0,0,0,1-.29c2.91-1.84,5.9-1.91,9-1.65l2.09.21c4.15.44,8.86.95,13.53-2a1.89,1.89,0,1,0-2-3.19c-3,1.91-6.1,1.91-9.34,1.62l-1.76-.18a30,30,0,0,0-7.71-.13,14.64,14.64,0,0,0-5.82,2.14,1.9,1.9,0,0,0-.58,2.61,1.88,1.88,0,0,0,1.59.87" style="fill:#006938"/></g><g id="Layer_2" data-name="Layer 2"><path d="M487.41,523.37c6.78,0,7.42.38,7.42,3.2v49.35c0,6.5.63,10.22,3.71,12.65,2.68,2,6.65,3.2,12.27,3.2,5.37,0,9.08-1,11.5-3.2,3.07-2.56,4-6.53,4-12.65V526.57c0-2.82.38-3.2,7.16-3.2s7.15.38,7.15,3.2v50.5c0,7.66-1.53,13.68-6.51,18.41-5.24,4.86-12.78,7.16-23.26,7.16-10.87,0-18.8-2.3-23.91-7s-6.9-11.12-6.9-18.53V535.13c0-8.31-4.34-7.16-4.34-9.71,0-1.67,1.92-2,8.94-2Z" style="fill:#006938"/><path d="M615,575.79V535.13c0-8.31-4.34-7.15-4.34-9.71,0-1.66,1.92-2,8.94-2h2.18c7,0,8.94.39,8.94,2,0,2.56-4.34,1.4-4.34,9.71v64.43c0,1.66-.77,2.3-4.48,2.3h-.77c-3.32,0-3.84-.39-5.23-2.17L579.07,553c-1.78-2.29-4-5.11-5.23-6.9h-.26v44c0,8.31,4.34,7.16,4.34,9.71,0,1.66-1.92,2-9,2h-2.16c-7,0-9-.39-9-2,0-2.55,4.34-1.4,4.34-9.71v-55c0-8.31-4.34-7.15-4.34-9.71,0-1.66,1.92-2,9-2h.76c6.14,0,6.9,1.15,10.61,5.76l31.33,39.76c1.78,2.3,4,5.11,5.23,6.9Z" style="fill:#006938"/><path d="M665.63,590.1c0,8.31,4.34,7.16,4.34,9.71,0,1.67-1.92,2-8.94,2H655.4c-7,0-9-.38-9-2,0-2.55,4.34-1.4,4.34-9.71v-55c0-8.32-4.34-7.16-4.34-9.72,0-1.66,1.92-2,9-2H661c7,0,8.94.39,8.94,2,0,2.56-4.34,1.4-4.34,9.72Z" style="fill:#006938"/><path d="M738.24,536.41a14.92,14.92,0,0,0,1.15-4.6,5.49,5.49,0,0,0-2.17-4.22c-1-.89-1.4-1.4-1.4-2,0-1.92,1.66-2.17,11-2.17,9.08,0,11,.26,11,2a2.42,2.42,0,0,1-1.16,1.92,18.38,18.38,0,0,0-6.52,8.94l-23.78,62.39c-1,2.82-2.3,3.2-4.22,3.2h-2c-1.92,0-3.06-.38-4.22-3.2l-26.08-64.17a13,13,0,0,0-6.89-7.29,1.9,1.9,0,0,1-1.28-1.78c0-1.92,4.09-2,10.22-2,8.43,0,10.22,1,12.92,7.8l10.74,27.11c1.92,4.73,5.49,13.81,7.67,19.56h.26c2.43-7.15,4.22-12.14,6.9-19.56Z" style="fill:#006938"/><path d="M787.85,592.15a120.88,120.88,0,0,1,12.27-.39h20.32c1.54,0,2,.39,2,1.93v6.26c0,1.41-.51,1.92-2,1.92H777.63c-7,0-9-.38-9-2,0-2.56,4.35-1.41,4.35-9.72v-55c0-8.31-4.35-7.16-4.35-9.72,0-1.66,1.92-2,9-2h41.54c1.55,0,2,.38,2,1.92v6.27c0,1.4-.5,1.91-2,1.91h-19c-6.26,0-10-.12-12.27-.38v23.26h25.69c1.54,0,2,.39,2,1.93v6c0,1.41-.51,1.92-2,1.92H787.85Z" style="fill:#006938"/><path d="M877,568.62,894,591a26.15,26.15,0,0,0,8.05,7.42c.77.51,1,.89,1,1.53,0,1.8-4,1.93-10.49,1.93-7.28,0-8.82-1-12.27-5.62L861.75,571.7h-7.42V590.1c0,8.31,4.34,7.16,4.34,9.71,0,1.67-1.92,2-8.94,2h-5.62c-7,0-9-.38-9-2,0-2.55,4.34-1.4,4.34-9.71v-55c0-8.32-4.34-7.16-4.34-9.72,0-1.66,1.92-2,9-2h10.22c11.89,0,20.07,1.16,25.31,3.45,7.42,3.33,13.3,9.21,13.3,19.94,0,12-5.88,18-16,21.86m-18.41-36h-4.22v30c17.64,0,23.26-5.75,23.26-15.47,0-11.5-7.8-14.57-19-14.57" style="fill:#006938"/><path d="M912.25,542c0-11,10.35-19.43,26.2-19.43,7.67,0,15.72,2,20.46,6.27a7.55,7.55,0,0,1,2.68,6.26c0,3.71-2,7.28-5.11,7.28-1.93,0-3.59-1.53-5.5-3.32A21.14,21.14,0,0,0,936.92,533c-5.63,0-9.85,2.68-9.85,7.28,0,15.35,37.58,13.81,37.58,39.12a21.19,21.19,0,0,1-6.52,15.86c-5.11,5-13.43,7.42-21.74,7.42S920,600.46,914.28,596a7.3,7.3,0,0,1-2.94-6.38c0-3.59,2-7.29,5.24-7.29,4.48,0,8.05,10,20.84,10,6.65,0,12.41-3.45,12.41-11.14,0-17.12-37.58-14.82-37.58-39.11" style="fill:#006938"/><path d="M996.49,590.1c0,8.31,4.34,7.16,4.34,9.71,0,1.67-1.92,2-8.94,2h-5.63c-7,0-8.94-.38-8.94-2,0-2.55,4.34-1.4,4.34-9.71v-55c0-8.32-4.34-7.16-4.34-9.72,0-1.66,1.92-2,8.94-2h5.63c7,0,8.94.39,8.94,2,0,2.56-4.34,1.4-4.34,9.72Z" style="fill:#006938"/><path d="M1072.81,523.37c1.54,0,2,.38,2,1.92v6.27c0,1.4-.5,1.91-2,1.91h-9.59c-6.26,0-10-.12-12.27-.38v57c0,8.31,4.34,7.15,4.34,9.71,0,1.66-1.91,2-8.94,2h-5.62c-7,0-8.94-.38-8.94-2,0-2.56,4.33-1.4,4.33-9.71v-57c-2.29.26-6,.38-12.27.38h-9.58c-1.54,0-2-.5-2-1.91v-6.27c0-1.54.51-1.92,2-1.92Z" style="fill:#006938"/><path d="M1157.44,525.42a2.4,2.4,0,0,1-1.15,1.92,24,24,0,0,0-6.9,9l-20.58,40.14v13.69c0,8.31,4.34,7.16,4.34,9.71,0,1.66-1.92,2-9,2h-5.62c-7,0-8.94-.39-8.94-2,0-2.55,4.34-1.4,4.34-9.71V576.3l-21.22-41.81a14.51,14.51,0,0,0-7-7.29,1.9,1.9,0,0,1-1.27-1.78c0-1.92,3.83-2,10.22-2,8.44,0,10.22,1.4,13.42,7.93l6.14,12.27c3.07,6.14,6.53,13,9.47,19.31h.25c2.69-5.63,6-12.15,9.72-19.31l3.71-7.16a10.34,10.34,0,0,0,1.4-4.6,5.49,5.49,0,0,0-2.17-4.22c-1-.89-1.41-1.4-1.41-2,0-1.93,1.79-2.18,11.14-2.18,9.08,0,11.11.26,11.11,2" style="fill:#006938"/><path d="M1321,543.87c0-11,10.35-19.43,26.19-19.43,7.67,0,15.72,2,20.46,6.27a7.55,7.55,0,0,1,2.68,6.26c0,3.71-2,7.29-5.11,7.29-1.93,0-3.58-1.54-5.5-3.33a21.12,21.12,0,0,0-14.05-6.14c-5.62,0-9.84,2.68-9.84,7.29,0,15.32,37.57,13.8,37.57,39.1a21.15,21.15,0,0,1-6.52,15.85c-5.11,5-13.42,7.42-21.73,7.42s-16.36-2.17-22.12-6.65a7.31,7.31,0,0,1-2.94-6.39c0-3.58,2-7.28,5.24-7.28,4.48,0,8.05,10,20.84,10,6.64,0,12.4-3.45,12.4-11.12,0-17.13-37.57-14.82-37.57-39.11" style="fill:#006938"/><path d="M1442,525.21c1.54,0,2,.38,2,1.92v6.26c0,1.41-.5,1.92-2,1.92h-9.59c-6.26,0-10-.12-12.26-.38v57c0,8.31,4.34,7.16,4.34,9.71,0,1.66-1.93,2-9,2h-5.62c-7,0-8.94-.38-8.94-2,0-2.55,4.34-1.4,4.34-9.71v-57c-2.29.26-6,.38-12.26.38h-9.59c-1.54,0-2-.5-2-1.92v-6.26c0-1.54.5-1.92,2-1.92Z" style="fill:#006938"/><path d="M1474.61,591.92c0,8.31,4.34,7.16,4.34,9.71,0,1.66-1.92,2-8.94,2h-5.62c-7,0-8.94-.39-8.94-2,0-2.55,4.34-1.4,4.34-9.71V537c0-8.31-4.34-7.15-4.34-9.71,0-1.66,1.92-2,8.94-2H1470c7,0,8.94.39,8.94,2,0,2.56-4.34,1.4-4.34,9.71Z" style="fill:#006938"/><path d="M1536.46,570.45l17,22.37a26.39,26.39,0,0,0,8.06,7.41c.77.51,1,.9,1,1.54,0,1.79-4,1.92-10.48,1.92-7.29,0-8.82-1-12.28-5.62l-18.52-24.53h-7.42v18.4c0,8.31,4.34,7.16,4.34,9.72,0,1.66-1.92,2-8.94,2h-5.62c-7,0-8.94-.38-8.94-2,0-2.56,4.34-1.41,4.34-9.72V537c0-8.3-4.34-7.15-4.34-9.71,0-1.66,1.92-2,8.94-2h10.22c11.88,0,20.07,1.15,25.31,3.45,7.41,3.32,13.29,9.2,13.29,19.93,0,12-5.88,18-16,21.85m-18.4-36h-4.22v30c17.64,0,23.26-5.75,23.26-15.47,0-11.5-7.8-14.57-19-14.57" style="fill:#006938"/><path d="M1622.23,593.59c1.54,0,2,.38,2,1.92v6.27c0,1.4-.5,1.91-2,1.91h-39.88c-7,0-8.94-.38-8.94-2,0-2.56,4.34-1.41,4.34-9.71V537c0-8.31-4.34-7.16-4.34-9.72,0-1.65,1.92-2,8.94-2H1588c7,0,8.94.39,8.94,2,0,2.56-4.34,1.41-4.34,9.72v57c2.3-.26,6-.38,12.27-.38Z" style="fill:#006938"/><path d="M1656.36,591.92c0,8.31,4.34,7.16,4.34,9.71,0,1.66-1.92,2-8.94,2h-5.62c-7,0-8.94-.39-8.94-2,0-2.55,4.34-1.4,4.34-9.71V537c0-8.31-4.34-7.15-4.34-9.71,0-1.66,1.92-2,8.94-2h5.62c7,0,8.94.39,8.94,2,0,2.56-4.34,1.4-4.34,9.71Z" style="fill:#006938"/><path d="M1733.56,577.61V537c0-8.31-4.34-7.15-4.34-9.71,0-1.66,1.92-2,8.94-2h2.17c7,0,9,.38,9,2,0,2.56-4.35,1.4-4.35,9.71v64.41c0,1.67-.76,2.3-4.47,2.3h-.77c-3.32,0-3.83-.38-5.23-2.17l-36.82-46.65c-1.78-2.29-4-5.11-5.23-6.9h-.26v44c0,8.31,4.34,7.16,4.34,9.71,0,1.67-1.92,2-8.94,2h-2.17c-7,0-9-.38-9-2,0-2.55,4.35-1.4,4.35-9.71V537c0-8.31-4.35-7.15-4.35-9.71,0-1.66,1.92-2,9-2h.77c6.14,0,6.89,1.15,10.6,5.75l31.32,39.75c1.78,2.3,4,5.11,5.23,6.9Z" style="fill:#006938"/><path d="M1800.54,535c-11,0-21.47,9.08-21.47,28.63,0,21.47,9.2,30.55,24.29,30.55a29.09,29.09,0,0,0,11.11-2.18V577.22c0-4.6-.9-6-3.07-7.66-1-.77-1.27-1.16-1.27-1.93,0-1.78,2.55-2.16,9.2-2.16h2c6.77,0,7.41.38,7.41,3.19v24.67a5.61,5.61,0,0,1-3.32,5.62c-6.51,3.59-15.08,5.5-23.78,5.5-25.17,0-38-15.09-38-39.75,0-23.9,13.54-40.26,37.06-40.26,9.84,0,18,2.55,22.36,6.39a8.19,8.19,0,0,1,2.94,6.76c0,4-2.17,7.42-5.49,7.42-5.75,0-7.8-10-20.07-10" style="fill:#006938"/><path d="M1282.66,525.4a9.85,9.85,0,0,0-2-.89,25.84,25.84,0,0,0-15-.78,18.68,18.68,0,0,0-7.74,4.32c-4.52,4.2-5.12,8-6.35,16-.26,1.66-.52,3.36-.52,3.36h-6.29a8.08,8.08,0,0,0-1.21.08,1.47,1.47,0,0,0-1.39,1.24c-.37,1.84-.74,3.68-1,5.53-.13.84.15,1.14,1,1.25a10.63,10.63,0,0,0,1.4.09l6.43,0h.19c-1.18,14.08-2.52,27.67-4,41.1-.37,3.35-1.95,16.41-7.72,17.79-2.39.57-5.47-.81-6.92,1.22a3.18,3.18,0,0,0-.22,2.52c.52,1.44,2.06,1.54,2.87,1.65,4.93.7,13.9-2.34,17.26-6.45a21.21,21.21,0,0,0,3.19-5.29,34.83,34.83,0,0,0,2.89-9.68c1.07-5.77,3.34-21.65,4.91-42.89.75,0,11.52,0,13.18-.05,1.41-.06,1.77-.42,2-1.81s.5-2.72.77-4.09c.36-1.9.09-2.23-1.84-2.23-4.11,0-7.29,0-11.41,0-.16,0-1.21.12-1.61-.5a4.93,4.93,0,0,1,0-2.57c1.59-9.21,2-11.74,5.65-12.83,4.7-1.41,10.18,1.74,11.43,2.07s1.68-.05,2.15-1.12a25.25,25.25,0,0,0,1.24-4,2.54,2.54,0,0,0-1.37-3.05" style="fill:#006938"/><path d="M1221.3,572.17a35.72,35.72,0,0,1-2.91,11.58,21.23,21.23,0,0,1-6.12,8.09c-3.56,2.85-9.28,3.28-13,.91a9.23,9.23,0,0,1-4.1-6.64c-.3-1.75-.41-3.54-.51-4.5.13-6.74,1.22-12.43,4.09-17.66,1.74-3.18,4-5.94,7.38-7.43,4-1.76,8-1.77,11.58,1a9.24,9.24,0,0,1,3.19,5.66,29,29,0,0,1,.38,8.93m12.38-10.08A19.21,19.21,0,0,0,1221,548.16a26.8,26.8,0,0,0-14.48-.84,29,29,0,0,0-18.76,12.26,35.82,35.82,0,0,0-5.26,28.2,19.29,19.29,0,0,0,10.8,13,25.28,25.28,0,0,0,10.62,2.15c1-.06,1.93-.07,2.88-.17,10.27-1.17,18-6.32,23.14-15.22a34.12,34.12,0,0,0,4.43-14.41,32,32,0,0,0-.73-11" style="fill:#006938"/><path d="M316.2,244.87a14.24,14.24,0,0,0,.83,5.52,9.2,9.2,0,0,0,1.74,2.8,14.58,14.58,0,0,0,1.74,1.51,2,2,0,0,1,.83,1.66q0,1.51-2.12,2a49.77,49.77,0,0,1-8.47.45h-6.66a49.76,49.76,0,0,1-8.47-.45q-2.12-.45-2.12-2a2,2,0,0,1,.83-1.66,14.81,14.81,0,0,0,1.74-1.51,9.24,9.24,0,0,0,1.74-2.8,14.29,14.29,0,0,0,.83-5.52V179.82a14.3,14.3,0,0,0-.83-5.52,9.28,9.28,0,0,0-1.74-2.8,10.6,10.6,0,0,0-1.74-1.44,1.9,1.9,0,0,1-.83-1.74q0-1.51,2.12-2a49.76,49.76,0,0,1,8.47-.45h6.66a49.77,49.77,0,0,1,8.47.45q2.12.45,2.12,2a1.9,1.9,0,0,1-.83,1.74,10.48,10.48,0,0,0-1.74,1.44,9.24,9.24,0,0,0-1.74,2.8,14.25,14.25,0,0,0-.83,5.52Z" style="fill:#383a35"/><path d="M403.79,227.93V179.82a14.28,14.28,0,0,0-.83-5.52,9.3,9.3,0,0,0-1.74-2.8,10.6,10.6,0,0,0-1.74-1.44,1.9,1.9,0,0,1-.83-1.74q0-1.51,2.12-2a49.74,49.74,0,0,1,8.47-.45h2.57a49.78,49.78,0,0,1,8.47.45q2.12.45,2.12,2a1.9,1.9,0,0,1-.83,1.74,10.48,10.48,0,0,0-1.74,1.44,9.22,9.22,0,0,0-1.74,2.8,14.25,14.25,0,0,0-.83,5.52v76.25a2.28,2.28,0,0,1-1,2.12q-1,.61-4.31.61h-.91a11.32,11.32,0,0,1-4-.45,6.4,6.4,0,0,1-2.19-2.12L361.28,201q-1.67-2.12-3.33-4.31t-2.87-3.86h-.3v52a14.24,14.24,0,0,0,.83,5.52,9.2,9.2,0,0,0,1.74,2.8,14.58,14.58,0,0,0,1.74,1.51,2,2,0,0,1,.83,1.66q0,1.51-2.12,2a49.77,49.77,0,0,1-8.47.45h-2.57a49.75,49.75,0,0,1-8.47-.45q-2.12-.45-2.12-2a2,2,0,0,1,.83-1.66,14.73,14.73,0,0,0,1.74-1.51,9.26,9.26,0,0,0,1.74-2.8,14.27,14.27,0,0,0,.83-5.52V179.82a14.28,14.28,0,0,0-.83-5.52,9.3,9.3,0,0,0-1.74-2.8,10.56,10.56,0,0,0-1.74-1.44,1.9,1.9,0,0,1-.83-1.74q0-1.51,2.12-2a49.75,49.75,0,0,1,8.47-.45h.91a25.55,25.55,0,0,1,4.39.3,9,9,0,0,1,3,1.06,9.45,9.45,0,0,1,2.42,2.12q1.13,1.36,2.8,3.33l37.06,47q1.66,2.12,3.33,4.31t2.87,3.86Z" style="fill:#383a35"/><path d="M479.43,234.28a11.81,11.81,0,0,0-3.33-8.47,34.33,34.33,0,0,0-8.25-6.2q-4.92-2.72-10.67-5.29a62.53,62.53,0,0,1-10.67-6.05,33.65,33.65,0,0,1-8.25-8.24Q435,195.25,435,188a19.44,19.44,0,0,1,2.19-9.08,21.69,21.69,0,0,1,6.28-7.34,31.05,31.05,0,0,1,9.76-4.84A43.59,43.59,0,0,1,466,165a50.1,50.1,0,0,1,13.39,1.82,26.56,26.56,0,0,1,10.82,5.6,9.25,9.25,0,0,1,3.18,7.41,11,11,0,0,1-1.66,6,5,5,0,0,1-4.39,2.65,5.54,5.54,0,0,1-3.25-1.13,26,26,0,0,1-3.25-2.8,25.81,25.81,0,0,0-8.32-5.52,22.63,22.63,0,0,0-8.32-1.74,14.43,14.43,0,0,0-8.32,2.27,7.26,7.26,0,0,0-3.33,6.35,10,10,0,0,0,3.33,7.64,39.34,39.34,0,0,0,8.24,5.75q4.91,2.65,10.67,5.29a60.53,60.53,0,0,1,10.67,6.28,33.38,33.38,0,0,1,8.25,8.77A22.64,22.64,0,0,1,497,232.16q0,11.5-7.71,18.76a28.61,28.61,0,0,1-11.42,6.58,46.86,46.86,0,0,1-14.3,2.19,51.29,51.29,0,0,1-14.14-2,35.64,35.64,0,0,1-12-5.9,8.28,8.28,0,0,1-2.8-3.48,11.56,11.56,0,0,1-.68-4.08,11.09,11.09,0,0,1,1.66-5.9,5.1,5.1,0,0,1,4.54-2.72,5.86,5.86,0,0,1,3.93,1.82q2,1.81,4.69,4.08a31.16,31.16,0,0,0,6.5,4.08,22,22,0,0,0,9.53,1.82A17.08,17.08,0,0,0,475,244.26Q479.43,241.09,479.43,234.28Z" style="fill:#383a35"/><path d="M574.44,165.9a3,3,0,0,1,1.89.45,2.36,2.36,0,0,1,.53,1.82v7.41q0,2.27-2.42,2.27H563.09q-5.6,0-9-.08a47.68,47.68,0,0,1-5.52-.38v67.47a14.25,14.25,0,0,0,.83,5.52,9.2,9.2,0,0,0,1.74,2.8,14.65,14.65,0,0,0,1.74,1.51,2,2,0,0,1,.83,1.66q0,1.51-2.12,2a49.78,49.78,0,0,1-8.47.45h-6.66a49.74,49.74,0,0,1-8.47-.45q-2.12-.45-2.12-2a2,2,0,0,1,.83-1.66,14.81,14.81,0,0,0,1.74-1.51,9.26,9.26,0,0,0,1.74-2.8,14.27,14.27,0,0,0,.83-5.52V177.4a47.71,47.71,0,0,1-5.52.38q-3.4.08-9,.08H505.15q-2.42,0-2.42-2.27v-7.41a2.36,2.36,0,0,1,.53-1.82,3,3,0,0,1,1.89-.45Z" style="fill:#383a35"/><path d="M609.23,244.87a14.24,14.24,0,0,0,.83,5.52,9.2,9.2,0,0,0,1.74,2.8,14.58,14.58,0,0,0,1.74,1.51,2,2,0,0,1,.83,1.66q0,1.51-2.12,2a49.77,49.77,0,0,1-8.47.45h-6.66a49.76,49.76,0,0,1-8.47-.45q-2.12-.45-2.12-2a2,2,0,0,1,.83-1.66,14.81,14.81,0,0,0,1.74-1.51,9.24,9.24,0,0,0,1.74-2.8,14.29,14.29,0,0,0,.83-5.52V179.82a14.3,14.3,0,0,0-.83-5.52,9.28,9.28,0,0,0-1.74-2.8,10.6,10.6,0,0,0-1.74-1.44,1.9,1.9,0,0,1-.83-1.74q0-1.51,2.12-2a49.76,49.76,0,0,1,8.47-.45h6.66a49.77,49.77,0,0,1,8.47.45q2.12.45,2.12,2a1.9,1.9,0,0,1-.83,1.74,10.48,10.48,0,0,0-1.74,1.44,9.24,9.24,0,0,0-1.74,2.8,14.25,14.25,0,0,0-.83,5.52Z" style="fill:#383a35"/><path d="M695.76,165.9a3,3,0,0,1,1.89.45,2.36,2.36,0,0,1,.53,1.82v7.41q0,2.27-2.42,2.27H684.42q-5.6,0-9-.08a47.68,47.68,0,0,1-5.52-.38v67.47a14.25,14.25,0,0,0,.83,5.52,9.2,9.2,0,0,0,1.74,2.8,14.65,14.65,0,0,0,1.74,1.51,2,2,0,0,1,.83,1.66q0,1.51-2.12,2a49.78,49.78,0,0,1-8.47.45h-6.66a49.74,49.74,0,0,1-8.47-.45q-2.12-.45-2.12-2a2,2,0,0,1,.83-1.66,14.81,14.81,0,0,0,1.74-1.51,9.26,9.26,0,0,0,1.74-2.8,14.27,14.27,0,0,0,.83-5.52V177.4a47.71,47.71,0,0,1-5.52.38q-3.4.08-9,.08H626.48q-2.42,0-2.42-2.27v-7.41a2.36,2.36,0,0,1,.53-1.82,3,3,0,0,1,1.89-.45Z" style="fill:#383a35"/><path d="M721.18,165.9q3,0,4.77.15a9.42,9.42,0,0,1,2.65.53,1.81,1.81,0,0,1,1.13,1.13,7,7,0,0,1,.23,2v58.4a42.12,42.12,0,0,0,.83,9.3,9.76,9.76,0,0,0,3.56,5.67,17.71,17.71,0,0,0,6,2.8,32.31,32.31,0,0,0,8.55,1q9.38,0,13.62-3.78a11.33,11.33,0,0,0,3.71-5.9,35.38,35.38,0,0,0,1-9.08v-58.4a7,7,0,0,1,.23-2,1.8,1.8,0,0,1,1.06-1.13,8.17,8.17,0,0,1,2.5-.53q1.66-.15,4.69-.15t4.69.15a8.21,8.21,0,0,1,2.5.53,1.81,1.81,0,0,1,1.06,1.13,7,7,0,0,1,.23,2v59.76a41.14,41.14,0,0,1-1.66,12.18,22.53,22.53,0,0,1-6.05,9.61q-9.08,8.47-27.53,8.47-19.37,0-28.29-8.32a23,23,0,0,1-6.43-9.83,39.63,39.63,0,0,1-1.74-12.1V179.82a14.3,14.3,0,0,0-.83-5.52,9.28,9.28,0,0,0-1.74-2.8,10.56,10.56,0,0,0-1.74-1.44,1.9,1.9,0,0,1-.83-1.74q0-1.51,2.12-2a49.74,49.74,0,0,1,8.47-.45Z" style="fill:#383a35"/><path d="M867.32,165.9a3,3,0,0,1,1.89.45,2.37,2.37,0,0,1,.53,1.82v7.41q0,2.27-2.42,2.27H856q-5.6,0-9-.08a47.66,47.66,0,0,1-5.52-.38v67.47a14.24,14.24,0,0,0,.83,5.52,9.2,9.2,0,0,0,1.74,2.8,14.58,14.58,0,0,0,1.74,1.51,2,2,0,0,1,.83,1.66q0,1.51-2.12,2a49.77,49.77,0,0,1-8.47.45h-6.66a49.76,49.76,0,0,1-8.47-.45q-2.12-.45-2.12-2a2,2,0,0,1,.83-1.66,14.81,14.81,0,0,0,1.74-1.51,9.24,9.24,0,0,0,1.74-2.8,14.29,14.29,0,0,0,.83-5.52V177.4a47.73,47.73,0,0,1-5.52.38q-3.4.08-9,.08H798q-2.42,0-2.42-2.27v-7.41a2.36,2.36,0,0,1,.53-1.82,3,3,0,0,1,1.89-.45Z" style="fill:#383a35"/><path d="M901.81,247.29a48.8,48.8,0,0,1,5.52-.38q3.4-.07,9-.08h24.05a3,3,0,0,1,1.89.45,2.36,2.36,0,0,1,.53,1.82v7.41q0,2.27-2.42,2.27H889.71a49.75,49.75,0,0,1-8.47-.45q-2.12-.45-2.12-2a2,2,0,0,1,.83-1.66,14.73,14.73,0,0,0,1.74-1.51,9.26,9.26,0,0,0,1.74-2.8,14.27,14.27,0,0,0,.83-5.52V179.82a14.28,14.28,0,0,0-.83-5.52,9.3,9.3,0,0,0-1.74-2.8,10.56,10.56,0,0,0-1.74-1.44,1.9,1.9,0,0,1-.83-1.74q0-1.51,2.12-2a49.75,49.75,0,0,1,8.47-.45h49.17a3,3,0,0,1,1.89.45,2.36,2.36,0,0,1,.53,1.82v7.41q0,2.27-2.42,2.27H916.33q-5.6,0-9-.08a47.68,47.68,0,0,1-5.52-.38v27.53h30.41a3,3,0,0,1,1.89.45,2.37,2.37,0,0,1,.53,1.82v7.11q0,2.27-2.42,2.27H901.81Z" style="fill:#383a35"/><path d="M1117.73,168.1a11.69,11.69,0,0,0-2.4-1.06c-5.83-1.87-11.27-2.53-17.76-.92a22.18,22.18,0,0,0-9.2,5.13c-5.36,5-6.08,9.54-7.54,19-.3,2-.62,4-.62,4h-7.47a9.6,9.6,0,0,0-1.44.1,1.74,1.74,0,0,0-1.65,1.47c-.44,2.19-.88,4.37-1.24,6.57-.16,1,.18,1.35,1.19,1.48a12.62,12.62,0,0,0,1.67.11l7.64,0h.23c-1.4,16.72-3,32.86-4.77,48.81-.44,4-2.31,19.49-9.17,21.13-2.83.68-6.5-1-8.22,1.45a3.78,3.78,0,0,0-.26,3c.62,1.72,2.45,1.82,3.41,2,5.85.83,16.51-2.77,20.5-7.66a25.19,25.19,0,0,0,3.78-6.28,41.36,41.36,0,0,0,3.43-11.5c1.26-6.85,4-25.71,5.83-50.94.89,0,13.69,0,15.66-.06,1.68-.07,2.1-.5,2.43-2.15s.6-3.24.91-4.85c.43-2.25.11-2.65-2.19-2.65-4.88,0-8.66,0-13.55,0-.19,0-1.44.15-1.91-.6-.36-.56-.15-2,0-3.05,1.89-10.94,2.42-13.94,6.72-15.23,5.58-1.68,12.09,2.07,13.58,2.46s2-.06,2.55-1.33a30,30,0,0,0,1.47-4.81,3,3,0,0,0-1.63-3.63" style="fill:#383a35"/><path d="M1044.85,223.65a42.42,42.42,0,0,1-3.46,13.75,25.22,25.22,0,0,1-7.26,9.61c-4.23,3.38-11,3.89-15.4,1.08a11,11,0,0,1-4.87-7.88c-.35-2.08-.49-4.21-.61-5.34.16-8,1.45-14.76,4.85-21,2.07-3.77,4.74-7.06,8.76-8.82,4.74-2.09,9.45-2.1,13.75,1.24a11,11,0,0,1,3.78,6.73,34.5,34.5,0,0,1,.45,10.61m14.71-12c-2.14-8.11-7.13-13.7-15-16.55a31.83,31.83,0,0,0-17.2-1,34.42,34.42,0,0,0-22.28,14.56,42.54,42.54,0,0,0-6.24,33.49,22.91,22.91,0,0,0,12.82,15.45,30,30,0,0,0,12.62,2.55c1.14-.07,2.29-.09,3.42-.21,12.2-1.39,21.33-7.51,27.48-18.08a40.53,40.53,0,0,0,5.26-17.12,38.05,38.05,0,0,0-.86-13.11" style="fill:#383a35"/></g></svg>