<svg id="Layer_1" data-name="Layer 1" xmlns="http://www.w3.org/2000/svg" viewBox="0 0 596.12 135.99"><defs><style>.cls-1{fill:#fff;}</style></defs><title>University of Stirling Management School</title><path class="cls-1" d="M595.31,50.61a94.73,94.73,0,0,0-35.72-11.54l-1.82-14.79,1.87-3.64V10.56l-1-.11c-1.88-.19-3.78-.34-5.63-.42L551.73,10h0l-.61,0c-1,0-1.85,0-2.71,0s-1.77,0-2.73,0l-.61,0h0l-1.23.06c-1.85.09-3.74.23-5.62.42l-1.05.11V20.63L539,24.27l-1.81,14.8a94.68,94.68,0,0,0-35.71,11.54V4.94h93.8Zm-55.06-29.1c2.73-.19,5.46-.29,8.16-.29s5.42.1,8.15.29l-1.2,2.34,1.77,14.39c-2.91-.26-5.84-.39-8.72-.39s-5.82.13-8.73.39l1.76-14.4ZM544,14.65c.56-.05,1.14-.09,1.77-.12l1.11-.06V12.28c1,0,2,0,3,0v2.19l1.12.06c.65,0,1.23.07,1.78.12l1.27.1V12.44c1.06.06,2.14.14,3.22.24v6.54c-3-.23-6-.35-8.89-.35s-5.93.12-8.9.35V12.68c1.08-.1,2.15-.18,3.22-.24v2.31Zm51.31,40.63a5.31,5.31,0,0,0-8.27,4.4V67h-4V57.73a5.31,5.31,0,1,0-10.61,0V67h-4V55.78a5.31,5.31,0,1,0-10.61,0V67h-4V53.82a5.31,5.31,0,0,0-10.61,0V67h-4V55.78a5.3,5.3,0,1,0-10.6,0V67h-4V57.73a5.31,5.31,0,1,0-10.61,0V67h-4V59.68a5.31,5.31,0,0,0-5.3-5.3,5.25,5.25,0,0,0-3,.9V52.86a94.37,94.37,0,0,1,93.8,0Zm0,9.65v1.13a20,20,0,0,1-.47,3.26,34,34,0,0,1-3.41,8.79,7.12,7.12,0,0,1-4.26-2,8.61,8.61,0,0,0-11.91,0,7.1,7.1,0,0,1-10,0,8.63,8.63,0,0,0-11.92,0,7.09,7.09,0,0,1-10,0,8.63,8.63,0,0,0-11.92,0,7.09,7.09,0,0,1-10,0,8.63,8.63,0,0,0-11.92,0,7.09,7.09,0,0,1-4.26,2,34.3,34.3,0,0,1-3.41-8.8,19.66,19.66,0,0,1-.46-3.25V59.68a3,3,0,1,1,5.92,0v9.61h8.72V57.73a3,3,0,0,1,5.92,0V69.29h8.73V55.78a3,3,0,0,1,5.92,0V69.29h8.73V53.82a3,3,0,0,1,5.92,0V69.29h8.72V55.78a3,3,0,0,1,5.92,0V69.29h8.73V57.73a3,3,0,1,1,5.92,0V69.29h8.72V59.68a3,3,0,0,1,5.93,0Zm-5.19,15.44a54.58,54.58,0,0,1-3.81,5.36A7.93,7.93,0,0,0,581.22,84a8.53,8.53,0,0,0-6,2.39,7.1,7.1,0,0,1-10,0,8.81,8.81,0,0,0-4.75-2.31V81.34l-.74.47-.46.29c-1.66,1.06-3.37.88-5.18.68s-3.79-.4-5.76.67c-2-1.07-3.91-.87-5.77-.67s-3.52.38-5.18-.68l-.46-.29-.74-.47V84.1a8.89,8.89,0,0,0-4.75,2.31,7.09,7.09,0,0,1-10,0,8.53,8.53,0,0,0-6-2.39,7.91,7.91,0,0,0-5.09,1.71,53.55,53.55,0,0,1-3.82-5.36l-.47-.79a9.07,9.07,0,0,0,4.41-2.26,7.09,7.09,0,0,1,10,0,8.63,8.63,0,0,0,11.92,0,7.09,7.09,0,0,1,10,0,8.63,8.63,0,0,0,11.92,0,7.09,7.09,0,0,1,10,0,8.63,8.63,0,0,0,11.92,0,7.09,7.09,0,0,1,10,0,9,9,0,0,0,4.41,2.26c-.16.26-.31.53-.48.79M576.06,96.09c-.28.21-.54.42-.8.63a7.1,7.1,0,0,1-10,0,8.81,8.81,0,0,0-4.75-2.31V85.67a7.39,7.39,0,0,1,3.77,2,8.65,8.65,0,0,0,11.92,0,6.94,6.94,0,0,1,5-2,6.25,6.25,0,0,1,4.09,1.35,77.86,77.86,0,0,1-9.25,9.15m-26.87,4.14V84.81c1.55-.82,3.14-.65,4.82-.47a20.06,20.06,0,0,0,2.46.15A7,7,0,0,0,559,84h0V99.45c-1.55.82-3.14.65-4.82.47a17,17,0,0,0-2.68-.15,6.82,6.82,0,0,0-2.3.46m-11.37-.78V84h0a7.07,7.07,0,0,0,2.51.46,20.1,20.1,0,0,0,2.47-.15,8,8,0,0,1,4.82.47v15.42a7.13,7.13,0,0,0-2.31-.46h-.42a21.08,21.08,0,0,0-2.26.16c-1.68.18-3.27.35-4.82-.47m10.59,14.19a148.71,148.71,0,0,1-22.28-13.33h.41a8.53,8.53,0,0,0,6-2.39,7.42,7.42,0,0,1,3.76-2v4.35l.36.23c2.13,1.35,4.19,1.12,6.19.91,1.81-.19,3.51-.38,5.18.68l.42.27.42-.27c1.66-1.06,3.37-.87,5.18-.68,2,.21,4.06.43,6.18-.91l.36-.23V96a7.45,7.45,0,0,1,3.77,2,8.53,8.53,0,0,0,6,2.39h.41a149.74,149.74,0,0,1-22.28,13.33M520.73,96.06a78.23,78.23,0,0,1-9.23-9.12,6.26,6.26,0,0,1,4.1-1.35,6.94,6.94,0,0,1,5,2,8.65,8.65,0,0,0,11.92,0,7.36,7.36,0,0,1,3.76-2v8.74a8.89,8.89,0,0,0-4.75,2.31,7.09,7.09,0,0,1-10,0c-.27-.22-.54-.44-.83-.66m76.92-31.13h0V2.6H499.16V64.93s0,.44,0,1.21a23.83,23.83,0,0,0,.58,3.93,35.18,35.18,0,0,0,2.87,7.79c.29.58.6,1.17.94,1.78a54.7,54.7,0,0,0,5.11,7.54q.48.6,1,1.2a75.85,75.85,0,0,0,5.64,6c.59.56,1.21,1.13,1.84,1.7,7.19,6.45,17.23,13.36,31.28,20.21,14-6.84,24.08-13.76,31.27-20.21.64-.57,1.25-1.14,1.84-1.7a74,74,0,0,0,5.64-6c.34-.4.67-.81,1-1.2a54.84,54.84,0,0,0,5.12-7.54c.33-.6.65-1.2.93-1.78a35,35,0,0,0,2.87-7.79,21.87,21.87,0,0,0,.58-3.92,9.71,9.71,0,0,0,0-1.22" transform="translate(-1.55 -1.76)"/><path class="cls-1" d="M567.36,14a10.23,10.23,0,0,0,5,.31c1.68-.18,3.27-.35,4.82.47V30.15a7.34,7.34,0,0,0-2.73-.47,20.9,20.9,0,0,0-2.25.16c-1.68.18-3.27.35-4.82-.47Zm11.36.78c1.55-.82,3.14-.65,4.82-.47a10.23,10.23,0,0,0,5-.31V29.37c-1.54.82-3.14.65-4.81.47a10.39,10.39,0,0,0-5,.3Zm-6.38,16.66c1.81-.19,3.52-.38,5.18.68l.42.27.42-.27c1.66-1.06,3.37-.87,5.18-.68,2,.21,4.06.44,6.18-.91l.37-.23v-19l-1.2.76c-1.67,1.06-3.38.88-5.18.68s-3.79-.4-5.77.67c-2-1.07-3.9-.87-5.76-.67s-3.52.38-5.19-.68l-1.2-.76v19l.37.23c2.12,1.35,4.18,1.12,6.18.91" transform="translate(-1.55 -1.76)"/><path class="cls-1" d="M568.76,17.73a5,5,0,0,0,3.51.52,4.1,4.1,0,0,1,2.87.38.48.48,0,0,0,.26.07.49.49,0,0,0,.26-.9,5.1,5.1,0,0,0-3.5-.52,4.15,4.15,0,0,1-2.87-.37.49.49,0,1,0-.53.82" transform="translate(-1.55 -1.76)"/><path class="cls-1" d="M568.76,22a5,5,0,0,0,3.51.52,4.15,4.15,0,0,1,2.87.38.48.48,0,0,0,.26.07.49.49,0,0,0,.26-.9,5.1,5.1,0,0,0-3.5-.52,4.15,4.15,0,0,1-2.87-.37.49.49,0,1,0-.53.82" transform="translate(-1.55 -1.76)"/><path class="cls-1" d="M572.27,26.81a4.15,4.15,0,0,1,2.87.38.48.48,0,0,0,.26.07.49.49,0,0,0,.26-.9,5.1,5.1,0,0,0-3.5-.52,4.15,4.15,0,0,1-2.87-.37.49.49,0,1,0-.53.82,5,5,0,0,0,3.51.52" transform="translate(-1.55 -1.76)"/><path class="cls-1" d="M583.61,26.81a5,5,0,0,0,3.51-.52.49.49,0,1,0-.53-.82,4.15,4.15,0,0,1-2.87.37,5.1,5.1,0,0,0-3.5.52.49.49,0,0,0,.52.83,4.15,4.15,0,0,1,2.87-.38" transform="translate(-1.55 -1.76)"/><path class="cls-1" d="M580.48,23a.48.48,0,0,0,.26-.07,4.1,4.1,0,0,1,2.87-.38,5,5,0,0,0,3.51-.52.49.49,0,1,0-.53-.82,4.15,4.15,0,0,1-2.87.37,5.1,5.1,0,0,0-3.5.52.49.49,0,0,0,.26.9" transform="translate(-1.55 -1.76)"/><path class="cls-1" d="M580.48,18.7a.48.48,0,0,0,.26-.07,4.1,4.1,0,0,1,2.87-.38,5,5,0,0,0,3.51-.52.5.5,0,0,0,.15-.67.49.49,0,0,0-.68-.15,4.15,4.15,0,0,1-2.87.37,5.1,5.1,0,0,0-3.5.52.49.49,0,0,0,.26.9" transform="translate(-1.55 -1.76)"/><path class="cls-1" d="M508.66,14a10.24,10.24,0,0,0,5,.31c1.68-.18,3.27-.35,4.82.47V30.15a7.33,7.33,0,0,0-2.72-.47,20.9,20.9,0,0,0-2.26.16c-1.68.18-3.27.35-4.82-.47Zm11.36.78c1.55-.82,3.14-.65,4.82-.47a10.28,10.28,0,0,0,5-.31V29.37c-1.55.82-3.14.65-4.82.47a10.39,10.39,0,0,0-5,.3Zm-6.38,16.66c1.81-.19,3.52-.38,5.18.68l.42.27.42-.27c1.67-1.06,3.37-.87,5.18-.68,2,.21,4.06.44,6.19-.91l.36-.23v-19l-1.2.76c-1.66,1.06-3.37.88-5.18.68s-3.79-.4-5.77.67c-2-1.07-3.9-.87-5.76-.67s-3.52.38-5.18-.68l-1.2-.76v19l.36.23c2.12,1.35,4.19,1.13,6.18.91" transform="translate(-1.55 -1.76)"/><path class="cls-1" d="M510.07,17.73a5,5,0,0,0,3.5.52,4.1,4.1,0,0,1,2.87.38.48.48,0,0,0,.26.07.49.49,0,0,0,.27-.9,5.13,5.13,0,0,0-3.51-.52,4.15,4.15,0,0,1-2.87-.37.49.49,0,0,0-.52.82" transform="translate(-1.55 -1.76)"/><path class="cls-1" d="M510.07,22a5,5,0,0,0,3.5.52,4.15,4.15,0,0,1,2.87.38.48.48,0,0,0,.26.07.49.49,0,0,0,.27-.9,5.13,5.13,0,0,0-3.51-.52,4.15,4.15,0,0,1-2.87-.37.49.49,0,0,0-.52.82" transform="translate(-1.55 -1.76)"/><path class="cls-1" d="M513.57,26.81a4.15,4.15,0,0,1,2.87.38.49.49,0,1,0,.53-.83,5.13,5.13,0,0,0-3.51-.52,4.15,4.15,0,0,1-2.87-.37.49.49,0,0,0-.52.82,5,5,0,0,0,3.5.52" transform="translate(-1.55 -1.76)"/><path class="cls-1" d="M524.92,26.81a5,5,0,0,0,3.5-.52.49.49,0,0,0-.52-.82,4.17,4.17,0,0,1-2.88.37,5.11,5.11,0,0,0-3.5.52.5.5,0,0,0-.15.68.49.49,0,0,0,.41.22.48.48,0,0,0,.26-.07,4.17,4.17,0,0,1,2.88-.38" transform="translate(-1.55 -1.76)"/><path class="cls-1" d="M521.78,23a.48.48,0,0,0,.26-.07,4.12,4.12,0,0,1,2.88-.38,5,5,0,0,0,3.5-.52.48.48,0,0,0,.15-.67.49.49,0,0,0-.68-.15,4.13,4.13,0,0,1-2.87.37,5.11,5.11,0,0,0-3.5.52.5.5,0,0,0-.15.68.49.49,0,0,0,.41.22" transform="translate(-1.55 -1.76)"/><path class="cls-1" d="M521.78,18.7a.48.48,0,0,0,.26-.07,4.12,4.12,0,0,1,2.88-.38,5,5,0,0,0,3.5-.52.49.49,0,1,0-.53-.82,4.13,4.13,0,0,1-2.87.37,5.11,5.11,0,0,0-3.5.52.5.5,0,0,0-.15.68.49.49,0,0,0,.41.22" transform="translate(-1.55 -1.76)"/><path class="cls-1" d="M550.74,31.84l-.88-7.14-1.47,0-1.44,0-.88,7.12,2.07,0c.87,0,1.73,0,2.6,0" transform="translate(-1.55 -1.76)"/><path class="cls-1" d="M539.23,87.81a5,5,0,0,0,3.5.52l.55,0a3.5,3.5,0,0,1,2.33.43.48.48,0,0,0,.26.07.48.48,0,0,0,.41-.23.49.49,0,0,0-.15-.67,3.72,3.72,0,0,0-1.5-.55,7.4,7.4,0,0,0-2,0l-.45,0a3.71,3.71,0,0,1-2.43-.42.48.48,0,0,0-.67.15.49.49,0,0,0,.15.67" transform="translate(-1.55 -1.76)"/><path class="cls-1" d="M539.23,92.09a5,5,0,0,0,3.5.52,4.17,4.17,0,0,1,2.88.38.48.48,0,0,0,.26.07.49.49,0,0,0,.26-.9,5.11,5.11,0,0,0-3.5-.52,4.17,4.17,0,0,1-2.88-.37.48.48,0,0,0-.67.15.48.48,0,0,0,.15.67" transform="translate(-1.55 -1.76)"/><path class="cls-1" d="M543.56,96.82a3.24,3.24,0,0,1,2.05.45.48.48,0,0,0,.26.07.49.49,0,0,0,.41-.22.5.5,0,0,0-.15-.68,3.23,3.23,0,0,0-.52-.27,5.53,5.53,0,0,0-3-.25l-.2,0a3.92,3.92,0,0,1-2.68-.39.48.48,0,0,0-.67.15A.47.47,0,0,0,539,96a.47.47,0,0,0,.22.33,3.88,3.88,0,0,0,2,.6,8.63,8.63,0,0,0,1.54-.08c.28,0,.56-.06.83-.07" transform="translate(-1.55 -1.76)"/><path class="cls-1" d="M553.26,96.82c.27,0,.54,0,.82.07a8.75,8.75,0,0,0,1.55.08,3.81,3.81,0,0,0,2-.6.47.47,0,0,0,.22-.33.49.49,0,0,0-.74-.49,3.91,3.91,0,0,1-2.68.39l-.2,0a5.53,5.53,0,0,0-3,.25,3.71,3.71,0,0,0-.52.27.49.49,0,0,0,.27.9.54.54,0,0,0,.26-.07,3.21,3.21,0,0,1,2-.45" transform="translate(-1.55 -1.76)"/><path class="cls-1" d="M551,93.06a.51.51,0,0,0,.26-.07,4.09,4.09,0,0,1,2.87-.38,5,5,0,0,0,3.5-.52.49.49,0,0,0-.52-.82,4.15,4.15,0,0,1-2.87.37,5.13,5.13,0,0,0-3.51.52.49.49,0,0,0,.27.9" transform="translate(-1.55 -1.76)"/><path class="cls-1" d="M551,88.78a.51.51,0,0,0,.26-.07,3.49,3.49,0,0,1,2.33-.43l.54,0a5,5,0,0,0,3.5-.52.49.49,0,0,0-.52-.82,3.68,3.68,0,0,1-2.42.42l-.45,0a7.4,7.4,0,0,0-2,0,3.76,3.76,0,0,0-1.51.55.5.5,0,0,0-.2.29.49.49,0,0,0,0,.39.51.51,0,0,0,.42.22" transform="translate(-1.55 -1.76)"/><path class="cls-1" d="M94,44.89a10.47,10.47,0,0,0-7.26-3c-6.21,0-9.55,4.32-9.55,13.05,0,7.19,2.53,12.49,8.65,12.49A12.19,12.19,0,0,0,94,64.15Zm-9.63-10a15.14,15.14,0,0,1,9.88,3.67l.24-1.14c.41-1.88.65-2,4.24-2,3.84,0,4.25.24,4.25,1.79v30.2c0,2.2.65,2.77,3.1,3,.73.08,1,.41,1,.9,0,1.47-2.86,2.77-5.88,2.77-3.42,0-5.79-1.3-6.61-4.08a15.81,15.81,0,0,1-11.1,4.41c-10.77,0-15.59-8.32-15.59-19.1,0-13,7.27-20.4,16.49-20.4" transform="translate(-1.55 -1.76)"/><path class="cls-1" d="M115.11,41.87c0-2.62-.57-3.11-2.61-4.17-.57-.32-.73-.49-.73-.89,0-.82,1.47-1.64,5.22-1.64,4.33,0,6.2,1.47,6.86,4.74a21,21,0,0,1,13.3-5.06A11.85,11.85,0,0,1,146,38.19c2,2,3.11,5.06,3.11,9.15V65.7c0,4.08.32,4.9,1.87,5.87.66.41.9.58.9,1.07,0,.81-.65,1.22-7.1,1.22-4.24,0-4.65-.49-4.65-2.2V49.46c0-2.29-.33-4.25-1.63-5.55a6.48,6.48,0,0,0-4.9-1.8,17.17,17.17,0,0,0-9.47,3.18V65.7c0,4.08.33,4.9,1.88,5.87.65.41.9.58.9,1.07,0,.81-.66,1.22-7.27,1.22s-7.26-.41-7.26-1.22c0-.49.24-.66.9-1.07,1.55-1,1.87-1.79,1.87-5.87Z" transform="translate(-1.55 -1.76)"/><path class="cls-1" d="M296.66,7c0-2.92,2.75-5.17,7-5.17a8.53,8.53,0,0,1,5.44,1.67,2,2,0,0,1,.71,1.66c0,1-.54,1.94-1.36,1.94-.51,0-.95-.4-1.46-.88a5.62,5.62,0,0,0-3.74-1.63c-1.49,0-2.62.71-2.62,1.94,0,4.08,10,3.67,10,10.4a5.66,5.66,0,0,1-1.73,4.22,8.38,8.38,0,0,1-5.78,2,9.74,9.74,0,0,1-5.89-1.77,1.94,1.94,0,0,1-.78-1.7c0-.95.55-1.94,1.39-1.94,1.2,0,2.15,2.66,5.55,2.66,1.77,0,3.3-.92,3.3-3,0-4.56-10-3.95-10-10.41" transform="translate(-1.55 -1.76)"/><path class="cls-1" d="M328.86,2c.41,0,.55.1.55.51V4.21c0,.38-.14.51-.55.51h-2.55c-1.66,0-2.65,0-3.26-.1V19.79c0,2.21,1.16,1.9,1.16,2.58,0,.44-.51.55-2.38.55h-1.5c-1.87,0-2.38-.11-2.38-.55,0-.68,1.15-.37,1.15-2.58V4.62a32.58,32.58,0,0,1-3.26.1h-2.55c-.41,0-.54-.13-.54-.51V2.55c0-.41.13-.51.54-.51Z" transform="translate(-1.55 -1.76)"/><path class="cls-1" d="M337.54,19.79c0,2.21,1.15,1.9,1.15,2.58,0,.44-.51.55-2.38.55h-1.49c-1.87,0-2.38-.11-2.38-.55,0-.68,1.15-.37,1.15-2.58V5.17c0-2.21-1.15-1.91-1.15-2.59,0-.44.51-.54,2.38-.54h1.49c1.87,0,2.38.1,2.38.54,0,.68-1.15.38-1.15,2.59Z" transform="translate(-1.55 -1.76)"/><path class="cls-1" d="M354,14.07l4.52,6a7.09,7.09,0,0,0,2.14,2c.21.13.28.24.28.41,0,.47-1.06.51-2.79.51-1.94,0-2.35-.28-3.27-1.5L350,14.89h-2v4.9c0,2.21,1.16,1.9,1.16,2.58,0,.44-.51.55-2.38.55h-1.5c-1.87,0-2.38-.11-2.38-.55,0-.68,1.15-.37,1.15-2.58V5.16c0-2.2-1.15-1.9-1.15-2.58,0-.44.51-.54,2.38-.54H348c3.16,0,5.34.3,6.73.92a5.44,5.44,0,0,1,3.54,5.3c0,3.2-1.57,4.79-4.25,5.81m-4.9-9.59H348v8c4.69,0,6.19-1.53,6.19-4.12,0-3.06-2.08-3.88-5.07-3.88" transform="translate(-1.55 -1.76)"/><path class="cls-1" d="M376.82,20.23c.41,0,.54.1.54.51v1.67c0,.37-.13.51-.54.51H366.21c-1.87,0-2.38-.11-2.38-.55,0-.68,1.16-.37,1.16-2.58V5.17c0-2.21-1.16-1.91-1.16-2.59,0-.44.51-.54,2.38-.54h1.5c1.87,0,2.38.1,2.38.54,0,.68-1.16.38-1.16,2.59V20.33c.61-.07,1.6-.1,3.26-.1Z" transform="translate(-1.55 -1.76)"/><path class="cls-1" d="M385.9,19.79c0,2.21,1.16,1.9,1.16,2.58,0,.44-.51.55-2.38.55h-1.5c-1.87,0-2.38-.11-2.38-.55,0-.68,1.16-.37,1.16-2.58V5.17c0-2.21-1.16-1.91-1.16-2.59,0-.44.51-.54,2.38-.54h1.5c1.87,0,2.38.1,2.38.54,0,.68-1.16.38-1.16,2.59Z" transform="translate(-1.55 -1.76)"/><path class="cls-1" d="M406.44,16V5.16c0-2.2-1.15-1.9-1.15-2.58,0-.44.51-.54,2.38-.54h.57c1.87,0,2.38.1,2.38.54,0,.68-1.15.38-1.15,2.58V22.3c0,.45-.21.62-1.19.62h-.21c-.88,0-1-.11-1.39-.58L396.89,9.93c-.48-.62-1.06-1.36-1.4-1.84h-.07v11.7c0,2.21,1.16,1.9,1.16,2.58,0,.44-.51.55-2.38.55h-.58c-1.87,0-2.38-.11-2.38-.55,0-.68,1.16-.37,1.16-2.58V5.16c0-2.2-1.16-1.9-1.16-2.58,0-.44.51-.54,2.38-.54h.21c1.63,0,1.83.3,2.82,1.53L405,14.14c.48.62,1,1.36,1.39,1.84Z" transform="translate(-1.55 -1.76)"/><path class="cls-1" d="M424.26,4.65c-2.92,0-5.71,2.42-5.71,7.62,0,5.72,2.45,8.13,6.46,8.13a7.66,7.66,0,0,0,3-.58V15.88c0-1.23-.24-1.6-.82-2-.27-.21-.34-.31-.34-.51,0-.48.68-.58,2.45-.58h.55c1.8,0,2,.1,2,.85v6.56a1.52,1.52,0,0,1-.88,1.5,13.53,13.53,0,0,1-6.33,1.46c-6.7,0-10.1-4-10.1-10.58,0-6.35,3.6-10.71,9.86-10.71a9.31,9.31,0,0,1,5.95,1.7,2.17,2.17,0,0,1,.78,1.8c0,1.06-.57,2-1.46,2-1.53,0-2.07-2.66-5.34-2.66" transform="translate(-1.55 -1.76)"/><path class="cls-1" d="M283,10.48c.08,0,3.08,0,3.53,0s.47-.11.54-.48.14-.73.21-1.09c.1-.51,0-.6-.49-.6h-3c-.05,0-.33,0-.43-.13a1.33,1.33,0,0,1,0-.69c.43-2.45.54-3.13,1.51-3.42,1.25-.37,2.72.47,3.05.55a.41.41,0,0,0,.57-.29,5.85,5.85,0,0,0,.33-1.08.69.69,0,0,0-.36-.82,3.28,3.28,0,0,0-.54-.24,6.91,6.91,0,0,0-4-.2,4.94,4.94,0,0,0-2.06,1.15c-1.21,1.12-1.37,2.14-1.7,4.27l-.14.9h-1.68a1.83,1.83,0,0,0-.32,0,.39.39,0,0,0-.37.33c-.1.49-.2,1-.28,1.48,0,.22,0,.3.27.33a2.31,2.31,0,0,0,.37,0h2.22M264.94,17.4c0,.26.06.74.13,1.2a2.5,2.5,0,0,0,1.1,1.78,3.17,3.17,0,0,0,3.46-.25A5.6,5.6,0,0,0,271.26,18a9.69,9.69,0,0,0,.77-3.08,7.67,7.67,0,0,0-.1-2.39,2.48,2.48,0,0,0-.85-1.51,2.85,2.85,0,0,0-3.08-.28,4.27,4.27,0,0,0-2,2,9.71,9.71,0,0,0-1.09,4.7m2.47,5.69a6.73,6.73,0,0,1-2.83-.57,5.15,5.15,0,0,1-2.88-3.47,8.65,8.65,0,0,1-.15-3.51,9,9,0,0,1,1.55-4,7.71,7.71,0,0,1,5-3.27,7.13,7.13,0,0,1,3.86.22,5.14,5.14,0,0,1,3.38,3.72,8.56,8.56,0,0,1,.19,2.94A9.15,9.15,0,0,1,274.35,19,7.82,7.82,0,0,1,268.18,23c-.26,0-.51,0-.77.05" transform="translate(-1.55 -1.76)"/><path class="cls-1" d="M283,10.38c-.42,5.71-1,10-1.32,11.54a9.29,9.29,0,0,1-.76,2.58,5.92,5.92,0,0,1-.85,1.41,6.3,6.3,0,0,1-4.61,1.72c-.21,0-.62-.06-.76-.44a.88.88,0,0,1,.05-.68c.39-.54,1.21-.17,1.85-.32,1.54-.37,2-3.85,2.06-4.74.42-3.74.79-7.52,1.11-11.45Z" transform="translate(-1.55 -1.76)"/><path class="cls-1" d="M73.79,2c1.8,0,2,.1,2,.85V16c0,1.74.17,2.72,1,3.37a5.33,5.33,0,0,0,3.27.85,4.46,4.46,0,0,0,3.06-.85c.81-.68,1-1.73,1-3.37V2.89c0-.75.1-.85,1.91-.85s1.9.1,1.9.85V16.32a6.23,6.23,0,0,1-1.74,4.9c-1.39,1.29-3.4,1.9-6.18,1.9s-5-.61-6.37-1.87a6.27,6.27,0,0,1-1.83-4.93V5.17c0-2.22-1.16-1.91-1.16-2.59,0-.44.51-.54,2.38-.54Z" transform="translate(-1.55 -1.76)"/><path class="cls-1" d="M108,16V5.16c0-2.21-1.15-1.9-1.15-2.58,0-.44.51-.54,2.38-.54h.58c1.87,0,2.38.1,2.38.54,0,.68-1.16.37-1.16,2.58V22.31c0,.44-.2.61-1.19.61h-.2c-.89,0-1-.11-1.4-.58L98.4,9.93c-.48-.62-1.06-1.36-1.4-1.84h-.07v11.7c0,2.21,1.16,1.9,1.16,2.58,0,.44-.51.55-2.38.55h-.58c-1.87,0-2.38-.11-2.38-.55,0-.68,1.16-.37,1.16-2.58V5.16c0-2.21-1.16-1.9-1.16-2.58,0-.44.51-.54,2.38-.54h.21c1.63,0,1.83.3,2.82,1.53l8.33,10.57c.48.62,1.06,1.36,1.4,1.84Z" transform="translate(-1.55 -1.76)"/><path class="cls-1" d="M121.51,19.79c0,2.21,1.15,1.9,1.15,2.58,0,.45-.51.55-2.38.55h-1.5c-1.87,0-2.37-.1-2.37-.55,0-.68,1.15-.37,1.15-2.58V5.16c0-2.21-1.15-1.9-1.15-2.58,0-.44.5-.54,2.37-.54h1.5c1.87,0,2.38.1,2.38.54,0,.68-1.15.37-1.15,2.58Z" transform="translate(-1.55 -1.76)"/><path class="cls-1" d="M141.35,5.5a4,4,0,0,0,.31-1.22,1.45,1.45,0,0,0-.58-1.12c-.27-.24-.38-.38-.38-.55,0-.51.45-.57,2.93-.57s2.92.06,2.92.54a.65.65,0,0,1-.3.51,4.9,4.9,0,0,0-1.74,2.38l-6.32,16.6c-.27.75-.61.85-1.12.85h-.55c-.51,0-.82-.1-1.12-.85L128.46,5a3.45,3.45,0,0,0-1.83-1.93.5.5,0,0,1-.34-.48c0-.51,1.08-.54,2.72-.54,2.24,0,2.72.27,3.43,2.07l2.86,7.21c.51,1.26,1.46,3.67,2,5.2h.07c.64-1.9,1.12-3.23,1.83-5.2Z" transform="translate(-1.55 -1.76)"/><path class="cls-1" d="M155.24,20.33c.61-.07,1.6-.1,3.27-.1h5.4c.41,0,.55.1.55.51v1.67c0,.37-.14.51-.55.51H152.52c-1.87,0-2.38-.1-2.38-.55,0-.68,1.16-.37,1.16-2.58V5.16c0-2.21-1.16-1.9-1.16-2.58,0-.44.51-.54,2.38-.54h11c.41,0,.55.1.55.51V4.21c0,.38-.14.51-.55.51h-5.06c-1.67,0-2.66,0-3.27-.1v6.19h6.84c.4,0,.54.1.54.51v1.6c0,.37-.14.51-.54.51h-6.84Z" transform="translate(-1.55 -1.76)"/><path class="cls-1" d="M174.47,4.48h-1.13v8c4.7,0,6.19-1.53,6.19-4.12,0-3.06-2.07-3.88-5.06-3.88m4.89,9.59,4.53,6A7,7,0,0,0,186,22c.2.13.27.24.27.41,0,.47-1.05.51-2.79.51-1.94,0-2.34-.28-3.26-1.5l-4.93-6.53h-2v4.9c0,2.21,1.16,1.9,1.16,2.58,0,.44-.51.55-2.38.55h-1.5c-1.87,0-2.38-.11-2.38-.55,0-.68,1.16-.37,1.16-2.58V5.16c0-2.21-1.16-1.9-1.16-2.58,0-.44.51-.54,2.38-.54h2.72a17.87,17.87,0,0,1,6.74.91,5.46,5.46,0,0,1,3.53,5.31c0,3.2-1.56,4.79-4.25,5.81" transform="translate(-1.55 -1.76)"/><path class="cls-1" d="M189.3,7c0-2.92,2.75-5.17,7-5.17a8.53,8.53,0,0,1,5.44,1.67,2,2,0,0,1,.71,1.66c0,1-.54,1.94-1.36,1.94-.51,0-.95-.41-1.46-.88a5.62,5.62,0,0,0-3.74-1.63c-1.49,0-2.62.71-2.62,1.94,0,4.08,10,3.67,10,10.4a5.66,5.66,0,0,1-1.73,4.22,8.43,8.43,0,0,1-5.78,2,9.74,9.74,0,0,1-5.89-1.77,1.94,1.94,0,0,1-.78-1.7c0-.95.54-1.94,1.39-1.94,1.19,0,2.15,2.66,5.55,2.66,1.77,0,3.3-.92,3.3-3,0-4.56-10-3.95-10-10.41" transform="translate(-1.55 -1.76)"/><path class="cls-1" d="M211.94,19.79c0,2.21,1.16,1.9,1.16,2.58,0,.45-.51.55-2.38.55h-1.5c-1.87,0-2.38-.1-2.38-.55,0-.68,1.16-.37,1.16-2.58V5.16c0-2.21-1.16-1.9-1.16-2.58,0-.44.51-.54,2.38-.54h1.5c1.87,0,2.38.1,2.38.54,0,.68-1.16.37-1.16,2.58Z" transform="translate(-1.55 -1.76)"/><path class="cls-1" d="M232.81,2c.41,0,.55.1.55.51V4.21c0,.38-.14.51-.55.51h-2.55c-1.66,0-2.65,0-3.26-.1V19.79c0,2.21,1.16,1.9,1.16,2.58,0,.44-.51.55-2.39.55h-1.49c-1.87,0-2.38-.11-2.38-.55,0-.68,1.15-.37,1.15-2.58V4.62c-.61.07-1.6.1-3.26.1h-2.55c-.41,0-.55-.13-.55-.51V2.55c0-.41.14-.51.55-.51Z" transform="translate(-1.55 -1.76)"/><path class="cls-1" d="M255.87,2.58a.64.64,0,0,1-.31.51,6.39,6.39,0,0,0-1.83,2.38l-5.48,10.68v3.64c0,2.21,1.16,1.9,1.16,2.58,0,.44-.51.55-2.38.55h-1.5c-1.87,0-2.38-.11-2.38-.55,0-.68,1.16-.37,1.16-2.58V16.12L238.66,5a3.79,3.79,0,0,0-1.87-1.93.52.52,0,0,1-.34-.48c0-.51,1-.54,2.72-.54,2.24,0,2.72.37,3.57,2.1l1.63,3.27c.82,1.63,1.74,3.47,2.52,5.13H247c.71-1.49,1.6-3.23,2.58-5.13l1-1.9a2.78,2.78,0,0,0,.37-1.23,1.47,1.47,0,0,0-.57-1.12c-.28-.24-.38-.38-.38-.55,0-.51.48-.57,3-.57s3,.06,3,.54" transform="translate(-1.55 -1.76)"/><path class="cls-1" d="M17,26.79l14.81,32L45.87,27c1.32-3.06,2.65-3.89,7.36-3.89H56c4.55,0,5.79.25,5.79,1.32,0,1.66-2.81.91-2.81,6.29V66.24c0,5.37,2.81,4.63,2.81,6.28,0,1.07-1.24,1.32-5.79,1.32H52.32c-4.55,0-5.79-.25-5.79-1.32,0-1.65,2.81-.91,2.81-6.28V36.55h-.16c-.83,2.07-1.82,4.46-3,7.11L33.63,72.1c-.57,1.41-1,1.74-2.23,1.74h-.83c-1.07,0-1.57-.33-2.23-1.82L15,43.58l-3.14-7.11h-.17V66.24c0,5.37,2.81,4.63,2.81,6.28,0,1.07-1.24,1.32-5.79,1.32H7.34c-4.55,0-5.79-.25-5.79-1.32,0-1.65,2.81-.91,2.81-6.28V30.68c0-5.38-2.81-4.63-2.81-6.29,0-1.07,1.24-1.32,5.79-1.32H9.9c4.38,0,5.87,1.08,7.11,3.72" transform="translate(-1.55 -1.76)"/><path class="cls-1" d="M184.72,44.49a10.61,10.61,0,0,0-7.36-3.06c-6.29,0-9.68,4.38-9.68,13.23,0,7.27,2.56,12.65,8.77,12.65A12.32,12.32,0,0,0,184.72,64ZM175,34.32A15.36,15.36,0,0,1,185,38l.24-1.16c.42-1.9.66-2.07,4.3-2.07,3.89,0,4.3.25,4.3,1.82v30.6c0,2.23.66,2.81,3.15,3.06.74.08,1,.41,1,.91,0,1.48-2.9,2.81-6,2.81-3.47,0-5.87-1.33-6.69-4.14a16,16,0,0,1-11.25,4.47c-10.92,0-15.79-8.44-15.79-19.35,0-13.15,7.35-20.67,16.7-20.67" transform="translate(-1.55 -1.76)"/><path class="cls-1" d="M229.12,44.49a10.59,10.59,0,0,0-7.36-3.06c-6.28,0-9.67,4.13-9.67,13.06,0,7.36,2.56,12.49,8.76,12.49a12.31,12.31,0,0,0,8.27-3.31Zm.5-7.61c.41-1.9.66-2.07,4.3-2.07,3.89,0,4.3.25,4.3,1.82V68.55c0,6-.5,13-5.13,17.61a18.48,18.48,0,0,1-13.31,5,22.27,22.27,0,0,1-6.95-1c-2.56-.82-3.14-1.73-3.14-4.79v-.5c0-1.24.41-1.24,1-1.07a30.27,30.27,0,0,0,8.19,1.24c7.61,0,10.25-4.22,10.25-13.89V70a16.3,16.3,0,0,1-10.66,3.88c-10.92,0-15.8-8.18-15.8-19.1,0-13.15,7.36-20.42,16.71-20.42a15.33,15.33,0,0,1,10,3.72Z" transform="translate(-1.55 -1.76)"/><path class="cls-1" d="M265.51,40.44c-4.72,0-9.43,4.13-10,11.57a40.59,40.59,0,0,0,7.2.75c6.69,0,9-3.23,9-6.62s-2.65-5.7-6.2-5.7m-.17-6.12c7.77,0,15,4.3,15,12.32,0,6.28-5,12.07-15.71,12.07a35.77,35.77,0,0,1-9-1.16c1.15,7.78,6.36,10.34,12.73,10.34a38.31,38.31,0,0,0,9-1.24c.66-.17,1.08-.08,1.08,1.24v.49c0,3.15-.58,4.14-3.39,5a25.44,25.44,0,0,1-7.36,1c-11.33,0-21.67-4.55-21.67-19.52,0-12,7.61-20.5,19.35-20.5" transform="translate(-1.55 -1.76)"/><path class="cls-1" d="M297.59,39.44a20.46,20.46,0,0,1,13.07-5.12c3.72,0,6.7,1.15,8.76,3.39a14.05,14.05,0,0,1,1.74,2.56c4.8-4.3,9.84-6,14.14-6,3.72,0,6.7,1.15,8.76,3.39S347.12,43,347.12,47v18.6c0,4.14.34,5,1.91,6,.66.41.91.58.91,1.07,0,.83-.67,1.24-7.2,1.24-4.3,0-4.71-.49-4.71-2.23V49.12c0-4.88-1.9-7.44-6.7-7.44A16.13,16.13,0,0,0,322.4,45a16.64,16.64,0,0,1,.08,2v18.6c0,4.14.33,5,1.9,6,.67.41.91.58.91,1.07,0,.83-.66,1.24-7.19,1.24-4.3,0-4.71-.49-4.71-2.23V49.12c0-4.88-1.91-7.44-6.7-7.44a16,16,0,0,0-8.85,3.22V65.57c0,4.14.33,5,1.9,6,.66.41.91.58.91,1.07,0,.83-.66,1.24-7.36,1.24s-7.36-.41-7.36-1.24c0-.49.25-.66.91-1.07,1.57-1,1.9-1.82,1.9-6V41.43c0-2.65-.57-3.14-2.64-4.22-.58-.33-.74-.5-.74-.91,0-.83,1.48-1.65,5.29-1.65,4.38,0,6.28,1.49,6.94,4.79" transform="translate(-1.55 -1.76)"/><path class="cls-1" d="M375.08,40.44c-4.72,0-9.43,4.13-10,11.57a40.57,40.57,0,0,0,7.19.75c6.7,0,9-3.23,9-6.62s-2.65-5.7-6.2-5.7m-.17-6.12c7.77,0,15,4.3,15,12.32,0,6.28-5,12.07-15.71,12.07a35.9,35.9,0,0,1-9-1.16c1.16,7.78,6.37,10.34,12.74,10.34a38.38,38.38,0,0,0,9-1.24c.66-.17,1.08-.08,1.08,1.24v.49c0,3.15-.58,4.14-3.39,5a25.44,25.44,0,0,1-7.36,1c-11.33,0-21.67-4.55-21.67-19.52,0-12,7.61-20.5,19.35-20.5" transform="translate(-1.55 -1.76)"/><path class="cls-1" d="M398.31,41.43c0-2.65-.57-3.14-2.64-4.22-.58-.33-.75-.5-.75-.91,0-.83,1.49-1.65,5.3-1.65,4.38,0,6.28,1.49,6.94,4.79a21.31,21.31,0,0,1,13.48-5.12,12,12,0,0,1,8.93,3.39c2,2.06,3.14,5.12,3.14,9.26v18.6c0,4.14.33,5,1.9,6,.67.41.91.58.91,1.07,0,.83-.66,1.24-7.19,1.24-4.3,0-4.71-.49-4.71-2.23V49.12c0-2.32-.33-4.3-1.66-5.62a6.51,6.51,0,0,0-5-1.82,17.36,17.36,0,0,0-9.59,3.22V65.57c0,4.14.33,5,1.9,6,.66.41.91.58.91,1.07,0,.83-.66,1.24-7.36,1.24s-7.36-.41-7.36-1.24c0-.49.25-.66.91-1.07,1.57-1,1.9-1.82,1.9-6Z" transform="translate(-1.55 -1.76)"/><path class="cls-1" d="M444.46,62.27V40.6h-5c-1.33,0-1.58-.25-1.58-1.32V36.14c0-1.08.25-1.33,1.58-1.33h5V27.7c0-1.4.33-1.9,1.4-2.23,4.8-1.49,7.69-2.9,7.69-1V34.81h8.77c1.32,0,1.57.25,1.57,1.33v3.14c0,1.07-.25,1.32-1.57,1.32h-8.77V60.53c0,4.71.58,7.36,5.79,7.36a17.73,17.73,0,0,0,5.21-.91c.5-.17,1.08-.17,1.08,1.16v.49c0,3.15-.58,4.05-3.31,4.88a20.56,20.56,0,0,1-5.95.83c-8.44,0-11.91-3.39-11.91-12.07" transform="translate(-1.55 -1.76)"/><path class="cls-1" d="M246.77,98.28c0-7.17,6.75-12.66,17.08-12.66,5,0,10.24,1.33,13.32,4.08a4.91,4.91,0,0,1,1.75,4.08c0,2.41-1.33,4.75-3.33,4.75-1.25,0-2.33-1-3.58-2.17a13.75,13.75,0,0,0-9.16-4c-3.67,0-6.42,1.75-6.42,4.75,0,10,24.49,9,24.49,25.49a13.81,13.81,0,0,1-4.25,10.33c-3.33,3.25-8.74,4.83-14.15,4.83s-10.67-1.42-14.41-4.33a4.76,4.76,0,0,1-1.92-4.17c0-2.33,1.33-4.75,3.41-4.75,2.92,0,5.25,6.5,13.58,6.5,4.33,0,8.08-2.25,8.08-7.24,0-11.17-24.49-9.67-24.49-25.49" transform="translate(-1.55 -1.76)"/><path class="cls-1" d="M294.33,117.6c0,9.66,4.92,13.66,13.16,13.66a26.69,26.69,0,0,0,8.33-1.41c.5-.17,1.09-.17,1.09,1.16v.58c0,3.17-.67,4-3.42,4.92a29.54,29.54,0,0,1-8.33,1.25c-13.07,0-20.32-7.58-20.32-19.74,0-12.33,7.33-20.58,19.82-20.58,4.5,0,8.66,1.17,10.75,3.09a4.28,4.28,0,0,1,1.33,3.41c0,2.17-1,4.08-2.58,4.08-2.5,0-4.58-4.25-9.75-4.25-5.74,0-10.08,4.84-10.08,13.83" transform="translate(-1.55 -1.76)"/><path class="cls-1" d="M323.07,87.28c0-2.66-.58-3.16-2.66-4.24-.59-.34-.75-.51-.75-.92,0-.83,1.5-1.67,5.33-1.67,5.49,0,7.24,1.59,7.24,4.67v17.24a21.86,21.86,0,0,1,13.33-4.92,12.11,12.11,0,0,1,9,3.42c2,2.08,3.16,5.17,3.16,9.33v18.74c0,4.16.33,5,1.92,6,.66.41.91.58.91,1.08,0,.83-.66,1.25-7.24,1.25-4.34,0-4.75-.5-4.75-2.25V112.35c0-2.33-.33-4.33-1.67-5.66a6.59,6.59,0,0,0-5-1.83,17.53,17.53,0,0,0-9.66,3.24v20.83c0,4.16.34,5,1.92,6,.67.41.92.58.92,1.08,0,.83-.67,1.25-7.42,1.25s-7.41-.42-7.41-1.25c0-.5.25-.67.92-1.08,1.58-1,1.91-1.84,1.91-6Z" transform="translate(-1.55 -1.76)"/><path class="cls-1" d="M391.79,117.35c0-10-3.16-13.74-9.08-13.74s-9.08,3.75-9.08,13.82v.34c0,10.08,3.17,13.82,9.08,13.82s9.08-3.74,9.08-13.74Zm-9,20.41h-.51c-11.41,0-18.15-7.83-18.15-20.16s7-20.16,18.49-20.16h.5c11.41,0,18.15,7.83,18.15,20.16s-7,20.16-18.48,20.16" transform="translate(-1.55 -1.76)"/><path class="cls-1" d="M432.36,117.35c0-10-3.17-13.74-9.08-13.74s-9.08,3.75-9.08,13.82v.34c0,10.08,3.16,13.82,9.08,13.82s9.08-3.74,9.08-13.74Zm-9,20.41h-.5c-11.41,0-18.16-7.83-18.16-20.16s7-20.16,18.49-20.16h.5c11.41,0,18.16,7.83,18.16,20.16s-7,20.16-18.49,20.16" transform="translate(-1.55 -1.76)"/><path class="cls-1" d="M448.68,87.28c0-2.66-.58-3.16-2.66-4.24-.59-.34-.75-.51-.75-.92,0-.83,1.5-1.67,5.33-1.67,5.5,0,7.24,1.59,7.24,4.67v43.81c0,4.16.34,5,1.92,6,.67.41.92.58.92,1.08,0,.83-.67,1.25-7.42,1.25s-7.41-.42-7.41-1.25c0-.5.25-.67.92-1.08,1.58-1,1.91-1.84,1.91-6Z" transform="translate(-1.55 -1.76)"/></svg>