<svg id="Layer_1" data-name="Layer 1" xmlns="http://www.w3.org/2000/svg" viewBox="0 0 598.05 136.2"><defs><style>.cls-1{fill:#fff;}</style></defs><title>Institute of Aquaculture</title><path class="cls-1" d="M36.09,79.43l-3.62-2.17a14.93,14.93,0,0,0-8.1-2.42,13.08,13.08,0,0,0-6.43,1.69v-11c0-10.94,3.83-14.43,14.42-14.43,9.78,0,14,3.49,14,14.43V80.87a8.93,8.93,0,0,1-3.58.74,13,13,0,0,1-6.65-2.18m-3.26-38.2c-20.48,0-27.92,10-27.92,23.27v38.16c0,7.56-4,6.52-4,8.84,0,1.52,1.74,1.86,8.14,1.86h2.09c6.17,0,6.76-.34,6.76-2.91V85.37a9.13,9.13,0,0,1,5.33-1.71,12.92,12.92,0,0,1,6.65,2.18L33.55,88a15,15,0,0,0,8.1,2.41,13.09,13.09,0,0,0,4.67-.86v20.88c0,2.57.35,2.91,6.76,2.91s6.74-.34,6.74-2.91V64.5c0-13.27-7.44-23.27-27-23.27" transform="translate(-0.95 -0.9)"/><path class="cls-1" d="M187.93,108.36c-3.61-.35-4.42-1.16-4.42-4.3V61.12c0-2.33-.7-2.68-6.4-2.68s-6.4.35-6.4,2.68V99.17c-3.84,2.56-8.5,4.54-13.27,4.54a9.08,9.08,0,0,1-6.28-2.1c-1.86-1.63-2.79-4.19-2.79-8.37V61.59c0-2.45-.58-3.15-6.63-3.15-9.2,0-10.13.59-10.13,1.75,0,.7.35.93,1.28,1.51,2.21,1.4,2.68,2.56,2.68,8.38V96.26c0,5.47,1.51,10,4.42,13s7.1,4.77,12.33,4.77c6.05,0,12.69-2.09,19-7.1.93,4.54,4.19,6.64,9.54,6.64,4.42,0,8.49-1.87,8.49-4,0-.7-.35-1.16-1.39-1.28" transform="translate(-0.95 -0.9)"/><path class="cls-1" d="M108,100.1a17.58,17.58,0,0,1-11.06,4.19c-7.22,0-12.8-6.05-12.8-18.27,0-13.26,6.17-19.43,16.17-19.43A22.14,22.14,0,0,1,108,68.22Zm15.47,33.74c-2.21-1.39-2.68-2.56-2.68-8.37V67.52c0-3.37-.81-4.89-3.14-6a39.48,39.48,0,0,0-17.22-3.72c-15.13,0-29.56,7.45-29.56,28.85,0,17.22,8.39,27.46,22.35,27.46A24.75,24.75,0,0,0,108,109.18v16.29c0,5.81-.47,7-2.68,8.37-.93.58-1.28.82-1.28,1.51,0,1.17.92,1.75,10.35,1.75s10.36-.58,10.36-1.75c0-.69-.35-.93-1.28-1.51" transform="translate(-0.95 -0.9)"/><path class="cls-1" d="M233.19,99.52a17.33,17.33,0,0,1-11.64,4.65c-8.72,0-12.33-7.56-12.33-17.8,0-12.45,4.77-18.62,13.61-18.62a15,15,0,0,1,10.36,4.31Zm17.22,8.84c-3.49-.35-4.42-1.16-4.42-4.3V61c0-2.21-.58-2.56-6.06-2.56-5.11,0-5.46.24-6,2.91L233.54,63a21.6,21.6,0,0,0-14.08-5.23C206.31,57.75,196,68.33,196,86.84c0,15.36,6.87,27.22,22.23,27.22A22.53,22.53,0,0,0,234,107.78c1.17,4,4.54,5.82,9.43,5.82,4.3,0,8.38-1.87,8.38-4,0-.7-.35-1.16-1.4-1.28" transform="translate(-0.95 -0.9)"/><path class="cls-1" d="M502.55,108.36c-3.61-.35-4.43-1.16-4.43-4.3V61.12c0-2.33-.7-2.68-6.4-2.68s-6.4.35-6.4,2.68V99.17c-3.83,2.56-8.49,4.54-13.26,4.54a9.08,9.08,0,0,1-6.28-2.1c-1.87-1.63-2.8-4.19-2.8-8.37V61.59c0-2.45-.58-3.15-6.63-3.15-9.19,0-10.12.59-10.12,1.75,0,.7.35.93,1.28,1.51,2.21,1.4,2.68,2.56,2.68,8.38V96.26c0,5.47,1.51,10,4.41,13s7.1,4.77,12.34,4.77c6.05,0,12.68-2.09,19-7.1.93,4.54,4.19,6.64,9.53,6.64,4.43,0,8.5-1.87,8.5-4,0-.7-.35-1.16-1.39-1.28" transform="translate(-0.95 -0.9)"/><path class="cls-1" d="M541.64,57.75c-4.65,0-10,2.32-14.08,7.45-.93-4.66-3.61-7-9.77-7-5.35,0-7.45,1.16-7.45,2.33,0,.58.23.81,1.05,1.28,2.91,1.51,3.72,2.21,3.72,5.93v34c0,5.81-.46,7-2.67,8.38-.94.58-1.29.81-1.29,1.51,0,1.16.93,1.75,10.36,1.75s10.35-.59,10.35-1.75c0-.7-.35-.93-1.28-1.51-2.2-1.4-2.67-2.57-2.67-8.38V72.87a17.51,17.51,0,0,1,11.4-4.3,27.43,27.43,0,0,1,4.77.58c1.86.35,2.56-.11,2.79-2.45.12-1,.24-3.14.24-3.72,0-4.07-1.63-5.23-5.47-5.23" transform="translate(-0.95 -0.9)"/><path class="cls-1" d="M578.17,66.35c5,0,8.73,3.26,8.73,8s-3.26,9.3-12.68,9.3a57.19,57.19,0,0,1-10.12-1c.81-10.46,7.44-16.29,14.07-16.29m16.64,36.89A53.53,53.53,0,0,1,582.13,105c-9,0-16.29-3.61-17.92-14.55a50.33,50.33,0,0,0,12.69,1.63c15.12,0,22.1-8.14,22.1-17,0-11.28-10.12-17.33-21.06-17.33-16.52,0-27.23,12-27.23,28.85,0,21.06,14.55,27.46,30.49,27.46a35.5,35.5,0,0,0,10.36-1.39c4-1.17,4.76-2.56,4.76-7V105c0-1.87-.58-2-1.51-1.75" transform="translate(-0.95 -0.9)"/><path class="cls-1" d="M301.72,103a37.33,37.33,0,0,1-11.63,2c-11.52,0-18.39-5.58-18.39-19.08,0-12.56,6.05-19.31,14.08-19.31,7.21,0,10.12,5.93,13.61,5.93,2.21,0,3.61-2.67,3.61-5.7a6,6,0,0,0-1.86-4.77c-2.91-2.67-8.73-4.3-15-4.3-17.46,0-27.69,11.51-27.69,28.74,0,17,10.12,27.57,28.39,27.57a41.54,41.54,0,0,0,11.63-1.74c3.84-1.28,4.78-2.45,4.78-6.87v-.82c0-1.85-.82-1.85-1.52-1.62" transform="translate(-0.95 -0.9)"/><path class="cls-1" d="M366.76,108.36c-3.61-.35-4.42-1.16-4.42-4.3V61.12c0-2.33-.7-2.68-6.4-2.68s-6.4.35-6.4,2.68V99.17c-3.84,2.56-8.49,4.54-13.26,4.54a9.12,9.12,0,0,1-6.29-2.1c-1.86-1.63-2.79-4.19-2.79-8.37V61.59c0-2.45-.58-3.15-6.63-3.15-9.2,0-10.12.59-10.12,1.75,0,.7.35.93,1.28,1.51,2.21,1.4,2.67,2.56,2.67,8.38V96.26c0,5.47,1.51,10,4.42,13s7.1,4.77,12.34,4.77c6,0,12.68-2.09,19-7.1.93,4.54,4.19,6.64,9.54,6.64,4.42,0,8.5-1.87,8.5-4,0-.7-.35-1.16-1.4-1.28" transform="translate(-0.95 -0.9)"/><path class="cls-1" d="M394.8,110.11c-2.21-1.4-2.67-2.57-2.67-8.38V40.52c0-4.3-2.45-6.51-10.13-6.51-5.35,0-7.45,1.16-7.45,2.33,0,.58.24.81,1.05,1.28,2.91,1.51,3.73,2.21,3.73,5.93v58.18c0,5.81-.47,7-2.68,8.38-.93.58-1.28.81-1.28,1.51,0,1.16.93,1.75,10.35,1.75s10.36-.59,10.36-1.75c0-.7-.35-.93-1.28-1.51" transform="translate(-0.95 -0.9)"/><path class="cls-1" d="M438.9,103.71a24.87,24.87,0,0,1-7.33,1.28c-7.33,0-8.15-3.73-8.15-10.36v-28h12.34c1.86,0,2.21-.35,2.21-1.86V60.31c0-1.52-.35-1.87-2.21-1.87H423.42V43.9c0-2.67-4.07-.7-10.82,1.4-1.51.46-2,1.16-2,3.14v10h-7c-1.86,0-2.21.35-2.21,1.87v4.42c0,1.51.35,1.86,2.21,1.86h7V97.07c0,12.22,4.89,17,16.76,17a28.88,28.88,0,0,0,8.38-1.16c3.84-1.16,4.65-2.45,4.65-6.86v-.71c0-1.85-.81-1.85-1.51-1.62" transform="translate(-0.95 -0.9)"/><rect class="cls-1" x="75.02" y="3.52" width="7.69" height="38.37"/><path class="cls-1" d="M89.87,14.48h7v3.85H97c2.31-3.25,5.44-4.51,9.29-4.51,6.7,0,9.62,4.73,9.62,11.1V42.79H108.5V27.67c0-3.46,0-8.13-4.78-8.13-5.33,0-6.48,5.77-6.48,9.4V42.79H89.87Z" transform="translate(-0.95 -0.9)"/><path class="cls-1" d="M140,20.42a17.91,17.91,0,0,0-6.6-1.21c-2,0-4.34.71-4.34,3.13,0,4.51,12.8,1.65,12.8,11.87,0,6.6-5.88,9.24-11.87,9.24a32.73,32.73,0,0,1-8.35-1.22l.44-6a16.21,16.21,0,0,0,7.25,1.87c1.87,0,4.84-.72,4.84-3.46,0-5.56-12.81-1.76-12.81-12,0-6.1,5.33-8.79,11.11-8.79a34.17,34.17,0,0,1,8,1Z" transform="translate(-0.95 -0.9)"/><path class="cls-1" d="M150.82,19.87h-5.44V14.48h5.44V8.82l7.37-2.36v8h6.54v5.39h-6.54V33.06c0,2.42.65,4.67,3.46,4.67A6.61,6.61,0,0,0,165,37l.22,5.83a19.39,19.39,0,0,1-5.44.65c-5.77,0-9-3.57-9-9.18Z" transform="translate(-0.95 -0.9)"/><path class="cls-1" d="M170.77,14.48h7.37V42.79h-7.37Zm0-12.2h7.37v7h-7.37Z" transform="translate(-0.95 -0.9)"/><path class="cls-1" d="M189.13,19.87h-5.44V14.48h5.44V8.82l7.37-2.36v8H203v5.39H196.5V33.06c0,2.42.65,4.67,3.46,4.67a6.61,6.61,0,0,0,3.35-.77l.22,5.83a19.39,19.39,0,0,1-5.44.65c-5.77,0-9-3.57-9-9.18Z" transform="translate(-0.95 -0.9)"/><path class="cls-1" d="M234.91,42.79h-7V38.94h-.11a11.8,11.8,0,0,1-9.29,4.51c-6.7,0-9.61-4.73-9.61-11.11V14.48h7.36V29.59c0,3.47.05,8.14,4.78,8.14,5.33,0,6.49-5.77,6.49-9.4V14.48h7.36Z" transform="translate(-0.95 -0.9)"/><path class="cls-1" d="M246.84,19.87h-5.45V14.48h5.45V8.82l7.36-2.36v8h6.54v5.39H254.2V33.06c0,2.42.66,4.67,3.47,4.67A6.64,6.64,0,0,0,261,37l.22,5.83a19.43,19.43,0,0,1-5.44.65c-5.78,0-9-3.57-9-9.18Z" transform="translate(-0.95 -0.9)"/><path class="cls-1" d="M285.47,25.86c-.21-3.58-1.86-6.66-6-6.66s-6.21,2.86-6.53,6.66Zm4.95,15.33a19.37,19.37,0,0,1-9.73,2.25c-9.34,0-14.78-5.38-14.78-14.67,0-8.19,4.34-14.95,13.14-14.95,10.49,0,13.46,7.2,13.46,17.09H273c.32,4.57,3.51,7.15,8.07,7.15a19.07,19.07,0,0,0,9.4-2.86Z" transform="translate(-0.95 -0.9)"/><path class="cls-1" d="M326,37.73c5.66,0,7.14-5.06,7.14-9.78,0-4.35-2.3-8.42-7.14-8.42s-7.09,4.18-7.09,8.42c0,4.67,1.49,9.78,7.09,9.78m0-23.91c8.41,0,14.84,5.66,14.84,15,0,8.14-5.44,14.63-14.84,14.63S311.2,37,311.2,28.82c0-9.34,6.43-15,14.78-15" transform="translate(-0.95 -0.9)"/><path class="cls-1" d="M350.11,19.87h-5.44V14.48h5.44v-4c0-5.66,3.19-9.62,9-9.62a26,26,0,0,1,5.39.61l-.6,6.1a5.69,5.69,0,0,0-3.19-1c-2.47,0-3.24,2.14-3.24,4.34v3.52h6.43v5.39h-6.43V42.79h-7.37Z" transform="translate(-0.95 -0.9)"/></svg>