<svg xmlns="http://www.w3.org/2000/svg" viewBox="0 0 662.18 165.17"><title>uos-logo-white</title><g id="Layer_2" data-name="Layer 2"><g id="Layer_1-2" data-name="Layer 1"><path d="M14.44,97.07c0-4.23,3.88-6.69,9-6.69A19.42,19.42,0,0,1,36.4,96c1.76,1.65,3.29,3.05,5,3.05,2.82,0,4.7-3.29,4.7-6.69a6.93,6.93,0,0,0-2.47-5.75c-4.34-3.88-11.74-5.76-18.79-5.76C10.33,80.86.82,88.61.82,98.71c0,22.31,34.52,20.2,34.52,35.93,0,7-5.28,10.22-11.39,10.22-11.74,0-15-9.16-19.14-9.16-2.93,0-4.82,3.41-4.82,6.69a6.69,6.69,0,0,0,2.7,5.87C8,152.37,15.5,154.37,23,154.37s15.26-2.23,20-6.81A19.44,19.44,0,0,0,49,133C49,109.75,14.44,111.15,14.44,97.07Z" style="fill:#fff"/><path d="M112,81.56H58.25c-1.41,0-1.88.35-1.88,1.76v5.75c0,1.29.47,1.76,1.88,1.76h8.8c5.75,0,9.16-.12,11.27-.35v52.37c0,7.63-4,6.58-4,8.92,0,1.53,1.76,1.88,8.22,1.88h5.17c6.46,0,8.22-.35,8.22-1.88,0-2.35-4-1.29-4-8.92V90.49c2.11.24,5.52.35,11.27.35H112c1.41,0,1.88-.47,1.88-1.76V83.33C113.9,81.92,113.44,81.56,112,81.56Z" style="fill:#fff"/><path d="M146,83.44c0-1.52-1.76-1.88-8.22-1.88h-5.17c-6.46,0-8.22.36-8.22,1.88,0,2.35,4,1.29,4,8.92v50.49c0,7.63-4,6.58-4,8.92,0,1.53,1.76,1.88,8.22,1.88h5.17c6.46,0,8.22-.35,8.22-1.88,0-2.35-4-1.29-4-8.92V92.37C142,84.73,146,85.79,146,83.44Z" style="fill:#fff"/><path d="M221.83,150.49a24.24,24.24,0,0,1-7.4-6.81l-15.62-20.55c9.27-3.52,14.68-9,14.68-20.08,0-9.86-5.4-15.26-12.21-18.32C196.47,82.62,189,81.56,178,81.56h-9.39c-6.46,0-8.22.35-8.22,1.88,0,2.35,4,1.29,4,8.92v50.49c0,7.63-4,6.58-4,8.92,0,1.53,1.76,1.88,8.22,1.88h5.17c6.46,0,8.22-.35,8.22-1.88,0-2.35-4-1.29-4-8.92V125.95h6.81l17,22.55c3.17,4.23,4.58,5.17,11.27,5.17,6,0,9.63-.12,9.63-1.76C222.77,151.31,222.53,151,221.83,150.49ZM178,117.61V90h3.88c10.33,0,17.49,2.82,17.49,13.39C199.4,112.33,194.23,117.61,178,117.61Z" style="fill:#fff"/><path d="M277.61,144.39h-16c-5.75,0-9.16.12-11.27.35V92.37c0-7.63,4-6.58,4-8.92,0-1.52-1.76-1.88-8.22-1.88H241c-6.46,0-8.22.35-8.22,1.88,0,2.35,4,1.3,4,8.92v50.49c0,7.63-4,6.58-4,8.93,0,1.52,1.76,1.88,8.22,1.88h36.64c1.41,0,1.88-.47,1.88-1.76v-5.75C279.49,144.74,279,144.39,277.61,144.39Z" style="fill:#fff"/><path d="M313,83.44c0-1.52-1.76-1.88-8.22-1.88h-5.17c-6.46,0-8.22.36-8.22,1.88,0,2.35,4,1.29,4,8.92v50.49c0,7.63-4,6.58-4,8.92,0,1.53,1.76,1.88,8.22,1.88h5.17c6.46,0,8.22-.35,8.22-1.88,0-2.35-4-1.29-4-8.92V92.37C309,84.73,313,85.79,313,83.44Z" style="fill:#fff"/><path d="M386.12,81.56h-2c-6.46,0-8.22.35-8.22,1.88,0,2.35,4,1.29,4,8.92v37.34h-.24c-1.17-1.65-3.17-4.23-4.81-6.34L346.08,86.85c-3.41-4.23-4.11-5.29-9.75-5.29h-.7c-6.46,0-8.22.35-8.22,1.88,0,2.35,4,1.29,4,8.92v50.49c0,7.63-4,6.58-4,8.92,0,1.53,1.76,1.88,8.22,1.88h2c6.46,0,8.22-.35,8.22-1.88,0-2.35-4-1.29-4-8.92v-40.4h.24c1.17,1.65,3.17,4.23,4.81,6.34l33.82,42.86c1.29,1.64,1.76,2,4.81,2h.71c3.4,0,4.11-.59,4.11-2.11V92.36c0-7.63,4-6.57,4-8.92C394.34,81.92,392.58,81.56,386.12,81.56Z" style="fill:#fff"/><path d="M460.57,118.55h-1.88c-6.11,0-8.45.35-8.45,2,0,.7.23,1.06,1.17,1.76,2,1.52,2.82,2.82,2.82,7V143A26.83,26.83,0,0,1,444,145c-13.85,0-22.31-8.34-22.31-28.06,0-18,9.63-26.31,19.73-26.31,11.27,0,13.15,9.16,18.43,9.16,3.05,0,5-3.17,5-6.81a7.55,7.55,0,0,0-2.7-6.22c-4-3.52-11.51-5.87-20.55-5.87-21.6,0-34.05,15-34.05,37,0,22.66,11.74,36.52,34.87,36.52,8,0,15.85-1.76,21.84-5a5.16,5.16,0,0,0,3.05-5.17V121.49C467.38,118.91,466.79,118.55,460.57,118.55Z" style="fill:#fff"/><path d="M662.15,90.59h0V0H519V90.59h0a14.07,14.07,0,0,0,0,1.76,32.74,32.74,0,0,0,.84,5.71A51.37,51.37,0,0,0,524,109.38q.63,1.26,1.36,2.58a78.49,78.49,0,0,0,7.43,11q.7.87,1.44,1.75a108.09,108.09,0,0,0,8.19,8.65q1.29,1.23,2.68,2.47c10.44,9.37,25,19.42,45.45,29.37,20.41-10,35-20,45.45-29.37q1.39-1.25,2.68-2.47a108.16,108.16,0,0,0,8.19-8.66q.75-.88,1.44-1.75A78.48,78.48,0,0,0,655.78,112q.74-1.32,1.36-2.58a51.37,51.37,0,0,0,4.17-11.33,32.75,32.75,0,0,0,.84-5.71A14.12,14.12,0,0,0,662.15,90.59ZM550.37,135.83A113,113,0,0,1,537,122.57a9.14,9.14,0,0,1,6-2c3.57,0,5.27,1.37,7.23,3s4.29,3.47,8.66,3.47,6.65-1.84,8.66-3.47a10.75,10.75,0,0,1,5.47-2.84v12.69a12.84,12.84,0,0,0-6.9,3.36c-2,1.59-3.66,3-7.23,3s-5.27-1.37-7.23-3C551.19,136.47,550.79,136.14,550.37,135.83Zm40.22,25.55A217.54,217.54,0,0,1,558.21,142l.6,0c4.37,0,6.65-1.84,8.66-3.47a10.75,10.75,0,0,1,5.47-2.84V142l.53.33c3.09,2,6.09,1.64,9,1.33,2.63-.28,5.11-.55,7.53,1l.61.39.61-.39c2.42-1.53,4.9-1.27,7.53-1,2.9.31,5.9.63,9-1.33l.53-.33v-6.31a10.75,10.75,0,0,1,5.48,2.84c2,1.63,4.29,3.47,8.66,3.47l.59,0A217.55,217.55,0,0,1,590.59,161.37Zm-15.38-20.63v-22.4h0a10.58,10.58,0,0,0,3.65.67,28.39,28.39,0,0,0,3.58-.23c2.44-.26,4.75-.51,7,.68v22.41a10.39,10.39,0,0,0-3.35-.67h-.61a30.83,30.83,0,0,0-3.28.23C579.77,141.69,577.46,141.94,575.21,140.75Zm16.52,1.13V119.47c2.25-1.19,4.56-.95,7-.68a28.31,28.31,0,0,0,3.59.23,10.58,10.58,0,0,0,3.64-.67h0v22.4c-2.25,1.19-4.56.94-7,.68a26.18,26.18,0,0,0-3.89-.22A10.39,10.39,0,0,0,591.73,141.88Zm39.05-6c-.41.31-.79.62-1.17.92-2,1.59-3.66,3-7.23,3s-5.27-1.37-7.23-3a12.84,12.84,0,0,0-6.9-3.36V120.73a10.74,10.74,0,0,1,5.48,2.84c2,1.63,4.29,3.47,8.66,3.47s6.65-1.84,8.66-3.47,3.66-3,7.23-3a9.14,9.14,0,0,1,6,2A113.08,113.08,0,0,1,630.78,135.86ZM651.21,113a78.46,78.46,0,0,1-5.54,7.78,11.53,11.53,0,0,0-7.4-2.48c-4.38,0-6.65,1.84-8.66,3.47s-3.66,3-7.23,3-5.27-1.37-7.23-3a12.84,12.84,0,0,0-6.9-3.36v-4l-1.08.68-.67.42c-2.42,1.53-4.9,1.27-7.53,1s-5.51-.59-8.38,1c-2.87-1.56-5.67-1.26-8.38-1s-5.11.55-7.53-1l-.67-.42-1.08-.68v4a12.85,12.85,0,0,0-6.9,3.36c-2,1.59-3.66,3-7.23,3s-5.27-1.37-7.23-3-4.29-3.47-8.66-3.47a11.53,11.53,0,0,0-7.4,2.48A78.51,78.51,0,0,1,530,113l-.69-1.15a13.08,13.08,0,0,0,6.41-3.29c2-1.59,3.66-3,7.23-3s5.27,1.37,7.23,3,4.29,3.47,8.66,3.47,6.65-1.84,8.66-3.47,3.66-3,7.23-3,5.27,1.37,7.23,3,4.29,3.47,8.66,3.47,6.65-1.84,8.66-3.47,3.66-3,7.23-3,5.27,1.37,7.23,3,4.29,3.47,8.66,3.47,6.65-1.84,8.66-3.47,3.66-3,7.23-3,5.27,1.37,7.23,3a13.09,13.09,0,0,0,6.4,3.29Zm7.54-22.44v1.64a29,29,0,0,1-.68,4.72,49.62,49.62,0,0,1-5,12.78c-2.87-.24-4.42-1.49-6.18-2.92-2-1.63-4.29-3.47-8.66-3.47s-6.65,1.84-8.66,3.47-3.66,3-7.23,3-5.27-1.37-7.23-3-4.29-3.47-8.66-3.47-6.65,1.84-8.66,3.47-3.66,3-7.23,3-5.27-1.37-7.23-3-4.29-3.47-8.66-3.47-6.65,1.84-8.66,3.47-3.66,3-7.23,3-5.27-1.37-7.23-3-4.29-3.47-8.66-3.47-6.65,1.84-8.66,3.47c-1.76,1.43-3.31,2.68-6.19,2.92a49.62,49.62,0,0,1-5-12.79,29,29,0,0,1-.68-4.73V83A4.3,4.3,0,1,1,531,83v14h12.68V80.12a4.3,4.3,0,1,1,8.61,0v16.8H565V77.28a4.3,4.3,0,1,1,8.61,0V96.92h12.68V74.44a4.3,4.3,0,1,1,8.61,0V96.92h12.68V77.28a4.3,4.3,0,1,1,8.61,0V96.92h12.68V80.12a4.3,4.3,0,1,1,8.61,0v16.8h12.68V83a4.3,4.3,0,1,1,8.61,0Zm0-14a7.7,7.7,0,0,0-12,6.39V93.52h-5.87V80.12a7.71,7.71,0,1,0-15.42,0v13.4h-5.87V77.28a7.71,7.71,0,1,0-15.42,0V93.52H598.3V74.44a7.71,7.71,0,1,0-15.42,0V93.52H577V77.28a7.71,7.71,0,1,0-15.42,0V93.52h-5.87V80.12a7.71,7.71,0,1,0-15.42,0v13.4h-5.87V83a7.7,7.7,0,0,0-12-6.39V73a137.12,137.12,0,0,1,136.31,0ZM584.18,17.51c.82-.07,1.66-.12,2.58-.17l1.62-.08V14.07c1.5,0,2.89,0,4.41,0v3.19l1.62.08c.94,0,1.79.1,2.59.17l1.85.15V14.3c1.55.09,3.11.21,4.68.36v9.5c-4.31-.33-8.65-.5-12.92-.5s-8.61.17-12.92.5v-9.5c1.56-.15,3.12-.26,4.67-.36v3.37Zm-5.44,10c4-.29,7.93-.43,11.85-.43s7.88.15,11.84.43l-1.74,3.39,2.57,20.91c-4.22-.38-8.48-.57-12.67-.57h0c-4.2,0-8.45.19-12.68.57l2.56-20.92Zm80,42.28A137.83,137.83,0,0,0,606.84,53l-2.64-21.5,2.71-5.29V11.58l-1.53-.16c-2.74-.28-5.49-.49-8.18-.62l-1.78-.08h0l-.9,0c-1.4,0-2.69-.06-3.94-.06s-2.57,0-4,.06l-.89,0h0L584,10.8c-2.69.13-5.44.33-8.17.62l-1.53.16V26.21L577,31.5,574.34,53a137.83,137.83,0,0,0-51.9,16.77V3.41H658.75Z" style="fill:#fff"/><path d="M625.37,41.85c2.63-.28,5.11-.55,7.53,1l.61.39.61-.39c2.42-1.53,4.9-1.27,7.53-1,2.9.31,5.9.63,9-1.33l.53-.33V12.59l-1.74,1.11c-2.42,1.53-4.9,1.27-7.53,1s-5.51-.59-8.38,1c-2.87-1.56-5.67-1.26-8.38-1s-5.11.55-7.53-1l-1.74-1.11V40.18l.53.33C619.47,42.48,622.47,42.16,625.37,41.85Zm9.27-24.22c2.25-1.19,4.56-.95,7-.68s4.77.51,7.24-.45V38.91c-2.25,1.19-4.56.94-7,.68s-4.77-.51-7.24.45ZM618.13,16.5c2.48,1,4.89.7,7.24.45s4.75-.51,7,.68V40a10.8,10.8,0,0,0-4-.68,30.86,30.86,0,0,0-3.28.23c-2.44.26-4.75.51-7-.68Z" style="fill:#fff"/><path d="M620.18,22a7.34,7.34,0,0,0,5.09.76,6,6,0,0,1,4.18.54.71.71,0,0,0,.76-1.2,7.34,7.34,0,0,0-5.09-.76,6,6,0,0,1-4.18-.54.71.71,0,0,0-.76,1.2Z" style="fill:#fff"/><path d="M620.18,28.22a7.34,7.34,0,0,0,5.09.76,6,6,0,0,1,4.18.54.71.71,0,0,0,.76-1.2,7.34,7.34,0,0,0-5.09-.76,6,6,0,0,1-4.18-.54.71.71,0,0,0-.76,1.2Z" style="fill:#fff"/><path d="M625.26,35.19a6,6,0,0,1,4.18.54.71.71,0,0,0,.76-1.2,7.34,7.34,0,0,0-5.09-.76,6,6,0,0,1-4.18-.54.71.71,0,1,0-.76,1.2A7.34,7.34,0,0,0,625.26,35.19Z" style="fill:#fff"/><path d="M641.76,35.19a7.34,7.34,0,0,0,5.09-.76.71.71,0,1,0-.76-1.2,6,6,0,0,1-4.18.54,7.34,7.34,0,0,0-5.09.76.71.71,0,0,0,.76,1.2A6,6,0,0,1,641.76,35.19Z" style="fill:#fff"/><path d="M637.2,29.63a.71.71,0,0,0,.38-.11,6,6,0,0,1,4.18-.54,7.34,7.34,0,0,0,5.09-.76.71.71,0,0,0-.76-1.2,6,6,0,0,1-4.18.54,7.34,7.34,0,0,0-5.09.76.71.71,0,0,0,.38,1.31Z" style="fill:#fff"/><path d="M637.2,23.4a.71.71,0,0,0,.38-.11,6,6,0,0,1,4.18-.54,7.34,7.34,0,0,0,5.09-.76.71.71,0,0,0-.76-1.2,6,6,0,0,1-4.18.54,7.34,7.34,0,0,0-5.09.76.71.71,0,0,0,.38,1.31Z" style="fill:#fff"/><path d="M540.07,41.85c2.63-.28,5.11-.55,7.53,1l.61.39.61-.39c2.42-1.53,4.9-1.27,7.53-1,2.9.31,5.9.63,9-1.33l.53-.33V12.59l-1.74,1.11c-2.42,1.53-4.9,1.27-7.53,1s-5.51-.59-8.38,1c-2.87-1.56-5.67-1.26-8.38-1s-5.11.55-7.53-1l-1.74-1.11V40.18l.53.33C534.17,42.48,537.17,42.16,540.07,41.85Zm9.27-24.22c2.25-1.19,4.56-.95,7-.68s4.77.51,7.24-.45V38.91c-2.25,1.19-4.56.94-7,.68s-4.77-.51-7.24.45ZM532.83,16.5c2.48,1,4.89.7,7.24.45s4.75-.51,7,.68V40a10.8,10.8,0,0,0-4-.68,30.86,30.86,0,0,0-3.28.23c-2.44.26-4.75.51-7-.68Z" style="fill:#fff"/><path d="M534.88,22a7.34,7.34,0,0,0,5.09.76,6,6,0,0,1,4.18.54.71.71,0,0,0,.76-1.2,7.34,7.34,0,0,0-5.09-.76,6,6,0,0,1-4.18-.54.71.71,0,0,0-.76,1.2Z" style="fill:#fff"/><path d="M534.88,28.22A7.34,7.34,0,0,0,540,29a6,6,0,0,1,4.18.54.71.71,0,1,0,.76-1.2,7.34,7.34,0,0,0-5.09-.76,6,6,0,0,1-4.18-.54.71.71,0,0,0-.76,1.2Z" style="fill:#fff"/><path d="M540,35.19a6,6,0,0,1,4.18.54.71.71,0,1,0,.76-1.2,7.34,7.34,0,0,0-5.09-.76,6,6,0,0,1-4.18-.54.71.71,0,1,0-.76,1.2A7.34,7.34,0,0,0,540,35.19Z" style="fill:#fff"/><path d="M556.46,35.19a7.34,7.34,0,0,0,5.09-.76.71.71,0,1,0-.76-1.2,6,6,0,0,1-4.18.54,7.34,7.34,0,0,0-5.09.76.71.71,0,0,0,.76,1.2A6,6,0,0,1,556.46,35.19Z" style="fill:#fff"/><path d="M551.9,29.63a.71.71,0,0,0,.38-.11,6,6,0,0,1,4.18-.54,7.34,7.34,0,0,0,5.09-.76.71.71,0,1,0-.76-1.2,6,6,0,0,1-4.18.54,7.34,7.34,0,0,0-5.09.76.71.71,0,0,0,.38,1.31Z" style="fill:#fff"/><path d="M551.9,23.4a.71.71,0,0,0,.38-.11,6,6,0,0,1,4.18-.54,7.34,7.34,0,0,0,5.09-.76.71.71,0,1,0-.76-1.2,6,6,0,0,1-4.18.54,7.34,7.34,0,0,0-5.09.76.71.71,0,0,0,.38,1.31Z" style="fill:#fff"/><path d="M594,42.49l-1.28-10.38-2.14,0-2.09,0L587.2,42.48c1,0,2,0,3,0C591.46,42.44,592.72,42.46,594,42.49Z" style="fill:#fff"/><path d="M577.26,123.84a7.34,7.34,0,0,0,5.09.76l.79-.08a5.13,5.13,0,0,1,3.39.62.71.71,0,0,0,.76-1.2,5.52,5.52,0,0,0-2.18-.81,11.3,11.3,0,0,0-2.91.05l-.65.07a5.26,5.26,0,0,1-3.52-.61.71.71,0,0,0-.76,1.2Z" style="fill:#fff"/><path d="M577.26,130.06a7.34,7.34,0,0,0,5.09.76,6,6,0,0,1,4.18.54.71.71,0,0,0,.76-1.2,7.34,7.34,0,0,0-5.09-.76,6,6,0,0,1-4.18-.54.71.71,0,0,0-.76,1.2Z" style="fill:#fff"/><path d="M582.34,137c.4,0,.8-.08,1.2-.11a4.79,4.79,0,0,1,3,.65.71.71,0,0,0,.76-1.2,5.54,5.54,0,0,0-.75-.4,8.17,8.17,0,0,0-4.33-.36l-.28,0a5.67,5.67,0,0,1-3.89-.57.71.71,0,0,0-.76,1.2,5.69,5.69,0,0,0,2.84.87A14.12,14.12,0,0,0,582.34,137Z" style="fill:#fff"/><path d="M597.65,136.93c.39,0,.79.06,1.19.11a14.08,14.08,0,0,0,2.25.12,5.69,5.69,0,0,0,2.83-.87.71.71,0,0,0-.76-1.2,5.67,5.67,0,0,1-3.89.57l-.29,0a8.17,8.17,0,0,0-4.33.36,5.53,5.53,0,0,0-.75.4.71.71,0,1,0,.76,1.2A4.79,4.79,0,0,1,597.65,136.93Z" style="fill:#fff"/><path d="M603.16,128.86a6,6,0,0,1-4.18.54,7.34,7.34,0,0,0-5.09.76.71.71,0,1,0,.76,1.2,6,6,0,0,1,4.18-.54,7.34,7.34,0,0,0,5.09-.76.71.71,0,0,0-.76-1.2Z" style="fill:#fff"/><path d="M594.28,125.25a.71.71,0,0,0,.38-.11,5.14,5.14,0,0,1,3.39-.62l.79.08a7.34,7.34,0,0,0,5.09-.76.71.71,0,0,0-.76-1.2,5.26,5.26,0,0,1-3.52.61l-.66-.07a11.32,11.32,0,0,0-2.9-.05,5.52,5.52,0,0,0-2.19.81.71.71,0,0,0,.38,1.31Z" style="fill:#fff"/><path d="M469.73,12.29a5.91,5.91,0,0,0-1.16-.51,14.88,14.88,0,0,0-8.59-.44,10.72,10.72,0,0,0-4.44,2.48c-2.6,2.41-2.94,4.61-3.65,9.19-.15,1-.3,1.93-.3,1.93H448a5.07,5.07,0,0,0-.69,0,.85.85,0,0,0-.8.72c-.21,1.06-.42,2.11-.6,3.17-.08.48.09.65.57.72a6.46,6.46,0,0,0,.81.05l3.69,0h.11c-.67,8.08-1.45,15.88-2.3,23.59-.21,1.92-1.11,9.42-4.43,10.22-1.37.33-3.14-.47-4,.7a1.85,1.85,0,0,0-.12,1.45c.3.83,1.18.88,1.64.95,2.83.4,8-1.34,9.91-3.7a12.33,12.33,0,0,0,1.83-3,20.08,20.08,0,0,0,1.65-5.56c.61-3.31,1.92-12.43,2.82-24.62.43,0,6.61,0,7.56,0s1-.24,1.18-1,.29-1.56.44-2.34c.21-1.09.05-1.28-1.05-1.28-2.36,0-4.19,0-6.55,0-.09,0-.69.07-.92-.29a2.85,2.85,0,0,1,0-1.47c.91-5.28,1.17-6.74,3.24-7.36,2.7-.81,5.85,1,6.56,1.19s1,0,1.24-.64a15.09,15.09,0,0,0,.71-2.32A1.46,1.46,0,0,0,469.73,12.29Z" style="fill:#fff"/><path d="M418.45,55.58a14.53,14.53,0,0,0,6.1,1.23c.55,0,1.1,0,1.65-.1A16.84,16.84,0,0,0,439.49,48,19.58,19.58,0,0,0,442,39.7a18.39,18.39,0,0,0-.42-6.34,11,11,0,0,0-7.26-8,15.37,15.37,0,0,0-8.31-.48,16.65,16.65,0,0,0-10.77,7,19.25,19.25,0,0,0-3.34,8.63,19,19,0,0,0,.33,7.56A11.07,11.07,0,0,0,418.45,55.58Zm3.12-21.14a9.18,9.18,0,0,1,4.24-4.27,6.13,6.13,0,0,1,6.65.6A5.31,5.31,0,0,1,434.29,34a16.74,16.74,0,0,1,.22,5.13,20.66,20.66,0,0,1-1.67,6.64,12.21,12.21,0,0,1-3.52,4.65,6.78,6.78,0,0,1-7.45.52,5.32,5.32,0,0,1-2.35-3.81c-.17-1-.23-2-.29-2.58A21.17,21.17,0,0,1,421.58,34.43Z" style="fill:#fff"/><path d="M3.51,18.22v24c0,4.25,1,7.83,4,10.62s7.47,4,13.69,4c6,0,10.32-1.32,13.32-4.1s3.73-6.15,3.73-10.54V13.31c0-1.61-.22-1.83-4.1-1.83S30,11.7,30,13.31V41.57c0,3.51-.51,5.78-2.27,7.25-1.39,1.24-3.51,1.83-6.59,1.83s-5.49-.66-7-1.83C12.37,47.43,12,45.3,12,41.57V13.31c0-1.61-.37-1.83-4.25-1.83H6.15c-4,0-5.12.22-5.12,1.17C1,14.12,3.51,13.46,3.51,18.22Z" style="fill:#fff"/><path d="M60.07,55.26c0-1.46-2.49-.8-2.49-5.56V24.51h.15c.73,1,2,2.64,3,4L81.81,55.19c.8,1,1.1,1.24,3,1.24h.44c2.12,0,2.56-.37,2.56-1.32V18.22c0-4.76,2.49-4.1,2.49-5.56,0-1-1.1-1.17-5.12-1.17H83.93c-4,0-5.12.22-5.12,1.17,0,1.46,2.49.8,2.49,5.56V41.5h-.15c-.73-1-2-2.64-3-4L60.21,14.78c-2.12-2.64-2.56-3.29-6.08-3.29H53.7c-4,0-5.12.22-5.12,1.17,0,1.46,2.49.8,2.49,5.56V49.7c0,4.76-2.49,4.1-2.49,5.56,0,1,1.1,1.17,5.12,1.17h1.24C59,56.43,60.07,56.21,60.07,55.26Z" style="fill:#fff"/><path d="M99.49,55.26c0,1,1.1,1.17,5.12,1.17h3.22c4,0,5.12-.22,5.12-1.17,0-1.46-2.49-.8-2.49-5.56V18.22c0-4.76,2.49-4.1,2.49-5.56,0-1-1.1-1.17-5.12-1.17h-3.22c-4,0-5.12.22-5.12,1.17,0,1.46,2.49.8,2.49,5.56V49.7C102,54.46,99.49,53.8,99.49,55.26Z" style="fill:#fff"/><path d="M163.73,13.75a1.39,1.39,0,0,0,.66-1.1c0-1-1.1-1.17-6.3-1.17s-6.3.15-6.3,1.24c0,.37.22.66.8,1.17a3.15,3.15,0,0,1,1.24,2.42,8.62,8.62,0,0,1-.66,2.64l-4.54,12.52c-1.54,4.25-2.56,7.1-4,11.2h-.15c-1.24-3.29-3.29-8.49-4.39-11.2L134,15.95c-1.54-3.88-2.56-4.47-7.39-4.47-3.51,0-5.86.07-5.86,1.17a1.09,1.09,0,0,0,.73,1,7.41,7.41,0,0,1,4,4.17L140.38,54.6c.66,1.61,1.32,1.83,2.42,1.83H144c1.1,0,1.83-.22,2.42-1.83L160,18.88A10.52,10.52,0,0,1,163.73,13.75Z" style="fill:#fff"/><path d="M172.11,55.26c0,1,1.1,1.17,5.12,1.17h24.52c.88,0,1.17-.29,1.17-1.1V51.75c0-.88-.29-1.1-1.17-1.1H190.12c-3.59,0-5.71.07-7,.22V36H197.8c.88,0,1.17-.29,1.17-1.1V31.47c0-.88-.29-1.1-1.17-1.1H183.09V17c1.32.15,3.44.22,7,.22H201c.88,0,1.17-.29,1.17-1.1V12.58c0-.88-.29-1.1-1.17-1.1H177.23c-4,0-5.12.22-5.12,1.17,0,1.46,2.49.8,2.49,5.56V49.7C174.6,54.46,172.11,53.8,172.11,55.26Z" style="fill:#fff"/><path d="M226.31,39.15l10.62,14.06c2,2.64,2.85,3.22,7,3.22,3.73,0,6-.07,6-1.1,0-.37-.15-.59-.59-.88a15.11,15.11,0,0,1-4.61-4.25L235,37.4c5.78-2.2,9.15-5.64,9.15-12.52,0-6.15-3.37-9.52-7.61-11.42-3-1.32-7.69-2-14.5-2H216.2c-4,0-5.12.22-5.12,1.17,0,1.46,2.49.8,2.49,5.56V49.7c0,4.76-2.49,4.1-2.49,5.56,0,1,1.1,1.17,5.12,1.17h3.22c4,0,5.13-.22,5.13-1.17,0-1.46-2.49-.8-2.49-5.56V39.15Zm-4.25-22.4h2.42c6.44,0,10.91,1.76,10.91,8.35,0,5.56-3.22,8.86-13.32,8.86Z" style="fill:#fff"/><path d="M264.89,21.15c0-2.64,2.42-4.17,5.64-4.17a12.1,12.1,0,0,1,8.05,3.51c1.1,1,2,1.9,3.15,1.9,1.76,0,2.93-2,2.93-4.17a4.32,4.32,0,0,0-1.54-3.59C280.41,12.21,275.8,11,271.41,11c-9.08,0-15,4.83-15,11.13,0,13.91,21.52,12.59,21.52,22.4,0,4.39-3.29,6.37-7.1,6.37-7.32,0-9.37-5.71-11.93-5.71-1.83,0-3,2.12-3,4.17a4.18,4.18,0,0,0,1.68,3.66c3.29,2.56,8,3.81,12.67,3.81s9.52-1.39,12.44-4.25a12.13,12.13,0,0,0,3.73-9.08C286.42,29.05,264.89,29.93,264.89,21.15Z" style="fill:#fff"/><path d="M294.17,55.26c0,1,1.1,1.17,5.12,1.17h3.22c4,0,5.12-.22,5.12-1.17,0-1.46-2.49-.8-2.49-5.56V18.22c0-4.76,2.49-4.1,2.49-5.56,0-1-1.1-1.17-5.12-1.17H299.3c-4,0-5.12.22-5.12,1.17,0,1.46,2.49.8,2.49,5.56V49.7C296.66,54.46,294.17,53.8,294.17,55.26Z" style="fill:#fff"/><path d="M334.92,56.43c4,0,5.12-.22,5.12-1.17,0-1.46-2.49-.8-2.49-5.56V17c1.32.15,3.44.22,7,.22h5.49c.88,0,1.17-.29,1.17-1.1V12.58c0-.88-.29-1.1-1.17-1.1H316.55c-.88,0-1.17.22-1.17,1.1v3.59c0,.81.29,1.1,1.17,1.1H322c3.59,0,5.71-.07,7-.22V49.7c0,4.76-2.49,4.1-2.49,5.56,0,1,1.1,1.17,5.13,1.17Z" style="fill:#fff"/><path d="M393.34,11.48c-5.34,0-6.37.15-6.37,1.24,0,.37.22.66.81,1.17A3.15,3.15,0,0,1,389,16.31a6,6,0,0,1-.8,2.64L386.09,23c-2.12,4.1-4,7.83-5.56,11.05h-.15c-1.68-3.59-3.66-7.54-5.42-11.05l-3.51-7c-1.83-3.73-2.86-4.54-7.69-4.54-3.66,0-5.86.07-5.86,1.17a1.09,1.09,0,0,0,.73,1,8.3,8.3,0,0,1,4,4.17l12.15,23.94V49.7c0,4.76-2.49,4.1-2.49,5.56,0,1,1.1,1.17,5.13,1.17h3.22c4,0,5.12-.22,5.12-1.17,0-1.46-2.49-.8-2.49-5.56V41.86l11.79-23a13.78,13.78,0,0,1,4-5.12,1.39,1.39,0,0,0,.66-1.1C399.7,11.63,398.53,11.48,393.34,11.48Z" style="fill:#fff"/></g></g></svg>