<svg id="Layer_1" data-name="Layer 1" xmlns="http://www.w3.org/2000/svg" viewBox="0 0 596.1 214.66"><defs><style>.cls-1{fill:#fff;}</style></defs><title>University of Stirling Sport</title><path class="cls-1" d="M194.66,176.58c0-7.17,6.76-12.68,17.1-12.68,5,0,10.27,1.33,13.35,4.09a4.91,4.91,0,0,1,1.75,4.08c0,2.42-1.33,4.76-3.33,4.76-1.25,0-2.34-1-3.59-2.17a13.8,13.8,0,0,0-9.18-4c-3.67,0-6.42,1.75-6.42,4.75,0,10,24.53,9,24.53,25.53a13.82,13.82,0,0,1-4.26,10.35c-3.34,3.25-8.76,4.84-14.18,4.84s-10.68-1.42-14.43-4.34a4.75,4.75,0,0,1-1.92-4.17c0-2.34,1.33-4.76,3.42-4.76,2.92,0,5.25,6.51,13.6,6.51,4.34,0,8.09-2.26,8.09-7.26,0-11.18-24.53-9.68-24.53-25.53" transform="translate(-1.9 -1.46)"/><path class="cls-1" d="M250.09,191.18c10.76,0,15.36-2.17,15.36-11.18a9.38,9.38,0,0,0-2.51-6.84c-2.09-2.09-5-2.76-8.68-2.76h-4.17Zm1.67-26.78c5.76,0,11.51.58,15.1,2.17a14.06,14.06,0,0,1,8.6,13.26c0,14.86-12,17.27-25.37,17.27V208c0,5.42,2.92,4.67,2.92,6.34,0,1.08-1.25,1.34-6,1.34h-3.58c-4.59,0-5.84-.26-5.84-1.34,0-1.67,2.83-.92,2.83-6.34V172.07c0-5.42-2.83-4.67-2.83-6.34,0-1.08,1.25-1.33,5.84-1.33Z" transform="translate(-1.9 -1.46)"/><path class="cls-1" d="M318.84,190.26v-.5c0-13.52-5.34-18.77-13-18.77s-13,5.25-13,18.77v.5c0,13.52,5.34,18.77,13,18.77s13-5.25,13-18.77m-36-.25c0-17.27,9.42-26.11,23-26.11s23,8.84,23,26.11-9.42,26.11-23,26.11-23-8.84-23-26.11" transform="translate(-1.9 -1.46)"/><path class="cls-1" d="M352.55,170.41H349.8V190c11.51,0,15.18-3.75,15.18-10.09,0-7.51-5.09-9.51-12.43-9.51m12,23.52,11.1,14.6a17.17,17.17,0,0,0,5.25,4.84c.51.34.67.59.67,1,0,1.17-2.58,1.26-6.84,1.26-4.75,0-5.76-.67-8-3.68l-12.1-16H349.8v12c0,5.42,2.83,4.67,2.83,6.34,0,1.08-1.25,1.34-5.84,1.34h-3.67c-4.59,0-5.84-.26-5.84-1.34,0-1.67,2.84-.92,2.84-6.34V172.08c0-5.43-2.84-4.68-2.84-6.35,0-1.08,1.25-1.33,5.84-1.33h6.68c7.75,0,13.09.75,16.51,2.25,4.84,2.17,8.68,6,8.68,13,0,7.84-3.84,11.76-10.43,14.26" transform="translate(-1.9 -1.46)"/><path class="cls-1" d="M421.05,164.4c1,0,1.33.25,1.33,1.25v4.09c0,.92-.33,1.25-1.33,1.25h-6.26c-4.09,0-6.51-.08-8-.25V208c0,5.42,2.83,4.67,2.83,6.34,0,1.08-1.25,1.34-5.83,1.34h-3.67c-4.6,0-5.85-.26-5.85-1.34,0-1.67,2.84-.92,2.84-6.34V170.74c-1.5.17-3.92.25-8,.25h-6.26c-1,0-1.33-.33-1.33-1.25v-4.09c0-1,.33-1.25,1.33-1.25Z" transform="translate(-1.9 -1.46)"/><path class="cls-1" d="M2.64,90.32c0-9.09,8.57-16.07,21.67-16.07,6.35,0,13,1.69,16.91,5.18a6.25,6.25,0,0,1,2.23,5.18c0,3.07-1.7,6-4.24,6-1.58,0-3-1.27-4.54-2.75A17.45,17.45,0,0,0,23,82.82c-4.64,0-8.13,2.21-8.13,6,0,12.68,31.07,11.42,31.07,32.35a17.49,17.49,0,0,1-5.39,13.1c-4.23,4.13-11.1,6.14-18,6.14s-13.53-1.8-18.28-5.5a6,6,0,0,1-2.44-5.29c0-3,1.7-6,4.34-6,3.7,0,6.66,8.25,17.23,8.25,5.5,0,10.25-2.86,10.25-9.2,0-14.17-31.08-12.26-31.08-32.35" transform="translate(-1.9 -1.46)"/><path class="cls-1" d="M102.75,74.89c1.27,0,1.69.32,1.69,1.58v5.18c0,1.16-.42,1.59-1.69,1.59H94.82c-5.18,0-8.24-.11-10.15-.32v47.15c0,6.87,3.6,5.92,3.6,8,0,1.37-1.59,1.69-7.4,1.69H76.22c-5.81,0-7.4-.32-7.4-1.69,0-2.11,3.59-1.16,3.59-8V82.92c-1.9.21-5,.32-10.14.32H54.34c-1.27,0-1.69-.43-1.69-1.59V76.47c0-1.26.42-1.58,1.69-1.58Z" transform="translate(-1.9 -1.46)"/><path class="cls-1" d="M129.71,130.07c0,6.87,3.6,5.92,3.6,8,0,1.37-1.59,1.69-7.4,1.69h-4.65c-5.82,0-7.4-.32-7.4-1.69,0-2.11,3.59-1.16,3.59-8V84.61c0-6.87-3.59-5.92-3.59-8,0-1.37,1.58-1.69,7.4-1.69h4.65c5.81,0,7.4.32,7.4,1.69,0,2.11-3.6,1.16-3.6,8Z" transform="translate(-1.9 -1.46)"/><path class="cls-1" d="M165.66,82.5h-3.49v24.84c14.58,0,19.23-4.76,19.23-12.79,0-9.51-6.44-12-15.74-12m15.22,29.81,14.05,18.5a22.12,22.12,0,0,0,6.66,6.13c.64.42.85.74.85,1.27,0,1.47-3.28,1.58-8.67,1.58-6,0-7.29-.84-10.15-4.65l-15.32-20.3h-6.13v15.23c0,6.87,3.59,5.92,3.59,8,0,1.37-1.58,1.69-7.39,1.69h-4.66c-5.81,0-7.4-.32-7.4-1.69,0-2.11,3.59-1.16,3.59-8V84.61c0-6.87-3.59-5.92-3.59-8,0-1.37,1.59-1.69,7.4-1.69h8.46c9.83,0,16.59,1,20.93,2.85,6.12,2.75,11,7.61,11,16.49,0,9.94-4.87,14.91-13.21,18.08" transform="translate(-1.9 -1.46)"/><path class="cls-1" d="M251.81,131.44c1.27,0,1.69.32,1.69,1.59v5.18c0,1.16-.42,1.58-1.69,1.58h-33c-5.81,0-7.39-.32-7.39-1.69,0-2.11,3.58-1.16,3.58-8V84.61c0-6.87-3.58-5.92-3.58-8,0-1.37,1.58-1.69,7.39-1.69h4.66c5.81,0,7.39.32,7.39,1.69,0,2.11-3.59,1.16-3.59,8v47.15c1.9-.21,5-.32,10.14-.32Z" transform="translate(-1.9 -1.46)"/><path class="cls-1" d="M280,130.07c0,6.87,3.59,5.92,3.59,8,0,1.37-1.58,1.69-7.39,1.69h-4.65c-5.82,0-7.4-.32-7.4-1.69,0-2.11,3.59-1.16,3.59-8V84.61c0-6.87-3.59-5.92-3.59-8,0-1.37,1.58-1.69,7.4-1.69h4.65c5.81,0,7.39.32,7.39,1.69,0,2.11-3.59,1.16-3.59,8Z" transform="translate(-1.9 -1.46)"/><path class="cls-1" d="M343.89,118.23V84.61c0-6.87-3.6-5.92-3.6-8,0-1.37,1.59-1.69,7.4-1.69h1.8c5.81,0,7.4.32,7.4,1.69,0,2.11-3.59,1.16-3.59,8v53.28c0,1.37-.64,1.9-3.7,1.9H349c-2.75,0-3.17-.32-4.33-1.8L314.18,99.41c-1.47-1.9-3.27-4.23-4.33-5.71h-.21v36.37c0,6.87,3.59,5.92,3.59,8,0,1.37-1.58,1.69-7.4,1.69H304c-5.81,0-7.4-.32-7.4-1.69,0-2.11,3.59-1.16,3.59-8V84.61c0-6.87-3.59-5.92-3.59-8,0-1.37,1.59-1.69,7.4-1.69h.63c5.08,0,5.71,1,8.78,4.75l25.89,32.88c1.48,1.9,3.28,4.23,4.34,5.71Z" transform="translate(-1.9 -1.46)"/><path class="cls-1" d="M399.29,83c-9.1,0-17.76,7.5-17.76,23.68,0,17.75,7.61,25.26,20.08,25.26a24.25,24.25,0,0,0,9.2-1.8V117.91c0-3.81-.74-5-2.54-6.34-.85-.64-1.06-.95-1.06-1.59,0-1.48,2.12-1.79,7.61-1.79h1.7c5.59,0,6.12.31,6.12,2.64v20.4a4.65,4.65,0,0,1-2.74,4.65c-5.39,3-12.48,4.54-19.66,4.54-20.83,0-31.4-12.47-31.4-32.87,0-19.77,11.21-33.3,30.66-33.3,8.14,0,14.9,2.12,18.49,5.29a6.8,6.8,0,0,1,2.43,5.6c0,3.28-1.79,6.13-4.54,6.13-4.76,0-6.45-8.24-16.59-8.24" transform="translate(-1.9 -1.46)"/><path class="cls-1" d="M598,83h0V1.46H469.14V83a13.12,13.12,0,0,0,0,1.59,30.22,30.22,0,0,0,.75,5.13,46.28,46.28,0,0,0,3.76,10.2c.37.75.78,1.53,1.22,2.33a71.78,71.78,0,0,0,6.69,9.85c.42.53.85,1,1.3,1.58a97.88,97.88,0,0,0,7.37,7.79c.78.74,1.58,1.48,2.42,2.23,9.4,8.43,22.54,17.48,40.91,26.44,18.37-9,31.51-18,40.91-26.44.83-.75,1.64-1.49,2.41-2.23a96.32,96.32,0,0,0,7.38-7.79l1.3-1.58a71.63,71.63,0,0,0,6.68-9.85c.44-.8.85-1.58,1.23-2.33a46.17,46.17,0,0,0,3.75-10.2A29.45,29.45,0,0,0,598,84.6,13.12,13.12,0,0,0,598,83M497.35,123.74a101.15,101.15,0,0,1-12.07-11.94,8.24,8.24,0,0,1,5.36-1.77c3.22,0,4.74,1.24,6.51,2.67s3.86,3.12,7.8,3.12,6-1.66,7.8-3.12a9.58,9.58,0,0,1,4.92-2.55v11.42a11.57,11.57,0,0,0-6.21,3c-1.77,1.43-3.3,2.66-6.51,2.66s-4.74-1.23-6.51-2.66c-.35-.29-.71-.58-1.09-.86m36.21,23a195.76,195.76,0,0,1-29.15-17.45l.54,0c3.94,0,6-1.66,7.8-3.12a9.59,9.59,0,0,1,4.92-2.56v5.69l.47.3c2.78,1.76,5.48,1.47,8.09,1.19,2.37-.25,4.6-.49,6.78.89l.55.35.54-.35c2.18-1.38,4.42-1.14,6.78-.89,2.61.28,5.31.57,8.09-1.19l.48-.3v-5.69a9.66,9.66,0,0,1,4.93,2.56c1.81,1.46,3.85,3.12,7.79,3.12l.54,0a196.79,196.79,0,0,1-29.15,17.45m-13.85-18.57V108h0a9.44,9.44,0,0,0,3.29.6,26.39,26.39,0,0,0,3.22-.2c2.2-.24,4.28-.46,6.31.61v20.17a9.42,9.42,0,0,0-3-.6H529a29,29,0,0,0-3,.21c-2.19.23-4.27.46-6.3-.61m14.87,1V109c2-1.07,4.11-.85,6.3-.61a24.68,24.68,0,0,0,3.23.2,9.58,9.58,0,0,0,3.28-.6h0v20.17c-2,1.07-4.1.84-6.3.61a23.93,23.93,0,0,0-3.5-.2,9.37,9.37,0,0,0-3,.6m35.15-5.42-1.05.84c-1.77,1.43-3.29,2.66-6.51,2.66s-4.74-1.23-6.51-2.66a11.53,11.53,0,0,0-6.21-3V110.14a9.73,9.73,0,0,1,4.93,2.56c1.81,1.46,3.85,3.12,7.79,3.12s6-1.66,7.8-3.12,3.29-2.67,6.51-2.67a8.24,8.24,0,0,1,5.36,1.77,101.72,101.72,0,0,1-12.11,12m18.4-20.55a71.94,71.94,0,0,1-5,7,10.41,10.41,0,0,0-6.66-2.23c-3.94,0-6,1.66-7.8,3.12s-3.29,2.67-6.51,2.67-4.74-1.24-6.51-2.67a11.53,11.53,0,0,0-6.21-3v-3.61l-1,.61-.6.38c-2.18,1.39-4.41,1.15-6.78.89s-5-.53-7.54.88c-2.59-1.41-5.1-1.14-7.55-.88s-4.6.5-6.77-.89l-.6-.38-1-.61v3.61a11.56,11.56,0,0,0-6.21,3c-1.77,1.43-3.3,2.67-6.51,2.67s-4.74-1.24-6.51-2.67-3.86-3.12-7.8-3.12a10.37,10.37,0,0,0-6.66,2.23,68.68,68.68,0,0,1-5-7l-.63-1a11.77,11.77,0,0,0,5.77-3c1.77-1.43,3.3-2.66,6.51-2.66s4.74,1.23,6.51,2.66,3.86,3.13,7.8,3.13,6-1.66,7.8-3.13,3.29-2.66,6.51-2.66,4.74,1.23,6.5,2.66,3.86,3.13,7.8,3.13,6-1.66,7.8-3.13,3.29-2.66,6.51-2.66,4.74,1.23,6.51,2.66,3.85,3.13,7.79,3.13,6-1.66,7.8-3.13,3.29-2.66,6.51-2.66,4.74,1.23,6.51,2.66a11.87,11.87,0,0,0,5.76,3l-.62,1M594.91,83v1.48a25.76,25.76,0,0,1-.61,4.26,44.46,44.46,0,0,1-4.46,11.5,9.28,9.28,0,0,1-5.56-2.63c-1.81-1.46-3.86-3.12-7.8-3.12s-6,1.66-7.8,3.12-3.29,2.67-6.51,2.67-4.74-1.23-6.51-2.67-3.85-3.12-7.79-3.12-6,1.66-7.8,3.12-3.29,2.67-6.51,2.67-4.74-1.23-6.51-2.67-3.86-3.12-7.79-3.12-6,1.66-7.8,3.12-3.3,2.67-6.51,2.67-4.74-1.23-6.51-2.67-3.86-3.12-7.8-3.12-6,1.66-7.79,3.12c-1.59,1.29-3,2.41-5.57,2.63a44.48,44.48,0,0,1-4.47-11.51,26.66,26.66,0,0,1-.61-4.25V76.14a3.88,3.88,0,0,1,7.75,0V88.71h11.41V73.59a3.88,3.88,0,0,1,7.75,0V88.71h11.41V71a3.88,3.88,0,0,1,7.75,0V88.71h11.41V68.48a3.88,3.88,0,1,1,7.75,0V88.71h11.41V71a3.88,3.88,0,0,1,7.75,0V88.71H568V73.59a3.87,3.87,0,0,1,7.74,0V88.71h11.42V76.14a3.87,3.87,0,1,1,7.74,0Zm0-12.62A6.86,6.86,0,0,0,591,69.2a7,7,0,0,0-6.94,6.94v9.51h-5.28V73.59a6.94,6.94,0,0,0-13.88,0V85.65h-5.28V71a6.94,6.94,0,1,0-13.88,0V85.65H540.5V68.48a6.94,6.94,0,0,0-13.88,0V85.65h-5.28V71a6.94,6.94,0,0,0-13.88,0V85.65h-5.28V73.59a6.94,6.94,0,0,0-13.88,0V85.65H483V76.14a6.94,6.94,0,0,0-10.82-5.75V67.22a123.43,123.43,0,0,1,122.71,0ZM527.79,17.23c.73-.07,1.49-.12,2.32-.16l1.45-.07V14.13c1.36,0,2.61,0,4,0V17l1.46.07c.85.05,1.61.1,2.33.16l1.66.13v-3c1.39.08,2.8.19,4.21.32v8.55c-3.89-.3-7.79-.45-11.63-.45s-7.75.15-11.64.45V14.66c1.41-.13,2.81-.24,4.21-.32v3Zm-4.9,9c3.56-.26,7.14-.39,10.67-.39s7.09.13,10.66.39l-1.57,3.05L545,48.09c-3.8-.34-7.63-.51-11.41-.51s-7.6.17-11.41.51l2.31-18.83Zm72,38.06a124.12,124.12,0,0,0-46.72-15.09l-2.38-19.35,2.44-4.77V11.89l-1.37-.15c-2.47-.25-4.94-.44-7.37-.55l-1.6-.08h0l-.8,0c-1.26,0-2.42,0-3.56,0s-2.3,0-3.56,0l-.8,0h0l-1.6.08c-2.42.11-4.9.3-7.36.55l-1.37.15V25.06l2.43,4.76-2.36,19.36A124.17,124.17,0,0,0,472.2,64.27V4.53H594.91Z" transform="translate(-1.9 -1.46)"/><path class="cls-1" d="M564.87,39.13c2.36-.25,4.6-.49,6.78.89l.54.35.55-.35c2.18-1.38,4.41-1.14,6.78-.89,2.61.28,5.31.57,8.09-1.19l.48-.3V12.8l-1.58,1c-2.17,1.39-4.41,1.15-6.77.89s-5-.53-7.55.88c-2.58-1.41-5.1-1.14-7.54-.88s-4.6.5-6.78-.89l-1.57-1V37.64l.48.3c2.78,1.76,5.48,1.47,8.09,1.19m8.34-21.8c2-1.07,4.12-.85,6.31-.61a13.47,13.47,0,0,0,6.52-.4V36.49c-2,1.07-4.11.85-6.3.61a13.39,13.39,0,0,0-6.53.4Zm-14.86-1a13.47,13.47,0,0,0,6.52.4c2.19-.24,4.27-.46,6.3.61V37.51a9.59,9.59,0,0,0-3.56-.62,29,29,0,0,0-3,.21c-2.19.24-4.28.46-6.3-.61Z" transform="translate(-1.9 -1.46)"/><path class="cls-1" d="M560.19,21.26a6.56,6.56,0,0,0,4.58.68,5.45,5.45,0,0,1,3.76.49.61.61,0,0,0,.34.1.64.64,0,0,0,.54-.29.65.65,0,0,0-.19-.89,6.64,6.64,0,0,0-4.59-.68,5.41,5.41,0,0,1-3.76-.49.64.64,0,0,0-.88.2.64.64,0,0,0,.2.88" transform="translate(-1.9 -1.46)"/><path class="cls-1" d="M560.19,26.86a6.56,6.56,0,0,0,4.58.68,5.45,5.45,0,0,1,3.76.49.61.61,0,0,0,.34.1.62.62,0,0,0,.54-.3.64.64,0,0,0-.19-.88,6.64,6.64,0,0,0-4.59-.68,5.41,5.41,0,0,1-3.76-.49.64.64,0,0,0-.88.2.64.64,0,0,0,.2.88" transform="translate(-1.9 -1.46)"/><path class="cls-1" d="M564.77,33.14a5.45,5.45,0,0,1,3.76.49.64.64,0,0,0,.88-.19.65.65,0,0,0-.2-.89,6.59,6.59,0,0,0-4.57-.68,5.43,5.43,0,0,1-3.77-.49.65.65,0,0,0-.88.2.63.63,0,0,0,.2.88,6.61,6.61,0,0,0,4.58.68" transform="translate(-1.9 -1.46)"/><path class="cls-1" d="M579.62,33.14a6.61,6.61,0,0,0,4.58-.68.63.63,0,0,0,.19-.88.64.64,0,0,0-.88-.2,5.39,5.39,0,0,1-3.76.49,6.62,6.62,0,0,0-4.58.68.64.64,0,0,0,.35,1.18.63.63,0,0,0,.34-.1,5.45,5.45,0,0,1,3.76-.49" transform="translate(-1.9 -1.46)"/><path class="cls-1" d="M575.52,28.13a.63.63,0,0,0,.34-.1,5.45,5.45,0,0,1,3.76-.49,6.56,6.56,0,0,0,4.58-.68.63.63,0,0,0,.19-.88.64.64,0,0,0-.88-.2,5.39,5.39,0,0,1-3.76.49,6.57,6.57,0,0,0-4.58.69.63.63,0,0,0,.35,1.17" transform="translate(-1.9 -1.46)"/><path class="cls-1" d="M575.52,22.53a.63.63,0,0,0,.34-.1,5.45,5.45,0,0,1,3.76-.49,6.51,6.51,0,0,0,4.58-.68.64.64,0,1,0-.69-1.07,5.45,5.45,0,0,1-3.76.48,6.62,6.62,0,0,0-4.58.68.67.67,0,0,0-.2.89.65.65,0,0,0,.55.29" transform="translate(-1.9 -1.46)"/><path class="cls-1" d="M488.08,39.13c2.37-.25,4.6-.49,6.78.89l.55.35L496,40c2.18-1.38,4.41-1.14,6.78-.89,2.61.28,5.31.57,8.09-1.19l.48-.3V12.8l-1.57,1c-2.18,1.39-4.41,1.15-6.78.89s-5-.53-7.54.88c-2.59-1.41-5.11-1.14-7.55-.88s-4.6.5-6.77-.89l-1.57-1V37.64l.47.3c2.78,1.76,5.48,1.47,8.09,1.19m8.35-21.8c2-1.07,4.11-.85,6.3-.61a13.6,13.6,0,0,0,6.52-.4V36.49c-2,1.07-4.11.85-6.3.61a13.35,13.35,0,0,0-6.52.4Zm-14.87-1a13.47,13.47,0,0,0,6.52.4c2.2-.24,4.28-.46,6.31.61V37.51a9.67,9.67,0,0,0-3.57-.62,29,29,0,0,0-3,.21c-2.19.24-4.27.46-6.3-.61Z" transform="translate(-1.9 -1.46)"/><path class="cls-1" d="M483.4,21.26a6.56,6.56,0,0,0,4.58.68,5.45,5.45,0,0,1,3.76.49.63.63,0,0,0,.34.1.62.62,0,0,0,.54-.29.65.65,0,0,0-.19-.89,6.61,6.61,0,0,0-4.58-.68,5.39,5.39,0,0,1-3.76-.49.63.63,0,0,0-.88.2.64.64,0,0,0,.19.88" transform="translate(-1.9 -1.46)"/><path class="cls-1" d="M483.4,26.86a6.56,6.56,0,0,0,4.58.68,5.45,5.45,0,0,1,3.76.49.63.63,0,0,0,.34.1.61.61,0,0,0,.54-.3.64.64,0,0,0-.19-.88,6.61,6.61,0,0,0-4.58-.68,5.39,5.39,0,0,1-3.76-.49.63.63,0,0,0-.88.2.64.64,0,0,0,.19.88" transform="translate(-1.9 -1.46)"/><path class="cls-1" d="M488,33.14a5.45,5.45,0,0,1,3.76.49.63.63,0,0,0,.34.1.64.64,0,0,0,.35-1.18,6.62,6.62,0,0,0-4.58-.68,5.39,5.39,0,0,1-3.76-.49.64.64,0,0,0-.88.2.63.63,0,0,0,.19.88,6.61,6.61,0,0,0,4.58.68" transform="translate(-1.9 -1.46)"/><path class="cls-1" d="M502.83,33.14a6.61,6.61,0,0,0,4.58-.68.63.63,0,0,0,.2-.88.66.66,0,0,0-.89-.2,5.39,5.39,0,0,1-3.76.49,6.59,6.59,0,0,0-4.57.68.65.65,0,0,0-.2.89.64.64,0,0,0,.88.19,5.46,5.46,0,0,1,3.76-.49" transform="translate(-1.9 -1.46)"/><path class="cls-1" d="M498.73,28.13a.63.63,0,0,0,.34-.1,5.45,5.45,0,0,1,3.76-.49,6.51,6.51,0,0,0,4.58-.68.63.63,0,0,0,.2-.88.66.66,0,0,0-.89-.2,5.39,5.39,0,0,1-3.76.49,6.54,6.54,0,0,0-4.57.69.63.63,0,0,0,.34,1.17" transform="translate(-1.9 -1.46)"/><path class="cls-1" d="M498.73,22.53a.63.63,0,0,0,.34-.1,5.45,5.45,0,0,1,3.76-.49,6.51,6.51,0,0,0,4.58-.68.63.63,0,0,0,.2-.88.64.64,0,0,0-.89-.19,5.45,5.45,0,0,1-3.76.48,6.59,6.59,0,0,0-4.57.68.65.65,0,0,0-.2.89.64.64,0,0,0,.54.29" transform="translate(-1.9 -1.46)"/><path class="cls-1" d="M536.61,39.72l-1.15-9.35h-3.81L530.5,39.7l2.71,0c1.13,0,2.27,0,3.4,0" transform="translate(-1.9 -1.46)"/><path class="cls-1" d="M521.55,112.94a6.59,6.59,0,0,0,4.59.68l.71-.07a4.71,4.71,0,0,1,3,.56.59.59,0,0,0,.34.1.63.63,0,0,0,.54-.3.59.59,0,0,0,.07-.5.64.64,0,0,0-.27-.38,5,5,0,0,0-2-.72,9.93,9.93,0,0,0-2.62,0l-.59.06a4.73,4.73,0,0,1-3.17-.55.64.64,0,0,0-.69,1.08" transform="translate(-1.9 -1.46)"/><path class="cls-1" d="M521.55,118.54a6.64,6.64,0,0,0,4.59.68,5.46,5.46,0,0,1,3.76.49.59.59,0,0,0,.34.1.64.64,0,0,0,.34-1.18A6.61,6.61,0,0,0,526,118a5.39,5.39,0,0,1-3.76-.49.64.64,0,0,0-.69,1.08" transform="translate(-1.9 -1.46)"/><path class="cls-1" d="M527.21,124.73a4.34,4.34,0,0,1,2.69.58.59.59,0,0,0,.34.1.67.67,0,0,0,.54-.29.65.65,0,0,0-.2-.89,6.43,6.43,0,0,0-.68-.36,7.35,7.35,0,0,0-3.9-.32l-.26,0a5,5,0,0,1-3.5-.52.63.63,0,0,0-.88.2.61.61,0,0,0-.09.45.43.43,0,0,0,.05.16.67.67,0,0,0,.23.27,5.18,5.18,0,0,0,2.56.79,13.24,13.24,0,0,0,2-.11l1.08-.09" transform="translate(-1.9 -1.46)"/><path class="cls-1" d="M539.91,124.73l1.07.09a13.38,13.38,0,0,0,2,.11,5.25,5.25,0,0,0,2.55-.79.62.62,0,0,0,.24-.27.75.75,0,0,0,.05-.16.66.66,0,0,0-.09-.45.63.63,0,0,0-.88-.2,5,5,0,0,1-3.5.52l-.26,0a7.35,7.35,0,0,0-3.9.32,4.94,4.94,0,0,0-.68.36.65.65,0,0,0-.2.89.66.66,0,0,0,.54.29.59.59,0,0,0,.34-.1,4.32,4.32,0,0,1,2.69-.58" transform="translate(-1.9 -1.46)"/><path class="cls-1" d="M536.88,119.81a.61.61,0,0,0,.34-.1,5.45,5.45,0,0,1,3.76-.49,6.56,6.56,0,0,0,4.58-.68.64.64,0,0,0-.68-1.08,5.46,5.46,0,0,1-3.76.49,6.61,6.61,0,0,0-4.58.68.64.64,0,0,0-.2.88.62.62,0,0,0,.54.3" transform="translate(-1.9 -1.46)"/><path class="cls-1" d="M536.88,114.21a.61.61,0,0,0,.34-.1,4.67,4.67,0,0,1,3.06-.56l.7.07a6.61,6.61,0,0,0,4.58-.68.64.64,0,0,0-.68-1.08,4.73,4.73,0,0,1-3.17.55c-.2,0-.39,0-.59-.06a9.86,9.86,0,0,0-2.61,0,5,5,0,0,0-2,.72.64.64,0,0,0-.2.89.64.64,0,0,0,.54.29" transform="translate(-1.9 -1.46)"/><path class="cls-1" d="M384.09,52.6a13,13,0,0,1-5.49-1.11A10,10,0,0,1,373,44.77a17.13,17.13,0,0,1-.29-6.8,17.35,17.35,0,0,1,3-7.78,15,15,0,0,1,9.7-6.33,13.89,13.89,0,0,1,7.48.43,10,10,0,0,1,6.54,7.2,16.61,16.61,0,0,1,.37,5.71,17.62,17.62,0,0,1-2.29,7.45,15.13,15.13,0,0,1-11.95,7.86c-.5.06-1,.07-1.49.09m-4.79-11c.05.5.11,1.42.26,2.33a4.8,4.8,0,0,0,2.12,3.43,6.1,6.1,0,0,0,6.7-.47,11,11,0,0,0,3.17-4.19,19,19,0,0,0,1.5-6,15.25,15.25,0,0,0-.2-4.62,4.79,4.79,0,0,0-1.64-2.92,5.52,5.52,0,0,0-6-.54,8.29,8.29,0,0,0-3.81,3.84,19,19,0,0,0-2.11,9.12m35-13.42c.15,0,6,0,6.84,0,.73,0,.91-.22,1.06-.94l.39-2.11c.19-1,.05-1.15-.95-1.15h-5.9c-.08,0-.62.07-.83-.26a2.58,2.58,0,0,1,0-1.33c.82-4.75,1.05-6.06,2.92-6.62,2.43-.73,5.27.9,5.91,1.06s.87,0,1.12-.57a14,14,0,0,0,.64-2.09,1.32,1.32,0,0,0-.71-1.58,5.32,5.32,0,0,0-1-.46,13.35,13.35,0,0,0-7.74-.4,9.74,9.74,0,0,0-4,2.23c-2.33,2.17-2.65,4.15-3.28,8.27-.13.86-.27,1.74-.27,1.74h-3.25a4.32,4.32,0,0,0-.62.05.77.77,0,0,0-.73.64c-.19.95-.38,1.9-.53,2.86-.08.43.07.59.51.64a4.48,4.48,0,0,0,.73,0l3.32,0h1" transform="translate(-1.9 -1.46)"/><path class="cls-1" d="M414.3,28c-.81,11.07-2,19.36-2.55,22.35a18.34,18.34,0,0,1-1.49,5,11.5,11.5,0,0,1-1.65,2.73c-1.74,2.13-6.38,3.69-8.92,3.33-.42-.06-1.21-.11-1.48-.85a1.66,1.66,0,0,1,.11-1.3c.75-1.05,2.34-.34,3.58-.63,3-.72,3.79-7.47,4-9.2.8-7.24,1.53-14.57,2.15-22.18Z" transform="translate(-1.9 -1.46)"/><path class="cls-1" d="M8.89,11.8c3.49,0,3.82.2,3.82,1.65V38.88c0,3.37.33,5.28,1.91,6.53C16,46.46,18.05,47.06,21,47.06s4.68-.53,5.93-1.65c1.58-1.32,2-3.36,2-6.53V13.45c0-1.45.2-1.65,3.69-1.65s3.69.2,3.69,1.65v26c0,4-.79,7.05-3.36,9.49s-6.59,3.69-12,3.69c-5.6,0-9.69-1.19-12.33-3.62S5.06,43.3,5.06,39.48V17.86c0-4.28-2.24-3.69-2.24-5,0-.85,1-1,4.62-1Z" transform="translate(-1.9 -1.46)"/><path class="cls-1" d="M75.09,38.82v-21c0-4.28-2.24-3.69-2.24-5,0-.85,1-1,4.61-1h1.12c3.63,0,4.61.2,4.61,1,0,1.32-2.24.73-2.24,5V51.08c0,.85-.39,1.18-2.31,1.18h-.39c-1.71,0-2-.19-2.7-1.12l-19-24c-.92-1.19-2-2.64-2.7-3.56h-.14V46.2c0,4.28,2.25,3.69,2.25,5,0,.86-1,1-4.62,1H50.24c-3.62,0-4.61-.19-4.61-1,0-1.32,2.24-.73,2.24-5V17.86c0-4.28-2.24-3.69-2.24-5,0-.85,1-1,4.61-1h.4c3.16,0,3.56.59,5.47,3l16.14,20.5c.93,1.19,2,2.64,2.71,3.56Z" transform="translate(-1.9 -1.46)"/><path class="cls-1" d="M101.35,46.2c0,4.28,2.24,3.69,2.24,5,0,.86-1,1-4.61,1h-2.9c-3.63,0-4.62-.19-4.62-1,0-1.32,2.24-.73,2.24-5V17.86c0-4.28-2.24-3.69-2.24-5,0-.85,1-1,4.62-1H99c3.62,0,4.61.2,4.61,1,0,1.32-2.24.73-2.24,5Z" transform="translate(-1.9 -1.46)"/><path class="cls-1" d="M139.81,18.52a7.69,7.69,0,0,0,.59-2.37A2.86,2.86,0,0,0,139.28,14c-.53-.46-.72-.72-.72-1.05,0-1,.85-1.12,5.66-1.12s5.67.13,5.67,1a1.25,1.25,0,0,1-.59,1,9.53,9.53,0,0,0-3.37,4.61L133.68,50.62c-.53,1.44-1.19,1.64-2.18,1.64h-1.05c-1,0-1.58-.2-2.18-1.64L114.83,17.53a6.68,6.68,0,0,0-3.56-3.75,1,1,0,0,1-.66-.93c0-1,2.11-1,5.28-1,4.34,0,5.27.53,6.65,4l5.53,14c1,2.44,2.84,7.12,4,10.09h.13c1.25-3.7,2.18-6.27,3.56-10.09Z" transform="translate(-1.9 -1.46)"/><path class="cls-1" d="M166.72,47.26a61.67,61.67,0,0,1,6.33-.2h10.48c.79,0,1.05.2,1.05,1v3.22c0,.73-.26,1-1.05,1H161.45c-3.62,0-4.61-.19-4.61-1,0-1.32,2.24-.73,2.24-5V17.86c0-4.28-2.24-3.69-2.24-5,0-.85,1-1,4.61-1h21.42c.79,0,1,.2,1,1V16c0,.72-.26,1-1,1h-9.82c-3.23,0-5.14-.07-6.33-.2v12H180c.79,0,1.05.2,1.05,1v3.1c0,.72-.26,1-1.05,1H166.72Z" transform="translate(-1.9 -1.46)"/><path class="cls-1" d="M213.47,35.13l8.76,11.53a13.53,13.53,0,0,0,4.16,3.83c.39.26.52.46.52.78,0,.93-2,1-5.4,1-3.76,0-4.55-.52-6.33-2.9l-9.55-12.65H201.8V46.2c0,4.29,2.25,3.69,2.25,5,0,.86-1,1-4.62,1h-2.9c-3.62,0-4.61-.19-4.61-1,0-1.32,2.24-.72,2.24-5V17.86c0-4.28-2.24-3.69-2.24-5,0-.86,1-1.06,4.61-1.06h5.27c6.13,0,10.35.59,13,1.78,3.82,1.71,6.86,4.74,6.86,10.28,0,6.2-3,9.29-8.24,11.27M204,16.55H201.8V32c9.1,0,12-3,12-8,0-5.93-4-7.51-9.82-7.51" transform="translate(-1.9 -1.46)"/><path class="cls-1" d="M232.72,21.42c0-5.67,5.34-10,13.51-10,4,0,8.1,1.06,10.54,3.23a3.9,3.9,0,0,1,1.39,3.23c0,1.91-1.06,3.76-2.64,3.76-1,0-1.85-.79-2.83-1.71a10.89,10.89,0,0,0-7.25-3.17c-2.9,0-5.08,1.39-5.08,3.76,0,7.91,19.38,7.12,19.38,20.17a11,11,0,0,1-3.36,8.17c-2.64,2.57-6.92,3.82-11.21,3.82a18.85,18.85,0,0,1-11.4-3.43,3.75,3.75,0,0,1-1.51-3.29c0-1.85,1.05-3.76,2.7-3.76,2.31,0,4.15,5.14,10.74,5.14,3.43,0,6.39-1.78,6.39-5.73,0-8.83-19.37-7.65-19.37-20.17" transform="translate(-1.9 -1.46)"/><path class="cls-1" d="M276.6,46.2c0,4.28,2.24,3.69,2.24,5,0,.86-1,1-4.61,1h-2.9c-3.62,0-4.61-.19-4.61-1,0-1.32,2.24-.73,2.24-5V17.86c0-4.28-2.24-3.69-2.24-5,0-.85,1-1,4.61-1h2.9c3.63,0,4.61.2,4.61,1,0,1.32-2.24.73-2.24,5Z" transform="translate(-1.9 -1.46)"/><path class="cls-1" d="M317.05,11.8c.78,0,1.05.2,1.05,1V16c0,.72-.27,1-1.05,1H312.1c-3.23,0-5.14-.07-6.32-.2V46.2c0,4.28,2.24,3.69,2.24,5,0,.86-1,1-4.62,1h-2.9c-3.62,0-4.61-.19-4.61-1,0-1.32,2.24-.73,2.24-5V16.81c-1.18.13-3.1.2-6.33.2h-4.94c-.79,0-1.05-.27-1.05-1V12.79c0-.79.26-1,1.05-1Z" transform="translate(-1.9 -1.46)"/><path class="cls-1" d="M361.72,12.85a1.25,1.25,0,0,1-.59,1,12.42,12.42,0,0,0-3.56,4.62L347,39.15V46.2c0,4.28,2.24,3.69,2.24,5,0,.86-1,1-4.61,1h-2.9c-3.63,0-4.62-.19-4.62-1,0-1.32,2.24-.73,2.24-5V39.08L328.38,17.53a7.5,7.5,0,0,0-3.63-3.75,1,1,0,0,1-.66-.93c0-1,2-1,5.27-1,4.35,0,5.28.72,6.92,4.09l3.17,6.32c1.58,3.16,3.36,6.72,4.87,9.95h.13c1.39-2.89,3.1-6.26,5-9.95l1.91-3.69a5.24,5.24,0,0,0,.73-2.37A2.86,2.86,0,0,0,351,14c-.53-.46-.73-.72-.73-1.05,0-1,.93-1.12,5.74-1.12s5.73.13,5.73,1" transform="translate(-1.9 -1.46)"/></svg>