<?xml version="1.0" encoding="utf-8"?>
<!-- Generator: Adobe Illustrator 21.1.0, SVG Export Plug-In . SVG Version: 6.00 Build 0)  -->
<svg version="1.1" id="Layer_1" xmlns="http://www.w3.org/2000/svg" xmlns:xlink="http://www.w3.org/1999/xlink" x="0px" y="0px"
	 width="522px" height="47px" viewBox="0 0 522 47" style="enable-background:new 0 0 522 47;" xml:space="preserve">
<style type="text/css">
	.st0{fill:#76BD22;}
</style>
<g>
	<path class="st0" d="M25.6,17.6h-5.2v8.2c0,2.3,0.5,2.8,4.3,2.8h0.8c5.1,0,7-2.4,7-5.9C32.4,18.9,30.1,17.6,25.6,17.6 M23.5,4.1
		h-3.2v9.7H25c3.7,0,5.8-1.8,5.8-5C30.7,5,27.9,4.1,23.5,4.1 M12.5,31.6c0-1,1.8-0.6,1.8-4V5.1c0-3.4-1.8-2.9-1.8-4
		c0-0.7,0.8-0.8,3.7-0.8h8.5c2,0,4.9,0.3,6.8,0.9c2.8,0.9,4.9,3.5,4.9,6.9c0,3.5-1.4,6.3-5.3,7.2v0.1c4.8,0.4,7.6,3.1,7.6,7.5
		c0,7.4-5.9,9.6-14.1,9.6h-8.4C13.3,32.4,12.5,32.3,12.5,31.6 M51.3,28.5c0.9-0.1,2.5-0.2,5-0.2h8.3c0.6,0,0.8,0.2,0.8,0.8v2.6
		c0,0.6-0.2,0.8-0.8,0.8H47.1c-2.9,0-3.7-0.2-3.7-0.8c0-1,1.8-0.6,1.8-4V5.1c0-3.4-1.8-2.9-1.8-4c0-0.7,0.8-0.8,3.7-0.8h17
		c0.6,0,0.8,0.2,0.8,0.8v2.6c0,0.6-0.2,0.8-0.8,0.8h-7.8c-2.6,0-4.1-0.1-5-0.2v9.5h10.5c0.6,0,0.8,0.2,0.8,0.8v2.5
		c0,0.6-0.2,0.8-0.8,0.8H51.3V28.5z M102.8,0.3c0.6,0,0.8,0.2,0.8,0.8v2.6c0,0.6-0.2,0.8-0.8,0.8h-3.9c-2.6,0-4.1-0.1-5-0.2v23.3
		c0,3.4,1.8,2.9,1.8,4c0,0.7-0.8,0.8-3.7,0.8h-2.3c-2.9,0-3.7-0.2-3.7-0.8c0-1,1.8-0.6,1.8-4V4.3c-0.9,0.1-2.5,0.2-5,0.2h-3.9
		c-0.6,0-0.8-0.2-0.8-0.8V1.1c0-0.6,0.2-0.8,0.8-0.8H102.8z M115.3,13.6h13.1V5.1c0-3.4-1.8-2.9-1.8-4c0-0.7,0.8-0.8,3.7-0.8h2.3
		c2.9,0,3.7,0.2,3.7,0.8c0,1-1.8,0.6-1.8,4v22.5c0,3.4,1.8,2.9,1.8,4c0,0.7-0.8,0.8-3.7,0.8h-2.3c-2.9,0-3.7-0.2-3.7-0.8
		c0-1,1.8-0.6,1.8-4v-9.7h-13.1v9.7c0,3.4,1.8,2.9,1.8,4c0,0.7-0.8,0.8-3.7,0.8h-2.3c-2.9,0-3.7-0.2-3.7-0.8c0-1,1.8-0.6,1.8-4V5.1
		c0-3.4-1.8-2.9-1.8-4c0-0.7,0.8-0.8,3.7-0.8h2.3c2.9,0,3.7,0.2,3.7,0.8c0,1-1.8,0.6-1.8,4V13.6z M149.6,28.5c0.9-0.1,2.5-0.2,5-0.2
		h8.3c0.6,0,0.8,0.2,0.8,0.8v2.6c0,0.6-0.2,0.8-0.8,0.8h-17.5c-2.9,0-3.7-0.2-3.7-0.8c0-1,1.8-0.6,1.8-4V5.1c0-3.4-1.8-2.9-1.8-4
		c0-0.7,0.8-0.8,3.7-0.8h17c0.6,0,0.8,0.2,0.8,0.8v2.6c0,0.6-0.2,0.8-0.8,0.8h-7.8c-2.6,0-4.1-0.1-5-0.2v9.5h10.5
		c0.6,0,0.8,0.2,0.8,0.8v2.5c0,0.6-0.2,0.8-0.8,0.8h-10.5V28.5z M189.5,28.5c8,0,10.1-5.2,10.1-12.6c0-4.6-1.1-7.5-3.1-9.3
		c-2.1-1.9-4.9-2.5-8.2-2.5h-3.5v21.6c0,2.3,0.5,2.8,4.3,2.8H189.5z M188.2,0.3c12.8,0,17.7,6.1,17.7,15.9c0,5.5-1.8,9.8-4.9,12.6
		c-3,2.7-7.1,3.7-12.1,3.7h-8.3c-2.9,0-3.7-0.2-3.7-0.8c0-1,1.8-0.6,1.8-4V5.1c0-3.4-1.8-2.9-1.8-4c0-0.7,0.8-0.8,3.7-0.8H188.2z
		 M219,27.6c0,3.4,1.8,2.9,1.8,4c0,0.7-0.8,0.8-3.7,0.8h-2.3c-2.9,0-3.7-0.2-3.7-0.8c0-1,1.8-0.6,1.8-4V5.1c0-3.4-1.8-2.9-1.8-4
		c0-0.7,0.8-0.8,3.7-0.8h2.3c2.9,0,3.7,0.2,3.7,0.8c0,1-1.8,0.6-1.8,4V27.6z M228.2,5.1c0-3.4-1.8-2.9-1.8-4c0-0.7,0.8-0.8,3.7-0.8
		h17c0.6,0,0.8,0.2,0.8,0.8v2.6c0,0.6-0.2,0.8-0.8,0.8h-7.8c-2.6,0-4.1-0.1-5-0.2v10H245c0.6,0,0.8,0.2,0.8,0.8v2.5
		c0,0.6-0.2,0.8-0.8,0.8h-10.7v9.3c0,3.4,1.8,2.9,1.8,4c0,0.7-0.8,0.8-3.7,0.8h-2.3c-2.9,0-3.7-0.2-3.7-0.8c0-1,1.8-0.6,1.8-4V5.1z
		 M254.1,5.1c0-3.4-1.8-2.9-1.8-4c0-0.7,0.8-0.8,3.7-0.8h17c0.6,0,0.8,0.2,0.8,0.8v2.6c0,0.6-0.2,0.8-0.8,0.8h-7.8
		c-2.6,0-4.1-0.1-5-0.2v10h10.7c0.6,0,0.8,0.2,0.8,0.8v2.5c0,0.6-0.2,0.8-0.8,0.8h-10.7v9.3c0,3.4,1.8,2.9,1.8,4
		c0,0.7-0.8,0.8-3.7,0.8H256c-2.9,0-3.7-0.2-3.7-0.8c0-1,1.8-0.6,1.8-4V5.1z M286.1,28.5c0.9-0.1,2.5-0.2,5-0.2h8.3
		c0.6,0,0.8,0.2,0.8,0.8v2.6c0,0.6-0.2,0.8-0.8,0.8h-17.5c-2.9,0-3.7-0.2-3.7-0.8c0-1,1.8-0.6,1.8-4V5.1c0-3.4-1.8-2.9-1.8-4
		c0-0.7,0.8-0.8,3.7-0.8h17c0.6,0,0.8,0.2,0.8,0.8v2.6c0,0.6-0.2,0.8-0.8,0.8h-7.8c-2.6,0-4.1-0.1-5-0.2v9.5h10.5
		c0.6,0,0.8,0.2,0.8,0.8v2.5c0,0.6-0.2,0.8-0.8,0.8h-10.5V28.5z M314.2,4.1h-1.7v12.3c7.2,0,9.5-2.4,9.5-6.3
		C322,5.3,318.8,4.1,314.2,4.1 M321.8,18.8l7,9.2c1,1.4,1.8,2.1,3.3,3c0.3,0.2,0.4,0.4,0.4,0.6c0,0.7-1.6,0.8-4.3,0.8
		c-3,0-3.6-0.4-5-2.3l-7.6-10h-3v7.5c0,3.4,1.8,2.9,1.8,4c0,0.7-0.8,0.8-3.7,0.8h-2.3c-2.9,0-3.7-0.2-3.7-0.8c0-1,1.8-0.6,1.8-4V5.1
		c0-3.4-1.8-2.9-1.8-4c0-0.7,0.8-0.8,3.7-0.8h4.2c4.9,0,8.2,0.5,10.4,1.4c3,1.4,5.4,3.8,5.4,8.2C328.3,14.8,325.9,17.3,321.8,18.8
		 M344,28.5c0.9-0.1,2.5-0.2,5-0.2h8.3c0.6,0,0.8,0.2,0.8,0.8v2.6c0,0.6-0.2,0.8-0.8,0.8h-17.5c-2.9,0-3.7-0.2-3.7-0.8
		c0-1,1.8-0.6,1.8-4V5.1c0-3.4-1.8-2.9-1.8-4c0-0.7,0.8-0.8,3.7-0.8h17c0.6,0,0.8,0.2,0.8,0.8v2.6c0,0.6-0.2,0.8-0.8,0.8H349
		c-2.6,0-4.1-0.1-5-0.2v9.5h10.5c0.6,0,0.8,0.2,0.8,0.8v2.5c0,0.6-0.2,0.8-0.8,0.8H344V28.5z M385.9,21.8V5.1c0-3.4-1.8-2.9-1.8-4
		c0-0.7,0.8-0.8,3.7-0.8h0.9c2.9,0,3.7,0.2,3.7,0.8c0,1-1.8,0.6-1.8,4v26.4c0,0.7-0.3,0.9-1.8,0.9h-0.3c-1.4,0-1.6-0.2-2.1-0.9
		l-15.1-19.1c-0.7-0.9-1.6-2.1-2.1-2.8H369v18c0,3.4,1.8,2.9,1.8,4c0,0.7-0.8,0.8-3.7,0.8h-0.9c-2.9,0-3.7-0.2-3.7-0.8
		c0-1,1.8-0.6,1.8-4V5.1c0-3.4-1.8-2.9-1.8-4c0-0.7,0.8-0.8,3.7-0.8h0.3c2.5,0,2.8,0.5,4.3,2.4l12.8,16.3c0.7,0.9,1.6,2.1,2.1,2.8
		H385.9z M412.7,0c3.5,0,6.8,0.9,8.7,2.6c0.8,0.7,1.2,1.6,1.2,2.8c0,1.6-0.9,3.2-2.3,3.2c-2.1,0-3.4-4-8.1-4
		c-4.8,0-8.5,3.9-8.5,11.4c0,7.5,3.5,11.9,10.4,11.9c2.5,0,5-0.6,7.2-1.4c0.4-0.2,0.8-0.1,0.8,0.9v0.5c0,2.5-0.5,3.1-2.6,3.8
		c-2,0.7-4.2,1-6.5,1c-9.8,0-15.5-6-15.5-16.3c0-5,1.5-9.4,4.4-12.5C404.6,1.3,408.8,0,412.7,0 M435.4,28.5c0.9-0.1,2.5-0.2,5-0.2
		h8.3c0.6,0,0.8,0.2,0.8,0.8v2.6c0,0.6-0.2,0.8-0.8,0.8h-17.5c-2.9,0-3.7-0.2-3.7-0.8c0-1,1.8-0.6,1.8-4V5.1c0-3.4-1.8-2.9-1.8-4
		c0-0.7,0.8-0.8,3.7-0.8h17c0.6,0,0.8,0.2,0.8,0.8v2.6c0,0.6-0.2,0.8-0.8,0.8h-7.8c-2.6,0-4.1-0.1-5-0.2v9.5h10.5
		c0.6,0,0.8,0.2,0.8,0.8v2.5c0,0.6-0.2,0.8-0.8,0.8h-10.5V28.5z"/>
	<polygon class="st0" points="0,32.4 0,46.6 2.5,46.6 521.6,46.6 521.6,43.3 3.5,43.3 3.5,32.4 	"/>
</g>
</svg>
