<svg xmlns="http://www.w3.org/2000/svg" width="522" height="47" viewBox="0 0 522 47">
  <g fill="#8EBB38" fill-rule="evenodd">
    <path d="M25.5642547 17.6376474L20.331941 17.6376474 20.331941 25.8547775C20.331941 28.158337 20.8029644 28.6288598 24.6747664 28.6288598L25.4591379 28.6288598C30.588337 28.6288598 32.4208732 26.273743 32.4208732 22.7668465 32.4208732 18.8925417 30.066257 17.6376474 25.5642547 17.6376474M23.5229867 4.13464405L20.331941 4.13464405 20.331941 13.8174027 24.9906174 13.8174027C28.7057453 13.8174027 30.7470133 12.0379255 30.7470133 8.84487764 30.7470133 5.02463293 27.8678142 4.13464405 23.5229867 4.13464405M12.4807175 31.6111735C12.4807175 30.5645106 14.2596941 31.0355339 14.2596941 27.6337542L14.2596941 5.12974972C14.2596941 1.72596774 12.4807175 2.19899333 12.4807175 1.15233037 12.4807175.471573971 13.2645884.314399333 16.1442881.314399333L24.6747664.314399333C26.7160345.314399333 29.5416741.628248053 31.4798276 1.25544494 34.2539099 2.19899333 36.3982925 4.7107842 36.3982925 8.16362069 36.3982925 11.61896 34.9867241 14.4445996 31.1124194 15.3340879L31.1124194 15.3856452C35.8742102 15.7530534 38.6998498 18.4755784 38.6998498 22.8724638 38.6998498 30.2506618 32.8403393 32.4491046 24.5716518 32.4491046L16.1442881 32.4491046C13.2645884 32.4491046 12.4807175 32.2919299 12.4807175 31.6111735M51.261257 28.4709344C52.2048053 28.365317 53.7219911 28.3142603 56.2853393 28.3142603L64.6075862 28.3142603C65.2347831 28.3142603 65.4455172 28.4709344 65.4455172 29.0981313L65.4455172 31.6639822C65.4455172 32.2396218 65.2347831 32.4478532 64.6075862 32.4478532L47.0731034 32.4478532C44.1964071 32.4478532 43.4095328 32.2916796 43.4095328 31.6099221 43.4095328 30.5637597 45.1915128 31.0367853 45.1915128 27.6325028L45.1915128 5.12899889C45.1915128 1.72721913 43.4095328 2.19774194 43.4095328 1.15157953 43.4095328.470322581 44.1964071.313648498 47.0731034.313648498L64.0830033.313648498C64.712703.313648498 64.9209344.470322581 64.9209344 1.10002225L64.9209344 3.66337041C64.9209344 4.23901001 64.712703 4.44774194 64.0830033 4.44774194L56.2853393 4.44774194C53.7219911 4.44774194 52.2048053 4.39618465 51.261257 4.2905673L51.261257 13.8161513 61.7819466 13.8161513C62.4091435 13.8161513 62.6173749 13.9733259 62.6173749 14.602525L62.6173749 17.0607564C62.6173749 17.6368966 62.4091435 17.8476307 61.7819466 17.8476307L51.261257 17.8476307 51.261257 28.4709344zM102.810234.31419911C103.43743.31419911 103.648165.470873192 103.648165 1.09857063L103.648165 3.66392102C103.648165 4.24006118 103.43743 4.44829255 102.810234 4.44829255L98.8868743 4.44829255C96.3210234 4.44829255 94.8038376 4.39673526 93.8607898 4.29161846L93.8607898 27.6335539C93.8607898 31.0348331 95.6422692 30.5648109 95.6422692 31.6104727 95.6422692 32.2922303 94.8553949 32.4489043 91.978198 32.4489043L89.6746385 32.4489043C86.7954394 32.4489043 86.0110679 32.2922303 86.0110679 31.6104727 86.0110679 30.5648109 87.7905451 31.0348331 87.7905451 27.6335539L87.7905451 4.29161846C86.8494994 4.39673526 85.3303115 4.44829255 82.7669633 4.44829255L78.8406007 4.44829255C78.2134038 4.44829255 78.0026696 4.24006118 78.0026696 3.66392102L78.0026696 1.09857063C78.0026696.470873192 78.2134038.31419911 78.8406007.31419911L102.810234.31419911zM115.266924 13.5549611L128.350962 13.5549611 128.350962 5.12959956C128.350962 1.72581758 126.571485 2.19884316 126.571485 1.15268076 126.571485.471423804 127.355857.314249166 130.233053.314249166L132.538615.314249166C135.415812.314249166 136.202686.471423804 136.202686 1.15268076 136.202686 2.19884316 134.421207 1.72581758 134.421207 5.12959956L134.421207 27.633604C134.421207 31.0353838 136.202686 30.5643604 136.202686 31.6110234 136.202686 32.2922803 135.415812 32.4489544 132.538615 32.4489544L130.233053 32.4489544C127.355857 32.4489544 126.571485 32.2922803 126.571485 31.6110234 126.571485 30.5643604 128.350962 31.0353838 128.350962 27.633604L128.350962 17.8997887 115.266924 17.8997887 115.266924 27.633604C115.266924 31.0353838 117.046402 30.5643604 117.046402 31.6110234 117.046402 32.2922803 116.26203 32.4489544 113.38233 32.4489544L111.078771 32.4489544C108.202075 32.4489544 107.4152 32.2922803 107.4152 31.6110234 107.4152 30.5643604 109.19718 31.0353838 109.19718 27.633604L109.19718 5.12959956C109.19718 1.72581758 107.4152 2.19884316 107.4152 1.15268076 107.4152.471423804 108.202075.314249166 111.078771.314249166L113.38233.314249166C116.26203.314249166 117.046402.471423804 117.046402 1.15268076 117.046402 2.19884316 115.266924 1.72581758 115.266924 5.12959956L115.266924 13.5549611zM149.598771 28.4709344C150.539816 28.365317 152.059505 28.3142603 154.622853 28.3142603L162.9451 28.3142603C163.572297 28.3142603 163.782531 28.4709344 163.782531 29.0981313L163.782531 31.6639822C163.782531 32.2396218 163.572297 32.4478532 162.9451 32.4478532L145.410617 32.4478532C142.533921 32.4478532 141.747047 32.2916796 141.747047 31.6099221 141.747047 30.5637597 143.528526 31.0367853 143.528526 27.6325028L143.528526 5.12899889C143.528526 1.72721913 141.747047 2.19774194 141.747047 1.15157953 141.747047.470322581 142.533921.313648498 145.410617.313648498L162.420517.313648498C163.050217.313648498 163.258448.470322581 163.258448 1.10002225L163.258448 3.66337041C163.258448 4.23901001 163.050217 4.44774194 162.420517 4.44774194L154.622853 4.44774194C152.059505 4.44774194 150.539816 4.39618465 149.598771 4.2905673L149.598771 13.8161513 160.119461 13.8161513C160.746657 13.8161513 160.957392 13.9733259 160.957392 14.602525L160.957392 17.0607564C160.957392 17.6368966 160.746657 17.8476307 160.119461 17.8476307L149.598771 17.8476307 149.598771 28.4709344zM189.529138 28.5232425C197.535534 28.5232425 199.627859 23.3424861 199.627859 15.9612848 199.627859 11.3566685 198.478582 8.42591212 196.488871 6.64643493 194.396046 4.7107842 191.570406 4.18620133 188.271741 4.18620133L184.818904 4.18620133 184.818904 25.7491602C184.818904 28.0532202 185.289427 28.5232425 189.16173 28.5232425L189.529138 28.5232425zM188.220684.314399333C201.04193.314399333 205.91134 6.38464405 205.91134 16.1725195 205.91134 21.666624 204.129861 25.9598943 200.990373 28.7850334 198.008059 31.4539989 193.925523 32.4491046 188.901941 32.4491046L180.631251 32.4491046C177.754055 32.4491046 176.96718 32.2919299 176.96718 31.6111735 176.96718 30.5645106 178.746157 31.0355339 178.746157 27.6337542L178.746157 5.12974972C178.746157 1.72847052 176.96718 2.19899333 176.96718 1.15233037 176.96718.471073415 177.754055.314399333 180.631251.314399333L188.220684.314399333zM218.993026 27.633604C218.993026 31.0353838 220.772002 30.5643604 220.772002 31.6110234 220.772002 32.2922803 219.988131 32.4489544 217.108432 32.4489544L214.804872 32.4489544C211.927675 32.4489544 211.141301 32.2922803 211.141301 31.6110234 211.141301 30.5643604 212.922781 31.0353838 212.922781 27.633604L212.922781 5.12959956C212.922781 1.72832036 211.141301 2.19884316 211.141301 1.15268076 211.141301.471423804 211.927675.314249166 214.804872.314249166L217.108432.314249166C219.988131.314249166 220.772002.471423804 220.772002 1.15268076 220.772002 2.19884316 218.993026 1.72832036 218.993026 5.12959956L218.993026 27.633604zM228.20371 5.129099C228.20371 1.7278198 226.424232 2.1983426 226.424232 1.15167964 226.424232.470422692 227.208604.31374861 230.088304.31374861L247.097703.31374861C247.7249.31374861 247.933632.470422692 247.933632 1.10012236L247.933632 3.66347052C247.933632 4.23961068 247.7249 4.45034483 247.097703 4.45034483L239.297536 4.45034483C236.734188 4.45034483 235.217503 4.39628476 234.273954 4.29116796L234.273954 14.3408343 245.002875 14.3408343C245.632075 14.3408343 245.840306 14.4975083 245.840306 15.1252058L245.840306 17.5854394C245.840306 18.1615795 245.632075 18.3698109 245.002875 18.3698109L234.273954 18.3698109 234.273954 27.6331034C234.273954 31.0343826 236.052931 30.5638598 236.052931 31.6100222 236.052931 32.2917798 235.26856 32.4484538 232.38936 32.4484538L230.088304 32.4484538C227.208604 32.4484538 226.424232 32.2917798 226.424232 31.6100222 226.424232 30.5638598 228.20371 31.0343826 228.20371 27.6331034L228.20371 5.129099zM254.109944 5.129099C254.109944 1.7278198 252.330467 2.1983426 252.330467 1.15167964 252.330467.470422692 253.114839.31374861 255.994538.31374861L273.001435.31374861C273.631135.31374861 273.839366.470422692 273.839366 1.10012236L273.839366 3.66347052C273.839366 4.23961068 273.631135 4.45034483 273.001435 4.45034483L265.203771 4.45034483C262.640423 4.45034483 261.123237 4.39628476 260.179689 4.29116796L260.179689 14.3408343 270.90911 14.3408343C271.538309 14.3408343 271.746541 14.4975083 271.746541 15.1252058L271.746541 17.5854394C271.746541 18.1615795 271.538309 18.3698109 270.90911 18.3698109L260.179689 18.3698109 260.179689 27.6331034C260.179689 31.0343826 261.959166 30.5638598 261.959166 31.6100222 261.959166 32.2917798 261.174794 32.4484538 258.295095 32.4484538L255.994538 32.4484538C253.114839 32.4484538 252.330467 32.2917798 252.330467 31.6100222 252.330467 30.5638598 254.109944 31.0343826 254.109944 27.6331034L254.109944 5.129099zM286.084922 28.4709344C287.025968 28.365317 288.545656 28.3142603 291.109004 28.3142603L299.430751 28.3142603C300.058448 28.3142603 300.269182 28.4709344 300.269182 29.0981313L300.269182 31.6639822C300.269182 32.2396218 300.058448 32.4478532 299.430751 32.4478532L281.897269 32.4478532C279.020072 32.4478532 278.233198 32.2916796 278.233198 31.6099221 278.233198 30.5637597 280.014677 31.0367853 280.014677 27.6325028L280.014677 5.12899889C280.014677 1.72721913 278.233198 2.19774194 278.233198 1.15157953 278.233198.470322581 279.020072.313648498 281.897269.313648498L298.906669.313648498C299.533865.313648498 299.7446.470322581 299.7446 1.10002225L299.7446 3.66337041C299.7446 4.23901001 299.533865 4.44774194 298.906669 4.44774194L291.109004 4.44774194C288.545656 4.44774194 287.025968 4.39618465 286.084922 4.2905673L286.084922 13.8161513 296.605612 13.8161513C297.232809 13.8161513 297.44104 13.9733259 297.44104 14.602525L297.44104 17.0607564C297.44104 17.6368966 297.232809 17.8476307 296.605612 17.8476307L286.084922 17.8476307 286.084922 28.4709344zM314.241207 4.0820356L312.51629 4.0820356 312.51629 16.3817019C319.737814 16.3817019 322.038871 14.0265851 322.038871 10.0491657 322.038871 5.33893215 318.845823 4.0820356 314.241207 4.0820356M321.77708 18.8419355L328.739316 27.9996107C329.733921 29.3601224 330.571852 30.0929366 332.035478 31.036485 332.348826 31.2447164 332.454444 31.4013904 332.454444 31.6636819 332.454444 32.3959956 330.832141 32.4475528 328.163176 32.4475528 325.180362 32.4475528 324.551162 32.0285873 323.139093 30.1464961L315.549661 20.0968298 312.51629 20.0968298 312.51629 27.6347052C312.51629 31.036485 314.294766 30.5629588 314.294766 31.6096218 314.294766 32.2908788 313.510895 32.4475528 310.629194 32.4475528L308.328137 32.4475528C305.448938 32.4475528 304.664066 32.2908788 304.664066 31.6096218 304.664066 30.5629588 306.443543 31.036485 306.443543 27.6347052L306.443543 5.128198C306.443543 1.7269188 304.664066 2.1974416 304.664066 1.1512792 304.664066.472024472 305.448938.312847608 308.328137.312847608L312.51629.312847608C317.380195.312847608 320.730417.785873192 322.877303 1.7269188 325.913176 3.08692992 328.31985 5.49610679 328.31985 9.8919911 328.31985 14.8109566 325.913176 17.2711902 321.77708 18.8419355M343.968087 28.4709344C344.911635 28.365317 346.42832 28.3142603 348.991669 28.3142603L357.313915 28.3142603C357.941112 28.3142603 358.151846 28.4709344 358.151846 29.0981313L358.151846 31.6639822C358.151846 32.2396218 357.941112 32.4478532 357.313915 32.4478532L339.779933 32.4478532C336.902736 32.4478532 336.115862 32.2916796 336.115862 31.6099221 336.115862 30.5637597 337.897842 31.0367853 337.897842 27.6325028L337.897842 5.12899889C337.897842 1.72721913 336.115862 2.19774194 336.115862 1.15157953 336.115862.470322581 336.902736.313648498 339.779933.313648498L356.789333.313648498C357.419032.313648498 357.627264.470322581 357.627264 1.10002225L357.627264 3.66337041C357.627264 4.23901001 357.419032 4.44774194 356.789333 4.44774194L348.991669 4.44774194C346.42832 4.44774194 344.911635 4.39618465 343.968087 4.2905673L343.968087 13.8161513 354.488276 13.8161513C355.115973 13.8161513 355.324205 13.9733259 355.324205 14.602525L355.324205 17.0607564C355.324205 17.6368966 355.115973 17.8476307 354.488276 17.8476307L343.968087 17.8476307 343.968087 28.4709344zM385.940973 21.7718409L385.940973 5.12984983C385.940973 1.72857063 384.161496 2.19859288 384.161496 1.15243048 384.161496.471173526 384.94837.314499444 387.825567.314499444L388.715056.314499444C391.594255.314499444 392.378626.471173526 392.378626 1.15243048 392.378626 2.19859288 390.59965 1.72857063 390.59965 5.12984983L390.59965 31.5056563C390.59965 32.1869132 390.285801 32.4492047 388.766613 32.4492047L388.454766 32.4492047C387.092753 32.4492047 386.882019 32.2900278 386.308382 31.5592158L371.234633 12.4569911C370.501819 11.5134427 369.61233 10.3621635 369.088248 9.6313515L368.985133 9.6313515 368.985133 27.6333537C368.985133 31.0351335 370.764611 30.5646107 370.764611 31.6112736 370.764611 32.2900278 369.977736 32.4492047 367.100539 32.4492047L366.211051 32.4492047C363.331352 32.4492047 362.547481 32.2900278 362.547481 31.6112736 362.547481 30.5646107 364.326457 31.0351335 364.326457 27.6333537L364.326457 5.12984983C364.326457 1.72857063 362.547481 2.19859288 362.547481 1.15243048 362.547481.471173526 363.331352.314499444 366.211051.314499444L366.5249.314499444C369.036691.314499444 369.350039.785022247 370.869727 2.66911568L383.691474 18.9462013C384.424288 19.8872469 385.313276 21.0390267 385.835356 21.7718409L385.940973 21.7718409zM412.683587.000100111235C416.190484.000100111235 419.486646.941145717 421.422297 2.61750834 422.260729 3.34982202 422.627636 4.18825362 422.627636 5.39159066 422.627636 7.01339266 421.738648 8.63569522 420.375634 8.63569522 418.231752 8.63569522 416.974355 4.60471635 412.316179 4.60471635 407.554388 4.60471635 403.785701 8.47902113 403.785701 16.0148943 403.785701 23.550267 407.240539 27.8950945 414.149216 27.8950945 416.609449 27.8950945 419.12074 27.3194549 421.319182 26.4835261 421.738648 26.3268521 422.155111 26.3784093 422.155111 27.4250723L422.155111 27.8950945C422.155111 30.3553281 421.633031 30.9830256 419.540206 31.7158398 417.550495 32.3970968 415.300996 32.7625028 412.996935 32.7625028 403.158003 32.7625028 397.504722 26.7948721 397.504722 16.4854171 397.504722 11.5128921 398.97035 7.06494994 401.903109 4.03107898 404.569572 1.25699666 408.757225.000100111235 412.683587.000100111235M435.397275 28.4709344C436.33832 28.365317 437.857508 28.3142603 440.420857 28.3142603L448.743103 28.3142603C449.3703 28.3142603 449.581034 28.4709344 449.581034 29.0981313L449.581034 31.6639822C449.581034 32.2396218 449.3703 32.4478532 448.743103 32.4478532L431.209121 32.4478532C428.331924 32.4478532 427.54505 32.2916796 427.54505 31.6099221 427.54505 30.5637597 429.32703 31.0367853 429.32703 27.6325028L429.32703 5.12899889C429.32703 1.72721913 427.54505 2.19774194 427.54505 1.15157953 427.54505.470322581 428.331924.313648498 431.209121.313648498L448.218521.313648498C448.845717.313648498 449.056452.470322581 449.056452 1.10002225L449.056452 3.66337041C449.056452 4.23901001 448.845717 4.44774194 448.218521 4.44774194L440.420857 4.44774194C437.857508 4.44774194 436.33832 4.39618465 435.397275 4.2905673L435.397275 13.8161513 445.917464 13.8161513C446.545161 13.8161513 446.755395 13.9733259 446.755395 14.602525L446.755395 17.0607564C446.755395 17.6368966 446.545161 17.8476307 445.917464 17.8476307L435.397275 17.8476307 435.397275 28.4709344z"/>
    <polygon points="0 32.45 0 46.643 2.47 46.643 521.58 46.643 521.58 43.331 3.533 43.331 3.533 32.45"/>
  </g>
</svg>
