<svg id="Layer_1" data-name="Layer 1" xmlns="http://www.w3.org/2000/svg" viewBox="0 0 247.47 56.46"><title>SMS-logo-black-green</title><path d="M268.47,27.94V2.06H227.58V27.94a4,4,0,0,0,0,.5,9.33,9.33,0,0,0,.24,1.63A14.66,14.66,0,0,0,229,33.31q.18.36.39.74a22.44,22.44,0,0,0,2.12,3.13l.41.5a30.93,30.93,0,0,0,2.34,2.47l.77.71a56.18,56.18,0,0,0,13,8.39,56.15,56.15,0,0,0,13-8.39l.77-.71a30.84,30.84,0,0,0,2.34-2.47l.41-.5A22.51,22.51,0,0,0,266.65,34q.21-.38.39-.74a14.66,14.66,0,0,0,1.19-3.24,9.34,9.34,0,0,0,.24-1.63A4.19,4.19,0,0,0,268.47,27.94ZM236.54,40.86a32.25,32.25,0,0,1-3.83-3.79,2.61,2.61,0,0,1,1.7-.56,2.88,2.88,0,0,1,2.07.85,3.58,3.58,0,0,0,4.95,0,3.07,3.07,0,0,1,1.56-.81v3.63a3.67,3.67,0,0,0-2,1,2.94,2.94,0,0,1-4.13,0ZM248,48.16a62.23,62.23,0,0,1-9.25-5.53h.17a3.54,3.54,0,0,0,2.47-1,3.08,3.08,0,0,1,1.56-.81v1.8l.15.1a3.65,3.65,0,0,0,2.57.38,3.1,3.1,0,0,1,2.15.28l.17.11.17-.11a3.1,3.1,0,0,1,2.15-.28,3.65,3.65,0,0,0,2.57-.38l.15-.1v-1.8a3.07,3.07,0,0,1,1.56.81,3.54,3.54,0,0,0,2.47,1h.17A62.21,62.21,0,0,1,248,48.16Zm-4.39-5.89v-6.4h0a3,3,0,0,0,1,.19,8.05,8.05,0,0,0,1-.07,3.3,3.3,0,0,1,2,.2v6.4a3,3,0,0,0-1-.19h-.17a8.74,8.74,0,0,0-.94.07A3.31,3.31,0,0,1,243.63,42.27Zm4.72.32v-6.4a3.3,3.3,0,0,1,2-.2,8,8,0,0,0,1,.07,3,3,0,0,0,1-.19h0v6.4a3.31,3.31,0,0,1-2,.19,7.43,7.43,0,0,0-1.11-.06A3,3,0,0,0,248.35,42.59Zm11.16-1.72-.33.26a2.94,2.94,0,0,1-4.13,0,3.67,3.67,0,0,0-2-1V36.55a3.07,3.07,0,0,1,1.56.81,3.58,3.58,0,0,0,4.95,0,2.89,2.89,0,0,1,2.07-.85,2.61,2.61,0,0,1,1.7.56A32.28,32.28,0,0,1,259.51,40.87Zm5.84-6.52a22.27,22.27,0,0,1-1.58,2.22,3.29,3.29,0,0,0-2.11-.71,3.54,3.54,0,0,0-2.47,1,2.94,2.94,0,0,1-4.13,0,3.67,3.67,0,0,0-2-1V34.75l-.31.2-.19.12a3.1,3.1,0,0,1-2.15.28,3.82,3.82,0,0,0-2.39.28,3.82,3.82,0,0,0-2.39-.28,3.11,3.11,0,0,1-2.15-.28l-.19-.12-.31-.2V35.9a3.67,3.67,0,0,0-2,1,2.94,2.94,0,0,1-4.13,0,3.54,3.54,0,0,0-2.47-1,3.29,3.29,0,0,0-2.11.71,22.43,22.43,0,0,1-1.58-2.23l-.2-.33a3.75,3.75,0,0,0,1.83-.94,2.94,2.94,0,0,1,4.13,0,3.58,3.58,0,0,0,4.95,0,2.94,2.94,0,0,1,4.13,0,3.58,3.58,0,0,0,4.95,0,2.94,2.94,0,0,1,4.13,0,3.58,3.58,0,0,0,4.95,0,2.94,2.94,0,0,1,4.13,0,3.74,3.74,0,0,0,1.83.94Zm2.15-6.41v.47a8.29,8.29,0,0,1-.19,1.35,14.16,14.16,0,0,1-1.42,3.65,3,3,0,0,1-1.77-.83,3.58,3.58,0,0,0-4.95,0,2.94,2.94,0,0,1-4.13,0,3.58,3.58,0,0,0-4.95,0,2.94,2.94,0,0,1-4.13,0,3.58,3.58,0,0,0-4.95,0,2.94,2.94,0,0,1-4.13,0,3.58,3.58,0,0,0-4.95,0,3,3,0,0,1-1.77.83,14.19,14.19,0,0,1-1.42-3.65,8.28,8.28,0,0,1-.19-1.35V25.76a1.23,1.23,0,1,1,2.46,0v4h3.62v-4.8a1.23,1.23,0,1,1,2.46,0v4.8h3.62V24.14a1.23,1.23,0,0,1,2.46,0v5.61h3.62V23.33a1.23,1.23,0,0,1,2.46,0v6.42h3.62V24.14a1.23,1.23,0,0,1,2.46,0v5.61H259v-4.8a1.23,1.23,0,1,1,2.46,0v4.8H265v-4a1.23,1.23,0,1,1,2.46,0Zm0-4a2.2,2.2,0,0,0-3.43,1.83v3h-1.68V24.95a2.2,2.2,0,1,0-4.4,0v3.83h-1.68V24.14a2.2,2.2,0,0,0-4.4,0v4.64h-1.68V23.33a2.2,2.2,0,1,0-4.4,0v5.45h-1.68V24.14a2.2,2.2,0,1,0-4.4,0v4.64h-1.68V24.95a2.2,2.2,0,1,0-4.4,0v3.83H232v-3a2.2,2.2,0,0,0-3.43-1.83v-1a39.17,39.17,0,0,1,38.94,0ZM246.2,7.06l.74,0,.46,0V6.08h1.26V7l.46,0,.74,0,.53,0v-1l1.34.1V9c-1.23-.1-2.47-.14-3.69-.14s-2.46,0-3.69.14V6.25l1.33-.1v1Zm-1.55,2.85c1.13-.08,2.27-.12,3.39-.12s2.25,0,3.38.12l-.5,1,.73,6c-1.21-.11-2.42-.16-3.62-.16s-2.41.05-3.62.16l.73-6ZM267.5,22a39.38,39.38,0,0,0-14.83-4.79l-.76-6.14.78-1.51V5.37l-.44,0c-.78-.08-1.57-.14-2.34-.18l-.51,0h-.26L248,5.1l-1.13,0h-.25l-.51,0c-.77,0-1.55.09-2.33.18l-.44,0V9.55l.77,1.51-.75,6.14A39.37,39.37,0,0,0,228.56,22V3H267.5Z" transform="translate(-21.01 -1.72)" style="fill:#036939"/><path d="M258,14a3.1,3.1,0,0,1,2.15.28l.17.11.17-.11a3.1,3.1,0,0,1,2.15-.28,3.66,3.66,0,0,0,2.57-.38l.15-.1V5.66l-.5.32a3.1,3.1,0,0,1-2.15.28,3.82,3.82,0,0,0-2.39.28,3.82,3.82,0,0,0-2.39-.28A3.11,3.11,0,0,1,255.74,6l-.5-.32v7.88l.15.1A3.66,3.66,0,0,0,258,14Zm2.65-6.92a3.3,3.3,0,0,1,2-.2,4.25,4.25,0,0,0,2.07-.13v6.4a3.3,3.3,0,0,1-2,.19,4.26,4.26,0,0,0-2.07.13Zm-4.72-.32A4.25,4.25,0,0,0,258,6.9a3.3,3.3,0,0,1,2,.2v6.4a3.08,3.08,0,0,0-1.13-.2,8.88,8.88,0,0,0-.94.07,3.3,3.3,0,0,1-2-.19Z" transform="translate(-21.01 -1.72)" style="fill:#036939"/><path d="M257.93,8.56a1.73,1.73,0,0,1,1.19.16.2.2,0,0,0,.22-.34,2.09,2.09,0,0,0-1.45-.22A1.72,1.72,0,0,1,256.7,8a.2.2,0,0,0-.22.34A2.1,2.1,0,0,0,257.93,8.56Z" transform="translate(-21.01 -1.72)" style="fill:#036939"/><path d="M257.93,10.34a1.72,1.72,0,0,1,1.19.16.2.2,0,0,0,.22-.34,2.09,2.09,0,0,0-1.45-.22,1.72,1.72,0,0,1-1.19-.16.2.2,0,0,0-.22.34A2.1,2.1,0,0,0,257.93,10.34Z" transform="translate(-21.01 -1.72)" style="fill:#036939"/><path d="M257.93,12.12a1.73,1.73,0,0,1,1.19.16.2.2,0,0,0,.28-.06.2.2,0,0,0-.06-.28,2.1,2.1,0,0,0-1.45-.22,1.73,1.73,0,0,1-1.19-.16.2.2,0,0,0-.22.34A2.1,2.1,0,0,0,257.93,12.12Z" transform="translate(-21.01 -1.72)" style="fill:#036939"/><path d="M262.64,12.12a2.1,2.1,0,0,0,1.45-.22.2.2,0,0,0-.22-.34,1.73,1.73,0,0,1-1.19.16,2.1,2.1,0,0,0-1.45.22.2.2,0,0,0,.11.37.2.2,0,0,0,.11,0A1.73,1.73,0,0,1,262.64,12.12Z" transform="translate(-21.01 -1.72)" style="fill:#036939"/><path d="M261.34,10.52a.2.2,0,0,0,.11,0,1.73,1.73,0,0,1,1.19-.16,2.1,2.1,0,0,0,1.45-.22.2.2,0,0,0-.22-.34,1.73,1.73,0,0,1-1.19.16,2.09,2.09,0,0,0-1.45.22.2.2,0,0,0,.11.37Z" transform="translate(-21.01 -1.72)" style="fill:#036939"/><path d="M261.34,8.75a.2.2,0,0,0,.11,0,1.73,1.73,0,0,1,1.19-.16,2.1,2.1,0,0,0,1.45-.22.2.2,0,0,0-.22-.34,1.73,1.73,0,0,1-1.19.16,2.09,2.09,0,0,0-1.45.22.2.2,0,0,0,.11.37Z" transform="translate(-21.01 -1.72)" style="fill:#036939"/><path d="M233.6,14a3.1,3.1,0,0,1,2.15.28l.17.11.17-.11a3.1,3.1,0,0,1,2.15-.28,3.66,3.66,0,0,0,2.57-.38l.15-.1V5.66l-.5.32a3.11,3.11,0,0,1-2.15.28,3.82,3.82,0,0,0-2.39.28,3.82,3.82,0,0,0-2.39-.28A3.1,3.1,0,0,1,231.38,6l-.5-.32v7.88l.15.1A3.65,3.65,0,0,0,233.6,14Zm2.65-6.92a3.3,3.3,0,0,1,2-.2,4.25,4.25,0,0,0,2.07-.13v6.4a3.3,3.3,0,0,1-2,.19,4.26,4.26,0,0,0-2.07.13Zm-4.72-.32a4.25,4.25,0,0,0,2.07.13,3.3,3.3,0,0,1,2,.2v6.4a3.08,3.08,0,0,0-1.13-.2,8.88,8.88,0,0,0-.94.07,3.3,3.3,0,0,1-2-.19Z" transform="translate(-21.01 -1.72)" style="fill:#036939"/><path d="M233.56,8.56a1.73,1.73,0,0,1,1.19.16.2.2,0,1,0,.22-.34,2.09,2.09,0,0,0-1.45-.22A1.72,1.72,0,0,1,232.33,8a.2.2,0,0,0-.22.34A2.1,2.1,0,0,0,233.56,8.56Z" transform="translate(-21.01 -1.72)" style="fill:#036939"/><path d="M233.56,10.34a1.72,1.72,0,0,1,1.19.16.2.2,0,1,0,.22-.34,2.09,2.09,0,0,0-1.45-.22,1.72,1.72,0,0,1-1.19-.16.2.2,0,0,0-.22.34A2.1,2.1,0,0,0,233.56,10.34Z" transform="translate(-21.01 -1.72)" style="fill:#036939"/><path d="M233.56,12.12a1.72,1.72,0,0,1,1.19.16.2.2,0,1,0,.22-.34,2.1,2.1,0,0,0-1.45-.22,1.72,1.72,0,0,1-1.19-.16.2.2,0,0,0-.22.34A2.1,2.1,0,0,0,233.56,12.12Z" transform="translate(-21.01 -1.72)" style="fill:#036939"/><path d="M238.28,12.12a2.1,2.1,0,0,0,1.45-.22.2.2,0,0,0-.22-.34,1.73,1.73,0,0,1-1.19.16,2.1,2.1,0,0,0-1.45.22.2.2,0,0,0,.11.37.2.2,0,0,0,.11,0A1.73,1.73,0,0,1,238.28,12.12Z" transform="translate(-21.01 -1.72)" style="fill:#036939"/><path d="M237,10.52a.2.2,0,0,0,.11,0,1.73,1.73,0,0,1,1.19-.16,2.1,2.1,0,0,0,1.45-.22.2.2,0,1,0-.22-.34,1.72,1.72,0,0,1-1.19.16,2.1,2.1,0,0,0-1.45.22.2.2,0,0,0,.11.37Z" transform="translate(-21.01 -1.72)" style="fill:#036939"/><path d="M237,8.75a.2.2,0,0,0,.11,0,1.73,1.73,0,0,1,1.19-.16,2.1,2.1,0,0,0,1.45-.22.2.2,0,1,0-.22-.34,1.72,1.72,0,0,1-1.19.16,2.1,2.1,0,0,0-1.45.22.2.2,0,0,0,.11.37Z" transform="translate(-21.01 -1.72)" style="fill:#036939"/><path d="M249,14.2l-.36-3h-1.21l-.36,3H249Z" transform="translate(-21.01 -1.72)" style="fill:#036939"/><path d="M245.67,37.65l.23,0a1.46,1.46,0,0,1,1,.18.21.21,0,0,0,.11,0,.2.2,0,0,0,.17-.09.2.2,0,0,0,0-.16.2.2,0,0,0-.09-.12,1.58,1.58,0,0,0-.62-.23,3.23,3.23,0,0,0-.83,0l-.19,0a1.5,1.5,0,0,1-1-.17.2.2,0,0,0-.22.34A2.1,2.1,0,0,0,245.67,37.65Z" transform="translate(-21.01 -1.72)" style="fill:#036939"/><path d="M245.67,39.43a1.73,1.73,0,0,1,1.19.16.21.21,0,0,0,.11,0,.2.2,0,0,0,.11-.37,2.1,2.1,0,0,0-1.45-.22,1.72,1.72,0,0,1-1.19-.16.2.2,0,0,0-.22.34A2.1,2.1,0,0,0,245.67,39.43Z" transform="translate(-21.01 -1.72)" style="fill:#036939"/><path d="M246,41.18a1.36,1.36,0,0,1,.85.19.21.21,0,0,0,.11,0,.2.2,0,0,0,.11-.37l-.22-.11a2.33,2.33,0,0,0-1.24-.1h-.08a1.62,1.62,0,0,1-1.11-.16.2.2,0,0,0-.31.21l0,.05a.21.21,0,0,0,.07.08,1.62,1.62,0,0,0,.81.25,4.11,4.11,0,0,0,.64,0Z" transform="translate(-21.01 -1.72)" style="fill:#036939"/><path d="M250.38,41.21a4.05,4.05,0,0,0,.64,0,1.63,1.63,0,0,0,.81-.25.2.2,0,0,0,.07-.09l0-.05a.2.2,0,0,0,0-.14.2.2,0,0,0-.28-.06,1.62,1.62,0,0,1-1.11.16h-.08a2.33,2.33,0,0,0-1.24.1L249,41a.2.2,0,0,0,.11.37.21.21,0,0,0,.11,0,1.37,1.37,0,0,1,.85-.19Z" transform="translate(-21.01 -1.72)" style="fill:#036939"/><path d="M249.08,39.62a.2.2,0,0,0,.11,0,1.73,1.73,0,0,1,1.19-.16,2.1,2.1,0,0,0,1.45-.22.2.2,0,0,0-.22-.34,1.72,1.72,0,0,1-1.19.16,2.1,2.1,0,0,0-1.45.22.2.2,0,0,0,.11.37Z" transform="translate(-21.01 -1.72)" style="fill:#036939"/><path d="M249.08,37.84a.2.2,0,0,0,.11,0,1.47,1.47,0,0,1,1-.18l.22,0a2.1,2.1,0,0,0,1.45-.22.2.2,0,0,0-.22-.34,1.51,1.51,0,0,1-1,.17l-.19,0a3.22,3.22,0,0,0-.83,0,1.57,1.57,0,0,0-.63.23.2.2,0,0,0,.11.37Z" transform="translate(-21.01 -1.72)" style="fill:#036939"/><path d="M145.16,3.69c0-.51.47-.8,1.09-.8a2.33,2.33,0,0,1,1.55.68c.21.2.4.37.61.37s.56-.4.56-.8a.83.83,0,0,0-.3-.69,3.53,3.53,0,0,0-2.26-.69c-1.75,0-2.89.93-2.89,2.15,0,2.68,4.15,2.43,4.15,4.32a1.22,1.22,0,0,1-1.37,1.23c-1.41,0-1.81-1.1-2.3-1.1s-.58.41-.58.8a.8.8,0,0,0,.32.71,4,4,0,0,0,2.44.73,3.48,3.48,0,0,0,2.4-.82A2.34,2.34,0,0,0,149.31,8C149.31,5.22,145.16,5.39,145.16,3.69Z" transform="translate(-21.01 -1.72)" style="fill:#036939"/><path d="M156.89,1.83h-6.47c-.17,0-.23,0-.23.21v.69c0,.16.06.21.23.21h1.06c.69,0,1.1,0,1.35,0V9.2c0,.92-.48.79-.48,1.07s.21.23,1,.23H154c.78,0,1,0,1-.23s-.48-.16-.48-1.07V2.9c.25,0,.66,0,1.36,0h1.06c.17,0,.23-.06.23-.21V2C157.11,1.87,157.06,1.83,156.89,1.83Z" transform="translate(-21.01 -1.72)" style="fill:#036939"/><path d="M161,2.06c0-.18-.21-.23-1-.23h-.62c-.78,0-1,0-1,.23s.48.16.48,1.07V9.2c0,.92-.48.79-.48,1.07s.21.23,1,.23H160c.78,0,1,0,1-.23s-.48-.16-.48-1.07V3.13C160.49,2.21,161,2.34,161,2.06Z" transform="translate(-21.01 -1.72)" style="fill:#036939"/><path d="M170.09,10.12a2.91,2.91,0,0,1-.89-.82l-1.88-2.47a2.35,2.35,0,0,0,1.76-2.41,2.26,2.26,0,0,0-1.47-2.2,7.35,7.35,0,0,0-2.8-.38h-1.13c-.78,0-1,0-1,.23s.48.16.48,1.07V9.2c0,.92-.48.79-.48,1.07s.21.23,1,.23h.62c.78,0,1,0,1-.23s-.48-.16-.48-1.07v-2h.82l2,2.71c.38.51.55.62,1.36.62s1.16,0,1.16-.21S170.17,10.17,170.09,10.12Zm-5.27-4V2.85h.47c1.24,0,2.1.34,2.1,1.61C167.39,5.53,166.77,6.16,164.82,6.16Z" transform="translate(-21.01 -1.72)" style="fill:#036939"/><path d="M176.8,9.38h-1.92c-.69,0-1.1,0-1.36,0V3.13c0-.92.48-.79.48-1.07s-.21-.23-1-.23h-.62c-.78,0-1,0-1,.23s.48.16.48,1.07V9.2c0,.92-.48.79-.48,1.07s.21.23,1,.23h4.4c.17,0,.23-.06.23-.21V9.59C177,9.43,177,9.38,176.8,9.38Z" transform="translate(-21.01 -1.72)" style="fill:#036939"/><path d="M181,2.06c0-.18-.21-.23-1-.23h-.62c-.78,0-1,0-1,.23s.48.16.48,1.07V9.2c0,.92-.48.79-.48,1.07s.21.23,1,.23h.62c.78,0,1,0,1-.23s-.48-.16-.48-1.07V3.13C180.57,2.21,181,2.34,181,2.06Z" transform="translate(-21.01 -1.72)" style="fill:#036939"/><path d="M189.84,1.83h-.24c-.78,0-1,0-1,.23s.48.16.48,1.07V7.62h0c-.14-.2-.38-.51-.58-.76L185,2.47c-.41-.51-.49-.64-1.17-.64h-.09c-.78,0-1,0-1,.23s.48.16.48,1.07V9.2c0,.92-.48.79-.48,1.07s.21.23,1,.23H184c.78,0,1,0,1-.23s-.48-.16-.48-1.07V4.34h0c.14.2.38.51.58.76l4.07,5.15c.16.2.21.24.58.24h.08c.41,0,.49-.07.49-.25V3.13c0-.92.48-.79.48-1.07S190.62,1.83,189.84,1.83Z" transform="translate(-21.01 -1.72)" style="fill:#036939"/><path d="M198.79,6.28h-.23c-.73,0-1,0-1,.24s0,.13.14.21.34.34.34.85V9.21a3.23,3.23,0,0,1-1.23.24c-1.67,0-2.68-1-2.68-3.37,0-2.16,1.16-3.16,2.37-3.16S198.07,4,198.71,4c.37,0,.61-.38.61-.82a.91.91,0,0,0-.32-.75,3.87,3.87,0,0,0-2.47-.71c-2.6,0-4.09,1.81-4.09,4.45s1.41,4.39,4.19,4.39a5.59,5.59,0,0,0,2.63-.61.62.62,0,0,0,.37-.62V6.63C199.61,6.32,199.54,6.28,198.79,6.28Z" transform="translate(-21.01 -1.72)" style="fill:#036939"/><path d="M134.67,6a2.12,2.12,0,0,0-1.4-1.54,3,3,0,0,0-1.6-.09,3.21,3.21,0,0,0-2.08,1.36,3.72,3.72,0,0,0-.64,1.66A3.67,3.67,0,0,0,129,8.89a2.14,2.14,0,0,0,1.2,1.44,2.8,2.8,0,0,0,1.18.24l.32,0a3.25,3.25,0,0,0,2.56-1.68,3.77,3.77,0,0,0,.49-1.6A3.55,3.55,0,0,0,134.67,6Zm-1.37,1.12A4,4,0,0,1,133,8.45a2.35,2.35,0,0,1-.68.9,1.31,1.31,0,0,1-1.44.1,1,1,0,0,1-.45-.74c0-.19,0-.39-.06-.5a4.08,4.08,0,0,1,.45-2,1.77,1.77,0,0,1,.82-.82,1.18,1.18,0,0,1,1.28.12,1,1,0,0,1,.35.63A3.23,3.23,0,0,1,133.29,7.16Z" transform="translate(-21.01 -1.72)" style="fill:#036939"/><path d="M139.86,1.89a2.87,2.87,0,0,0-1.66-.09,2.06,2.06,0,0,0-.86.48,2.52,2.52,0,0,0-.7,1.77l-.06.37h-.83a.16.16,0,0,0-.16.14c0,.2-.08.41-.11.61s0,.13.11.14h.89c-.13,1.56-.28,3.06-.44,4.55,0,.37-.22,1.82-.86,2-.26.06-.61-.09-.77.13a.36.36,0,0,0,0,.28c.06.16.23.17.32.18a2.58,2.58,0,0,0,1.91-.71,2.37,2.37,0,0,0,.35-.59,3.86,3.86,0,0,0,.32-1.07c.12-.64.37-2.4.54-4.75h1.46c.16,0,.2,0,.23-.2s.06-.3.08-.45,0-.25-.2-.25h-1.26s-.13,0-.18-.06a.55.55,0,0,1,0-.28c.18-1,.23-1.3.63-1.42a2.12,2.12,0,0,1,1.27.23c.13,0,.19,0,.24-.12a2.88,2.88,0,0,0,.14-.45.28.28,0,0,0-.15-.34Z" transform="translate(-21.01 -1.72)" style="fill:#036939"/><path d="M56.08,1.83c-.75,0-.79,0-.79.35V7.63A1.67,1.67,0,0,1,54.85,9a1.85,1.85,0,0,1-1.27.35A2.19,2.19,0,0,1,52.23,9c-.34-.27-.41-.68-.41-1.4V2.18c0-.31-.07-.35-.82-.35h-.31c-.78,0-1,0-1,.23s.48.16.48,1.07V7.76a2.6,2.6,0,0,0,.76,2,3.78,3.78,0,0,0,2.64.78,3.61,3.61,0,0,0,2.57-.79,2.59,2.59,0,0,0,.72-2V2.18C56.87,1.87,56.83,1.83,56.08,1.83Z" transform="translate(-21.01 -1.72)" style="fill:#036939"/><path d="M65.93,1.83h-.24c-.78,0-1,0-1,.23s.48.16.48,1.07V7.62h0c-.14-.2-.38-.51-.58-.76L61.11,2.47c-.41-.51-.49-.64-1.17-.64h-.08c-.78,0-1,0-1,.23s.48.16.48,1.07V9.2c0,.92-.48.79-.48,1.07s.21.23,1,.23h.24c.78,0,1,0,1-.23s-.48-.16-.48-1.07V4.34h0c.14.2.38.51.58.76l4.07,5.15c.16.2.21.24.58.24h.08c.41,0,.49-.07.49-.25V3.13c0-.92.48-.79.48-1.07S66.7,1.83,65.93,1.83Z" transform="translate(-21.01 -1.72)" style="fill:#036939"/><path d="M71.28,2.06c0-.18-.21-.23-1-.23h-.62c-.78,0-1,0-1,.23s.48.16.48,1.07V9.2c0,.92-.48.79-.48,1.07s.21.23,1,.23h.62c.78,0,1,0,1-.23s-.48-.16-.48-1.07V3.13C70.81,2.21,71.28,2.34,71.28,2.06Z" transform="translate(-21.01 -1.72)" style="fill:#036939"/><path d="M80,1.83c-1,0-1.21,0-1.21.24s0,.13.16.23a.61.61,0,0,1,.24.47,1.66,1.66,0,0,1-.13.51l-.88,2.41c-.3.82-.49,1.37-.76,2.16h0c-.24-.64-.63-1.64-.85-2.16l-1.19-3c-.3-.75-.49-.86-1.43-.86-.68,0-1.13,0-1.13.23a.21.21,0,0,0,.14.2,1.43,1.43,0,0,1,.76.8l2.88,7.09c.13.31.25.35.47.35h.23c.21,0,.35,0,.47-.35l2.63-6.89a2,2,0,0,1,.72-1,.27.27,0,0,0,.13-.21C81.2,1.86,81,1.83,80,1.83Z" transform="translate(-21.01 -1.72)" style="fill:#036939"/><path d="M88.41,9.38H86.17c-.69,0-1.1,0-1.36,0V6.56h2.84c.17,0,.23-.06.23-.21V5.68c0-.17-.06-.21-.23-.21H84.81V2.9c.25,0,.66,0,1.36,0h2.1c.17,0,.23-.06.23-.21V2c0-.17-.06-.21-.23-.21H83.68c-.78,0-1,0-1,.23s.48.16.48,1.07V9.2c0,.92-.48.79-.48,1.07s.21.23,1,.23h4.73c.17,0,.23-.06.23-.21V9.59C88.64,9.43,88.58,9.38,88.41,9.38Z" transform="translate(-21.01 -1.72)" style="fill:#036939"/><path d="M97.59,10.12a2.91,2.91,0,0,1-.89-.82L94.82,6.83a2.35,2.35,0,0,0,1.76-2.41,2.26,2.26,0,0,0-1.47-2.2,7.37,7.37,0,0,0-2.8-.38H91.2c-.78,0-1,0-1,.23s.48.16.48,1.07V9.2c0,.92-.48.79-.48,1.07s.21.23,1,.23h.62c.78,0,1,0,1-.23s-.48-.16-.48-1.07v-2h.82l2,2.71c.38.51.55.62,1.35.62s1.16,0,1.16-.21S97.68,10.17,97.59,10.12Zm-5.27-4V2.85h.47c1.24,0,2.1.34,2.1,1.61C94.89,5.53,94.27,6.16,92.33,6.16Z" transform="translate(-21.01 -1.72)" style="fill:#036939"/><path d="M100.59,3.69c0-.51.47-.8,1.09-.8a2.33,2.33,0,0,1,1.55.68c.21.2.39.37.61.37s.56-.39.56-.8a.84.84,0,0,0-.3-.69,3.53,3.53,0,0,0-2.26-.69c-1.75,0-2.89.93-2.89,2.15,0,2.68,4.15,2.43,4.15,4.32a1.22,1.22,0,0,1-1.37,1.23c-1.41,0-1.81-1.1-2.3-1.1s-.58.41-.58.8a.81.81,0,0,0,.32.71,4,4,0,0,0,2.44.73,3.49,3.49,0,0,0,2.4-.82A2.34,2.34,0,0,0,104.74,8C104.74,5.22,100.59,5.39,100.59,3.69Z" transform="translate(-21.01 -1.72)" style="fill:#036939"/><path d="M108.83,2.06c0-.18-.21-.23-1-.23h-.62c-.78,0-1,0-1,.23s.48.16.48,1.07V9.2c0,.92-.48.79-.48,1.07s.21.23,1,.23h.62c.78,0,1,0,1-.23s-.48-.16-.48-1.07V3.13C108.35,2.21,108.83,2.34,108.83,2.06Z" transform="translate(-21.01 -1.72)" style="fill:#036939"/><path d="M117,1.83h-6.47c-.17,0-.23,0-.23.21v.69c0,.16.06.21.23.21h1.06c.69,0,1.1,0,1.36,0V9.2c0,.92-.48.79-.48,1.07s.21.23,1,.23h.62c.78,0,1,0,1-.23s-.48-.16-.48-1.07V2.9c.25,0,.66,0,1.35,0H117c.17,0,.23-.06.23-.21V2C117.24,1.87,117.18,1.83,117,1.83Z" transform="translate(-21.01 -1.72)" style="fill:#036939"/><path d="M125.36,1.83c-1,0-1.23,0-1.23.24s0,.13.16.23a.61.61,0,0,1,.24.47,1.15,1.15,0,0,1-.16.51l-.41.79c-.41.79-.78,1.51-1.07,2.13h0c-.32-.69-.71-1.45-1-2.13l-.68-1.36c-.35-.72-.55-.88-1.48-.88-.71,0-1.13,0-1.13.23a.21.21,0,0,0,.14.2,1.6,1.6,0,0,1,.78.8l2.34,4.62V9.2c0,.92-.48.79-.48,1.07s.21.23,1,.23h.62c.78,0,1,0,1-.23s-.48-.16-.48-1.07V7.69l2.27-4.43a2.66,2.66,0,0,1,.76-1,.27.27,0,0,0,.13-.21C126.58,1.86,126.36,1.83,125.36,1.83Z" transform="translate(-21.01 -1.72)" style="fill:#036939"/><path d="M64.4,30.19c-1-.1-1.29-.34-1.29-1.25V16.4c0-.64-.17-.75-1.76-.75s-1.59.07-1.76.85l-.1.47a6.28,6.28,0,0,0-4.1-1.53c-3.83,0-6.84,3.08-6.84,8.47,0,4.47,2,7.93,6.47,7.93A6.56,6.56,0,0,0,59.62,30c.34,1.15,1.32,1.69,2.74,1.69,1.25,0,2.44-.54,2.44-1.15C64.8,30.36,64.7,30.22,64.4,30.19Zm-5-2.57A5.05,5.05,0,0,1,56,29c-2.54,0-3.59-2.2-3.59-5.18,0-3.62,1.39-5.42,4-5.42a4.35,4.35,0,0,1,3,1.25Z" transform="translate(-21.01 -1.72)" style="fill:#383a35"/><path d="M83,30.7c-.64-.41-.78-.75-.78-2.44V20.64A5.28,5.28,0,0,0,81,16.84a4.93,4.93,0,0,0-3.66-1.39,8.71,8.71,0,0,0-5.52,2.1c-.27-1.35-1.05-2-2.85-2-1.56,0-2.17.34-2.17.68,0,.17.07.24.31.37.85.44,1.08.64,1.08,1.73v9.89c0,1.69-.14,2-.78,2.44-.27.17-.37.24-.37.44s.27.51,3,.51,3-.17,3-.51-.1-.27-.37-.44c-.64-.41-.78-.75-.78-2.44V19.79a7.11,7.11,0,0,1,3.93-1.32,2.68,2.68,0,0,1,2,.75,3.13,3.13,0,0,1,.68,2.3v9.22c0,.71.17.91,1.93.91,2.68,0,2.95-.17,2.95-.51S83.3,30.87,83,30.7Z" transform="translate(-21.01 -1.72)" style="fill:#383a35"/><path d="M46,11.11c0-.45-.51-.55-2.4-.55H42.46c-2,0-2.51.34-3.05,1.61L33.57,25.39,27.43,12.11c-.51-1.1-1.13-1.54-3-1.54H23.41c-1.89,0-2.4.1-2.4.55,0,.69,1.17.38,1.17,2.61V28.48c0,2.23-1.17,1.92-1.17,2.61,0,.45.51.55,2.4.55H24c1.89,0,2.4-.1,2.4-.55,0-.69-1.17-.38-1.17-2.61V16.12h.07l1.3,3,5.53,11.81c.27.62.48.76.93.76h.34c.52,0,.69-.14.93-.72l5.22-11.81c.48-1.1.89-2.09,1.24-3h.07V28.48c0,2.23-1.17,1.92-1.17,2.61,0,.45.51.55,2.4.55h1.51c1.89,0,2.4-.1,2.4-.55,0-.69-1.17-.38-1.17-2.61V13.72C44.83,11.49,46,11.8,46,11.11Z" transform="translate(-21.01 -1.72)" style="fill:#383a35"/><path d="M102.13,30.16c-1-.1-1.3-.34-1.3-1.27V16.19c0-.65-.17-.76-1.79-.76s-1.61.07-1.78.86l-.1.48A6.37,6.37,0,0,0,93,15.23c-3.88,0-6.93,3.12-6.93,8.58,0,4.53,2,8,6.56,8A6.65,6.65,0,0,0,97.29,30c.34,1.17,1.34,1.72,2.78,1.72,1.27,0,2.47-.55,2.47-1.17C102.54,30.33,102.44,30.2,102.13,30.16ZM97,27.55a5.12,5.12,0,0,1-3.43,1.37C91,28.93,90,26.7,90,23.68c0-3.67,1.41-5.49,4-5.49A4.41,4.41,0,0,1,97,19.45Z" transform="translate(-21.01 -1.72)" style="fill:#383a35"/><path d="M117.47,15.44c-1.51,0-1.61.07-1.78.86l-.1.48a6.36,6.36,0,0,0-4.15-1.54c-3.88,0-6.93,3-6.93,8.48,0,4.53,2,7.93,6.56,7.93A6.77,6.77,0,0,0,115.48,30v.52c0,4-1.1,5.77-4.26,5.77a12.56,12.56,0,0,1-3.4-.52c-.24-.07-.41-.07-.41.45v.21c0,1.27.24,1.65,1.3,2a9.3,9.3,0,0,0,2.88.41,7.67,7.67,0,0,0,5.53-2.09c1.92-1.92,2.13-4.84,2.13-7.31V16.19C119.26,15.54,119.09,15.44,117.47,15.44Zm-2,12A5.12,5.12,0,0,1,112,28.79c-2.57,0-3.64-2.13-3.64-5.18,0-3.71,1.41-5.42,4-5.42a4.41,4.41,0,0,1,3.05,1.27Z" transform="translate(-21.01 -1.72)" style="fill:#383a35"/><path d="M131.48,31.85a10.41,10.41,0,0,0,3.05-.41c1.17-.34,1.41-.76,1.41-2.06v-.21c0-.55-.17-.58-.45-.52a15.83,15.83,0,0,1-3.74.52c-2.64,0-4.81-1.06-5.29-4.29a14.91,14.91,0,0,0,3.74.48c4.46,0,6.52-2.4,6.52-5,0-3.33-3-5.11-6.21-5.11-4.87,0-8,3.54-8,8.51C122.48,30,126.78,31.85,131.48,31.85Zm-.89-14.07a2.38,2.38,0,0,1,2.57,2.37c0,1.41-1,2.75-3.74,2.75a17,17,0,0,1-3-.31C126.67,19.49,128.63,17.77,130.59,17.77Z" transform="translate(-21.01 -1.72)" style="fill:#383a35"/><path d="M155.4,31.12c0-.21-.1-.27-.38-.45-.65-.41-.79-.76-.79-2.47V20.48a6.62,6.62,0,0,0,0-.82,6.7,6.7,0,0,1,3.71-1.37c2,0,2.78,1.06,2.78,3.09v9.34c0,.72.17.93,2,.93,2.71,0,3-.17,3-.52s-.1-.27-.38-.45c-.65-.41-.79-.76-.79-2.47V20.48a5.52,5.52,0,0,0-1.27-3.84,4.76,4.76,0,0,0-3.64-1.41,8.85,8.85,0,0,0-5.87,2.47,5.81,5.81,0,0,0-.72-1.06,4.76,4.76,0,0,0-3.64-1.41,8.47,8.47,0,0,0-5.42,2.13c-.27-1.37-1.06-2-2.88-2-1.58,0-2.2.34-2.2.69,0,.17.07.24.31.38.86.45,1.1.65,1.1,1.75v10c0,1.72-.14,2.06-.79,2.47-.27.17-.38.24-.38.45s.27.52,3.05.52,3.05-.17,3.05-.52-.1-.27-.38-.45c-.65-.41-.79-.76-.79-2.47V19.62a6.63,6.63,0,0,1,3.67-1.34c2,0,2.78,1.06,2.78,3.09v9.34c0,.72.17.93,2,.93C155.13,31.64,155.4,31.47,155.4,31.12Z" transform="translate(-21.01 -1.72)" style="fill:#383a35"/><path d="M180,31.43c1.17-.34,1.41-.76,1.41-2.06v-.21c0-.55-.17-.58-.45-.52a15.82,15.82,0,0,1-3.74.52c-2.64,0-4.81-1.06-5.29-4.29a14.91,14.91,0,0,0,3.74.48c4.46,0,6.52-2.4,6.52-5,0-3.33-3-5.11-6.21-5.11-4.87,0-8,3.54-8,8.51,0,6.21,4.29,8.1,9,8.1A10.41,10.41,0,0,0,180,31.43Zm-3.95-13.66a2.38,2.38,0,0,1,2.57,2.37c0,1.41-1,2.75-3.74,2.75a17,17,0,0,1-3-.31C172.16,19.49,174.11,17.77,176.07,17.77Z" transform="translate(-21.01 -1.72)" style="fill:#383a35"/><path d="M190.66,31.12c0-.21-.1-.27-.38-.45-.65-.41-.79-.76-.79-2.47V19.62a7.19,7.19,0,0,1,4-1.34,2.72,2.72,0,0,1,2.06.76,3.17,3.17,0,0,1,.69,2.33v9.34c0,.72.17.93,2,.93,2.71,0,3-.17,3-.51s-.1-.27-.38-.45c-.65-.41-.79-.76-.79-2.47V20.48a5.35,5.35,0,0,0-1.3-3.84A5,5,0,0,0,195,15.23a8.82,8.82,0,0,0-5.6,2.13c-.27-1.37-1.06-2-2.88-2-1.58,0-2.2.34-2.2.69,0,.17.07.24.31.38.86.45,1.1.65,1.1,1.75v10c0,1.72-.14,2.06-.79,2.47-.27.17-.38.24-.38.45s.27.51,3.06.51S190.66,31.47,190.66,31.12Z" transform="translate(-21.01 -1.72)" style="fill:#383a35"/><path d="M213.22,28.79a7.34,7.34,0,0,1-2.16.38c-2.16,0-2.4-1.1-2.4-3.06V17.84h3.64c.55,0,.65-.1.65-.55V16c0-.45-.1-.55-.65-.55h-3.64V11.15c0-.79-1.2-.21-3.19.41-.45.14-.58.34-.58.93v3h-2.06c-.55,0-.65.1-.65.55v1.3c0,.45.1.55.65.55h2.06v9c0,3.6,1.44,5,4.94,5a8.48,8.48,0,0,0,2.47-.34c1.13-.34,1.37-.72,1.37-2v-.21C213.66,28.72,213.42,28.72,213.22,28.79Z" transform="translate(-21.01 -1.72)" style="fill:#383a35"/><path d="M126.82,41.3c0-1.24,1.14-2,2.66-2a5.71,5.71,0,0,1,3.8,1.66c.52.48,1,.9,1.49.9.83,0,1.38-1,1.38-2a2,2,0,0,0-.73-1.69,8.65,8.65,0,0,0-5.53-1.69c-4.29,0-7.09,2.28-7.09,5.26,0,6.57,10.17,5.95,10.17,10.58,0,2.07-1.56,3-3.35,3-3.46,0-4.43-2.7-5.64-2.7-.86,0-1.42,1-1.42,2a2,2,0,0,0,.8,1.73,9.89,9.89,0,0,0,6,1.8,8.54,8.54,0,0,0,5.88-2A5.73,5.73,0,0,0,137,51.88C137,45,126.82,45.45,126.82,41.3Z" transform="translate(-21.01 -1.72)" style="fill:#383a35"/><path d="M151.47,54.89a11.09,11.09,0,0,1-3.46.59c-3.42,0-5.46-1.66-5.46-5.67,0-3.73,1.8-5.74,4.18-5.74,2.14,0,3,1.76,4,1.76.66,0,1.07-.79,1.07-1.69a1.78,1.78,0,0,0-.55-1.42,7,7,0,0,0-4.46-1.28c-5.19,0-8.23,3.42-8.23,8.54s3,8.19,8.44,8.19a12.26,12.26,0,0,0,3.46-.52c1.14-.38,1.42-.73,1.42-2v-.24C151.92,54.82,151.68,54.82,151.47,54.89Z" transform="translate(-21.01 -1.72)" style="fill:#383a35"/><path d="M169.66,57c-.66-.42-.8-.76-.8-2.49V46.73a5.39,5.39,0,0,0-1.31-3.87,5,5,0,0,0-3.74-1.42,9.08,9.08,0,0,0-5.53,2V36.32c0-1.28-.73-1.94-3-1.94-1.59,0-2.21.35-2.21.69,0,.17.07.24.31.38.86.45,1.11.66,1.11,1.76V54.51c0,1.73-.14,2.07-.8,2.49-.28.17-.38.24-.38.45s.28.52,3.08.52,3.08-.17,3.08-.52-.1-.28-.38-.45c-.66-.42-.8-.76-.8-2.49V45.86a7.25,7.25,0,0,1,4-1.35,2.73,2.73,0,0,1,2.08.76,3.2,3.2,0,0,1,.69,2.35V57c0,.73.17.93,2,.93,2.73,0,3-.17,3-.52S169.94,57.17,169.66,57Z" transform="translate(-21.01 -1.72)" style="fill:#383a35"/><path d="M179.41,41.44h-.21c-4.77,0-7.68,3.25-7.68,8.37s2.8,8.37,7.54,8.37h.21c4.77,0,7.68-3.25,7.68-8.37S184.15,41.44,179.41,41.44Zm3.6,8.47c0,4.15-1.31,5.71-3.77,5.71s-3.77-1.56-3.77-5.74v-.14c0-4.18,1.31-5.74,3.77-5.74S183,45.55,183,49.7Z" transform="translate(-21.01 -1.72)" style="fill:#383a35"/><path d="M196.25,41.44H196c-4.77,0-7.68,3.25-7.68,8.37s2.8,8.37,7.54,8.37h.21c4.77,0,7.68-3.25,7.68-8.37S201,41.44,196.25,41.44Zm3.6,8.47c0,4.15-1.31,5.71-3.77,5.71s-3.77-1.56-3.77-5.74v-.14c0-4.18,1.31-5.74,3.77-5.74s3.77,1.56,3.77,5.71Z" transform="translate(-21.01 -1.72)" style="fill:#383a35"/><path d="M211.23,57c-.66-.42-.79-.76-.79-2.49V36.32c0-1.28-.73-1.94-3-1.94-1.59,0-2.21.35-2.21.69,0,.17.07.24.31.38.86.45,1.11.66,1.11,1.76V54.51c0,1.73-.14,2.07-.8,2.49-.28.17-.38.24-.38.45s.28.52,3.08.52,3.08-.17,3.08-.52S211.5,57.17,211.23,57Z" transform="translate(-21.01 -1.72)" style="fill:#383a35"/></svg>