<svg xmlns="http://www.w3.org/2000/svg" viewBox="0 0 495 705">
<title>The Queen's Anniversary Prizes for Higher and Further Education 2019</title><g fill="#fff">
<path d="M160 214c24 2 47 8 66 22l4 4c7 7 14 15 17 24h1c3-9 10-17 17-24l4-4c19-14 42-20 66-22 0 0 28 0 36 3v-56c-6-1-28 3-28 3-72 18-93 72-95 77l-1-1c-2-4-23-58-95-76 0 0-22-4-28-3v56c8-3 36-3 36-3zM371 319c-8 3-35 3-35 3-24-2-48-7-66-22l-5-4c-7-7-14-15-17-24-4 9-10 17-18 24l-4 4c-19 14-42 20-66 22 0 0-28 0-36-3v56c6 1 28-3 28-3 72-18 94-72 96-77 2 5 24 59 95 77 0 0 23 4 28 3zM246 25a8 8 0 007-1 8 8 0 002-8c-1-4-5-6-5-6V8h3V4h-3V0h-4v4h-3v3h3v3l-4 3c-1 2-2 5-1 7a8 8 0 005 5zM242 35l2 10 4-2 4 2 2-10a46 46 0 0113 2 34 34 0 0117 13l5-3a29 29 0 00-4-6c-8-9-24-13-37-13s-27 3-39 14a25 25 0 00-3 5 49 49 0 006 3c7-10 18-14 30-15z"/>
<path d="M203 51l11 37h68l11-37-8 4-1 5-2-2a5 5 0 00-5-1c-2 1-3 4-4 6-1 3 0 6 2 8a2 2 0 002 0l1-5a3 3 0 014-1 5 5 0 010 2v4a6 6 0 01-6 3 9 9 0 01-6-4 10 10 0 010-8s3-1 3-3a7 7 0 00-2-2v-8h-4l-1 7a11 11 0 00-3 1 3 3 0 00-1 3 5 5 0 002 2c0 5-2 10-6 12a5 5 0 01-6-1l-1-6 3-2a3 3 0 012 2 5 5 0 01-1 3 1 1 0 002 1 7 7 0 004-6 8 8 0 00-2-7 5 5 0 00-5-1c-2 0-3 3-4 3l2-5c1-3-2-5-4-7-2 2-4 3-4 6l1 6c-1-1-2-3-4-3s-4 1-5 3c-2 3-1 7 1 10a3 3 0 003 1v-4a3 3 0 011-2c2 0 3 1 3 2 1 1 1 4-1 5l-5 2c-4-1-6-6-7-11-1-2 3-2 2-5l-3-2-2-7h-4l1 7-1 1-1 3c1 2 3 1 3 2 1 4 0 8-2 11a6 6 0 01-6 1c-2 0-3-2-4-4v-4a2 2 0 012 0c2 0 2 2 3 4a1 1 0 001 1 8 8 0 003-6c0-3-1-6-4-8a5 5 0 00-5 1l-2 3-1-5-8-5zM394 266c-3-8-11-12-18-14-27-6-52 3-74 15-20-13-39-34-51-55l9-18c7-18 14-43 4-63-3-7-10-13-18-12-12 2-17 15-19 26-1 22 5 43 14 62-13 22-32 42-52 57a223 223 0 00-25-10c-18-5-41-10-57 4-5 4-7 10-5 16 4 12 17 16 28 17 23 1 44-6 63-17 21 14 38 34 51 55a160 160 0 00-11 25c-6 17-12 42-1 59 4 5 10 10 17 9 9-1 15-10 17-19 6-24-3-47-12-68-1-2 1-3 2-4 14-21 30-39 51-53a148 148 0 0021 8c19 5 45 12 62-3 4-4 7-11 4-17zm-213 2c-19 9-44 16-66 8-4-1-8-4-8-8 1-9 11-12 19-14 20-2 39 4 55 13zm50-119c1-9 4-17 10-23a9 9 0 016-1 11 11 0 016 4c8 16 4 37-1 52l-7 19c-8-16-14-32-13-51zm24 201c8 18 14 45 1 63-2 3-5 4-8 4-7-3-8-10-9-16-4-21 2-42 11-60l5 9zm-7-27c-12-20-28-40-48-53a211 211 0 0046-50l2-1c12 20 28 39 48 52-19 14-35 32-48 52zm142-48c-4 9-14 11-22 13-19 1-35-5-50-12l-4-2c19-9 42-16 64-10a24 24 0 0110 5c2 2 2 4 2 6zM235 26a3 3 0 10-3-4 3 3 0 003 4zM226 28a3 3 0 10-3-4 3 3 0 003 4zM219 31a3 3 0 10-4-3 3 3 0 004 3zM211 36a3 3 0 10-3-4 3 3 0 003 4zM205 42a3 3 0 10-4-4 3 3 0 004 4zM261 26a3 3 0 10-4-3 3 3 0 004 3zM269 28a3 3 0 10-3-3 3 3 0 003 3zM277 32a3 3 0 10-3-4 3 3 0 003 4zM285 36a3 3 0 10-4-3 3 3 0 004 3zM291 42a3 3 0 10-3-3 3 3 0 003 3zM105 539l3-1c1 0 2 0 2-2a89 89 0 001-10v-5-10h-4l-7 1-1 3-1 1-2-2 3-8a2 2 0 012 0v1l1 1a6 6 0 002 0h21a10 10 0 002 0 3 3 0 002-1v-1a4 4 0 012 1 30 30 0 00-2 8 5 5 0 01-2 0v-3l-1-1a36 36 0 00-6 0h-2l-1 1v24l1 2a12 12 0 005 1v2h-17zM149 540v-1l2-1a14 14 0 001-4v-2l-1-1h-6a19 19 0 00-3 0l-1 1v4c0 2 0 2 3 3v2h-11a7 7 0 010-2l2-2v-10-4c0-1 0-2-2-2l-1-1 1-1h10l1 2c-3 0-3 1-3 5l1 3h9l1-1a43 43 0 000-5c0-1-1-2-3-2a12 12 0 010-2h11v2c-3 1-3 1-3 5v7a23 23 0 001 4l2 2h1l-1 2h-11zM170 527l-1-5-2-1v-2h18a1 1 0 011 0v1a28 28 0 000 4l-1 1-1-1c-1-2-2-3-6-3a17 17 0 00-2 1h-1v6l1 1h5l2-3h2a38 38 0 000 4v3l-2 1a10 10 0 00-1-2 1 1 0 00-1-1h-6v5a3 3 0 000 2h4c4 0 6-1 7-3v-1a5 5 0 011 0l1 1a27 27 0 01-2 6h-19a8 8 0 010-2l2-1a41 41 0 001-5zM237 513a17 17 0 014 11c1 5-1 10-6 13a20 20 0 01-5 4 1 1 0 00-1 1 16 16 0 007 7 14 14 0 006 1 17 17 0 003 0l1 1v1a24 24 0 01-8 2 20 20 0 01-6-1 20 20 0 01-7-5 46 46 0 01-4-5 5 5 0 00-2-2c-1 0-6-1-8-4a17 17 0 01-6-12 17 17 0 017-13 21 21 0 0112-5c3 0 9 2 13 6zm-20-1c-3 2-4 7-4 12a16 16 0 002 10c3 4 7 5 9 6a10 10 0 007-4c2-3 3-6 3-11 0-4 0-7-2-10a11 11 0 00-9-5 9 9 0 00-6 2zM252 539c-2-2-2-4-2-6v-7-4l-2-1-1-1 1-1h11v2c-3 1-3 1-3 3l-1 8a5 5 0 003 5 6 6 0 003 1 5 5 0 004-2c2-1 2-4 2-7a46 46 0 000-7l-4-1v-1l1-1h9v1a4 4 0 01-1 1h-1l-1 1a62 62 0 000 7l-2 9c-1 3-6 3-9 3a11 11 0 01-7-2zM282 527l-1-5-2-1v-2h18a1 1 0 011 0v1a29 29 0 000 4l-1 1-1-1c-1-2-2-3-5-3a17 17 0 00-3 1h-1v6l1 1h5l2-3h2a38 38 0 000 4v3l-2 1a11 11 0 00-1-2 1 1 0 00-1-1h-5l-1 5a3 3 0 001 2h3c4 0 6-1 7-3v-1a5 5 0 012 0v1a26 26 0 01-1 6 1 1 0 01-1 0h-19a7 7 0 010-2l2-1a42 42 0 001-5zM308 527v-5l-3-1 1-2h18a1 1 0 011 0v1a29 29 0 000 4l-1 1-1-1c-1-2-2-3-6-3a17 17 0 00-2 1h-1v7h5c2 0 2-1 3-3h2a38 38 0 000 4v3l-2 1a11 11 0 00-1-2 1 1 0 00-1-1h-6v5a3 3 0 000 2h4c4 0 5-1 6-3l1-1a5 5 0 011 0v1a28 28 0 01-1 6h-19a7 7 0 010-2l2-1a41 41 0 000-5zM341 541c1 0 0 0 0 0h-8l-1-2 3-2a49 49 0 000-7v-4-4l-3-1v-2h7a1 1 0 011 1 12 12 0 002 2l11 11a89 89 0 000-10l-3-2v-2h9v2c-3 1-3 1-3 5v14l-3 2v-1a32 32 0 00-3-3l-11-11h-1v10l3 2zM373 510c0 4-4 8-6 9a3 3 0 01-3 1v-1l3-6a4 4 0 00-1-3 1 1 0 010-1 1 1 0 011-1 5 5 0 002-2 1 1 0 011 0c1 0 3 2 3 4zM390 540a18 18 0 01-6 1 34 34 0 01-5 0h-3l-1-1v-7a9 9 0 011 0l1 1a8 8 0 007 5c3 0 5-1 5-3s-3-3-5-4l-7-3a5 5 0 01-1-4 6 6 0 013-5 14 14 0 016-1 23 23 0 014 0h1l1-1h1a48 48 0 001 7l-2 1-1-1a6 6 0 00-2-3 6 6 0 00-4-1c-2 0-3 1-3 2 0 2 2 3 5 4a21 21 0 016 3 5 5 0 012 5 6 6 0 01-4 5zM19 567l4 12 6 15c1 2 2 3 5 4l-1 2H21v-2c2 0 2-1 2-2a39 39 0 00-2-6l-1-1H10l-1 1-2 6 3 2-1 2H1 0v-2c3-1 3-2 4-5l10-22 1-3a1 1 0 011-1 7 7 0 012 0h1zm-4 19h4l-3-11h-1a232 232 0 00-3 11h3zM49 600h-9l-1-2h1c2 0 2-1 2-2a49 49 0 001-7v-4l-1-3-3-2v-2h8a1 1 0 011 1 12 12 0 002 3l10 10a87 87 0 000-10l-3-2v-2h9v2c-3 1-3 1-3 5v14l-2 2-1-1a32 32 0 00-3-3l-11-11h-1v3l1 7c1 1 1 2 3 2zM82 600h-9l-1-2h1c2 0 2-1 2-2a49 49 0 000-7v-4-3l-3-2v-2h7a1 1 0 011 1 12 12 0 002 3l11 10a87 87 0 000-10l-3-2v-2h9v2c-3 1-3 1-3 5v14l-3 2v-1a32 32 0 00-3-3l-11-11h-1v10l3 2zM106 598l2-1a24 24 0 000-6v-5a39 39 0 000-4l-3-1v-1a6 6 0 010-1l2-1h9l1 1v1l-3 2a21 21 0 000 4v5a44 44 0 000 6l3 1v1l-1 1h-11c-1 0 0 0 0 0v-2zM124 579a1 1 0 010-1h10v2l-1 1v1a145 145 0 005 10 108 108 0 004-11l-1-1h-1l1-2h7l1 1a3 3 0 010 1h-1c-2 0-2 1-3 3a409 409 0 00-9 18l-2-1a17 17 0 01-1-3l-6-14c-1-2-2-3-4-3zM157 586v-5l-3-1 1-2h18a1 1 0 011 0v1a29 29 0 00-1 5l-1-1c-1-2-2-2-6-2a17 17 0 00-2 0l-1 1v6h5c2 0 2-1 3-2l1-1 1 1a38 38 0 000 3v4h-2a11 11 0 00-1-2 1 1 0 00-1-1h-6v5a3 3 0 000 2h4c4 0 5 0 6-3l1-1a5 5 0 011 0v1a27 27 0 01-1 6h-19a7 7 0 010-2l2-1a42 42 0 000-5zM193 599v1h-11l-1-1 1-1 2-2a50 50 0 000-5v-4-5l-1-1a9 9 0 00-1 0v-1l-1-2h12l7 2a5 5 0 012 4c0 3-2 4-3 5a1 1 0 000 1 18 18 0 005 7 12 12 0 003 2v1l-1 1c-3 0-6-1-9-4a21 21 0 01-3-5l-3-1-1 1v5a7 7 0 003 1zm-1-19a3 3 0 00-2 0 1 1 0 000 1 61 61 0 000 7l1 1a9 9 0 003 0 4 4 0 002-4c0-4-2-5-4-5zM227 599a18 18 0 01-6 1 34 34 0 01-5 0h-2l-1 1-1-1v-7a8 8 0 011-1l1 1a8 8 0 007 5c2 0 4-1 4-3s-2-3-5-4l-6-3a5 5 0 01-2-4 6 6 0 014-5 14 14 0 016-1 22 22 0 014 0h1v-1l2 1a49 49 0 000 6l-1 1-1-1a6 6 0 00-2-3 6 6 0 00-4-1c-2 0-3 1-3 2 0 3 2 3 5 4a21 21 0 016 3 5 5 0 012 5 6 6 0 01-4 5zM251 578l7 17c1 2 1 3 3 3l1 1-1 1h-10l-1-2 2-1a12 12 0 00-1-2 1 1 0 00-1-1h-6a1 1 0 00-1 1 7 7 0 00-1 2l2 1a7 7 0 010 2h-6-1l-1-2 4-3 6-14a14 14 0 001-2 1 1 0 010-1 4 4 0 012 0h2zm-2 14l1-1-3-7-3 7 1 1h4zM279 599v1h-11v-1-1l2-2a50 50 0 000-5v-4-5-1a10 10 0 00-2 0v-3h11l7 2a5 5 0 012 4c0 3-2 4-3 5a1 1 0 000 1 17 17 0 005 7 12 12 0 003 2v1l-1 1c-3 0-6-1-9-4a21 21 0 01-3-5l-3-1-1 1v5a7 7 0 003 1zm-1-19a3 3 0 00-2 0 1 1 0 000 1 61 61 0 000 7l1 1a9 9 0 003 0 4 4 0 002-4c1-4-2-5-4-5zM304 591a2 2 0 000-1 84 84 0 00-6-9l-2-1h-1v-2c0-1 0 0 0 0h11a7 7 0 010 2h-1l-1 2 4 5h1l3-6-2-1v-1-1h9a6 6 0 010 2 6 6 0 00-4 2 60 60 0 00-5 7 3 3 0 00-1 2 36 36 0 001 5v1a8 8 0 003 1 10 10 0 010 2h-12a9 9 0 01-1-2c4 0 4-1 4-4zM336 598c3 0 3-1 4-3v-15l-1-10h-3v-1a4 4 0 010-2l7 1 7-1a16 16 0 0110 3 9 9 0 010 15c-3 2-8 3-12 3h-2v7c0 1 0 2 2 2l3 1a4 4 0 010 2h-15zm13-28a5 5 0 00-2 0l-1 1a367 367 0 001 15 8 8 0 002 0 10 10 0 003 0c3-1 5-4 5-8 0-2-1-8-8-8zM381 599l-1 1h-10l-1-1v-1l3-2a50 50 0 000-5v-4-5l-1-1a9 9 0 00-1 0l-1-1v-2h12l7 2a5 5 0 012 4c0 3-2 4-3 5a1 1 0 000 1 17 17 0 005 7 13 13 0 003 2v1l-1 1c-4 0-7-1-9-4a21 21 0 01-4-5l-2-1-2 1 1 5a7 7 0 003 1zm-1-19a3 3 0 00-2 0 1 1 0 000 1 61 61 0 000 7l1 1a9 9 0 003 0 4 4 0 002-4c0-4-2-5-4-5zM401 598l2-1v-11-4l-2-1-1-1a6 6 0 010-1l2-1h9l1 1v1l-3 2a21 21 0 000 4v5a44 44 0 000 6l3 1v1l-1 1h-11c-1 0 0 0 0 0v-2zM429 600h-10l-1-1a1 1 0 010-1l4-4a263 263 0 0011-13h-3a34 34 0 00-5 0c-3 1-4 3-5 6h-1l-1-1a81 81 0 013-9 8 8 0 011 0h1v1a46 46 0 005 0h14v1a5 5 0 01-1 1l-1 2-7 8-6 7a32 32 0 005 1c4 0 5-1 6-2a15 15 0 003-4h2a45 45 0 01-2 8l-1 1a5 5 0 01-1 0l-1-1h-5zM452 586l-1-5-3-1 1-2h18a1 1 0 011 0v1a28 28 0 000 5h-1l-1-1c-1-2-2-2-6-2a17 17 0 00-2 0l-1 1v5l1 1h5l2-2 2-1v1a41 41 0 000 7h-2a12 12 0 00-1-2 1 1 0 00-1-1h-6v5a3 3 0 000 2h4c4 0 6 0 7-3v-1a5 5 0 011 0l1 1a27 27 0 01-2 6h-19a7 7 0 010-2l2-1a45 45 0 001-5zM491 599a18 18 0 01-6 1 34 34 0 01-5 0h-2l-1 1-1-1-1-7a8 8 0 012-1l1 1a8 8 0 007 5c2 0 4-1 4-3s-2-3-5-4l-6-3a5 5 0 01-2-4 6 6 0 014-5 14 14 0 016-1 22 22 0 013 0h2v-1l2 1a49 49 0 000 6l-2 1v-1a6 6 0 00-2-3 6 6 0 00-4-1c-2 0-3 1-3 2 0 3 2 4 5 4a21 21 0 016 3 5 5 0 012 5 6 6 0 01-4 5zM222 698h-15l-1-1a12 12 0 013-3 42 42 0 006-5c2-1 3-3 3-5a4 4 0 00-4-3c-3 0-5 2-6 4a4 4 0 01-1-1 13 13 0 012-5 8 8 0 017-3 7 7 0 016 3 7 7 0 011 4 9 9 0 01-4 6l-5 4h1a47 47 0 007 0 2 2 0 001 0 23 23 0 002-4l2 1v1a35 35 0 01-3 6l-1 1zM248 679a12 12 0 01-3 18 13 13 0 01-6 1 10 10 0 01-10-10 12 12 0 0111-12 11 11 0 018 3zm-13 2a9 9 0 00-2 6c0 4 3 8 7 8a6 6 0 004-2c2-1 2-3 2-6 0-4-2-8-7-8a6 6 0 00-4 2zM267 697l-1 1h-12v-1-1l3-1 1-9v-5l-1-2a24 24 0 00-3-1l1-2h11a7 7 0 011 2l-3 1a23 23 0 00-1 6v8c0 2 0 2 2 2h2v1zM289 680a14 14 0 013 8 18 18 0 01-3 9 17 17 0 01-9 7 22 22 0 01-6 1 7 7 0 01-4-2v-1c5 0 13-2 15-8l-7 2a8 8 0 01-4-2 9 9 0 01-4-7 10 10 0 015-9l6-2a10 10 0 018 4zm-12 0a7 7 0 00-1 4 9 9 0 003 7 6 6 0 004 2 4 4 0 001-1 2 2 0 001-1 13 13 0 001-4 10 10 0 00-2-6 5 5 0 00-5-2 3 3 0 00-2 1zM5 648h1a59 59 0 000-7v-2-5c0-2 0-1-2-1a3 3 0 010-1h14a146 146 0 00-1 4h-1a3 3 0 00-1-3 8 8 0 00-3 0 8 8 0 00-2 0v1 6h4l1-1h2v4l-1 1-1-2h-3a15 15 0 00-2 0l-1 1v1a20 20 0 001 3l2 1v2H5v-1a3 3 0 010-1zM35 644a6 6 0 01-3 5 8 8 0 01-10-1 6 6 0 01-1-4 6 6 0 012-5 8 8 0 015-2c4 0 7 3 7 7zm-10-4a6 6 0 00-1 3 6 6 0 002 4 3 3 0 002 2c1 0 3-2 3-5a6 6 0 00-1-4 3 3 0 00-3-1 3 3 0 00-2 1zM44 649v1h-6v-1c0-1 0 0 0 0l1-1a29 29 0 000-3v-3-2-1a8 8 0 00-1 0v-1h6a7 7 0 014 1 3 3 0 011 2 3 3 0 01-1 3h-1a9 9 0 003 4 7 7 0 002 1v1a7 7 0 01-5-2 12 12 0 01-2-2l-2-1h-1l1 3a4 4 0 001 1zm0-10a2 2 0 00-1 0 33 33 0 00-1 4l1 1a5 5 0 002-1 2 2 0 001-1 2 2 0 00-2-3zM73 640h3l1-1v-2-3l-3-1 1-1h7a2 2 0 010 1l-2 1v9a32 32 0 000 4l2 1v2h-7v-1l1-1a15 15 0 001-4v-2a1 1 0 00-1 0h-6a21 21 0 00-4 0v6l2 1a7 7 0 010 1h-7a3 3 0 010-1l2-2v-9-4l-2-1a3 3 0 010-1h7a3 3 0 010 1l-2 1a21 21 0 000 4l1 2zM86 648h1a12 12 0 000-3v-3a20 20 0 000-2l-1-1a3 3 0 010-1h6v1l-1 1a12 12 0 000 2v3a24 24 0 000 3h1v2h-6v-1-1zM109 645h-1v4a1 1 0 01-1 1h-4l-6-2a6 6 0 01-2-4 6 6 0 012-5 10 10 0 016-2 15 15 0 013 1v-1h1v1l1 3h-1-1a4 4 0 00-3-2 3 3 0 00-2 0 5 5 0 00-2 4 5 5 0 002 5 4 4 0 002 1 2 2 0 001-1l1-2-1-1h-1l-1-1 1-1 4 1 1-1 1 1zM121 649l1-1a8 8 0 001-2v-1l-1-1h-3a10 10 0 00-2 0v3l1 2v1h-6a4 4 0 010-1l1-1 1-3v-3l-1-2-1-1v-1h6v1l-1 2v2h5v-1a24 24 0 000-2l-1-1a7 7 0 010-1h6v1l-1 2v4a13 13 0 000 3h1v1h-6zM133 642a9 9 0 00-1-3h-1v-1h10c1 0 1 0 0 0a16 16 0 000 3h-1c0-2 0-2-3-2a8 8 0 00-1 0v4h3l1-1h1v4h-1a7 7 0 00-1-1 1 1 0 000-1h-2l-1 1v2a2 2 0 000 1h2c2 0 3 0 3-2h1a15 15 0 010 4h-11a4 4 0 010-1l1-1a21 21 0 001-3zM152 649v1h-6v-1c0-1 0 0 0 0l1-1a26 26 0 000-3v-2-3-1a7 7 0 00-1 0v-1h6a7 7 0 014 1 3 3 0 011 2 3 3 0 01-1 3h-1a10 10 0 003 4 7 7 0 002 1v1h-1a7 7 0 01-4-2 12 12 0 01-2-2l-2-1h-1l1 3a4 4 0 001 0zm0-10a2 2 0 00-1 0 34 34 0 00-1 4l1 1a5 5 0 002-1 2 2 0 001-1 2 2 0 00-2-3zM176 638l4 9a2 2 0 002 2v1h-6v-1l1-1a7 7 0 000-1 1 1 0 00-1-1h-3a1 1 0 00-1 1 4 4 0 000 1l1 1a4 4 0 010 1h-4l-1-1 2-2 4-8a8 8 0 000-1 1 1 0 011 0 2 2 0 011-1v1zm0 7l-1-4a85 85 0 00-2 4h3zM191 649v1h-5v-1l1-2a26 26 0 000-3v-3-2h-1-1v-1h5a7 7 0 001 2l6 5a48 48 0 000-5l-2-1v-1h5v1l-1 2-1 4 1 4-2 1a16 16 0 00-2-2l-6-6a17 17 0 000 2 21 21 0 000 4l2 1zM204 638h6a9 9 0 016 1 6 6 0 012 5 5 5 0 01-2 4 7 7 0 01-3 1 10 10 0 01-3 1h-6v-1l1-1v-6a19 19 0 000-2l-1-1v-1zm8 2a5 5 0 00-2-1 2 2 0 00-1 0h-1v4a26 26 0 001 5 3 3 0 001 0 4 4 0 002 0 5 5 0 002-4 5 5 0 00-2-4zM229 648a62 62 0 001-7v-2l-1-5-1-1a3 3 0 010-1h13v4h-1a3 3 0 00-2-3 8 8 0 00-3 0 8 8 0 00-1 0l-1 1v6h4l2-1h1v4l-1 1-1-2h-3a15 15 0 00-2 0v2a19 19 0 000 3l3 1v1l-1 1h-7v-1a3 3 0 010-1zM247 649a4 4 0 01-2-4v-3a8 8 0 000-3h-1v-1c0-1 0 0 0 0h6v1l-1 1v5a3 3 0 001 3 3 3 0 002 0 3 3 0 002-1l1-4a26 26 0 000-3l-2-1v-1h5a2 2 0 010 1h-1v1a36 36 0 00-1 3l-1 5a6 6 0 01-8 0zM268 649v1h-6v-1c0-1 0 0 0 0l1-1v-5-3-1a7 7 0 00-1 0v-1h6a7 7 0 014 1 3 3 0 011 2 3 3 0 01-2 3 9 9 0 003 4 7 7 0 001 1l1 1h-1a7 7 0 01-5-2 12 12 0 01-2-2l-1-1h-1v3a4 4 0 002 1zm-1-10a2 2 0 00-1 0 33 33 0 000 4l1 1a5 5 0 002-1 2 2 0 001-1 2 2 0 00-3-3zM280 649l2-1a25 25 0 000-4v-2a25 25 0 000-3 8 8 0 00-3 0 4 4 0 00-1 2l-1-1 1-3h1a1 1 0 001 1h4a28 28 0 005 0l1-1a3 3 0 011 0 10 10 0 00-1 4h-1v-1-1a11 11 0 00-3 0 32 32 0 000 3v2a22 22 0 000 3l2 1v2h-7l-1-1zM303 649l1-1a8 8 0 001-2v-1l-1-1h-3a10 10 0 00-2 0v3l1 2 1 1h-1-6a4 4 0 010-1l2-1a24 24 0 000-3v-3-2l-2-1v-1h6v1l-1 2v2h5l1-1a21 21 0 000-2l-2-1a7 7 0 010-1h6v1l-1 2v4a13 13 0 000 3h1v1h-6zM315 642a9 9 0 00-1-3h-1v-1h10a1 1 0 011 0 15 15 0 00-1 3h-1c0-2 0-2-3-2a8 8 0 00-1 0v4h3l1-1h1v4h-1a6 6 0 000-1 1 1 0 00-1-1h-2l-1 1v2a2 2 0 000 1h2c2 0 3 0 3-2h2a15 15 0 01-1 4h-11a4 4 0 010-1l1-1a21 21 0 001-3zM334 649v1h-6v-1c0-1 0 0 0 0l1-1 1-3v-2-3l-1-1a7 7 0 00-1 0v-1h6a7 7 0 014 1 3 3 0 011 2 3 3 0 01-1 3 9 9 0 003 4 7 7 0 001 1v1a7 7 0 01-5-2 12 12 0 01-2-2l-2-1v3a4 4 0 001 0zm0-10a2 2 0 00-1 0 33 33 0 000 4v1a5 5 0 002-1 2 2 0 001-1 2 2 0 00-2-3zM358 640h2c2 0 2 0 3-2a2 2 0 011 0 26 26 0 000 3v3a3 3 0 01-1 0l-1-2h-1l-3-1h-1l-1 1a18 18 0 000 3v3h4c2 0 4 0 5-3a2 2 0 011 0 13 13 0 01-1 4v1h-2-12v-1l2-1v-11a18 18 0 000-3l-1-1a9 9 0 00-1 0v-1h13a1 1 0 011 0v1a18 18 0 00-1 3h-1c0-2-1-3-2-3h-4l-1 1v6zM370 638h6a9 9 0 015 1 6 6 0 012 5 5 5 0 01-1 4 7 7 0 01-4 1 10 10 0 01-3 1h-5v-1l1-1v-6a17 17 0 000-2l-1-1-1-1zm8 2a5 5 0 00-3-1 2 2 0 00-1 0v4a26 26 0 000 5 3 3 0 002 0 4 4 0 002 0 5 5 0 002-4 5 5 0 00-2-4zM389 649a4 4 0 01-1-4v-3a7 7 0 000-3h-2v-1h7l-1 1-1 1v5a3 3 0 001 3 3 3 0 002 0 3 3 0 002-1 6 6 0 001-4 26 26 0 000-3l-2-1v-1h5a2 2 0 010 1h-1v1a31 31 0 000 3c0 3-1 4-2 5a6 6 0 01-8 0zM404 640a8 8 0 014-2 11 11 0 013-1 9 9 0 012 1 1 1 0 001 0 3 3 0 011 0 7 7 0 000 3l-1 1c-1 0 0 0 0 0a4 4 0 00-2-3 4 4 0 00-2 0 4 4 0 00-2 1 5 5 0 00-2 4c0 2 2 5 4 5a3 3 0 003-1 7 7 0 001-2h1v1a8 8 0 01-1 2 1 1 0 010 1 25 25 0 01-4 0c-5 0-7-3-7-6a6 6 0 011-4zM426 638l4 9a2 2 0 002 2v1h-6v-1l1-1a7 7 0 00-1-1 1 1 0 000-1h-4a1 1 0 000 1 4 4 0 00-1 1l1 1h1a4 4 0 01-1 1h-4v-1l2-2 4-8a10 10 0 000-1 2 2 0 011-1l1 1zm-1 7h1l-2-4a96 96 0 00-1 4h2zM437 649l2-1a25 25 0 000-4v-2a23 23 0 000-3h-1a8 8 0 00-2 0 4 4 0 00-1 2h-1v-1l1-3h1a1 1 0 000 1h5a28 28 0 005 0v-1a3 3 0 011 0 10 10 0 000 4h-1v-1l-1-1a11 11 0 00-2 0h-1a28 28 0 000 3v2a20 20 0 000 3l2 1v2h-7v-1zM451 648a1 1 0 001 0 12 12 0 000-3v-3-2l-1-1a3 3 0 010-1h6v1l-1 1a12 12 0 00-1 2v3a24 24 0 001 3h1v2h-6v-1-1zM474 644a6 6 0 01-2 5 8 8 0 01-4 1 8 8 0 01-6-2 6 6 0 01-2-4 6 6 0 012-5 8 8 0 015-2c4 0 7 3 7 7zm-9-4a6 6 0 00-1 3 6 6 0 001 4 3 3 0 003 2c1 0 3-2 3-5a6 6 0 00-2-4 3 3 0 00-2-1 3 3 0 00-2 1zM482 649v1h-4l-1-1 2-2a27 27 0 000-3v-3-2h-2v-1h5a7 7 0 001 2l6 5a51 51 0 000-5l-2-1v-1h5v1c-2 0-2 0-2 2v8l-1 1a18 18 0 00-2-2l-6-6-1 2a22 22 0 001 4l1 1z"/></g></svg>