<svg xmlns="http://www.w3.org/2000/svg" viewBox="0 0 327 67.12"><title>sport-badge-horizontal</title><g id="Layer_2" data-name="Layer 2"><g id="Layer_1-2" data-name="Layer 1"><rect width="327" height="67.12" rx="10.93" style="fill:#fdb913"/><path d="M117.87,13.81a4.8,4.8,0,0,1,4.9-5c2.79,0,4.42,1.53,4.63,3.95l-2.25.08a2.13,2.13,0,0,0-2.34-2c-1.6,0-2.56,1.16-2.56,2.94s1,3,2.75,3a2.31,2.31,0,0,0,2.28-1.48H123V13.69h4.49v4.93h-2V17.41a3.1,3.1,0,0,1-2.9,1.39A4.65,4.65,0,0,1,117.87,13.81Z" style="fill:#231f20"/><path d="M133.16,18.8a4.79,4.79,0,0,1-4.93-5,4.94,4.94,0,1,1,9.87,0A4.8,4.8,0,0,1,133.16,18.8Zm0-8c-1.56,0-2.55,1.18-2.55,3s1,3,2.55,3,2.56-1.17,2.56-3S134.73,10.85,133.16,10.85Z" style="fill:#231f20"/><path d="M143.51,18.8a4.79,4.79,0,0,1-4.92-5,4.94,4.94,0,1,1,9.87,0A4.8,4.8,0,0,1,143.51,18.8Zm0-8c-1.55,0-2.54,1.18-2.54,3s1,3,2.54,3,2.57-1.17,2.57-3S145.09,10.85,143.51,10.85Z" style="fill:#231f20"/><path d="M149.31,9H153c3.16,0,5.11,1.8,5.11,4.81s-1.95,4.81-5.11,4.81h-3.72Zm3.57,7.79a2.67,2.67,0,0,0,2.87-3,2.66,2.66,0,0,0-2.87-3h-1.25v5.95Z" style="fill:#231f20"/><path d="M118.22,28.05V22.22h2.3v5.49c0,1.55.55,2.35,2,2.35s2-.8,2-2.33V22.22h2.31v5.83c0,2.81-1.86,4-4.27,4S118.22,30.86,118.22,28.05Z" style="fill:#231f20"/><path d="M134,28V22.22h2.12v9.61h-1.85l-4.45-6.13v6.13h-2.14V22.22h2.23Z" style="fill:#231f20"/><path d="M139.36,22.22v9.61H137V22.22Z" style="fill:#231f20"/><path d="M143.33,31.83l-3.72-9.61H142L144.6,29h.06l2.55-6.76h2.3l-3.72,9.61Z" style="fill:#231f20"/><path d="M157.17,31.83h-7.42V22.22H157v1.91h-5V26h3.89V27.9H152v2h5.14Z" style="fill:#231f20"/><path d="M164,31.83a4.25,4.25,0,0,1-.4-1.9c-.08-1.09-.56-1.44-1.53-1.44H160.1v3.34h-2.28V22.22h4.64c2.49,0,3.71,1.16,3.71,3a2.32,2.32,0,0,1-2.08,2.45,1.93,1.93,0,0,1,1.71,1.93c.14,1.42.19,1.87.51,2.22Zm-1.87-5.12c1.21,0,1.81-.35,1.81-1.3s-.6-1.33-1.81-1.33h-2v2.63Z" style="fill:#231f20"/><path d="M168.18,28.34c.09,1.33,1.08,1.86,2.28,1.86,1,0,1.66-.39,1.66-1s-.57-.79-1.41-1l-1.8-.32c-1.52-.29-2.61-1.14-2.61-2.77,0-1.9,1.48-3.07,3.82-3.07,2.61,0,4,1.3,4.07,3.43l-2.13.06a1.72,1.72,0,0,0-2-1.68c-1,0-1.52.4-1.52,1.06s.42.74,1.13.88l1.8.32c2,.35,2.87,1.33,2.87,2.9,0,2-1.73,3-3.92,3-2.57,0-4.4-1.27-4.4-3.6Z" style="fill:#231f20"/><path d="M177.67,22.22v9.61h-2.32V22.22Z" style="fill:#231f20"/><path d="M181.57,31.83v-7.7h-3.34V22.22h9v1.91h-3.39v7.7Z" style="fill:#231f20"/><path d="M194.38,22.22h2.48l-3.71,5.94v3.67h-2.24V28.16l-3.69-5.94h2.56l2.35,3.71Z" style="fill:#231f20"/><path d="M117.87,40.25a4.8,4.8,0,0,1,4.9-5c2.79,0,4.42,1.52,4.63,4l-2.25.07a2.13,2.13,0,0,0-2.34-2c-1.6,0-2.56,1.16-2.56,3s1,3,2.75,3a2.29,2.29,0,0,0,2.28-1.48H123V40.12h4.49v4.93h-2v-1.2a3.09,3.09,0,0,1-2.9,1.38A4.65,4.65,0,0,1,117.87,40.25Z" style="fill:#231f20"/><path d="M128.27,41.27V35.44h2.31v5.49c0,1.54.55,2.35,1.95,2.35s2-.81,2-2.33V35.44h2.3v5.83c0,2.81-1.86,4-4.27,4S128.27,44.08,128.27,41.27Z" style="fill:#231f20"/><path d="M140,35.44v9.61h-2.31V35.44Z" style="fill:#231f20"/><path d="M141,35.44h3.72c3.16,0,5.11,1.8,5.11,4.81s-1.95,4.8-5.11,4.8H141Zm3.57,7.78a2.67,2.67,0,0,0,2.87-3,2.67,2.67,0,0,0-2.87-3H143.3v5.95Z" style="fill:#231f20"/><path d="M157.76,45.05h-7.41V35.44h7.28v1.91h-5v1.89h3.89v1.87h-3.89v2h5.14Z" style="fill:#231f20"/><path d="M125.25,56.35v1.92H117.9V56.65l2.65-2.15c1.48-1.21,2.11-1.82,2.11-2.82a1.11,1.11,0,0,0-1.22-1.25c-.92,0-1.31.65-1.31,1.57a2.92,2.92,0,0,0,.1.81L118,52.75a4.84,4.84,0,0,1-.12-.9,3.33,3.33,0,0,1,3.66-3.38c2.31,0,3.58,1.31,3.58,3.07s-1,2.58-2.51,3.75l-1.32,1.06Z" style="fill:#fff"/><path d="M129.8,58.45c-2.61,0-4.27-1.8-4.27-5s1.66-5,4.27-5,4.27,1.8,4.27,5S132.41,58.45,129.8,58.45Zm0-8.12c-1.3,0-1.83,1-1.83,3.13s.53,3.13,1.83,3.13,1.83-1,1.83-3.13S131.1,50.33,129.8,50.33Z" style="fill:#fff"/><path d="M142.08,56.35v1.92h-7.35V56.65l2.65-2.15c1.48-1.21,2.11-1.82,2.11-2.82a1.11,1.11,0,0,0-1.22-1.25c-.92,0-1.32.65-1.32,1.57a2.87,2.87,0,0,0,.11.81l-2.26-.06a4.84,4.84,0,0,1-.12-.9,3.33,3.33,0,0,1,3.66-3.38c2.31,0,3.57,1.31,3.57,3.07s-1,2.58-2.5,3.75l-1.33,1.06Z" style="fill:#fff"/><path d="M146.32,58.45c-2.61,0-4.27-1.8-4.27-5s1.66-5,4.27-5,4.27,1.8,4.27,5S148.93,58.45,146.32,58.45Zm0-8.12c-1.3,0-1.83,1-1.83,3.13s.53,3.13,1.83,3.13,1.83-1,1.83-3.13S147.62,50.33,146.32,50.33Z" style="fill:#fff"/><line x1="207.07" y1="58.45" x2="207.07" y2="7.73" style="fill:#fff"/><rect x="206.32" y="7.73" width="1.5" height="50.72" style="fill:#fff"/><path d="M225.07,15.59a2,2,0,0,0,2.32,1.9c1.05,0,1.7-.41,1.7-1.06s-.57-.81-1.43-1l-1.84-.33c-1.56-.3-2.67-1.17-2.67-2.84,0-1.93,1.51-3.13,3.9-3.13,2.67,0,4.12,1.32,4.16,3.51l-2.18.06A1.76,1.76,0,0,0,227,11c-1,0-1.56.41-1.56,1.08s.44.76,1.16.9l1.84.33c2,.36,2.93,1.36,2.93,3,0,2-1.76,3.07-4,3.07-2.62,0-4.49-1.29-4.49-3.68Z" style="fill:#231f20"/><path d="M234.72,19.16h-2.35V9.33h4.14c2.55,0,4,1.19,4,3.31s-1.48,3.32-4,3.32h-1.79Zm1.7-5.1c1.29,0,1.83-.49,1.83-1.4s-.54-1.42-1.83-1.42h-1.7v2.82Z" style="fill:#231f20"/><path d="M245.84,19.34a4.89,4.89,0,0,1-5-5.09,5,5,0,1,1,10.09,0A4.9,4.9,0,0,1,245.84,19.34Zm0-8.12c-1.59,0-2.61,1.2-2.61,3s1,3,2.61,3,2.62-1.2,2.62-3S247.44,11.22,245.84,11.22Z" style="fill:#231f20"/><path d="M258,19.16a4.5,4.5,0,0,1-.41-1.95c-.07-1.11-.57-1.47-1.56-1.47h-2v3.42h-2.32V9.33h4.74c2.54,0,3.79,1.19,3.79,3.08a2.38,2.38,0,0,1-2.12,2.51,2,2,0,0,1,1.74,2c.15,1.45.19,1.92.52,2.28Zm-1.9-5.24c1.23,0,1.84-.36,1.84-1.33s-.61-1.35-1.84-1.35h-2.05v2.68Z" style="fill:#231f20"/><path d="M264,19.16V11.28H260.6V9.33h9.23v1.95h-3.46v7.88Z" style="fill:#231f20"/><path d="M272,15.59a2,2,0,0,0,2.32,1.9c1,0,1.7-.41,1.7-1.06s-.58-.81-1.43-1l-1.85-.33c-1.56-.3-2.66-1.17-2.66-2.84,0-1.93,1.51-3.13,3.9-3.13,2.66,0,4.11,1.32,4.16,3.51l-2.18.06A1.77,1.77,0,0,0,274,11c-1,0-1.56.41-1.56,1.08s.44.76,1.16.9l1.84.33c2,.36,2.93,1.36,2.93,3,0,2-1.77,3.07-4,3.07-2.62,0-4.49-1.29-4.49-3.68Z" style="fill:#231f20"/><path d="M223.31,28.48V22.53h2.35v5.61c0,1.57.56,2.4,2,2.4s2-.83,2-2.38V22.53H232v5.95c0,2.87-1.9,4.06-4.36,4.06S223.31,31.35,223.31,28.48Z" style="fill:#231f20"/><path d="M239.66,28.42V22.53h2.17v9.82h-1.89l-4.55-6.27v6.27h-2.18V22.53h2.28Z" style="fill:#231f20"/><path d="M245.48,22.53v9.82h-2.37V22.53Z" style="fill:#231f20"/><path d="M249.81,32.35,246,22.53h2.46l2.64,6.91h.06l2.6-6.91h2.36l-3.81,9.82Z" style="fill:#231f20"/><path d="M264.24,32.35h-7.58V22.53h7.44v1.95H259v1.93h4v1.92h-4V30.4h5.26Z" style="fill:#231f20"/><path d="M271.46,32.35a4.27,4.27,0,0,1-.41-2c-.08-1.11-.58-1.46-1.56-1.46h-2v3.41h-2.32V22.53h4.74c2.54,0,3.79,1.18,3.79,3.07a2.38,2.38,0,0,1-2.12,2.51,2,2,0,0,1,1.74,2c.14,1.45.19,1.92.52,2.28Zm-1.91-5.24c1.23,0,1.84-.36,1.84-1.32s-.61-1.36-1.84-1.36h-2v2.68Z" style="fill:#231f20"/><path d="M276.37,28.78c.09,1.36,1.1,1.9,2.32,1.9,1,0,1.7-.4,1.7-1.06s-.58-.81-1.43-1l-1.84-.33c-1.56-.29-2.67-1.17-2.67-2.84,0-1.93,1.51-3.13,3.9-3.13,2.66,0,4.11,1.33,4.16,3.51l-2.18.06a1.76,1.76,0,0,0-2-1.71c-1,0-1.56.4-1.56,1.07s.44.77,1.16.91l1.84.32c2,.36,2.93,1.36,2.93,3,0,2-1.76,3.07-4,3.07-2.62,0-4.49-1.3-4.49-3.68Z" style="fill:#231f20"/><path d="M286,22.53v9.82h-2.37V22.53Z" style="fill:#231f20"/><path d="M290.31,32.35V24.48h-3.42V22.53h9.23v1.95h-3.46v7.87Z" style="fill:#231f20"/><path d="M303.54,22.53h2.55l-3.79,6.06v3.76H300V28.59l-3.77-6.06h2.62l2.4,3.79Z" style="fill:#231f20"/><path d="M228,45.73a4.89,4.89,0,0,1-5-5.1,5,5,0,1,1,5,5.1Zm0-8.12c-1.59,0-2.6,1.2-2.6,3s1,3,2.6,3,2.62-1.2,2.62-3S229.59,37.61,228,37.61Z" style="fill:#231f20"/><path d="M233.88,45.54V35.72h7.27v2h-4.92v2.18H240v1.94h-3.73v3.75Z" style="fill:#231f20"/><path d="M247.51,45.54V37.67h-3.42v-2h9.23v2h-3.46v7.87Z" style="fill:#231f20"/><path d="M254.18,45.54V35.72h2.37V39.6h4.29V35.72h2.37v9.82h-2.37v-4h-4.29v4Z" style="fill:#231f20"/><path d="M272.06,45.54h-7.57V35.72h7.43v2h-5.11V39.6h4v1.92h-4v2.07h5.25Z" style="fill:#231f20"/><path d="M282.07,35.72h2.54l-3.78,6.07v3.75h-2.3V41.79l-3.77-6.07h2.62l2.4,3.79Z" style="fill:#231f20"/><path d="M292.72,45.54h-7.58V35.72h7.44v2h-5.11V39.6h4v1.92h-4v2.07h5.25Z" style="fill:#231f20"/><path d="M299.49,35.72l4,9.82h-2.53l-.84-2.12h-4l-.82,2.12h-2.37l3.93-9.82Zm-2.68,5.93h2.59l-1.27-3.23h-.06Z" style="fill:#231f20"/><path d="M310.23,45.54a4.46,4.46,0,0,1-.4-1.95c-.08-1.1-.58-1.46-1.56-1.46h-2v3.41H304V35.72h4.74c2.54,0,3.78,1.19,3.78,3.07a2.38,2.38,0,0,1-2.12,2.51,2,2,0,0,1,1.75,2c.14,1.45.19,1.92.51,2.27Zm-1.9-5.23c1.23,0,1.84-.36,1.84-1.33s-.61-1.36-1.84-1.36h-2v2.69Z" style="fill:#231f20"/><path d="M58.43,13.55a3.19,3.19,0,0,0,.07-.47c0-.1,0-.42,0-.42l.24,0a1.25,1.25,0,0,1,.14.24,1.15,1.15,0,0,0,.13.21l.34-.33h.19a.61.61,0,0,1,0-.14.66.66,0,0,0,0-.11s-.2,0-.23-.14a1.89,1.89,0,0,1-.06-.23.58.58,0,0,0-.13-.1.23.23,0,0,0-.16,0,.61.61,0,0,1-.16,0s0,.11-.15.14a.4.4,0,0,1-.29-.05,2.63,2.63,0,0,0-.22.3c0,.07,0,.18,0,.18a.49.49,0,0,1-.3.2,1.77,1.77,0,0,1-.39,0,.1.1,0,0,0-.11.1c0,.09.06.1,0,.13a1.64,1.64,0,0,1-.23.07.44.44,0,0,0,0-.22c0-.07-.1-.35,0-.42s.4-.12.41-.25a.46.46,0,0,0-.14-.34.15.15,0,0,1,0-.23c.07,0-.11,0-.11-.15s.16-.33.25-.32.24,0,.27,0S58,11,58.16,11a.45.45,0,0,1,.3.08c.14.1.23,0,.34,0s-.06-.11-.09-.19a.63.63,0,0,1,0-.21,1,1,0,0,0,.3.13c.18.05.23,0,.12-.08S59,10.66,59,10.6s.07,0,.18,0,.28,0,.27,0,0-.07-.08-.09a.36.36,0,0,1-.19-.11.14.14,0,0,1-.06-.1s0,0-.14-.06a.26.26,0,0,1-.14-.17.33.33,0,0,1-.14,0c-.09,0-.14-.14-.19-.16s-.08,0-.15-.1,0-.1,0-.11-.16,0-.18-.07a1.52,1.52,0,0,1-.11-.2s0,0-.11,0A.5.5,0,0,1,57.7,9c0-.07.11,0,.17,0a.29.29,0,0,1,.09.1.17.17,0,0,1,.14,0l.09.07a.34.34,0,0,1,.12,0,.22.22,0,0,1,.08.11s.12,0,.15,0l.14.15a.32.32,0,0,1,.13,0,.74.74,0,0,1,.17.14.7.7,0,0,1,.25.1c.06.06.11.18.12.17a.34.34,0,0,1,.24.05l.13.16.1,0a.56.56,0,0,0,.11-.15l.13-.29.2.05a.26.26,0,0,0-.06.2,1.13,1.13,0,0,1,.06.31c0,.09-.08.13,0,.22a1.13,1.13,0,0,0,.18.19,1.26,1.26,0,0,1,0-.33,5,5,0,0,1,.38-.49l.22,0a.68.68,0,0,0,0,.36,2.84,2.84,0,0,0,.21.39.84.84,0,0,1,.06.19s.4-.23.59-.19.37.13.41.07-.08-.21,0-.25.46-.15.46-.15l.11.14s-.27.07-.26.13.11.25.06.35a.35.35,0,0,1-.3.16c-.14,0-.25,0-.28,0a.87.87,0,0,1-.21.06,3.62,3.62,0,0,1,.44,0c.14,0,.34,0,.37-.11s.15-.24.24-.24l.28,0,0,.1a1,1,0,0,0-.39.07c-.08.08-.19.31-.29.34s-.4,0-.54,0a3.93,3.93,0,0,0-.46.11s.72-.1.82-.06a.48.48,0,0,0,.45-.06,1.24,1.24,0,0,1,.46-.15h.12v.11a1.33,1.33,0,0,0-.52.2.33.33,0,0,1-.32.12,5.3,5.3,0,0,0-.8,0l-.12,0-.28-.32S61.84,11,62,11s.35,0,.39-.07,0-.25.07-.34,0,.1-.07.16,0,.16-.13.18-.35,0-.45,0l-.54.27-.08-.05s.53-.27.55-.3-.06-.06-.1,0-.37.16-.37.16-.14.25-.19.26a3.61,3.61,0,0,1,.62,1,2.13,2.13,0,0,1-.12,1.63l.08.12,0,.08-.12.26.43-.09.12.09s.34-.07.52-.13.27-.11.32-.1l.23.1a3.61,3.61,0,0,1,.48.22.16.16,0,0,1,0,.1l.32.12s0-.31-.06-.38-.08-.33-.08-.33l.11,0a1.17,1.17,0,0,1,.22.14l.17.15a1.31,1.31,0,0,0,.1-.33c0-.12,0-.36,0-.36l.15,0,.13.21.08.2s.24-.19.31-.23a1.67,1.67,0,0,1,.31-.12h.09l-.15.16a2.18,2.18,0,0,0-.22.43l.11-.09h.07l0,.14.1-.09.07,0,0,.14.11-.11.06,0-.06.1.13-.07.06,0,0,.09s.13,0,.12-.09-.11-.47-.11-.47l.06,0,.12.16a.69.69,0,0,0,.11.12.5.5,0,0,0,.13-.25,2.57,2.57,0,0,1,.06-.27h.09a1.2,1.2,0,0,1,.06.23c0,.06,0,.19,0,.19l.22-.28a.71.71,0,0,1,.21-.18l.07,0s-.08.28-.1.4a2.2,2.2,0,0,0,0,.3,3,3,0,0,1,.39-.08l.38-.05.08.07a1,1,0,0,0-.35.13l-.22.22a1.43,1.43,0,0,1,.35,0l.17,0v.07a3.47,3.47,0,0,0-.36.16.32.32,0,0,0-.14.1.83.83,0,0,1,.24.16l.17.15,0,.06-.5-.07a6,6,0,0,0-.74.08l.31,0-.25.11.39-.06,0,.06a2.29,2.29,0,0,0-.17.23.68.68,0,0,0-.06.15l.52-.34H67a.69.69,0,0,0,0,.18,1.19,1.19,0,0,1-.09.27l.39-.1.27-.1v.09a.39.39,0,0,1-.11.16l-.17.11.42,0a1.76,1.76,0,0,1,.29,0l-.12.49-.55.28-.52.25s.41.09.52.13l.71.23-.35.43a21,21,0,0,1-4.53.23,37.16,37.16,0,0,1-5.58-1.18,2.18,2.18,0,0,0-1.2.37c-.2.21-.16.25,0,.19a2.61,2.61,0,0,1,1.17-.43,5.34,5.34,0,0,1,1.14.28l-.18.23-.8-.2a1.82,1.82,0,0,0-.9.22c-.25.13-.35.52-.62.45a1.19,1.19,0,0,1-.47-.26,1,1,0,0,1,.1-.53c.06-.09,0-.23,0-.23l-.27.2s.11.15.05.26-.33,0-.33,0l-.78.39s-.15.08-.1.09.07.12,0,.18a1.47,1.47,0,0,1-.72.05,5.63,5.63,0,0,1-.86-.18l-.09.11,0,0-.28.31-.14-.05-.62-.08-.2-.25,0-.61.08-.07L51,17s-.12.17-.07.26a.45.45,0,0,1,0,.58.42.42,0,0,1-.53.13c-.13-.07-.42-.48-.77-.65s-1.44.26-1.44.26L48,17.29a7.83,7.83,0,0,1,1.3-.29,1.16,1.16,0,0,1,1,.43c.07.09.2.05.13-.06a1.39,1.39,0,0,0-.54-.41,2.33,2.33,0,0,0-1.11,0c-.19,0-2.93.85-4,1a10.94,10.94,0,0,1-1.8.1s-1,0-1.51,0l-2.52-.17a1.31,1.31,0,0,1-.1-.19,2.71,2.71,0,0,0-.16-.27l.45-.12c.13,0,.55-.13.55-.13L39.23,17l-.58-.27s-.06-.2-.09-.27l-.12-.25a1.75,1.75,0,0,1,.37,0,2,2,0,0,1,.4.07s0,0,0-.05l.16,0s-.11,0-.13,0,0,0,0,0,0-.08,0-.08.09.06.17.09a1.47,1.47,0,0,0,.26.07l-.07,0a.87.87,0,0,1-.17,0c-.06,0-.12,0-.08,0l.14,0-.29.06c-.06,0,0,0,0,0a1.2,1.2,0,0,0,.19,0s.42-.23.42-.23a1.29,1.29,0,0,1-.25,0c-.07,0-.2-.06-.18-.08s0,0,0,0,0-.08,0-.06l.07,0s.19,0,.19,0-.11-.1-.07-.1a.22.22,0,0,1,.09,0s0,0,0,0A.33.33,0,0,1,40,16a.14.14,0,0,0-.08-.07s-.22,0-.3,0,0-.16,0-.18l.08-.1.08-.07h0l-.16,0a.23.23,0,0,1-.11,0l-.09,0-.13-.06s0,0,0,0l0-.06s0,0,0,0h-.06s0,0,0,0l-.1-.05.12,0h-.1l-.09,0,.06,0-.1,0a.08.08,0,0,1-.07-.05l0,0-.13,0-.09-.06h0l-.07,0a.31.31,0,0,1-.06-.06l.08,0a.27.27,0,0,0,.12,0,.31.31,0,0,0,.11,0l-.13,0a.27.27,0,0,1-.08,0l.08,0H39l0,0H39l.11,0s0,0,0,0h.22l-.11,0a.57.57,0,0,1,.16,0h.13l0-.13s0-.1,0-.1h-.08a.16.16,0,0,0-.09.05l0-.06-.08.05a.24.24,0,0,1-.12,0l0,0-.15,0a.35.35,0,0,1-.13,0l.09-.05h-.11l-.11,0,.06,0-.12,0-.1,0h.08l-.12-.1-.07-.07h.11a.45.45,0,0,1-.1-.07.18.18,0,0,1-.06-.07l0,0-.15-.13s.08,0,.08,0a.61.61,0,0,1-.13-.14.49.49,0,0,1,0-.12l.08.07a.32.32,0,0,1-.06-.11.16.16,0,0,1,0-.1l0,.07a.48.48,0,0,0,.1.08l0,0a.4.4,0,0,1,.07.07.33.33,0,0,0,.13.07l0-.07.07,0s.05,0,.08,0,.05,0,.08,0l.06,0v-.06L39,14l.06,0v0l.08.05.07,0v0l0,0,.11.06v0l.12.12c0,.05,0,.14,0,.18a.14.14,0,0,0,0,.11.66.66,0,0,1,.07.15s0,.08,0,.08a.06.06,0,0,0,0-.07.66.66,0,0,1,0-.2l.05-.08-.12-.11a.25.25,0,0,1-.08-.15l.05.06a.14.14,0,0,0,.07,0l0,0a.44.44,0,0,1-.08-.12s.14.13.11.09-.06-.11-.07-.14,0,0,0-.07,0-.08,0-.08l0,0s0,0,0,.05a.44.44,0,0,0,.08.07l0,0a1.18,1.18,0,0,1-.06-.13s0-.06,0-.06.07.06.07.06a1.14,1.14,0,0,0-.06-.14s0-.11,0-.11l0,0s0-.07,0-.13a.2.2,0,0,1,0-.12s0-.08,0-.08l.07.05a1,1,0,0,1,0,.13s0,.06.07.11l.09.09v0s0,0,.06.06l.08.1,0,0s0,0,0,0a.23.23,0,0,1,0,.11h.05v.07a.34.34,0,0,1-.05.13.11.11,0,0,1,.05,0,.38.38,0,0,1,.15,0,.51.51,0,0,1,.2.06.56.56,0,0,1,.07-.13s.05,0,.11,0a.09.09,0,0,0,.08,0l-.14-.15a.47.47,0,0,1-.09-.3c0-.08.1-.17.12-.26s-.15-.19-.21-.2a2,2,0,0,0-.23.07.76.76,0,0,1-.41-.11.52.52,0,0,1-.17-.25s0-.09,0-.09.06-.06.11,0a1,1,0,0,0,.25.11,1,1,0,0,0,.36-.08,1.26,1.26,0,0,1,.53-.06,1.6,1.6,0,0,1,.3.21l0,0,.11,0,.14,0s0,0,.07,0,.18.1.21.17,0,.11,0,.14.1.13.15.11a7.36,7.36,0,0,1,.75-.09,3.66,3.66,0,0,1,.65.06,1.26,1.26,0,0,1,.42.36c0,.08.2.53.21.6s0,.36-.08.42-.11.09-.11.11a2.32,2.32,0,0,0,.21.18.62.62,0,0,1,.12.12v-.08l.1,0s0,0-.06,0-.07-.07,0-.08l.17,0a.38.38,0,0,0,.19-.1.49.49,0,0,1,.12-.08s0,0,0,0l-.2-.05a.52.52,0,0,1-.14,0,.24.24,0,0,1-.09-.05l.08-.08.17-.12.17,0h.1l.21-.1a1.42,1.42,0,0,1,.23-.14l.08,0a.38.38,0,0,0-.15,0,1.65,1.65,0,0,0-.32.07.5.5,0,0,1-.26.09,2.26,2.26,0,0,1-.33,0,.38.38,0,0,1-.11-.08.28.28,0,0,0,.13-.06,1.05,1.05,0,0,1,.31,0,.21.21,0,0,0,.11-.1.4.4,0,0,1,.24-.13c.09,0,.2,0,.24,0s0-.06.08-.09,0,0,0-.08-.06-.07-.09-.08a.33.33,0,0,1-.16-.13A.31.31,0,0,1,45,13s.1-.13.07-.15a.11.11,0,0,0-.11,0s-.09.09-.15.11a.14.14,0,0,0-.07.05s0,.08,0,.14l.07.09-.12,0s-.2-.21-.29-.28-.17-.05-.21-.08-.17-.16-.17-.2a1.28,1.28,0,0,1,.1-.25.15.15,0,0,1,0-.1l0-.06a2.38,2.38,0,0,1-.25-.2c0-.05,0-.11,0-.26a4.23,4.23,0,0,1,.24-.48l.12-.21a.29.29,0,0,0,0-.06s-.14.05-.15,0a.71.71,0,0,1,0-.15S44,11,44,11a.13.13,0,0,1,0-.14s-.18.15-.21,0,.14-.14.14-.14-.23-.16,0-.25.23,0,.23,0a.19.19,0,0,1,.12-.16.14.14,0,0,1,.18,0l.12,0-.12-.31.31.11c.06,0,0-.06,0-.08l-.31-.13.3-.15L45,9.51a2.75,2.75,0,0,1-.13.35c0,.06.07.09.1.06s.2-.3.2-.3l.12.39.11,0s-.06-.18.06-.23a.17.17,0,0,1,.18,0s-.09-.23.09-.26.24,0,.24,0,.12-.23.3-.1.09.34.09.34a.12.12,0,0,1,.12.09.23.23,0,0,1-.07.18.3.3,0,0,1,.32.09c.17.17.16.28.16.28a.64.64,0,0,1,.4,0,.5.5,0,0,0,.32,0,1.65,1.65,0,0,0,.32-.13l0,.15-.18.12s.37.16.51.11.16-.08.16-.08.13.17,0,.25a.66.66,0,0,1-.38,0l.15.14a.25.25,0,0,1-.15.05.21.21,0,0,0-.12,0,1,1,0,0,1,.47.14c.14.11.21.29.39.37a1.05,1.05,0,0,0,.31.11.35.35,0,0,1-.31,0c-.16-.06-.39-.19-.49-.22a1.15,1.15,0,0,0-.33,0s.16.2.28.23a.7.7,0,0,1,.41.24c.07.11.36.14.46.22a1.2,1.2,0,0,1,.17.37.67.67,0,0,1-.16-.06c-.08,0-.06-.08-.17-.11s-.41-.21-.41-.21a.68.68,0,0,0,.17.26c.11.09.31.1.42.19a.92.92,0,0,1,.2.41c0,.07,0,.07,0,.07a1.51,1.51,0,0,0-.31-.28,2.43,2.43,0,0,0-.32-.11,1.48,1.48,0,0,0,.23.25c.15.13.26.25.26.34s.06.29.06.29.49-.15.57-.27a5.63,5.63,0,0,0,.28-.57,1,1,0,0,1-.21-.17,3,3,0,0,0-.23-.24l.2-.07a.27.27,0,0,1,.1,0s-.21-.29-.27-.36a.68.68,0,0,1-.13-.21,1.3,1.3,0,0,0,.28.07.88.88,0,0,0,.22,0s-.1-.29-.14-.36a.22.22,0,0,1,0-.18l.2.11.11.06s.12-.34.15-.41a3.17,3.17,0,0,0,0-.46l0,0a.68.68,0,0,0,.08.21c.06.14.08.24.11.28.22.33.37.38.37.38l.2-.19a.08.08,0,0,1,0-.12.63.63,0,0,1,.15-.12.8.8,0,0,1-.14-.08.73.73,0,0,1-.11-.09s-.06.14-.18,0,0-.25,0-.25-.2.08-.28-.06a.12.12,0,0,1,.07-.19s-.2,0-.17-.16a.1.1,0,0,1,.14-.08.19.19,0,0,1,0-.24.2.2,0,0,1,.2-.08.13.13,0,0,1,.08-.15.32.32,0,0,1,.24,0,.18.18,0,0,1,.17-.11.25.25,0,0,1,.23.11s.07-.16.2-.1a.38.38,0,0,1,.19.18s0,0,.08-.12.12-.11.12-.11l.16.07.2.11V9h.15l-.07-.15.21,0h.77a.61.61,0,0,1,.22,0L53.73,9h.13v.65l.42-.24a.38.38,0,0,1,.08.11.85.85,0,0,0,.06.13.22.22,0,0,1,.12-.14.19.19,0,0,1,.17,0,.25.25,0,0,1,.2-.09.22.22,0,0,1,.17.1s.18-.08.23,0a.37.37,0,0,1,.07.13.2.2,0,0,1,.24,0,.3.3,0,0,1,.07.25s.2,0,.2.14a.18.18,0,0,1-.2.19s.11.13.07.19a.22.22,0,0,1-.25.09.13.13,0,0,1,0,.18c-.07.1-.26,0-.26,0l-.13.14a.27.27,0,0,1-.09.06s.18.1.18.14-.08,0-.08,0a1.2,1.2,0,0,1,.24.15l.21.18a1.56,1.56,0,0,0,.22-.44,4.15,4.15,0,0,1,.21-.53s.08.2.1.28.09.48.09.48l.15-.16.18-.12a1.08,1.08,0,0,1,0,.17v.27a.81.81,0,0,0,.2,0,1,1,0,0,1,.2,0,1,1,0,0,1-.13.24,1.37,1.37,0,0,0-.21.28.87.87,0,0,0-.06.15,1.2,1.2,0,0,0,.23.06l.17,0a1.4,1.4,0,0,0-.26.21c0,.06-.25.23-.25.23l.09.27.08.23a4.74,4.74,0,0,0,.82.36,3.56,3.56,0,0,0,1.06.19ZM58.3,15.9a.17.17,0,0,0-.13.2,1.22,1.22,0,0,0,.13.38c.06.08.27.16.26,0a4.1,4.1,0,0,0-.14-.49C58.4,15.91,58.3,15.9,58.3,15.9Zm0-.08a.52.52,0,0,1,.44.36c0,.15.1.52-.19.51a.55.55,0,0,1-.48-.28,1.11,1.11,0,0,1-.08-.34C57.94,16,58.09,15.81,58.26,15.82Zm.45.15,0,.09s.08,0,.1.05.09.48.09.53-.1.06-.1.06v.07l.44.16,0-.09s-.15-.09-.16-.14-.05-.3-.05-.3.59.58.63.63l0,0h.17s-.18-.64-.18-.7,0-.06.08-.07h.08l0-.07-.25,0-.24-.07,0,.06s.14.05.16.13l.11.41-.53-.64Zm-2.1-.17-.09.12s.12,0,.12,0,.15.43.16.46,0,.08,0,.1a.17.17,0,0,0-.07,0v.06l.3-.08,0-.06s-.09,0-.1,0-.09-.29-.09-.29l.35.35h.1l.15-.39a2.23,2.23,0,0,1,.08.24s0,.05,0,.05h-.05v.08a2.12,2.12,0,0,1,.27,0l.26,0v-.06s-.12,0-.13-.08-.14-.41-.14-.45,0-.09,0-.07h.09l0-.08-.18,0-.21,0-.17.45-.37-.45Zm3.9.75.17.61s.15.1.2,0a.36.36,0,0,0,0-.32.42.42,0,0,0-.19-.22A.85.85,0,0,0,60.51,16.55Zm-.48-.2,0,.06s.12,0,.14.07.14.55.16.59-.15,0-.15,0v.08l.53.12c.14,0,.45,0,.45-.18a.61.61,0,0,0-.18-.45,1.64,1.64,0,0,0-.42-.21L60,16.33Zm1.57.39.12.24A1.62,1.62,0,0,0,62,17c.1,0,.05-.2-.08-.22Zm-.47-.19,0,.09a.22.22,0,0,1,.12.1c0,.08.21.49.23.54s-.06.08-.09.08,0,.06,0,.06l.53.07,0-.08s-.1,0-.11-.07a.93.93,0,0,0-.08-.2s.12,0,.18,0,.17.15.18.2a.63.63,0,0,0,.29.22c.1,0,.16.06.21,0s0,0-.09-.07a2.29,2.29,0,0,1-.17-.23.79.79,0,0,0-.22-.18s.19-.05.17-.15-.26-.27-.43-.3Zm1.71.33c-.08,0-.09.06-.08.13a2.72,2.72,0,0,0,.15.43.24.24,0,0,0,.22.12c.08,0,.11-.08.07-.17S63.05,17,63,17A.34.34,0,0,0,62.84,16.88Zm0-.1a.8.8,0,0,1,.45.16,2.53,2.53,0,0,1,.23.42c0,.08,0,.3-.28.3a.72.72,0,0,1-.58-.22,2,2,0,0,1-.15-.4.19.19,0,0,1,.15-.24ZM60,16.6l.17.22-.1.19-.21-.23Zm-4.24.71.1-.16a1.1,1.1,0,0,0,0-.25c0-.06.06.05.07.11a.27.27,0,0,1,0,.09L56,17a.38.38,0,0,0,0-.14l0-.14a.85.85,0,0,1,.09.14L56,17l.05,0a.47.47,0,0,0,0-.15l0-.14a.76.76,0,0,1,.1.12.7.7,0,0,0,0,.13l0,0a1.88,1.88,0,0,0,0-.2,1.28,1.28,0,0,1,0-.13s.08.15.09.18a.79.79,0,0,1,.05.13l0-.05a1,1,0,0,0,0-.22,1.84,1.84,0,0,1-.06-.18.73.73,0,0,1,.1.19c0,.08.07.16.07.16l0-.05s0-.22-.06-.28-.06-.17-.06-.17a1.36,1.36,0,0,1,.11.19c0,.09.1.26.1.26l0-.3-.08-.25a.72.72,0,0,1,.11.18c0,.06.11.3.11.3s-.06-.33-.09-.41a1.64,1.64,0,0,1-.08-.22.9.9,0,0,1,.12.18c0,.07.1.29.1.29l0-.05a1.49,1.49,0,0,0-.1-.35l-.11-.18.2-.29a3.33,3.33,0,0,1,.88-.06c.33,0,1.94.44,2.72.66a20.13,20.13,0,0,0,2.5.43c.29,0,.71.07.71.07l0,.11h-.17l.06.07a.25.25,0,0,1,.13.09,5,5,0,0,1,.23.47s0,.06-.07.07h-.08l0,.06.62,0,0-.07a.39.39,0,0,1-.17-.1c0-.08-.14-.27-.14-.27a1,1,0,0,0,.38.19l.23,0,0,.12-.11,0,0,.07h.71l-.06-.09s-.08,0-.19-.08a.63.63,0,0,1-.13-.2.14.14,0,0,0,.07-.11v-.09l.11,0s.1-.05.16,0a.24.24,0,0,1,.06.08h.2l-.18-.27-.33,0,0-.1a1.44,1.44,0,0,1,.47.05l.36.26-.23.18.34.21.25-.2-.24-.16,0-.08a.7.7,0,0,0-.09-.19,1.54,1.54,0,0,1-.12-.14,2.86,2.86,0,0,1,.32,0l.29.1,0-.08a.49.49,0,0,0-.11-.08A1.3,1.3,0,0,1,66,16.5a2.38,2.38,0,0,0,.3.1c.14,0,.37.08.37.08a.23.23,0,0,0-.07-.17l-.2-.13.36.08.3.08s-.41.26-.53.31a5,5,0,0,0-.48.22l0,.05s.6.07.8.11.63.13.74.17l.2.09,0,0s-1.31.21-2,.26a20.75,20.75,0,0,1-3.59-.1A24.28,24.28,0,0,1,59.18,17a10.49,10.49,0,0,0-1.82-.41A3.19,3.19,0,0,0,55.77,17.31Zm8.5-1.75-.06.12h.11l.06-.11Zm-.07-.18-.06.07h.09l0-.08Zm.12,0h.11l-.05.1-.11,0Zm.27,0,0,.11-.12,0,0-.09Zm0,0,0,.08.09,0v-.08Zm0-.13,0,.08.08,0,0-.09Zm-.16-.05,0,.09.1,0,0-.09Zm-.17,0,0,.08.1,0,0-.09Zm-.14,0,0,.09.11,0v-.1Zm-.15,0,0,.1h.11l0-.11Zm.49-.06v.06l.17,0-.09-.09A.14.14,0,0,0,64.56,15.15Zm-.17,0,0,.08h.11v-.08Zm-.14,0,0,.07.11,0v-.09Zm-.06,0-.12.06h.1Zm-.33.17a.68.68,0,0,1,.6-.21c.4.11.43.36.43.36l-.07-.06,0,.07.06,0v0l-.07,0-.07.14a.71.71,0,0,0-.17-.05l-.13,0-.06.15s0,0,0,0l0,0,0,0-.07.1,0-.12h-.11l-.06,0,0-.06.07-.16-.14,0,0,.06v-.07H64l0-.05h.08l0-.09-.12,0-.09.09,0-.11h-.08l0,0H64L64,15.2Zm.41,1.18.07-.05,0,.15h0Zm-.13.06.07,0,.08.11,0,0Zm-.06,0,0,.08a1.3,1.3,0,0,0-.26.1c-.06,0-.09.09,0,.16s.19.33.43.36.28,0,.26,0a2,2,0,0,1-.19-.41.32.32,0,0,1,0-.11,2.24,2.24,0,0,0,.13.19,1.24,1.24,0,0,1,.12.22c0,.06.14,0,.14-.1a2.27,2.27,0,0,0-.21-.56c0-.11,0-.16-.1-.21s-.12,0-.16-.07-.22-.32-.4-.65a6.07,6.07,0,0,1-.34-1c0-.08-.08-.09-.14-.14s-.31-.27-.45-.24a.89.89,0,0,0-.37.13.36.36,0,0,0-.14.38.66.66,0,0,1,.16-.3.43.43,0,0,1,.23-.08s-.13.07-.16.14a1.71,1.71,0,0,0-.07.25.49.49,0,0,1,.2-.23c.16-.09.19-.06.19-.06a.42.42,0,0,0-.18.17c0,.1-.06.17-.06.17a1.57,1.57,0,0,1,.24-.17.38.38,0,0,1,.14-.05v.05a.42.42,0,0,0-.17.12.3.3,0,0,0-.07.14,1,1,0,0,1,.25-.13.39.39,0,0,1,.16,0v.05a.33.33,0,0,0-.12.08A1.06,1.06,0,0,1,63,15a1.26,1.26,0,0,0,.21,0l.16,0,0,.07a.43.43,0,0,0-.15,0l-.17.11.26,0a.22.22,0,0,1,.13,0l-.23.08a.3.3,0,0,0-.1.1l.18,0a.4.4,0,0,1,.15,0l-.15.08-.14.07a.72.72,0,0,0,.19,0,.29.29,0,0,1,.15,0l-.18.07a.33.33,0,0,1-.13,0l.23,0,.15,0v0l-.11,0a1.43,1.43,0,0,1-.23,0,.39.39,0,0,0,.21.08h.18l0,.1h-.15l-.2,0a.61.61,0,0,0,.23.06h.14v.05l-.18,0h-.1a.34.34,0,0,0,.18.09.37.37,0,0,1,.15.06l0,0a.46.46,0,0,0-.13,0h-.16a.45.45,0,0,0,.2.1c.09,0,.11,0,.12.05v0s-.24-.05-.23,0a.18.18,0,0,0,.13.16A2.07,2.07,0,0,0,64.08,16.56ZM65.75,16s-.27.34-.34.39.11.05.23.08a2.86,2.86,0,0,1,.38.2s-.3-.09-.39-.1a.89.89,0,0,0-.24,0,1.72,1.72,0,0,1,.25.2l.17.26s-.32-.21-.42-.29-.34-.28-.34-.28l.21-.14Zm1.23.22.24.13a3.53,3.53,0,0,0,.52-.22,1,1,0,0,0-.25,0A4.91,4.91,0,0,1,67,16.23Zm.3-.36-.51.35s.15.09.26.17.32.22.32.22a2.21,2.21,0,0,0-.46-.24l-.31-.1s.11-.11.18-.15Zm-.44-.24a2.84,2.84,0,0,1-.41.48l-.3.2s.05,0,.12.09l.28.19s-.32-.13-.38-.14-.28-.12-.3-.12.07-.15.14-.23a1.2,1.2,0,0,0,.15-.32,1.16,1.16,0,0,1,0,.27l0,.14A2.69,2.69,0,0,0,66.4,16ZM65.91,15l-.59.35s.27-.21.38-.28a1.14,1.14,0,0,1,.19-.11S65.91,15,65.91,15Zm-.19.31s-.13.41-.16.46,0,.07,0,.08l.46.06-.25-.14a2.72,2.72,0,0,0,.31-.13,3,3,0,0,0,.29-.2l-.35.13a2.38,2.38,0,0,1-.31.08s0-.17,0-.23A.35.35,0,0,0,65.72,15.31Zm-.55-.2a5.09,5.09,0,0,1-.17.72.78.78,0,0,1-.1.2,1,1,0,0,0,.19-.06l.25-.07a1.84,1.84,0,0,1-.4.28l-.32.1-.06-.05a2.43,2.43,0,0,0,0-.31c0-.14,0-.25,0-.25l.18.37.06,0a2.18,2.18,0,0,0,.21-.34A4.11,4.11,0,0,1,65.17,15.11Zm-4.73-.68a1.08,1.08,0,0,1,0,.19.36.36,0,0,1-.07.17c0,.05,0,0-.13.17a1.55,1.55,0,0,0-.11.22s-.06,0,0-.21a.48.48,0,0,0,0-.27l-.16,0a1.52,1.52,0,0,1,0,.25.24.24,0,0,1-.09.14.55.55,0,0,0,0-.24,1.85,1.85,0,0,1-.07-.19l-.15,0s0,.15.07.23a.16.16,0,0,1-.06.21l-.16.05a.2.2,0,0,0,.06-.24l-.14-.24h0s0,.16,0,.23-.09.22-.09.22a.47.47,0,0,0,0-.17c0-.05-.16-.25-.16-.25h0a2.3,2.3,0,0,1,.08.27c0,.05,0,.15-.12.21a.6.6,0,0,1-.2.07,1.06,1.06,0,0,0,.19.11,1.67,1.67,0,0,1,.37-.09,14.28,14.28,0,0,0,1.62.55c.3,0,.45-.07.54,0s.3.33.23.44a.2.2,0,0,1-.25.09l-.44-.09.29-.07-.27-.1a1.61,1.61,0,0,1-.39.09c-.09,0-.95-.23-1.27-.33s-.76-.23-.81-.24.07-.12.07-.12l-.07,0a1.1,1.1,0,0,0-.16.12s-.15,0-.15,0,0-.08.07-.09l.17-.09-.08-.05s-.27.15-.26.18-.15,0-.13,0a1,1,0,0,1,.25-.2s.08,0,.07-.06-.06,0-.06,0a2.27,2.27,0,0,0-.38.24c-.05.06-.14,0-.13,0a1.38,1.38,0,0,1,.19-.15l.27-.13s0-.1,0-.08l-.49.24c-.06,0-.18,0-.18.1v.06h-.18a.07.07,0,0,1,0-.12,1,1,0,0,0,.21-.1c.06,0,.6-.28.6-.29s0-.07.05-.07l.17,0s0,0,.05,0,.28-.1.33-.21a.51.51,0,0,0,.07-.17s.12.06.17,0l.19-.14.08,0,.11-.18s.06,0,.05,0l-.07.16.1,0,.14-.16s0,0,0,0a1.14,1.14,0,0,1-.09.16l.11,0a1.58,1.58,0,0,1,.13-.18s0,0,0,0a.19.19,0,0,0,0,.09s0,.09,0,.09l.08,0,.11-.15,0,0,0,.22.07,0,0-.08.09-.09-.07.23.08,0Zm.21.12s-.27.56-.31.63-.12,0-.09,0Zm.1.2-.25.58c0,.05-.14,0-.08-.06Zm.19.25s-.25.45-.29.49-.07,0,0-.06S60.94,15,60.94,15Zm0,.33a2.38,2.38,0,0,0-.12.27s-.08,0,0,0Zm1.43.85s-.09,0-.05.11a.88.88,0,0,0,.08.14s-.18,0-.22,0-.08-.15,0-.17Zm.29.17c-.08,0,0,.11.09.13S62.75,16.32,62.67,16.35Zm-.4-.48s.13,0,.15,0,.13.3.14.33-.14.08-.14.08a.61.61,0,0,0,.2,0c.08,0,.05-.14,0-.21s-.11-.34-.21-.32A.24.24,0,0,0,62.27,15.87Zm0-.68s.11.28.18.31l.07,0-.1.13s.12,0,.13,0,.1.28.15.41a1.68,1.68,0,0,1,0,.19l.13.16.38-.21s0-.05-.08-.07-.28-.12-.29-.24,0-.37,0-.44-.15-.37-.25-.41-.08-.09-.15-.06A2.7,2.7,0,0,0,62.32,15.19Zm-.38.12a.18.18,0,0,1,.21.07c0,.06.12.18.13.2s0,.06-.06.08a.18.18,0,0,0,0,.05.38.38,0,0,0,.15-.07s0-.13,0-.2-.16-.24-.26-.25S61.89,15.33,61.94,15.31Zm.17.23c-.07,0-.13.09-.13.15a2.47,2.47,0,0,0,.11.36c0,.06.08,0,.15,0A.78.78,0,0,0,62.4,16l0,0-.13,0s0-.05,0-.05-.1-.3-.1-.33,0,0,0-.07S62.11,15.54,62.11,15.54Zm-.59-.39a.47.47,0,0,0,.33.23l.21,0a.38.38,0,0,1-.34,0C61.53,15.4,61.52,15.15,61.52,15.15Zm-.1-.13c-.06.05-.17.16-.07.24a.71.71,0,0,0,.15.1s-.51,0-.24-.38a.27.27,0,0,1,.4,0,.15.15,0,0,1,0,.23s0-.1-.07-.14A.16.16,0,0,0,61.42,15Zm-3.21-.49a.17.17,0,0,0,.09.14.46.46,0,0,0,.3-.08c.08-.06.26-.15.22-.24l-.08-.15s-.11,0-.09,0,0,.09.05.1-.2.13-.23.15l-.17.06s0,0,0-.06S58.19,14.49,58.21,14.53Zm-.41.08s-.09-.18.05-.23a3.1,3.1,0,0,1,.36-.1q.09,0,.12,0a.6.6,0,0,1,.06.11s0,.08-.06,0a.09.09,0,0,1,0-.06l-.44.14v.05S57.8,14.65,57.8,14.61Zm-.4.16c0,.05,0,.29.21.23a1.35,1.35,0,0,0,.5-.24c0-.06,0-.17,0-.21s-.08,0-.07,0,0,.08,0,.1l-.47.15s-.05-.05-.07-.07S57.4,14.77,57.4,14.77Zm-.15,0c0,.06,0,.14-.14.14l-.29,0-.07.24a1.24,1.24,0,0,0,.47-.11.23.23,0,0,0,.1-.28C57.3,14.74,57.25,14.81,57.25,14.81Zm-.24,0v-.09l.55-.11a.07.07,0,0,1,.06.07s.07,0,.07,0-.07-.18-.17-.16-.41,0-.47.07-.1.13-.1.18a.22.22,0,0,0,0,.09S57,14.82,57,14.82ZM59,14a.29.29,0,0,0-.28,0,1.17,1.17,0,0,0-.33.25s0,.12.07.17.05,0,.05,0a.07.07,0,0,0,0-.05,2.81,2.81,0,0,1,.42-.29s0,0,.1,0A0,0,0,0,0,59,14Zm.35-.22s.14.17.07.23l-.32.29a.15.15,0,0,1-.18,0,.27.27,0,0,1-.09-.11s0,0,.06,0,.07.07.11,0l.33-.26a0,0,0,0,0,0-.07s0-.06,0-.07S59.37,13.73,59.37,13.73Zm-1.59.11s-.26.39-.3.45,0,.07,0,.07l-.08-.07a1.84,1.84,0,0,1,.22-.31Zm-.31-.11s-.26.36-.3.44a1.33,1.33,0,0,0-.09.18l-.06,0a2,2,0,0,1,.11-.23A3.22,3.22,0,0,1,57.47,13.73Zm-.27-.09S57,14,57,14a2.49,2.49,0,0,0-.13.29,1.41,1.41,0,0,1,0-.22Zm-.2-.16-.09.14,0-.09Zm4.59.14-.1.21-.05,0Zm0-.39s-.21.43-.26.5,0,0,0,0A4.32,4.32,0,0,1,61.62,13.23Zm0-.3s-.35.73-.4.81-.06,0,0,0S61.59,12.93,61.59,12.93Zm0-.46s-.45.95-.49,1,0-.12,0-.19S61.57,12.47,61.57,12.47Zm-.4,1.87,0,0-.19.15-.06,0Zm-2.53-1.58.27.46.14,0,.38-.33.11,0,0,.47.06,0,.47-.3.14.05,0,.49.09.05.45-.25.13.07-.11.47.07,0,.46-.19.17.13-.17.37.09.05.41-.08.14.14a2.85,2.85,0,0,0-.28.22.33.33,0,0,1-.1.07l.21-.24s.08-.09.06-.09l-.23.12-.25.16a2.26,2.26,0,0,0,.22-.22c0-.05-.19,0-.24.08l-.19.15-.08-.05.21-.15,0-.07-.22.17s-.58-.36-.64-.42-.55-.31-.54-.32v-.16h-.14s0,.11,0,.14l-.2.1s.16-.22,0-.3a.23.23,0,0,0-.32.08s0,.14,0,.17l0,0,0,0s-.24-.12-.17-.23.11-.18.2-.19l.18,0s0-.1-.07-.09l-.21,0,0-.07-.08,0a.07.07,0,0,1,0,.09.13.13,0,0,1-.08.06.35.35,0,0,0,0-.16.14.14,0,0,0-.07-.09l0,0a.66.66,0,0,1,0,.11.52.52,0,0,1-.07.11l0-.32L58.72,13l0,.42,0,0ZM58,12.3s0,.39-.19.43-.33,0-.4,0-.25.1-.23.19a.19.19,0,0,1,.06-.22,1.34,1.34,0,0,1,.53-.15C57.87,12.59,58,12.3,58,12.3Zm-.43-.51a.19.19,0,0,0,.2.19c.14,0,.29-.11.36-.09a.41.41,0,0,1,.15.13.66.66,0,0,0-.3,0c-.1.05-.16.09-.25,0s-.2-.12-.2-.18A.2.2,0,0,1,57.58,11.79Zm2.58,0a.35.35,0,0,1-.4.27.65.65,0,0,1-.47-.17v-.09a.42.42,0,0,0,.41.16.62.62,0,0,0,.37-.16ZM60.3,11s-.07.33.17.39.34,0,.42,0l.08-.06s.18.08.15.21a2.24,2.24,0,0,1-.17.55,1.4,1.4,0,0,0-.13.47s.18-.34.23-.41.15-.26.17-.31,0,.09,0,.15-.25.44-.28.54a1,1,0,0,0,0,.25,2.89,2.89,0,0,0,.18-.29c.07-.12.24-.39.26-.44s0,0,0,.09l-.33.7a.34.34,0,0,0-.06.29c0,.06.08-.19.17-.31s.33-.56.33-.56a.22.22,0,0,1,0,.14,4.08,4.08,0,0,0-.4.84c0,.1,0,.19,0,.19l-.17-.08-.43.21,0-.42L60.1,13l-.3.19s0-.26,0-.28.07,0,.09,0a1.42,1.42,0,0,0,.49,0,.53.53,0,0,0,.21-.12l0-.27s-.14.15-.24.16a3,3,0,0,1-.4,0,2.73,2.73,0,0,0,.44-.23,2,2,0,0,0,.29-.51,4.58,4.58,0,0,1-.31.35c-.23.18-.34.09-.34.09a.94.94,0,0,0,.36-.32,1.27,1.27,0,0,0,.15-.24l-.05,0s-.24.38-.47.42a1.19,1.19,0,0,1-.87-.26.37.37,0,0,1,0-.36l-.09-.05-.1.25c0,.09-.06.11-.09.11h0s0-.15,0-.22a.58.58,0,0,0,0-.19h-.09a1.81,1.81,0,0,1,0,.32c0,.12-.07.25-.14.28a.25.25,0,0,1-.17,0s.18.06.2-.1,0-.39-.15-.43-.07.07-.05.11,0,.2,0,.25a.18.18,0,0,1-.1.05s.1-.09.07-.15,0-.11-.09-.1-.1,0-.08.06,0,.07,0,0a1.67,1.67,0,0,0-.29-.06l-.28.07a.82.82,0,0,1-.2-.25s0-.14.07-.13h.36a.32.32,0,0,1,.29-.27.4.4,0,0,1,.35.21l.56-.1,0-.15.38,0H60A1.4,1.4,0,0,0,60.3,11Zm-2.5,1.24a.24.24,0,0,1-.15.25,1.67,1.67,0,0,0-.36.12.72.72,0,0,0-.12.11.3.3,0,0,1,.23-.23c.2,0,.26-.06.31-.11A.45.45,0,0,0,57.8,12.26Zm.42-1c-.12,0-.14.21-.11.21l.34,0S58.34,11.21,58.22,11.23Zm1,.06a.93.93,0,0,1,.32-.1l.07-.09a1.2,1.2,0,0,1,.3,0,.69.69,0,0,1,.15.07s-.07.23.23.3a1,1,0,0,0,.42,0,.32.32,0,0,1-.27.08.66.66,0,0,1-.34-.13s0,.15-.34.07-.22-.27-.22-.27a.94.94,0,0,0-.3.06C59.16,11.39,59.23,11.29,59.23,11.29Zm.52,0c0,.11,0,.14.08.15s0-.13,0-.13.15,0,.14.08,0,.11-.18.11-.16-.11-.15-.16S59.75,11.24,59.75,11.24Zm1.13-.8c0,.16.22.38.08.54s-.15.28-.27.29-.14-.06,0-.15.31-.2.25-.38A.51.51,0,0,1,60.88,10.44Zm-.11-.34a.58.58,0,0,0-.1.47.46.46,0,0,1-.15.47c-.11.08-.09,0,0-.07s.19-.23.14-.34a.36.36,0,0,1,0-.32A1.16,1.16,0,0,1,60.77,10.1Zm-2,.8s.06.14.51.09a3.32,3.32,0,0,1,.81-.05,1.21,1.21,0,0,0-.61-.12,1.56,1.56,0,0,1-.44.1A1.83,1.83,0,0,1,58.8,10.9Zm.36-.25s0,.12.38.11.43-.08.58,0-.17-.16-.36-.11a.77.77,0,0,1-.32.06A1.57,1.57,0,0,1,59.16,10.65Zm.81-.27c.07,0,.09.18.09.18S59.91,10.41,60,10.38Zm-.21-.08c.08,0,.08.21.08.21S59.66,10.32,59.76,10.3Zm-.28-.18c.12-.06.16.45.16.42S59.38,10.17,59.48,10.12Zm-.39-.24c.1-.05.19.48.19.48S59,9.93,59.09,9.88Zm-.28-.2c-.1,0,.18.45.18.45S58.89,9.68,58.81,9.68Zm-.32-.19c.07,0,.18.39.18.39S58.39,9.53,58.49,9.49Zm-.24-.15c-.09,0,.18.35.18.35S58.32,9.33,58.25,9.34Zm-.19-.13c-.12,0,.1.26.1.26Zm-.22-.14c-.1,0,0,.18,0,.18ZM63.92,14a1.49,1.49,0,0,1,.23.54c0,.26,0,.29,0,.29a1,1,0,0,1,.24-.16c.12,0,.13,0,0,.05a3.34,3.34,0,0,0-.3.27l-.36-.18a.88.88,0,0,1-.19-.17,2,2,0,0,1,.29.1l.18.11A2.7,2.7,0,0,0,64,14.4C64,14.27,63.92,14,63.92,14Zm-2-1.39a2,2,0,0,1,.59,0,.8.8,0,0,0,.55-.05c.12-.07.26-.24.36-.26a2.38,2.38,0,0,1,.41,0l0,.12a.66.66,0,0,0-.43,0,1.81,1.81,0,0,1-.49.32,3.36,3.36,0,0,1-.62,0,1.15,1.15,0,0,0-.25.06,1.16,1.16,0,0,0,.35.1,3.92,3.92,0,0,0,.48,0,4.68,4.68,0,0,1,.6-.21,2.38,2.38,0,0,1,.35,0l0,.11a1.26,1.26,0,0,0-.42,0,3.43,3.43,0,0,0-.38.18l-.27.07h.43a2.45,2.45,0,0,1,.45,0l.07.17a4.44,4.44,0,0,0-.56.06c-.16,0-.45.14-.58.19a2.14,2.14,0,0,1-.63,0l0,.06s.41.06.53.1.31-.08.43-.08a3.35,3.35,0,0,1,.38,0v.12a1.5,1.5,0,0,0-.24,0,1.85,1.85,0,0,0-.47.2c-.08,0-.24-.09-.39-.12a2.18,2.18,0,0,0-.42-.06c-.06,0,0,.06.08.06a2.7,2.7,0,0,1,.42.11l-.17.08L61.73,14s.05-.22.06-.3.07-.33.07-.33a2.48,2.48,0,0,0,.71.09c.21,0,.35-.11.5-.13a1.31,1.31,0,0,1,.32,0h.23s-.34-.05-.49-.05-.33.07-.42.07-.44-.12-.55-.14l-.28,0Zm-.21-.76.11.34a1,1,0,0,1,.38,0c.21,0,.15,0,.25.12a.69.69,0,0,0,.45.11c.2,0,.27-.13.41-.19a1.46,1.46,0,0,1,.4-.07l0-.12a.92.92,0,0,0-.37,0c-.12,0-.27.26-.43.26s-.06-.11-.18-.14L62.14,12s.59.08.7,0,.12-.33.25-.34.48,0,.48,0l-.06-.14a1.8,1.8,0,0,0-.26,0,.41.41,0,0,0-.35.16c-.08.14-.1.19-.23.2h-.62C61.9,11.82,61.68,11.86,61.68,11.86Zm4.06,2.93c-.1.1-.4.36-.4.36s.4-.28.49-.33S65.74,14.79,65.74,14.79Zm-.19-.14-.31.38.39-.35C65.71,14.6,65.55,14.65,65.55,14.65Zm-.11-.07-.52.54.41-.61C65.39,14.43,65.44,14.58,65.44,14.58Zm-.28-.22c-.06.07-.35.61-.35.61a4.15,4.15,0,0,0,.44-.54C65.28,14.31,65.16,14.36,65.16,14.36Zm-.19,0c0,.14-.26.61-.26.61a6.22,6.22,0,0,0,.37-.58C65.13,14.21,65,14.31,65,14.31Zm-.13-.09a3.79,3.79,0,0,1-.27.74c-.06.08.19-.62.19-.73S64.84,14.22,64.84,14.22Zm.47-.48a2.25,2.25,0,0,0-.21.24c-.06.08-.12,0-.07-.05A2.8,2.8,0,0,1,65.31,13.74Zm-.75-.11a2.57,2.57,0,0,1,0,.59c0,.18-.07,0-.08,0A5.06,5.06,0,0,1,64.56,13.63Zm1.93,1,0,.1a.69.69,0,0,0,0,.15,2.1,2.1,0,0,1,.39-.16l.48-.1s-.64.28-.7.29a.25.25,0,0,0-.1,0,1.37,1.37,0,0,1,.31.07c.11,0,.2,0,.26.09l.06.06a4.32,4.32,0,0,0-.58-.11h-.34a.44.44,0,0,0,.09-.15A1.39,1.39,0,0,1,66.49,14.61Zm.15-.83s-.13.29-.18.38a2.08,2.08,0,0,0-.12.27,1.59,1.59,0,0,1,.3-.07l.23,0-.39.14a1.21,1.21,0,0,0-.26.16l-.08,0a2,2,0,0,1-.1-.18,2.22,2.22,0,0,0-.11-.25.57.57,0,0,1,.17.14.3.3,0,0,1,.05.13,2.38,2.38,0,0,1,.18-.33Zm-11.52,2,.06,0,0,.06,0,0,.28.21s.07-.05.07-.05l.09.06-.33.36-.13-.09,0-.05s.13,0,.16-.06-.12-.14-.12-.14-.06,0,0,.07a.3.3,0,0,0,0,.06h0l-.2-.14,0,0,.08,0s.06-.08.06-.08a.44.44,0,0,0-.1-.06.31.31,0,0,0-.11.09.76.76,0,0,0,0,.16l0,0-.12-.13L55,16Zm.22-.32,0,0,0,.05s-.14.06-.16.11,0,.19.14.18a1.59,1.59,0,0,1,.32,0s.06,0,0,.07-.16,0-.16,0l-.06,0,.19.14,0-.08,0,0a.26.26,0,0,0,.15-.13c0-.08-.1-.18-.15-.18a1.36,1.36,0,0,0-.27.06c-.1,0-.15-.06,0-.08l.15,0,0-.05Zm.21-.57.09,0v0l.43.12,0-.05.09,0,0,.08,0,.09-.46.14s0,0,0,0l.2.09.05-.06.06,0-.11.19-.08,0,0-.06-.44-.2-.06,0,0-.07h.1l.4-.1a0,0,0,0,0,0,0l-.31-.09,0,.05-.09,0a.73.73,0,0,0,.05-.12A.36.36,0,0,0,55.55,14.93Zm.63-.4h.09s0,.19,0,.27,0,.23,0,.23L56,15l0-.08s.12,0,.14,0a.61.61,0,0,0,0-.18s-.07,0-.1,0H56s-.06.06,0,.09a.25.25,0,0,0,.09,0v0h-.31v0s.09,0,.09,0,0-.09,0-.09H55.7s-.09,0,0,.1a.62.62,0,0,0,.17.14l0,.05-.27-.1a.68.68,0,0,0,.06-.23v-.16h.07s0,.11,0,.11l.41,0S56.18,14.53,56.18,14.53Zm-.23-.3h.21s0,.16-.09.16A.12.12,0,0,1,56,14.23Zm-.35-.16v.22l.08,0v-.07h.14s0,.26.17.26.27-.06.27-.17,0-.33,0-.33h-.12v.08s0,0,0,0h-.35s0-.07,0-.07h-.13Zm-.07-.51,0,.33h.08l0-.1.24,0,.2.15v0h.1l0-.23h-.07a.51.51,0,0,0,0,.09s0,0,0,0L56,13.72l.13-.15,0,.07.07,0-.06-.32h-.09a.2.2,0,0,1,0,0,.9.9,0,0,1-.21.27h-.19s0-.09,0-.09Zm-1.62.82c-.06,0-.26,0-.27,0a.08.08,0,0,0,0,.08h.1s.05,0,0,0-.13,0-.15,0-.06-.11-.11-.11-.1,0-.11,0,0,.08,0,.13.05.07.05.1a.08.08,0,0,1,0,.06s-.11,0,0,.07.09,0,.13-.07.06,0,0,0-.06,0,0,0a.65.65,0,0,0,.16-.09s.11-.08.12-.07.05,0,0,0-.16.05-.16.08.05.06.07,0,.1-.08.1-.07,0,0,0,0,.07,0,.06,0,0,0,0-.06,0,0,0,0,0,0,0-.08,0-.1,0-.1h-.15c-.06,0,0,0,.06,0h.13C54,14.43,54,14.39,53.91,14.38Zm-.4.19s.07.1,0,.1S53.51,14.57,53.51,14.57Zm.07,0s.09.07.05.08S53.58,14.57,53.58,14.57Zm0,0c.05,0,.12.05.08.06S53.58,14.54,53.58,14.54Zm-.11.45s.09.07,0,.08S53.47,15,53.47,15Zm0,0s.09,0,.06,0S53.5,15,53.5,15Zm.21-.16s-.13,0-.16,0-.08.06,0,.08.16.05.12.06a.22.22,0,0,1-.14,0,0,0,0,0,1,0-.05s0,0-.05,0a0,0,0,0,0,0,0s0,0,0,.07.07.11.05.14-.06,0-.06.09,0,.07,0,0a.33.33,0,0,1,.07-.13c.05,0,.07,0,.05,0s-.05.08,0,.08.07-.09.08-.11,0-.06,0-.05,0,.05,0,.08,0,.06,0,.05.06,0,.07-.07,0-.18,0-.19-.19,0-.14,0,.09,0,.12,0S53.75,14.83,53.71,14.83Zm.17.42.17.18.2-.15.35.26,0,.06-.12.12a.11.11,0,0,1-.06,0s-.09-.13-.15-.15l-.08,0h.22s0-.06,0-.06l-.23,0c-.06,0,0-.05.07-.08l.09,0a.26.26,0,0,1,.1,0l-.09-.07a.14.14,0,0,0,0,0s0,0-.06,0-.06,0-.07.06a.14.14,0,0,1,0,.06l-.31.07a.17.17,0,0,0-.09,0,.08.08,0,0,0,0-.07s0,0,0-.06a.35.35,0,0,0,.08-.13.22.22,0,0,0,0-.06l-.1.1a.07.07,0,0,1-.06,0s-.15,0-.09,0,.17.06.14.07l-.07,0a.14.14,0,0,1-.09,0s-.12,0-.13,0a.14.14,0,0,0,0,0l.07,0h.23l-.14,0-.12.06s0,.08,0,.08a1.15,1.15,0,0,0,.15-.08l.2-.05.13-.06.22,0a.44.44,0,0,0-.15.09c-.07.05-.14.16-.18.16l-.47,0s0,0,0-.07,0-.23,0-.23l.1-.06s.43-.24.45-.24S53.86,15.23,53.88,15.25Zm0-.29v.15s0,0,0,.06a1.05,1.05,0,0,0,.07.11s0,0,.06,0l.11-.12s0-.18,0-.2,0,0,0,0H54Zm-.07-.08v.28l.17.19s0,0,.07,0l.15-.14a.25.25,0,0,0,0-.09v-.22l0,0h-.36Zm.29-.1s0-.06,0-.06h.11s.09-.05.07-.05a.46.46,0,0,1-.15-.09.08.08,0,0,1,0-.1s0-.05,0-.06,0,0,0,0,0,0,0,0,0,.05,0,.07,0,0,.06.07.08.07.1.07.13,0,.1-.06-.06,0-.06,0,0,0,0-.08,0-.08,0-.07l.27,0s0-.05,0,0a.7.7,0,0,1-.08.23s-.12.08-.1.12a.45.45,0,0,1,0,.11.08.08,0,0,0,0,.07.36.36,0,0,0,0,.07s.07,0,.07,0a2.55,2.55,0,0,1,0-.28,1,1,0,0,1,.1-.27c0-.06.09-.09.09-.06s0,.14,0,.17a.16.16,0,0,0-.1.12,1,1,0,0,0,0,.18.16.16,0,0,1,0,.1s0,.11-.07.12,0,0,0,0a.46.46,0,0,1,0,.13,1.15,1.15,0,0,1-.08.1s-.09,0-.08-.06.09,0,.09,0-.07-.09,0-.12,0-.07,0-.07a.11.11,0,0,1-.09,0s0,0,0,0,0,.11,0,.11-.17-.05-.15-.07.14,0,.14,0l0-.07s-.13,0-.07,0,.17-.05.17-.07-.1-.09-.1-.13,0-.18,0-.13,0,.06,0,0l0-.12s0,.08,0,.09,0-.11.06-.11.06,0,.07-.06.06-.1,0-.1-.08.08-.11.1-.08,0-.1.05l0,0a0,0,0,0,0,0,0,.24.24,0,0,1-.14.1h-.1s0,.05,0,.05.08,0,.08,0a.81.81,0,0,1,0,.31s0,.06,0,.06l.3.23s.07,0,.1,0a1.59,1.59,0,0,0,.36-.88c0-.4,0-.31-.08-.31h-.82s-.06,0-.07.07,0,.42,0,.44l.05,0Zm-.81-.51c-.05,0-.07,0-.07.07v1.1s0,.06,0,0l.48-.29v-.36H54V14.3s0,0,0,0Zm.88,1.53a.21.21,0,0,0-.19,0c-.05,0-.59.88-.67.95l-.1.08s.34-.61.4-.68.32-.49.44-.49A.11.11,0,0,1,54.22,15.8Zm.34.42.62.68,0-.08-.63-.62Zm-.88.65s.28.26.28.26a1.88,1.88,0,0,0-.12-.15C53.81,16.93,53.71,16.85,53.68,16.87Zm0-.26s.1.17.19.3a1.34,1.34,0,0,0,.26.24A5.36,5.36,0,0,0,53.71,16.61Zm.17,1.17c.1,0,.21,0,.13,0A.23.23,0,0,1,53.88,17.78Zm0-.1c.09,0,.14,0,.19,0s0,0-.08,0Zm-.32.24.07,0a1.25,1.25,0,0,0,.21-.07s-.08,0-.14,0Zm-.37-.07.9-.38.13,0-1,.38S53.17,17.85,53.17,17.85Zm-.27-.07.86-.35.16,0L53,17.8Zm-.25-.05.82-.37.14,0-.86.35Zm-.22-.11.43-.15,0,0,.36-.13.11,0-.87.32Zm0-.17,0,0-.21.08,0,0Zm.11,0v0l.09,0,0-.06Zm.46-.2.11,0-.24.1,0-.08Zm-.67.12,0,0-.33.12L52,17.43Zm.34-.31.1.05-.47.18-.35.1,0,0,.39-.14C52.4,17.13,52.69,17,52.69,17Zm-.2.29a.27.27,0,0,1,.2,0,.6.6,0,0,1,.12.13s0-.16-.09-.19A.4.4,0,0,0,52.49,17.31Zm.37-.21.07,0-.15.06-.08,0Zm-.32-.19.08.06-.4.14-.46.13-.06,0s.32-.09.38-.12Zm-.17-.13.09.09L52,17l-.41.1,0-.05.44-.14Zm-.19-.16.11.1-.87.28L51.36,17l.22-.09.06,0a2.75,2.75,0,0,0,.29-.11s.14-.09.16-.11Zm2.4.93-.37.12s0-.09.13-.11A1.08,1.08,0,0,1,54.58,17.55Zm-1.65-.88h.25l0,0h-.21Zm-.24-.17h.57l0,0h-.51Zm-.11-.14h.78l0,.05h-.68Zm0-.14h.83l0,.06h-.85Zm.14-.13,0,.05.81,0,.05-.07Zm.19-.14-.07.07h.74l0-.09Zm-.1-.07s-.16.13-.24.2a1.9,1.9,0,0,0-.21.22s0-.17.1-.24S52.74,15.84,52.84,15.88Zm-.82.24c-.05,0-.13,0-.06.08a3.21,3.21,0,0,0,1.35.95,4.78,4.78,0,0,0,1.82.26c.19,0,.13-.06.11-.07s-.36,0-.44,0-.76-.1-1.06-.17a3.91,3.91,0,0,1-1.12-.53A4.64,4.64,0,0,1,52,16.12Zm-.17.42.06.07.21-.05L52,16.5Zm-.63.25.07.08.19-.06s0-.07,0-.08Zm.47-.32.22-.09,0,.05-.18.05A.07.07,0,0,1,51.69,16.47Zm-.28.12v0l-.24.09,0,0Zm.37-.32v0l-.84.3v0Zm-.23.42a.14.14,0,0,0,.1.08c.05,0,0-.08,0-.08h-.12Zm0-.11a.27.27,0,0,1,.25,0c.06,0,.11.12.1.14a.06.06,0,0,1-.08,0s0-.11-.08-.13A.59.59,0,0,0,51.5,16.58Zm-.63.08a4.19,4.19,0,0,0,1.52,1.11,3.6,3.6,0,0,0,1.56.32c.16,0,.13,0,0,0a3.36,3.36,0,0,1-1.78-.33A3,3,0,0,1,50.87,16.66ZM52.53,18s0,.07,0,.09-.1,0-.11,0,0-.09,0-.07,0,0,0,0Zm-.38.27c.05,0,.06.11.06.11S52.09,18.3,52.15,18.27Zm-.71-.71a.14.14,0,0,0,0,.1,3.69,3.69,0,0,0,0,.49l.25,0a2.06,2.06,0,0,1,.38.05s.14-.15.14-.15-.17-.16-.27-.16-.13,0-.18,0-.11.12-.15.11-.1,0,0-.1a1.22,1.22,0,0,0,.16-.14.14.14,0,0,0-.06-.14Zm1.69-3.3s.07,0,.07.05,0,1.34,0,1.36,0,.06,0,.09.05.08,0,.1a.17.17,0,0,1-.12,0s-.1-.13-.15-.12-.08.08-.13.08-.08,0-.12,0l-.37.32s-.09-.11-.14-.12A.48.48,0,0,1,52,15.8c0-.06-.19-.28-.21-.33s-.16-.18-.17-.24a2.52,2.52,0,0,0-.06-.41c0-.05-.11-.15-.12-.23a2.74,2.74,0,0,1,0-.29s0,0,0,0Zm-.24.17-.09,0-.28.06-.27,0s-.21-.1-.31-.12h-.26c-.06,0,0,.07,0,.12s.05.11.1.11,0,.06,0,.06l.42.81s0,0,0,0-.09.1-.08.12,0,.08.06.08l.18-.06h.14l.07,0,0,.11.13,0,.32-1.27Zm-.45,1.1,0,0,.26,0,0-.06Zm.07-.12,0,0,.22,0,0-.07Zm.24-.16,0,.05-.16,0v-.05Zm0-.11v0l-.13,0,0,0Zm0-.12,0,.05-.12,0,0-.05Zm0-.12,0,0-.08,0,0,0Zm-.09-.21-.06-.1h0a0,0,0,0,0,0,0l.06.09h0S52.76,14.7,52.75,14.69Zm0,.07-.1-.16a0,0,0,0,0,0,0s0,0,0,0l.1.16h0S52.71,14.77,52.7,14.76Zm-.05.08-.13-.21s0,0,0,0a0,0,0,0,0,0,0l.13.21h0S52.66,14.85,52.65,14.84Zm0,.06-.15-.24h0s0,0,0,0l.14.24s0,0,0,0A0,0,0,0,0,52.6,14.9Zm-.07.1-.18-.31s0,0,0,0a0,0,0,0,0,0,0l.18.31h0S52.54,15,52.53,15Zm0,.09-.24-.39h0a0,0,0,0,0,0,0l.24.4s0,0,0,0S52.5,15.1,52.5,15.09Zm0,.1-.33-.53s0,0,0,0a0,0,0,0,0,0,0l.32.53h0A0,0,0,0,0,52.45,15.19Zm-.07.06L52,14.64s0,0,0,0,0,0,0,0l.38.61h0S52.39,15.26,52.38,15.25Zm-.05.07-.43-.7h0a0,0,0,0,0,0,0l.42.69h0S52.33,15.33,52.33,15.32Zm-.57-.81c0,.05,0,.06.11.06a1,1,0,0,1,.2,0,.92.92,0,0,0-.17-.08C51.83,14.49,51.76,14.49,51.76,14.51Zm1.52-2.16s0,1.78,0,1.81,0,0,.06.05H55s.08,0,.07-.09a2.68,2.68,0,0,0-.47-1.24,1.46,1.46,0,0,0-.92-.51,1.56,1.56,0,0,0-.35,0C53.26,12.32,53.28,12.35,53.28,12.35Zm-.15,0a2,2,0,0,0-1,.32,2.25,2.25,0,0,0-.59.81,3.49,3.49,0,0,0-.14.67c0,.05,0,.08.06.09h1.65s.07,0,.06-.09V12.38S53.21,12.32,53.13,12.32Zm-1.48,1.43s0,0,0,0,0,0,0,0,0,.06,0,.06a.09.09,0,0,0,0,0l.07.05s0,0,0,0l-.06,0s0,0-.06,0,0,0,0,.05,0,0,.05,0a.24.24,0,0,1,.1-.06s0,0,0,0,0,0,0,0,0,0,0,0-.08,0-.08,0,0,0,0,0h.08l0,0L52,14a1.12,1.12,0,0,1,.13,0,0,0,0,0,1,0,0l0,0s-.1,0-.12,0,0,0,0,0h.22s.07,0,.06-.05v0l.09.06s0,0,0,0,0,0,0-.07l0-.08h0s0,0,0,0,.08,0,.07-.07-.06-.07-.11-.07h-.22c-.05,0-.06,0,0,0h.29s0-.05,0-.05H52c-.07,0-.14.13,0,.13h.29s0,0,0,0H52a.13.13,0,0,1-.07,0s-.05-.08-.08-.1l0,0v0Zm.08.14.07.06s0,0,0,0S51.73,13.89,51.73,13.89Zm.05-.05.07.06s0,0,0,0Zm0,0,.09.06s0,0,0,0A.51.51,0,0,1,51.82,13.82Zm-.18,0s0,0,0,0S51.64,13.76,51.64,13.78Zm.14,0s-.05,0-.05,0S51.78,13.74,51.78,13.76Zm.93-.06s0,.08.08.11.11,0,.1,0,0,0,0,0a0,0,0,0,0,0,0s-.05.09-.08.09,0-.05,0,0,0,0,0,0h0s0,0,0,0h-.16s0,0,0-.06,0-.06,0-.06h0l.11,0s0-.14,0-.16h.07Zm-.21-.45s0,.55,0,.57,0,0,0,0,.06,0,0-.05a.64.64,0,0,1-.06-.11s0-.11,0-.13,0,0,0,0,0,0,.06,0,.06.07.07.06,0,0,0-.05,0-.13,0-.14,0-.13,0-.13h0s0-.05,0,0,0,0,0,0,0,.06,0,.07,0,0,0,0v0s0,0,0,0a.07.07,0,0,1,0-.07s0,0,0,0,0,0,0,0Zm.35-.51,0,.14c0,.06,0,.14,0,.16s0,0,0,0,0-.09,0-.11,0,0,0,0a.71.71,0,0,0,0,.15v.05s0,0,0,0a.41.41,0,0,1,0-.11v0a.14.14,0,0,0,0,.1.36.36,0,0,0,0,.11s0,0,0,0v-.09h0l0,0a.06.06,0,0,1,0,0l0,0a2.8,2.8,0,0,1,0-.29h0a0,0,0,0,1,0,0,.12.12,0,0,1,0,.07s0,.07,0,.09l0,0s0,0,0-.05,0,0,0,0a.38.38,0,0,1,.07-.11A1.74,1.74,0,0,0,52.85,12.74Zm-.05.78s0,.07,0,.11a.29.29,0,0,0,0,.14.18.18,0,0,1-.08-.12A.18.18,0,0,1,52.8,13.52Zm.2-1s0,0,0,.05S53,14,53,14s0,0,0,0h-.09a.54.54,0,0,0,.09-.17.19.19,0,0,0,0-.08.43.43,0,0,1,0-.12s0,0,0-.05,0,0,0,0a.87.87,0,0,0,0-.28,1.38,1.38,0,0,1,0-.36c0-.07.07-.13.06-.18a.14.14,0,0,0,0-.06.42.42,0,0,0-.07.11V13s0,.42,0,.46,0,.08,0,.06,0-.15,0-.19,0-.23,0-.23,0-.05,0-.1a.25.25,0,0,1,0-.16l0,0a.54.54,0,0,1,0-.1s0-.07,0-.08,0,0,0,0h0s0,0,0,0-.06,0-.06,0,0,0,0,0h-.08s0,0,0,0,0,0,0,0-.08,0-.07,0,0,.07,0,.08l.09,0s0,0,0,0,0,0,0,0,0,0,0,.1-.09.08-.11.08-.05,0,0,0,0,0,0,0h0s0,0,0-.06,0,0,0,0h0s0,0,0,0v-.09s0,0,0,0Zm-.44.1L53,12.5a.08.08,0,0,1,.07,0s.07,0,.07.06,0,.06,0,.06V14a.14.14,0,0,1,0,.06.07.07,0,0,1-.07.06,0,0,0,0,1,0,0l-.4,0a.07.07,0,0,1-.07,0,.07.07,0,0,1-.07-.08.11.11,0,0,1,0-.06V12.72s0,0,0,0,0-.07.06-.08l.06,0Zm-.69.84.05.06s0,0,0,0A.45.45,0,0,1,51.87,13.45Zm0,0,.07.07s0,0,0,0A.64.64,0,0,1,51.9,13.4Zm0,0,.08.07s0,0,0,0S51.94,13.36,51.94,13.36Zm-.13-.08s0,0,0,0h.06s0,0,0,0,0,0,.06,0,0,.06,0,.07l0,0s0,0,0,0h.25s0,0,0,0H52.1A.07.07,0,0,1,52,13.3c0-.06.09-.06.15-.06h.21s0,0,0,0h-.25s-.06,0,0,0h.24s.06.07,0,.09-.06,0-.05.05.07.14.07.15l0,0-.09-.08-.08.07h-.12s0-.05,0-.05a.17.17,0,0,0,.09,0l.06,0s-.05,0-.09,0a1.38,1.38,0,0,0-.24.14h-.13s0,0,0,0l.12,0s0,0,0,0-.17,0-.17.06l0,0h-.06s0,0,0-.06l.18-.05a.41.41,0,0,0,0-.07.12.12,0,0,1-.05,0s0,0,0,0,0,0,0,0,0,0,0,0Zm.07.05s0,0,0,0S51.88,13.33,51.88,13.33Zm-.08,0s0,0,0,0S51.8,13.34,51.8,13.34Zm.56-.28s.07-.05.07-.08,0-.06-.09-.06h0s.07,0,.08,0v-.06c0-.07-.18-.06-.24-.06s-.05,0,0,0,.17,0,.19,0v0l-.06,0s-.07,0-.07,0,0,0,.11,0h0s0,0-.09,0-.08,0-.09,0a.16.16,0,0,0-.07-.09s-.07,0-.08,0S52,13,52,13a.27.27,0,0,0,0,.08.17.17,0,0,0-.12,0s-.11.07,0,.07a.35.35,0,0,0,.14,0,.24.24,0,0,1,.11,0l-.08.05-.07,0a.27.27,0,0,0,.16,0c.06,0,.12-.09.14-.08s-.06,0-.07.07v0s.1,0,.1,0a.2.2,0,0,1,0,0s.05.07.08.06,0,0,0-.06S52.34,13.08,52.36,13.06Zm-.29-.15c.07,0,0,0,0,0S52.07,12.91,52.07,12.91Zm0,.05s.05,0,0,0S52.08,13,52.08,13Zm0,0,.07.07h0Zm.05,0,.1.06,0,0Zm0,0,.06.08h0Zm3.13,1.3c-.09-1.41-.81-2.17-2.05-2.15a1.93,1.93,0,0,0-1.35.5,2.36,2.36,0,0,0-.61,1.71v.06l0,0a2.47,2.47,0,0,1,.62-1.71,1.87,1.87,0,0,1,1.31-.49c1.21,0,1.92.73,2,2.1A2.19,2.19,0,0,1,54.29,16l-.33.25s-.05.08,0,0l.34-.25A2.24,2.24,0,0,0,55.27,14.26Zm-.42-2.69.13.07.11.09L55,12.2l.47-.11a.31.31,0,0,1,.07.08l.06.09-.07,0s-.07-.07-.12,0l-.32.22s0,.07,0,.07l-.06.05-.14-.13L55,12.4s0,0,.07,0l.27-.2-.44.15H54.8l.12-.5-.25.24s0,0,0,.06l0,0-.06.05-.2-.12,0-.07s.07,0,.11,0a4,4,0,0,0,.29-.33s0,0,0,0l-.08,0Zm-.14.18v.11l-.11,0,0-.11Zm-.17-.34.13.06.1.07-.05.06s-.06,0-.07,0L54.4,12s0,.07,0,.07l0,.07L54.18,12l0-.08s.07.05.1,0,.24-.36.24-.38l0,0Zm-.73-.22.16,0,.15,0,0,.08s0,0-.07,0-.2.4,0,.46.3-.36.31-.38-.07-.06-.07-.06l0-.08.12,0,.12.06,0,.07s-.07,0-.08,0-.16.56-.43.44a.26.26,0,0,1-.14-.36s0-.22.06-.23-.09-.05-.09-.05Zm-.32,0a.34.34,0,0,0-.28.31c0,.15.07.33.23.34s.2-.05.2-.05a.74.74,0,0,0,.1.11.35.35,0,0,0,.15,0s-.13,0-.14-.11a.9.9,0,0,1,0-.12.29.29,0,0,0,.06-.24C53.76,11.31,53.71,11.17,53.49,11.17Zm0,.1a.2.2,0,0,0-.19.2c0,.07,0,.23.14.24s.16-.13.16-.23S53.61,11.27,53.53,11.27Zm-.45.2-.1.12.1.08.07-.1Zm-.41-.24a1.89,1.89,0,0,0-.31.09l.07.24h0s0-.15,0-.18l.09,0,.11.43-.1,0,0,.1.28-.06,0-.11h-.07l-.12-.43s.11,0,.15,0a.75.75,0,0,1,.08.14H53l0-.25Zm-.62.18,0,.1h.07l.17.38,0,0,0,.08.22-.07,0-.09h-.06l-.15-.37,0,0,0-.11Zm-.23.19a.19.19,0,0,0,0,.26c.07.09.19.13.25.07a.17.17,0,0,0,0-.24C52,11.61,51.9,11.55,51.82,11.6Zm-.1-.06a.32.32,0,0,0,0,.39c.1.13.33.21.43.14a.32.32,0,0,0,0-.46C52,11.47,51.79,11.48,51.72,11.54ZM53.64,14a.31.31,0,0,1,.17,0,.48.48,0,0,1,.13,0h-.15A.24.24,0,0,1,53.64,14Zm0-.06s0-.25-.09-.25a.13.13,0,0,0-.14.14.35.35,0,0,0,.07.14s0-.16.05-.17S53.64,13.9,53.64,13.9Zm.39,0s.07-.26,0-.26-.13,0-.14.09a.5.5,0,0,0,0,.13s0-.12.1-.11S54,13.93,54,13.93Zm-.27-.54a.52.52,0,0,1,.07.28.77.77,0,0,1-.07.25,1.37,1.37,0,0,1-.07-.26A.71.71,0,0,1,53.76,13.39Zm0-.08a.46.46,0,0,1,.13.28H54c.07,0,.16.25.13.32a.22.22,0,0,1-.08.1s0,0,0,0S54,14,54,14s0,0,0,0,0,0,0,0a.62.62,0,0,0,0,.1h-.08l0-.1v.09l-.05,0h-.06V14l-.06.08h-.08l0-.07s0,0-.05,0,.05-.06,0-.07-.12,0-.12,0a.27.27,0,0,1-.07-.26.22.22,0,0,1,.22-.15s0-.06,0-.13A1.06,1.06,0,0,1,53.76,13.31Zm-.1-.21a.47.47,0,0,1,.18,0l.13,0-.16,0A.34.34,0,0,1,53.66,13.1Zm0,0s0-.26-.09-.26a.13.13,0,0,0-.14.14.51.51,0,0,0,.08.14s0-.16.05-.17S53.66,13.05,53.66,13.05Zm.39,0c.05,0,.08-.25,0-.26s-.13,0-.13.09,0,.13,0,.13,0-.11.09-.11S54.05,13.07,54.05,13.07Zm-.27-.54a.63.63,0,0,1,.08.29.89.89,0,0,1-.08.24,1.37,1.37,0,0,1-.07-.26A.71.71,0,0,1,53.78,12.53Zm0-.07c.11.07.13.27.13.27H54c.07,0,.16.26.13.32a.22.22,0,0,1-.08.1s0-.05,0,0,0,0,0,.05,0,0,0,0,0,0,0,0a.66.66,0,0,0,0,.11h-.09l0-.1v.1l-.06,0h-.05v-.08l0,.08h-.08l0-.07s0,0,0,0,0-.05,0-.07a.27.27,0,0,0-.13,0,.27.27,0,0,1-.07-.26.22.22,0,0,1,.22-.15s0-.06,0-.12A.58.58,0,0,1,53.78,12.46Zm.54,1.16a.44.44,0,0,1,.17,0,.48.48,0,0,1,.13,0l-.15,0A.29.29,0,0,1,54.32,13.62Zm0,0s0-.26-.09-.26a.12.12,0,0,0-.14.14.35.35,0,0,0,.07.14s0-.16.05-.17S54.32,13.57,54.32,13.57Zm.39,0s.07-.25,0-.26-.13,0-.14.09a.5.5,0,0,0,0,.13s0-.11.1-.11S54.71,13.59,54.71,13.59Zm-.28-.54a.63.63,0,0,1,.08.29.69.69,0,0,1-.07.24,1.37,1.37,0,0,1-.07-.26A.76.76,0,0,1,54.43,13.05Zm0-.07c.11.07.13.27.13.27h.11c.08,0,.17.25.13.32a.18.18,0,0,1-.07.1s0-.05,0-.05-.06,0,0,.06,0,0,0,0,0,0,0,0l0,.11h-.08l0-.1v.1l-.06,0h-.05v-.08l0,.08h-.08a.24.24,0,0,0,0-.07s0,0,0,0,.05-.06,0-.07a.22.22,0,0,0-.12,0,.27.27,0,0,1-.07-.26.21.21,0,0,1,.22-.15s0-.06,0-.13A.72.72,0,0,1,54.44,13ZM56,12.89l.09.22-.08,0,0,0-.43.13,0,.11.16,0v.06l-.22.08-.17-.39.11,0,0,0,.41-.13,0-.08Zm0,.95.07.09-.09.07-.09-.08Zm-.05-.43.06.06-.09.07-.07-.07Zm-.49-.76,0,.08.14-.1Zm-.33,0,.1.15.06,0,0-.08h.09l.09.12,0,.09-.06-.07-.08,0,.12.24.11-.05v0l.4-.37,0-.1-.62.11,0,0-.08,0Zm1.31-.56.1-.06H56.4Zm-.2.05.53.11-.47,0Zm.11.13.34.08h-.3Zm.05.16,0,0h.19Zm-5-.67.05-.06.16.19,0,0a.18.18,0,0,0-.16,0c-.1,0-.14.1,0,.1s.33,0,.37,0,.13.2,0,.26a.24.24,0,0,1-.2,0l.08.06-.09.07-.19-.21,0-.06a.59.59,0,0,0,.2,0c.08,0,.15-.16,0-.16s-.39.1-.42,0,0-.19.07-.25a.54.54,0,0,1,.15,0Zm-.5.49.1,0,0,.08.4.24,0-.07.08.05-.1.19-.14-.06,0-.07-.37-.23,0,.06-.1,0Zm.19,0,.09.18.16,0-.06-.17Zm.13.83-.08.19-.09,0V13.2l-.47-.13v.06l-.11,0,.1-.17.45-.12-.26-.13,0,.1-.09,0,.13-.24h.1l0,.12.49.21-.54.19.3.07L51,13Zm-.42.11c.19.08.28.16.26.26s0,.26-.4.19-.28-.17-.27-.3S50.66,13.19,50.73,13.21Zm0,.09c.22,0,.25.35-.06.28S50.44,13.29,50.68,13.3Zm-.44,1,0-.27h.08v.06h.15l0-.27h-.13v.06h-.09v-.25h.08v.08l.48,0,0-.09h.07l0,.24H50.8v-.07h-.16l0,.27.17,0v-.08h.09v.27h-.09l0-.09h-.4v.07Zm5-3.05,0,.08a3.32,3.32,0,0,1,1.39,2.81,3.2,3.2,0,0,1-1.36,2.95l0,0a3.2,3.2,0,0,0,1.48-3A3.44,3.44,0,0,0,55.21,11.29Zm1.38.56a2.93,2.93,0,0,1-.38.2V12Zm.21-.22a4.1,4.1,0,0,1-.52.28l0-.1Zm-.3-.55a2.63,2.63,0,0,1,0,.33,1.29,1.29,0,0,0,0,.19l.09-.06s0-.22,0-.31a1.45,1.45,0,0,0,0-.17Zm-.11.13a4.31,4.31,0,0,1-.11.49c0,.07.1-.06.1-.06ZM56,10.72a1.65,1.65,0,0,0,0,.48,2.16,2.16,0,0,1,.07.4,2.87,2.87,0,0,1-.05.31l.09.1a2.58,2.58,0,0,0,0-.46,4.43,4.43,0,0,0-.12-.43C56.05,11,56,10.72,56,10.72Zm-.1.41s.06.3.06.39,0,.26,0,.26l.07.07a1.64,1.64,0,0,0,0-.34A3.56,3.56,0,0,0,55.91,11.13Zm-.1.17a.57.57,0,0,1,0,.19,1.47,1.47,0,0,0,0,.16l.06,0a1.49,1.49,0,0,0,0-.19A1.43,1.43,0,0,1,55.81,11.3Zm-.92-.3a3.38,3.38,0,0,0-1.59-.36,4.4,4.4,0,0,0-1.86.46c-.11.06,0,.2.09.16a4.32,4.32,0,0,1,1.76-.45,3.61,3.61,0,0,1,1.51.35C54.9,11.21,55,11.07,54.89,11Zm-.21-.23s.15-.27.32-.21,0,.33-.12.34.14-.18.07-.23S54.68,10.77,54.68,10.77Zm.28-.65a.47.47,0,0,0-.34.16c-.06.11-.17.46-.13.45a1.66,1.66,0,0,0,.34-.32A1.08,1.08,0,0,0,55,10.12Zm-1.15.46c0-.12.26-.33.42-.28s0,.38,0,.38.09-.21-.11-.26S53.81,10.58,53.81,10.58Zm.21-.39a1.22,1.22,0,0,1,1.09-.29c.47.15.33.43.32.48s-.31.3-.31.3.31-.39.07-.57a.9.9,0,0,0-.78,0A3.35,3.35,0,0,0,54,10.19Zm1.54.14c-.09.07,0,.18.08.11S55.61,10.3,55.56,10.33Zm0-.28c0,.1.13.21.17,0S55.61,10,55.6,10.05Zm-.17-.31c-.14.06,0,.23.13.18S55.58,9.67,55.43,9.74Zm-.33-.12c-.1.11.12.19.18.1S55.2,9.52,55.1,9.62Zm-.35,0c0,.14.21.12.22,0S54.77,9.47,54.75,9.61Zm-.29,0c0,.08.22.13.19,0S54.43,9.55,54.46,9.65Zm-.1.18c0-.06,0-.28-.08-.29s-.27.17-.35.28a2.6,2.6,0,0,0-.27.52.35.35,0,0,0,0,.17,1.43,1.43,0,0,1,.25-.47,2.35,2.35,0,0,1,.37-.33Zm-.92.74c0-.07.08-.31-.19-.3s-.2.31-.2.31-.06-.2.17-.2A.2.2,0,0,1,53.44,10.57ZM52,9.77s.06-.18.12-.21a.14.14,0,0,1,.15,0,.79.79,0,0,1,.38.35,3.32,3.32,0,0,1,.18.59,1.52,1.52,0,0,0-.24-.46c-.23-.27-.41-.41-.48-.39A.37.37,0,0,0,52,9.77Zm.87,0v0l.23,0h.17v0h-.18ZM53,9.71l0,0,.36,0,0,0ZM53,9.65l.2,0,0,0H53Zm-.31-.54.23.26s0,0,0,0l0,0-.24.16,0-.27a1.44,1.44,0,0,1,0-.24Zm1,.05-.3.21,0,0a.12.12,0,0,1,0,.05l.3.15Zm-.93-.22h.45l.37,0-.25.33a.21.21,0,0,0-.14,0,.38.38,0,0,0-.15.06Zm.36.45a0,0,0,0,1,0,0,.06.06,0,0,1,0,0s.11,0,.1,0S53.13,9.39,53.13,9.39Zm-.08,0c0,.13.27.13.28,0S53.06,9.3,53.05,9.41Zm-2.19.95c0,.1,0,.19-.14.08S50.83,10.3,50.86,10.36Zm-.06-.22c0,.1-.2.11-.2,0S50.8,10.06,50.8,10.14Zm0-.37c.12,0,.2.19,0,.2A.1.1,0,0,1,50.81,9.77Zm.36-.13c0,.06-.08.22-.19.11S51.1,9.56,51.17,9.64Zm.33-.05c0,.14-.21.13-.23,0S51.49,9.5,51.5,9.59Zm.32,0a.09.09,0,1,1-.17-.05C51.7,9.5,51.85,9.56,51.82,9.63Zm-.49,1.17s-.58-.49,0-.71a.91.91,0,0,1,.71,0,3.17,3.17,0,0,1,.52.2,1.19,1.19,0,0,0-.81-.4c-.51,0-.87.21-.81.5A.6.6,0,0,0,51.33,10.8Zm.17-.69a.54.54,0,0,1,.39.22,1.24,1.24,0,0,1,.15.39.79.79,0,0,1-.37-.25A.64.64,0,0,1,51.5,10.11Zm.66.54s-.07-.17.11-.17a.78.78,0,0,1,.37.13s-.17-.29-.36-.28-.28.22-.16.34S52.16,10.65,52.16,10.65Zm-.61.29c-.06-.07-.07-.2,0-.24s.18.09.18.09-.08-.3-.26-.21S51.55,10.94,51.55,10.94ZM50,12.61l.15-.06,0,0Zm-.09-.1.27-.07v.05Zm-.08-.08.23-.07a1.08,1.08,0,0,1,.2,0l0,0a.58.58,0,0,0-.13,0A1.49,1.49,0,0,1,49.82,12.43Zm.1-.36.22.06.12,0v.07a.38.38,0,0,0-.14-.06A.62.62,0,0,1,49.92,12.07Zm-.22-.23A.91.91,0,0,0,50,12l.3.07,0,.09a.81.81,0,0,0-.25-.1.6.6,0,0,1-.25-.1C49.71,11.89,49.7,11.84,49.7,11.84Zm.29-.35a3.84,3.84,0,0,0,.26.45l.07.06-.15-.07Zm.13.06.21.31h-.07Zm.35-.75a1.63,1.63,0,0,1,0,.58.85.85,0,0,0,0,.41.24.24,0,0,0,.05.09l-.07.09a1,1,0,0,1-.07-.36,2.25,2.25,0,0,1,.09-.4A2.6,2.6,0,0,0,50.47,10.8Zm.12.34a1.78,1.78,0,0,0-.05.35,2.06,2.06,0,0,0,0,.25l0,.09a.75.75,0,0,1-.05-.31A3.49,3.49,0,0,1,50.59,11.14Zm.1.16c0,.08,0,.17,0,.25a.64.64,0,0,0,0,.12l-.06,0a.41.41,0,0,1,0-.17A1.07,1.07,0,0,1,50.69,11.3Zm.5.07a4.62,4.62,0,0,0-1.09,1.49,3.38,3.38,0,0,0-.23,1.84l0,0a3.7,3.7,0,0,1,.27-1.83,4.38,4.38,0,0,1,1.08-1.52S51.27,11.3,51.19,11.37Zm-.57,4.85.41-.13c.08,0,.44-.17.44-.17l.06,0-.49.18-.37.12Zm-.08-.1L51,16l.44-.18.06,0L51,16l-.37.11ZM50.41,16l.41-.13.45-.17.09.07s-.41.12-.52.17l-.4.11Zm-.11-.11.42-.14c.08,0,.44-.17.44-.17l0,.08-.47.16c-.1,0-.4.12-.4.12Zm-.11-.1.52-.17.42-.15v.07l-.59.21a2.48,2.48,0,0,1-.32.09Zm0-.08h0l.3-.11,0,.05Zm0-.16h0l.21-.07,0,0Zm0-.12h0l.22-.08,0,.05Zm.72-.1,0,0,.21-.07v.05Zm0,.13,0,0,.21-.07v.06Zm0-.27,0,0,.22-.07v.06Zm-.65.1,0,0,.22-.07v.06Zm.64-.23,0,0,.22-.07V15Zm-.36.27s0,.15.19.07.11-.18.11-.18.17.15-.08.24S50.51,15.34,50.51,15.34Zm.72-.49a2.32,2.32,0,0,0,0,.42.85.85,0,0,0,.24.39.59.59,0,0,1,.17.25v0s-.28-.24-.34-.31a.81.81,0,0,1-.18-.46A1,1,0,0,1,51.23,14.85ZM50,15.28a1.18,1.18,0,0,0,.13.59c.13.17.35.38.37.42s-.26-.13-.35-.21a.85.85,0,0,1-.18-.4A.62.62,0,0,1,50,15.28Zm.36,1a.89.89,0,0,0,.17.09c.1,0,.24,0,.34,0a3.07,3.07,0,0,0,.87-.4c.11-.14-.11-.37-.2-.48a1.44,1.44,0,0,1-.16-.54.22.22,0,0,0-.2-.2c-.08,0-.34.13-.48.15s-.09-.12,0-.15a2.67,2.67,0,0,1,.48-.11.33.33,0,0,1,.22.18,1.51,1.51,0,0,1,.08.34,1.14,1.14,0,0,0,.19.36.59.59,0,0,1,.18.35c0,.11,0,.26-.46.42s-.7.27-.87.22S50.37,16.31,50.37,16.31Zm0-1.45s.08,0,.08,0a.2.2,0,0,1,0,.11,2.53,2.53,0,0,0-.33.1c-.08,0-.14.1-.12.17s-.08-.17,0-.24A2.59,2.59,0,0,1,50.32,14.86Zm.16-.07s.09.48.11.54.12,0,.12,0A3.43,3.43,0,0,0,50.48,14.79Zm-.77-.21s0,.31,0,.46a1.93,1.93,0,0,0,.1.44s-.21,0-.23-.06a.63.63,0,0,0-.16-.26L49.19,15a1,1,0,0,1,.23-.25A2,2,0,0,1,49.71,14.58ZM48.59,16.1l-.1.25a.39.39,0,0,0-.05.15l.12-.18.13-.18s0,.09,0,.18a1,1,0,0,0,0,.16,1.1,1.1,0,0,1,.11-.22,1.06,1.06,0,0,0,.09-.13.68.68,0,0,1,0,.22.3.3,0,0,0,0,.11s.1-.15.13-.21a.22.22,0,0,1,.08-.11.35.35,0,0,1,0,.15l0,.14.1-.16a.76.76,0,0,0,.08-.15v.13a.39.39,0,0,1,0,.15.73.73,0,0,0,.1-.14,1.51,1.51,0,0,1,.09-.16.26.26,0,0,1,0,.16,1.41,1.41,0,0,0-.06.15,1.43,1.43,0,0,0,.13-.16l.09-.16a.25.25,0,0,1,0,.13l-.06.18a1,1,0,0,0,.12-.17.62.62,0,0,1,.07-.16.38.38,0,0,1,0,.2.53.53,0,0,0-.06.13.69.69,0,0,0,.15-.17,2.18,2.18,0,0,0,.09-.24,1.23,1.23,0,0,1,0,.23.49.49,0,0,1,0,.15,1.13,1.13,0,0,0,.15-.23c0-.06.05-.19.05-.19a1.66,1.66,0,0,1,0,.27.7.7,0,0,1,0,.18.79.79,0,0,0,.12-.18A1.46,1.46,0,0,1,50,16a.77.77,0,0,1,0,.27c0,.09-.06.22-.06.22a.45.45,0,0,0,.12-.17l0-.19a1.61,1.61,0,0,1,0,.23c0,.1,0,.21,0,.21a.37.37,0,0,0,.09-.16.64.64,0,0,0,0-.14,2.09,2.09,0,0,1,0,.23.79.79,0,0,1,0,.14.26.26,0,0,0,.06-.09.89.89,0,0,1,.06-.15.87.87,0,0,1,0,.17v.14l.07,0,.06-.18v.23l.07.05,0-.17v.23l.08.05,0-.15,0,.22.05.05,0-.15s0,.16,0,.2a1.67,1.67,0,0,0,.06.2s-.5-.46-.65-.56A1.72,1.72,0,0,0,49,16.54c-.36.08-2.91.79-3.09.83a12.6,12.6,0,0,1-2,.39c-.4,0-2.48,0-2.48,0s-1.43-.08-2-.13a3.36,3.36,0,0,1-.67-.14s.78-.12,1-.17.73-.18.73-.18l-1.15-.46a5.68,5.68,0,0,1-.68-.37l.31,0a2,2,0,0,1,.24.06h0a.57.57,0,0,0,.19.07c.1,0,.1,0,.1,0l-.12.09a.87.87,0,0,0,.2,0,.7.7,0,0,0,.18-.05s0,.11,0,.11.11-.09.12-.1.2,0,.2,0l-.06.08a.52.52,0,0,1,.17-.06c.07,0,0,.18,0,.18l.08-.1v.15a.81.81,0,0,1,0-.14.82.82,0,0,1,.12-.15h0a1.12,1.12,0,0,0-.11.15.26.26,0,0,0-.06.14c0,.07,0,.17,0,.18s.07-.09.11-.12l.24-.16s0,.29.2.29a1.12,1.12,0,0,0,.34,0h0l.06.09-.45.13a2.48,2.48,0,0,0,.13.3s.12-.06.24-.1l.26-.09L41.33,17a.26.26,0,0,0,.31,0c.19-.2.16-.31.16-.31s1.51.07,2,0,3.13-.76,3.35-.85a7.25,7.25,0,0,1,.89-.21l.1.11-.82.22-.11.39.12,0s.09-.26.16-.28.19-.07.16,0-.1.52-.12.56-.16.07-.16.07l0,.14a3.65,3.65,0,0,1,.36-.12l.39-.11,0-.11a.66.66,0,0,1-.18,0c-.05,0,0-.12,0-.15S48,16,48,16s.11-.12.15-.09,0,.11,0,.11h.08s-.07.13,0,.14a.67.67,0,0,0,.2,0Zm-1.46-1.71a.52.52,0,0,1,.17.2.65.65,0,0,0,.09.16s1.27.15,1.38.19a4,4,0,0,1,.44.18c.06.05.21.1.29.23a1.28,1.28,0,0,1,.16.43c0,.08-.09-.11-.09-.11s-.08.1-.14.11.12-.11.12-.19-.08,0-.14,0,.06-.05.06-.1a.4.4,0,0,0,0-.13.17.17,0,0,1-.09.1c-.06,0,0-.13,0-.13l-.22-.06-.24-.07s.24.12.27.2a1.21,1.21,0,0,1,.07.34.17.17,0,0,1-.13.15L49,16s.13,0,.16-.13a1.11,1.11,0,0,1,0-.13.21.21,0,0,1-.1.1l-.12,0s.12-.09.14-.16l0-.08a1.66,1.66,0,0,1-.23.14s.15-.18.15-.18a.73.73,0,0,1-.2.07c-.07,0,.11-.13.11-.13l-.12,0s0,0,0,0l-.34-.08.19.23a.6.6,0,0,1,.1.25c0,.06,0,.16-.11.17a.6.6,0,0,1-.2,0s.21,0,.23-.12l0-.09v0s0,.09-.14.12l-.12,0a.45.45,0,0,0,.16-.1c.05-.07.05-.09.05-.09a.6.6,0,0,1-.19.08h-.11a.89.89,0,0,0,.22-.11s-.05,0-.12,0a.35.35,0,0,1-.14,0,.39.39,0,0,0,.19-.06c0-.05,0,0-.08,0a.23.23,0,0,1-.13,0,.33.33,0,0,0,.14-.05s0-.06-.06,0a.92.92,0,0,1-.18,0s0-.08.08-.09l.14,0h-.24l-.22,0a2.89,2.89,0,0,0,.31-.15s-.24,0-.33,0-.41.15-.41.15a1,1,0,0,1,.27-.16,3.31,3.31,0,0,0,.36-.15l-.58.18s-.44.23-.44.23.44-.33.51-.37l.42-.16s-.55.17-.63.21l-.61.37s.39-.32.43-.37l.14-.11-.45.25-.36.23a4.14,4.14,0,0,1,.4-.33l.17-.13a4.7,4.7,0,0,0-.57.33,4.62,4.62,0,0,1-.41.27l.36-.34.13-.12-.42.23-.38.24s.34-.35.45-.43a.66.66,0,0,1,.14-.1l-.33.15a3.34,3.34,0,0,0-.32.18,2.77,2.77,0,0,1,.26-.29c.07,0,.31-.25.31-.25L46,15.3l-.24.13.51-.4a1.23,1.23,0,0,0,.22-.38s0,.29,0,.44.09.18.09.18l.08,0a.35.35,0,0,1,.07-.17,4.2,4.2,0,0,0,.29-.44C47.05,14.56,47.13,14.39,47.13,14.39Zm-.37-.67a4.23,4.23,0,0,1,.12.56c0,.1,0,.22,0,.22l.09-.11s-.19.37-.2.41a3.78,3.78,0,0,1-.19.36,2.41,2.41,0,0,1,0-.55,2.27,2.27,0,0,0,.13-.59A.88.88,0,0,1,46.76,13.72Zm-.42,0a2.79,2.79,0,0,1-.07.84c-.1.22-.3.28-.44.37a1.79,1.79,0,0,1-.38.13s.35-.36.49-.54A5.72,5.72,0,0,0,46.34,13.73Zm.82.11a1.82,1.82,0,0,1,.27.34,1.58,1.58,0,0,1,.12.43,2.2,2.2,0,0,1-.22-.35c-.09-.19-.19-.29-.18-.36Zm.51-.23a1.23,1.23,0,0,0,.2.48c.07.08.08.31.1.36a.45.45,0,0,1,.05.09,3.71,3.71,0,0,0,.06-.43s0-.07-.09-.13S47.67,13.61,47.67,13.61Zm-.45-.16a.66.66,0,0,0,0,.2s.15.15.24.26l.23.33a3,3,0,0,0-.21-.57A.84.84,0,0,0,47.22,13.45Zm1,.35s.05.09.11.22a2.63,2.63,0,0,1,.11.48,1.37,1.37,0,0,0,.05-.35c0-.13,0-.19,0-.22A2.21,2.21,0,0,0,48.26,13.8Zm.68.28a1.44,1.44,0,0,1-.08.53c0,.06,0-.2,0-.3a.25.25,0,0,1,0-.23A.19.19,0,0,1,48.94,14.08Zm-.25-.77a3.16,3.16,0,0,0,.2.43l.43.15a.62.62,0,0,0-.19-.18.72.72,0,0,1-.28-.23A1.47,1.47,0,0,0,48.69,13.31Zm-.83-.51s.36.06.43.21.07.28.14.39a2.14,2.14,0,0,0,.25.28,1.23,1.23,0,0,1-.41-.29c-.1-.16-.13-.26-.21-.38A.78.78,0,0,0,47.86,12.8Zm-.69-.23a1.07,1.07,0,0,1,.52.32,4,4,0,0,1,.24.56,1.16,1.16,0,0,0,.17.22.79.79,0,0,1-.4-.33,1.77,1.77,0,0,0-.27-.52Zm-.79,0s.27,0,.32.21a.86.86,0,0,1,0,.41.43.43,0,0,0,.12.28.87.87,0,0,0,.2.1l-.3,0a.37.37,0,0,1-.23-.35c0-.13.14-.22.11-.32s-.26-.21-.26-.21Zm0-.29s.35,0,.48.14.24.37.33.41a1,1,0,0,1,.23.21.8.8,0,0,1,.12.21.93.93,0,0,0-.25-.18,1,1,0,0,1-.41-.29c-.08-.12-.2-.27-.3-.3a1.07,1.07,0,0,1-.22-.08Zm-2.17.23a.69.69,0,0,1,.32.07c.07.06.16.14.12.16a1.33,1.33,0,0,1-.33.08c-.07,0-.14-.1-.14-.17A.5.5,0,0,1,44.23,12.53Zm.62-.65c-.14,0-.17,0-.19,0s0,.11,0,.11h.16l.2,0s0,0,0,0a1.23,1.23,0,0,0-.38,0l-.36.2a.28.28,0,0,1,.05-.22l.14-.25s-.12,0-.19.07L44,12a.48.48,0,0,1,.08-.21c.07-.11.22-.39.22-.39s.33-.13.36-.26a.4.4,0,0,0-.05-.28s.15,0,.19.1a.34.34,0,0,1,0,.25.69.69,0,0,0,.15-.32.84.84,0,0,0,0-.36l0,0a.5.5,0,0,1,.13.27,1.45,1.45,0,0,1-.09.34s.2-.14.21-.24a4,4,0,0,0,0-.44.54.54,0,0,1,0-.08s.18.2.15.34a1.19,1.19,0,0,1-.13.29.77.77,0,0,0,.25-.19,1.6,1.6,0,0,0,.16-.44.65.65,0,0,1,.09.26.47.47,0,0,1-.16.3l-.22.22.08,0a.89.89,0,0,1,.31-.23,1.52,1.52,0,0,0,.44-.14,2.27,2.27,0,0,0,.17-.22.63.63,0,0,1-.11.28,1.88,1.88,0,0,1-.43.31,1.19,1.19,0,0,0-.18.13l.06,0a1.61,1.61,0,0,1,.5-.22c.18,0,.41,0,.45-.11l.06-.12s.06.22-.08.27-.4.07-.47.1a2.15,2.15,0,0,0-.31.22l.06,0a.66.66,0,0,1,.53-.23.86.86,0,0,1,.4.06,1.47,1.47,0,0,1,.23.13,1.72,1.72,0,0,0-.37,0,1.37,1.37,0,0,0-.47.16l.06,0a1.24,1.24,0,0,1,.5-.07.81.81,0,0,1,.46.2c.06.08.12.25.19.3l.2.09s-.19.07-.58-.24a.79.79,0,0,0-.77-.09l.06.11a.73.73,0,0,1,.43.05,1.19,1.19,0,0,1,.39.29,1.29,1.29,0,0,0,.32.31s-.19,0-.26-.07-.33-.22-.45-.27a.82.82,0,0,0-.33-.09.41.41,0,0,0-.16,0s-.19-.25-.27-.37l-.17-.24-.11.1a1.32,1.32,0,0,1,.25.32c.07.14.22.59,0,.83a1,1,0,0,1-.16.12l.21.07,0,0-.23-.07-.09.08.14,0,.14,0,0,0-.17,0-.11,0-.07.05-.07,0,.11.06.12.05-.05,0a.85.85,0,0,1-.18-.05l-.11-.08h-.15l-.15,0a.46.46,0,0,1,0-.1s0-.07.09-.09a1,1,0,0,0,.25-.1s.05-.07,0-.12a.26.26,0,0,1-.09-.1l.11-.1.08-.08s0,.12,0,.16v.18a1.68,1.68,0,0,0,.28-.27.62.62,0,0,0,0-.24c0-.1-.09-.31-.16-.34s-.18,0-.16.07a.46.46,0,0,1,.09.15s0,0-.17.27a1,1,0,0,1-.64.32s-.18-.21-.08-.36a1.07,1.07,0,0,1,.32-.25s.07-.14.07-.14A.91.91,0,0,0,44.85,11.88Zm.5.39c.08,0,0,.12,0,.1S45.27,12.28,45.35,12.27Zm0-.17c-.06,0,0,.16.06.11S45.39,12.08,45.33,12.1Zm-.14,0s.06.16-.06.13S45.13,12.1,45.19,12.11Zm.23,0c-.07,0-.07-.12,0-.14S45.5,12.05,45.42,12.06Zm-.18,0c.06,0,.06-.12,0-.11S45.19,12.07,45.24,12.06Zm.15-.3c.1,0,.14.08,0,.1s-.11,0-.1,0A.1.1,0,0,1,45.39,11.76Zm-.51-.22,0,.09a.52.52,0,0,1,.17,0l.23.06a1,1,0,0,1,.12-.22,1.9,1.9,0,0,1,.2-.18l-.07-.09s-.21.12-.35.18Zm.06-.25.07.06a.24.24,0,0,1-.11.06l-.09,0a.73.73,0,0,1,0,.15.84.84,0,0,1,0,.1l.18,0a1,1,0,0,1,.22.08l0,.08a.94.94,0,0,0-.17-.05h-.33a.92.92,0,0,0,0-.22,1,1,0,0,1,0-.24l.14,0Zm2.9,1s.13,0,.18,0a.89.89,0,0,0,.22.16.39.39,0,0,1,.16.14l.14.18a1.52,1.52,0,0,0-.29-.18.84.84,0,0,1-.27-.15A.83.83,0,0,1,47.84,12.28Zm-.48-.77a2.34,2.34,0,0,1,.58.35,1.2,1.2,0,0,0,.51.14.51.51,0,0,1-.27.12.43.43,0,0,1-.39-.16,2.92,2.92,0,0,0-.31-.37A.62.62,0,0,1,47.36,11.51Zm-1.3-1.15s.36-.32.55-.15a.33.33,0,0,1,.07.44s0-.3-.12-.36a.32.32,0,0,0-.26,0l.05,0a.44.44,0,0,1-.1.26.27.27,0,0,1-.22,0s.13,0,.16-.07a.29.29,0,0,0,.09-.15s0,0-.09,0a.73.73,0,0,0-.14.11.87.87,0,0,1,.13-.16l.1-.1Zm0-.46s-.13.06-.08.14a.35.35,0,0,0,.08.1l-.1.08a.45.45,0,0,0-.07.1l-.13-.1-.07.1s-.07-.11,0-.24a.4.4,0,0,1,.29-.21A.07.07,0,0,1,46,9.9Zm1,1a1.89,1.89,0,0,1,.31-.11l.29,0a.57.57,0,0,0-.34,0A.32.32,0,0,0,47,10.93Zm-.93-.88.21-.11a.12.12,0,0,0-.15,0C46.06,9.92,46.1,10.05,46.1,10.05Zm-.66,0c-.06,0-.07.13,0,.15s-.15,0-.13-.08.11-.07.11-.07Zm0-.27c-.06,0-.07.13.05.09S45.48,9.81,45.48,9.81Zm.79-.2c0,.11-.26.16-.23,0s.22,0,.22,0Zm-.47.09c.1,0,.07-.15,0-.15S45.71,9.73,45.8,9.7Zm-.79.39.26,0-.05.14Zm-.19.09-.15.19s-.08,0-.09-.08S44.82,10.18,44.82,10.18Zm-.52.31s-.15,0-.12-.12.21,0,.21,0-.09,0-.11,0A.17.17,0,0,0,44.3,10.49Zm-.52.25c0,.09.12.1.12,0S43.78,10.74,43.78,10.74Zm.08-.28c.11,0,.18.12.1.12S43.86,10.46,43.86,10.46Zm.68.17-.16.25s-.38-.06-.3-.22S44.54,10.63,44.54,10.63ZM46,13.91c-.07.14-.16.39-.24.54a1.15,1.15,0,0,1-.39.43,1.49,1.49,0,0,1-.31.14,3.1,3.1,0,0,1,.26-.36,2.89,2.89,0,0,0,.25-.24,3.4,3.4,0,0,0,.23-.27C45.87,14.09,46,13.91,46,13.91Zm-1.72.79a.66.66,0,0,0,.34-.13,3,3,0,0,1,.58-.23.91.91,0,0,0,.28-.19l.21-.25a1.14,1.14,0,0,1-.46.62,2.75,2.75,0,0,1-.67.25A.44.44,0,0,1,44.31,14.7Zm0-.45a1.36,1.36,0,0,1,.45-.12,1,1,0,0,0,.5-.2,1.55,1.55,0,0,1,.23-.15s-.16.3-.3.35a1.57,1.57,0,0,1-.51.15A3.45,3.45,0,0,1,44.36,14.25Zm-4,2.13c0,.06-.13.14-.13.16l0,0,0,0,.08-.08a.31.31,0,0,1,.07-.08Zm-.17-.09s-.09.13-.11.13H40Zm.95.36-.17.09a.26.26,0,0,0-.08.05l0,0,.15-.08Zm.11-.13,0,.05a1.57,1.57,0,0,0-.24.08l-.14.06a.39.39,0,0,1,.09-.08l.27-.09Zm.2-.2c-.05.08-.27.58-.47.57s-.33-.12-.22-.24a.65.65,0,0,1,.34-.2.46.46,0,0,0,.23-.05Zm-.78.06a.19.19,0,0,0,.14,0l.25-.11,0,0-.2.1-.14.07Zm.12-.14.1,0-.2.09-.08,0v0Zm-.23,0,0,0,.18-.1s.06,0,.06,0l-.14.05Zm0-.09,0,0a.69.69,0,0,1,.16-.09l.06,0Zm.83.12-.31-.11a1.21,1.21,0,0,1-.23-.14c-.08-.05-.06-.07-.14-.05a.28.28,0,0,0-.16.11l.12-.07s-.14.09-.16.12a.22.22,0,0,0,0,.13.27.27,0,0,0,.1.15c.08,0,.12,0,.25,0a2.14,2.14,0,0,1,.36-.12h.12Zm5.35-.11-.41.12,0,.08.11,0s.06,0,0,.1-.15.47-.15.5a.14.14,0,0,1-.07.08l-.09,0,0,.11.58-.15.39-.12,0-.31H47a1.74,1.74,0,0,1-.15.22,1.21,1.21,0,0,1-.25.08s0,0,0,0,0-.15,0-.18,0,0,0,0,.06,0,.07,0l.09.07.08-.37-.16.15-.06,0s0,0,0,0a.89.89,0,0,1,.06-.2A.84.84,0,0,1,47,16.2s.09.1.1.14.08,0,.08,0l.06-.33Zm-.67.44.09.14L46,17l-.11-.16Zm-1.27.09.28-.07.28-.06,0,.11,0,0s0,0-.05.08l-.09.42c0,.13.21.2.3,0a4.22,4.22,0,0,0,.15-.51s0,0,0-.05l-.11,0,0-.09.46-.15,0,.1-.11.05s0,.05-.07.1-.14.44-.17.53a.47.47,0,0,1-.47.27c-.19,0-.3-.1-.26-.29s.09-.3.1-.34,0,0-.06,0l-.11,0Zm-1,.15.48-.05.42-.08a2.75,2.75,0,0,1-.11.29s-.1-.12-.12-.12a.68.68,0,0,0-.2,0s0,0,0,0a.59.59,0,0,0-.06.14s0,.05,0,.05.12,0,.14,0a.93.93,0,0,1,.15-.13,1.2,1.2,0,0,1-.09.29s0,0-.07-.07-.1,0-.13,0,0,0,0,0-.07.2-.08.21,0,0,0,0a.56.56,0,0,0,.23-.06c.07,0,.16-.15.18-.15h.08l-.13.3a4.86,4.86,0,0,1-.58.05h-.41l0-.07.1,0s.1-.06.12-.1.17-.32.19-.38a.06.06,0,0,0-.06-.08h-.09Zm-.68,0h.56l0,.08h-.07s-.08,0-.09.1-.16.39-.18.42a0,0,0,0,0,0,.06h.08l0,.07h-.58l0-.08h.08a.3.3,0,0,0,.1-.07l.18-.42c0-.05,0-.07-.05-.08h-.07Zm-.83.09s-.24.44-.26.46,0,0,0,0,.31,0,.4-.13a.71.71,0,0,0,.11-.24s0-.1-.11-.12l-.16,0Zm-.41-.14-.05.09h.11s0,0,0,.06a4.77,4.77,0,0,1-.25.43.08.08,0,0,1-.07,0h-.16l-.06.08.93,0c.13,0,.48-.16.51-.37s0-.31-.31-.34S41.85,16.81,41.85,16.81Zm-.34-.4a1.23,1.23,0,0,1-.12.3l-.14.15s.06.15.18.13.32-.15.31-.29-.11-.19-.16-.23A.23.23,0,0,1,41.51,16.41Zm.09-.06a.91.91,0,0,1,.2.12c.11.09.16.11.19.07s-.08-.1-.14-.13l-.17-.08Zm3.74-1s0,.18,0,.27a1.52,1.52,0,0,0,0,.25.5.5,0,0,1-.06-.31A.34.34,0,0,1,45.34,15.37Zm-.29-.19a3.14,3.14,0,0,1,0,.39c0,.07,0,.43,0,.43a1.79,1.79,0,0,1-.14-.47A1.12,1.12,0,0,1,45.05,15.18Zm-.29-.06,0,.87a3.42,3.42,0,0,1-.06-.57A1.67,1.67,0,0,1,44.76,15.12ZM44.51,15a1.66,1.66,0,0,0-.06.31c0,.11,0,.37,0,.37a4,4,0,0,1,0-.45A.56.56,0,0,1,44.51,15Zm-2.67,1.17a1.65,1.65,0,0,1,.21.09s0,0-.06,0l-.23-.06Zm.09-.06.24,0s0,0,0,0l-.28,0Zm.12-.1-.06.06h.17s.06,0,0,0Zm-.49.29a3.19,3.19,0,0,0,.32-.22c.08-.07.17-.16.21-.16s.19,0,.19.11-.08.39-.29.33a.81.81,0,0,0-.32-.06Zm.39-.64s0,.2,0,.22,0,0,0,0,0-.12,0-.15S42,15.64,42,15.64Zm-.11-.05c.06,0,0,.34,0,.34l-.06,0s0-.2,0-.27,0-.08,0-.08Zm-.15.05a.08.08,0,0,0,0,.1,2,2,0,0,1,.06.31l0-.05s0-.17,0-.24S41.69,15.64,41.69,15.64Zm-.15.08s0,0,0,.11a1.33,1.33,0,0,1,.06.31l0,0a1.87,1.87,0,0,0,0-.29C41.59,15.74,41.54,15.72,41.54,15.72Zm.53-.05s0,.05,0,.09l0,.06a.38.38,0,0,1,0-.08A.14.14,0,0,1,42.07,15.67Zm.26-.35a6.23,6.23,0,0,1,.71-.43,1.54,1.54,0,0,1,.28-.11S43,15,43,15l-.66.42Zm2.55,1a1.31,1.31,0,0,1-.75-.69c-.29-.56-.44-1.22-.79-1.1a5.84,5.84,0,0,0-1.08.74l0,.26s.7-.43.91-.51a1.39,1.39,0,0,1,.31-.09l-.5.29-.65.45s.71-.4.84-.45a2,2,0,0,1,.46-.13l-.49.27a7.59,7.59,0,0,1-.66.39l-.08,0a1.25,1.25,0,0,0,.29-.11c.1-.06.55-.3.64-.33a2.24,2.24,0,0,1,.42-.09s-.31.15-.4.21-.39.26-.48.31l-.28.14s.2-.07.41-.17a2.25,2.25,0,0,1,.62-.28.57.57,0,0,1,.24,0l-.33.15a4.89,4.89,0,0,0-.48.25l-.2.12.51-.23a2.92,2.92,0,0,1,.39-.13H44l-.27.11c-.06,0-.48.26-.51.29l.19-.06a2.25,2.25,0,0,1,.46-.15h.28a2,2,0,0,1-.25.09c-.13,0-.44.2-.48.21l.43-.14c.09,0,.37,0,.37,0L44,16a3.3,3.3,0,0,0-.37.2L44,16a3.19,3.19,0,0,1,.33,0,3.08,3.08,0,0,0-.32.11l-.23.1.33-.08.32,0-.28.11-.22.12a2.52,2.52,0,0,1,.32-.07l.36,0-.23.08c-.17.07-.25.11-.21.11S44.88,16.29,44.88,16.29Zm-2.09-1.62c.06,0,.16-.06.12,0l-.48.36a2.44,2.44,0,0,1-.4.26c-.13,0-.34-.27,0-.59s.56-.06.63,0Zm-1.47,1.17s0,0,0,0a.71.71,0,0,0,0,.14s0,.07,0,.09a.35.35,0,0,1,0,.06l0,0a.68.68,0,0,1,0-.12,1.62,1.62,0,0,0,0-.2Zm-.13-.15s0,.18,0,.21a2,2,0,0,0,0,.22l.05,0a.65.65,0,0,0,0-.14s0-.28,0-.3S41.19,15.69,41.19,15.69Zm-.08,0s0,0,0,0a1.64,1.64,0,0,1,0,.23.84.84,0,0,0,0,.16l.05,0a1.6,1.6,0,0,1,0-.22A1.91,1.91,0,0,0,41.11,15.68Zm-.19,0a.07.07,0,0,0,0,.05V16l0,0v-.32S40.92,15.66,40.92,15.66Zm-.11.18s0,0,0,0a.13.13,0,0,1,0,0s0,0,0,0Zm.34-.51s0,0,0,0,0,.05,0,.07.06,0,.08,0h.05l.15,0s0-.06,0-.07h0s-.05,0-.09,0h-.11Zm-1.06.06-.15.11a.25.25,0,0,1-.08.05l-.07.06v0a.53.53,0,0,0-.1.13s0,.1,0,.1l.34-.06.22-.05h.1s0,0,0,0a.58.58,0,0,0,.18-.08l0,0,.26-.11s0,0,0,0,0-.11,0-.13-.1-.09-.11-.11a.74.74,0,0,0-.08-.13s0,0,0,0a.13.13,0,0,1,0,0s0-.06,0-.07h-.06s0,0,0,.05,0,.05,0,.05l.06,0s0,0-.08,0,0,0,0,0a.23.23,0,0,0-.11.06s0,.08-.05.08,0,0,0,0-.08.05-.1.06a.12.12,0,0,1-.08,0h-.07A.17.17,0,0,0,40.09,15.39Zm.8-.65s.06,0,.07,0,0,0,0,0l.15-.05.11,0,.11-.05.09-.06h0l.08,0s0,0,0,.06a.4.4,0,0,1,0,.15,2.09,2.09,0,0,1-.18.25c0,.05-.11.23-.14.24s-.12,0-.14,0,0,0,0,0L41,15.15s0,0,0,0l-.11,0s0-.05,0-.05l0,0V15s0,0,0,0l.09,0s0,0,0,0,.07,0,.06-.06l0-.06.16-.07.25-.08a.75.75,0,0,0,.12-.07s-.14,0-.2.07l-.29.11S40.89,14.74,40.89,14.74Zm.1.31s-.11,0-.1,0H41l.1,0h.06l-.07,0Zm.26-.1s0,0,0,0H41A.16.16,0,0,0,41,15s-.13.06-.14,0,0,0,0,0l.18,0Zm.07-.14s0,0,0,0h-.16l-.14,0a.1.1,0,0,1-.06,0l0,0,.18,0Zm.07-.14-.11.06-.21,0-.11,0v0l.25-.09Zm-.56.14s0,0,0,0,0,0,0,0-.07,0-.07,0,0,0,0-.06Zm-.1-.12s-.06,0-.06,0,0,0,0,0,.08,0,.08,0S40.73,14.69,40.73,14.69Zm.11-.13s0,0,0,0-.06.06-.07.05,0,0,0,0,0,0,0,0a.09.09,0,0,1,0,0Zm.45-.38s0,0,0,.06l-.1.1-.09.15s0,0,0,0a1.19,1.19,0,0,1,.08-.16,1.25,1.25,0,0,0,.12-.09ZM41,14s0,.06,0,.08a.47.47,0,0,1-.05.1s-.06.17-.07.19l0,.06a.1.1,0,0,1,0,0s0,0,0,0a.07.07,0,0,1-.06,0h-.06a.35.35,0,0,1-.08.1l0,0v0a.2.2,0,0,0,0,0l.05-.05a.24.24,0,0,1,0-.07.12.12,0,0,0-.08-.06s0-.09,0-.11,0-.13,0-.16,0,0,0,0,.18-.07.21-.09l.21-.06s.09,0,.11,0,.13.1.14.12,0,.09.08.08a.09.09,0,0,1,.06,0,.16.16,0,0,0,0,.06s0,.08,0,.1a1.66,1.66,0,0,1-.31.23l-.16,0s0,0,0,0,0-.05,0-.08a.76.76,0,0,1,.06-.16l0,0s0-.15,0-.15Zm-.28,0s0,.06,0,.08a1.77,1.77,0,0,0,0,.23.53.53,0,0,0,0,.13s0,.05,0,0,0-.13,0-.16,0-.21,0-.24A.14.14,0,0,0,40.76,14Zm-.24,1.38s0,.06,0,.06v-.06Zm.17-.12s0,0,0,.06,0,0,0,.05h0l0-.06Zm-.34.15a0,0,0,0,1,0,.05.66.66,0,0,1,0,.11s0-.11,0-.13A0,0,0,0,1,40.35,15.42Zm-.17-.15a.08.08,0,0,0,0,.08s0,0,0,0h.08a.09.09,0,0,0,0-.05s0,0,0,0a.06.06,0,0,0,0,0Zm.28-.16s0,0,0,0,0,.06,0,.07-.1,0-.1,0,0-.08,0-.08a.06.06,0,0,0,0,0Zm.19-.15-.06,0s0,0,0,0,.11,0,.1,0Zm-.19-.05s0,0,0,.06,0,0,0,0a.1.1,0,0,0,.07,0s.06,0,.06-.06,0,0,0,0,0,0,0,0,0,0,0,0Zm0-.18s-.06.07,0,.08.06,0,.08,0l.05-.05s0,0,0,0Zm-.25.3s0,.08,0,.09.08,0,.09,0,0,0,0-.07,0,0,0,0Zm-.11.09s0,0,0,.05,0,.06,0,.06-.13,0-.1,0Zm.1.34h0a.49.49,0,0,1,0,.09s-.06.1-.08.1,0,0,0,0,0-.05,0-.07.05,0,0,0,0,0,0,0Zm0-.6s0,.05,0,.06a0,0,0,0,0,.07,0l.08,0s0-.06,0-.06l0,0s0,0,0,0A.25.25,0,0,0,40.14,14.86Zm-.13,0a.33.33,0,0,1,0,.06s0,0,0,0,0,0,0,0,0,0,.06,0l.06,0s0,0,0-.06Zm.42-.21s0,0,0,0,.11,0,.1,0,0-.05,0,0Zm.15-.24s0,0,0,0,0,.08,0,.08.11,0,.11-.06S40.58,14.4,40.58,14.4Zm-.47.28a0,0,0,0,1,0,0s.05.05,0,.06h0l0,0s-.09,0-.08,0a.07.07,0,0,1,0,0s0,0,0,0Zm.23-.06,0,.06s0,.07-.08.07,0,0,0-.05a.08.08,0,0,1,0,0Zm0-.09-.09.05s0,0,0,0,0,0,.06,0,0,0,.05,0S40.3,14.53,40.3,14.53Zm.19,0a.13.13,0,0,1,0-.14.23.23,0,0,1,.06-.06.43.43,0,0,0,0-.17.17.17,0,0,0-.12-.07s-.07,0-.08,0a.73.73,0,0,1-.13.1,1.94,1.94,0,0,1-.24.15s0,0-.07,0a.56.56,0,0,1,0,.08.09.09,0,0,0,0,.09.24.24,0,0,0,.09.13s.13.05.13,0,0,0,0-.06,0-.05,0-.09l-.08-.15a.52.52,0,0,1,.12.13.41.41,0,0,0,.1.1s0-.06,0-.08v0a1.18,1.18,0,0,0-.06-.13.32.32,0,0,1,0-.08.58.58,0,0,1,0,.09l.05.11,0,0,0-.24,0,0a1.05,1.05,0,0,0,0,.13.54.54,0,0,1,0,.11l.07,0s0,.06,0,.06,0-.1,0-.21,0-.13,0-.13h0l0,.11a.41.41,0,0,0,0,.19C40.45,14.58,40.49,14.57,40.49,14.57Zm-1,.75a.41.41,0,0,1,.19-.09l.19-.05a1.18,1.18,0,0,1-.18.08Zm.22-.26.12,0h.06a.16.16,0,0,1-.08,0Zm0-.09h.09l.05,0a.06.06,0,0,1-.05.06A.1.1,0,0,1,39.74,15Zm.25-.15a.14.14,0,0,0-.06.07s-.06.11,0,.12.17,0,.19,0,0,0,0,0,0,0,0,0H40l0,.06s-.08,0-.09.06a.06.06,0,0,0,0,.07s0,.05,0,.05l.06,0s0,0,0,.05l-.13.08a1.83,1.83,0,0,1-.33.11c-.06,0-.19.05-.19,0a.26.26,0,0,1,0-.13s0-.09.08-.11.11-.08.11-.13,0-.21,0-.24.06-.08.11-.07A2.36,2.36,0,0,0,40,14.82Zm-.77.48a1.24,1.24,0,0,0,.23-.12s0,0,0,0l-.09,0A.68.68,0,0,1,39.22,15.3Zm-.09,0a.48.48,0,0,1,.17-.13.69.69,0,0,1,.19,0l-.09.05-.17.07ZM39,15.14s.12-.05.19-.06a.34.34,0,0,1,.16,0l-.1,0a.38.38,0,0,1-.13,0ZM39.81,14h-.1l.07,0,0,0v0h-.17l.1,0,.07,0,0,0h0a.39.39,0,0,1-.13,0l.05,0a.27.27,0,0,0,.13,0s.05,0,.05,0l0-.05a.81.81,0,0,1,0-.22,1.69,1.69,0,0,0-.09-.34.44.44,0,0,0,0,.12.15.15,0,0,0,0,.06l-.07,0a.28.28,0,0,1,.08.08.21.21,0,0,1,0,.06h-.1l.07,0h0l-.06,0Zm-.44.49a.07.07,0,0,0,.05,0s-.08,0-.12,0l-.14.05-.11,0,.12-.07.09,0Zm-.83-.26h.24a.42.42,0,0,0,.16,0h.13a.33.33,0,0,1,.17,0l.15.1.07.06a.78.78,0,0,0-.19,0c-.09,0-.19.06-.25.07l-.15,0h-.08a.68.68,0,0,0,.2,0,.56.56,0,0,1,.17-.07l.08,0a.58.58,0,0,0-.16,0,1.74,1.74,0,0,1-.22.05h-.17l.22-.06a.51.51,0,0,1,.14,0h-.37a.17.17,0,0,1,.08,0h.07l-.18-.05ZM38.47,14a.94.94,0,0,1,.14.1l.12.09a.3.3,0,0,1-.13,0C38.55,14.18,38.47,14,38.47,14Zm3,0s.3,0,.37-.09.21-.34.37-.38a5,5,0,0,1,.84-.11.55.55,0,0,1,.44.2.93.93,0,0,1,.14.56.38.38,0,0,1-.41.18,7,7,0,0,1-.77-.18,1.26,1.26,0,0,0-.5.09,1.35,1.35,0,0,1-.22.11l-.12-.1.06-.09-.12-.1Zm.17-1.23s.12.05.12.11v.24s.06.08.06.08-.13,0-.14-.07a2.35,2.35,0,0,0,0-.28A.16.16,0,0,0,41.6,12.79Zm-1.72-.13a.28.28,0,0,0,.3.14c.2,0,.37-.08.47-.07a.35.35,0,0,1,.33.2.38.38,0,0,1,0,.3.36.36,0,0,0,.13.45.51.51,0,0,0,.73-.17c.17-.19.31-.14.48-.16a4.81,4.81,0,0,1,.93,0c.16.05.25.2.35.4a1.08,1.08,0,0,1,.14.43.56.56,0,0,1-.07.21s.17-.09.17-.22a2.16,2.16,0,0,0-.41-.9,1.61,1.61,0,0,0-.68-.11,5.48,5.48,0,0,0-.87.1c-.19.06-.42.2-.45.08s0-.29,0-.37-.28-.21-.28-.21.16.12.16.23-.06.3,0,.4a.17.17,0,0,0,.19,0l.24-.06s-.15.24-.27.26-.37,0-.43-.16,0-.28,0-.4a.47.47,0,0,0-.2-.39.54.54,0,0,0-.34,0c-.16,0-.26.09-.38.11A1,1,0,0,1,39.88,12.66Zm13,1.85.09,0-.27,1v.08l-.05,0,0-.07-.27,0,0,0s0,0,0-.06l.6-1.09Zm2.28,2.54a3.4,3.4,0,0,0,1.33-2.92,3.23,3.23,0,0,0-1.16-2.52,3.61,3.61,0,0,0-.3-.25s0,.09-.08.07A3.14,3.14,0,0,0,53.18,11a3.66,3.66,0,0,0-1.68.51s-.1-.11-.15-.07a4,4,0,0,0-1.29,2.34c-.11,1.18,0,1,0,1l1-.26A3.3,3.3,0,0,1,51.42,13a2.36,2.36,0,0,1,1.83-1,2.11,2.11,0,0,1,2.09,1.62,2.26,2.26,0,0,1-.46,2.17,8.84,8.84,0,0,1-1,.73l.7.72L54,16.45l.07-.06.68.8-.57-.81.71.75-.62-.79.74.71-.62-.77.76.73ZM52.9,10a.43.43,0,0,1,.25-.06l.32,0s0,.06,0,.06l-.13,0s0,.15,0,.16-.05-.16-.05-.16h-.07s0,.18,0,.18-.06-.19-.06-.19L53,10l-.05,0v0Zm0-.12a1.76,1.76,0,0,1,.37-.05.84.84,0,0,1,.36.05.38.38,0,0,0-.38-.33c-.39,0-.36.33-.36.33Zm-7.25,1.69s.4.35.44.58,0,.43-.16.49-.1,0,0,0a.44.44,0,0,0,.08-.48.91.91,0,0,0-.34-.45l0-.11ZM47.47,11a1.42,1.42,0,0,0-.41.16,3.62,3.62,0,0,0,.44,0c.14,0,.29-.08.35-.09h.06Z" style="fill:#fff;fill-rule:evenodd"/><path d="M18.18,17.41H13.89v-.1l1.2-.51V10.45h0a3,3,0,0,0-.68.07,1.49,1.49,0,0,0-.57.3c-.25.21-1.52,1.4-1.52,1.4l-.14-.05.19-2.06h7.2l.24,2.06-.14.05s-1.27-1.19-1.51-1.4a1.59,1.59,0,0,0-.58-.3,2.5,2.5,0,0,0-.61-.07h0V16.8l1.22.51Z" style="fill:#fff;fill-rule:evenodd"/><path d="M73.64,17.41H69.36v-.1l1.19-.51V10.45h0a3,3,0,0,0-.68.07,1.49,1.49,0,0,0-.57.3c-.25.21-1.52,1.4-1.52,1.4l-.13-.05.18-2.06H75l.24,2.06-.13.05s-1.28-1.19-1.52-1.4a1.52,1.52,0,0,0-.58-.3,2.41,2.41,0,0,0-.6-.07h0V16.8l1.21.51Z" style="fill:#fff;fill-rule:evenodd"/><polygon points="28.44 10.72 29.42 10.21 29.42 10.11 25.6 10.11 25.6 10.21 26.59 10.71 26.59 13.43 22.92 13.46 22.92 10.72 23.9 10.21 23.9 10.11 20.09 10.11 20.09 10.21 21.07 10.72 21.07 16.81 20.09 17.32 20.09 17.41 23.9 17.41 23.9 17.3 22.92 16.8 22.92 13.86 26.59 13.89 26.59 16.81 25.6 17.32 25.6 17.41 29.42 17.41 29.42 17.3 28.44 16.8 28.44 10.72" style="fill:#fff;fill-rule:evenodd"/><polygon points="76.53 16.81 75.54 17.31 75.54 17.41 79.36 17.41 79.36 17.3 78.38 16.8 78.38 10.72 79.36 10.21 79.36 10.11 75.54 10.11 75.54 10.2 76.53 10.71 76.53 16.81" style="fill:#fff;fill-rule:evenodd"/><path d="M36.61,17.41H29.77v-.1l1-.5V10.72l-1-.51v-.1h6.61l.14,1.9-.12,0s-1.06-1-1.3-1.2a1.52,1.52,0,0,0-.58-.3,3.25,3.25,0,0,0-.68-.08l-1.2,0v3.09l1.41,0c.19,0,.27,0,.53-.31s.56-.63.56-.63h.14V15h-.14s-.67-.88-.72-.91a.67.67,0,0,0-.51-.16l-1.27,0v3.15s.72,0,1.3,0a2,2,0,0,0,1.28-.34c.39-.3,1.39-1.36,1.39-1.36l.15,0Z" style="fill:#fff;fill-rule:evenodd"/><path d="M97.77,15.37l-.15,0s-1,1.06-1.38,1.36A2,2,0,0,1,95,17c-.59.05-1.31,0-1.31,0V13.91l1.28,0a.69.69,0,0,1,.51.16s.72.91.72.91h.14V12.56h-.14s-.35.41-.56.63-.34.28-.54.31l-1.41,0V10.44l1.21,0a3.31,3.31,0,0,1,.68.08,1.49,1.49,0,0,1,.57.3c.25.21,1.3,1.2,1.3,1.2l.13,0-.15-1.9H90.8v.1l1,.51v6.09l-1,.5v.1h6.83" style="fill:#fff;fill-rule:evenodd"/><polygon points="85.32 15.11 87.77 10.11 90.45 10.11 90.45 10.21 89.47 10.72 89.47 16.8 90.45 17.3 90.45 17.41 86.64 17.41 86.64 17.31 87.63 16.81 87.63 11.61 84.74 17.31 84.38 17.31 81.31 11.49 81.31 16.8 82.28 17.3 82.29 17.41 79.72 17.41 79.72 17.31 80.71 16.81 80.71 10.71 79.72 10.2 79.72 10.11 82.63 10.11 85.32 15.11" style="fill:#fff;fill-rule:evenodd"/><path d="M103.21,10.21l.15,1.8-.13,0s-1.38-1.37-1.54-1.48a1.31,1.31,0,0,0-1.42,0,.85.85,0,0,0-.24,1.19,5.2,5.2,0,0,0,2,1.5c.33.18,2,.9,1.77,2.38a2.43,2.43,0,0,1-2.14,1.9,9.53,9.53,0,0,1-3.09-.26l-.14-1.9h.16A9.87,9.87,0,0,0,100.54,17a1.6,1.6,0,0,0,1.73-.27,1.07,1.07,0,0,0-.37-1.52c-.62-.38-1.52-.82-2.15-1.2a2.44,2.44,0,0,1-1.25-1.74,2,2,0,0,1,1.33-2.09,4.56,4.56,0,0,1,1.94-.19C102.35,10,103.21,10.21,103.21,10.21Z" style="fill:#fff;fill-rule:evenodd"/><path d="M17.93,21.84a1.73,1.73,0,0,0-1.73-1.55h0v3.09c0,2.73,0,2.85.18,3a1,1,0,0,0,.66.18v.18h-3.6v-.18a1,1,0,0,0,.66-.18c.15-.15.17-.27.17-3V20.29h0a1.74,1.74,0,0,0-1.73,1.55h-.21V20h5.87v1.86Z" style="fill:#fff"/><path d="M22.42,26.74v-.18a.7.7,0,0,0,.51-.16c.18-.16.2-.31.2-2.88H21.07c0,2.57,0,2.72.19,2.88a.71.71,0,0,0,.52.16v.18H18.43v-.18A.71.71,0,0,0,19,26.4c.18-.16.19-.32.19-3s0-2.88-.19-3a.71.71,0,0,0-.52-.16V20h3.35v.18a.71.71,0,0,0-.52.16c-.16.15-.19.29-.19,2.76h2.06c0-2.47,0-2.61-.2-2.76a.7.7,0,0,0-.51-.16V20h3.34v.18a.7.7,0,0,0-.51.16c-.18.16-.2.31-.2,3s0,2.88.2,3a.7.7,0,0,0,.51.16v.18Z" style="fill:#fff"/><path d="M31.57,26.74H26.15v-.18a.71.71,0,0,0,.52-.16c.18-.16.2-.32.2-3s0-2.88-.2-3a.71.71,0,0,0-.52-.16V20h5.32l0,1.86h-.21c-.22-.91-.66-1.51-1.69-1.51h-.81v2.75h.38c.87,0,1.3-.2,1.41-.95h.21v2.41h-.21c-.11-.74-.54-1-1.41-1h-.38s0,1.45,0,1.7c0,.81.16,1.16,1,1.16s1.41-.57,1.65-1.55h.21Z" style="fill:#fff"/><path d="M36.23,26.83a14.66,14.66,0,0,1-1.65-.23.87.87,0,0,0-.44.14H34V24.83h.21a1.78,1.78,0,0,0,1.93,1.65c.93,0,1.23-.53,1.23-1,0-1.57-3.4-1.42-3.4-3.53a2.06,2.06,0,0,1,2.36-2.06,15.1,15.1,0,0,1,1.5.2.5.5,0,0,0,.38-.11h.16v1.86h-.2a1.93,1.93,0,0,0-1.85-1.6c-.75,0-1.08.39-1.08.81,0,1.39,3.62,1.3,3.62,3.67C38.82,25.94,37.74,26.83,36.23,26.83Z" style="fill:#fff"/><path d="M45.06,21.18v2.88c0,1.64-.65,2.77-2.69,2.77s-2.74-1-2.74-2.1V22.3c0-1.37-.08-1.87-.2-2a.7.7,0,0,0-.51-.16V20h3.34v.18a.71.71,0,0,0-.52.16c-.13.12-.19.6-.19,2V25a1.18,1.18,0,0,0,1.35,1.28c1,0,1.6-.72,1.6-2.19V21.18c0-.72-.08-.93-.78-1V20h2.12v.18C45.14,20.25,45.06,20.46,45.06,21.18Z" style="fill:#fff"/><path d="M52.22,21.18v5.56h-1l-3.83-4.81v3.61c0,.72.07.93.78,1v.18H46v-.18c.7-.09.78-.3.78-1V23.36c0-2.73,0-2.88-.19-3a.71.71,0,0,0-.52-.16V20h2.45l3.14,4v-2.8c0-.72-.08-.93-.78-1V20H53v.18C52.3,20.25,52.22,20.46,52.22,21.18Z" style="fill:#fff"/><path d="M56.87,26.74H53.39v-.18a.68.68,0,0,0,.51-.16c.18-.16.2-.32.2-3s0-2.88-.2-3a.68.68,0,0,0-.51-.16V20H56.7c2.32,0,3.59,1.24,3.59,3.39C60.29,25.27,59.55,26.74,56.87,26.74Zm-.41-6.41H56v5c0,.68.13,1.08,1,1.08s1.29-1.14,1.29-3C58.29,21.67,57.85,20.33,56.46,20.33Z" style="fill:#fff"/><path d="M63.39,26.74v-.18c.6-.06.91-.18.91-.5a7.61,7.61,0,0,0-.5-1.49H61.89A8.54,8.54,0,0,0,61.46,26c0,.36.24.57.69.57v.19h-2.4v-.18c.74-.14.88-.25,1.27-1.32L62.94,20h1.3l2.13,5.62c.24.64.39.91.92,1v.18Zm-.57-4.8-.77,2.19h1.59Z" style="fill:#fff"/><path d="M71.72,21.27l-1.28,2.46c0,2.37,0,2.52.2,2.67s.22.15.64.16v.18h-3.6v-.18c.42,0,.55-.08.64-.16s.2-.3.2-2.67l-1.34-2.35c-.65-1.14-.69-1.16-1.27-1.22V20h3.52v.18c-.44,0-.62.12-.62.36s0,.24.36.79l1,1.82.84-1.6a3,3,0,0,0,.42-1c0-.19-.13-.35-.56-.37V20h2v.18C72.3,20.24,72.22,20.33,71.72,21.27Z" style="fill:#fff"/><path d="M80.05,21.84a1.73,1.73,0,0,0-1.73-1.55h0v3.09c0,2.73,0,2.85.18,3a1,1,0,0,0,.66.18v.18h-3.6v-.18a1,1,0,0,0,.66-.18c.16-.15.18-.27.18-3V20.29h0a1.75,1.75,0,0,0-1.74,1.55h-.21V20h5.87v1.86Z" style="fill:#fff"/><path d="M80.56,26.74v-.18a.7.7,0,0,0,.51-.16c.18-.16.2-.32.2-3s0-2.88-.2-3a.7.7,0,0,0-.51-.16V20H83.9v.18a.68.68,0,0,0-.51.16c-.18.16-.2.31-.2,3s0,2.88.2,3a.68.68,0,0,0,.51.16v.18Z" style="fill:#fff"/><path d="M89.36,26.74v-.18a.7.7,0,0,0,.51-.16c.18-.16.2-.32.2-3V21.54l-2,5.21H87.5l-2-5.21v4c0,.72.08.93.78,1v.18h-2v-.18c.61-.08.71-.3.71-1V23.36c0-2.73,0-2.88-.21-3a.65.65,0,0,0-.5-.16V20h2.77l1.52,4.11L90.15,20H92.7v.18a.7.7,0,0,0-.51.16c-.18.16-.2.31-.2,3s0,2.88.2,3a.7.7,0,0,0,.51.16v.18Z" style="fill:#fff"/><path d="M98.51,26.74H93.09v-.18a.71.71,0,0,0,.52-.16c.18-.16.19-.32.19-3s0-2.88-.19-3a.71.71,0,0,0-.52-.16V20h5.32l0,1.86h-.21c-.22-.91-.66-1.51-1.69-1.51h-.81v2.75h.38c.87,0,1.29-.2,1.41-.95h.21v2.41h-.21c-.12-.74-.54-1-1.41-1h-.38s0,1.45,0,1.7c0,.81.15,1.16,1,1.16s1.41-.57,1.65-1.55h.21Z" style="fill:#fff"/><path d="M101.33,26.83a14.93,14.93,0,0,1-1.66-.23.81.81,0,0,0-.43.14h-.18l.12-1.91h.2a1.67,1.67,0,0,0,1.82,1.65c.93,0,1.22-.53,1.22-1,0-1.57-3.4-1.42-3.4-3.53,0-1.05.68-2.06,2.37-2.06.62,0,1.24.2,1.5.2a.48.48,0,0,0,.37-.11h.17v1.86h-.21a1.93,1.93,0,0,0-1.84-1.6c-.75,0-1.09.39-1.09.81,0,1.39,3.62,1.3,3.62,3.67C103.91,25.94,102.84,26.83,101.33,26.83Z" style="fill:#fff"/></g></g></svg>