<svg id="Layer_1" data-name="Layer 1" xmlns="http://www.w3.org/2000/svg" viewBox="0 0 106.59 139.97"><title>sport-accolade-times-gug</title><rect x="1.13" y="1.13" width="104.32" height="137.7" rx="9.81" style="fill:#fdb913"/><path d="M96.25,3.75a8.69,8.69,0,0,1,8.67,8.67V130.51a8.69,8.69,0,0,1-8.67,8.67H11.55a8.69,8.69,0,0,1-8.67-8.67V12.42a8.69,8.69,0,0,1,8.67-8.67h84.7m0-2.27H11.55A11,11,0,0,0,.61,12.42V130.51a11,11,0,0,0,10.94,10.94h84.7a11,11,0,0,0,10.94-10.94V12.42A11,11,0,0,0,96.25,1.48Z" transform="translate(-0.61 -1.48)" style="fill:#fff"/><path d="M7.6,42.58a4.8,4.8,0,0,1,4.9-5c2.79,0,4.42,1.52,4.64,3.95l-2.26.08a2.13,2.13,0,0,0-2.34-2c-1.6,0-2.56,1.16-2.56,2.95s1,3,2.75,3A2.32,2.32,0,0,0,15,44.13H12.71V42.45H17.2v4.93h-2v-1.2a3.1,3.1,0,0,1-2.9,1.39A4.66,4.66,0,0,1,7.6,42.58Z" transform="translate(-0.61 -1.48)" style="fill:#231f20"/><path d="M22.89,47.57a5,5,0,0,1,0-10,5,5,0,0,1,0,10Zm0-8c-1.56,0-2.55,1.17-2.55,3s1,3,2.55,3,2.56-1.18,2.56-3S24.46,39.62,22.89,39.62Z" transform="translate(-0.61 -1.48)" style="fill:#231f20"/><path d="M33.25,47.57a5,5,0,1,1,4.94-5A4.79,4.79,0,0,1,33.25,47.57Zm0-8c-1.56,0-2.55,1.17-2.55,3s1,3,2.55,3,2.56-1.18,2.56-3S34.82,39.62,33.25,39.62Z" transform="translate(-0.61 -1.48)" style="fill:#231f20"/><path d="M39,37.77h3.73c3.15,0,5.11,1.8,5.11,4.81s-2,4.8-5.11,4.8H39Zm3.57,7.78a2.67,2.67,0,0,0,2.87-3,2.67,2.67,0,0,0-2.87-3H41.36v5.95Z" transform="translate(-0.61 -1.48)" style="fill:#231f20"/><path d="M8,56.82V51h2.3v5.49c0,1.54.55,2.35,2,2.35s2-.81,2-2.33V51h2.3v5.83c0,2.8-1.86,4-4.27,4S8,59.62,8,56.82Z" transform="translate(-0.61 -1.48)" style="fill:#231f20"/><path d="M23.68,56.76V51H25.8V60.6H24L19.5,54.47V60.6H17.36V51h2.23Z" transform="translate(-0.61 -1.48)" style="fill:#231f20"/><path d="M29.1,51V60.6H26.78V51Z" transform="translate(-0.61 -1.48)" style="fill:#231f20"/><path d="M33.06,60.6,29.34,51h2.41l2.58,6.76h.06L36.94,51h2.3L35.52,60.6Z" transform="translate(-0.61 -1.48)" style="fill:#231f20"/><path d="M46.9,60.6H39.48V51h7.28V52.9h-5v1.89h3.89v1.87H41.76v2H46.9Z" transform="translate(-0.61 -1.48)" style="fill:#231f20"/><path d="M53.69,60.6a4.31,4.31,0,0,1-.4-1.91c-.07-1.08-.56-1.43-1.52-1.43H49.83V60.6H47.55V51h4.64c2.49,0,3.71,1.16,3.71,3a2.33,2.33,0,0,1-2.07,2.46,1.94,1.94,0,0,1,1.71,1.92c.13,1.42.18,1.88.5,2.23Zm-1.86-5.13c1.2,0,1.8-.35,1.8-1.29s-.6-1.33-1.8-1.33h-2v2.62Z" transform="translate(-0.61 -1.48)" style="fill:#231f20"/><path d="M57.91,57.11A2,2,0,0,0,60.19,59c1,0,1.66-.4,1.66-1s-.56-.79-1.4-1l-1.81-.32c-1.52-.29-2.6-1.15-2.6-2.78,0-1.89,1.48-3.07,3.81-3.07,2.61,0,4,1.3,4.08,3.44l-2.14.06a1.72,1.72,0,0,0-1.95-1.68c-1,0-1.53.4-1.53,1.05s.43.75,1.13.89l1.8.32c2,.35,2.87,1.33,2.87,2.9,0,2-1.73,3-3.92,3-2.57,0-4.4-1.26-4.4-3.6Z" transform="translate(-0.61 -1.48)" style="fill:#231f20"/><path d="M67.4,51V60.6H65.08V51Z" transform="translate(-0.61 -1.48)" style="fill:#231f20"/><path d="M71.31,60.6V52.9H68V51h9V52.9H73.61v7.7Z" transform="translate(-0.61 -1.48)" style="fill:#231f20"/><path d="M84.11,51h2.48l-3.7,5.93V60.6H80.64V56.92L77,51h2.56l2.35,3.71Z" transform="translate(-0.61 -1.48)" style="fill:#231f20"/><path d="M7.6,69a4.8,4.8,0,0,1,4.9-5c2.79,0,4.42,1.53,4.64,4l-2.26.08a2.12,2.12,0,0,0-2.34-2C10.94,66.07,10,67.23,10,69s1,3,2.75,3A2.33,2.33,0,0,0,15,70.57H12.71V68.89H17.2v4.93h-2V72.61A3.1,3.1,0,0,1,12.27,74,4.65,4.65,0,0,1,7.6,69Z" transform="translate(-0.61 -1.48)" style="fill:#231f20"/><path d="M18,70V64.21h2.31V69.7c0,1.54.55,2.35,2,2.35s2-.81,2-2.34v-5.5h2.3V70c0,2.81-1.86,4-4.27,4S18,72.84,18,70Z" transform="translate(-0.61 -1.48)" style="fill:#231f20"/><path d="M29.74,64.21v9.61H27.42V64.21Z" transform="translate(-0.61 -1.48)" style="fill:#231f20"/><path d="M30.71,64.21h3.73c3.15,0,5.11,1.8,5.11,4.8s-2,4.81-5.11,4.81H30.71ZM34.28,72a3,3,0,0,0,0-5.95H33V72Z" transform="translate(-0.61 -1.48)" style="fill:#231f20"/><path d="M47.49,73.82H40.08V64.21h7.28v1.9h-5V68h3.89v1.88H42.35v2h5.14Z" transform="translate(-0.61 -1.48)" style="fill:#231f20"/><path d="M15,85.11V87H7.63V85.42l2.66-2.15c1.48-1.21,2.1-1.82,2.1-2.83a1.12,1.12,0,0,0-1.22-1.25c-.92,0-1.31.66-1.31,1.57a2.46,2.46,0,0,0,.11.81l-2.26-.06a4.77,4.77,0,0,1-.13-.9c0-2,1.48-3.37,3.67-3.37s3.57,1.31,3.57,3.07-1,2.57-2.51,3.75l-1.32,1Z" transform="translate(-0.61 -1.48)" style="fill:#fff"/><path d="M19.53,87.22c-2.61,0-4.27-1.8-4.27-5s1.66-5,4.27-5,4.27,1.8,4.27,5S22.14,87.22,19.53,87.22Zm0-8.12c-1.3,0-1.83,1-1.83,3.13s.53,3.13,1.83,3.13,1.83-1,1.83-3.13S20.83,79.1,19.53,79.1Z" transform="translate(-0.61 -1.48)" style="fill:#fff"/><path d="M31.81,85.11V87H24.46V85.42l2.65-2.15c1.48-1.21,2.11-1.82,2.11-2.83A1.12,1.12,0,0,0,28,79.19c-.92,0-1.31.66-1.31,1.57a2.82,2.82,0,0,0,.1.81l-2.26-.06a4.74,4.74,0,0,1-.12-.9,3.33,3.33,0,0,1,3.66-3.37c2.31,0,3.57,1.31,3.57,3.07s-1,2.57-2.5,3.75l-1.33,1Z" transform="translate(-0.61 -1.48)" style="fill:#fff"/><path d="M36.05,87.22c-2.61,0-4.27-1.8-4.27-5s1.66-5,4.27-5,4.27,1.8,4.27,5S38.66,87.22,36.05,87.22Zm0-8.12c-1.29,0-1.83,1-1.83,3.13s.54,3.13,1.83,3.13,1.83-1,1.83-3.13S37.35,79.1,36.05,79.1Z" transform="translate(-0.61 -1.48)" style="fill:#fff"/><line x1="6.56" y1="92.42" x2="99.03" y2="92.42" style="fill:#fff;stroke:#fff;stroke-width:1.5px"/><path d="M9.18,104.9a1.69,1.69,0,0,0,1.93,1.58c.88,0,1.42-.34,1.42-.88s-.48-.68-1.19-.82l-1.54-.27a2.36,2.36,0,0,1-2.22-2.37c0-1.61,1.26-2.61,3.25-2.61,2.22,0,3.43,1.1,3.47,2.92l-1.82,0a1.47,1.47,0,0,0-1.66-1.43c-.84,0-1.3.34-1.3.9s.36.64,1,.76L12,103c1.68.3,2.45,1.13,2.45,2.47,0,1.69-1.47,2.56-3.35,2.56C8.93,108,7.37,107,7.37,105Z" transform="translate(-0.61 -1.48)" style="fill:#231f20"/><path d="M17.22,107.87h-2V99.68h3.46c2.12,0,3.35,1,3.35,2.76s-1.23,2.77-3.35,2.77h-1.5Zm1.42-4.25c1.08,0,1.52-.4,1.52-1.17s-.44-1.18-1.52-1.18H17.22v2.35Z" transform="translate(-0.61 -1.48)" style="fill:#231f20"/><path d="M26.49,108a4.25,4.25,0,1,1,4.22-4.25A4.08,4.08,0,0,1,26.49,108Zm0-6.77c-1.32,0-2.17,1-2.17,2.52s.85,2.52,2.17,2.52a2.54,2.54,0,0,0,0-5Z" transform="translate(-0.61 -1.48)" style="fill:#231f20"/><path d="M36.63,107.87a3.69,3.69,0,0,1-.34-1.62c-.06-.92-.48-1.22-1.3-1.22H33.34v2.84H31.41V99.68h3.95c2.12,0,3.16,1,3.16,2.56a2,2,0,0,1-1.77,2.1A1.66,1.66,0,0,1,38.21,106c.11,1.2.15,1.59.42,1.89Zm-1.58-4.36c1,0,1.53-.3,1.53-1.11s-.51-1.13-1.53-1.13H33.34v2.24Z" transform="translate(-0.61 -1.48)" style="fill:#231f20"/><path d="M41.65,107.87v-6.56H38.8V99.68h7.7v1.63H43.61v6.56Z" transform="translate(-0.61 -1.48)" style="fill:#231f20"/><path d="M48.29,104.9a1.7,1.7,0,0,0,1.94,1.58c.87,0,1.42-.34,1.42-.88s-.48-.68-1.2-.82l-1.53-.27a2.36,2.36,0,0,1-2.22-2.37c0-1.61,1.26-2.61,3.25-2.61,2.22,0,3.43,1.1,3.47,2.92l-1.82,0a1.48,1.48,0,0,0-1.67-1.43c-.83,0-1.3.34-1.3.9s.37.64,1,.76l1.54.27c1.68.3,2.44,1.13,2.44,2.47,0,1.69-1.47,2.56-3.34,2.56-2.18,0-3.74-1.08-3.74-3.07Z" transform="translate(-0.61 -1.48)" style="fill:#231f20"/><path d="M7.71,115.65v-5h2v4.68c0,1.32.47,2,1.67,2s1.67-.69,1.67-2v-4.7h2v5C15,118,13.39,119,11.34,119S7.71,118,7.71,115.65Z" transform="translate(-0.61 -1.48)" style="fill:#231f20"/><path d="M21.35,115.6v-4.92h1.8v8.19H21.58l-3.8-5.22v5.22H16v-8.19h1.9Z" transform="translate(-0.61 -1.48)" style="fill:#231f20"/><path d="M26.19,110.68v8.19h-2v-8.19Z" transform="translate(-0.61 -1.48)" style="fill:#231f20"/><path d="M29.81,118.87l-3.17-8.19h2.05l2.2,5.76h.05l2.17-5.76h2l-3.17,8.19Z" transform="translate(-0.61 -1.48)" style="fill:#231f20"/><path d="M41.83,118.87H35.51v-8.19h6.21v1.63H37.45v1.61h3.32v1.6H37.45v1.73h4.38Z" transform="translate(-0.61 -1.48)" style="fill:#231f20"/><path d="M47.85,118.87a3.69,3.69,0,0,1-.34-1.62c-.06-.92-.48-1.22-1.3-1.22H44.56v2.84H42.63v-8.19h3.95c2.12,0,3.16,1,3.16,2.56a2,2,0,0,1-1.77,2.1A1.64,1.64,0,0,1,49.42,117c.12,1.2.16,1.59.43,1.89Zm-1.58-4.36c1,0,1.53-.3,1.53-1.11s-.51-1.13-1.53-1.13H44.56v2.24Z" transform="translate(-0.61 -1.48)" style="fill:#231f20"/><path d="M52,115.9a1.69,1.69,0,0,0,1.93,1.58c.87,0,1.42-.34,1.42-.88s-.48-.68-1.19-.82l-1.54-.27a2.36,2.36,0,0,1-2.22-2.37c0-1.61,1.26-2.61,3.25-2.61,2.22,0,3.43,1.1,3.47,2.92l-1.82,0a1.47,1.47,0,0,0-1.66-1.43c-.84,0-1.3.34-1.3.9s.36.64,1,.76l1.53.27c1.68.3,2.45,1.13,2.45,2.47,0,1.69-1.47,2.56-3.35,2.56-2.18,0-3.74-1.08-3.74-3.07Z" transform="translate(-0.61 -1.48)" style="fill:#231f20"/><path d="M60,110.68v8.19H58v-8.19Z" transform="translate(-0.61 -1.48)" style="fill:#231f20"/><path d="M63.57,118.87v-6.56H60.72v-1.63h7.7v1.63H65.53v6.56Z" transform="translate(-0.61 -1.48)" style="fill:#231f20"/><path d="M74.61,110.68h2.11l-3.15,5.06v3.13H71.66v-3.13l-3.15-5.06h2.18l2,3.16Z" transform="translate(-0.61 -1.48)" style="fill:#231f20"/><path d="M11.61,130a4.25,4.25,0,0,1,0-8.5,4.25,4.25,0,0,1,0,8.5Zm0-6.77c-1.33,0-2.17,1-2.17,2.52s.84,2.52,2.17,2.52,2.18-1,2.18-2.52S13,123.26,11.61,123.26Z" transform="translate(-0.61 -1.48)" style="fill:#231f20"/><path d="M16.52,129.87v-8.19h6.06v1.63H18.49v1.82h3.1v1.61h-3.1v3.13Z" transform="translate(-0.61 -1.48)" style="fill:#231f20"/><path d="M27.88,129.87v-6.56H25v-1.63h7.69v1.63H29.85v6.56Z" transform="translate(-0.61 -1.48)" style="fill:#231f20"/><path d="M33.45,129.87v-8.19h2v3.24H39v-3.24h2v8.19H39v-3.35H35.42v3.35Z" transform="translate(-0.61 -1.48)" style="fill:#231f20"/><path d="M48.36,129.87H42v-8.19h6.2v1.63H44v1.61h3.31v1.6H44v1.73h4.38Z" transform="translate(-0.61 -1.48)" style="fill:#231f20"/><path d="M56.7,121.68h2.12l-3.15,5.06v3.13H53.75v-3.13l-3.14-5.06h2.18l2,3.16Z" transform="translate(-0.61 -1.48)" style="fill:#231f20"/><path d="M65.58,129.87H59.27v-8.19h6.2v1.63H61.2v1.61h3.32v1.6H61.2v1.73h4.38Z" transform="translate(-0.61 -1.48)" style="fill:#231f20"/><path d="M71.23,121.68l3.3,8.19H72.42l-.7-1.76h-3.3l-.69,1.76h-2L69,121.68ZM69,126.62h2.16l-1.06-2.69h0Z" transform="translate(-0.61 -1.48)" style="fill:#231f20"/><path d="M80.18,129.87a3.69,3.69,0,0,1-.34-1.62c-.06-.92-.48-1.22-1.3-1.22H76.89v2.84H75v-8.19h4c2.12,0,3.16,1,3.16,2.56a2,2,0,0,1-1.77,2.1A1.65,1.65,0,0,1,81.76,128c.11,1.2.15,1.59.43,1.89Zm-1.58-4.36c1,0,1.53-.3,1.53-1.11s-.51-1.13-1.53-1.13H76.89v2.24Z" transform="translate(-0.61 -1.48)" style="fill:#231f20"/><path d="M53.84,17.3a3.19,3.19,0,0,0,.07-.47c0-.1,0-.42,0-.42l.24,0a1.25,1.25,0,0,1,.14.24,2.33,2.33,0,0,0,.13.21l.35-.33h.18a.61.61,0,0,1,0-.14.66.66,0,0,0,0-.11s-.19,0-.23-.14l-.06-.23a.76.76,0,0,0-.12-.1c-.05,0-.13,0-.16,0a.75.75,0,0,1-.17,0s0,.11-.15.14a.37.37,0,0,1-.28-.05,1.8,1.8,0,0,0-.22.3,1,1,0,0,0,0,.18.46.46,0,0,1-.3.2,1.77,1.77,0,0,1-.39,0,.1.1,0,0,0-.11.1c0,.09.06.1,0,.13a1.32,1.32,0,0,1-.23.07.44.44,0,0,0,0-.22c0-.07-.1-.35.05-.42s.4-.12.41-.25a.45.45,0,0,0-.14-.34.15.15,0,0,1,0-.23c.07,0-.11,0-.11-.15S52.91,15,53,15s.24,0,.27,0,.14-.23.29-.23a.45.45,0,0,1,.3.08c.14.1.23,0,.35,0s-.06-.11-.1-.19a.63.63,0,0,1,0-.21,1.14,1.14,0,0,0,.3.13c.18.05.23,0,.13-.08s-.15-.09-.16-.15.06,0,.17,0,.28,0,.28,0,0-.07-.09-.09a.4.4,0,0,1-.19-.11.14.14,0,0,1-.06-.1s0,0-.14-.06a.31.31,0,0,1-.14-.17.32.32,0,0,1-.13,0c-.1,0-.14-.14-.2-.16s-.08,0-.15-.1,0-.1,0-.11-.16,0-.18-.07-.1-.2-.1-.2a.13.13,0,0,1-.12,0,.5.5,0,0,1-.17-.26c0-.07.11,0,.17,0a.29.29,0,0,1,.09.1s.1,0,.14,0l.09.07a.34.34,0,0,1,.12,0,.22.22,0,0,1,.08.11s.12,0,.15,0l.14.15a.35.35,0,0,1,.14,0,.61.61,0,0,1,.16.14.7.7,0,0,1,.25.1c.06.06.11.18.13.17a.33.33,0,0,1,.23.05,1.82,1.82,0,0,1,.13.16l.1,0a.56.56,0,0,0,.11-.15l.13-.29.2.05a.26.26,0,0,0-.06.2,1.13,1.13,0,0,1,.06.31c0,.09-.08.13,0,.22a1.13,1.13,0,0,0,.18.19,1,1,0,0,1,0-.33,3.87,3.87,0,0,1,.37-.49l.22,0a.68.68,0,0,0,0,.36c0,.12.16.3.21.39a.84.84,0,0,1,.06.18,1.31,1.31,0,0,1,.59-.18c.2,0,.37.13.41.07s-.08-.21,0-.25.46-.15.46-.15l.12.14s-.28.07-.27.13.12.25.06.35a.35.35,0,0,1-.3.16c-.14,0-.24,0-.28,0a.76.76,0,0,1-.21.06,3.62,3.62,0,0,1,.44,0c.14,0,.34,0,.37-.11s.15-.25.24-.25a2.31,2.31,0,0,1,.28,0l.05.1a.9.9,0,0,0-.38.07c-.08.08-.2.31-.29.34s-.41,0-.54,0a3.75,3.75,0,0,0-.47.11s.72-.1.82-.06a.48.48,0,0,0,.45-.06,1.27,1.27,0,0,1,.47-.15h.11v.11a1.33,1.33,0,0,0-.52.2.32.32,0,0,1-.32.12,5.3,5.3,0,0,0-.8,0l-.12,0-.28-.32s.51-.38.66-.36.34,0,.38-.07,0-.25.07-.34-.05.1-.07.16,0,.16-.13.18-.34,0-.45,0l-.54.27-.08-.05s.53-.27.55-.3-.06-.06-.1,0-.37.16-.37.16-.14.25-.19.26a3.61,3.61,0,0,1,.62,1A2.08,2.08,0,0,1,57,17.58l.08.12,0,.08L56.9,18l.43-.09.13.09s.33-.07.52-.13.26-.11.31-.1l.23.1a3.1,3.1,0,0,1,.48.22.14.14,0,0,1,0,.1l.31.12A2.59,2.59,0,0,0,59.3,18c0-.07-.08-.33-.08-.33l.12,0a1.2,1.2,0,0,1,.21.14,1.84,1.84,0,0,0,.18.15,1.47,1.47,0,0,0,.09-.33c0-.12,0-.36,0-.36l.15,0,.13.21.08.2s.24-.19.31-.23a1.67,1.67,0,0,1,.31-.12h.1l-.16.16a2,2,0,0,0-.21.43l.1-.09h.07l0,.13.11-.09.07,0-.05.14.11-.11L61,18l-.06.1.13-.07.06,0-.05.09s.13,0,.12-.09-.11-.47-.11-.47l.06-.05.12.16a.69.69,0,0,0,.11.12.5.5,0,0,0,.13-.25,2.57,2.57,0,0,1,.06-.27h.09a1.2,1.2,0,0,1,.06.23c0,.06,0,.19,0,.19l.22-.28a.86.86,0,0,1,.21-.18l.07,0-.1.4a2.2,2.2,0,0,0,0,.3,3,3,0,0,1,.39-.08l.38,0,.08.06a1.1,1.1,0,0,0-.35.13l-.22.22a1.43,1.43,0,0,1,.35,0l.18,0v.07a3.36,3.36,0,0,0-.37.16.32.32,0,0,0-.14.1.83.83,0,0,1,.24.16,1.56,1.56,0,0,0,.18.15l-.06.06-.5-.07a6,6,0,0,0-.74.08l.31,0-.25.11.39-.06,0,.06a2.29,2.29,0,0,0-.17.23.68.68,0,0,0-.06.15l.52-.34h.07a.69.69,0,0,0,0,.18,1.19,1.19,0,0,1-.09.27l.39-.1.28-.1v.09a.47.47,0,0,1-.12.16l-.17.11.43,0a1.76,1.76,0,0,1,.28,0l-.12.49-.55.28-.52.25s.41.09.53.13l.7.23-.35.43a21,21,0,0,1-4.53.23,37.47,37.47,0,0,1-5.58-1.18,2.18,2.18,0,0,0-1.2.37c-.19.21-.16.25,0,.19a2.51,2.51,0,0,1,1.16-.43,5.16,5.16,0,0,1,1.14.28l-.18.23-.8-.2a1.84,1.84,0,0,0-.9.22c-.24.13-.35.52-.62.45a1.19,1.19,0,0,1-.47-.26,1,1,0,0,1,.1-.53c.06-.09,0-.23,0-.23l-.27.2s.11.15,0,.26-.33,0-.33,0l-.78.39s-.15.08-.1.09.07.12,0,.18a1.47,1.47,0,0,1-.72.05A5.63,5.63,0,0,1,48,21.8l-.09.11L48,22l-.29.31-.14-.05-.62-.08-.2-.25,0-.61.08-.07-.4-.41s-.12.17-.07.26a.43.43,0,0,1,0,.58.42.42,0,0,1-.53.13c-.13-.07-.41-.48-.77-.65s-1.44.26-1.44.26L43.36,21a7.83,7.83,0,0,1,1.3-.29,1.16,1.16,0,0,1,1,.43c.08.09.2.05.14-.06a1.58,1.58,0,0,0-.54-.41,2.37,2.37,0,0,0-1.12,0c-.19,0-2.93.85-4,1a10.94,10.94,0,0,1-1.8.1s-1,0-1.51,0l-2.52-.17-.1-.19c0-.09-.15-.27-.15-.27l.44-.12c.13,0,.55-.13.55-.13l-.37-.18-.58-.27s-.06-.2-.09-.27a2,2,0,0,0-.12-.25,1.75,1.75,0,0,1,.37,0,2,2,0,0,1,.4.07s0,0,0-.05l.16,0s-.11,0-.13,0,0,0,0,0,0-.08,0-.08.09.06.17.09a1.47,1.47,0,0,0,.26.07l-.07,0a.87.87,0,0,1-.17,0c-.06,0-.11,0-.08,0L35,20l-.29.06c-.05,0,0,0,0,0a1.34,1.34,0,0,0,.19,0s.42-.23.42-.23a1.29,1.29,0,0,1-.25,0c-.07,0-.2-.06-.18-.08s0,0,0,0,0-.08,0-.06l.07,0s.19,0,.19,0-.1-.1-.07-.1a.22.22,0,0,1,.09,0s0,0,0,0a.33.33,0,0,1,.13,0,.14.14,0,0,0-.08-.07s-.21,0-.3,0,0-.16,0-.18l.08-.1.08-.07h0l-.16,0a.22.22,0,0,1-.11,0l-.09,0-.12-.06s0,0,0,0,0,0,0-.06,0,0,0,0h-.06s0,0,0,0l-.1-.05.12,0h-.1l-.08,0,0,0-.1,0a.08.08,0,0,1-.07-.05l0,0-.13,0-.09-.06h0l-.06,0a.23.23,0,0,1-.07-.06l.08,0a.27.27,0,0,0,.12,0,.31.31,0,0,0,.11,0l-.13,0-.08,0,.08,0h.22l0,0h.07l.11,0s0,0,0,0h.22l-.11,0a.57.57,0,0,1,.16,0H35l0-.13a.51.51,0,0,1,0-.1h-.09a.16.16,0,0,0-.09,0l0-.06a.26.26,0,0,0-.09.05.24.24,0,0,1-.12,0l0,0-.15,0a.35.35,0,0,1-.13,0l.09,0h-.1l-.12,0,.06,0-.12,0-.1-.05h.08l-.12-.1-.07-.07H34a.45.45,0,0,1-.1-.07L33.86,18l0,0-.15-.13s.09,0,.09,0a.88.88,0,0,1-.14-.14.49.49,0,0,1,0-.12l.08.07a.38.38,0,0,1,0-.11.12.12,0,0,1,0-.1l0,.07.1.08,0,0a.4.4,0,0,1,.07.07.42.42,0,0,0,.13.07l0-.07.07,0s.05,0,.09,0,0,0,.07,0a.19.19,0,0,1,.06,0v-.06l.07,0,.06,0v0l.08,0,.07,0v0l0,0,.11.06v0a1.35,1.35,0,0,1,.12.12c0,.05,0,.14,0,.18a.14.14,0,0,0,0,.11.66.66,0,0,1,.07.15.45.45,0,0,0,0,.08.08.08,0,0,0,0-.07.47.47,0,0,1,0-.2l0-.08L35,18a.35.35,0,0,1-.08-.15l.05.06A.15.15,0,0,0,35,18l0-.05a.61.61,0,0,1-.07-.12s.14.13.11.09a1.15,1.15,0,0,1-.08-.14s0,0,0-.07a.45.45,0,0,1,0-.08.16.16,0,0,0,0,0s0,0,0,.05a.44.44,0,0,0,.08.07l0,0a1.18,1.18,0,0,1-.06-.13s0-.06,0-.06.08.06.08.06,0-.11-.07-.14,0-.11,0-.11l0,.05s0-.07,0-.13,0-.09,0-.12,0-.08,0-.08l.07.05a1,1,0,0,1,0,.13c0,.05,0,.06.07.11l.09.09v0s0,0,.07.06l.07.1,0-.05s0,0,0,0a.28.28,0,0,1,0,.11h0v.07a.34.34,0,0,1-.05.13.11.11,0,0,1,.05,0,.38.38,0,0,1,.15-.05.51.51,0,0,1,.2.06.56.56,0,0,1,.07-.13s0,0,.11,0a.09.09,0,0,0,.08,0l-.14-.15a.4.4,0,0,1-.08-.3c0-.08.09-.17.11-.26s-.15-.19-.21-.2a2,2,0,0,0-.23.07.76.76,0,0,1-.41-.11.52.52,0,0,1-.17-.25s.05-.09.05-.09.06-.06.1,0a1.36,1.36,0,0,0,.25.11,1,1,0,0,0,.36-.08,1.26,1.26,0,0,1,.53-.06,1.77,1.77,0,0,1,.31.21l0,0,.11,0,.15,0a.08.08,0,0,1,.07,0s.17.1.2.16,0,.12,0,.15.11.13.15.11a7.36,7.36,0,0,1,.75-.09,3.66,3.66,0,0,1,.65.06,1.26,1.26,0,0,1,.42.36,5.39,5.39,0,0,1,.21.6.79.79,0,0,1-.08.42c-.07.06-.11.09-.11.11a2.7,2.7,0,0,0,.22.18.82.82,0,0,1,.11.12v-.08l.11,0s0,0-.07-.05-.07-.07,0-.08l.17,0a.38.38,0,0,0,.19-.1l.13-.08s0,0,0,0l-.2,0a.59.59,0,0,1-.14,0,.24.24,0,0,1-.09,0l.08-.08.17-.12.17,0h.1l.21-.1a1.42,1.42,0,0,1,.23-.14l.09,0a.42.42,0,0,0-.16,0,1.41,1.41,0,0,0-.31.07.58.58,0,0,1-.27.09,2.26,2.26,0,0,1-.33,0,.38.38,0,0,1-.11-.08.28.28,0,0,0,.13-.06,1.09,1.09,0,0,1,.31,0,.27.27,0,0,0,.12-.1.37.37,0,0,1,.23-.13c.09,0,.2,0,.24,0s.05-.06.09-.09,0-.05,0-.08-.05-.07-.09-.08a.33.33,0,0,1-.16-.13.24.24,0,0,1,0-.17s.09-.13.06-.15a.11.11,0,0,0-.11,0s-.09.09-.14.11-.06,0-.07.05,0,.08,0,.14a.37.37,0,0,0,.06.09l-.11.05-.29-.28c-.09-.07-.18-.05-.22-.08s-.17-.16-.17-.2a1.28,1.28,0,0,1,.1-.25.15.15,0,0,1,0-.1l0-.06a1.66,1.66,0,0,1-.25-.2c0-.05,0-.11,0-.26a3.12,3.12,0,0,1,.23-.48l.12-.21a.29.29,0,0,0,0-.06s-.13.05-.14,0a.71.71,0,0,1,0-.15s-.15.12-.22.05a.14.14,0,0,1,0-.14s-.19.15-.22,0,.14-.14.14-.14-.23-.16,0-.25.23,0,.23,0a.19.19,0,0,1,.12-.16.14.14,0,0,1,.18,0l.13,0-.13-.32.31.12c.07,0,0-.06,0-.08l-.31-.13.3-.15.33-.16a3.13,3.13,0,0,1-.14.35c0,.06.07.09.1.05s.2-.29.2-.29l.13.39.1,0s-.05-.18.06-.23.18,0,.18,0-.09-.23.09-.26.24,0,.24,0,.12-.23.3-.1.09.34.09.34a.12.12,0,0,1,.12.09.23.23,0,0,1-.07.18.3.3,0,0,1,.32.09c.17.17.16.28.16.28a.64.64,0,0,1,.4,0,.5.5,0,0,0,.32,0,1.65,1.65,0,0,0,.32-.13l0,.15-.17.12s.36.16.5.11.16-.08.16-.08.13.17,0,.25a.63.63,0,0,1-.37,0l.14.14a.24.24,0,0,1-.14.05.23.23,0,0,0-.13,0,1,1,0,0,1,.47.14c.14.11.22.29.39.37a1.05,1.05,0,0,0,.31.11.35.35,0,0,1-.31,0c-.16-.06-.39-.19-.49-.22a1.15,1.15,0,0,0-.33,0s.16.2.28.23a.72.72,0,0,1,.42.24c.06.11.35.14.45.22a1,1,0,0,1,.17.37l-.16-.06c-.08,0-.06-.08-.17-.11s-.41-.21-.41-.21a.85.85,0,0,0,.17.26c.11.09.31.1.42.19a.92.92,0,0,1,.2.41c0,.07,0,.07,0,.07a1.51,1.51,0,0,0-.31-.28,2,2,0,0,0-.31-.11,1.1,1.1,0,0,0,.23.25c.14.13.25.25.25.34l.07.29s.49-.15.56-.27a5.63,5.63,0,0,0,.28-.57,1,1,0,0,1-.21-.17,3,3,0,0,0-.23-.24l.2-.07a.31.31,0,0,1,.11,0s-.21-.29-.28-.36a.68.68,0,0,1-.13-.21,1.51,1.51,0,0,0,.28.07.88.88,0,0,0,.22,0,2.74,2.74,0,0,0-.14-.37.2.2,0,0,1,0-.17l.2.11.11.06s.12-.34.15-.41a3.17,3.17,0,0,0,.05-.46l0,0a.68.68,0,0,0,.08.21c.07.14.08.24.11.28.23.33.37.38.37.38l.2-.19a.09.09,0,0,1,0-.12.63.63,0,0,1,.15-.12.8.8,0,0,1-.14-.08l-.11-.09s-.06.14-.18,0,0-.25,0-.25-.2.09-.28-.06a.12.12,0,0,1,.07-.19s-.19,0-.17-.16a.1.1,0,0,1,.14-.08.19.19,0,0,1,.19-.32.13.13,0,0,1,.08-.15.29.29,0,0,1,.23,0,.2.2,0,0,1,.18-.11.24.24,0,0,1,.22.11s.08-.16.21-.1a.38.38,0,0,1,.19.18s0,0,.07-.12.12-.11.12-.11l.16.07.2.11v-.59h.14L48,12.6l.21,0H49a.7.7,0,0,1,.23,0l-.08.13h.13v.65l.42-.24a.38.38,0,0,1,.08.11.85.85,0,0,0,.06.13.22.22,0,0,1,.12-.14.19.19,0,0,1,.17,0,.25.25,0,0,1,.2-.09.22.22,0,0,1,.17.1s.18-.08.24,0a.25.25,0,0,1,.06.13.2.2,0,0,1,.24,0,.3.3,0,0,1,.07.25s.2,0,.2.14a.18.18,0,0,1-.2.19s.12.13.08.19a.24.24,0,0,1-.26.09.13.13,0,0,1,0,.18c-.07.1-.26,0-.26,0l-.13.14a.27.27,0,0,1-.09.06s.18.1.18.14-.07,0-.07,0a1.26,1.26,0,0,1,.23.15l.21.18a1.56,1.56,0,0,0,.22-.44,4.15,4.15,0,0,1,.21-.53s.08.2.1.28.09.48.09.48l.15-.16L52,14.7a1.08,1.08,0,0,1,0,.17v.27a.81.81,0,0,0,.2,0,1,1,0,0,1,.2,0,1,1,0,0,1-.13.24,1.37,1.37,0,0,0-.21.28.87.87,0,0,0-.06.15,1.2,1.2,0,0,0,.23.06h.17a1.52,1.52,0,0,0-.26.22c0,.06-.25.23-.25.23l.09.27.08.23a4.74,4.74,0,0,0,.82.36,3.56,3.56,0,0,0,1.06.19Zm-.14,2.35a.17.17,0,0,0-.13.2,1.55,1.55,0,0,0,.13.38c.06.08.27.16.26,0a4.1,4.1,0,0,0-.14-.49C53.8,19.66,53.7,19.65,53.7,19.65Zm0-.08a.51.51,0,0,1,.44.36c0,.15.1.52-.18.51a.56.56,0,0,1-.49-.28,1.51,1.51,0,0,1-.08-.34C53.34,19.71,53.49,19.56,53.66,19.57Zm.45.15,0,.09s.08,0,.1.05.09.48.09.53-.1.06-.1.06v.07l.44.16,0-.09s-.15-.09-.16-.14l-.05-.3s.6.58.63.63l0,0h.17s-.18-.64-.18-.7,0-.06.08-.07h.08l0-.07-.25,0-.23-.06,0,.05s.13.05.15.13l.11.41-.53-.64ZM52,19.55l-.09.12s.12,0,.12,0,.15.43.16.46,0,.08,0,.1a.11.11,0,0,0-.06,0v.06l.29-.08,0-.06s-.09,0-.1,0-.09-.29-.09-.29l.36.35h.09l.15-.39a2.23,2.23,0,0,1,.08.24s0,.05,0,.05h0v.08a2.12,2.12,0,0,1,.27,0l.27,0v-.06s-.11,0-.13-.08-.14-.41-.14-.45,0-.09,0-.07h.09l0-.08-.18,0-.21,0-.16.45-.38-.45Zm3.9.75.17.61s.15.1.21,0a.44.44,0,0,0,0-.32.48.48,0,0,0-.2-.22A.85.85,0,0,0,55.91,20.3Zm-.47-.2,0,.06s.13,0,.14.07.15.55.16.59-.14,0-.14,0v.08l.53.12c.13,0,.44,0,.45-.18a.65.65,0,0,0-.19-.45A1.64,1.64,0,0,0,56,20.2l-.57-.12Zm1.56.39.12.24a1.62,1.62,0,0,0,.25,0c.1,0,.05-.2-.08-.22Zm-.47-.19,0,.09a.22.22,0,0,1,.12.1c0,.08.21.49.23.54s-.06.08-.09.08,0,.06,0,.06l.53.07,0-.08s-.11,0-.11-.07a2,2,0,0,0-.09-.2s.12,0,.18,0,.17.15.18.2a.63.63,0,0,0,.29.22c.11,0,.16.06.21,0s0,0-.08-.07a2.07,2.07,0,0,1-.18-.23.79.79,0,0,0-.22-.18s.19-.05.18-.15-.27-.27-.44-.3Zm1.71.33c-.08,0-.09.06-.08.13a2.72,2.72,0,0,0,.15.43.24.24,0,0,0,.22.12c.08,0,.11-.08.07-.17s-.15-.37-.19-.42A.34.34,0,0,0,58.24,20.63Zm0-.1a.83.83,0,0,1,.46.16,3.42,3.42,0,0,1,.22.42c0,.08,0,.3-.28.3a.68.68,0,0,1-.57-.22,2.08,2.08,0,0,1-.16-.4.19.19,0,0,1,.16-.24Zm-2.78-.18.16.22-.09.19-.21-.23Zm-4.25.71.11-.16a1.32,1.32,0,0,0-.05-.25c0-.06.06.05.07.11a.78.78,0,0,1,0,.09l0-.06a.38.38,0,0,0,0-.14c0-.08,0-.14,0-.14a.85.85,0,0,1,.09.14l0,.11.05,0a.74.74,0,0,0,0-.15l-.06-.14a.76.76,0,0,1,.1.12.7.7,0,0,0,0,.13l0,0a1.88,1.88,0,0,0-.05-.2,1.28,1.28,0,0,1,0-.13l.09.18a.79.79,0,0,1,0,.13l0-.05a1,1,0,0,0,0-.22,1.84,1.84,0,0,1-.06-.18.73.73,0,0,1,.1.19c0,.08.07.16.07.16l0-.05s0-.22-.06-.28-.06-.17-.06-.17a1.36,1.36,0,0,1,.11.19l.11.26,0-.3-.07-.25a1.27,1.27,0,0,1,.11.18l.1.3s-.06-.33-.09-.41a1.64,1.64,0,0,1-.08-.22A.9.9,0,0,1,52,20c0,.07.1.29.1.29l0-.05a2,2,0,0,0-.09-.35l-.12-.18.2-.29a3.33,3.33,0,0,1,.88-.06c.34.05,1.94.44,2.72.66a19.92,19.92,0,0,0,2.51.43c.28,0,.71.07.71.07l0,.11h-.17l.06.07a.3.3,0,0,1,.14.09s.21.44.22.47,0,.06-.07.07H59l0,.06.62,0,0-.07a.39.39,0,0,1-.17-.1,2.74,2.74,0,0,1-.13-.27,1,1,0,0,0,.37.19l.23,0,0,.12-.11,0,0,.07h.72l-.07-.09s-.08,0-.18-.08a.58.58,0,0,1-.14-.2.14.14,0,0,0,.07-.11.31.31,0,0,1,0-.09l.11,0s.09-.05.15,0l.07.08h.19l-.18-.27-.33,0,0-.1a1.44,1.44,0,0,1,.47.05l.36.26-.23.18.34.21.25-.2-.23-.16,0-.08a.57.57,0,0,0-.1-.19,1.54,1.54,0,0,1-.12-.14,2.86,2.86,0,0,1,.32,0l.3.1,0-.08a.49.49,0,0,0-.11-.08,1.93,1.93,0,0,1-.22-.17,2.19,2.19,0,0,0,.31.1c.14,0,.36.08.36.08a.23.23,0,0,0-.07-.17l-.2-.13.36.08.3.08s-.41.26-.53.31a5,5,0,0,0-.48.22l0,.05s.6.07.8.11.62.13.73.17l.2.09,0,0s-1.3.21-2,.26a20.88,20.88,0,0,1-3.6-.1,23.48,23.48,0,0,1-2.9-.64,10.82,10.82,0,0,0-1.83-.41A3.19,3.19,0,0,0,51.17,21.06Zm8.51-1.75-.07.12h.12l.05-.11Zm-.08-.18-.05.07h.09l0-.08Zm.12,0h.11l0,.1-.1,0Zm.27,0,0,.11-.12,0,0-.09Zm0,0,0,.08.09,0v-.08Zm.05-.13,0,.08.08,0,0-.09ZM59.93,19l0,.09.1,0L60,19Zm-.17,0v.08l.09,0,0-.09Zm-.14,0,0,.09.11,0V19Zm-.15,0,0,.1h.11l0-.11Zm.5-.06L60,19l.18.05-.1-.09A.12.12,0,0,0,60,18.9Zm-.18,0,0,.08h.11v-.08Zm-.13,0,0,.07.11,0v-.09Zm-.07,0-.12.06h.1Zm-.33.17a.68.68,0,0,1,.6-.21c.4.11.43.36.43.36l-.07-.06,0,.07.06,0v0l-.07,0-.07.14a.71.71,0,0,0-.17-.05l-.13,0,0,.15s0,0,0,0l0,0-.05,0-.07.1.05-.12h-.12l-.06,0,0-.06.07-.16-.14,0,0,.06v-.07h-.07l0-.05h.08l0-.09-.12,0-.08.09,0-.11H59.3l0,0h.06l0-.08Zm.41,1.18.08-.05,0,.15h0Zm-.12.06.06,0,.08.11,0,0Zm-.07,0,.05.08a1.58,1.58,0,0,0-.26.1c-.06,0-.09.09,0,.16s.19.33.43.36.28,0,.27,0a1.57,1.57,0,0,1-.2-.41.32.32,0,0,1,0-.11,2.24,2.24,0,0,0,.13.19,1.38,1.38,0,0,1,.13.22c0,.06.13,0,.13-.1a2.7,2.7,0,0,0-.2-.56c-.06-.11,0-.16-.11-.21s-.11,0-.16-.07a6.4,6.4,0,0,1-.4-.65,6.07,6.07,0,0,1-.34-1c0-.08-.08-.09-.13-.14s-.32-.27-.46-.24a.89.89,0,0,0-.37.13.36.36,0,0,0-.14.38.61.61,0,0,1,.17-.3.41.41,0,0,1,.22-.08s-.13.07-.16.14-.06.25-.06.25a.51.51,0,0,1,.19-.23c.16-.09.19-.06.19-.06a.42.42,0,0,0-.18.17.82.82,0,0,0,0,.17,1.3,1.3,0,0,1,.23-.17.39.39,0,0,1,.15-.05v.05a.42.42,0,0,0-.17.12.3.3,0,0,0-.07.14,1.26,1.26,0,0,1,.25-.13.43.43,0,0,1,.17,0v.05a.33.33,0,0,0-.12.08,1.06,1.06,0,0,1-.21.14,1.26,1.26,0,0,0,.21,0l.16,0,0,.07a.5.5,0,0,0-.15.05l-.17.11.27,0a.2.2,0,0,1,.12,0l-.23.08s-.09.1-.09.1l.18,0a.33.33,0,0,1,.14,0l-.15.08-.14.07a.72.72,0,0,0,.19,0,.29.29,0,0,1,.15,0l-.18.07a.3.3,0,0,1-.13,0l.23,0,.15,0v0l-.11,0a1.66,1.66,0,0,1-.24,0,.39.39,0,0,0,.21.08H59l0,.1a.54.54,0,0,0-.14,0l-.2,0a.53.53,0,0,0,.22.06h.14l0,.05-.18,0h-.11a.4.4,0,0,0,.18.09.37.37,0,0,1,.15.06l0,0L59,20h-.15a.39.39,0,0,0,.2.1c.08,0,.11,0,.11.05v0s-.24-.05-.23,0,0,.13.13.16A2.07,2.07,0,0,0,59.48,20.31Zm1.67-.55a3.62,3.62,0,0,1-.34.39c-.07.06.12.05.23.08a2.86,2.86,0,0,1,.38.2s-.3-.09-.39-.1a.89.89,0,0,0-.24,0,1.72,1.72,0,0,1,.25.2l.18.26s-.33-.21-.43-.29l-.34-.28.22-.14Zm1.24.22.23.13a3.53,3.53,0,0,0,.52-.22,1,1,0,0,0-.25,0A4.78,4.78,0,0,1,62.39,20Zm.29-.36-.51.35s.15.09.26.17.32.22.32.22a2.34,2.34,0,0,0-.45-.24c-.16,0-.29-.1-.31-.1s.11-.11.17-.14Zm-.44-.24a2.84,2.84,0,0,1-.41.48l-.29.2s0,0,.12.09l.28.19-.38-.14c-.06,0-.29-.12-.31-.12s.07-.15.14-.23a1.2,1.2,0,0,0,.15-.32,1.72,1.72,0,0,1,0,.27,1.31,1.31,0,0,0,0,.14,2.61,2.61,0,0,0,.33-.22Zm-.93-.63-.59.35.38-.28a1.14,1.14,0,0,1,.19-.11S61.31,18.75,61.31,18.75Zm-.18.31s-.13.41-.17.46,0,.07,0,.08l.46.06-.25-.14a2.72,2.72,0,0,0,.31-.13,3,3,0,0,0,.29-.2l-.35.13a2.38,2.38,0,0,1-.31.08s0-.17,0-.23A.24.24,0,0,0,61.13,19.06Zm-.56-.2a5.09,5.09,0,0,1-.17.72.78.78,0,0,1-.1.2,1,1,0,0,0,.19-.06l.25-.07a2,2,0,0,1-.39.28L60,20,60,20s0-.17,0-.31,0-.25,0-.25l.18.37.07-.05a2.47,2.47,0,0,0,.2-.34A4.11,4.11,0,0,1,60.57,18.86Zm-4.73-.68a1.08,1.08,0,0,1-.05.19.49.49,0,0,1-.06.17c0,.05,0,0-.14.17l-.11.22s-.06-.05,0-.21a.52.52,0,0,0,0-.27l-.16,0s0,.16,0,.25a.3.3,0,0,1-.1.14.55.55,0,0,0,0-.24,1.85,1.85,0,0,1-.07-.19l-.15,0s0,.15.07.23a.15.15,0,0,1-.06.21l-.16.05a.19.19,0,0,0,.06-.24l-.14-.24h-.05s0,.16.05.23-.09.22-.09.22,0-.13,0-.17l-.16-.25h0a2.12,2.12,0,0,1,.09.27.17.17,0,0,1-.13.21.6.6,0,0,1-.2.07,1.6,1.6,0,0,0,.19.11A1.82,1.82,0,0,1,54.8,19a14.28,14.28,0,0,0,1.62.55c.3,0,.45-.07.54,0s.3.33.23.44a.2.2,0,0,1-.25.09L56.5,20l.29-.07-.27-.1a1.63,1.63,0,0,1-.38.09c-.09,0-1-.23-1.28-.33s-.76-.23-.81-.24.07-.12.07-.12l-.07-.05a1.1,1.1,0,0,0-.16.12s-.15,0-.15,0,0-.08.07-.09l.18-.09L53.91,19s-.28.15-.27.18-.15,0-.13-.05a1,1,0,0,1,.25-.2c.05,0,.08-.05.07-.06s-.06,0-.06,0a2.27,2.27,0,0,0-.38.24c0,.06-.14,0-.12,0a1.38,1.38,0,0,1,.19-.15l.27-.13s0-.1-.06-.08l-.48.24c-.07,0-.19.05-.19.1v.06h-.17s-.08-.08,0-.12a1,1,0,0,0,.21-.1l.6-.29s0-.07.05-.07l.17,0s0,0,0,0a.68.68,0,0,0,.34-.21.62.62,0,0,0,.06-.17s.12.05.17,0l.19-.14.08,0,.11-.18s.06,0,0,0a1.26,1.26,0,0,1-.07.16l.1,0s.14-.15.14-.16,0,0,0,0a1.14,1.14,0,0,1-.09.16l.11,0a1.58,1.58,0,0,1,.13-.18s0,0,0,0a.19.19,0,0,0,0,.09s0,.09,0,.09l.08,0,.12-.15,0,0,0,.22.07,0,.06-.09.08-.08-.07.23.08,0Zm.22.12-.32.63c0,.07-.12,0-.08,0Zm.1.2s-.22.52-.26.58-.14,0-.08-.06Zm.18.25s-.25.45-.28.49-.08,0,0-.06Zm0,.33-.12.27s-.08,0,0,0A2.63,2.63,0,0,1,56.35,19.08Zm1.44.85s-.09,0-.06.11l.08.14s-.18,0-.21,0-.09-.15,0-.17Zm.28.17c-.08,0,0,.11.09.13S58.15,20.07,58.07,20.1Zm-.4-.48s.13,0,.15,0A2.33,2.33,0,0,1,58,20s-.14.08-.14.08a.63.63,0,0,0,.2,0c.08,0,0-.14,0-.21s-.11-.34-.21-.32A.28.28,0,0,0,57.67,19.62Zm0-.68a.83.83,0,0,0,.18.31l.07,0-.09.13s.11,0,.12.05.1.28.15.41a1.13,1.13,0,0,1,.06.19l.12.16.38-.21s0-.05-.08-.07-.27-.12-.29-.24,0-.37,0-.44-.15-.37-.25-.41-.08-.09-.15-.06A2.7,2.7,0,0,0,57.72,18.94Zm-.38.12a.18.18,0,0,1,.21.07c0,.06.12.18.13.2s0,.06,0,.08a.18.18,0,0,0,0,.05.45.45,0,0,0,.15-.07s0-.13,0-.2-.16-.24-.26-.25S57.29,19.08,57.34,19.06Zm.17.23c-.07,0-.13.09-.13.15a2.47,2.47,0,0,0,.11.36c0,.06.08,0,.15,0a.58.58,0,0,0,.16-.06l0,0-.12,0s0-.05,0-.05-.1-.3-.1-.33,0,0,0-.07S57.51,19.29,57.51,19.29Zm-.59-.39a.47.47,0,0,0,.33.23l.21,0a.37.37,0,0,1-.34.05C56.93,19.15,56.92,18.9,56.92,18.9Zm-.1-.13c0,.05-.16.16-.07.24a.71.71,0,0,0,.15.1s-.51,0-.23-.38a.26.26,0,0,1,.39,0c.12.1.07.2,0,.23s0-.1-.08-.14A.16.16,0,0,0,56.82,18.77Zm-3.21-.49a.17.17,0,0,0,.1.14.44.44,0,0,0,.29-.08c.08-.06.26-.15.22-.24L54.14,18s-.1,0-.09,0,0,.09.05.1-.19.13-.23.15l-.17.06s0-.05,0-.06S53.59,18.24,53.61,18.28Zm-.41.08s-.09-.18,0-.23a3.1,3.1,0,0,1,.36-.1q.09,0,.12,0a.67.67,0,0,1,.07.11s0,.08-.07,0a.28.28,0,0,1,0-.06l-.43.14v.05S53.21,18.4,53.2,18.36Zm-.4.16c0,.05,0,.29.21.23a1.27,1.27,0,0,0,.5-.24c0-.06,0-.17,0-.21s-.08,0-.07,0,0,.08,0,.1l-.47.15s0,0-.07-.07S52.8,18.52,52.8,18.52Zm-.15,0c0,.06,0,.14-.14.14l-.29,0-.07.24a1.24,1.24,0,0,0,.47-.11.24.24,0,0,0,.11-.28C52.7,18.49,52.65,18.56,52.65,18.56Zm-.23,0,0-.09.55-.11a.07.07,0,0,1,.06.07s.07,0,.07-.05-.07-.18-.17-.16-.41.05-.47.07a.25.25,0,0,0-.1.18.22.22,0,0,0,0,.09S52.42,18.57,52.42,18.57Zm2-.87a.29.29,0,0,0-.28,0,1,1,0,0,0-.32.25s0,.12.06.17.06,0,0,0,0,0,0,0a2.69,2.69,0,0,1,.41-.29s.06.05.1,0A0,0,0,0,0,54.42,17.7Zm.35-.22s.15.17.07.23l-.32.29a.15.15,0,0,1-.18,0,.39.39,0,0,1-.09-.11s0,0,.06,0,.07.07.12,0l.32-.26a0,0,0,0,0,0-.07s0-.06,0-.07S54.77,17.48,54.77,17.48Zm-1.58.11-.31.45c0,.05,0,.07,0,.07L52.77,18a1.69,1.69,0,0,1,.21-.31Zm-.31-.11s-.27.36-.31.44a1.33,1.33,0,0,0-.09.18l-.06,0a2,2,0,0,1,.11-.23A3.06,3.06,0,0,1,52.88,17.48Zm-.28-.09-.22.39a1.71,1.71,0,0,0-.14.29,1.41,1.41,0,0,1,0-.22Zm-.2-.16-.09.14,0-.09Zm4.59.14-.1.21,0,0ZM57,17s-.2.43-.25.5-.06,0-.05,0S57,17,57,17Zm0-.3s-.35.73-.4.81-.06,0-.05,0Zm0-.46s-.45,1-.49,1,0-.12,0-.19S57,16.22,57,16.22Zm-.39,1.87.05,0-.2.15-.06-.05ZM54,16.51l.27.46.14,0,.39-.33.1,0,0,.47.06,0,.48-.3.13.05,0,.49.09.05.46-.25.12.07-.11.47.07,0,.46-.19.17.13-.17.37.09,0,.41-.08.15.14a2.78,2.78,0,0,0-.29.22.33.33,0,0,1-.1.07l.21-.24c.05-.05.08-.09.07-.09l-.24.12-.25.16a2.26,2.26,0,0,0,.22-.22c0-.05-.19.05-.23.08l-.2.15-.07-.05.2-.15,0-.07-.23.17s-.58-.36-.64-.42-.55-.31-.54-.32v-.16h-.14s0,.11,0,.14l-.2.1s.16-.22,0-.3a.21.21,0,0,0-.31.08c0,.05,0,.14,0,.17l0,0,0,0s-.24-.12-.17-.23.11-.18.21-.19l.17,0s0-.1-.07-.09l-.21,0,0-.07-.07,0a.09.09,0,0,1,0,.09.17.17,0,0,1-.09.06.35.35,0,0,0,0-.16.14.14,0,0,0-.06-.09l0,0a.66.66,0,0,1,0,.11.29.29,0,0,1-.07.11l0-.32-.08-.13,0,.42,0,0Zm-.63-.46s0,.39-.19.43-.33,0-.4,0-.25.1-.23.19a.19.19,0,0,1,.06-.22,1.34,1.34,0,0,1,.53-.15C53.27,16.34,53.41,16.05,53.41,16.05ZM53,15.54a.19.19,0,0,0,.21.19c.13,0,.28-.11.35-.09a.41.41,0,0,1,.15.13.66.66,0,0,0-.3,0c-.09.05-.16.09-.25,0s-.2-.12-.2-.18A.2.2,0,0,1,53,15.54Zm2.58,0a.35.35,0,0,1-.39.27.66.66,0,0,1-.48-.17v-.09a.42.42,0,0,0,.41.16.58.58,0,0,0,.37-.16Zm.14-.73s-.07.33.17.39.34,0,.42,0l.08-.06s.18.08.15.21a2.24,2.24,0,0,1-.17.55,1.4,1.4,0,0,0-.13.47s.18-.34.23-.41l.18-.31c0-.05,0,.09,0,.15s-.25.44-.28.54a1,1,0,0,0,0,.25s.12-.17.19-.29.23-.39.25-.44,0,0,0,.09l-.33.7c0,.06-.1.22-.06.29s.08-.19.17-.31.33-.56.33-.56a.22.22,0,0,1,0,.14,4.08,4.08,0,0,0-.4.84c0,.1,0,.19,0,.19l-.17-.08-.43.21,0-.42-.25-.12-.3.19s0-.26,0-.28.07,0,.09,0a1.42,1.42,0,0,0,.49,0,.53.53,0,0,0,.21-.12l.05-.27a.55.55,0,0,1-.25.16,3,3,0,0,1-.4,0,2.72,2.72,0,0,0,.45-.23,2.25,2.25,0,0,0,.28-.51,4.58,4.58,0,0,1-.31.35c-.23.18-.33.09-.33.09a1,1,0,0,0,.36-.32,1.3,1.3,0,0,0,.14-.24l0,0s-.24.38-.47.42-.77-.09-.86-.26a.35.35,0,0,1,0-.36l-.09-.05a2.35,2.35,0,0,1-.1.25c0,.09-.06.11-.09.11h0s0-.15,0-.23a.51.51,0,0,0-.06-.18h-.09a1.81,1.81,0,0,1,0,.32c0,.12-.07.25-.14.28a.25.25,0,0,1-.17,0s.18.06.2-.1,0-.39-.14-.43-.07.07-.06.11,0,.2,0,.25a.15.15,0,0,1-.1.05s.1-.09.07-.15,0-.11-.09-.1-.1,0-.08.06.06.07,0,0a1.77,1.77,0,0,0-.28-.06l-.29.07a.82.82,0,0,1-.2-.25s0-.14.08-.13h.35a.31.31,0,0,1,.29-.26.4.4,0,0,1,.35.21l.56-.1,0-.15.37,0h.5A1.4,1.4,0,0,0,55.7,14.77ZM53.2,16a.24.24,0,0,1-.15.25,1.89,1.89,0,0,0-.36.12.72.72,0,0,0-.12.11.3.3,0,0,1,.23-.23.65.65,0,0,0,.32-.11A.56.56,0,0,0,53.2,16Zm.42-1c-.12,0-.14.21-.11.21l.34,0S53.74,15,53.62,15Zm1,.06a.93.93,0,0,1,.32-.1l.07-.09a1.2,1.2,0,0,1,.3,0,.48.48,0,0,1,.15.07s-.06.23.23.3a1,1,0,0,0,.42,0,.32.32,0,0,1-.27.08.66.66,0,0,1-.34-.13s0,.15-.34.07S55,15,55,15a.9.9,0,0,0-.29.06C54.56,15.14,54.63,15,54.63,15Zm.52,0c0,.11,0,.14.08.15s.05-.13.05-.13.15,0,.14.08,0,.11-.19.11-.16-.11-.15-.16S55.15,15,55.15,15Zm1.13-.8c0,.16.22.38.08.54s-.15.28-.26.29-.15-.06-.05-.15.31-.2.25-.38A.64.64,0,0,1,56.28,14.19Zm-.1-.34a.59.59,0,0,0-.11.47.46.46,0,0,1-.15.47c-.11.08-.09,0,0-.07s.19-.23.15-.34a.31.31,0,0,1,0-.32A.81.81,0,0,1,56.18,13.85Zm-2,.8s0,.14.5.09a3.32,3.32,0,0,1,.81-.05,1.21,1.21,0,0,0-.61-.12,2,2,0,0,1-.44.1A1.61,1.61,0,0,1,54.21,14.65Zm.35-.25s0,.12.38.11.43-.08.58,0-.17-.16-.36-.11a.77.77,0,0,1-.32.06A1.76,1.76,0,0,1,54.56,14.4Zm.81-.27c.07,0,.09.18.09.18S55.31,14.16,55.37,14.13Zm-.21-.08c.08,0,.08.21.08.21S55.06,14.07,55.16,14.05Zm-.27-.18c.11-.06.16.45.16.42S54.78,13.92,54.89,13.87Zm-.39-.24c.1-.05.18.48.18.48S54.39,13.68,54.5,13.63Zm-.28-.2c-.11,0,.17.45.17.45S54.3,13.43,54.22,13.43Zm-.32-.19c.06,0,.17.39.17.39S53.79,13.28,53.9,13.24Zm-.25-.15c-.09,0,.18.35.18.35S53.72,13.08,53.65,13.09ZM53.47,13c-.13,0,.09.26.09.26Zm-.23-.14c-.09,0,0,.18,0,.18Zm6.09,4.94a1.55,1.55,0,0,1,.22.54c0,.26,0,.29,0,.29a1.3,1.3,0,0,1,.24-.16c.12-.05.13,0,.05.05s-.3.27-.3.27l-.36-.18A.88.88,0,0,1,59,18.4a2.42,2.42,0,0,1,.3.1l.17.11a3.7,3.7,0,0,0-.08-.46A2.56,2.56,0,0,1,59.33,17.76Zm-2-1.39a1.9,1.9,0,0,1,.58,0,.8.8,0,0,0,.55,0c.12-.07.26-.24.37-.26a2.29,2.29,0,0,1,.4,0l0,.12s-.29-.07-.42,0a1.87,1.87,0,0,1-.5.32,3.36,3.36,0,0,1-.62,0,1,1,0,0,0-.24.06,1.07,1.07,0,0,0,.34.1,4,4,0,0,0,.48,0,4.84,4.84,0,0,1,.61-.21,2.37,2.37,0,0,1,.34,0l0,.11a1.33,1.33,0,0,0-.43,0,3.43,3.43,0,0,0-.38.18l-.27.07h.43a2.45,2.45,0,0,1,.45.05l.07.17a4.63,4.63,0,0,0-.56.06c-.16,0-.44.14-.58.19a2.07,2.07,0,0,1-.62-.05l0,.06s.4.06.53.1.3-.08.42-.08a3.35,3.35,0,0,1,.38,0l0,.12-.24,0a1.92,1.92,0,0,0-.48.2c-.08,0-.24-.09-.39-.12a2.18,2.18,0,0,0-.42-.06c-.05,0,0,.06.09.06a2.52,2.52,0,0,1,.41.11l-.17.08-.41-.09c-.05,0,0-.22.06-.3s.07-.33.07-.33a2.57,2.57,0,0,0,.72.09c.2,0,.34-.11.49-.13a1.35,1.35,0,0,1,.33,0H59s-.35-.05-.5-.05-.32.07-.41.07-.45-.12-.56-.14l-.28,0Zm-.22-.76.11.34a1,1,0,0,1,.38,0c.21,0,.15,0,.26.12a.64.64,0,0,0,.44.11c.2,0,.27-.13.41-.19a1.46,1.46,0,0,1,.4-.07l0-.12a.86.86,0,0,0-.36,0c-.13,0-.28.26-.44.26s-.06-.11-.17-.15l-.52-.15s.6.08.7,0,.13-.33.26-.34.47,0,.47,0l-.06-.14a1.6,1.6,0,0,0-.25,0,.41.41,0,0,0-.36.16c-.08.14-.09.19-.23.2h-.61Zm4.07,2.93-.41.36.49-.33C61.31,18.51,61.15,18.54,61.15,18.54ZM61,18.4l-.31.38.39-.35C61.11,18.35,61,18.4,61,18.4Zm-.1-.07-.53.54.41-.61C60.79,18.18,60.85,18.33,60.85,18.33Zm-.29-.22c-.06.07-.35.61-.35.61a3.46,3.46,0,0,0,.44-.54C60.68,18.06,60.56,18.11,60.56,18.11Zm-.19-.05c0,.14-.26.61-.26.61a6.22,6.22,0,0,0,.37-.58C60.54,18,60.37,18.06,60.37,18.06ZM60.25,18a4.56,4.56,0,0,1-.28.74c-.06.08.2-.62.2-.73S60.25,18,60.25,18Zm.46-.48a2.25,2.25,0,0,0-.21.24c-.06.08-.11,0-.07-.05A2.8,2.8,0,0,1,60.71,17.49ZM60,17.38A2.09,2.09,0,0,1,60,18c0,.18-.07,0-.08,0A5.06,5.06,0,0,1,60,17.38Zm1.94,1a.39.39,0,0,0,0,.1.69.69,0,0,0,0,.15,2.46,2.46,0,0,1,.39-.16l.48-.1s-.64.28-.7.29a.25.25,0,0,0-.1,0,1.37,1.37,0,0,1,.31.07c.11,0,.21,0,.26.09l.06.06a4.44,4.44,0,0,0-.57-.11h-.35a.44.44,0,0,0,.09-.15A1.36,1.36,0,0,1,61.9,18.36Zm.15-.83-.19.38a1.66,1.66,0,0,0-.11.27,1.37,1.37,0,0,1,.3-.07l.23,0s-.26.08-.4.14a1.61,1.61,0,0,0-.26.16l-.08,0a1,1,0,0,1-.09-.18,2,2,0,0,0-.12-.25.57.57,0,0,1,.17.14.3.3,0,0,1,0,.13,2.74,2.74,0,0,1,.19-.33C61.79,17.84,62.05,17.53,62.05,17.53Zm-11.53,2,.06,0,0,.06,0,0,.28.21s.08-.05.08-.05l.08.06-.33.36-.13-.09,0-.05s.12,0,.15-.06-.12-.14-.12-.14-.06,0-.05.07l0,.06h0l-.2-.14,0,0a.15.15,0,0,0,.08,0s.06-.07.06-.07-.07-.06-.1-.06a.31.31,0,0,0-.11.09.76.76,0,0,0,0,.16l0,0-.12-.13.19-.21Zm.22-.32,0,0,0,.05s-.15.06-.16.11,0,.19.13.18a1.59,1.59,0,0,1,.32,0s.06,0,0,.07-.16,0-.16,0l0,0,.18.14.05-.08,0,0a.26.26,0,0,0,.15-.13c0-.08-.09-.18-.15-.18a1.16,1.16,0,0,0-.26.06c-.11,0-.16-.06-.06-.08l.16,0,0-.05Zm.21-.57.09,0v0l.43.12,0-.05.09,0,0,.08,0,.09-.46.14s0,0,0,0l.21.09,0-.06.07,0-.12.19-.08,0,0-.06-.44-.2-.06,0,0-.07a.26.26,0,0,0,.09,0l.4-.1a0,0,0,0,0,0,0L51,18.86l0,.05-.09,0a.83.83,0,0,0,0-.12A.36.36,0,0,0,51,18.68Zm.63-.4h.09s0,.19,0,.27a1.41,1.41,0,0,1,0,.23l-.24-.06v-.08s.12,0,.14,0a.45.45,0,0,0,0-.18s-.07,0-.1,0H51.4s-.06.06,0,.09a.18.18,0,0,0,.08,0v0h-.3v0s.09,0,.09,0,0-.09,0-.09H51.1a.06.06,0,0,0,0,.1.82.82,0,0,0,.17.14l0,0-.27-.1a.68.68,0,0,0,.06-.23v-.16h.08s0,.11,0,.11l.4,0S51.58,18.28,51.58,18.28Zm-.23-.3h.21s0,.16-.08.16A.12.12,0,0,1,51.35,18ZM51,17.82V18l.08,0V18h.14s0,.26.18.26.27-.06.26-.17,0-.33,0-.33h-.11a.54.54,0,0,0,0,.08s0,0,0,0h-.35s0-.07,0-.07H51Zm-.06-.51,0,.33h.08l0-.1.24,0,.2.15v0h.11l0-.23h-.08a.64.64,0,0,1,0,.09s0,0,0,0l-.13-.08.13-.15v.07l.07,0-.06-.32h-.08v.05s-.17.27-.21.27h-.19s0-.09,0-.09Zm-1.63.82c-.06,0-.26,0-.27.05a.08.08,0,0,0,.05.08h.11s0,0,0,0-.13,0-.15,0-.06-.11-.1-.11-.11,0-.12,0,0,.08,0,.13,0,.07,0,.1a.08.08,0,0,1,0,.06s-.11.05,0,.07.09,0,.13-.07.06,0,0,0-.05,0,0,0l.16-.09s.1-.08.12-.07,0,0,0,.05-.16.05-.15.08,0,.06.06,0l.1-.07s0,.05,0,.05.06,0,.05,0,0-.05,0-.06,0,0,0-.05,0,0,0-.08,0-.1,0-.1h-.15c-.06,0,0,0,.07,0h.12C49.38,18.18,49.36,18.14,49.31,18.13Zm-.4.19s.07.09,0,.09S48.91,18.32,48.91,18.32Zm.07,0s.09.07.05.08S49,18.32,49,18.32Zm0,0c.06,0,.12.05.09.06S49,18.29,49,18.29Zm-.11.45s.09.07.05.08S48.87,18.74,48.87,18.74Zm0,0s.09,0,.06,0S48.9,18.74,48.9,18.74Zm.22-.16s-.14,0-.17,0-.08.06,0,.08.15.05.11.06-.11,0-.13,0,0,0,0,0,0,0,0,0a0,0,0,0,0,0,0,.17.17,0,0,0,0,.07s.07.11,0,.14,0,.05-.06.09,0,.07,0,0,0-.11.08-.13.06,0,0,0-.06.08,0,.08.07-.09.08-.11,0-.06,0-.05,0,.05,0,.08,0,.06,0,.05.06,0,.08-.07,0-.18,0-.19-.19,0-.14,0a.34.34,0,0,1,.13,0S49.15,18.58,49.12,18.58Zm.16.42.17.18.21-.15.34.26,0,.06-.12.12a.11.11,0,0,1-.06,0s-.09-.13-.14-.15l-.09,0h.22s0-.06,0-.06l-.23,0c-.06,0,0-.05.07-.08l.09,0a.26.26,0,0,1,.1,0l-.09-.07s0,0,0,0,0,0-.07,0-.06,0-.07.06a.07.07,0,0,1,0,.06l-.31.07a.17.17,0,0,0-.09,0,.08.08,0,0,0,.05-.07s0,0,0-.06a.35.35,0,0,0,.08-.13.08.08,0,0,0,0-.06l-.09.1s0,0-.07,0-.15,0-.08,0,.16.06.13.07l-.07,0a.14.14,0,0,1-.09,0s-.12,0-.13,0a.15.15,0,0,1,0,0l.08,0h.23l-.14,0-.12.06c-.05,0-.05.08,0,.08a1.15,1.15,0,0,0,.15-.08l.2-.05a.53.53,0,0,0,.13-.06l.22,0a.44.44,0,0,0-.15.09c-.07,0-.13.16-.18.16l-.47,0s0,0,0-.07,0-.23,0-.23l.1-.06.45-.24S49.26,19,49.28,19Zm0-.29v.15l0,.06a.44.44,0,0,0,.08.11s0,0,.05,0l.11-.12s0-.18,0-.2,0,0,0,0h-.22Zm-.07-.08s0,.28,0,.28l.17.19s0,0,.06,0,.15-.13.15-.14a.24.24,0,0,0,0-.09v-.22s0,0-.05,0-.32,0-.34,0Zm.29-.1s0-.06,0-.06a.4.4,0,0,0,.11,0s.09,0,.07-.06a.37.37,0,0,1-.15-.08.08.08,0,0,1,0-.1s0-.05,0-.06,0,0,0,0,.06,0,.06,0v.07s0,.05.06.07.08.07.09.07.13,0,.11-.06-.06,0-.07,0,0,0,0-.08,0-.08,0-.07l.27,0s0-.05.05,0a.53.53,0,0,1-.08.23c0,.05-.11.08-.1.12a.45.45,0,0,1,0,.11.08.08,0,0,0,0,.07s0,0,0,.07.07,0,.07,0a2.55,2.55,0,0,1,0-.28,1,1,0,0,1,.11-.27c0-.06.08-.09.09-.06s0,.14-.05.17a.17.17,0,0,0-.09.12,1.07,1.07,0,0,0,0,.18.16.16,0,0,1,0,.1s0,.11-.07.12,0,0,0,.05a.46.46,0,0,1,0,.13,1.15,1.15,0,0,1-.08.1s-.09,0-.08-.06.09,0,.09,0-.07-.09,0-.12.05-.07,0-.07a.1.1,0,0,1-.08,0s0,0,0,0,0,.11,0,.11-.18-.05-.16-.07.14,0,.14,0l0-.07s-.12,0-.07-.05.18-.05.17-.07-.1-.09-.1-.13,0-.18,0-.13,0,.06,0,.05,0-.1.05-.12,0,.08,0,.09,0-.11.06-.11.06,0,.07-.06.07-.1,0-.1-.08.08-.11.1-.08,0-.09.05l0,.05s0,0,0,0a.31.31,0,0,1-.15.1h-.1s0,.05,0,.05.08,0,.09,0a1.6,1.6,0,0,1,0,.31s-.06.06-.05.06l.31.23s.07,0,.09,0a1.59,1.59,0,0,0,.36-.88c0-.4,0-.31-.08-.31h-.82s-.06,0-.07.07,0,.42,0,.44l.05,0Zm-.8-.51s-.08,0-.08.07v1.1s0,.06,0,0l.49-.29v-.36h.21v-.53s0,0,0,0Zm.87,1.53a.21.21,0,0,0-.19,0s-.59.88-.67.95l-.1.08s.35-.61.4-.68.32-.49.44-.49A.11.11,0,0,1,49.62,19.55ZM50,20l.62.68.05-.08L50,20Zm-.87.65c-.05,0,.27.26.27.26a1.88,1.88,0,0,0-.12-.15C49.21,20.68,49.11,20.6,49.09,20.62Zm0-.26s.1.17.2.3a1.14,1.14,0,0,0,.25.24A5.36,5.36,0,0,0,49.11,20.36Zm.17,1.17c.1,0,.21,0,.13,0A.23.23,0,0,1,49.28,21.53Zm0-.1a.2.2,0,0,1,.2,0s0,0-.08,0Zm-.32.24.07,0a1.25,1.25,0,0,0,.21-.07s-.07,0-.13,0Zm-.37-.07.9-.38.13,0-1,.38S48.57,21.6,48.57,21.6Zm-.27-.07.86-.35.16,0-.92.35Zm-.24-.05.81-.37.14,0-.86.35Zm-.23-.11.43-.15,0,0,.36-.13.11,0-.87.32Zm0-.17,0,0-.22.08,0,0Zm.12,0v0l.09,0,0-.06Zm.46-.2.11,0-.25.1V21Zm-.67.12,0,0-.34.12-.06-.05Zm.34-.31.1.05-.48.18-.34.1-.06,0s.31-.1.39-.14S48.1,20.77,48.1,20.77Zm-.21.29a.3.3,0,0,1,.21,0,.49.49,0,0,1,.11.13s0-.16-.08-.19A.41.41,0,0,0,47.89,21.06Zm.37-.21.07,0-.15.06-.08,0Zm-.32-.19.08.06-.4.14-.46.13-.06,0,.39-.12Zm-.17-.13.09.09-.47.16-.41.1,0-.05.43-.14Zm-.19-.16.11.1-.87.28-.06-.05.23-.09,0,0a2.12,2.12,0,0,0,.29-.11s.14-.09.16-.11Zm2.4.93-.37.12s.06-.09.13-.11A1.08,1.08,0,0,1,50,21.3Zm-1.65-.88h.25l0,0h-.21Zm-.23-.17h.56l0,0h-.5ZM48,20.11h.78l0,.05H48ZM48,20h.83l0,.06H48Zm.14-.13,0,.05.81,0,0-.07Zm.19-.14-.07.07H49l.05-.09Zm-.1-.07s-.16.13-.24.2a1.9,1.9,0,0,0-.21.22s0-.17.1-.24S48.14,19.59,48.24,19.63Zm-.81.24s-.14,0-.07.08a3.21,3.21,0,0,0,1.35.95,4.78,4.78,0,0,0,1.82.26c.19,0,.13-.06.11-.07s-.35,0-.44,0-.76-.1-1.06-.17A3.87,3.87,0,0,1,48,20.4,4.64,4.64,0,0,1,47.43,19.87Zm-.18.42.06.07.21-.05-.09-.06Zm-.62.25.07.08.19-.06s0-.07,0-.08Zm.47-.32.22-.09,0,.05-.18.05A.06.06,0,0,1,47.1,20.22Zm-.29.12v0l-.24.09,0,0Zm.38-.32v0l-.83.3v0Zm-.24.42a.14.14,0,0,0,.1.08c.05,0,0-.08,0-.08H47Zm-.05-.11a.27.27,0,0,1,.25,0c.06,0,.12.12.1.14s-.06,0-.07,0,0-.11-.09-.13A.59.59,0,0,0,46.9,20.33Zm-.63.08a4.3,4.3,0,0,0,1.52,1.11,3.6,3.6,0,0,0,1.56.32c.17,0,.13,0,.06,0a3.39,3.39,0,0,1-1.79-.33A3,3,0,0,1,46.27,20.41Zm1.66,1.34s0,.07,0,.09-.1,0-.11,0,0-.09,0-.07,0,0,0,0Zm-.38.27c.05,0,.06.11.06.11S47.5,22.05,47.55,22Zm-.71-.71a.14.14,0,0,0-.05.1,3.69,3.69,0,0,0,.05.49l.26,0a2.05,2.05,0,0,1,.37.05s.14-.15.14-.15-.17-.16-.27-.16-.13,0-.18,0-.1.12-.15.11-.09,0,0-.1a1.22,1.22,0,0,0,.16-.14.14.14,0,0,0-.06-.14Zm1.7-3.3a.06.06,0,0,1,.06,0s0,1.34,0,1.36,0,.06,0,.09,0,.08,0,.1a.19.19,0,0,1-.13,0s-.09-.13-.15-.12-.08.08-.13.08-.08,0-.12,0l-.37.32s-.09-.11-.13-.12a.42.42,0,0,1-.14-.22,3.7,3.7,0,0,0-.21-.33c0-.06-.15-.18-.16-.24s-.05-.36-.06-.41-.12-.15-.13-.23a2.74,2.74,0,0,1,0-.29,0,0,0,0,1,.05,0Zm-.25.17a.32.32,0,0,0-.09,0s-.23,0-.27.06l-.28,0s-.21-.1-.31-.12h-.25c-.06,0-.06.07,0,.12s.06.11.1.11a.08.08,0,0,1,.06.06s.41.79.41.81,0,0,0,0-.09.1-.08.12,0,.08.07.08l.17-.06h.14l.08,0,0,.11.12,0,.32-1.27Zm-.44,1.1,0,0,.26,0,0-.06Zm.06-.12,0,0,.22,0,0-.07Zm.24-.16,0,.05-.17,0v0Zm0-.11,0,0L48,19l0,0Zm0-.12,0,.05-.11,0,0-.05Zm0-.12v0l-.09,0,0,0Zm-.09-.21,0-.1a0,0,0,0,0,0,0s0,0,0,0l.06.09h0A0,0,0,0,0,48.15,18.44Zm0,.07-.1-.16a0,0,0,0,0,0,0,0,0,0,0,0,0,0l.1.16h0S48.11,18.52,48.1,18.51Zm-.05.08-.13-.21a0,0,0,0,0,0,0s0,0,0,0l.13.21s0,0,0,0S48.06,18.6,48.05,18.59Zm0,.06-.15-.24s0,0,0,0,0,0,0,0l.15.24a0,0,0,0,0,0,0A0,0,0,0,0,48,18.65Zm-.06.1-.19-.31a0,0,0,0,0,0,0s0,0,0,0l.18.31h0A0,0,0,0,0,47.94,18.75Zm0,.09-.24-.39h0a0,0,0,0,0,0,0l.24.4h0A0,0,0,0,0,47.9,18.84Zm0,.1-.33-.53s0,0,0,0a0,0,0,0,0,0,0l.33.53h0S47.86,19,47.85,18.94Zm-.07.06-.37-.61s0,0,0,0,0,0,0,0l.37.61h0S47.79,19,47.78,19Zm-.05.07-.43-.7a0,0,0,0,0,0,0,0,0,0,0,0,0,0l.42.69h0A0,0,0,0,0,47.73,19.07Zm-.57-.81s0,.06.11.06a1,1,0,0,1,.2,0,.66.66,0,0,0-.17-.08C47.23,18.24,47.17,18.24,47.16,18.26Zm1.52-2.16s0,1.78,0,1.81,0,0,.06.05H50.4c.05,0,.08,0,.07-.09A2.52,2.52,0,0,0,50,16.62a1.47,1.47,0,0,0-.91-.5,1.7,1.7,0,0,0-.36-.05C48.66,16.07,48.68,16.1,48.68,16.1Zm-.15,0a2,2,0,0,0-1,.32,2.25,2.25,0,0,0-.59.81,4.48,4.48,0,0,0-.14.67c0,.05,0,.08.06.09h1.65s.07,0,.07-.09,0-1.73,0-1.73S48.61,16.07,48.53,16.07ZM47.06,17.5s0,0,0,0a0,0,0,0,0,0,0s0,.06,0,.06a.09.09,0,0,0,0,.05l.07.05s0,0,0,0l-.06,0s-.05,0-.06,0,0,0,0,.05,0,0,0,0l.1-.06s0,0,0,0,0,0,0,0,0,0,0,0-.07,0-.08,0,0,0,0,0h.09l.05,0,.17,0a.61.61,0,0,1,.12-.05,0,0,0,0,1,0,.05.07.07,0,0,1,0,0s-.1,0-.11,0,0,0,0,0a1.76,1.76,0,0,0,.23,0s.06,0,.06-.05v0l.1.06s0,0,0,0,0-.05,0-.07l-.06-.08h0s0,0,0,0,.08,0,.08-.07-.07-.07-.11-.07h-.23c-.05,0-.06-.05,0-.05h.29s0-.05,0-.05h-.33c-.07,0-.14.13,0,.13a2.58,2.58,0,0,0,.29,0s0,0,0,0h-.33a.12.12,0,0,1-.08-.05l-.07-.1-.06,0s0,0,0,0Zm.07.14.08.06s0,0,0,0S47.13,17.64,47.13,17.64Zm0-.05.07.06s0,0,0,0Zm0,0,.09.06s0,0,0,0Zm-.18,0s0,0,0,0S47,17.51,47,17.53Zm.15,0s-.06,0,0,0S47.18,17.49,47.19,17.51Zm.92-.06s0,.08.08.11.11,0,.11.05,0,0,0,0a0,0,0,0,0,0,0s-.05.09-.07.09-.05-.05-.06,0,0,0,0,0h0s0,.05,0,.05h-.15s0,0,0-.06,0-.06,0-.06H48l.1,0s0-.14,0-.16h.07ZM47.9,17v.57s0,0,0,0,.06,0,0-.05a.48.48,0,0,1,0-.11.57.57,0,0,1,0-.13s0,0,0,0,0,0,.06,0,.06.07.07.06,0,0,0,0,0-.13,0-.14,0-.13,0-.13H48s0-.05,0,0,0,0,0,.05,0,.06,0,.07,0,0,.05,0,0,0,0,0,0,0-.05,0a.07.07,0,0,1,0-.07s0,0,0,0,0,0,0-.05Zm.35-.51a1.19,1.19,0,0,1,0,.14c0,.06,0,.14,0,.16s0,0,0,0,0-.09,0-.11,0,0,0,0,0,.14,0,.15v.05s0,0,0,0a.2.2,0,0,1,0-.11.16.16,0,0,0,0,0,.13.13,0,0,0,0,.1.36.36,0,0,0,0,.11s0,0-.05,0v-.09l0,0h0l0,0-.05,0v-.29h0a0,0,0,0,1,0,0,.12.12,0,0,1,0,.07s0,.07,0,.09l0,0s0,0,0,0,0,0,0,0a.48.48,0,0,1,.08-.11Zm0,.78s0,.07,0,.11a.29.29,0,0,0,0,.14.18.18,0,0,1-.08-.12A.18.18,0,0,1,48.2,17.27Zm.21-1s0,0,0,0,0,1.43,0,1.46,0,0,0,0-.09,0-.09,0a.55.55,0,0,0,.1-.17.19.19,0,0,0,0-.08.45.45,0,0,1-.06-.12s0,0,0,0,0,0,0,0a.91.91,0,0,0,0-.28,1.4,1.4,0,0,1,0-.36c0-.07.06-.13,0-.18a.14.14,0,0,0,0-.06.42.42,0,0,0-.07.11v.19s0,.42,0,.46,0,.08,0,.06,0-.15,0-.19,0-.23,0-.23.05,0,0-.1a.41.41,0,0,1,0-.16l0,0a.26.26,0,0,1,0-.1s0-.07,0-.08-.05,0,0,0h0s0,0-.05,0,0,0,0,0,0,0,0,0h-.08s0,0,0,0,0,0,0,0-.08,0-.07,0,0,.07,0,.08l.09,0h0s0-.05,0-.05,0,.05,0,.1-.09.08-.11.08,0,0,0,0l.06,0s0,0,0,0,0-.05,0-.06,0,0,0,0h0s0,0,0,0v-.09s0,0,0,0Zm-.45.1s.39-.1.39-.11a.1.1,0,0,1,.07,0s.07,0,.07.06,0,.06,0,.06v1.4a.08.08,0,0,1,0,.06s0,.06-.06.06a0,0,0,0,1-.05,0l-.41,0a.06.06,0,0,1-.06.05.08.08,0,0,1-.08-.08.11.11,0,0,1,0-.06l0-1.24a0,0,0,0,1-.06,0c0-.07,0-.07.06-.08l.06,0Zm-.69.84,0,.06s0,0,0,0A.45.45,0,0,1,47.27,17.2Zm0-.05a.4.4,0,0,0,.07.07s0,.05,0,0A.45.45,0,0,1,47.31,17.15Zm0,0,.08.07s0,0,0,0S47.34,17.11,47.34,17.11ZM47.21,17h.08s0,0,0,0,.05,0,.06,0,0,.06,0,.07,0,0,0,0,0,0,0,0a2.08,2.08,0,0,0,.25,0s0,0,0,0H47.5a.08.08,0,0,1-.08-.08c0-.06.09-.06.15-.06h.21s0,0,0,0h-.25s-.05,0,0,0h.24s.06.07,0,.09-.06,0-.05.05l.07.15s0,0,0,0l-.08-.08-.09.07h-.12s0,0,0,0a.17.17,0,0,0,.09,0l.06,0s0-.05-.09,0a1.38,1.38,0,0,0-.24.14h-.13s0,0,0,0a.25.25,0,0,0,.12,0s0,0,0,0-.17,0-.17.06,0,0,0,0H47s0,0,0-.06a1.22,1.22,0,0,0,.17-.05.41.41,0,0,0,0-.07.07.07,0,0,1,0-.05s0,0,0,0,0,0,0-.05,0,0,0,0Zm.07,0s0,0,0,0S47.28,17.08,47.28,17.08Zm-.08,0s0,0,0,0S47.2,17.09,47.2,17.09Zm.56-.28s.07,0,.07-.08,0-.06-.09-.06h0s.07,0,.08-.05v-.05c0-.07-.18-.06-.24-.06s0,0,0,0,.18,0,.19,0v0l-.06,0c-.06,0-.08,0-.07.05s0,0,.1,0,0,0,0,0,0,0-.09,0-.08,0-.09,0a.16.16,0,0,0-.07-.09s-.07,0-.08,0-.08.05-.07.09a.27.27,0,0,0,0,.08.17.17,0,0,0-.12,0s-.1.07,0,.07a.35.35,0,0,0,.14,0,.24.24,0,0,1,.11,0l-.08.05s-.08,0-.06,0a.25.25,0,0,0,.15,0c.06,0,.12-.09.14-.08s-.06,0-.07.07v0s.1,0,.1,0a.2.2,0,0,1,0-.05s.05.07.08.06,0,0,0-.06S47.74,16.83,47.76,16.81Zm-.29-.15c.07,0,0,0,0,0S47.47,16.66,47.47,16.66Zm0,.05s.05,0,0,0S47.48,16.71,47.48,16.71Zm0,.05.07.07h0Zm.05,0,.1.06-.05,0Zm0-.05.06.08h0ZM50.67,18c-.08-1.41-.81-2.17-2.05-2.15a2,2,0,0,0-1.35.5,2.41,2.41,0,0,0-.61,1.71l0,.06v0a2.47,2.47,0,0,1,.62-1.71,1.88,1.88,0,0,1,1.31-.49c1.21,0,1.92.73,2,2.1a2.21,2.21,0,0,1-.92,1.79l-.34.25s0,.08,0,0l.35-.25A2.23,2.23,0,0,0,50.67,18Zm-.42-2.69.13.07.11.09L50.4,16l.47-.11a.31.31,0,0,1,.07.08L51,16l-.07,0s-.07-.07-.12,0l-.31.22s0,.07,0,.07l-.06.05-.13-.13,0-.06s0,0,.07,0l.27-.2-.44.15H50.2l.12-.5s-.22.23-.24.24,0,0,0,.06l0,0-.06.05-.2-.12,0-.07s.07,0,.11,0l.3-.33s0,0,0,0l-.09,0Zm-.14.18,0,.11-.11,0L50,15.52Zm-.17-.34.13.06.1.07-.05.06s-.06,0-.07,0l-.25.37s0,.07,0,.07l0,.07-.23-.11,0-.08s.07.05.1,0,.25-.36.25-.38l-.05,0Zm-.73-.22.17,0,.14,0,0,.08s-.05,0-.07,0-.2.4,0,.46.3-.36.31-.38-.07-.06-.07-.06l0-.08.11,0,.12.06,0,.07s-.07,0-.08,0-.16.56-.43.44a.26.26,0,0,1-.14-.36s.05-.22.06-.23-.09-.05-.09-.05Zm-.32,0c-.11,0-.28.16-.28.31s.07.33.23.34.2-.05.2-.05a.74.74,0,0,0,.1.11.35.35,0,0,0,.15,0s-.12,0-.14-.11a.43.43,0,0,1,0-.12.31.31,0,0,0,0-.24C49.16,15.06,49.11,14.92,48.89,14.92Zm0,.1a.19.19,0,0,0-.19.2c0,.07,0,.23.13.24s.16-.13.16-.23S49,15,48.94,15Zm-.46.2-.1.12.1.08.08-.1ZM48.07,15a1.89,1.89,0,0,0-.31.09l.07.24h.05s0-.15,0-.18l.09,0,.11.43-.1,0,0,.1.29-.06,0-.11h-.07l-.12-.43s.11,0,.15,0a.42.42,0,0,1,.08.14h.06l0-.25Zm-.62.18,0,.1h.08l.16.37,0,0,0,.08.22-.07,0-.09h-.06l-.15-.37,0,0,0-.11Zm-.23.19a.18.18,0,0,0,0,.26c.07.09.18.13.24.07a.16.16,0,0,0,0-.24C47.35,15.36,47.31,15.3,47.22,15.35Zm-.1-.06a.31.31,0,0,0,0,.39.38.38,0,0,0,.43.14.32.32,0,0,0,0-.46C47.35,15.22,47.19,15.23,47.12,15.29ZM49,17.71a.33.33,0,0,1,.18,0l.13,0h-.16A.24.24,0,0,1,49,17.71Zm0-.06s0-.25-.09-.25a.13.13,0,0,0-.14.14.35.35,0,0,0,.07.14s0-.16.06-.17S49,17.65,49,17.65Zm.4,0s.07-.26,0-.26-.13,0-.13.09a.38.38,0,0,0,0,.13s0-.12.1-.11S49.44,17.68,49.44,17.68Zm-.28-.54a.62.62,0,0,1,.08.28,1,1,0,0,1-.08.25,1.37,1.37,0,0,1-.07-.26A.71.71,0,0,1,49.16,17.14Zm0-.08a.46.46,0,0,1,.13.28.44.44,0,0,1,.12,0c.07,0,.16.25.13.32a.22.22,0,0,1-.08.1s0-.05,0-.05,0,0,0,.06,0,0,0,0-.05,0,0,0a.51.51,0,0,0,0,.1h-.09l0-.1v.09l-.06,0h-.06v-.08l-.06.08H49l0-.07s0,0-.05,0,.05-.06,0-.07-.12,0-.12,0a.27.27,0,0,1-.07-.26.22.22,0,0,1,.22-.15s0-.06,0-.13A1.06,1.06,0,0,1,49.16,17.06Zm-.1-.21a.47.47,0,0,1,.18,0,.48.48,0,0,1,.13,0l-.16,0A.34.34,0,0,1,49.06,16.85Zm0-.05s0-.26-.09-.26a.14.14,0,0,0-.15.14.51.51,0,0,0,.08.14s0-.16.05-.17S49.07,16.8,49.07,16.8Zm.39,0s.07-.25,0-.26-.13,0-.13.09a.41.41,0,0,0,0,.13s0-.11.09-.11S49.46,16.82,49.46,16.82Zm-.28-.54a.63.63,0,0,1,.08.29.89.89,0,0,1-.08.24,1.72,1.72,0,0,1-.06-.26A.59.59,0,0,1,49.18,16.28Zm0-.07c.11.07.13.27.13.27a.45.45,0,0,1,.12,0c.07,0,.16.26.13.32a.26.26,0,0,1-.07.1s0,0,0,0-.05,0,0,.05,0,0,0,0,0,0,0,0a.66.66,0,0,0,0,.11h-.09l0-.1V17l-.06,0h-.05v-.08l0,.08H49l0-.07s0,0,0,0,.05-.05,0-.07a.27.27,0,0,0-.13,0,.27.27,0,0,1-.07-.26.22.22,0,0,1,.22-.15s0-.06,0-.12A.58.58,0,0,1,49.18,16.21Zm.54,1.16a.44.44,0,0,1,.17,0,.64.64,0,0,1,.14,0l-.16,0A.29.29,0,0,1,49.72,17.37Zm0-.05s0-.26-.09-.26a.13.13,0,0,0-.14.14c0,.05.08.14.08.14s0-.16,0-.17S49.72,17.32,49.72,17.32Zm.39,0s.07-.25,0-.26-.13,0-.14.09a.5.5,0,0,0,0,.13s0-.11.1-.11S50.11,17.34,50.11,17.34Zm-.27-.54a.54.54,0,0,1,.07.29.69.69,0,0,1-.07.24,1.37,1.37,0,0,1-.07-.26A.71.71,0,0,1,49.84,16.8Zm0-.07c.11.07.13.27.13.27a.44.44,0,0,1,.12,0c.07,0,.16.25.13.32a.22.22,0,0,1-.08.1s0-.05,0,0a0,0,0,0,0,0,.05s0,0,0,0-.05,0,0,0a.66.66,0,0,0,0,.11H50l0-.1v.1l-.05,0h-.06v-.08l-.06.08h-.08l0-.07s-.05,0-.05,0,.05-.05,0-.07a.22.22,0,0,0-.12,0,.27.27,0,0,1-.07-.26.21.21,0,0,1,.22-.15s0-.06,0-.13A.72.72,0,0,1,49.84,16.73Zm1.54-.09.09.22-.08,0,0,0-.43.13,0,.11.16,0,0,.06-.22.08-.17-.39.1,0,0,0,.41-.13,0-.08Zm0,.95.08.09-.1.07-.09-.08Zm-.05-.43.06.06-.08.07-.08-.07Zm-.49-.76,0,.08.14-.1Zm-.33,0,.11.15,0,0,0-.08h.09l.09.12,0,.09-.06-.07-.08,0,.13.24.1-.05v-.05l.4-.37a.93.93,0,0,0,0-.1l-.62.11,0,0-.08,0Zm1.31-.56.1-.06H51.8Zm-.19.05.52.11-.47,0Zm.1.13.34.08h-.3Zm0,.16,0,0H52Zm-5-.67.06-.06.15.19,0,0a.17.17,0,0,0-.15,0c-.11,0-.15.1,0,.1s.32,0,.36,0,.13.2,0,.26a.29.29,0,0,1-.2.05l.09.06-.1.07L46.73,16l.05-.06A.51.51,0,0,0,47,16c.08,0,.15-.16,0-.16s-.4.1-.43,0,0-.19.07-.25a.57.57,0,0,1,.16,0Zm-.49.49.09,0,0,.08.4.24,0-.07.08,0-.1.19-.14-.06,0-.07-.36-.23,0,.06-.11,0Zm.18,0,.1.18.15,0L46.61,16Zm.13.83-.07.19-.1,0V17l-.47-.13v.06l-.11,0,.1-.17.45-.12-.26-.13-.05.1-.08,0,.12-.24h.11l0,.12.49.21-.54.19.3.07,0-.07Zm-.42.11c.19.08.28.16.26.26s0,.26-.4.19-.28-.17-.26-.3S46.06,16.94,46.13,17Zm-.05.09c.22,0,.25.35-.06.28S45.84,17,46.08,17.05Zm-.44,1,0-.27h.08v.07h.15l0-.28h-.12l0,.06h-.09V17.4h.08v.08l.49,0v-.09h.07l0,.24H46.2V17.6H46l0,.28.17,0v-.08h.09v.27h-.09l0-.09h-.39v.07Zm5-3.05,0,.08A3.32,3.32,0,0,1,52,17.93a3.2,3.2,0,0,1-1.36,2.95l0,0a3.21,3.21,0,0,0,1.49-3A3.47,3.47,0,0,0,50.61,15ZM52,15.6a2.93,2.93,0,0,1-.38.2v-.08Zm.21-.22a3.5,3.5,0,0,1-.51.28l0-.1Zm-.29-.55a3.14,3.14,0,0,1,0,.33l0,.19.09-.06a2.37,2.37,0,0,0,0-.31,1.45,1.45,0,0,0,0-.17Zm-.12.13c0,.07-.09.42-.1.49s.09-.06.09-.06Zm-.38-.49a2.1,2.1,0,0,0,0,.48,2.16,2.16,0,0,1,.07.4c0,.07,0,.31,0,.31l.08.1a1.87,1.87,0,0,0,.05-.46,4.43,4.43,0,0,0-.12-.43C51.45,14.75,51.41,14.47,51.41,14.47Zm-.1.41s.07.3.07.39a1.83,1.83,0,0,1,0,.26l.08.07a1.85,1.85,0,0,0,0-.34A3.56,3.56,0,0,0,51.31,14.88Zm-.1.17a.57.57,0,0,1,0,.19,1.47,1.47,0,0,0,0,.16l.07,0a.76.76,0,0,0,0-.19Zm-.92-.3a3.38,3.38,0,0,0-1.59-.36,4.3,4.3,0,0,0-1.85.46c-.12.06,0,.2.08.16a4.37,4.37,0,0,1,1.76-.45,3.56,3.56,0,0,1,1.51.35C50.31,15,50.41,14.82,50.29,14.75Zm-.21-.23s.15-.27.33-.21-.06.33-.13.34.14-.18.07-.23S50.08,14.52,50.08,14.52Zm.28-.65A.47.47,0,0,0,50,14c-.06.11-.17.46-.13.45a1.66,1.66,0,0,0,.34-.32A1.08,1.08,0,0,0,50.36,13.87Zm-1.15.46c0-.12.26-.33.42-.28s0,.38,0,.38.09-.21-.1-.26S49.21,14.33,49.21,14.33Zm.21-.39a1.23,1.23,0,0,1,1.09-.29c.47.15.33.43.32.48s-.31.3-.31.3.31-.39.07-.57a.88.88,0,0,0-.77,0A3.14,3.14,0,0,0,49.42,13.94Zm1.54.14c-.08.07,0,.18.08.11S51,14.05,51,14.08Zm0-.28c0,.1.13.21.17,0S51,13.72,51,13.8Zm-.17-.31c-.14.06,0,.23.13.17S51,13.42,50.83,13.49Zm-.33-.12c-.09.11.12.19.18.1S50.6,13.27,50.5,13.37Zm-.34,0c0,.14.2.12.21,0S50.17,13.22,50.16,13.36Zm-.3,0c0,.08.22.13.19,0S49.83,13.3,49.86,13.4Zm-.1.18c0-.06,0-.28-.08-.29s-.27.17-.35.28a3.25,3.25,0,0,0-.27.52.35.35,0,0,0,0,.17,1.43,1.43,0,0,1,.25-.47c.13-.13.36-.35.38-.33A1.3,1.3,0,0,0,49.76,13.58Zm-.92.74c0-.07.08-.31-.19-.3s-.2.31-.2.31-.06-.2.17-.2A.2.2,0,0,1,48.84,14.32Zm-1.41-.8s.07-.18.12-.21.1,0,.16,0a.89.89,0,0,1,.38.35,3.87,3.87,0,0,1,.17.59,1.52,1.52,0,0,0-.24-.46c-.23-.27-.41-.41-.47-.39A.33.33,0,0,0,47.43,13.52Zm.87,0v0l.23,0h.17v0h-.17Zm.06-.08,0,0,.35,0,0,0Zm.06-.06.2,0,0,0H48.4Zm-.31-.54.23.26s0,0,0,0,0,0,0,0l-.24.16,0-.27a1.44,1.44,0,0,1,0-.24Zm1,.05-.29.21v0a.12.12,0,0,1,0,.05l.3.15Zm-.93-.22h.45l.37,0-.25.33a.21.21,0,0,0-.14,0,.38.38,0,0,0-.15.06Zm.36.45a0,0,0,0,1,0,0,.06.06,0,0,1,0,0s.11,0,.1,0S48.53,13.14,48.53,13.14Zm-.08,0c0,.13.27.13.28,0S48.46,13.05,48.45,13.16Zm-2.19.95c0,.1,0,.19-.13.08S46.23,14.05,46.26,14.11Zm-.06-.22c0,.1-.19.11-.19,0S46.2,13.81,46.2,13.89Zm0-.37c.12,0,.2.19,0,.2A.1.1,0,0,1,46.22,13.52Zm.35-.13c0,.06-.07.22-.18.11S46.51,13.31,46.57,13.39Zm.33-.05c0,.14-.21.13-.22,0S46.89,13.25,46.9,13.34Zm.32,0c-.07.14-.2,0-.16-.05S47.25,13.31,47.22,13.38Zm-.48,1.17s-.59-.49,0-.71a.89.89,0,0,1,.7,0A3.17,3.17,0,0,1,48,14a1.16,1.16,0,0,0-.81-.4c-.51,0-.86.21-.8.5A.58.58,0,0,0,46.74,14.55Zm.16-.69a.53.53,0,0,1,.39.22,1.24,1.24,0,0,1,.15.39.74.74,0,0,1-.36-.25A.62.62,0,0,1,46.9,13.86Zm.66.54s-.07-.17.11-.17a.78.78,0,0,1,.37.13s-.17-.29-.36-.28-.27.22-.16.34S47.56,14.4,47.56,14.4Zm-.6.29c-.07-.07-.08-.2,0-.24s.18.09.18.09-.08-.3-.26-.21S47,14.69,47,14.69ZM45.4,16.36l.14-.06,0,.05Zm-.09-.1.27-.07v0Zm-.08-.08.22-.07a1.08,1.08,0,0,1,.2-.05l0,.05a.41.41,0,0,0-.12,0A1.58,1.58,0,0,1,45.23,16.18Zm.1-.36.21.06.13,0,0,.07a.3.3,0,0,0-.14-.06A.53.53,0,0,1,45.33,15.82Zm-.23-.23a.91.91,0,0,0,.33.15l.3.07,0,.09a.81.81,0,0,0-.25-.1.6.6,0,0,1-.25-.1C45.11,15.64,45.1,15.59,45.1,15.59Zm.29-.35a3.84,3.84,0,0,0,.26.45l.07.06-.15-.07Zm.13.06.21.31h-.07Zm.36-.75a2.29,2.29,0,0,1,0,.58.76.76,0,0,0,0,.41l0,.09-.07.09a1,1,0,0,1-.07-.36,3.7,3.7,0,0,1,.09-.4A2,2,0,0,0,45.88,14.55Zm.11.34a1.78,1.78,0,0,0-.05.35,2.06,2.06,0,0,0,0,.25l0,.09a1,1,0,0,1,0-.31A3.49,3.49,0,0,1,46,14.89Zm.1.16a2.13,2.13,0,0,0,0,.25.64.64,0,0,0,0,.12l-.06,0a.41.41,0,0,1,0-.17A1.07,1.07,0,0,1,46.09,15.05Zm.51.07a4.34,4.34,0,0,0-1.09,1.49,3.43,3.43,0,0,0-.24,1.84l0,0a3.51,3.51,0,0,1,.26-1.83,4.52,4.52,0,0,1,1.08-1.52S46.67,15.05,46.6,15.12ZM46,20l.42-.13c.08,0,.44-.17.44-.17l0,0-.49.18-.37.12Zm-.08-.1.41-.13.44-.18.06,0-.49.19c-.1,0-.37.11-.37.11Zm-.13-.11.42-.13.44-.17.09.07s-.41.12-.51.17l-.41.11Zm-.11-.11.42-.14c.08,0,.44-.17.44-.17l0,.08-.48.16c-.1,0-.4.12-.4.12Zm-.1-.1.51-.17.42-.15v.07l-.58.21a3,3,0,0,1-.33.09Zm0-.08h0l.29-.11v0Zm0-.16h0l.22-.07,0,.05Zm0-.12h0l.21-.08v.05Zm.71-.1,0,0L46.5,19v.05Zm0,.13,0,0,.22-.07v.06Zm0-.27,0,0,.21-.07v.05Zm-.65.1,0,0,.21-.07V19Zm.64-.23,0,0,.21-.07v.06Zm-.36.27s.05.15.19.07.11-.18.11-.18.17.15-.08.24S45.91,19.09,45.91,19.09Zm.72-.49a2.32,2.32,0,0,0,0,.42.94.94,0,0,0,.24.39.65.65,0,0,1,.18.25v0l-.35-.31a.81.81,0,0,1-.18-.46A1,1,0,0,1,46.63,18.6ZM45.41,19a1.18,1.18,0,0,0,.13.59c.14.17.35.38.37.42s-.26-.13-.35-.21a.85.85,0,0,1-.18-.4A.62.62,0,0,1,45.41,19Zm.37,1a.65.65,0,0,0,.16.09c.1,0,.24,0,.34,0a3.26,3.26,0,0,0,.88-.4c.1-.14-.12-.37-.2-.48a1.47,1.47,0,0,1-.17-.54.21.21,0,0,0-.19-.2c-.08,0-.34.13-.49.15s-.09-.12,0-.15a2.67,2.67,0,0,1,.48-.11.31.31,0,0,1,.22.18,2.46,2.46,0,0,1,.09.34.84.84,0,0,0,.19.36c.06.08.18.23.17.35s0,.26-.46.42a1.71,1.71,0,0,1-.87.22C45.74,20.18,45.78,20.06,45.78,20.06Zm-.06-1.45s.08,0,.08,0a.24.24,0,0,1,0,.11,2.56,2.56,0,0,0-.34.1c-.08,0-.14.1-.11.17s-.09-.17,0-.24A2.59,2.59,0,0,1,45.72,18.61Zm.16-.07s.09.48.11.54.12,0,.12,0A3.43,3.43,0,0,0,45.88,18.54Zm-.77-.21s0,.31,0,.46a1.93,1.93,0,0,0,.1.44s-.21,0-.23-.06a.61.61,0,0,0-.15-.26l-.28-.17a1,1,0,0,1,.23-.25A2.71,2.71,0,0,1,45.11,18.33ZM44,19.85a2.35,2.35,0,0,1-.1.25.39.39,0,0,0,0,.15l.12-.18.13-.18s0,.09-.05.18,0,.16,0,.16a1.1,1.1,0,0,1,.11-.22l.1-.13a.54.54,0,0,1,0,.22.3.3,0,0,0,0,.11s.1-.15.13-.21a.31.31,0,0,1,.08-.11.35.35,0,0,1,0,.15.58.58,0,0,0,0,.14l.09-.16a1,1,0,0,0,.09-.14s0,0,0,.12a.39.39,0,0,1,0,.15.73.73,0,0,0,.1-.14,1.51,1.51,0,0,1,.09-.16.26.26,0,0,1,0,.16.79.79,0,0,0,0,.15,1.62,1.62,0,0,0,.12-.16l.09-.16a.25.25,0,0,1,0,.13l-.06.18a1,1,0,0,0,.12-.17,1.16,1.16,0,0,1,.08-.16.43.43,0,0,1,0,.2.53.53,0,0,0-.06.13A.53.53,0,0,0,45,20a2.18,2.18,0,0,0,.09-.24,1.23,1.23,0,0,1,0,.23.49.49,0,0,1,0,.15,1.13,1.13,0,0,0,.15-.23c0-.06.05-.19.05-.19a1.36,1.36,0,0,1,0,.27,1,1,0,0,1-.06.18.79.79,0,0,0,.12-.18s.06-.23.06-.23a.77.77,0,0,1,0,.27c0,.09-.06.22-.06.22a.45.45,0,0,0,.12-.17l0-.18a1.46,1.46,0,0,1,0,.22c0,.1,0,.21,0,.21a.29.29,0,0,0,.09-.16.64.64,0,0,0,0-.14,2.09,2.09,0,0,1,0,.23.79.79,0,0,1,0,.14s.06-.05.06-.09a.72.72,0,0,1,.07-.15.87.87,0,0,1,0,.17,1.13,1.13,0,0,0,0,.14l.07,0,.06-.18v.23l.07.05,0-.17v.23l.08.05,0-.15.05.22,0,.05,0-.15s0,.16,0,.2a1.67,1.67,0,0,0,.06.2s-.5-.46-.65-.56a1.71,1.71,0,0,0-1.13-.22c-.36.08-2.9.79-3.08.83a12.81,12.81,0,0,1-2,.39c-.39,0-2.48,0-2.48,0s-1.43-.08-2-.13a3.36,3.36,0,0,1-.67-.14s.78-.12,1-.17.74-.18.74-.18l-1.16-.46A5.68,5.68,0,0,1,34,20l.31,0,.25.05h-.06a.57.57,0,0,0,.19.07c.1,0,.1,0,.1,0l-.12.09a.93.93,0,0,0,.21,0,.72.72,0,0,0,.17-.05s0,.11,0,.11.11-.09.12-.1.2,0,.2,0l0,.08a.44.44,0,0,1,.17-.06c.06,0,0,.18,0,.18l.08-.1v.15a.51.51,0,0,1,0-.14.82.82,0,0,1,.12-.15h0l-.11.15a.26.26,0,0,0-.06.14c0,.07,0,.17,0,.18s.07-.09.11-.12l.25-.16s0,.29.19.29a1.12,1.12,0,0,0,.34,0h0l.06.09-.46.13s.12.29.13.3.13-.06.24-.1l.26-.09-.1-.22a.25.25,0,0,0,.3,0c.19-.2.17-.31.17-.31s1.5.07,2,0a33.07,33.07,0,0,0,3.35-.85,7.25,7.25,0,0,1,.89-.21l.1.11-.82.22-.11.39.12,0s.09-.26.16-.28.19-.07.16,0-.1.52-.12.56-.16.07-.16.07l-.05.14a3.65,3.65,0,0,1,.36-.12l.39-.11,0-.11a.66.66,0,0,1-.18,0c-.05,0,0-.12,0-.15s.08-.33.08-.36.11-.12.15-.09,0,.11,0,.11h.08s-.07.14,0,.14a1.34,1.34,0,0,0,.2,0Zm-1.45-1.71a.62.62,0,0,1,.17.2,1,1,0,0,0,.08.16s1.27.15,1.38.19a4,4,0,0,1,.44.18.78.78,0,0,1,.29.23,1.28,1.28,0,0,1,.16.43c0,.08-.09-.11-.09-.11s-.08.1-.14.11.12-.11.12-.19-.08,0-.14,0,.06-.05.06-.1a.56.56,0,0,0,0-.13.22.22,0,0,1-.09.1c-.07,0,0-.13,0-.13l-.21-.06L44.33,19s.25.12.27.2a1.21,1.21,0,0,1,.07.34.16.16,0,0,1-.13.15l-.15,0s.13-.05.16-.13a.93.93,0,0,0,0-.13.17.17,0,0,1-.1.1l-.11,0a.47.47,0,0,0,.13-.16l0-.08a1.66,1.66,0,0,1-.23.14c-.05,0,.15-.18.15-.18a.73.73,0,0,1-.2.07c-.06,0,.11-.13.11-.13l-.12,0s0-.05,0-.05l-.34-.08.19.23a.62.62,0,0,1,.11.25c0,.06,0,.16-.12.17a.6.6,0,0,1-.2,0s.21,0,.23-.12l0-.09v0a.16.16,0,0,1-.13.12l-.13,0a.38.38,0,0,0,.16-.1l.06-.09a.71.71,0,0,1-.2.08h-.11a.89.89,0,0,0,.22-.11s-.05,0-.12,0a.38.38,0,0,1-.14,0,.39.39,0,0,0,.19-.06c.06-.05,0,0-.08,0a.23.23,0,0,1-.13,0,.33.33,0,0,0,.14,0s0-.06-.06-.05a.86.86,0,0,1-.17,0s0-.08.08-.09l.13,0h-.24l-.22,0a2.89,2.89,0,0,0,.31-.15s-.24,0-.33,0-.41.15-.41.15a1,1,0,0,1,.27-.16,3.31,3.31,0,0,0,.36-.15l-.58.18-.44.23S43,19,43.11,19l.41-.16s-.55.17-.63.21l-.6.37.43-.37.13-.11-.45.25-.36.23s.34-.3.4-.33l.17-.13a4.7,4.7,0,0,0-.57.33,4.62,4.62,0,0,1-.41.27l.37-.34.12-.12-.42.23-.38.24s.34-.35.45-.43a.66.66,0,0,1,.14-.1l-.33.15a3.34,3.34,0,0,0-.32.18,2.77,2.77,0,0,1,.26-.29c.07,0,.31-.25.31-.25l-.46.22-.24.13.51-.4a1.23,1.23,0,0,0,.22-.38,3.73,3.73,0,0,0,0,.44c0,.15.08.18.08.18l.08,0a.5.5,0,0,1,.07-.17,3,3,0,0,0,.29-.44Zm-.38-.67a4.19,4.19,0,0,1,.13.56v.22l.09-.11s-.19.37-.2.41a2.4,2.4,0,0,1-.18.36,1.93,1.93,0,0,1,0-.55,2.68,2.68,0,0,0,.12-.59A.88.88,0,0,1,42.16,17.47Zm-.42,0a2.79,2.79,0,0,1-.07.84c-.1.22-.3.28-.44.37a1.79,1.79,0,0,1-.38.13s.36-.36.5-.54A6.63,6.63,0,0,0,41.74,17.48Zm.82.11a2.21,2.21,0,0,1,.28.34,1.86,1.86,0,0,1,.11.43,2.7,2.7,0,0,1-.21-.35c-.1-.19-.2-.29-.18-.36Zm.51-.23a1.4,1.4,0,0,0,.2.48c.07.08.08.31.11.36l0,.09a3.71,3.71,0,0,0,.06-.43c0-.05,0-.07-.09-.13S43.07,17.36,43.07,17.36Zm-.45-.16a.66.66,0,0,0,0,.2s.15.15.24.26l.23.33a3,3,0,0,0-.21-.57A.84.84,0,0,0,42.62,17.2Zm1,.35s.05.09.11.22a2,2,0,0,1,.11.48,1.78,1.78,0,0,0,.06-.35c0-.13,0-.19,0-.22A2.21,2.21,0,0,0,43.66,17.55Zm.68.28a1.44,1.44,0,0,1-.08.53c0,.06,0-.2,0-.3a.25.25,0,0,1,0-.23A.19.19,0,0,1,44.34,17.83Zm-.25-.77a3.16,3.16,0,0,0,.2.43l.43.15a.62.62,0,0,0-.19-.18.81.81,0,0,1-.28-.23A1.47,1.47,0,0,0,44.09,17.06Zm-.83-.51s.36.06.43.21.08.28.15.39a1.68,1.68,0,0,0,.24.28,1.23,1.23,0,0,1-.41-.29c-.1-.16-.12-.26-.2-.38A.91.91,0,0,0,43.26,16.55Zm-.69-.23a1,1,0,0,1,.52.32,4.57,4.57,0,0,1,.24.56,1.16,1.16,0,0,0,.17.22.78.78,0,0,1-.39-.33,2,2,0,0,0-.27-.52Zm-.79,0s.27,0,.32.21a.89.89,0,0,1,0,.41.42.42,0,0,0,.11.28,1.14,1.14,0,0,0,.2.1l-.3,0a.37.37,0,0,1-.23-.35c0-.13.14-.22.11-.32s-.26-.21-.26-.21Zm0-.29s.35,0,.49.14.23.37.32.41a1.29,1.29,0,0,1,.24.21A1.08,1.08,0,0,1,43,17a.82.82,0,0,0-.24-.18,1,1,0,0,1-.42-.29c-.08-.12-.2-.27-.3-.3a1.4,1.4,0,0,1-.22-.08Zm-2.17.23a.64.64,0,0,1,.32.07c.07.06.17.14.13.16a1.54,1.54,0,0,1-.34.08c-.07,0-.14-.1-.14-.17A.5.5,0,0,1,39.63,16.28Zm.62-.65c-.13,0-.17,0-.19,0s0,.11,0,.11h.15l.21,0s0,0-.06,0a1.16,1.16,0,0,0-.37,0c-.1,0-.37.2-.37.2a.28.28,0,0,1,0-.22l.14-.25s-.12,0-.19.07l-.22.1a.6.6,0,0,1,.09-.21l.22-.39S40,15,40,14.85a.35.35,0,0,0-.05-.28s.15,0,.19.1a.34.34,0,0,1,0,.25.59.59,0,0,0,.15-.32,1,1,0,0,0,0-.36l0,0a.44.44,0,0,1,.12.27,1.45,1.45,0,0,1-.09.34s.2-.14.21-.24,0-.4,0-.44a.2.2,0,0,1,0-.08s.18.2.15.34a1.19,1.19,0,0,1-.13.29A.88.88,0,0,0,41,14.5a2,2,0,0,0,.16-.44.71.71,0,0,1,.08.26.47.47,0,0,1-.16.3l-.22.22.08,0a.89.89,0,0,1,.31-.23,1.52,1.52,0,0,0,.44-.14,2.27,2.27,0,0,0,.17-.22.63.63,0,0,1-.11.28,2.07,2.07,0,0,1-.42.31,1,1,0,0,0-.19.13l.06,0a1.74,1.74,0,0,1,.5-.22c.18,0,.42,0,.45-.11l.06-.12s.07.22-.08.27a4.52,4.52,0,0,1-.47.1,2.15,2.15,0,0,0-.31.22l.06,0a.66.66,0,0,1,.53-.23.83.83,0,0,1,.4.06,1.82,1.82,0,0,1,.24.13,1.81,1.81,0,0,0-.37,0,1.28,1.28,0,0,0-.47.16l0,0a1.24,1.24,0,0,1,.5-.07.78.78,0,0,1,.46.2c.06.08.12.25.19.3l.2.09s-.18.07-.57-.24a.79.79,0,0,0-.77-.09l0,.11a.73.73,0,0,1,.43.05,1.19,1.19,0,0,1,.39.29,1.29,1.29,0,0,0,.32.31s-.19,0-.26-.07-.32-.22-.45-.27a.78.78,0,0,0-.32-.09.43.43,0,0,0-.17,0l-.27-.37a2.49,2.49,0,0,0-.17-.24l-.11.1a1.55,1.55,0,0,1,.26.32c.06.14.21.59,0,.83a1,1,0,0,1-.16.12l.22.07,0,0-.23-.07-.08.08.13,0,.14,0,0,0-.16,0-.12,0-.07.05-.06,0,.1.06.12,0,0,0A.71.71,0,0,1,41,17l-.12-.08h-.15l-.14,0a.32.32,0,0,1,0-.1s0-.07.09-.09a1,1,0,0,0,.25-.1s0-.07,0-.12a.38.38,0,0,1-.1-.1l.11-.1.08-.08a1.16,1.16,0,0,1,0,.16v.18a1.69,1.69,0,0,0,.27-.27.62.62,0,0,0,0-.24c0-.1-.09-.31-.16-.34s-.18,0-.16.07a.46.46,0,0,1,.09.15s.05,0-.17.27a1,1,0,0,1-.63.32s-.19-.21-.09-.36a1.21,1.21,0,0,1,.32-.25s.07-.14.07-.14A.91.91,0,0,0,40.25,15.63Zm.5.39c.08,0,0,.12,0,.1S40.67,16,40.75,16Zm0-.17c-.07,0,0,.16,0,.11S40.79,15.83,40.74,15.85Zm-.15,0s.06.16-.05.13S40.53,15.85,40.59,15.86Zm.23,0c-.07,0-.07-.12,0-.14S40.9,15.8,40.82,15.81Zm-.18,0c.06,0,.06-.12,0-.11S40.59,15.82,40.64,15.81Zm.15-.3c.1,0,.14.08,0,.1s-.11,0-.09,0A.07.07,0,0,1,40.79,15.51Zm-.51-.22,0,.09a.6.6,0,0,1,.18,0l.22.06a1,1,0,0,1,.12-.22,1.9,1.9,0,0,1,.2-.18L41,15s-.21.12-.35.18A2.9,2.9,0,0,1,40.28,15.29Zm.06-.25.07.06a.24.24,0,0,1-.1.06l-.09,0,0,.15s0,.1,0,.1l.18,0a1,1,0,0,1,.22.08l0,.08a.94.94,0,0,0-.17-.05h-.33a.92.92,0,0,0,0-.22,1,1,0,0,1,0-.24l.15,0Zm2.9,1s.14,0,.18,0a1.12,1.12,0,0,0,.22.16.39.39,0,0,1,.16.14,1.27,1.27,0,0,1,.14.18,1.23,1.23,0,0,0-.29-.18,1,1,0,0,1-.27-.15A1.36,1.36,0,0,1,43.24,16Zm-.47-.77a2.42,2.42,0,0,1,.57.35,1.26,1.26,0,0,0,.52.14.52.52,0,0,1-.28.12.44.44,0,0,1-.39-.16,2.26,2.26,0,0,0-.31-.37S42.77,15.26,42.77,15.26Zm-1.31-1.15s.36-.32.55-.15a.34.34,0,0,1,.08.44s0-.3-.13-.36a.32.32,0,0,0-.26,0l0,0a.38.38,0,0,1-.1.26.29.29,0,0,1-.22,0,.46.46,0,0,0,.16-.08.29.29,0,0,0,.09-.15s0,0-.09,0a.73.73,0,0,0-.14.11.87.87,0,0,1,.13-.16.6.6,0,0,0,.11-.1Zm0-.46s-.12.06-.07.14a.35.35,0,0,0,.08.1l-.11.08a.29.29,0,0,0-.06.1l-.14-.1-.07.1s-.07-.11,0-.24a.42.42,0,0,1,.29-.21A.07.07,0,0,1,41.42,13.65Zm1,1a1.89,1.89,0,0,1,.31-.11l.29,0a.57.57,0,0,0-.34,0A.32.32,0,0,0,42.43,14.68Zm-.93-.88.21-.11a.12.12,0,0,0-.15,0C41.46,13.66,41.5,13.8,41.5,13.8Zm-.66,0c-.06.05-.07.13,0,.15s-.14,0-.12-.08.1-.07.1-.07Zm0-.27c-.07,0-.08.13,0,.09S40.89,13.56,40.89,13.56Zm.78-.2c0,.11-.26.16-.23,0s.22,0,.22,0Zm-.46.09a.08.08,0,0,0,0-.15C41.08,13.31,41.11,13.48,41.21,13.45Zm-.79.39.26,0-.06.14Zm-.2.09-.15.19S40,14.09,40,14,40.22,13.93,40.22,13.93Zm-.52.31s-.14,0-.11-.12.2,0,.2,0-.09,0-.11,0A.17.17,0,0,0,39.7,14.24Zm-.52.25c0,.09.13.1.13,0S39.18,14.49,39.18,14.49Zm.09-.28c.1,0,.17.12.09.12S39.27,14.21,39.27,14.21Zm.67.17-.16.25s-.38-.06-.3-.22S39.94,14.38,39.94,14.38Zm1.49,3.28c-.07.14-.15.39-.24.54a1.15,1.15,0,0,1-.39.43,1.49,1.49,0,0,1-.31.14s.18-.27.26-.36a2.89,2.89,0,0,0,.25-.24,3.4,3.4,0,0,0,.23-.27Zm-1.72.79a.66.66,0,0,0,.34-.13,3,3,0,0,1,.58-.23,1.12,1.12,0,0,0,.29-.19l.2-.25a1.16,1.16,0,0,1-.45.62,2.78,2.78,0,0,1-.68.25A.44.44,0,0,1,39.71,18.45Zm0-.45a1.46,1.46,0,0,1,.45-.12,1,1,0,0,0,.5-.2,1.46,1.46,0,0,1,.24-.15s-.17.3-.31.35a1.59,1.59,0,0,1-.5.15A3.47,3.47,0,0,1,39.76,18Zm-4,2.13c0,.06-.13.14-.13.16l0,0,0,0,.08-.08a.31.31,0,0,1,.07-.08ZM35.6,20s-.09.13-.11.13h-.11Zm.95.36-.17.09a.26.26,0,0,0-.08.05l0,0,.16-.08Zm.11-.13,0,.05a2.06,2.06,0,0,0-.24.08l-.14.06a.32.32,0,0,1,.1-.08l.26-.09Zm.2-.2c0,.08-.27.58-.47.57s-.32-.12-.22-.24a.64.64,0,0,1,.35-.2.45.45,0,0,0,.22-.05Zm-.77.06a.17.17,0,0,0,.13,0l.25-.11,0,0-.2.1-.13.07Zm.12-.14a.23.23,0,0,1,.09,0l-.2.09-.08,0v0ZM36,20l0,0,.18-.1.07,0-.15.05Zm0-.09,0,0,.16-.09.07,0Zm.83.12-.31-.11a1.21,1.21,0,0,1-.23-.14c-.08-.05-.06-.07-.14-.05a.28.28,0,0,0-.16.11l.12-.07s-.14.09-.15.12,0,.11,0,.13,0,.1.11.15.11,0,.24,0a2.14,2.14,0,0,1,.36-.12h.12Zm5.35-.11-.41.12,0,.08.1,0s.07,0,.06.1-.15.47-.16.5a.14.14,0,0,1-.07.08l-.09,0,0,.11.58-.15.39-.12,0-.31h-.06s-.11.19-.14.22a1.53,1.53,0,0,1-.26.08s0,0,0,0,0-.15,0-.18,0,0,.05,0,0,0,.06,0l.09.07.09-.37-.16.15-.07,0s0,0,0,0,0-.18.06-.2a.84.84,0,0,1,.19-.07s.1.1.11.14.08,0,.08,0l.05-.33Zm-.67.44.09.14-.17.24-.11-.16Zm-1.27.09.28-.07.28-.06,0,.11,0,0s0,0,0,.08-.09.37-.1.42.21.2.3,0,.15-.49.16-.51,0,0-.05-.05l-.1,0,0-.09.46-.15,0,.1-.11.05s-.05.05-.07.1-.14.44-.17.53a.47.47,0,0,1-.46.27c-.2,0-.31-.1-.26-.29s.08-.3.09-.34,0,0-.06,0l-.11,0Zm-1,.15.49-.05.42-.08a3,3,0,0,1-.12.29s-.1-.12-.12-.12a.71.71,0,0,0-.2,0s0,0,0,0-.05.12-.06.14,0,.05,0,.05.12,0,.13,0a.93.93,0,0,1,.15-.13,1.2,1.2,0,0,1-.09.29L39.67,21s-.1,0-.12,0,0,0,0,0-.07.2-.08.21,0,0,0,0a.53.53,0,0,0,.23-.06c.07,0,.16-.15.19-.15H40l-.12.3a5.22,5.22,0,0,1-.58.05h-.42l0-.07.09,0s.1-.06.12-.1.17-.32.19-.38a.06.06,0,0,0-.05-.08h-.1Zm-.68,0h.56l0,.08H39a.18.18,0,0,0-.09.1c0,.05-.16.39-.18.42a0,0,0,0,0,0,.06h.08l0,.07h-.58l0-.08h.08s.09,0,.1-.07.16-.37.18-.42,0-.07,0-.08h-.07Zm-.82.09s-.25.44-.27.46,0,0,.06,0,.3,0,.39-.13a.55.55,0,0,0,.11-.24s0-.1-.11-.12l-.16,0Zm-.41-.14-.06.09h.11s0,0,0,.06-.22.41-.24.43a.1.1,0,0,1-.08,0h-.16l-.06.08.93,0c.13,0,.48-.16.51-.37s0-.31-.3-.34S37.26,20.56,37.26,20.56Zm-.35-.4a.92.92,0,0,1-.12.3l-.14.15s.07.15.18.13.32-.15.31-.29-.11-.19-.16-.23A.23.23,0,0,1,36.91,20.16ZM37,20.1a.71.71,0,0,1,.2.12c.11.09.16.11.19.07s-.08-.1-.14-.13l-.17-.08Zm3.74-1s0,.18,0,.27a1.52,1.52,0,0,0,0,.25.46.46,0,0,1,0-.31A.31.31,0,0,1,40.74,19.12Zm-.28-.19s0,.33,0,.39,0,.43,0,.43a1.79,1.79,0,0,1-.14-.47A1.06,1.06,0,0,1,40.46,18.93Zm-.3-.06,0,.87a3.42,3.42,0,0,1-.06-.57A1.67,1.67,0,0,1,40.16,18.87Zm-.25-.14s0,.21-.06.31,0,.37,0,.37a4,4,0,0,1,0-.45A.56.56,0,0,1,39.91,18.73ZM37.24,19.9a1.65,1.65,0,0,1,.21.09s0,0-.06,0L37.16,20Zm.09-.06.24,0s0,0,0,0l-.27,0Zm.12-.1-.06.06h.17s.07,0,0,0ZM37,20a3.19,3.19,0,0,0,.32-.22.87.87,0,0,1,.21-.16s.19,0,.19.11-.08.39-.29.33a.81.81,0,0,0-.32-.06Zm.39-.64s0,.2,0,.22.05,0,.05,0,0-.12,0-.15S37.35,19.39,37.35,19.39Zm-.1-.05s0,.34,0,.34l-.06,0s0-.2,0-.27,0-.08,0-.08Zm-.16.05a.07.07,0,0,0,0,.1c0,.07.06.31.06.31l0-.05s0-.17,0-.24S37.09,19.39,37.09,19.39Zm-.15.08s0,0,0,.11a1.33,1.33,0,0,1,.06.31l0,0a1.87,1.87,0,0,0,0-.29C37,19.49,36.94,19.47,36.94,19.47Zm.53,0s.05,0,0,.09l0,.06a.21.21,0,0,1,0-.08A.14.14,0,0,1,37.47,19.42Zm.26-.35c.07,0,.54-.36.71-.43a1.43,1.43,0,0,1,.29-.11l-.33.22s-.66.42-.66.42Zm2.55,1a1.28,1.28,0,0,1-.74-.69c-.3-.56-.44-1.22-.8-1.1a6,6,0,0,0-1.07.74l0,.26s.7-.43.91-.51a1.39,1.39,0,0,1,.31-.09l-.5.29-.64.45s.7-.4.84-.45a1.88,1.88,0,0,1,.45-.13l-.49.27a7.45,7.45,0,0,1-.65.39l-.09,0a1.25,1.25,0,0,0,.29-.11c.1-.06.55-.3.64-.33a2.24,2.24,0,0,1,.42-.09,3.26,3.26,0,0,0-.4.21c-.09.07-.39.26-.48.31l-.28.14a3.58,3.58,0,0,0,.41-.17,2.55,2.55,0,0,1,.62-.28.63.63,0,0,1,.25,0l-.34.15a4.89,4.89,0,0,0-.48.25l-.2.12.52-.23a2.21,2.21,0,0,1,.39-.13h.19l-.27.11s-.48.26-.51.29l.19-.06a2.25,2.25,0,0,1,.46-.15h.28a2,2,0,0,1-.25.09c-.13,0-.44.2-.48.21l.44-.14c.08,0,.36,0,.36,0l-.24.08a3.3,3.3,0,0,0-.37.2l.44-.13c.11,0,.34,0,.34,0a3,3,0,0,0-.33.11l-.23.1.33-.08.32,0-.28.11-.22.12a2.52,2.52,0,0,1,.32-.07l.36,0-.23.08c-.16.07-.25.11-.21.11S40.28,20,40.28,20Zm-2.09-1.62c.06,0,.16-.06.12,0l-.48.36a2.44,2.44,0,0,1-.4.26c-.13,0-.34-.27,0-.59s.56-.06.63,0A.73.73,0,0,0,38.19,18.42Zm-1.47,1.17s0,0,0,0,0,.12,0,.14a.31.31,0,0,1,0,.09.35.35,0,0,1,0,.06l0,0v-.12a.75.75,0,0,0,0-.2Zm-.13-.15s0,.18,0,.21a2,2,0,0,0,0,.22l0,0a.65.65,0,0,0,0-.14s0-.28,0-.3S36.59,19.44,36.59,19.44Zm-.07,0s-.05,0-.06,0a1.64,1.64,0,0,1,0,.23.84.84,0,0,0,0,.16l.05,0a1.6,1.6,0,0,1,0-.22S36.52,19.43,36.52,19.43Zm-.19,0s0,0,0,.05v.26l0,0v-.32S36.33,19.41,36.33,19.41Zm-.11.18s0,0,0,0v.05s0,0,0,0S36.22,19.59,36.22,19.59Zm.33-.51s0,0,0,0,0,.05,0,.07,0,0,.07,0h0l.16,0s0-.06-.05-.07h0s-.06,0-.1,0h-.07S36.55,19.08,36.55,19.08Zm-1.06.06-.14.11-.08.05-.07.06s0,0,0,0a1,1,0,0,0-.1.13s0,.1,0,.1l.34-.06.22-.05a.33.33,0,0,0,.1,0l.05,0s.15-.05.17-.08l0,0,.26-.11s0,0,0-.05,0-.11,0-.13-.09-.09-.1-.11-.07-.13-.09-.13,0,0,0,0a.13.13,0,0,1,0,.05s0-.06-.05-.06l0,0a.08.08,0,0,1,0,.05S36,19,36,19l.07,0S36,19,36,19s0-.05,0,0-.09.05-.11.06,0,.08,0,.08,0,0,0,0-.07.05-.1.06a.13.13,0,0,1-.07,0s-.07,0-.08,0Zm.8-.65s.06,0,.07,0l0,0,.15-.05.12,0,.1,0a.26.26,0,0,0,.09-.06h0l.08,0,0,.06a.77.77,0,0,1,0,.15s-.12.2-.17.25-.12.23-.15.24-.12,0-.14,0,0,0-.05,0l-.17-.06s0,0,0,0l-.11,0s0-.05,0-.05,0,0,0,0v-.07s-.05,0,0,0l.09,0s0,0,0,0,.07,0,.06-.06l0-.06.17-.07.24-.08a.75.75,0,0,0,.12-.07s-.14.05-.2.07l-.29.11S36.29,18.49,36.29,18.49Zm.1.31s-.11,0-.1,0h.14l.09,0h.06s0,0-.06,0Zm.26-.1s0,0,0,0h-.18a.12.12,0,0,0-.08,0s-.14.06-.15,0,0,0,0,0l.19,0Zm.07-.14s0,0,0,0h-.16l-.14,0a.08.08,0,0,1,0,0v0l.18-.05Zm.07-.14-.1.06-.22.05-.11,0v0l.25-.09Zm-.55.14v.05s0,0,0,0-.07,0-.07,0,0,0,0-.06Zm-.11-.12s-.06,0-.06,0,0,0,0,0,.07,0,.07,0S36.13,18.44,36.13,18.44Zm.11-.13s0,0,0,.05-.06.06-.07.05,0,0,0,0,0,0,0,0a.09.09,0,0,1,0-.05Zm.45-.38s0,0,0,.06l-.1.1-.08.15s0,0,0,0a.65.65,0,0,1,.09-.16s.1-.07.11-.09A.15.15,0,0,1,36.69,17.93Zm-.25-.16s0,.06,0,.08l0,.1s-.07.17-.08.19l0,.06a.1.1,0,0,1,0,0s0,0,0,0a0,0,0,0,1,0,0h-.07a.35.35,0,0,1-.08.1l0,0,0,0,.06-.05,0-.05,0-.07s0-.06-.08-.06S36,18,36,18s0-.13,0-.16,0,0,0,0,.18-.07.2-.09l.21-.06s.1,0,.12,0,.12.1.13.12.05.09.08.08a.07.07,0,0,1,.06,0,.16.16,0,0,0,.05.06.1.1,0,0,1,0,.1,2.13,2.13,0,0,1-.32.23l-.16,0s0,0,0-.05,0-.05,0-.08,0-.15.06-.16l0,0a1.55,1.55,0,0,1,0-.15Zm-.28,0s0,.06,0,.08,0,.21,0,.23,0,.11,0,.13,0,.05,0,0,0-.13,0-.16a1.85,1.85,0,0,0,0-.24A.14.14,0,0,0,36.16,17.76Zm-.24,1.38a.06.06,0,0,0,0,.06v-.06Zm.17-.12s0,0,0,.06l0,.05s0,0,0,0l0-.06Zm-.34.15a0,0,0,0,1,0,0,.66.66,0,0,1,0,.11V19.2A0,0,0,0,1,35.75,19.17ZM35.58,19a.08.08,0,0,0,0,.08s0,0,0,0,.07,0,.08,0a.05.05,0,0,0,0-.05s0,0,0,0a.06.06,0,0,0,0,0Zm.28-.16s0,0,0,0,0,.06,0,.07-.1,0-.1,0,0-.08,0-.08,0,0,.06,0Zm.19-.15-.06,0s0,0,0,0,.11,0,.1,0S36.05,18.71,36.05,18.71Zm-.19-.05s0,0,0,.06,0,.05,0,.05.07,0,.08,0,0,0,0-.06,0-.05,0,0,0,0,0,0,0,0,0,0Zm0-.18s-.06.07,0,.08.07,0,.09,0,0,0,0-.05,0,0,0,0Zm-.26.3s0,.08,0,.1.08,0,.1,0,0,0,0-.07,0,0,0,0Zm-.11.1a0,0,0,0,1,0,0s0,.06,0,.06-.13,0-.1,0A.44.44,0,0,1,35.48,18.88Zm.1.33h0a.49.49,0,0,1,0,.09s-.06.1-.08.1,0,0,0,0l.05-.07s0,0,0,0,0,0,0,0Zm0-.6s0,.05,0,.06a0,0,0,0,0,.07,0l.08-.05s0-.06,0-.06l0,0s0,0,0,0A.25.25,0,0,0,35.54,18.61Zm-.13,0s0,0,0,.06,0,0,0,0a0,0,0,0,0,0,0s0,0,0,0l.06,0s0,0,0-.06Zm.42-.21s0,0,0,0,.11,0,.1,0,0-.05,0,0Zm.16-.24s0,.05,0,.05,0,.08,0,.08.12,0,.12-.06S36,18.15,36,18.15Zm-.48.28a0,0,0,0,1,0,0s.05.05,0,.06h0a.07.07,0,0,1,0,0s-.09,0-.08,0a.07.07,0,0,1,0,0s0,0,0,0S35.51,18.43,35.51,18.43Zm.23-.06,0,.06s0,.07-.08.07,0,0,0-.05a.08.08,0,0,1,0-.05Zm0-.09-.08,0s0,0,0,0,0,0,.06,0,0,0,.05,0S35.7,18.28,35.7,18.28Zm.19,0a.13.13,0,0,1,0-.14.23.23,0,0,1,.06-.06.43.43,0,0,0,0-.17.17.17,0,0,0-.12-.07H35.7a.73.73,0,0,1-.13.1,1.82,1.82,0,0,1-.23.15c-.05,0-.05,0-.07,0l-.06.08a.09.09,0,0,0,0,.09.21.21,0,0,0,.1.13s.12.05.12,0,.05,0,.05-.06a.21.21,0,0,0-.05-.09l-.08-.15a.76.76,0,0,1,.13.13.3.3,0,0,0,.09.1s0-.06,0-.08v0a1.18,1.18,0,0,0-.06-.13.32.32,0,0,1,0-.08.58.58,0,0,1,.05.09l0,.11,0,0,0-.24.05,0a.72.72,0,0,0,0,.13.54.54,0,0,1,0,.11l.08,0a.33.33,0,0,1,0,.06,1.25,1.25,0,0,1,0-.21c0-.12,0-.13,0-.13h0a.6.6,0,0,0,0,.11.41.41,0,0,0,0,.19S35.89,18.32,35.89,18.32Zm-1,.75a.41.41,0,0,1,.19-.09l.19-.05a1.18,1.18,0,0,1-.18.08A1.2,1.2,0,0,1,34.89,19.07Zm.22-.26.12,0h.06a.16.16,0,0,1-.08,0Zm0-.09h.09l.05,0a.06.06,0,0,1-.05.06A.1.1,0,0,1,35.14,18.72Zm.25-.15a.14.14,0,0,0-.06.07s-.06.11,0,.12.17,0,.19,0,0,0,0,0,0,0-.05,0h-.09l0,.06a.27.27,0,0,0-.09.06s0,0,0,.07a.06.06,0,0,0,.06,0l0,0s0,0,0,.05l-.12.08a1.93,1.93,0,0,1-.34.11c-.05,0-.19,0-.19,0v-.13s0-.09.08-.11.11-.08.11-.13,0-.21,0-.24.06-.08.12-.07A2.27,2.27,0,0,0,35.39,18.57Zm-.76.48.22-.12s0,0,0,0l-.09.05A.63.63,0,0,1,34.63,19.05Zm-.1,0a.52.52,0,0,1,.18-.13.6.6,0,0,1,.18,0l-.09,0-.17.07Zm-.16-.12s.12-.05.19-.06a.34.34,0,0,1,.16,0l-.09,0a.51.51,0,0,1-.14,0Zm.84-1.11h-.1l.07,0,0,0v0h-.17l.1,0a.18.18,0,0,0,.08,0v0h0a.39.39,0,0,1-.13,0l0,0a.27.27,0,0,0,.13,0s0,0,0,0l0-.05a.81.81,0,0,1,0-.22,1.69,1.69,0,0,0-.09-.34.44.44,0,0,0,0,.12.15.15,0,0,0,0,.06l-.07,0a.28.28,0,0,1,.08.08.21.21,0,0,1,0,.06h-.1l.07,0h0l-.06,0Zm-.44.49a.07.07,0,0,0,0,0s-.08,0-.11,0l-.15.05-.11,0,.12-.07.09,0ZM33.94,18h.24a.47.47,0,0,0,.16,0h.13a.33.33,0,0,1,.17,0s.12.07.15.1l.07.06a.78.78,0,0,0-.19,0,2.46,2.46,0,0,0-.24.07l-.16,0H34.2a.63.63,0,0,0,.19,0,.56.56,0,0,1,.17-.07.21.21,0,0,0,.08,0,.58.58,0,0,0-.16,0c-.06,0-.16.05-.22.05H34.1l.21-.06a.54.54,0,0,1,.15,0h-.38a.17.17,0,0,1,.08,0h.07L34.06,18Zm-.07-.22a.94.94,0,0,1,.14.1.87.87,0,0,0,.12.09A.3.3,0,0,1,34,18,.76.76,0,0,1,33.87,17.79Zm3,0s.29,0,.37-.09.2-.34.36-.38a5,5,0,0,1,.84-.11.55.55,0,0,1,.44.2A.93.93,0,0,1,39,18a.38.38,0,0,1-.41.18,7,7,0,0,1-.77-.18,1.21,1.21,0,0,0-.49.09,1.75,1.75,0,0,1-.23.11l-.12-.1L37,18l-.12-.1ZM37,16.54s.13.05.12.11v.24s.06.08.06.08-.13,0-.14-.07a2.35,2.35,0,0,0,0-.28A.16.16,0,0,0,37,16.54Zm-1.72-.13a.28.28,0,0,0,.3.14c.21,0,.37-.08.48-.07a.35.35,0,0,1,.32.2.34.34,0,0,1,0,.3.35.35,0,0,0,.14.45.5.5,0,0,0,.72-.17c.17-.19.31-.14.48-.16a4.8,4.8,0,0,1,.93,0c.16,0,.25.2.36.4a1.19,1.19,0,0,1,.13.43c0,.06-.07.21-.07.21s.17-.09.17-.22a2.16,2.16,0,0,0-.41-.9,1.58,1.58,0,0,0-.68-.11,5.48,5.48,0,0,0-.87.1c-.19.06-.42.2-.45.08a1.07,1.07,0,0,1,0-.37c0-.15-.28-.21-.28-.21s.16.12.16.23-.06.3,0,.4a.19.19,0,0,0,.2.05l.23-.06s-.15.24-.27.26-.37,0-.43-.16,0-.28,0-.4a.51.51,0,0,0-.21-.39.54.54,0,0,0-.34-.05c-.16,0-.26.09-.38.11A1,1,0,0,1,35.28,16.41Zm13,1.85.09,0-.28,1v.08l0,0,0-.07-.27,0,0,0s0,0,0-.06l.59-1.09Zm2.27,2.54a3.37,3.37,0,0,0,1.33-2.92,3.23,3.23,0,0,0-1.16-2.52,3.61,3.61,0,0,0-.3-.25s0,.09-.08.07a3.12,3.12,0,0,0-1.78-.46,3.66,3.66,0,0,0-1.68.51s-.1-.11-.14-.07a3.92,3.92,0,0,0-1.3,2.34c-.11,1.18,0,1,0,1l1-.26a3.3,3.3,0,0,1,.33-1.46,2.33,2.33,0,0,1,1.82-1,2.1,2.1,0,0,1,2.09,1.62,2.26,2.26,0,0,1-.46,2.17,8.84,8.84,0,0,1-1,.73L50,21l-.55-.78.07-.06.68.8-.57-.82.71.76-.62-.79.74.71L49.8,20l.76.73Zm-2.27-7a.43.43,0,0,1,.25-.06l.32,0s0,.06,0,.06l-.14,0s0,.15,0,.16-.05-.16-.05-.16h-.07s0,.18,0,.18-.06-.19-.06-.19l-.15,0,0,0v0Zm0-.12a1.76,1.76,0,0,1,.37-.05.79.79,0,0,1,.36.05.38.38,0,0,0-.37-.33c-.4,0-.36.32-.36.32ZM41,15.32s.4.35.43.58,0,.43-.15.49-.11,0-.06,0a.42.42,0,0,0,.08-.48.93.93,0,0,0-.33-.45l0-.11Zm1.84-.57a1.57,1.57,0,0,0-.41.16h.44c.15,0,.29-.08.36-.09h.06Z" transform="translate(-0.61 -1.48)" style="fill:#fff;fill-rule:evenodd"/><path d="M13.58,21.16H9.3v-.1l1.19-.51V14.2h0a3,3,0,0,0-.68.07,1.49,1.49,0,0,0-.57.3C9,14.78,7.71,16,7.71,16l-.14-.05.19-2.06H15l.24,2.06-.14.05s-1.27-1.19-1.51-1.4a1.52,1.52,0,0,0-.58-.3,2.47,2.47,0,0,0-.61-.07h0v6.34l1.22.51Z" transform="translate(-0.61 -1.48)" style="fill:#fff;fill-rule:evenodd"/><path d="M69.05,21.16H64.76v-.1L66,20.55V14.2h0a2.91,2.91,0,0,0-.68.07,1.45,1.45,0,0,0-.58.3c-.24.21-1.52,1.4-1.52,1.4L63,15.92l.19-2.06h7.2l.24,2.06-.14.05s-1.28-1.19-1.52-1.4a1.45,1.45,0,0,0-.58-.3,2.41,2.41,0,0,0-.6-.07h0v6.34l1.21.51Z" transform="translate(-0.61 -1.48)" style="fill:#fff;fill-rule:evenodd"/><polygon points="23.23 12.99 24.21 12.48 24.21 12.38 20.4 12.38 20.4 12.47 21.39 12.98 21.39 15.7 17.72 15.72 17.72 12.99 18.7 12.48 18.7 12.38 14.88 12.38 14.88 12.47 15.87 12.99 15.87 19.08 14.88 19.58 14.88 19.68 18.7 19.68 18.7 19.57 17.72 19.07 17.72 16.13 21.39 16.16 21.39 19.08 20.4 19.58 20.4 19.68 24.21 19.68 24.21 19.57 23.23 19.07 23.23 12.99" style="fill:#fff;fill-rule:evenodd"/><polygon points="71.32 19.08 70.34 19.58 70.34 19.68 74.15 19.68 74.15 19.57 73.17 19.07 73.17 12.99 74.15 12.48 74.15 12.38 70.34 12.38 70.34 12.47 71.32 12.98 71.32 19.08" style="fill:#fff;fill-rule:evenodd"/><path d="M32,21.16H25.17v-.1l1-.5V14.47l-1-.51v-.1h6.61l.14,1.9-.12,0s-1.06-1-1.3-1.2a1.45,1.45,0,0,0-.58-.3,3.25,3.25,0,0,0-.68-.08l-1.2,0v3.09l1.41,0c.19,0,.27,0,.53-.31s.56-.63.56-.63h.14v2.44h-.14s-.66-.88-.72-.91a.63.63,0,0,0-.5-.16l-1.28,0v3.15s.72,0,1.3,0a2.07,2.07,0,0,0,1.29-.34C31,20.13,32,19.07,32,19.07l.15.05Z" transform="translate(-0.61 -1.48)" style="fill:#fff;fill-rule:evenodd"/><path d="M93.17,19.12,93,19.07s-1,1.06-1.38,1.36a2,2,0,0,1-1.28.34c-.58.05-1.31,0-1.31,0V17.66l1.28,0a.67.67,0,0,1,.51.16s.72.91.72.91h.14V16.31h-.14s-.35.41-.56.63-.34.28-.54.31l-1.41,0V14.19l1.21,0a3.31,3.31,0,0,1,.68.08,1.49,1.49,0,0,1,.57.3c.25.21,1.31,1.2,1.31,1.2l.12,0-.15-1.9H86.2V14l1,.51v6.09l-1,.5v.1H93" transform="translate(-0.61 -1.48)" style="fill:#fff;fill-rule:evenodd"/><polygon points="80.11 17.38 82.56 12.38 85.25 12.38 85.25 12.48 84.27 12.99 84.27 19.07 85.25 19.57 85.25 19.68 81.43 19.68 81.43 19.58 82.42 19.08 82.42 13.88 79.53 19.58 79.18 19.58 76.11 13.76 76.11 19.07 77.08 19.57 77.08 19.68 74.52 19.68 74.52 19.58 75.51 19.08 75.51 12.98 74.52 12.47 74.52 12.38 77.42 12.38 80.11 17.38" style="fill:#fff;fill-rule:evenodd"/><path d="M98.61,14l.15,1.8-.13,0s-1.38-1.37-1.54-1.48a1.31,1.31,0,0,0-1.42,0,.85.85,0,0,0-.24,1.19,5.15,5.15,0,0,0,2,1.5c.32.18,2,.9,1.76,2.38a2.43,2.43,0,0,1-2.14,1.9A9.53,9.53,0,0,1,94,21l-.14-1.9H94a9.87,9.87,0,0,0,1.91,1.68,1.6,1.6,0,0,0,1.73-.27A1.07,1.07,0,0,0,97.31,19c-.62-.38-1.52-.82-2.16-1.2A2.47,2.47,0,0,1,93.9,16a2,2,0,0,1,1.33-2.09,4.43,4.43,0,0,1,1.94-.19C97.75,13.79,98.61,14,98.61,14Z" transform="translate(-0.61 -1.48)" style="fill:#fff;fill-rule:evenodd"/><path d="M13.34,25.59A1.75,1.75,0,0,0,11.6,24h0v3.09c0,2.73,0,2.85.18,3a1,1,0,0,0,.66.18v.18H8.81v-.18a1,1,0,0,0,.66-.18c.16-.15.18-.27.18-3V24h0a1.75,1.75,0,0,0-1.74,1.55H7.67V23.73h5.87v1.86Z" transform="translate(-0.61 -1.48)" style="fill:#fff"/><path d="M17.82,30.49v-.18a.68.68,0,0,0,.51-.16c.18-.16.2-.31.2-2.88H16.47c0,2.57,0,2.72.2,2.88a.68.68,0,0,0,.51.16v.18H13.84v-.18a.7.7,0,0,0,.51-.16c.18-.16.2-.32.2-3s0-2.88-.2-3a.7.7,0,0,0-.51-.16v-.18h3.34v.18a.68.68,0,0,0-.51.16c-.17.15-.2.29-.2,2.76h2.06c0-2.47,0-2.61-.2-2.76a.68.68,0,0,0-.51-.16v-.18h3.34v.18a.7.7,0,0,0-.51.16c-.18.16-.19.31-.19,3s0,2.88.19,3a.7.7,0,0,0,.51.16v.18Z" transform="translate(-0.61 -1.48)" style="fill:#fff"/><path d="M27,30.49H21.56v-.18a.7.7,0,0,0,.51-.16c.18-.16.2-.32.2-3s0-2.88-.2-3a.7.7,0,0,0-.51-.16v-.18h5.31l0,1.86h-.2c-.22-.91-.67-1.51-1.7-1.51h-.81v2.75h.38c.87,0,1.3-.2,1.42-.95h.2v2.41H26c-.12-.74-.55-1-1.42-1h-.38s0,1.45,0,1.7c0,.81.16,1.16,1,1.16s1.41-.57,1.64-1.55h.21Z" transform="translate(-0.61 -1.48)" style="fill:#fff"/><path d="M31.64,30.58A14.57,14.57,0,0,1,30,30.35a.87.87,0,0,0-.44.14h-.17V28.58h.21a1.77,1.77,0,0,0,1.93,1.65c.92,0,1.22-.53,1.22-1,0-1.57-3.4-1.42-3.4-3.53a2.06,2.06,0,0,1,2.36-2.06,14.68,14.68,0,0,1,1.5.2.5.5,0,0,0,.38-.11h.17v1.86h-.21A1.93,1.93,0,0,0,31.68,24c-.75,0-1.08.39-1.08.81,0,1.39,3.62,1.3,3.62,3.67C34.22,29.69,33.14,30.58,31.64,30.58Z" transform="translate(-0.61 -1.48)" style="fill:#fff"/><path d="M40.46,24.93v2.88c0,1.64-.65,2.77-2.69,2.77s-2.74-1-2.74-2.1V26.05c0-1.37-.07-1.87-.2-2a.7.7,0,0,0-.51-.16v-.18h3.34v.18a.68.68,0,0,0-.51.16c-.14.12-.2.6-.2,2v2.65A1.18,1.18,0,0,0,38.3,30c1.05,0,1.6-.72,1.6-2.19V24.93c0-.72-.08-.93-.78-1v-.18h2.12v.18C40.54,24,40.46,24.21,40.46,24.93Z" transform="translate(-0.61 -1.48)" style="fill:#fff"/><path d="M47.62,24.93v5.56h-1l-3.83-4.81v3.61c0,.72.08.93.78,1v.18H41.41v-.18c.7-.09.78-.3.78-1V27.11c0-2.73,0-2.88-.2-3a.7.7,0,0,0-.51-.16v-.18h2.44l3.14,4v-2.8c0-.72-.08-.93-.78-1v-.18H48.4v.18C47.7,24,47.62,24.21,47.62,24.93Z" transform="translate(-0.61 -1.48)" style="fill:#fff"/><path d="M52.28,30.49H48.79v-.18c.32,0,.43-.08.51-.16s.2-.32.2-3,0-2.88-.2-3-.19-.15-.51-.16v-.18h3.32c2.31,0,3.59,1.24,3.59,3.39C55.7,29,55,30.49,52.28,30.49Zm-.42-6.41h-.43v5c0,.68.12,1.08,1,1.08s1.3-1.14,1.3-3C53.7,25.42,53.25,24.08,51.86,24.08Z" transform="translate(-0.61 -1.48)" style="fill:#fff"/><path d="M58.79,30.49v-.18c.6-.06.91-.18.91-.5a7.91,7.91,0,0,0-.49-1.49H57.29a9.87,9.87,0,0,0-.43,1.41c0,.36.25.57.69.57v.19h-2.4v-.18c.74-.14.88-.25,1.28-1.32l1.92-5.26h1.29l2.13,5.62c.25.64.4.91.92,1v.18Zm-.57-4.8-.77,2.19h1.6Z" transform="translate(-0.61 -1.48)" style="fill:#fff"/><path d="M67.12,25l-1.28,2.46c0,2.37,0,2.52.2,2.67s.23.15.64.16v.18h-3.6v-.18c.42,0,.55-.08.64-.16s.2-.3.2-2.67l-1.34-2.35c-.64-1.14-.69-1.16-1.26-1.22v-.18h3.52v.18c-.45,0-.63.12-.63.36s.05.24.36.79l1,1.82.83-1.6a3,3,0,0,0,.42-1c0-.19-.13-.35-.55-.37v-.18h2v.18C67.71,24,67.62,24.08,67.12,25Z" transform="translate(-0.61 -1.48)" style="fill:#fff"/><path d="M75.46,25.59A1.75,1.75,0,0,0,73.72,24h0v3.09c0,2.73,0,2.85.18,3a1,1,0,0,0,.66.18v.18h-3.6v-.18a1,1,0,0,0,.66-.18c.16-.15.18-.27.18-3V24h0A1.75,1.75,0,0,0,70,25.59h-.21V23.73h5.87v1.86Z" transform="translate(-0.61 -1.48)" style="fill:#fff"/><path d="M76,30.49v-.18a.68.68,0,0,0,.51-.16c.18-.16.2-.32.2-3s0-2.88-.2-3a.68.68,0,0,0-.51-.16v-.18H79.3v.18a.7.7,0,0,0-.51.16c-.18.16-.2.31-.2,3s0,2.88.2,3a.7.7,0,0,0,.51.16v.18Z" transform="translate(-0.61 -1.48)" style="fill:#fff"/><path d="M84.76,30.49v-.18a.7.7,0,0,0,.51-.16c.18-.16.2-.32.2-3V25.29l-2,5.21H82.9l-2-5.21v4c0,.72.08.93.78,1v.18h-2v-.18c.62-.08.71-.3.71-1V27.11c0-2.73,0-2.88-.2-3a.7.7,0,0,0-.51-.16v-.18h2.77L84,27.84l1.57-4.11H88.1v.18a.7.7,0,0,0-.51.16c-.18.16-.2.31-.2,3s0,2.88.2,3a.7.7,0,0,0,.51.16v.18Z" transform="translate(-0.61 -1.48)" style="fill:#fff"/><path d="M93.91,30.49H88.5v-.18a.7.7,0,0,0,.51-.16c.18-.16.2-.32.2-3s0-2.88-.2-3a.7.7,0,0,0-.51-.16v-.18h5.31l0,1.86h-.21c-.21-.91-.66-1.51-1.69-1.51h-.81v2.75h.38c.87,0,1.29-.2,1.41-.95h.21v2.41h-.21c-.12-.74-.54-1-1.41-1h-.38s0,1.45,0,1.7c0,.81.15,1.16,1,1.16s1.41-.57,1.64-1.55H94Z" transform="translate(-0.61 -1.48)" style="fill:#fff"/><path d="M96.73,30.58a14.93,14.93,0,0,1-1.66-.23.87.87,0,0,0-.43.14h-.18l.12-1.91h.21a1.65,1.65,0,0,0,1.81,1.65c.93,0,1.22-.53,1.22-1,0-1.57-3.4-1.42-3.4-3.53,0-1.05.68-2.06,2.37-2.06.62,0,1.24.2,1.5.2a.46.46,0,0,0,.37-.11h.17v1.86h-.21A1.92,1.92,0,0,0,96.78,24c-.75,0-1.08.39-1.08.81,0,1.39,3.61,1.3,3.61,3.67C99.31,29.69,98.24,30.58,96.73,30.58Z" transform="translate(-0.61 -1.48)" style="fill:#fff"/></svg>