<svg xmlns="http://www.w3.org/2000/svg" viewBox="0 0 400 400"><g transform="translate(-285 -54)"><g transform="translate(-421 -2289)"><text transform="translate(742 2693)" fill="#fff" font-size="16" font-family="OpenSans-Regular, Open Sans"><tspan x="27.48" y="17">Destination of Leavers from Higher </tspan><tspan x="61.992" y="41">Education survey 2016/17</tspan></text><g transform="translate(-575.666 1897.234)"><path d="M1569.857,498.447c-1.5-1.215-3.562-1.859-4.786-3.318-.529.6,3.466,2.381,4.739,3.745C1570.168,499.019,1569.406,498.222,1569.857,498.447Z" fill="#fff"/><path d="M1564.82,494.579a29.606,29.606,0,0,0,5.188,3.346C1568.592,496.516,1566.58,495.657,1564.82,494.579Z" fill="#fff"/><path d="M1570.128,497.339l1.583.993c-.6-.758-1.687-1.064-2.367-1.734C1569.136,496.679,1569.562,496.993,1570.128,497.339Z" fill="#fff"/><path d="M1573.881,500.625c-1.51-.836-2.406-2.214-3.936-3.028A13.738,13.738,0,0,0,1573.881,500.625Z" fill="#fff"/><path d="M1579.082,504.516c-1.948-1.2-3.68-2.1-6.526-3.518a11.475,11.475,0,0,0,3.388,2.356c-1-1.378.737-.2,1.452.665.357.709-.788-.226-1.452-.665.3.739,1.247.943,1.576,1.655.866-.05,4.281,2.074,5.706,3.21.171-.188-.6-.83-1.458-1.412a6.763,6.763,0,0,0-2.024-1C1579.93,505.409,1578.2,504.266,1579.082,504.516Z" fill="#fff"/><path d="M1582.235,508.226c-.308-.146.148.488.317.83a17.962,17.962,0,0,1,1.849,1.486c.171.005-.057-.4.5,0-.346-.448-.744-.868-1.1-1.324C1583.092,508.766,1583.186,509.488,1582.235,508.226Z" fill="#fff"/><path d="M1585.61,511.783c-.9-.685-.81-.354-1.424-.747C1584.825,511.638,1586.392,512.973,1585.61,511.783Z" fill="#fff"/><path d="M1588.175,513.851c-.464-.835-1.4-1.371-2.063-2.064-.643-.19.882.955.932,1.434C1587.447,513.264,1587.234,513.008,1588.175,513.851Z" fill="#fff"/><path d="M1625.063,607.759a3.1,3.1,0,0,0,.178,1.132c-.254.542-.189-.127-.384-.873a5.031,5.031,0,0,0,.213-2.2c.138-.806.315-.5.508.322.033-.725-.088-1.4-.284-1.415a12.886,12.886,0,0,0-.161-3.836,42.675,42.675,0,0,0-.9-4.538,14.05,14.05,0,0,0-.627-4.717c-.411-1.58-1.15-3.114-1.687-4.666.014-.187.027-.368.042-.56.99,1.18,1.682,4.243,2.359,5.782.126-.565-.127-1.12.058-1.681a58.45,58.45,0,0,1-1.81-6.1,54.122,54.122,0,0,0-1.843-5.959c.03-.178.144-.016.148-.3a23.324,23.324,0,0,0,2.042,4.872c.041-.752-.4-1.464-.381-2.21-.217.378-.466-.341-.543-1.361-.131.271-.323.286-.575.052a17.018,17.018,0,0,0-.827-3.085c-.382-.975-.821-1.624-.99-1.209-.419-.612.353-.379-.178-1.373.091-.2.465,1.039.587.485-.279-1.1-1.107-1.939-1.189-1.528-.318-.7.189-.678.1-1.424-.631-1.393-.569-.418-1.034-1.25-.369-.66-.061-.98.124-.585-.237-1.154-.6-.775-.783-.993-.089-.332-.3-1.466-.127-1.669a14.627,14.627,0,0,1,1,1.8c-.315-1.645-1.064-2.221-1.308-2.031-.751-1.848-1.337-3.565-2.4-4.622-.361-1.4.427.048.353-.645.562,1.01.976,2.071,1.451,3.109q-.123-1.643.846-.163c-.1-.728-.49-1.32-.677-1.294.286-.238-.436-1.277-.171-1.681a22.523,22.523,0,0,1-2.336-4.635c.038-.446.927,1.283.815,1.822.157.259.149.12.141-.029l.351.488a10.425,10.425,0,0,0-1.42-3.125c.059-.607.566-.118.62-.739-.528-.453-.422-.528-1.13-1.448-.288-1.019.013-.768-.112-1.431-.419-.618-.466-.439-.7-.675-.205-.775.236-.17-.067-1.158-.45-.752-.834-1.528-1.227-2.293s-.8-1.518-1.2-2.276c-.06-.788.484.527,1.141,1.108-.219-.826-1.039-1.446-1.131-2.312-.1.05-.511-.465-.473-.136-.43-.951-.918-1.885-1.439-2.806-.558-.9-1.148-1.783-1.739-2.667-1.188-1.766-2.35-3.544-3.452-5.316-.249-.206-.025.313.048.594a8.337,8.337,0,0,1-1.429-1.53c.189-.733-.658-1.87-1.693-3.079a26.982,26.982,0,0,1-3.009-3.429c.649.024,1.374.7,2.154,1.57l1.208,1.4c.4.487.8.983,1.22,1.408-.474-1.161-1.775-2.092-1.6-2.705l-1.4-1.208c-.32-.639-.115-.564-.189-.863.447.627,1.194,1.1,1.49,1.807.024-.5.583.493.963.477-.292-1.342-2.249-1.853-2.516-3.214-1.111-.845-2.245-1.734-3.341-2.416-.559-1-.02-.633.507-.278-.288-.931-1.125-1.542-1.685-2.324-.038.256-.366.151-1.223-.61.291.488.869.818.961,1.419a7.979,7.979,0,0,1-1.808-2.242c-.716-.575-1.5-1.079-2.247-1.617.034-.591.637.205-.647-1.269-.755-1.138.741.264.106-.739-.837.121-1.712-1.225-3.41-2.19-1.111-1.3-2.323-2.529-3.38-3.872a27.817,27.817,0,0,1-4.5-2.637c-.806-1.007,1,.406.878.038a16.129,16.129,0,0,0-3.205-2.132,17.55,17.55,0,0,0-2.7-1.079c1.947,1.806,3.172,1.741,4.606,2.783.279.418.2.508-.073.417.446.589,1.606,1.054,1.181.514a20.084,20.084,0,0,0,3.688,3.181,14.932,14.932,0,0,1,3.926,3.864,16.9,16.9,0,0,1-3.564-2.587c-1.277-1.134-2.519-2.446-3.559-3.416-2.066-.548-4.915-3.365-7.836-5.575a3.46,3.46,0,0,0,2.292.258c-.822-.3-1.294-.873-2.079-1.2a6.247,6.247,0,0,0-2.222-2.052,6.638,6.638,0,0,1-2.3-1.848c-2.368-1.356-1.6-.91-3.775-2.244.55.547-.277.084-.022.421a12.159,12.159,0,0,0-2.077-1.094c-.9-.939.528-.165,1.238.337-.012-.4-2.989-1.935-3.113-1.63a11.405,11.405,0,0,1-2.74-2.021c-1.349-.877-3.217-1.157-4.447-2.172-.656-.882,1.044-.305,2.014-.179-1.811-1.037-2.88-1.055-5.3-2.471-.737-.721-.222-.51-1.325-1.061-.976-.234,1.508.935.531.7a14.315,14.315,0,0,0,2.292,1.192c.151.521-.023.32,1.3,1.093.188.225-.363,0-.671-.08-.737-.287-1.083-1.041-1.8-1.343-.065.1-.686-.109-.475.145-.907-.368-1.65-.944-2.493-1.382-.267-.363.022-.287.674.049.522.2.144.216.612.582.249-.106.734-.081.153-.648a28.726,28.726,0,0,1-2.918-.844c-.94-.314-1.877-.609-2.788-.948-1.837-.644-3.593-1.426-5.489-1.936-.3-.217-.581-.429-.461-.466a26.6,26.6,0,0,1-4.984-1.417c-.072-.43,2.858.606,2.768.338.589.591,1.323.718.3.054-3.095-1-5.9-1.8-8.234-2.658-.688-.766,2.945.741,3.1.244-1.05-.364-1.326-.627-1.979-.512a23.317,23.317,0,0,0-3.077-1.163c-1.188-.314-2.486-.6-3.792-.878s-2.616-.547-3.845-.761c-1.235-.193-2.376-.383-3.324-.583-.75-.394,2.29.211.789-.383a8.392,8.392,0,0,1-3.3-.2,12.275,12.275,0,0,0,2.453.719c.137.107-.059.131.184.268-1.758-.16-3.193-1.147-5.067-.973-.485-.223-.154-.274-.695-.51a32.649,32.649,0,0,1-4-.548c-.447-.213-.432-.332-.155-.395-.613-.24-1.372-.069-1.933-.439-.615,0-.375.133-.093.274-2.595-.421-4.776-.745-6.955-.994-2.185-.169-4.365-.3-6.955-.458-.4-.187-.093-.3.673-.359-.843-.136-1.735-.013-2.578-.125-1.4.114.533.411-.7.533a9.218,9.218,0,0,0-3.992-.071c-.776-.185-.051-.289-1.055-.483-.523.139.147.339-.382.478-1.536-.415-1.309.038-3.428.124-.777-.145-.05-.285-1.064-.43-.245.118-.259.236.225.358a16.524,16.524,0,0,1-3.493-.1c-1.178-.1-2.127-.282-2.092-.528-2.69.414,2.136.31.459.835-.974.042-.673-.166-1.94-.264-1.332.35-2.913.169-3.468.741-1.244.074-2.645.315-3.088-.086l-1.438.5c1.042.275.365-.342,1.407-.068-.749.641-4.932.6-7.352,1.429.384-.349.115-.552,1.42-.862-1.974-.089-2.247.9-4.222,1.286-1.311-.263-2.621.357-3.905.828a14.9,14.9,0,0,0-4.727.89c-.441-.223,1.443-.417,1.926-.758-.583-.1.729-.584.261-.707-1.482.74-3.685,1.273-4.948,2.126-.466-.019-1.114.278-2.211.42-.673-.255,3.284-.944,1.053-.858.8-.507,1.66-.347,2.475-.853-.874-.122-3.092,1.065-3.062.562-.859.49-1.872.641-3.287,1.289-.05-.612-1.583.461-3.054.549-1.58.95-3.242,1.318-4.823,2.123.037.278,1.456.034,2.217-.416-.017.263-.639.517-1.384.743l-2.086.662c-.306-.122.351-.609.718-.793-.249-.155-1.026.125-1.175-.178.083.653-1.532.755-2.838,1.723.7.139,1.24-.518,1.917-.475a8.1,8.1,0,0,1-2.678.983c-.307-.033.439-.229.761-.508-.425.009-1.16.359-.844.084-1.058.167-.231.572-1.324.574.341.114.933.139.151.709-1.258.538-.146-.2-1.142.018-.666.463-.344.507-.152.606a5.1,5.1,0,0,0-1.294.624c-1.469.286.617-.932-.479-.8-.23.306-.629.68-.392.785-.8.687-1.825.443-2.591,1.256-1.028.265-.764-.013-1.421.11a13.853,13.853,0,0,1-3.333,1.687c-.444.772-2.412,1.547-3.716,2.282-.748.242,1.2-.973-.134-.414-.943,1.022-2.284,1.507-3.924,2.464-.971.722.6.053-.078.612-1.414.886-.443-.246-1.686.319-.637.413-.861.639-.871.865a11.148,11.148,0,0,0-3.708,2.116,20.1,20.1,0,0,1-3.526,2.489c-.571.973-1.125,1.259-2.523,2.578a9.122,9.122,0,0,0-1.7.993c-.427-.112,1.243-1.216,1.657-1.736a11.18,11.18,0,0,0-3.286,2.869c-1.2.758-.768.216-1.638.52-.849.78-1.507,1-1.685,1.647l-1.02.477c.6,0-1.64,2.077-2.83,2.442-.374,1.012-1.156,1.314-2.28,2.242-.706.995.144-.021.577-.142-.39.616-.978.911-1.44,1.41-1.017.48-.456-.042-.305-.49a10.664,10.664,0,0,1-3.031,2.1,2,2,0,0,1,.6-.644c-.151-.044-.7.417-1.313.985s-1.255,1.292-1.677,1.689c2.253-2.007,2.206-1.22,4.4-3.1-1.6,2.315-2.552,1.741-3.914,3.316.253.184,1.961-1.1,1.951-.644-.721.333-2.057,1.769-2.752,1.956-.366.8-.174,1.051-.462,1.783-.106-.619-1.088.427-2.036,1.045-.523.257.609-1.157-.346-.462-.205.531-.367.744-.048.881-.5.577-1.386,1.175-.681.968a14.018,14.018,0,0,1-1.946,1.628c-.18-.13,1.73-1.972,1.036-1.9-.429.67-1.689,2.409-2.8,3.786-1.1,1.39-1.994,2.476-1.9,1.682-.563.653-.88,1.585-1.592,2.062a7.687,7.687,0,0,1-1.5,2.518,13.855,13.855,0,0,0-1.787,3.134c-.656.1-1.472,1.727-1.42.966-.662.72-.164.843-.837,1.979a31.4,31.4,0,0,0-3.507,5.647c-.47-.054-1.341,1.65-1.206,1.953-.726.483-.983,1.392-1.6,1.981.323-.089.551-.465,1.028-.609a7.656,7.656,0,0,1-1.805,2.187c-.825,1.271-.073.9-1.409,2.5.041.171.357-.165.144.485a12.685,12.685,0,0,1,.875-1.649,17.123,17.123,0,0,1,1.125-1.456c-1.114,1.779-2.074,3.644-3.045,5.516-.14.114-.112-.09-.305.123.341-.935,1.433-2.364,1.125-2.716-.893,1.21-1.028,2.686-2.356,4.268a3.25,3.25,0,0,1-.406,1.116c0,.282.1.349.414-.044-.327,1.275-1.075,2.25-1.419,3.5-.564.865-.381.139-.845.794-.313,1.1.567-.375-.072.987-.621.887-.024-.782-.661.572-.243.791.257.012.174.464a32.074,32.074,0,0,0-3,6.355,63.137,63.137,0,0,1-2.2,6.049c-.288.394.016-.893-.185-.753a13.213,13.213,0,0,0-.69,2.381,5.369,5.369,0,0,1-.9,2.255c.043.271.149.324.4-.107.069.673-.256,1.142-.24,1.784-.323.665-.254.023-.239-.44-.416.742-.463,1.676-.81,2.462.005.319.256-.188.425-.427.063.657-.334,1.1-.36,1.723-.132.046-.127-.461-.4.123-.005.409-.01.829-.014,1.243-.327.73-.287-.028-.673.94q-.424,2.07-.845,4.136c-.3,1.372-.493,2.758-.784,4.118.123-.256.243-.509.365-.764a11.11,11.11,0,0,1-.3,2.315c-.257.7-.252.055-.285-.409a17.791,17.791,0,0,0-.517,3.062c-.062,1.082-.068,2.059-.054,2.465a3.02,3.02,0,0,0-.458,2.236c.472-1.4.3-.087.332.708.243-2.643.723-3.663,1.048-6.518-.071-.338-.1.259-.243.512-.195-.682.383-1.067.19-1.751a11.717,11.717,0,0,0,.974-2.048,36.247,36.247,0,0,0-1,5.419,24.724,24.724,0,0,1-.807,4.732c.044.2.141.043.167.352-.005,1.128-.23-.32-.461.742a14.636,14.636,0,0,1-.362,5.2,5.292,5.292,0,0,1,.031,2.93c-.247-.463-.44-1.535-.789-.788-.018-.869.217-2.3-.078-2.378-.047,1.116-.114,1.14-.432,1.654.278.529.142,1.285.364,1.569a13.977,13.977,0,0,0,.017,2.918c-.546,1.068-.392,3.691-.183,5.757-.432.008-.381,1.043-.039,2.586-.117.2-.236.174-.361-.356-.158,1.9.309,3.906.264,5.806.177.53.24-.712.432.059.238.6-.3,1.1.109,1.726-.087.5-.206.5-.342.243,0,.924.392-.031.311,1.469-.1.719-.223.98-.4.527a19.569,19.569,0,0,1,.231,2.665,4.133,4.133,0,0,0,.443,1.979c-.05.8-.279.071-.3,1.119.447.017.245,1.506.238,1.443.328,2.028.891,2.672.862,4.9.489.367.687,2.743.963,4.005-.1.1-.3-.361-.315.285a3.987,3.987,0,0,1,.529,1.639,6.966,6.966,0,0,0,.7,2.054c.4.419.062-1.479-.213-1.981-.05-.513.617,1.275.662,1.686.46.5-.2-1.277-.226-1.69.057-.295.347.462.548.838a6.548,6.548,0,0,0,.617,2.8c-.008.741-.024,1.434-.32.865-.022,1.043.575,2.061.484,3.108.261.235.423-.1.739,1.084a5.339,5.339,0,0,1-1.174-1.774c-.394-.852-.8-1.9-1.187-2.945.159.938.213,1.895.34,2.845a1.962,1.962,0,0,1,.562,1.4c.2.268.229-.063.439.257.537,1.229.027.737.172,1.984.551-.308,1.943,4.619,1.582,5.3.353-.058.384,1.171.991,1.886-.042-.947-.714-1.819-.753-2.766.274-.015.79,2.364,1.078,3.3.172.071.41.334.793,1.042.382.625-.006.686-.287.04.213.988.7.942.593.206a7.885,7.885,0,0,0-.846-1.886c.055-.292.193-.33.251-.608.63,1.248.612,2.587,1.26,3.826-.173.347-1.417-1.734-.857.131.279-.419.3.352.838,1.313-.356.252-.54-.876-.016,1.152.313.048.444.123,1.018,1.262-.358.58.967,1.971.965,3.291-1.319-3.239-2.839-5.66-3.691-9.483-.024,1.468-1.052-2.487-1.426-1.83.01.477.236.929.235,1.407.632.429,1.068,2.821.954,3.349.139-.881.8,1.213.876.155a11.458,11.458,0,0,1,.814,2.182c-.015.6-.816-2.191-.463-.215-.524-.5-.249-1.113-.757-1.613.059.555-.155.278-.059.877,1.078,1.48.892,2.021.728,2.5.621-.114,1.509,3.477,2.406,5.086.51.486.145-.143,0-.877,1.251,1.643,2.129,4.7,2.966,5.468.321,1.129-.386-.053-.371.392-.652-1.416-1.381-2.813-1.889-4.259-.4-.44-.591-.4-.568.125a2.024,2.024,0,0,1,.47,1.066c.15.1.3.2.288-.06a13.288,13.288,0,0,0,1.422,3.449,13.967,13.967,0,0,0,1.957,2.777c-1.014-.407.621,2,.475,2.847a3.975,3.975,0,0,1,.731,1.288c.611.352-.529-1.2-.514-1.651.065-.559.974.9,2.108,2.048.291,1.308-1-.923-1.243-.808.416,1.394.585.994,1.474,2.231-.086-.491.227-.276.34-.413.438.556.455,1.253,1.07,1.748-.343-1.188-1.54-2.088-1.646-3.349a18.468,18.468,0,0,1-2.455-3.74c-.066-.52.7,1.141.922,1.517.411.336-.172-.892-.422-1.065.592-.173,1.482,1.581,2.653,3.82l2.007,3.759c.346.63.695,1.246,1.041,1.82.369.56.737,1.078,1.091,1.531-.141-.4-.28-.8-.036-.589-.155-.643-.943-1.063-.982-1.753.085-.2,1.528,1.621,1.648,2.406-.01-.643,1.708,1.225,1.941,2.269.114.324-1.2-1.315-1.363-1.888-.172.514-.713-.345-1.208-.445.526,1.135.224.855.833,2.119-.63-.842-1.041-1.551-1.526-2.289a25.2,25.2,0,0,0-1.913-2.513c.3,1.2-.366.041.32,1.716.209-.139-.147-1.168.986.24,1.041,1.635,1.937,3.33,3.106,4.912-.268-.685-.28-.969.09-.655-.4-.762-.862-1.494-1.326-2.227.216-.035.93.853,1.332,1.3.228.539-.012.341-.269.108.723,1.488.6.184,1.508,1.841-.134.189-.71-.318-.76.005,1.636,1.442,3.418,4.9,5.193,6.392.108.411-.494-.092.072.907a16.9,16.9,0,0,0,2.281,2.355c-.343-.672-.4-.972-.327-1.116.984.983,1.683,2.114,2.743,3.046.172.663-1.319-.319-1.806-1.607.216.628-.641-.127-.4.529a6.565,6.565,0,0,1,1.567,1.382c.557.566,1.2,1.264,2.132,2.1-.18-.659-1-.959-1.251-1.572.335-.146,1.157,1.263,2,1.793.257.48-.045.311.251.838,1.065.062,2.173,2.581,3.574,3.464.131.9-1.846-1.377-2.191-1.309a2.13,2.13,0,0,0,.645.6c.76,1.017-.736-.365.026.651.888.623,1.772,1.9,1.7,1.282.934.53,1.206,1.481,1.987,2.1.007.281-.574.063-1.037-.68-.124.228.6.847,1.314,1.486s1.46,1.248,1.287,1.575l1.612.957c-.432-.578-.212-.532-.33-.811.943.666.747.854,1.013,1.37a7.105,7.105,0,0,1,2.19,1.821c.695.771,1.471,1.685,2.554,2.8a17.012,17.012,0,0,1,2.879,2.367,28.6,28.6,0,0,0,3.478,2.716c.284-.207-.9-.816-1.424-1.4.6,0,2.794,1.83,3.848,2.674.131.554-1.431-1.124-1.4-.652.592.672,1.078,1.187,1.041,1.362.657.323,2.01.738,2.99,1.108,1.143.686.561.858,1.277,1.527.539.442,2.612,1.385,2.07,1.561a33.5,33.5,0,0,1,5.751,3.454c.984.885-1.183-.252-.195.635,1.56.719-.147-.571,1.182-.027,1.257.484.986.987,1.622,1.6a22.3,22.3,0,0,1,2.013,1.16c-.312.04-.205.321.63,1.02a.965.965,0,0,1,.9.271c.719.18-.765-.469-.823-.8a7.722,7.722,0,0,1,2.031,1.127c.664.13-.82-.7-1.138-.861.019-.184.391-.159.576-.245.988.518.862.728,1.629.695.925.838-.421.066-.576.264.951.707,1.052.353,1.515.379,1.275.523,2.37,1.283,3.609,1.85-.045.216-1.008-.036-1.173.12.545.336,1,.767,1.525,1.159a5.958,5.958,0,0,0,1.89.95,7.647,7.647,0,0,0,3.307,2.278c-.627-.44-1.533-.861-1.352-1.079a10.028,10.028,0,0,1,2.439,1.022c.609.108-.224-.4.779-.135-1.056-.405-2.782-1.632-3.19-1.421-.061-.211-.246-.477.561-.294.93.378.415.624,1.89.775,1.1.651-.818-.057.282.594.015-.442,1.482.15,2.553.793.813.029-.177-.433-.918-.669.527.06.93.3,1.467.348.22.265,1.729,1.04,1.074.961.46.223,2.517.56,1.854.8.824.476,1.681-.024,2.953.615.225.2-.584.053-1.008.034,1.351.506,3.686,1.707,4.4,1.49.427.083,2.322.846.961.622,2.454.74,5.877,1.161,7.036.638a10.779,10.779,0,0,0,1.981.463c1.017.479-1.19.213.246.788a4.168,4.168,0,0,1-2.233-.586c-1.408-.15-1.78-.009-.883.491.3.012-.068-.166-.187-.275a6.649,6.649,0,0,1,2.554.635c.569.353-.883-.2-1.249-.046.613.495,1.594.222,2.2.7.78-.53,3.714.64,5.621,1.433,1.02-.039,1.956-.362.032-.8.333.452-.8.068-1.757-.254-.249-.185.522-.014.875.126-.345-.407-3.348-.85-4.713-1.3,4.722.632,11.542,2.432,17.215,2.767.255.129-.342.149-.665.2a4.619,4.619,0,0,0,2.338.148c.337.5,1.145.2,2.212.559.807.266-1.982.093-.437.448,1.166-.309,1.695-.044,3.781.25a5.013,5.013,0,0,1,3.506.111c1.048-.238,1.951.019,2.993-.294a20.49,20.49,0,0,0,6,.673c2.425-.051,5.13-.21,7.748-.05-.092-.292,1.255-.66,1.759-.266,1.188-.261.887-.4.934-.575a4.669,4.669,0,0,1,1.147-.091c-.157.226.172.416-.946.72,1.647.146.479-.634,2.331-.332.494-.55.989-.41,2.635-.574.575.119-.133.346-.913.576,1.4-.273,3.131-.582,4.78-.854a13.449,13.449,0,0,0,4.182-1.219,6.754,6.754,0,0,1,2.268-.272c.785.075-.726.569.272.6,1.037-.384.814-.538.579-.687,1.4-.179,1.028-.346,2.278-.711.849.227-.966,1.059-2.291,1.293.591,0,.313.16,0,.145a14.817,14.817,0,0,0,7.678-1.519c1.039-.05-1.291.7.015.581a7.909,7.909,0,0,1,2.5-.729l1.634-.292c.539-.119,1.059-.254,1.519-.4.533-.279.228-.315.816-.607.107.092-.338.345.3.284,1.026-.323.329-.2,1.1-.617.241.028-.353.3.025.29,1.238-.054,2.439-.669,2.211-.943a1.843,1.843,0,0,0,.844-.174c.287.014-.256.276-.528.453,2.6-.768,6.694-1.708,8.276-2.81,2.532-.6,1.789-.858,3.272-1.159,1.263-1.125,2.149-1.349,3.885-2.443-.648.108-1.268.414-1.918.573.761-.572,1.641-.526,2.38-1.1.287-.029-.213.307-.462.525,1.676-.735,3.411-1.217,5.093-1.958.288-.029-.211.308-.463.531a8.762,8.762,0,0,0,2.353-1.2c.3-.6,1.815-1.3,3.555-2.09.869-.4,1.8-.807,2.65-1.245a14.323,14.323,0,0,0,2.174-1.432l-2.219,1.207-2.268,1.115c-1.515.736-3.033,1.461-4.558,2.15a19.139,19.139,0,0,1,3.086-1.609c.293-.535-1.358.621-1.853.726l1.42-1.223c.523-.14.293.114.866-.051,2.078-1.32,1.791-1.831,4.385-3.051.3.1-1.527,1.276-2.1,1.771.134.12.807-.049.405.351a10.176,10.176,0,0,1,3.554-2.8c.422-.082.234.193-.358.706,1.124-.368,1.736-1.726,3.34-2.466,1.079-.476-.54.806.688.232.237-.211.1-.178-.052-.136-.124-.149,1.285-.878.819-1.044.449-.223,2.11-1.2,1.607-1.307a10.253,10.253,0,0,1,1.713-1.038c.163.207-1.414,1.553-.907,1.532.565-.473,1.377-1.142,2.039-1.765.737-.317.2.22,1.12-.261,1.365-1.111,2.817-2.037,4.223-3.065.56-.2-.857.733-1.023,1.186,1.9-1.12,1.86-2.267,3.836-3.17.425-.424.7-1.141,1.228-1.35.431-.6-.707.537-1.031.462l.575-.736c1.461-.853,2.719-2.139,4.138-3.044.122.136-.258.608-.773,1.081a5.443,5.443,0,0,1-1.625,1.02,10.328,10.328,0,0,1-1.672,1.711c.714-.616,2.761-1.552,3.6-2.922.992-.59-.028.593.965,0,.56-1.2,3.2-3.389,5.135-5.289.622-.244-.6.7-.678,1.054.884-.865.614-.262,1.478-.838.995-1.265,2.207-2.18,3.169-3.492,1.782-1.129,1.405-1.6,3.259-4.26a25.255,25.255,0,0,1-2.52,2.808c-.355.517-.113.4.161.245a7.342,7.342,0,0,1-1.641,1.633c-.552.369.538-.792.749-.931a82.783,82.783,0,0,1-5.66,4.426,33.28,33.28,0,0,0-2.469,2.349c-.618.274-.453-.109-1.115.891-.619.385-1.214.8-1.82,1.216s-1.216.823-1.808,1.263a42.023,42.023,0,0,0-3.446,2.864c-.287-.349-2.587,1.769-2.094.845a18.489,18.489,0,0,1-2.005,1.724c.449-.158.8-.508,1.255-.648-.438.4-.9.741-1.335,1.146-.234.023-.279-.092.08-.5-.712.236-1.261.84-1.975,1.078-.4.41-.1.309-.352.607a2.694,2.694,0,0,0-1.708,1.038,3.316,3.316,0,0,0-1.284.587c-.719.3,1.121-1.075-.16-.407a11.049,11.049,0,0,1-2.885,2.262,14.087,14.087,0,0,1-3.21,1.462c-.953.368-.217.382-.9.856-.229.185-.487.286-.716.5-.989.387-.409-.146-1.395.238-1.473,1.366-4.9,2.673-7.36,3.8a14.692,14.692,0,0,1-1.732,1.2c1.394-.31.964-.714,2.319-1.171-.555.536-.393.386.382.363a5.65,5.65,0,0,1-3.675,1.573c.631-.579,1.474-.322,2.089-.967-1.168.533-1.821.382-.942-.27-1.644.765-3.339,1.322-4.982,2.062.375-.614.195-.313-1.147.009a8.6,8.6,0,0,1,2.675-.868c.43-.353-.739.028-.1-.425a23.915,23.915,0,0,1-2.884,1.186c-.609.45.438.234,1.17.141a35.758,35.758,0,0,0-4.464,2.034c-.167.273.417.243.1.574-1.569.748-.1-.361-1.411.029-.3-.023.432-.242.756-.533-1.622.2-5.163,1.678-7.089,1.794a13.633,13.633,0,0,1-1.591.777c-.541.2-1.089.363-1.637.514-1.1.3-2.2.538-3.292.852-.787-.152,1.466-.755,1.579-1.2-1.694.2-2,1.081-2.474.5-.475.384-.456.626.053.726a25.815,25.815,0,0,1-5.8,1.386c-.564.681-2.489.987-3.889,1.165-.282-.045.275-.245.558-.394a4.278,4.278,0,0,1,1.394-.093c.371-.161.431-.249.275-.285l.551-.276c-1.017.055-2.024.737-3.055.447a15.753,15.753,0,0,1,1.94-.477c.163-.235-.245-.186-.766-.074a12.354,12.354,0,0,1-1.46.241c1.8-.946-2.151.293-3.613.306.112.207-.24.687-1.406.909.762-.51-.718-.236-.811-.647a1.7,1.7,0,0,1-.842.2c.517.33-1.371.535-1.721.95a16.63,16.63,0,0,0-4.777.558c-1-.068-.05-.374.052-.583a32.092,32.092,0,0,1-3.893-.086l-1.158.379,1.092.2c1.08-.491,2.064-.1,3.1-.181-1.346.42-2.619.072-3.964.465.118-.907-3.032-.057-5.246-.464.824.058,1.7-.139,2.52-.032.118-.336-2.2-.128-3.063-.1-.28.2-.206.387-.656.591-1.543.154-.718-.35-1.327-.461a1.9,1.9,0,0,1-1.125.033c-.1.431-1.445.526-2.813.041.776.486-.447.148-1.807.533-1.537-.426,2.072-.3.145-.71-.574.513-1.62.351-2.41.661-1.321-.364,1.674-.3,1.258-.542a5.668,5.668,0,0,0-2.621.3c-1.216-.333.97-.147.664-.414-2.359-.529-3.227-.044-5.7-.021-.62-.211-.258-.352-1.27-.593a22.023,22.023,0,0,1-3.705-.111c-.31-.229.323-.341.17-.553.417-.09.756.048,1.156-.012.9.21-.122.278-.124.419a30.948,30.948,0,0,1,4.264.1,16.184,16.184,0,0,0-3.583-.477c-.9-.268,1.526.087.646-.239,1.259.232,2.585.259,3.867.426.261-.076-.315-.213.07-.28,1.092-.072.273.291,1.31.451a4.415,4.415,0,0,1,1.415,0c.287-.882,2.689.263,4.269-.261.974.207-.314.426,1.034.448.854-.268-.166-.572.725-.841-.7-.223-1.492.017-2.2-.187-.3.088.231.2.5.295a8.511,8.511,0,0,1-2.787-.061c-.125-.262.905-.1,1.206-.4a23.8,23.8,0,0,0,3.359-.071c.974.2-.309.431,1.03.444,1.943-1.121,7.881-.44,11.437-.895.169.176-1.128.472-.619.622-2.767.192-5.52.073-8.3.13.821.221,1.964.117.75.476.941-.084,1.879-.18,2.811-.225.214.181-.832.4.474.554a5.023,5.023,0,0,1,2.544-.368c1.047.084-.273.354.772.438a21.667,21.667,0,0,0,5.626-.911c-.024.125.578.164.25.327-.8.295-.062-.338-1.115.125,1.65.106,3.336-.4,4.993-.348l1.973-.768a4.257,4.257,0,0,0,1.641.321c1.125-.7-.713-.332-1.083-.539,1.024-.42,2.01.137,3.031-.471,1.3.053-1.107.783.533.772.266-.121-.119-.125-.269-.168,2.119-.663,4.247-.756,6.34-1.2,1.092-.575-.688-.475-1.655-.2,1-.373,1.98-1.3,2.985-1.217.5.157-1.121.354-.8.557.556.2,1.078-.438,1.639-.244.594-.423-.129-.35,1.338-.831.646-.007.659.136.023.435,1.529-.068,1.288-.885,2.69-1,.428.1-1.429.859-.227.732,1.007-.465.679-.545,1.308-.9a4.318,4.318,0,0,1,1.073-.312c.083.216-1.416.655-1.026.892,1.366-.432,1.075-.112,2.475-.2,2.589-.426,5.146-1.77,6.934-2.413-.709.52.372.222,1.867-.263s3.348-1.291,4.278-1.538c-.034.423-2.443.928-3.346,1.731,2.208-.51,3.916-2,5.527-2.151.244-.2-.3-.084-.583-.071.624-.633,1.4-.57,2.025-1.153,2.095-.19,4.466-2.017,5.774-2.039,2.223-1.461,3.7-1.843,5.4-3.268-.914.452-.316.057-1.078.243,2.607-1.861,3.612-1.6,3.995-1.123.517-.632-.087-.61.213-1.117,1.081-.536,2.114-1.192,3.224-1.645.406-.035-.953.76-1.458,1.226a46.984,46.984,0,0,0,4.272-2.389c.581-.3.728.065.1.273.163.3.951-.614,1.422-.93.2-.246-.3-.03-.576.036.961-.645,2.275-1.259,3.662-1.979a19.831,19.831,0,0,0,3.953-2.755l1.3-.505c.39-.467.975-.566,1.3-1.145,2.262-.852,3.843-3.062,6.082-3.994a25.559,25.559,0,0,1,5.915-4.811c-1,1.284-1.012,1.441-1.813,2.418.53-.477,1.045-.982,1.54-1.48l1.361-1.5a9.267,9.267,0,0,1,2.25-2c-.4-.452.885-2.111-.065-2.13,1.063-.912,2.1-1.831,3.13-2.779-.238-.209-1.154.691-2.06,1.553s-1.864,1.623-2.037,1.275c.3-.531.929-.6,1.368-.945-.119-.527,1.552-1.706,2.055-2.831.023.323.068.623,1.192-.235-.294-.193.266-.906.956-1.973.774-.419,2.021-1.391,1.789-1.747.781-.629.588-.021,1.36-.947.541-.225.052.227-.324.936a17.644,17.644,0,0,0,2.33-2.874c.786-.563-.356,1.161.459.562.257-.471.131-1.208,1.01-1.831-.008-.263.308-.946-.5-.165.864-1.391.752-1.143.872-1.957.18-.635.946-.6,1.124-1.236.595-1.23-.625.354-.971.567a20.192,20.192,0,0,0,1.365-1.786c.478-.316-.45,1.217.385.432,0-.5,1.111-1.693.9-1.069.574-1.8,2.395-3.974,4.165-5.652-.065-.182.168-.887.092-1.073-.74.914-.464.45-1.234,1.1-.331.686.095.28.413.026a48.758,48.758,0,0,1-4.363,5.406c.975-1.787,2.472-3,3.419-4.789a28.993,28.993,0,0,1-2,2.276c.517-1.042,1.421-1.694,1.7-2.972.462-.336.014.645.726-.05.17-.479.485-.814.619-1.324.471-.534.242.058.112.492.4-.373.515-1.025.991-1.323-.155-.522.995-1.91.766-2.311.979-1.129.337.357,1.122-.458a10.762,10.762,0,0,1,2.21-3.2c.644-1.694.99-1.394,1.642-2.955.523-.407-.358.817-.326,1.174a40.986,40.986,0,0,0,2.42-4.1c.095-.689.089-.843-.139-1.166.476-.8,1.155-2.49.9-2.788.667-1.037-.075.8.594-.241a19.528,19.528,0,0,1,1.118-2.259c.268-1.084-.159-.526.26-1.5.566-.709-.121,1.475.144,1.459-.093.731-.9.928-.858,1.757.409-.033,1.241-2.116,1.533-3.312.527-.859.371-.137.805-.786.176-.723.491-1.79.819-2.708a4.862,4.862,0,0,1,.818-1.852c.238-.422.08-.554-.084-.385a7.623,7.623,0,0,1,1.274-2.783c0-.763.392-1.281.376-2.038-.208,1.268-1.275,2.021-1.339,3.388-.6.587-.31-.589-1.206,1.182a3.364,3.364,0,0,1,.948-2.32c.083-1.219-.614.91-.885.74a2.127,2.127,0,0,1-.59,1.564c-.024.832-.414,1.35-.187,1.511.466-.782.573-1.609.8-1.113-.122.681-.713,1.057-.756,1.792-.429.3-.018-.9-.755.491.646-.265-.5,1.132-.885,2.047-.11.089-.279-.209-.141-.624a15.524,15.524,0,0,0-1.615,3.063c-.9.612-1.346,2.381-2.181,2.786-.522,1.352-.192,1.378-.881,2.752-.225.189.016-.569.081-.968-.909.783-1.174,2.053-1.907,2.983-.058.488.133.3.493-.3-.092.9-.952,1.719-.661,1.928-.094.035-.535.035-.761.785-.483.313-.1-.216.126-.962-.912,1.119-1.364,2.64-2.476,3.575.333.949-1.33,1.513-1.517,3.019-.189-.538-.748.876-1.1.825a7.294,7.294,0,0,1,1.756-2.426c.056-1.143,1.657-3.1,2.767-4.409-.12-.225-.236-.456.166-1.623a17.931,17.931,0,0,1-2.619,4.539c-1.155,1.559-2.26,3.135-2.454,4.673a30.947,30.947,0,0,1-3.05,4.205c-.105.485.1.322.514-.244-.214.561-.425,1.117-.639,1.68a5.225,5.225,0,0,1-1.043,1.258c.312-.853.958-1.352,1.162-2.309-.6.535-1.057,1.239-1.66,1.776-.144.369-.277.751-.437,1.116a9.705,9.705,0,0,1-.883,1.04c-.452.322-.162-.335.161-1.033-1.33,1.533-.185,1.381-1.714,2.95-.055.267.028.354.408.055a5.825,5.825,0,0,1-.915,1.43c.12-.672-.5-.188-1.283.579-.8.751-1.812,1.752-2.371,2.21.456-.69,1.43-1.7,2.178-2.626s1.307-1.726,1.075-1.867c.985-1.322,2.174-2.422,3.071-3.828-.169-.418-1.266,1.516-1.837,1.977.649-1.175.771-1.058,1.033-2.065.818-.1.956-1.264,1.74-1.268.591-1.317.047-.986-.4-.8.5-.953.842-.653,1.233-1.036a14.134,14.134,0,0,0,.829-1.83c.666-.723.4-.058.921-.6.381-1.279.36-.609,1.064-1.578.509-1.237,1.314-2.2,1.8-3.447.712-.84.175.348.518.111-.61,1.216-2.169,3.082-1.612,3.275a16.923,16.923,0,0,0,.946-2.067c.111.005.225,0,.5-.267a4.006,4.006,0,0,1,1.215-2.165c.555-1.541-.491-.187.061-1.723.1-.271.264-.478.343-.766.627-.738.337.18.442.379.621-.412.728-1.262,1.286-1.731.2-.554-.005-.384-.224-.184.685-1.529,1.923-2.593,2.14-4.467.753-1.26,1.327-2.44,1.869-3.549a17.872,17.872,0,0,1,1.7-3.141,8.493,8.493,0,0,1,.966-2.6c-.176-.489-.367-.165-.238-1.118a8.867,8.867,0,0,1-1.326,1.682c.059.744.179.233.049,1.323a16.1,16.1,0,0,0-1.23,3.38c-.5.487.029-1.379-.111-1.716-.41.494-1.018,2.506-1.279,2.02-.883,1.547-1.267,3.5-2.505,4.769.3-1.107.884-2,1.2-3.088a6.184,6.184,0,0,1-1.185,1.761c.114.446.005.669-.475.964a7.578,7.578,0,0,1-1.379,2.8,15.775,15.775,0,0,0-1.625,2.608c-.637.853-.159-.3-.074-.75-.542.449-.69,1.253-1.152,1.781a2.915,2.915,0,0,0,1.52-1.121c.122.027.143.23.146.471-.289.574-.652,1.077-.976,1.608-.267.17.1-.719-.606.173-.267.657-.1.611-.16.933-.142.345-.448.547-.568.919-.577.352.177-.6-.036-.757.276-.817,1.062-1.188,1.194-2.123a126.26,126.26,0,0,1-14.967,19.828c.021.87-1.892,2.724-2.534,2.74-.185.654.592.27.383.948-.963,1.255-1.229.693-2.152,2.005-.242.12.067-.352.2-.632-.975.909-1.671,2.2-2.73,3,.7-1.76-2.544,1.893-4.4,2.909-.692.872.245.158.617-.007a13.1,13.1,0,0,1-2.51,1.944c-.179.319.656-.265.387.133a4.837,4.837,0,0,1-1.279.945c.011.18-.127.494-.584,1.089-.775.991-.815.222-1.614,1.431-.378.146-.253-.157.188-.737-2.555,1.917-2.3,1.345-5.3,4.056-.216.023-.275-.085.042-.491a15.536,15.536,0,0,1-2.9,2.444,31.7,31.7,0,0,0-3,2.29c-.138-.017-.279-.034-.118-.267a14.157,14.157,0,0,0-2.245,2.12c-.776.339-.83.2-.17-.4a43.958,43.958,0,0,1-4.1,2.5,17.543,17.543,0,0,0-4.059,2.733c-.933.357.082-.434-.853-.078.416-.407.958-.441,1.338-.95a40.446,40.446,0,0,1-7.69,4.425c-.269.493,1.933-.765.629.313a14.888,14.888,0,0,0-3.494,1.212c-.611.782,1.028-.437,1.761-.579a12.978,12.978,0,0,1-2.634,1.455c-.087-.222.084-.563.317-.932-1.211.62-2.231,1.266-3.311,1.886a20.587,20.587,0,0,1-3.741,1.558c-.231-.009.286-.32-.061-.284-.436.029-.841.272-1.279.286-.855.64-.379.459-1.417,1.033-.1-.107-.395-.161-1.083-.071a38.3,38.3,0,0,1-3.783,1.388c-.616.021.747-.524.994-.495-1.036-.116-3.073,1.183-3.751,1.776-1.362.2-.2-.339.449-.726-1.8.526-3.538,1.651-5.364,1.936-.61.064.762-.669,1.019-.445-.346-.232-1.335-.017-2.607.285.4-.1,1.539-.522.5-.412.5-.229,1.036-.133,1.52-.591-.869-.021-1.7.513-2.575.55.351.112-.321.642-1.274.67-.267.205.437-.04.79.032a14.705,14.705,0,0,0-3.1,1.324c-1.252.1.556-.523-.536-.459-.754.425-2.086.725-2.078,1.048-2.249.328-4.818.6-6.331,1.024-.024.171.272.3-.811.615-.851-.3.67-.717-1.568-.51a6.849,6.849,0,0,1,2.127-.427c-.091-.358-2.463.389-3.441.385-.1.135.324.2-.286.4a5.4,5.4,0,0,1-2.1-.155c-1.012.3-.347.4-1.368.67-.8.111-1.507-.507-2.928.166-.74-.08-.062-.281-1.024-.346a5.155,5.155,0,0,1,1.871-.223,59.942,59.942,0,0,0-7.214.165l-4.074.222a35.965,35.965,0,0,1-3.871-.055c-.015-.192.489-.369,1.175-.546a22.6,22.6,0,0,1-2.906-.133c-.742.149-.494.322-.369.49-.587-.01-1.291-.065-2.054-.129-.764-.1-1.587-.214-2.417-.3a12.958,12.958,0,0,0-4.653.156c-.7-.375.98-.183.933-.431a26.83,26.83,0,0,1-3.419-.443c-.284.084-.017.237-.371.314-1.779-.1-4.462-1.2-5.526-.821-.563-.268-.211-.375-1.138-.706-.814-.057-1.724.124-2.383-.349a5.7,5.7,0,0,1-3.043-.316,13.548,13.548,0,0,0-3.6-.728c.262-.085-.85-.488-.341-.518-.681-.077-1.375-.124-2.033-.256a4.754,4.754,0,0,1-1.8-.8,5.867,5.867,0,0,1-1.661-.173c-.029-.107-.059-.213-.381-.4-.333.141-1.726-.253-1.025-.291a7.1,7.1,0,0,1-1.611-.314,18.963,18.963,0,0,1-1.936-.791c.177.384-.506.18-1.436-.109-.209-.17.343-.086.643-.084-1.2-.524-2.537-.814-3.74-1.339,1.153.024,1.275.5,1.943.281a11.976,11.976,0,0,0-2.221-.842c-.194-.2.536-.043.93-.045.911.313,1.606,1.038,2.718.992-1.147-.289-.4-.643-1.572-.906-.156-.392.813-.1,1.708.125.364.3-.327.242-.494.36a2.714,2.714,0,0,0,1.919.273,10.7,10.7,0,0,1,2.439.939c-1.839-.625-1.589-.038-2.927-.579-.592.075,1.54.649-.207.382-1.074-.117.42-.326-.644-.443-1.46-.171-.244.095.289.549a3.969,3.969,0,0,1-1.007-.34,15.413,15.413,0,0,0,2.8,1c1.21.381,2.566.656,3.489,1.053-.353-.529,1.007.2,1.213-.1a24.318,24.318,0,0,0-3.7-.752c-.18-1.036,3.852.411,5.248.523,1.733.859-.2.684.818,1.341.262-.385,1.659.523,2.694.343-.831-.11-3.035-.8-2.11-.995,1.251.768,1.441.073,3.317.834.965.44-.452.336.515.776l1.434-.037c-.352-.179-.7-.357-.409-.386.635.054,1.257.137,1.872.236.622.07,1.237.155,1.849.244,1.225.179,2.443.375,3.686.488-.663-.46-1.526-.348-2.259-.615.2,0,.418.01.647.022q1.7.3,3.418.557a1.309,1.309,0,0,1,.553.329,6.255,6.255,0,0,0-2.172-.045c-.381.208,1.221.3.661.48,1.667.177,3.227-.237,4.192.544a3.557,3.557,0,0,1,1.86.159c.017-.117.627-.161.361-.314,1.858.487,5.316.149,6.231.793.575.025,1.153.028,1.732.027l1.739-.07c.027.121-.134.234-.343.348.965.169.749-.255,1.393-.326,1.019.258.348.484-.148.71,1.181.151,2.712.024,3.094.493.4-.277-.566-.581.686-.841-1.618-.248-.724.609-2.69.229-.292-.287.148-.451,1.167-.546a19.642,19.642,0,0,1,2.994.238,12.885,12.885,0,0,0,3.007.063c.7.373-.9.261-1.655.477a7.687,7.687,0,0,0,2.671-.221c-.057-.094-.129-.187-.49-.271.707-.1.95.135,1.078-.174a7.312,7.312,0,0,0,2.242-.118,4.045,4.045,0,0,1,2.209.074c.2-.341,2.412-.573,2.633-.215a5.354,5.354,0,0,1,2.233-.693,15.994,15.994,0,0,1,2.768-.228c.505-.163.214-.219.54-.358,1.346.061,2.875-.361,2.849.124.616-.234,1.22-.54,1.83-.816,1.766-.082-.533.582.505.633a8.762,8.762,0,0,1,3.377-.7c.155-.271,1.225-.71,1.54-1.011.728.152-1.227.81.02.867-.011-.69,3.264-1.446,4.866-1.513,1.3-.466,1.109-.815,2.518-1.072-.031.271-.966.851.542.286.285.132-.387.575-1.218,1.006a.765.765,0,0,0,.511-.132l.519,0c.79-.426.177-.447.967-.876,1.278-.591,1.161.038,2.593-.162.9-.566,1.887-.4,2.781-.91a6.35,6.35,0,0,0-3.06.768c-.024-.165-.644-.158-1.315-.137,1.1-.246.927-.528,2.283-.591,1.114-.475-.653-.106.457-.579,1.155.069,3.454-.892,5.286-1.406.273-.291-1.506.281-2.013.548-.112-.117-.019-.257.194-.4q1.538-.512,3.058-1.059c.5.117-1.777.613-1.028.616,1.323-.081.943-.579,2.219-.866-1.293,1.261,3.711-1.607,5.486-1.6.426-.4,1.692-1.186,2.779-1.946.259-.115.52-.224.778-.341a7.57,7.57,0,0,0,2.575-1.2,138.478,138.478,0,0,0,18.192-10.449c.05-.011.1-.025.15-.033-.029,0-.035-.023-.057-.032q1.334-.908,2.646-1.846a5.615,5.615,0,0,0,1.413-1.03c.271-.2.546-.394.815-.595.074.017.2-.036.514-.314-.018-.013-.02-.035-.03-.052a139.441,139.441,0,0,0,13.987-12.067c.036-.015.065-.029.1-.044.055-.072.083-.119.118-.171a138.932,138.932,0,0,0,36.753-133.421,6.745,6.745,0,0,1-.034-1.476,13.1,13.1,0,0,1-.817-4.391c-.209-.474-.236-.175-.407-.479.18-1.164-.618-2.2-.727-3.323.016-.544.358.043.719.687-.115-1.4-.865-2.708-1.185-4.08-.14-1.075.473.439.421-.334-.47-2.023-1.381-2.94-2.309-5.2.145-.763,1.354,1.752,1.871,2.591a5.04,5.04,0,0,1-.226-1.311c-.153-.228-.1.146-.121.3-.531-.964-.446-1.629-.982-1.969-.052-.51.158-.272.088-.833a35.085,35.085,0,0,1-2.118-4.953c-.424-.552-.613-.5-.554.145a5.891,5.891,0,0,1-.877-1.414,2.693,2.693,0,0,1,.4-1.206c.962,1.939,2.682,4.774,3.5,5.167.747,1.508,1.337,3.09,1.957,4.649a30.526,30.526,0,0,1,1.512,4.758c.309-.949.846,1.492,1.187,2.8-.184.435-.388-1.361-.742-1.785.1,1.421,1.138,2.715,1.629,4.095.056,1.032-.492-.547-.167.829.554.221,1.46,3.837,1.8,5.745.762,1.505.91,3.4,1.542,5.554.52.14-.267-1.935-.348-2.665.314.9.842,2.454,1.272,4.217a27.8,27.8,0,0,1,.653,5.422c.5,1.1.7,3.622.995,5.927.137,1.154.329,2.251.494,3.107s.388,1.459.707,1.614c-.092,2,.572,2.764.418,4.4-.245.028-.208-1.079-.525-.878.088.546.173,1.091.259,1.628.07.538.138,1.068.2,1.583.142,1.029.3,1.995.473,2.837.346,1.683.757,2.872,1.24,3.055.235-1.016.48-2.851.833-2.34.361-2.358.306-6.131,1.122-6.8C1625.444,610.065,1625.522,608.015,1625.063,607.759Zm-296.757-3.089a8.063,8.063,0,0,1-.275,3.717,7.3,7.3,0,0,0-.161-2.97C1328.018,605.157,1328.1,605.349,1328.306,604.67ZM1327.653,638a16.987,16.987,0,0,1,.639,4.856c-.3-.921-.412-.252-.713-1.177-.014-1.137-.266-2.29-.255-3.425C1327.484,638.595,1327.531,637.971,1327.653,638Zm-.593-24.631a13.915,13.915,0,0,1-.032,4.607C1326.768,616.389,1327.141,614.93,1327.06,613.37Zm-.034,18.888a16.427,16.427,0,0,1-.182-2.867C1327.261,630.4,1327.448,632.23,1327.026,632.258Zm.123-13.676c-.1.457-.039.952-.123,1.413-.081-.388-.2.205-.281-.054a1.984,1.984,0,0,0-.042-.872C1326.871,618.363,1327.024,618.116,1327.149,618.582Zm-.823-6.264c.453.678.332,2.471.2,3.821A9.637,9.637,0,0,1,1326.326,612.318Zm.14,9.863a8.594,8.594,0,0,1-.15-1.817c.035-.638.139-1.142.307-1.024C1326.422,620.266,1326.722,621.273,1326.466,622.181Zm-.306,3.677a10.737,10.737,0,0,1-.108-2.6,6.641,6.641,0,0,1,.175,2.329c.068-.148.135-.535.211-.253C1326.347,625.723,1326.255,625.791,1326.16,625.858Zm.914,12.1c-.495-1.557-.368-1.291-.777-1.77.058-.6.214-.291.292-.832-.091-.3-.153-.126-.237-.308.086-1.239.3-.514.523.338a2.553,2.553,0,0,0-.038,1.134c.064-.277.211.157.356.6C1327.153,637.391,1327.115,637.667,1327.074,637.953Zm.179,4c.091.164.155.1.182-.278a1.985,1.985,0,0,1-.133-1.146,41.489,41.489,0,0,1,.615,4.58A26.544,26.544,0,0,1,1327.253,641.951Zm1.542,1.492a5.275,5.275,0,0,0,.042,1.123c-.371-.632-.345,1.125-.846-.308C1328.07,642.872,1328.441,643,1328.8,643.443Zm-.16,6.79c-.07-1.243-.812-3.985-.5-4.274a22.021,22.021,0,0,0,.5,2.563c.073-.469-.08-.943-.021-1.418.263.791.563,2.015.841,1.989A1.877,1.877,0,0,1,1328.635,650.233Zm.917-61.007c.252-.552-.075-.367.137-.871.027.738.235-.858.54-1C1330.318,587.94,1329.646,589.726,1329.552,589.226Zm1.646,69.44a5.784,5.784,0,0,1-.505-2.528,6.972,6.972,0,0,1,.651,2.518C1331.255,658.509,1331.17,658.379,1331.2,658.666Zm1.708,7.253c.183.166-.2-1.242-.18-1.405-.212-.321-.246.01-.437-.243-.468-1.463-.2-1.991.417-.9.174.744.379,1.486.583,2.225.232.73.449,1.46.605,2.2C1333.389,666.758,1333.068,666.411,1332.906,665.919Zm3.537,9.8c.033-.67-.646-1.231-.511-1.922C1336.38,674.527,1337.04,676.464,1336.443,675.72Zm-.734,2.458c-.129-.725-.084-1.011.218-.623a2.971,2.971,0,0,0,.276,1.111,2.465,2.465,0,0,1,.386.8C1336.3,679.038,1336.005,678.611,1335.709,678.178Zm1.98,2.807c-.038-.378-.234-1.121.005-.873a3.627,3.627,0,0,0,1.264,2.336C1338.927,683.375,1338.245,681.917,1337.689,680.985ZM1582.948,731.9c.975-.846.667-.821,2.068-2.018a4.1,4.1,0,0,1-1.006,1.582c.208-.636-.926.713-.586.669C1582.782,732.528,1582.917,732.16,1582.948,731.9Zm-12.583,10.572c-.843.649-2.878,2.287-3.112,2.035A21.124,21.124,0,0,1,1570.365,742.471Zm-4.72,3.291c-.441.468-2.228,1.4-2.046.951C1564.133,746.467,1565.808,745.292,1565.645,745.762Zm-17.37,9.139a7.148,7.148,0,0,1-2.707,1.815A10.631,10.631,0,0,1,1548.275,754.9Zm-4.415,3.07c.531.161,1.1-.311,2.176-.616-1.714,1.019-2.957,2.364-4.1,2.292C1543.421,758.835,1543.222,758.6,1543.86,757.971Zm-2.417,2.062c-1.167.329-.707-.091-1.71.162a12.509,12.509,0,0,1,2.07-1.112C1541.361,759.548,1542.051,759.492,1541.443,760.033Zm-.645-1.508c-.35.322-2,1.092-1.468,1.149.614.04,2.384-1.212,2.157-.681a9.794,9.794,0,0,1-2.924,1.113c.471-.347.3-.4-.341-.237A10.813,10.813,0,0,1,1540.8,758.525Zm-1.341,1.718a3.329,3.329,0,0,1-1.49.774c-.566.147-1.039.171-.934.065A14.106,14.106,0,0,1,1539.457,760.243Zm-12.223,3.834c1.161-.335,1.3.062,2.738-.8.076-.285-1.641.388-.892-.217a4.164,4.164,0,0,1,2.227-.358c-1.363.976-4.255,2.117-4.863,1.877C1527.03,764.47,1526.722,764.366,1527.234,764.077Zm-4.374,1.323a7.374,7.374,0,0,1,1.674-.24,4.549,4.549,0,0,1-2.2.692C1522.72,765.64,1522.794,765.518,1522.86,765.4Zm.732,1.569a13.66,13.66,0,0,1-4.19,1.149A40.772,40.772,0,0,1,1523.592,766.969Zm-2.976-1.357a5.764,5.764,0,0,1-2.215.5A3.162,3.162,0,0,1,1520.616,765.612Zm-7.694,3.674c-1.564.2,1.1-.6.264-.576-.752.028-1.488.656-2.247.532a19.427,19.427,0,0,1,4.486-1.212C1515.074,768.433,1513.538,768.661,1512.922,769.286Zm-.627-1.9a1.974,1.974,0,0,1-1.382.693C1511.011,767.86,1511.094,767.472,1512.3,767.385Zm-6.43,1.877c1.324.014.764.618-.3.85C1504.938,769.962,1504.973,769.692,1505.865,769.262Zm-4.738-.515a10.332,10.332,0,0,1,1.115-.052c-.478.206-.948.424-1.418.6C1500,769.233,1500.7,768.974,1501.127,768.747Zm.774,1.531c.438.376,1.393-.169,2.537-.1-1.239.481-2.443.411-3.7.852a5.521,5.521,0,0,0-1.419-.026C1500.714,770.633,1501,770.915,1501.9,770.278Zm-6.781.344a6.163,6.163,0,0,1,1.405.032c-1.259.272-.766.447-2.005.478C1495.09,770.914,1494.132,770.9,1495.12,770.622Zm3.644.311c-1.664.2-6.245,1.228-5.96.369C1494.577,771.674,1497.938,770.5,1498.764,770.933Zm-13.946.8c-.361.131-.052.238-.345.366-.624-.252-1.349.1-1.977-.153A7.915,7.915,0,0,1,1484.818,771.734Zm-12.5-.371-1.815.378c-.762-.462-1.751,0-2.52-.393C1469.471,771.218,1470.889,771.359,1472.315,771.363Zm140.1-87.948c-.018.339.141.272-.042.99-.3.341-.469.8-.78,1.138A4.258,4.258,0,0,1,1612.411,683.415Zm-3.282,6.474c.6-.1.474-1.046,1.107-1.921C1610.694,688.089,1608.642,691.791,1609.129,689.889Zm-4.036,5.915c.586-.65.348.413,1.063-.887-.552,2.027-1.355,1.737-2.286,3.1C1604.076,697.083,1605,696.811,1605.093,695.8Zm-5.826,7.234c.287.224.739-.812.814-1.49.409-.278.348.264.06.983a7.057,7.057,0,0,1-1.3,2.014C1598.634,704.36,1598.942,703.573,1599.267,703.038Zm7.252-15.911c-.385.624-.969,2.265-.953,1.29C1605.916,688.186,1606.425,686.442,1606.519,687.127Zm-1.561,2.166c-.045.327.122.272-.119.95-.554.161-.485.689-1.093,1.53.124-.467-.479.376-.41,0,.675-1.134.71-.656,1.055-1.9Zm-.417-1.7a47.941,47.941,0,0,1-2.582,4.754A17.374,17.374,0,0,1,1604.541,687.6Zm-1.614,4.183a4.151,4.151,0,0,1-1.319,2.375A7.3,7.3,0,0,1,1602.927,691.781Zm-5.209,8.578c.193-.176.387-.355.586-.538a3.345,3.345,0,0,1-.985,1.65C1597.455,701.1,1597.6,700.743,1597.718,700.359Zm-4.521,6.055c-.477.665-.662,1.659-1.338,2.1A4.192,4.192,0,0,1,1593.2,706.414Zm-8.126,16.133c-.4.543-.946.874-1.376,1.371-.137.428,1.479-1.027.716.07-.951,1.028-.182-.248-1.245.6.249-.441.495-.876.745-1.321C1584.233,723.173,1585.308,721.9,1585.071,722.547Zm9.861-13.825c.24-.155.634-.521.533-.229-.41.373-.137.738-1.008,1.323Zm-.283,1.311-.434.335c-.187.594.1.575.263.711-.436.339-.609.969-1.11,1.217,1.021-2.165-1.387,1.408-1.27.6C1592.921,712.172,1594.156,709.78,1594.649,710.033Zm-.62,3.041c-.971.935-.56.86-1.375,1.773.224-.01-.105.643-.219,1.035a13.694,13.694,0,0,1-1.452,1.723c-.333.064-.191-.439-.227-.725a12.818,12.818,0,0,1-2.27,3.346c-1.115.477-1.822,1.347-3.246,2.559.332-.939,2.613-2.85,3.755-4.153-.4.284-.469.189-.4-.074,1.079-1.28,1.469-1.552,1.128-.783C1590.505,716.726,1592.91,713.488,1594.029,713.074Zm-5.84,5.408c.347-.807,1.728-2.2,1.4-1.321A14.018,14.018,0,0,1,1588.189,718.482Zm3-4.551c-.112.286.213.044.541-.2-.782,1.2-1.962,1.908-2.73,3.131A12.591,12.591,0,0,1,1591.188,713.931Zm-2.009,2.275c-.267.718-1.706,2.183-1.745,1.737C1588.071,717.432,1588.51,716.671,1589.179,716.206Zm1.38-6.335c.216-.164.431-.326.641-.487-.117.271-.236.544-.353.813-.2.5.625-.343.284.333-.542.185-.545,1.007-1.089,1.189C1590.385,710.881,1590.081,710.886,1590.559,709.871Zm-3.444,5.47c.565-.585,1.211-1.057,1.813-1.6-.733.938-1.364,2.021-2.07,3.007.265-.5.086-.471-.4-.078Q1586.784,716.009,1587.115,715.341Zm-.632,4.955c-.2.349-.391.7-.588,1.05-.471.333-.346.025-.779.316A3.055,3.055,0,0,1,1586.483,720.3Zm-2.065,1.8c-.928.789.3-.738-.631.051a4.8,4.8,0,0,1,1.509-1.623C1585.424,720.663,1584.924,721.566,1584.418,722.1Zm-1.467-2.5c.617.09,1.244-1.308,2.173-2.027C1585.045,718.6,1582.756,720.615,1582.951,719.6Zm-.994,9.687c.285-.474-.688.272-.236-.367C1582.633,727.9,1582.99,728.44,1581.957,729.284Zm-1.139-8.544c-.151.3-.273.572.166.238.594-.847.054-.473.49-1.154,1.005-.7-.065.838-.095,1.252-.718.678-.482-.141-.909.558-.226.491.334.128.107.618-.3.187-.626.353-.942.533.222-.384.569-.889,0-.494A4.469,4.469,0,0,1,1580.818,720.74Zm1.5.27c-1.263,1.333-.179.816-1.482,2.1C1580.928,722.512,1581.127,721.982,1582.316,721.01Zm-.191,3.026c-.206.336.277-.007.163.241-1.211.8-2.052,2.171-3.26,2.986C1580.128,726.278,1580.891,724.8,1582.125,724.036Zm-4.619-1.56a9.711,9.711,0,0,1-2.542,2.386A6.351,6.351,0,0,1,1577.506,722.476Zm-.839,5.1c-.212.344-.42.674-.651,1-.341.079-.925.376-.88.113C1575.755,728.5,1576.069,727.8,1576.667,727.576Zm-1.4,5.092c-.3.622.851-.637,1.238-.621.606-1.131,1.743-1.407,2.42-2.393a5.7,5.7,0,0,0,2.247-1.593c.262-.427-.577.23-.4-.108,2-1.411,1.16-.173.705,1.1-.521.344-.258-.078-.4-.108-.272.427-.762.526-1.049.924.433-.257.716-.369.8-.284-.613.915-1.3,1.233-.821,1.3a3.907,3.907,0,0,1-1.571,1.166c.2-.385.815-.829.523-.754a27.225,27.225,0,0,1-2.191,1.755c.714-.983-.138.013-.571.126.343-.7,1.056-.754,1.443-1.375a12.635,12.635,0,0,0-2.331,1.495C1575.067,733.341,1574.035,733.615,1575.266,732.668Zm-1.361,1.491c.634-.339,1.227-.643.881-.113C1574.365,734.426,1573.356,734.909,1573.905,734.159Zm-.658-3.89a7.57,7.57,0,0,1-2.226,2.067A20.949,20.949,0,0,1,1573.247,730.269Zm-6.112,1.092c-.542.854-1.423,1.062-1.962,1.943-.437.2-.716.27-.8.185A9.893,9.893,0,0,1,1567.135,731.361Zm-2.575,7.352c.5-.615,1.036-1.2,1.519-1.843.324-.146.574-.451.926-.559C1567.368,736.434,1565.722,738.15,1564.56,738.713Zm1.834-4.2c-.518.786-2.4,1.934-2.461,1.654A26.575,26.575,0,0,1,1566.394,734.517Zm.2,3.4c1.492-1.733.636-2.094,2.562-3.337-1.114,1.224-2.191,3.186-.008,1.744.143.216-.649.75-1.175,1.308-.575-.068-1.674,1.185-2.786,1.768.836-1.138-.977.708-1.538.59C1564.555,739.132,1565.675,738.73,1566.595,737.918Zm-16.266,4.939c-.444.576-1.049.72-1.5,1.3C1547.451,744.578,1549.542,743.1,1550.329,742.857Zm-1.475,8.2c-1.35.3-2.439,1.479-3.8,1.747C1545.043,752.454,1549.467,750.22,1548.854,751.055Zm-7.181,2.9c.567-.036,1.024-.447,1.584-.456a14.84,14.84,0,0,0-1.638,1.346,19.575,19.575,0,0,0-2.652.756C1539.832,754.917,1540.87,754.884,1541.673,753.959Zm-6.048-3.09a2.86,2.86,0,0,1-1.729.721A2.86,2.86,0,0,1,1535.625,750.869Zm-2.6,7.221a13.615,13.615,0,0,1-2.853,1.226A6.527,6.527,0,0,1,1533.029,758.09Zm-12.993,4.352c.734-.063,1.433-.541,2.172-.488C1521.671,762.353,1519.731,762.75,1520.036,762.442Zm3.013-.387c-1.189.255-.823-.357.208-.6C1522.5,761.894,1524.117,761.51,1523.049,762.055Zm5.974-9.186c-.382.372.7-.254.553.084a9.385,9.385,0,0,1-2.153,1.039c-.785.239-1.483.341-1.648.182C1526.946,754.216,1527.949,753.325,1529.023,752.869Zm-5.279,5.931a3,3,0,0,1-1.833.558A3,3,0,0,1,1523.744,758.8Zm-3.056,2.042c.776-.235,1.692-.472,2.665-.85.262-.2.093-.307.776-.345-.061.174-.316.411-.995.8-1.429.225-2.83.974-4.262,1.3A4.738,4.738,0,0,1,1520.688,760.842Zm-6.42,1.384c.5.169.873.2,1.881-.434.492-.018.782.021.821.132a10.276,10.276,0,0,1-2.115.895,6.625,6.625,0,0,0-2.184.227A6.472,6.472,0,0,0,1514.268,762.226Zm-5.093,2.6a4.394,4.394,0,0,1-1.636.064C1508.281,764.437,1509.957,764.4,1509.175,764.828Zm-10.749,2.267a9.135,9.135,0,0,1-3.587.115c.3-.158.151-.26.856-.471,1.107.022.4.281.8.4,1.461-.5,2.065-.6,2.259-1.018,1-.139.672.152,1.084.287a11.874,11.874,0,0,1-2.232.584C1497.969,767.016,1498.72,766.876,1498.426,767.095Zm1.424-.981a9.75,9.75,0,0,1,2.2-.5C1502.051,765.951,1500.649,766.288,1499.85,766.114Zm6.317-1.039a7.354,7.354,0,0,1-2.474.675C1504.519,765.573,1505.339,764.958,1506.167,765.075Zm-2.155-5.254a15.162,15.162,0,0,1-3.965.948A16.023,16.023,0,0,1,1504.012,759.821Zm-6.3,5.285c.493.055.782.137.81.253a5.3,5.3,0,0,1,1.991-.487c.7-.069,1.281-.047,1.286.139-1.075-.083-2.2.629-3.277.348a4.863,4.863,0,0,1-2.754.364C1496.859,765.23,1497.2,765.6,1497.71,765.106Zm.225.9c-.283.694-3.658.91-5.54.822A35.326,35.326,0,0,1,1497.935,766.011Zm-8.932,1.67c1.4-.446.991-.013,2.2.107C1490.348,768.188,1488.971,767.9,1489,767.681Zm2.313-1.046c.278.073.82.123.529.242-.626-.159-1.35.579-1.951.23Zm-1.045-.487c-1.847.594-3.714.084-2.953-.405A6.55,6.55,0,0,0,1490.271,766.148Zm-2.655-5.074c.666.087.9.214.481.389-1.144-.018-2.359.538-3.463.154C1485.651,761.326,1486.615,761.343,1487.616,761.074Zm-20.7,9.909a8.7,8.7,0,0,1-2.932.071A6.186,6.186,0,0,1,1466.913,770.983Zm-2.892-.069a20.788,20.788,0,0,1-4.245-.544C1461.162,770.4,1463.7,770.526,1464.021,770.914Zm-4.344-2.926,1.2-.137.777.311A4.036,4.036,0,0,1,1459.677,767.988Zm1.587-.45c.294-.154-.346-.425-.375-.619a4.019,4.019,0,0,1,1.917.307C1462.028,767.262,1461.979,767.734,1461.264,767.538Zm-1.1-1.068c.974.088,3.884.116,2.979.582C1462.4,766.656,1460,766.757,1460.167,766.47Zm.677.586c-.072.158.191.359-.994.379C1458.495,767.067,1459.892,766.726,1460.844,767.056Zm-1.326,3.21a5.781,5.781,0,0,1-2.32-.146C1457.266,769.914,1458.76,769.939,1459.518,770.266Zm-23.5-16.552c-1.073-.574.526-.475,1.2-.06C1436.448,753.573,1437.005,753.889,1436.021,753.714Zm169.124-211.232c-.135-.64-.871-1.051-.931-1.727C1604.766,541.073,1605.622,542.751,1605.145,542.482Zm.249,16.466c-.192.082-.9-.9-.986-1.634C1605.005,558.087,1605.178,557.771,1605.394,558.948Zm-1.555-4.229c.236.716.928,1.007,1.225,1.3.345,1.087-.18.292-.19.609a1.573,1.573,0,0,1,.267.75c-.633-1.185-1.061-2.256-1.265-1.556C1603.6,555.228,1603.635,554.724,1603.839,554.719Zm-17.384-40.769a6.4,6.4,0,0,1,1.135.957c.7,1.289-1.179-.328-.089,1.4-.749-.751-1.723-1.344-2.144-2.306C1586.586,515.4,1587.337,515.509,1586.455,513.95Zm-205.52,221.543a3.374,3.374,0,0,1,1.565,1.265c-.79-.515-.411.447-1.471-.616C1381.508,736.37,1380.659,735.442,1380.935,735.493Zm1.435-5.364c-.7-.424-.3.116-1.175-.46-.711-1.381-2.224-2.189-3.156-3.421a7.265,7.265,0,0,1,2.019,1.652C1380.834,728.685,1381.7,729.524,1382.37,730.129Zm-1.759-2.4a5.556,5.556,0,0,1,1.765,1.364C1382.2,729.238,1381.084,728.363,1380.611,727.729Zm-.064,1.751c-.927-1.3-1.742-.889-2.809-2.336,1.286.9.7.428,1.41.661C1379.726,728.377,1381.49,729.772,1380.547,729.48Zm189.611-227.895a8.561,8.561,0,0,1-2.959-1.871A11.6,11.6,0,0,1,1570.158,501.585ZM1524.446,477.3l-1.206-.144c-.235-.169-.464-.306-.706-.461A3.7,3.7,0,0,1,1524.446,477.3Zm-2.049-.351a30.239,30.239,0,0,1-4.027-1.357A9.138,9.138,0,0,1,1522.4,476.949ZM1518,475.7c-.892-.51-2.08-.442-3.018-.835C1515.99,474.7,1518.231,475.4,1518,475.7Zm-50.555-5.019a27.349,27.349,0,0,1-3.131.225A7.418,7.418,0,0,1,1467.444,470.681Zm-31.965,5.825c-1.359.223-.958.573-2.176.736C1433,477.125,1435.778,475.933,1435.479,476.506Zm-3.316.641c.056.24-1.128.534-1.833,1.091-.959.15-.047-.284-.607-.259A9.51,9.51,0,0,1,1432.163,477.147Zm-27.949,12.372c-1.21.265-2.447,1.63-2.373.886C1402.5,490.234,1404.314,489.029,1404.214,489.519Zm-8.274,4.378a11.222,11.222,0,0,1,2.057-.922,15.967,15.967,0,0,1-2.755,2.185l-.81.246C1395.738,494.416,1395.548,494.606,1395.94,493.9Zm-10.973,8.423c-.518.081-2.019,1.3-1.829.755C1383.932,502.877,1385.438,501.41,1384.967,502.32Zm-41.946,49.994c-.11.671-1.122,2.431-1.2,1.947C1342.231,553.626,1342.387,552.78,1343.021,552.314Zm-2.936,133.377a35.444,35.444,0,0,1,2.113,3.844A12.4,12.4,0,0,1,1340.085,685.691Zm3.509,5.508a11.166,11.166,0,0,1-2.071-4.12c-.892-.513-.606-1.241-.971-2.091-.062.78-.9-.45-1.315-.851-.27-1.369,1.3,1.412,1.034.044-.237-.248-.291-.07-.7-.708-.179-.388-.672-2.111-.278-1.683a26.48,26.48,0,0,0,2.051,3.849c.81,1.36,1.426,2.372.581,1.918C1342.438,688.6,1343.948,690.882,1343.594,691.2Zm.677.389a9.906,9.906,0,0,1,1.359,2.534A5.1,5.1,0,0,1,1344.271,691.588Zm6.736-.4c-.4-1.107-.831-.791-1.526-2.076-.16-.784.366-.272.85.441C1350.834,690.252,1351.331,691.14,1351.007,691.184Zm7.139,10.319a5.731,5.731,0,0,1,1.482,1.992A4.78,4.78,0,0,1,1358.146,701.5Zm2.451,6.345c-.538-1.243.468-.194,1.216.316.185.413.677.667.782,1.125C1361.563,708.718,1361.456,708.152,1360.6,707.848Zm2.312,2.193c-.562-1.413,1.773,1.092,2.081,1.981-.308-.2-.219.1-.49-.047C1363.349,710.574,1364.176,710.724,1362.909,710.041Zm3.435,4.647c-.882-.621-1.712-2.32-2.244-2.186-.144-.34-.285-.677-.426-1.011.68.436.923,1.045,1.168.92.8,1.353,1.377,1.954,2.007,1.993.647.973-.1.325-.02.635l1.218.871c.537,1.256-.541.327.819,2.049C1367.959,717.005,1366.271,715.2,1366.344,714.688Zm2.924,1.445c-.32-.539-1.027-.861-1.188-1.5C1368.672,714.847,1369.777,716.306,1369.268,716.133Zm5.585,7.917a3.045,3.045,0,0,1-.97-1.2,6.853,6.853,0,0,1,1.932,1.655C1375.693,724.566,1375.277,724.367,1374.853,724.05Zm2.807,9.722a3.383,3.383,0,0,1,1.571,1.277A3.383,3.383,0,0,1,1377.66,733.772Zm2.4,3.511c.186.011,1.222.594,1.163.159a3.96,3.96,0,0,1-1.353-1.459l1.9,1.19a7.211,7.211,0,0,1,1.682,1.342C1381.5,737.378,1381.865,739.288,1380.06,737.283Zm5.381,3.62c-.464-.594-1.385-.8-1.7-1.522C1384.385,739.606,1385.935,740.918,1385.441,740.9Zm-1.925-2.068a7.239,7.239,0,0,1,2.362,1.685A11.489,11.489,0,0,1,1383.516,738.835Zm7.384.15c-1.16-1.277-4-3.042-4.343-3.831C1387.779,736.324,1391.5,738.572,1390.9,738.985Zm-2.4-11.072a1.946,1.946,0,0,0-1.2-1.048c-.435-.979,1.993.523,2.972,1.6C1388.823,727.7,1388.9,727.722,1388.5,727.913Zm.718,8.167c-.153.148-1.387-.618-1.844-1.276A7.285,7.285,0,0,1,1389.221,736.08Zm7.613,7.086c-1.049-1.007-2.685-1.465-3.666-2.556.53.386,1.655.984,2.538,1.509S1397.271,743.04,1396.834,743.166Zm1.789.9c.512.189.841.26.954.194.122.134.241.264.366.4-.676-.022-.095.5,1.015,1.329C1399.393,745.379,1399.372,744.944,1398.623,744.064Zm3.2,1.382c-1.032-1.029-2.458-1.625-3.535-2.613a16.764,16.764,0,0,1,4.387,2.892A.917.917,0,0,0,1401.824,745.446Zm1.923-6.471a6.124,6.124,0,0,1-2.13-1.542c.867.25,1.281-.127,2.347.919C1403.111,738.149,1402.485,738.028,1403.747,738.975Zm-.2,6.184c-.847-.676-3.236-1.8-3.062-2.268C1401.4,743.51,1403.623,744.789,1403.545,745.159Zm-.677,1.994c1.642.687,4.017,2.118,6.007,3.092-.259-.321-.76-.764.074-.523-.071.641.954.659,2.2,1.614-1.087-.244-1.826-.618-1.74-.011C1408.228,749.9,1405,748.708,1402.868,747.153Zm6.493,9.191c.172-.072.526-.051,1.293.181.476.625,1.345.731,1.883,1.273-.208-.039-.41-.091-.6-.139C1411.329,757.039,1410.6,757.058,1409.361,756.344Zm2.287-4.752c.748.293,2.608,1.088,1.608,1.064C1413.018,752.154,1411.016,751.725,1411.648,751.592Zm3.368,8.582c-1.353-.729-2.995-1.049-4.124-2.086,1.391.638,1.234.026,2.435.538,1.342.774-.421.53.715.95.489.04-.075-.4,1.086-.054C1415.758,760.041,1415.257,760.049,1415.016,760.174Zm-2.043-2.022a7.286,7.286,0,0,1,2.713,1.075A11.666,11.666,0,0,1,1412.973,758.152Zm8.86-10.143c1.067.476.45.534,1.407,1.184,1.24.173,2.032,1.02,3.311,1.111a5.952,5.952,0,0,1-1.815-1.021c.608.021,1,.368,1.631.336.836.443-.5.4.754.758.806.139-.585-.589.511-.336a4.769,4.769,0,0,1,1.4.7c-.166.165-1.286-.047-1.078.265a8.363,8.363,0,0,1,1.617.866c-1.754-.639-3.507-1.284-5.231-1.974a51.854,51.854,0,0,1-4.966-2.461c1.273,0,1.79,1.086,2.982,1.194C1421.813,748.205,1421.193,748.013,1421.833,748.009Zm2.6,8.663c1.258.845.52-.126,1.262.037.545.329,1.241.41,1.692.894a17.275,17.275,0,0,0-2.448-.2,5,5,0,0,0-1.18-.694l.6.08C1424.245,756.7,1424.141,756.6,1424.438,756.672Zm-4.516-1.082c1.966.539,5.094,1.842,5.754,2.717a31.333,31.333,0,0,0-6.294-2.414c.436-.013.213-.321-.182-.709-.268.219-.367.2-1.481-.279-.5-.356-.024-.27-.041-.408-.748.085-.627-.149-1.615-.575.564.578-1.051-.082-1.61-.576.127-.213,1.184.345,2.082.4,1.712.864,1.717,1.1,2.615,1.029C1420.12,755.2,1420.214,755.515,1419.922,755.59Zm-3.057-9.571c.367-.159,1.449.668,1.481.177C1419.436,746.9,1417.443,746.587,1416.865,746.019Zm-2.634-1.271c.191-.257,1.333.437,2.233.505l.572.535A6.925,6.925,0,0,1,1414.231,744.748Zm1.494,9.646a13.738,13.738,0,0,1,2.422.863c-.532-.118,2.044.976.775.819C1417.888,755.469,1416.781,754.962,1415.725,754.394Zm2.127,6.2c.5.1-.451-.461-.06-.416.62.442,1.465.541,2.038,1.031A3.934,3.934,0,0,1,1417.852,760.595Zm-.823-3.263c1.1.376,2.106.9,3.2,1.275C1420.024,758.756,1416.906,757.659,1417.029,757.332Zm6.951,5.822c-1.243-.692-2.683-1.083-3.92-1.777,1.707.495,3.22,1.287,4.843,1.908Zm1.385.466a1.011,1.011,0,0,0,.688-.04c.585.347,2.674.974,2.275,1.148C1427.441,764.2,1426.19,764.279,1425.365,763.62Zm1.538-.353a2.905,2.905,0,0,1,2.087.332C1428.315,763.458,1427.456,763.612,1426.9,763.267Zm5.2,2.885a13.205,13.205,0,0,1-4.3-1.075c.779-.021,1.321.358,2.106.336-.638-.394-1.336-.545-.647-.593C1430.054,765.184,1432.373,765.807,1432.1,766.152Zm4.137,1.291c-1.331-.686-2.7-.357-3.555-.57-1.009-.715.688-.1,1.458-.32.42.417,1.131.289,1.739.345C1436.528,767.23,1436.725,767.433,1436.24,767.443Zm6.927-2.733a12.537,12.537,0,0,1-2.429-.663C1441.414,764.2,1443.583,764.392,1443.167,764.71Zm1.87,2.623a3.331,3.331,0,0,1,1.977.377A3.331,3.331,0,0,1,1445.037,767.333Zm8.252-.34c.525.175,1.161.039,1.615.428C1454.363,767.705,1452.72,767.082,1453.289,766.993Zm2.26-.545c.925.349.161.42-.752.448-1.151-.6-2.562-.512-3.768-.953.825-.148-.055-.545,1.615-.366,1.245.411.174.415.346.639A16.47,16.47,0,0,0,1455.549,766.448Zm-.407-.5c-1.541.1-1.144-.442-2.647-.754C1453.462,765.239,1455.154,765.667,1455.142,765.944ZM1452.9,764.9a1.258,1.258,0,0,0-1.2.078l-.989-.464C1451.379,764.369,1453.353,764.622,1452.9,764.9Zm-2.333,1.469c-.788-.265-1.685-.234-2.462-.527C1448.842,765.8,1450.955,766.047,1450.568,766.367Zm-4.177-4.207.719.384a3.154,3.154,0,0,1-1.914-.365Zm-9.989-.521a3.4,3.4,0,0,1-1.31-.446c2.1.209,2.728,1.319,3.738,1.726l1.5.053a20.663,20.663,0,0,0,6.166,1.7,3.392,3.392,0,0,1,1.915-.294c-.066.567,1.089.02,2.134.542a43.983,43.983,0,0,0-4.525.156c-1.516-1.005-4.934-1.009-7.15-1.623.313-.06,1.839.222,1.273-.086-1.078-.09-2.035-.444-3.138-.516.326.169,1.081.341.718.426-.9-.5-3.519-.759-3.415-1.191,1.245.554,3.512.628,2.493-.033-.184.216-1.131.008-2.028-.284a4.665,4.665,0,0,1-1.713-.853C1434.023,761.3,1436.839,762.292,1436.4,761.639Zm-1.414.339c-.052.166-1.313-.023-2.047-.28.593-.04-1.175-.457-1.453-.79A17.587,17.587,0,0,1,1434.988,761.978Zm-7.6-2.235c-.28-.235-.93-.617-.6-.616,1.146.6,2.616.609,3.635,1.421C1428.944,760.285,1428.339,759.747,1427.384,759.743Zm2.942-.129c-.545-.034.551.484-.221.375-.688-.264-1.422-.449-2.115-.717A4.758,4.758,0,0,1,1430.326,759.614Zm50.177-.368a9.5,9.5,0,0,1,3.157-.095A9.506,9.506,0,0,1,1480.5,759.246Zm22.466-2.129a3.11,3.11,0,0,1-.831-.1q1.4-.242,2.8-.514C1504.283,756.893,1503.621,756.745,1502.969,757.117Zm12.347-3.044q1.8-.5,3.582-1.036A20.355,20.355,0,0,1,1515.316,754.073Zm15.339-5.212c.676-.275,1.352-.548,2.022-.833A4.349,4.349,0,0,1,1530.655,748.861Zm76.023-203.085c.677,1.231,1.737,2.342,2.158,3.664A13.581,13.581,0,0,1,1606.678,545.776Zm5.542,7.9c.091.742.215,1.008.474,1.027.31,1.227-1.029-.96-.99-1.461C1611.968,553.578,1612.094,553.629,1612.22,553.676Zm-2.1-1.142a4.932,4.932,0,0,1,.942,2.04A4,4,0,0,1,1610.123,552.534Zm3.647,7.932c-.247-1.934-1.868-3.556-2.471-5.386-.132-1.005.615.932.654.4-.536-.755-1.247-2.21-.994-2.32a14.664,14.664,0,0,0,2.1,2.89,2.673,2.673,0,0,0,.814,1.815,4.358,4.358,0,0,1-.064,1.739c.826,1.281.722.263.84-.2C1615.377,561.6,1614.636,561.6,1613.77,560.466Zm8.373,41.565c-.26-.013-.554-1.41-.61-2.211A3.234,3.234,0,0,1,1622.143,602.031Z" fill="#fff"/><path d="M1481.015,767.428h0Z" fill="#fff"/><path d="M1535.357,481.345a.5.5,0,0,0,.093,0A.233.233,0,0,0,1535.357,481.345Z" fill="#fff"/><path d="M1613.027,679.967a3.478,3.478,0,0,0,.174-.346A1.261,1.261,0,0,0,1613.027,679.967Z" fill="#fff"/><path d="M1481.015,767.428c-.554.011-1.108.018-1.665.048C1478.8,767.747,1480.555,767.7,1481.015,767.428Z" fill="#fff"/><path d="M1552.76,749.694c.029-.034.077-.075.119-.114C1552.767,749.649,1552.715,749.692,1552.76,749.694Z" fill="#fff"/></g><text transform="translate(899.783 2466)" fill="#31006f" font-size="68" font-weight="100" font-family="FSMaja, FS Maja"><tspan x="-59.126" y="0">96%</tspan></text><text transform="translate(899.783 2498)" fill="#31006f" font-size="22" font-weight="100" font-family="FSMaja, FS Maja"><tspan x="-113.19" y="0">OF OUR POSTGRADUATE </tspan><tspan x="-76.45" y="24">LEAVERS ARE IN </tspan><tspan x="-65.89" y="48">EMPLOYMENT</tspan><tspan x="-93.368" y="72">OR FURTHER STUDY </tspan><tspan x="-98.703" y="96">WITHIN SIX MONTHS </tspan><tspan x="-77.099" y="120">OF GRADUATING</tspan></text></g><rect width="400" height="400" transform="translate(285 54)" fill="none"/></g></svg>